<?xml version="1.0" encoding="UTF-8" standalone="no"?><svg xmlns="http://www.w3.org/2000/svg" xmlns:xlink="http://www.w3.org/1999/xlink" contentScriptType="application/ecmascript" contentStyleType="text/css" height="852px" preserveAspectRatio="none" style="width:427px;height:852px;" version="1.1" viewBox="0 0 427 852" width="427px" zoomAndPan="magnify"><defs><filter height="300%" id="fb5qtwkcxc4aa" width="300%" x="-1" y="-1"><feGaussianBlur result="blurOut" stdDeviation="2.0"/><feColorMatrix in="blurOut" result="blurOut2" type="matrix" values="0 0 0 0 0 0 0 0 0 0 0 0 0 0 0 0 0 0 .4 0"/><feOffset dx="4.0" dy="4.0" in="blurOut2" result="blurOut3"/><feBlend in="SourceGraphic" in2="blurOut3" mode="normal"/></filter></defs><g><ellipse cx="165" cy="18" fill="#000000" filter="url(#fb5qtwkcxc4aa)" rx="10" ry="10" style="stroke: none; stroke-width: 1.0;"/><rect fill="#00FF00" filter="url(#fb5qtwkcxc4aa)" height="75.875" rx="12.5" ry="12.5" style="stroke: #A80036; stroke-width: 1.5;" width="195" x="67.5" y="69"/><text fill="#000000" font-family="sans-serif" font-size="12" lengthAdjust="spacingAndGlyphs" textLength="175" x="77.5" y="90.1387">Determine cation and anion</text><text fill="#000000" font-family="sans-serif" font-size="12" lengthAdjust="spacingAndGlyphs" textLength="0" x="167" y="104.1074"/><text fill="#000000" font-family="sans-serif" font-size="12" lengthAdjust="spacingAndGlyphs" textLength="167" x="81.5" y="118.0762">Cation=Fe, charge=2+/3+</text><text fill="#000000" font-family="sans-serif" font-size="12" lengthAdjust="spacingAndGlyphs" textLength="130" x="100" y="132.0449">Anion=Cl, charge=1-</text><polygon fill="#FEFECE" filter="url(#fb5qtwkcxc4aa)" points="165,205,177,217,165,229,153,217,165,205" style="stroke: #A80036; stroke-width: 1.5;"/><rect fill="#FEFECE" filter="url(#fb5qtwkcxc4aa)" height="33.9688" rx="12.5" ry="12.5" style="stroke: #A80036; stroke-width: 1.5;" width="91" x="119.5" y="268"/><text fill="#000000" font-family="sans-serif" font-size="12" lengthAdjust="spacingAndGlyphs" textLength="71" x="129.5" y="289.1387">Write name​</text><rect fill="#000000" filter="url(#fb5qtwkcxc4aa)" height="8" style="stroke: none; stroke-width: 1.0;" width="80" x="223" y="591"/><rect fill="#00FF00" filter="url(#fb5qtwkcxc4aa)" height="61.9063" rx="12.5" ry="12.5" style="stroke: #A80036; stroke-width: 1.5;" width="91" x="231.5" y="186"/><text fill="#000000" font-family="sans-serif" font-size="12" lengthAdjust="spacingAndGlyphs" textLength="71" x="241.5" y="207.1387">Write name</text><text fill="#000000" font-family="sans-serif" font-size="12" lengthAdjust="spacingAndGlyphs" textLength="0" x="279" y="221.1074"/><text fill="#000000" font-family="sans-serif" font-size="12" lengthAdjust="spacingAndGlyphs" textLength="24" x="265" y="235.0762">Iron</text><polygon fill="#FEFECE" filter="url(#fb5qtwkcxc4aa)" points="277,322,289,334,277,346,265,334,277,322" style="stroke: #A80036; stroke-width: 1.5;"/><rect fill="#00FF00" filter="url(#fb5qtwkcxc4aa)" height="33.9688" rx="12.5" ry="12.5" style="stroke: #A80036; stroke-width: 1.5;" width="133" x="196.5" y="400"/><text fill="#000000" font-family="sans-serif" font-size="12" lengthAdjust="spacingAndGlyphs" textLength="113" x="206.5" y="421.1387">Determine charge</text><rect fill="#00FF00" filter="url(#fb5qtwkcxc4aa)" height="61.9063" rx="12.5" ry="12.5" style="stroke: #A80036; stroke-width: 1.5;" width="100" x="213" y="488"/><text fill="#000000" font-family="sans-serif" font-size="12" lengthAdjust="spacingAndGlyphs" textLength="80" x="223" y="509.1387">Write charge</text><text fill="#000000" font-family="sans-serif" font-size="12" lengthAdjust="spacingAndGlyphs" textLength="0" x="265" y="523.1074"/><text fill="#000000" font-family="sans-serif" font-size="12" lengthAdjust="spacingAndGlyphs" textLength="47" x="239.5" y="537.0762">Iron (III)</text><polygon fill="#FEFECE" filter="url(#fb5qtwkcxc4aa)" points="263,640,275,652,263,664,251,652,263,640" style="stroke: #A80036; stroke-width: 1.5;"/><rect fill="#00FF00" filter="url(#fb5qtwkcxc4aa)" height="61.9063" rx="12.5" ry="12.5" style="stroke: #A80036; stroke-width: 1.5;" width="300" x="6" y="718"/><text fill="#000000" font-family="sans-serif" font-size="12" lengthAdjust="spacingAndGlyphs" textLength="280" x="16" y="739.1387">Write name but replace last syllable with -ide</text><text fill="#000000" font-family="sans-serif" font-size="12" lengthAdjust="spacingAndGlyphs" textLength="0" x="158" y="753.1074"/><text fill="#000000" font-family="sans-serif" font-size="12" lengthAdjust="spacingAndGlyphs" textLength="102" x="105" y="767.0762">Iron (III) Chloride</text><ellipse cx="263" cy="831" fill="none" filter="url(#fb5qtwkcxc4aa)" rx="10" ry="10" style="stroke: #000000; stroke-width: 1.0;"/><ellipse cx="263.5" cy="831.5" fill="#000000" rx="6" ry="6" style="stroke: none; stroke-width: 1.0;"/><rect fill="#FEFECE" filter="url(#fb5qtwkcxc4aa)" height="33.9688" rx="12.5" ry="12.5" style="stroke: #A80036; stroke-width: 1.5;" width="91" x="325.5" y="732"/><text fill="#000000" font-family="sans-serif" font-size="12" lengthAdjust="spacingAndGlyphs" textLength="71" x="335.5" y="753.1387">Write name​​​</text><!--link start to Determine cation and anion\n\nCation=Fe, charge=2+/3+\nAnion=Cl, charge=1- --><path d="M165,28.2094 C165,36.9967 165,50.3102 165,63.5057 " fill="none" id="start-Determine cation and anion\n\nCation=Fe, charge=2+/3+\nAnion=Cl, charge=1-" style="stroke: #007F00; stroke-width: 1.0;"/><polygon fill="#007F00" points="165,68.7435,169,59.7435,165,63.7435,161,59.7435,165,68.7435" style="stroke: #007F00; stroke-width: 1.0;"/><!--link Determine cation and anion\n\nCation=Fe, charge=2+/3+\nAnion=Cl, charge=1- to #5--><path d="M165,145.164 C165,163.733 165,185.1356 165,199.7162 " fill="none" id="Determine cation and anion\n\nCation=Fe, charge=2+/3+\nAnion=Cl, charge=1--#5" style="stroke: #007F00; stroke-width: 1.0;"/><polygon fill="#007F00" points="165,204.7615,169,195.7615,165,199.7615,161,195.7615,165,204.7615" style="stroke: #007F00; stroke-width: 1.0;"/><text fill="#007F00" font-family="sans-serif" font-size="11" lengthAdjust="spacingAndGlyphs" textLength="68" x="79.45" y="194.2768">cation type?</text><!--link #5 to Write name&#8203;--><path d="M165,229.157 C165,238.415 165,251.4198 165,262.5504 " fill="none" id="#5-Write name&amp;#8203;" style="stroke: #A80036; stroke-width: 1.0;"/><polygon fill="#A80036" points="165,267.8394,169,258.8394,165,262.8394,161,258.8394,165,267.8394" style="stroke: #A80036; stroke-width: 1.0;"/><text fill="#000000" font-family="sans-serif" font-size="11" lengthAdjust="spacingAndGlyphs" textLength="51" x="113" y="245.6443">molecule</text><!--link Write name&#8203; to CAT_WRITE--><path d="M165,302.1995 C165,319.9382 165,348.4028 165,373 C165,373 165,373 165,519 C165,557.9165 213.8543,579.7657 242.5753,589.248 " fill="none" id="Write name&amp;#8203;-CAT_WRITE" style="stroke: #A80036; stroke-width: 1.0;"/><polygon fill="#A80036" points="247.6875,590.876,240.3257,584.3335,242.9233,589.3587,237.8981,591.9563,247.6875,590.876" style="stroke: #A80036; stroke-width: 1.0;"/><!--link #5 to Write name\n\nIron--><path d="M177.4139,217 C189.3356,217 208.1543,217 226.2381,217 " fill="none" id="#5-Write name\n\nIron" style="stroke: #007F00; stroke-width: 1.0;"/><polygon fill="#007F00" points="231.3128,217,222.3128,213,226.3128,217,222.3128,221,231.3128,217" style="stroke: #007F00; stroke-width: 1.0;"/><text fill="#007F00" font-family="sans-serif" font-size="11" lengthAdjust="spacingAndGlyphs" textLength="29" x="191.75" y="211.2104">atom</text><!--link Write name\n\nIron to #14--><path d="M277,248.0467 C277,270.0107 277,298.6522 277,316.6892 " fill="none" id="Write name\n\nIron-#14" style="stroke: #007F00; stroke-width: 1.0;"/><polygon fill="#007F00" points="277,321.9273,281,312.9273,277,316.9273,273,312.9273,277,321.9273" style="stroke: #007F00; stroke-width: 1.0;"/><text fill="#007F00" font-family="sans-serif" font-size="11" lengthAdjust="spacingAndGlyphs" textLength="63" x="206.5471" y="298.466">predictable</text><text fill="#007F00" font-family="sans-serif" font-size="11" lengthAdjust="spacingAndGlyphs" textLength="45" x="215.5471" y="311.2707">charge?</text><!--link #14 to CAT_WRITE--><path d="M287.3069,335.8102 C301.9962,339.0051 328.4505,347.1796 340,366 C355.8073,391.7587 342.197,403.8577 340,434 C336.2122,485.9684 349.6289,505.212 323,550 C312.2138,568.1417 291.0319,581.3507 276.9433,588.6003 " fill="none" id="#14-CAT_WRITE" style="stroke: #A80036; stroke-width: 1.0;"/><polygon fill="#A80036" points="272.1061,590.9996,281.9462,590.5836,276.5853,588.7777,278.3912,583.4168,272.1061,590.9996" style="stroke: #A80036; stroke-width: 1.0;"/><text fill="#000000" font-family="sans-serif" font-size="11" lengthAdjust="spacingAndGlyphs" textLength="20" x="340" y="465.2104">yes</text><!--link #14 to Determine charge--><path d="M275.2269,344.512 C273.1115,357.0531 269.5166,378.3661 266.7707,394.6454 " fill="none" id="#14-Determine charge" style="stroke: #007F00; stroke-width: 1.0;"/><polygon fill="#007F00" points="265.8754,399.9532,271.3167,391.7439,266.7071,395.0229,263.4282,390.4132,265.8754,399.9532" style="stroke: #007F00; stroke-width: 1.0;"/><text fill="#007F00" font-family="sans-serif" font-size="11" lengthAdjust="spacingAndGlyphs" textLength="62" x="272" y="377.2104">no (2+/3+)</text><!--link Determine charge to Write charge\n\nIron (III)--><path d="M263,434.3029 C263,447.5923 263,466.4071 263,482.9294 " fill="none" id="Determine charge-Write charge\n\nIron (III)" style="stroke: #007F00; stroke-width: 1.0;"/><polygon fill="#007F00" points="263,487.9747,267,478.9747,263,482.9747,259,478.9747,263,487.9747" style="stroke: #007F00; stroke-width: 1.0;"/><text fill="#007F00" font-family="sans-serif" font-size="11" lengthAdjust="spacingAndGlyphs" textLength="24" x="264" y="465.2104">(3+)</text><!--link Write charge\n\nIron (III) to CAT_WRITE--><path d="M263,550.3509 C263,563.1082 263,576.8974 263,585.7237 " fill="none" id="Write charge\n\nIron (III)-CAT_WRITE" style="stroke: #007F00; stroke-width: 1.0;"/><polygon fill="#007F00" points="263,590.9676,267,581.9676,263,585.9676,259,581.9676,263,590.9676" style="stroke: #007F00; stroke-width: 1.0;"/><!--link CAT_WRITE to #23--><path d="M263,599.0993 C263,606.4254 263,622.1603 263,634.5751 " fill="none" id="CAT_WRITE-#23" style="stroke: #007F00; stroke-width: 1.0;"/><polygon fill="#007F00" points="263,639.6582,267,630.6582,263,634.6582,259,630.6582,263,639.6582" style="stroke: #007F00; stroke-width: 1.0;"/><text fill="#007F00" font-family="sans-serif" font-size="11" lengthAdjust="spacingAndGlyphs" textLength="65" x="182.9688" y="629.5717">anion type?</text><!--link #23 to Write name but replace last syllable with -ide\n\nIron (III) Chloride--><path d="M256.6271,657.7773 C244.506,668.7656 217.279,693.4481 194.1996,714.3705 " fill="none" id="#23-Write name but replace last syllable with -ide\n\nIron (III) Chloride" style="stroke: #007F00; stroke-width: 1.0;"/><polygon fill="#007F00" points="190.2394,717.9605,199.5939,714.8794,193.9438,714.6024,194.2209,708.9523,190.2394,717.9605" style="stroke: #007F00; stroke-width: 1.0;"/><text fill="#007F00" font-family="sans-serif" font-size="11" lengthAdjust="spacingAndGlyphs" textLength="29" x="227" y="695.2104">atom</text><!--link Write name but replace last syllable with -ide\n\nIron (III) Chloride to end--><path d="M196.4521,780.0007 C215.8061,794.8327 237.5862,811.524 250.7971,821.6483 " fill="none" id="Write name but replace last syllable with -ide\n\nIron (III) Chloride-end" style="stroke: #007F00; stroke-width: 1.0;"/><polygon fill="#007F00" points="254.933,824.8178,250.2225,816.1684,250.9644,821.7764,245.3564,822.5182,254.933,824.8178" style="stroke: #007F00; stroke-width: 1.0;"/><!--link #23 to Write name&#8203;&#8203;&#8203;--><path d="M269.4325,657.7773 C284.5192,671.3274 322.7915,705.7016 347.8079,728.17 " fill="none" id="#23-Write name&amp;#8203;&amp;#8203;&amp;#8203;" style="stroke: #A80036; stroke-width: 1.0;"/><polygon fill="#A80036" points="351.7034,731.6688,347.6803,722.6791,347.9835,728.3278,342.3347,728.631,351.7034,731.6688" style="stroke: #A80036; stroke-width: 1.0;"/><text fill="#000000" font-family="sans-serif" font-size="11" lengthAdjust="spacingAndGlyphs" textLength="51" x="314" y="695.2104">molecule</text><!--link Write name&#8203;&#8203;&#8203; to end--><path d="M348.3597,766.1899 C326.2354,782.9879 293.3634,807.9463 275.5585,821.4649 " fill="none" id="Write name&amp;#8203;&amp;#8203;&amp;#8203;-end" style="stroke: #A80036; stroke-width: 1.0;"/><polygon fill="#A80036" points="271.3721,824.6434,280.959,822.3868,275.3543,821.6199,276.1213,816.0152,271.3721,824.6434" style="stroke: #A80036; stroke-width: 1.0;"/><!--
@startuml
(*) -[#007F00]-> "Determine cation and anion\n\nCation=Fe, charge=2+/3+\nAnion=Cl, charge=1-" #00FF00

-[#007F00]-> if "<color:#007F00> cation type?" then
    -> [molecule] "Write name&#8203;"
    - -> ===CAT_WRITE===
else
    -[#007F00]> [<color:#007F00> atom] "Write name\n\nIron" #00FF00
    -[#007F00]-> if "<color:#007F00>predictable\n<color:#007F00>charge?" then
        - -> [yes] ===CAT_WRITE===
    else
        -[#007F00]-> [<color:#007F00>no (2+/3+)] "Determine charge" #00FF00
        -[#007F00]-> [<color:#007F00>(3+)] "Write charge\n\nIron (III)" #00FF00
        -[#007F00]-> ===CAT_WRITE===
    endif
endif

-[#007F00]-> if "<color:#007F00>anion type?" then
    -[#007F00]-> [<color:#007F00>atom] "Write name but replace last syllable with -ide\n\nIron (III) Chloride" #00FF00
    -[#007F00]-> (*)
else
    - -> [molecule] "Write name&#8203;&#8203;&#8203;"
    - -> (*)
endif

@enduml

PlantUML version 1.2019.08(Sat Jul 13 19:25:14 GMT 2019)
(GPL source distribution)
Java Runtime: OpenJDK Runtime Environment
JVM: OpenJDK 64-Bit Server VM
Java Version: 11.0.4+4-alpine-r1
Operating System: Linux
OS Version: 5.3.0-29-generic
Default Encoding: UTF-8
Language: en
Country: US
--></g></svg>