<?xml version="1.0" encoding="UTF-8" standalone="no"?>
<!DOCTYPE svg PUBLIC "-//W3C//DTD SVG 1.1//EN"
 "http://www.w3.org/Graphics/SVG/1.1/DTD/svg11.dtd">
<!-- Generated by graphviz version 2.40.1 (0)
 -->
<!-- Title: G Pages: 1 -->
<svg width="537pt" height="537pt"
 viewBox="0.00 0.00 536.50 537.48" xmlns="http://www.w3.org/2000/svg" xmlns:xlink="http://www.w3.org/1999/xlink">
<g id="graph0" class="graph" transform="scale(1 1) rotate(0) translate(4 533.4802)">
<title>G</title>
<polygon fill="#ffffff" stroke="transparent" points="-4,4 -4,-533.4802 532.5,-533.4802 532.5,4 -4,4"/>
<!-- O2 -->
<g id="node1" class="node">
<title>O2</title>
<ellipse fill="none" stroke="#000000" cx="245.5" cy="-502.6102" rx="54.3945" ry="26.7407"/>
<text text-anchor="middle" x="245.5" y="-506.4102" font-family="Times,serif" font-size="14.00" fill="#000000">O2</text>
<text text-anchor="middle" x="245.5" y="-491.4102" font-family="Times,serif" font-size="14.00" fill="#000000">(oxygen)</text>
</g>
<!-- GLYC -->
<g id="node8" class="node">
<title>GLYC</title>
<polygon fill="none" stroke="#000000" points="413,-438.7401 194,-438.7401 194,-400.7401 413,-400.7401 413,-438.7401"/>
<text text-anchor="middle" x="303.5" y="-423.5401" font-family="Times,serif" font-size="14.00" fill="#000000">Glycolysis</text>
<text text-anchor="middle" x="303.5" y="-408.5401" font-family="Times,serif" font-size="14.00" fill="#000000">(happens in cell cytoplasm)</text>
</g>
<!-- O2&#45;&gt;GLYC -->
<g id="edge1" class="edge">
<title>O2&#45;&gt;GLYC</title>
<path fill="none" stroke="#000000" d="M263.5336,-476.8438C270.1023,-467.4585 277.5513,-456.8154 284.2237,-447.282"/>
<polygon fill="#000000" stroke="#000000" points="287.2189,-449.1064 290.0855,-438.9067 281.484,-445.0925 287.2189,-449.1064"/>
</g>
<!-- GLUCOSE -->
<g id="node2" class="node">
<title>GLUCOSE</title>
<ellipse fill="none" stroke="#000000" cx="362.5" cy="-502.6102" rx="44.6926" ry="18"/>
<text text-anchor="middle" x="362.5" y="-498.9102" font-family="Times,serif" font-size="14.00" fill="#000000">Glucose</text>
</g>
<!-- GLUCOSE&#45;&gt;GLYC -->
<g id="edge2" class="edge">
<title>GLUCOSE&#45;&gt;GLYC</title>
<path fill="none" stroke="#000000" d="M349.9876,-485.0356C342.1823,-474.0723 331.97,-459.7285 323.1058,-447.278"/>
<polygon fill="#000000" stroke="#000000" points="325.8816,-445.1421 317.2305,-439.0257 320.1792,-449.202 325.8816,-445.1421"/>
</g>
<!-- PY -->
<g id="node3" class="node">
<title>PY</title>
<ellipse fill="none" stroke="#000000" cx="256.5" cy="-345.7401" rx="50.0912" ry="18"/>
<text text-anchor="middle" x="256.5" y="-342.0401" font-family="Times,serif" font-size="14.00" fill="#000000">Pyruvate</text>
</g>
<!-- KREBS -->
<g id="node9" class="node">
<title>KREBS</title>
<polygon fill="none" stroke="#000000" points="285,-276.7401 28,-276.7401 28,-238.7401 285,-238.7401 285,-276.7401"/>
<text text-anchor="middle" x="156.5" y="-261.5401" font-family="Times,serif" font-size="14.00" fill="#000000">Krebs cycle</text>
<text text-anchor="middle" x="156.5" y="-246.5401" font-family="Times,serif" font-size="14.00" fill="#000000">(happens in mitochondria matrix)</text>
</g>
<!-- PY&#45;&gt;KREBS -->
<g id="edge6" class="edge">
<title>PY&#45;&gt;KREBS</title>
<path fill="none" stroke="#000000" d="M220.7895,-333.1071C208.2397,-327.3973 194.7313,-319.666 184.5,-309.7401 177.6559,-303.1003 172.0893,-294.4221 167.7751,-286.0629"/>
<polygon fill="#000000" stroke="#000000" points="170.8745,-284.4298 163.4352,-276.8861 164.5465,-287.4225 170.8745,-284.4298"/>
<text text-anchor="middle" x="245" y="-298.5401" font-family="Times,serif" font-size="14.00" fill="#000000">oxygen available</text>
</g>
<!-- FERM -->
<g id="node11" class="node">
<title>FERM</title>
<polygon fill="none" stroke="#000000" points="410,-275.7401 303,-275.7401 303,-239.7401 410,-239.7401 410,-275.7401"/>
<text text-anchor="middle" x="356.5" y="-254.0401" font-family="Times,serif" font-size="14.00" fill="#000000">Fermentation</text>
</g>
<!-- PY&#45;&gt;FERM -->
<g id="edge5" class="edge">
<title>PY&#45;&gt;FERM</title>
<path fill="none" stroke="#000000" d="M282.2101,-330.064C291.1876,-324.1341 301.1101,-317.0433 309.5,-309.7401 318.495,-301.9102 327.4909,-292.4547 335.1687,-283.7656"/>
<polygon fill="#000000" stroke="#000000" points="337.9267,-285.9269 341.8114,-276.07 332.6277,-281.353 337.9267,-285.9269"/>
<text text-anchor="middle" x="427" y="-298.5401" font-family="Times,serif" font-size="14.00" fill="#000000">not enough oxygen available</text>
</g>
<!-- ATP2 -->
<g id="node4" class="node">
<title>ATP2</title>
<ellipse fill="none" stroke="#000000" cx="351.5" cy="-345.7401" rx="27" ry="18"/>
<text text-anchor="middle" x="351.5" y="-342.0401" font-family="Times,serif" font-size="14.00" fill="#000000">ATP</text>
</g>
<!-- ATP3 -->
<g id="node5" class="node">
<title>ATP3</title>
<ellipse fill="none" stroke="#000000" cx="78.5" cy="-174.8701" rx="27" ry="18"/>
<text text-anchor="middle" x="78.5" y="-171.1701" font-family="Times,serif" font-size="14.00" fill="#000000">ATP</text>
</g>
<!-- ATP4 -->
<g id="node6" class="node">
<title>ATP4</title>
<ellipse fill="none" stroke="#000000" cx="158.5" cy="-18" rx="27" ry="18"/>
<text text-anchor="middle" x="158.5" y="-14.3" font-family="Times,serif" font-size="14.00" fill="#000000">ATP</text>
</g>
<!-- UNKNOWN -->
<g id="node7" class="node">
<title>UNKNOWN</title>
<ellipse fill="none" stroke="#000000" cx="158.5" cy="-174.8701" rx="35.194" ry="18"/>
<text text-anchor="middle" x="158.5" y="-171.1701" font-family="Times,serif" font-size="14.00" fill="#000000">?????</text>
</g>
<!-- OP -->
<g id="node10" class="node">
<title>OP</title>
<polygon fill="none" stroke="#000000" points="317,-111 0,-111 0,-73 317,-73 317,-111"/>
<text text-anchor="middle" x="158.5" y="-95.8" font-family="Times,serif" font-size="14.00" fill="#000000">Oxidative Phosphorylation</text>
<text text-anchor="middle" x="158.5" y="-80.8" font-family="Times,serif" font-size="14.00" fill="#000000">(happens in mitochondria inner membrane)</text>
</g>
<!-- UNKNOWN&#45;&gt;OP -->
<g id="edge9" class="edge">
<title>UNKNOWN&#45;&gt;OP</title>
<path fill="none" stroke="#000000" d="M158.5,-156.4785C158.5,-146.1832 158.5,-133.105 158.5,-121.4217"/>
<polygon fill="#000000" stroke="#000000" points="162.0001,-121.204 158.5,-111.2041 155.0001,-121.2041 162.0001,-121.204"/>
</g>
<!-- GLYC&#45;&gt;PY -->
<g id="edge3" class="edge">
<title>GLYC&#45;&gt;PY</title>
<path fill="none" stroke="#000000" d="M291.3963,-400.6833C285.8724,-391.9861 279.2401,-381.5436 273.2478,-372.109"/>
<polygon fill="#000000" stroke="#000000" points="276.0717,-370.0268 267.7558,-363.462 270.1628,-373.7798 276.0717,-370.0268"/>
</g>
<!-- GLYC&#45;&gt;ATP2 -->
<g id="edge4" class="edge">
<title>GLYC&#45;&gt;ATP2</title>
<path fill="none" stroke="#000000" d="M315.8612,-400.6833C321.7309,-391.6341 328.8262,-380.6956 335.1355,-370.9687"/>
<polygon fill="#000000" stroke="#000000" points="338.1456,-372.7597 340.6512,-362.4654 332.2728,-368.9504 338.1456,-372.7597"/>
</g>
<!-- KREBS&#45;&gt;ATP3 -->
<g id="edge8" class="edge">
<title>KREBS&#45;&gt;ATP3</title>
<path fill="none" stroke="#000000" d="M138.4092,-238.5198C126.9304,-226.3243 112.0205,-210.4835 99.9469,-197.656"/>
<polygon fill="#000000" stroke="#000000" points="102.2544,-195.0009 92.8518,-190.118 97.1571,-199.7986 102.2544,-195.0009"/>
</g>
<!-- KREBS&#45;&gt;UNKNOWN -->
<g id="edge7" class="edge">
<title>KREBS&#45;&gt;UNKNOWN</title>
<path fill="none" stroke="#000000" d="M156.9639,-238.5198C157.2165,-228.05 157.5341,-214.8937 157.8147,-203.2638"/>
<polygon fill="#000000" stroke="#000000" points="161.3168,-203.2147 158.0592,-193.1332 154.3189,-203.0458 161.3168,-203.2147"/>
</g>
<!-- OP&#45;&gt;ATP4 -->
<g id="edge10" class="edge">
<title>OP&#45;&gt;ATP4</title>
<path fill="none" stroke="#000000" d="M158.5,-72.9432C158.5,-64.8174 158.5,-55.1682 158.5,-46.2408"/>
<polygon fill="#000000" stroke="#000000" points="162.0001,-46.2268 158.5,-36.2269 155.0001,-46.2269 162.0001,-46.2268"/>
</g>
<!-- FERM_RES -->
<g id="node12" class="node">
<title>FERM_RES</title>
<ellipse fill="none" stroke="#000000" cx="356.5" cy="-174.8701" rx="144.5" ry="26.7407"/>
<text text-anchor="middle" x="356.5" y="-178.6701" font-family="Times,serif" font-size="14.00" fill="#000000">Lactic acid or alcohol</text>
<text text-anchor="middle" x="356.5" y="-163.6701" font-family="Times,serif" font-size="14.00" fill="#000000">(depends on the organism)</text>
</g>
<!-- FERM&#45;&gt;FERM_RES -->
<g id="edge11" class="edge">
<title>FERM&#45;&gt;FERM_RES</title>
<path fill="none" stroke="#000000" d="M356.5,-239.3486C356.5,-231.2944 356.5,-221.5371 356.5,-212.0769"/>
<polygon fill="#000000" stroke="#000000" points="360.0001,-212.0227 356.5,-202.0227 353.0001,-212.0228 360.0001,-212.0227"/>
</g>
</g>
</svg>
