<?xml version="1.0" encoding="UTF-8" standalone="no"?>
<!DOCTYPE svg PUBLIC "-//W3C//DTD SVG 1.1//EN"
 "http://www.w3.org/Graphics/SVG/1.1/DTD/svg11.dtd">
<!-- Generated by graphviz version 2.40.1 (0)
 -->
<!-- Title: %3 Pages: 1 -->
<svg width="141pt" height="835pt"
 viewBox="7.20 7.20 133.70 828.20" xmlns="http://www.w3.org/2000/svg" xmlns:xlink="http://www.w3.org/1999/xlink">
<g id="graph0" class="graph" transform="scale(1 1) rotate(0) translate(11.2 824.2)">
<title>%3</title>
<polygon fill="#ffffff" stroke="transparent" points="-4,4 -4,-817 122.5,-817 122.5,4 -4,4"/>
<!-- ATA -->
<g id="node1" class="node">
<title>ATA</title>
<text text-anchor="middle" x="14.5" y="-796" font-family="Courier,monospace" font-weight="bold" font-size="10.00" fill="#000000">ATA</text>
</g>
<!-- TAG -->
<g id="node2" class="node">
<title>TAG</title>
<text text-anchor="middle" x="14.5" y="-740" font-family="Courier,monospace" font-weight="bold" font-size="10.00" fill="#000000">TAG</text>
</g>
<!-- ATA&#45;&gt;TAG -->
<g id="edge1" class="edge">
<title>ATA&#45;&gt;TAG</title>
<path fill="none" stroke="#fc0000" d="M14.5,-783.7867C14.5,-777.5343 14.5,-770.1314 14.5,-763.3328"/>
<polygon fill="#fc0000" stroke="#fc0000" points="14.5,-757.3095 17.2001,-763.3095 14.5,-760.3095 14.5001,-763.3095 14.5001,-763.3095 14.5001,-763.3095 14.5,-760.3095 11.8001,-763.3095 14.5,-757.3095 14.5,-757.3095"/>
<text text-anchor="middle" x="37.5" y="-768" font-family="Courier,monospace" font-weight="bold" font-size="10.00" fill="#000000"> 0.010</text>
</g>
<!-- AGG -->
<g id="node3" class="node">
<title>AGG</title>
<text text-anchor="middle" x="14.5" y="-684" font-family="Courier,monospace" font-weight="bold" font-size="10.00" fill="#000000">AGG</text>
</g>
<!-- TAG&#45;&gt;AGG -->
<g id="edge2" class="edge">
<title>TAG&#45;&gt;AGG</title>
<path fill="none" stroke="#fc0000" d="M14.5,-727.7867C14.5,-721.5343 14.5,-714.1314 14.5,-707.3328"/>
<polygon fill="#fc0000" stroke="#fc0000" points="14.5,-701.3095 17.2001,-707.3095 14.5,-704.3095 14.5001,-707.3095 14.5001,-707.3095 14.5001,-707.3095 14.5,-704.3095 11.8001,-707.3095 14.5,-701.3095 14.5,-701.3095"/>
<text text-anchor="middle" x="37.5" y="-712" font-family="Courier,monospace" font-weight="bold" font-size="10.00" fill="#000000"> 0.010</text>
</g>
<!-- GGA -->
<g id="node4" class="node">
<title>GGA</title>
<text text-anchor="middle" x="43.5" y="-628" font-family="Courier,monospace" font-weight="bold" font-size="10.00" fill="#000000">GGA</text>
</g>
<!-- AGG&#45;&gt;GGA -->
<g id="edge3" class="edge">
<title>AGG&#45;&gt;GGA</title>
<path fill="none" stroke="#fc0000" d="M14.0248,-671.8211C14.3782,-665.7091 15.5338,-658.7196 18.5,-653 20.0457,-650.0194 22.1583,-647.2426 24.5051,-644.7285"/>
<polygon fill="#fc0000" stroke="#fc0000" points="28.9106,-640.4994 26.452,-646.6023 26.7464,-642.577 24.5821,-644.6546 24.5821,-644.6546 24.5821,-644.6546 26.7464,-642.577 22.7123,-642.7068 28.9106,-640.4994 28.9106,-640.4994"/>
<text text-anchor="middle" x="41.5" y="-656" font-family="Courier,monospace" font-weight="bold" font-size="10.00" fill="#000000"> 0.010</text>
</g>
<!-- GAC -->
<g id="node5" class="node">
<title>GAC</title>
<text text-anchor="middle" x="43.5" y="-572" font-family="Courier,monospace" font-weight="bold" font-size="10.00" fill="#000000">GAC</text>
</g>
<!-- GGA&#45;&gt;GAC -->
<g id="edge4" class="edge">
<title>GGA&#45;&gt;GAC</title>
<path fill="none" stroke="#000000" d="M43.5,-615.7867C43.5,-609.5343 43.5,-602.1314 43.5,-595.3328"/>
<polygon fill="#000000" stroke="#000000" points="43.5,-589.3095 46.2001,-595.3095 43.5,-592.3095 43.5001,-595.3095 43.5001,-595.3095 43.5001,-595.3095 43.5,-592.3095 40.8001,-595.3095 43.5,-589.3095 43.5,-589.3095"/>
<text text-anchor="middle" x="66.5" y="-600" font-family="Courier,monospace" font-weight="bold" font-size="10.00" fill="#000000"> 1.000</text>
</g>
<!-- ACA -->
<g id="node6" class="node">
<title>ACA</title>
<text text-anchor="middle" x="43.5" y="-516" font-family="Courier,monospace" font-weight="bold" font-size="10.00" fill="#000000">ACA</text>
</g>
<!-- GAC&#45;&gt;ACA -->
<g id="edge5" class="edge">
<title>GAC&#45;&gt;ACA</title>
<path fill="none" stroke="#000000" d="M43.5,-559.7867C43.5,-553.5343 43.5,-546.1314 43.5,-539.3328"/>
<polygon fill="#000000" stroke="#000000" points="43.5,-533.3095 46.2001,-539.3095 43.5,-536.3095 43.5001,-539.3095 43.5001,-539.3095 43.5001,-539.3095 43.5,-536.3095 40.8001,-539.3095 43.5,-533.3095 43.5,-533.3095"/>
<text text-anchor="middle" x="66.5" y="-544" font-family="Courier,monospace" font-weight="bold" font-size="10.00" fill="#000000"> 1.000</text>
</g>
<!-- CAA -->
<g id="node10" class="node">
<title>CAA</title>
<text text-anchor="middle" x="14.5" y="-460" font-family="Courier,monospace" font-weight="bold" font-size="10.00" fill="#000000">CAA</text>
</g>
<!-- ACA&#45;&gt;CAA -->
<g id="edge9" class="edge">
<title>ACA&#45;&gt;CAA</title>
<path fill="none" stroke="#000000" d="M28.9106,-508.5006C24.8975,-505.0161 20.9732,-500.769 18.5,-496 16.5071,-492.1571 15.3315,-487.741 14.6674,-483.4029"/>
<polygon fill="#000000" stroke="#000000" points="14.0248,-477.1789 17.3268,-482.8698 14.3329,-480.163 14.6411,-483.1471 14.6411,-483.1471 14.6411,-483.1471 14.3329,-480.163 11.9554,-483.4245 14.0248,-477.1789 14.0248,-477.1789"/>
<text text-anchor="middle" x="41.5" y="-488" font-family="Courier,monospace" font-weight="bold" font-size="10.00" fill="#000000"> 1.000</text>
</g>
<!-- CAG -->
<g id="node11" class="node">
<title>CAG</title>
<text text-anchor="middle" x="72.5" y="-460" font-family="Courier,monospace" font-weight="bold" font-size="10.00" fill="#000000">CAG</text>
</g>
<!-- ACA&#45;&gt;CAG -->
<g id="edge10" class="edge">
<title>ACA&#45;&gt;CAG</title>
<path fill="none" stroke="#fc0000" d="M56.4852,-503.7707C58.3239,-501.2781 60.0716,-498.6398 61.5,-496 63.6631,-492.0025 65.4968,-487.5058 67.0102,-483.1357"/>
<polygon fill="#fc0000" stroke="#fc0000" points="68.8762,-477.3137 69.616,-483.8515 67.9605,-480.1706 67.0448,-483.0274 67.0448,-483.0274 67.0448,-483.0274 67.9605,-480.1706 64.4737,-482.2033 68.8762,-477.3137 68.8762,-477.3137"/>
<text text-anchor="middle" x="88.5" y="-488" font-family="Courier,monospace" font-weight="bold" font-size="10.00" fill="#000000"> 0.010</text>
</g>
<!-- ATT -->
<g id="node7" class="node">
<title>ATT</title>
<text text-anchor="middle" x="72.5" y="-796" font-family="Courier,monospace" font-weight="bold" font-size="10.00" fill="#000000">ATT</text>
</g>
<!-- TTG -->
<g id="node8" class="node">
<title>TTG</title>
<text text-anchor="middle" x="72.5" y="-740" font-family="Courier,monospace" font-weight="bold" font-size="10.00" fill="#000000">TTG</text>
</g>
<!-- ATT&#45;&gt;TTG -->
<g id="edge6" class="edge">
<title>ATT&#45;&gt;TTG</title>
<path fill="none" stroke="#000000" d="M72.5,-783.7867C72.5,-777.5343 72.5,-770.1314 72.5,-763.3328"/>
<polygon fill="#000000" stroke="#000000" points="72.5,-757.3095 75.2001,-763.3095 72.5,-760.3095 72.5001,-763.3095 72.5001,-763.3095 72.5001,-763.3095 72.5,-760.3095 69.8001,-763.3095 72.5,-757.3095 72.5,-757.3095"/>
<text text-anchor="middle" x="95.5" y="-768" font-family="Courier,monospace" font-weight="bold" font-size="10.00" fill="#000000"> 1.000</text>
</g>
<!-- TGG -->
<g id="node9" class="node">
<title>TGG</title>
<text text-anchor="middle" x="72.5" y="-684" font-family="Courier,monospace" font-weight="bold" font-size="10.00" fill="#000000">TGG</text>
</g>
<!-- TTG&#45;&gt;TGG -->
<g id="edge7" class="edge">
<title>TTG&#45;&gt;TGG</title>
<path fill="none" stroke="#000000" d="M72.5,-727.7867C72.5,-721.5343 72.5,-714.1314 72.5,-707.3328"/>
<polygon fill="#000000" stroke="#000000" points="72.5,-701.3095 75.2001,-707.3095 72.5,-704.3095 72.5001,-707.3095 72.5001,-707.3095 72.5001,-707.3095 72.5,-704.3095 69.8001,-707.3095 72.5,-701.3095 72.5,-701.3095"/>
<text text-anchor="middle" x="95.5" y="-712" font-family="Courier,monospace" font-weight="bold" font-size="10.00" fill="#000000"> 1.000</text>
</g>
<!-- TGG&#45;&gt;GGA -->
<g id="edge8" class="edge">
<title>TGG&#45;&gt;GGA</title>
<path fill="none" stroke="#000000" d="M68.8762,-671.6863C67.0958,-665.6853 64.6464,-658.8145 61.5,-653 61.0536,-652.1751 60.5761,-651.3503 60.0743,-650.53"/>
<polygon fill="#000000" stroke="#000000" points="56.4852,-645.2293 62.0849,-648.6838 58.1672,-647.7135 59.8492,-650.1976 59.8492,-650.1976 59.8492,-650.1976 58.1672,-647.7135 57.6135,-651.7114 56.4852,-645.2293 56.4852,-645.2293"/>
<text text-anchor="middle" x="88.5" y="-656" font-family="Courier,monospace" font-weight="bold" font-size="10.00" fill="#000000"> 1.000</text>
</g>
<!-- AAT -->
<g id="node12" class="node">
<title>AAT</title>
<text text-anchor="middle" x="14.5" y="-404" font-family="Courier,monospace" font-weight="bold" font-size="10.00" fill="#000000">AAT</text>
</g>
<!-- CAA&#45;&gt;AAT -->
<g id="edge11" class="edge">
<title>CAA&#45;&gt;AAT</title>
<path fill="none" stroke="#000000" d="M14.5,-447.7867C14.5,-441.5343 14.5,-434.1314 14.5,-427.3328"/>
<polygon fill="#000000" stroke="#000000" points="14.5,-421.3095 17.2001,-427.3095 14.5,-424.3095 14.5001,-427.3095 14.5001,-427.3095 14.5001,-427.3095 14.5,-424.3095 11.8001,-427.3095 14.5,-421.3095 14.5,-421.3095"/>
<text text-anchor="middle" x="37.5" y="-432" font-family="Courier,monospace" font-weight="bold" font-size="10.00" fill="#000000"> 1.000</text>
</g>
<!-- AGT -->
<g id="node16" class="node">
<title>AGT</title>
<text text-anchor="middle" x="72.5" y="-404" font-family="Courier,monospace" font-weight="bold" font-size="10.00" fill="#000000">AGT</text>
</g>
<!-- CAG&#45;&gt;AGT -->
<g id="edge15" class="edge">
<title>CAG&#45;&gt;AGT</title>
<path fill="none" stroke="#fc0000" d="M72.5,-447.7867C72.5,-441.5343 72.5,-434.1314 72.5,-427.3328"/>
<polygon fill="#fc0000" stroke="#fc0000" points="72.5,-421.3095 75.2001,-427.3095 72.5,-424.3095 72.5001,-427.3095 72.5001,-427.3095 72.5001,-427.3095 72.5,-424.3095 69.8001,-427.3095 72.5,-421.3095 72.5,-421.3095"/>
<text text-anchor="middle" x="95.5" y="-432" font-family="Courier,monospace" font-weight="bold" font-size="10.00" fill="#000000"> 0.010</text>
</g>
<!-- ATC -->
<g id="node13" class="node">
<title>ATC</title>
<text text-anchor="middle" x="14.5" y="-348" font-family="Courier,monospace" font-weight="bold" font-size="10.00" fill="#000000">ATC</text>
</g>
<!-- AAT&#45;&gt;ATC -->
<g id="edge12" class="edge">
<title>AAT&#45;&gt;ATC</title>
<path fill="none" stroke="#000000" d="M14.5,-391.7867C14.5,-385.5343 14.5,-378.1314 14.5,-371.3328"/>
<polygon fill="#000000" stroke="#000000" points="14.5,-365.3095 17.2001,-371.3095 14.5,-368.3095 14.5001,-371.3095 14.5001,-371.3095 14.5001,-371.3095 14.5,-368.3095 11.8001,-371.3095 14.5,-365.3095 14.5,-365.3095"/>
<text text-anchor="middle" x="37.5" y="-376" font-family="Courier,monospace" font-weight="bold" font-size="10.00" fill="#000000"> 1.000</text>
</g>
<!-- TCT -->
<g id="node14" class="node">
<title>TCT</title>
<text text-anchor="middle" x="43.5" y="-292" font-family="Courier,monospace" font-weight="bold" font-size="10.00" fill="#000000">TCT</text>
</g>
<!-- ATC&#45;&gt;TCT -->
<g id="edge13" class="edge">
<title>ATC&#45;&gt;TCT</title>
<path fill="none" stroke="#000000" d="M14.0248,-335.8211C14.3782,-329.7091 15.5338,-322.7196 18.5,-317 20.0457,-314.0194 22.1583,-311.2426 24.5051,-308.7285"/>
<polygon fill="#000000" stroke="#000000" points="28.9106,-304.4994 26.452,-310.6023 26.7464,-306.577 24.5821,-308.6546 24.5821,-308.6546 24.5821,-308.6546 26.7464,-306.577 22.7123,-306.7068 28.9106,-304.4994 28.9106,-304.4994"/>
<text text-anchor="middle" x="41.5" y="-320" font-family="Courier,monospace" font-weight="bold" font-size="10.00" fill="#000000"> 1.000</text>
</g>
<!-- CTC -->
<g id="node15" class="node">
<title>CTC</title>
<text text-anchor="middle" x="43.5" y="-236" font-family="Courier,monospace" font-weight="bold" font-size="10.00" fill="#000000">CTC</text>
</g>
<!-- TCT&#45;&gt;CTC -->
<g id="edge14" class="edge">
<title>TCT&#45;&gt;CTC</title>
<path fill="none" stroke="#000000" d="M43.5,-279.7867C43.5,-273.5343 43.5,-266.1314 43.5,-259.3328"/>
<polygon fill="#000000" stroke="#000000" points="43.5,-253.3095 46.2001,-259.3095 43.5,-256.3095 43.5001,-259.3095 43.5001,-259.3095 43.5001,-259.3095 43.5,-256.3095 40.8001,-259.3095 43.5,-253.3095 43.5,-253.3095"/>
<text text-anchor="middle" x="66.5" y="-264" font-family="Courier,monospace" font-weight="bold" font-size="10.00" fill="#000000"> 1.000</text>
</g>
<!-- TCG -->
<g id="node18" class="node">
<title>TCG</title>
<text text-anchor="middle" x="43.5" y="-180" font-family="Courier,monospace" font-weight="bold" font-size="10.00" fill="#000000">TCG</text>
</g>
<!-- CTC&#45;&gt;TCG -->
<g id="edge18" class="edge">
<title>CTC&#45;&gt;TCG</title>
<path fill="none" stroke="#000000" d="M43.5,-223.7867C43.5,-217.5343 43.5,-210.1314 43.5,-203.3328"/>
<polygon fill="#000000" stroke="#000000" points="43.5,-197.3095 46.2001,-203.3095 43.5,-200.3095 43.5001,-203.3095 43.5001,-203.3095 43.5001,-203.3095 43.5,-200.3095 40.8001,-203.3095 43.5,-197.3095 43.5,-197.3095"/>
<text text-anchor="middle" x="66.5" y="-208" font-family="Courier,monospace" font-weight="bold" font-size="10.00" fill="#000000"> 1.000</text>
</g>
<!-- GTC -->
<g id="node17" class="node">
<title>GTC</title>
<text text-anchor="middle" x="72.5" y="-348" font-family="Courier,monospace" font-weight="bold" font-size="10.00" fill="#000000">GTC</text>
</g>
<!-- AGT&#45;&gt;GTC -->
<g id="edge16" class="edge">
<title>AGT&#45;&gt;GTC</title>
<path fill="none" stroke="#fc0000" d="M72.5,-391.7867C72.5,-385.5343 72.5,-378.1314 72.5,-371.3328"/>
<polygon fill="#fc0000" stroke="#fc0000" points="72.5,-365.3095 75.2001,-371.3095 72.5,-368.3095 72.5001,-371.3095 72.5001,-371.3095 72.5001,-371.3095 72.5,-368.3095 69.8001,-371.3095 72.5,-365.3095 72.5,-365.3095"/>
<text text-anchor="middle" x="95.5" y="-376" font-family="Courier,monospace" font-weight="bold" font-size="10.00" fill="#000000"> 0.010</text>
</g>
<!-- GTC&#45;&gt;TCT -->
<g id="edge17" class="edge">
<title>GTC&#45;&gt;TCT</title>
<path fill="none" stroke="#fc0000" d="M68.8762,-335.6863C67.0958,-329.6853 64.6464,-322.8145 61.5,-317 61.0536,-316.1751 60.5761,-315.3503 60.0743,-314.53"/>
<polygon fill="#fc0000" stroke="#fc0000" points="56.4852,-309.2293 62.0849,-312.6838 58.1672,-311.7135 59.8492,-314.1976 59.8492,-314.1976 59.8492,-314.1976 58.1672,-311.7135 57.6135,-315.7114 56.4852,-309.2293 56.4852,-309.2293"/>
<text text-anchor="middle" x="88.5" y="-320" font-family="Courier,monospace" font-weight="bold" font-size="10.00" fill="#000000"> 0.010</text>
</g>
<!-- CGG -->
<g id="node19" class="node">
<title>CGG</title>
<text text-anchor="middle" x="14.5" y="-124" font-family="Courier,monospace" font-weight="bold" font-size="10.00" fill="#000000">CGG</text>
</g>
<!-- TCG&#45;&gt;CGG -->
<g id="edge19" class="edge">
<title>TCG&#45;&gt;CGG</title>
<path fill="none" stroke="#000000" d="M28.9106,-172.5006C24.8975,-169.0161 20.9732,-164.769 18.5,-160 16.5071,-156.1571 15.3315,-151.741 14.6674,-147.4029"/>
<polygon fill="#000000" stroke="#000000" points="14.0248,-141.1789 17.3268,-146.8698 14.3329,-144.163 14.6411,-147.1471 14.6411,-147.1471 14.6411,-147.1471 14.3329,-144.163 11.9554,-147.4245 14.0248,-141.1789 14.0248,-141.1789"/>
<text text-anchor="middle" x="41.5" y="-152" font-family="Courier,monospace" font-weight="bold" font-size="10.00" fill="#000000"> 1.000</text>
</g>
<!-- CGT -->
<g id="node20" class="node">
<title>CGT</title>
<text text-anchor="middle" x="72.5" y="-124" font-family="Courier,monospace" font-weight="bold" font-size="10.00" fill="#000000">CGT</text>
</g>
<!-- TCG&#45;&gt;CGT -->
<g id="edge20" class="edge">
<title>TCG&#45;&gt;CGT</title>
<path fill="none" stroke="#fc0000" d="M56.4852,-167.7707C58.3239,-165.2781 60.0716,-162.6398 61.5,-160 63.6631,-156.0025 65.4968,-151.5058 67.0102,-147.1357"/>
<polygon fill="#fc0000" stroke="#fc0000" points="68.8762,-141.3137 69.616,-147.8515 67.9605,-144.1706 67.0448,-147.0274 67.0448,-147.0274 67.0448,-147.0274 67.9605,-144.1706 64.4737,-146.2033 68.8762,-141.3137 68.8762,-141.3137"/>
<text text-anchor="middle" x="88.5" y="-152" font-family="Courier,monospace" font-weight="bold" font-size="10.00" fill="#000000"> 0.010</text>
</g>
<!-- GGG -->
<g id="node21" class="node">
<title>GGG</title>
<text text-anchor="middle" x="14.5" y="-68" font-family="Courier,monospace" font-weight="bold" font-size="10.00" fill="#000000">GGG</text>
</g>
<!-- CGG&#45;&gt;GGG -->
<g id="edge21" class="edge">
<title>CGG&#45;&gt;GGG</title>
<path fill="none" stroke="#000000" d="M14.5,-111.7867C14.5,-105.5343 14.5,-98.1314 14.5,-91.3328"/>
<polygon fill="#000000" stroke="#000000" points="14.5,-85.3095 17.2001,-91.3095 14.5,-88.3095 14.5001,-91.3095 14.5001,-91.3095 14.5001,-91.3095 14.5,-88.3095 11.8001,-91.3095 14.5,-85.3095 14.5,-85.3095"/>
<text text-anchor="middle" x="37.5" y="-96" font-family="Courier,monospace" font-weight="bold" font-size="10.00" fill="#000000"> 1.000</text>
</g>
<!-- GTG -->
<g id="node23" class="node">
<title>GTG</title>
<text text-anchor="middle" x="72.5" y="-68" font-family="Courier,monospace" font-weight="bold" font-size="10.00" fill="#000000">GTG</text>
</g>
<!-- CGT&#45;&gt;GTG -->
<g id="edge23" class="edge">
<title>CGT&#45;&gt;GTG</title>
<path fill="none" stroke="#fc0000" d="M72.5,-111.7867C72.5,-105.5343 72.5,-98.1314 72.5,-91.3328"/>
<polygon fill="#fc0000" stroke="#fc0000" points="72.5,-85.3095 75.2001,-91.3095 72.5,-88.3095 72.5001,-91.3095 72.5001,-91.3095 72.5001,-91.3095 72.5,-88.3095 69.8001,-91.3095 72.5,-85.3095 72.5,-85.3095"/>
<text text-anchor="middle" x="95.5" y="-96" font-family="Courier,monospace" font-weight="bold" font-size="10.00" fill="#000000"> 0.010</text>
</g>
<!-- GGC -->
<g id="node22" class="node">
<title>GGC</title>
<text text-anchor="middle" x="14.5" y="-12" font-family="Courier,monospace" font-weight="bold" font-size="10.00" fill="#000000">GGC</text>
</g>
<!-- GGG&#45;&gt;GGC -->
<g id="edge22" class="edge">
<title>GGG&#45;&gt;GGC</title>
<path fill="none" stroke="#000000" d="M14.5,-55.7867C14.5,-49.5343 14.5,-42.1314 14.5,-35.3328"/>
<polygon fill="#000000" stroke="#000000" points="14.5,-29.3095 17.2001,-35.3095 14.5,-32.3095 14.5001,-35.3095 14.5001,-35.3095 14.5001,-35.3095 14.5,-32.3095 11.8001,-35.3095 14.5,-29.3095 14.5,-29.3095"/>
<text text-anchor="middle" x="37.5" y="-40" font-family="Courier,monospace" font-weight="bold" font-size="10.00" fill="#000000"> 1.000</text>
</g>
<!-- TGC -->
<g id="node24" class="node">
<title>TGC</title>
<text text-anchor="middle" x="72.5" y="-12" font-family="Courier,monospace" font-weight="bold" font-size="10.00" fill="#000000">TGC</text>
</g>
<!-- GTG&#45;&gt;TGC -->
<g id="edge24" class="edge">
<title>GTG&#45;&gt;TGC</title>
<path fill="none" stroke="#fc0000" d="M72.5,-55.7867C72.5,-49.5343 72.5,-42.1314 72.5,-35.3328"/>
<polygon fill="#fc0000" stroke="#fc0000" points="72.5,-29.3095 75.2001,-35.3095 72.5,-32.3095 72.5001,-35.3095 72.5001,-35.3095 72.5001,-35.3095 72.5,-32.3095 69.8001,-35.3095 72.5,-29.3095 72.5,-29.3095"/>
<text text-anchor="middle" x="95.5" y="-40" font-family="Courier,monospace" font-weight="bold" font-size="10.00" fill="#000000"> 0.010</text>
</g>
</g>
</svg>
