<?xml version="1.0" encoding="UTF-8" standalone="no"?>
<!DOCTYPE svg PUBLIC "-//W3C//DTD SVG 1.1//EN"
 "http://www.w3.org/Graphics/SVG/1.1/DTD/svg11.dtd">
<!-- Generated by graphviz version 2.40.1 (0)
 -->
<!-- Title: %3 Pages: 1 -->
<svg width="525pt" height="153pt"
 viewBox="14.40 14.40 510.40 138.40" xmlns="http://www.w3.org/2000/svg" xmlns:xlink="http://www.w3.org/1999/xlink">
<g id="graph0" class="graph" transform="scale(1 1) rotate(0) translate(18.4 134.4)">
<title>%3</title>
<polygon fill="#ffffff" stroke="transparent" points="-4,4 -4,-120 492,-120 492,4 -4,4"/>
<!-- TTA [0] -->
<g id="node1" class="node">
<title>TTA [0]</title>
<polygon fill="none" stroke="#000000" points="54,-93 0,-93 0,-57 54,-57 54,-93"/>
<text text-anchor="middle" x="27" y="-72.5" font-family="Courier,monospace" font-weight="bold" font-size="10.00" fill="#000000">TTA [0]</text>
</g>
<!-- TAG [0] -->
<g id="node2" class="node">
<title>TAG [0]</title>
<polygon fill="none" stroke="#000000" points="116,-76 62,-76 62,-40 116,-40 116,-76"/>
<text text-anchor="middle" x="89" y="-55.5" font-family="Courier,monospace" font-weight="bold" font-size="10.00" fill="#000000">TAG [0]</text>
</g>
<!-- TTA [0]&#45;&gt;TAG [0] -->
<g id="edge1" class="edge">
<title>TTA [0]&#45;&gt;TAG [0]</title>
<path fill="none" stroke="#000000" d="M54.0137,-67.593C54.6664,-67.4141 55.3214,-67.2344 55.9777,-67.0545"/>
<polygon fill="#000000" stroke="#000000" points="61.8848,-65.4348 56.8124,-69.6254 58.9916,-66.2281 56.0984,-67.0215 56.0984,-67.0215 56.0984,-67.0215 58.9916,-66.2281 55.3844,-64.4176 61.8848,-65.4348 61.8848,-65.4348"/>
</g>
<!-- TAC [0] -->
<g id="node3" class="node">
<title>TAC [0]</title>
<polygon fill="none" stroke="#000000" points="364,-76 310,-76 310,-40 364,-40 364,-76"/>
<text text-anchor="middle" x="337" y="-55.5" font-family="Courier,monospace" font-weight="bold" font-size="10.00" fill="#000000">TAC [0]</text>
</g>
<!-- TTA [0]&#45;&gt;TAC [0] -->
<g id="edge2" class="edge">
<title>TTA [0]&#45;&gt;TAC [0]</title>
<path fill="none" stroke="#000000" d="M54.1963,-90.6183C56.7941,-91.8492 59.4214,-93.0003 62,-94 99.9911,-108.7283 110.2539,-116 151,-116 151,-116 151,-116 213,-116 248.7229,-116 285.2442,-96.0053 309.3115,-79.4953"/>
<polygon fill="#000000" stroke="#000000" points="314.2533,-76.0336 310.8881,-81.6875 311.7962,-77.7548 309.339,-79.476 309.339,-79.476 309.339,-79.476 311.7962,-77.7548 307.79,-77.2646 314.2533,-76.0336 314.2533,-76.0336"/>
</g>
<!-- AGT [0] -->
<g id="node4" class="node">
<title>AGT [0]</title>
<polygon fill="none" stroke="#000000" points="178,-76 124,-76 124,-40 178,-40 178,-76"/>
<text text-anchor="middle" x="151" y="-55.5" font-family="Courier,monospace" font-weight="bold" font-size="10.00" fill="#000000">AGT [0]</text>
</g>
<!-- TAG [0]&#45;&gt;AGT [0] -->
<g id="edge3" class="edge">
<title>TAG [0]&#45;&gt;AGT [0]</title>
<path fill="none" stroke="#000000" d="M116.0137,-58C116.5032,-58 116.9941,-58 117.4857,-58"/>
<polygon fill="#000000" stroke="#000000" points="123.8848,-58 117.8849,-60.7001 120.8848,-58 117.8848,-58.0001 117.8848,-58.0001 117.8848,-58.0001 120.8848,-58 117.8848,-55.3001 123.8848,-58 123.8848,-58"/>
</g>
<!-- ACT [0] -->
<g id="node5" class="node">
<title>ACT [0]</title>
<polygon fill="none" stroke="#000000" points="426,-76 372,-76 372,-40 426,-40 426,-76"/>
<text text-anchor="middle" x="399" y="-55.5" font-family="Courier,monospace" font-weight="bold" font-size="10.00" fill="#000000">ACT [0]</text>
</g>
<!-- TAC [0]&#45;&gt;ACT [0] -->
<g id="edge4" class="edge">
<title>TAC [0]&#45;&gt;ACT [0]</title>
<path fill="none" stroke="#000000" d="M364.0137,-58C364.5032,-58 364.9941,-58 365.4857,-58"/>
<polygon fill="#000000" stroke="#000000" points="371.8848,-58 365.8849,-60.7001 368.8848,-58 365.8848,-58.0001 365.8848,-58.0001 365.8848,-58.0001 368.8848,-58 365.8848,-55.3001 371.8848,-58 371.8848,-58"/>
</g>
<!-- GTT [0] -->
<g id="node7" class="node">
<title>GTT [0]</title>
<polygon fill="none" stroke="#000000" points="240,-76 186,-76 186,-40 240,-40 240,-76"/>
<text text-anchor="middle" x="213" y="-55.5" font-family="Courier,monospace" font-weight="bold" font-size="10.00" fill="#000000">GTT [0]</text>
</g>
<!-- AGT [0]&#45;&gt;GTT [0] -->
<g id="edge7" class="edge">
<title>AGT [0]&#45;&gt;GTT [0]</title>
<path fill="none" stroke="#000000" d="M178.0137,-58C178.5032,-58 178.9941,-58 179.4857,-58"/>
<polygon fill="#000000" stroke="#000000" points="185.8848,-58 179.8849,-60.7001 182.8848,-58 179.8848,-58.0001 179.8848,-58.0001 179.8848,-58.0001 182.8848,-58 179.8848,-55.3001 185.8848,-58 185.8848,-58"/>
</g>
<!-- CTT [0] -->
<g id="node8" class="node">
<title>CTT [0]</title>
<polygon fill="none" stroke="#000000" points="488,-41 434,-41 434,-5 488,-5 488,-41"/>
<text text-anchor="middle" x="461" y="-20.5" font-family="Courier,monospace" font-weight="bold" font-size="10.00" fill="#000000">CTT [0]</text>
</g>
<!-- ACT [0]&#45;&gt;CTT [0] -->
<g id="edge12" class="edge">
<title>ACT [0]&#45;&gt;CTT [0]</title>
<path fill="none" stroke="#000000" d="M426.0137,-42.7503C426.8296,-42.2898 427.6491,-41.8271 428.4701,-41.3637"/>
<polygon fill="#000000" stroke="#000000" points="433.8848,-38.307 429.9872,-43.6078 431.2723,-39.7818 428.6599,-41.2566 428.6599,-41.2566 428.6599,-41.2566 431.2723,-39.7818 427.3325,-38.9053 433.8848,-38.307 433.8848,-38.307"/>
</g>
<!-- TTA [1] -->
<g id="node6" class="node">
<title>TTA [1]</title>
<polygon fill="none" stroke="#000000" points="302,-65 248,-65 248,-29 302,-29 302,-65"/>
<text text-anchor="middle" x="275" y="-44.5" font-family="Courier,monospace" font-weight="bold" font-size="10.00" fill="#000000">TTA [1]</text>
</g>
<!-- TTA [1]&#45;&gt;TAG [0] -->
<g id="edge5" class="edge">
<title>TTA [1]&#45;&gt;TAG [0]</title>
<path fill="none" stroke="#000000" d="M247.7095,-36.6895C245.1314,-36.0058 242.5345,-35.4224 240,-35 189.1459,-26.5243 173.3926,-20.2235 124,-35 122.0495,-35.5835 120.107,-36.3145 118.1941,-37.1538"/>
<polygon fill="#000000" stroke="#000000" points="112.5655,-39.9571 116.7325,-34.8653 115.2509,-38.6196 117.9363,-37.2822 117.9363,-37.2822 117.9363,-37.2822 115.2509,-38.6196 119.14,-39.699 112.5655,-39.9571 112.5655,-39.9571"/>
</g>
<!-- TTA [1]&#45;&gt;TAC [0] -->
<g id="edge6" class="edge">
<title>TTA [1]&#45;&gt;TAC [0]</title>
<path fill="none" stroke="#000000" d="M302.0137,-51.7928C302.5032,-51.8796 302.9941,-51.9667 303.4857,-52.0539"/>
<polygon fill="#000000" stroke="#000000" points="309.8848,-53.1892 303.5054,-54.7995 306.9309,-52.6651 303.9771,-52.141 303.9771,-52.141 303.9771,-52.141 306.9309,-52.6651 304.4488,-49.4825 309.8848,-53.1892 309.8848,-53.1892"/>
</g>
<!-- GTT [0]&#45;&gt;TTA [0] -->
<g id="edge8" class="edge">
<title>GTT [0]&#45;&gt;TTA [0]</title>
<path fill="none" stroke="#000000" d="M190.6816,-76.129C186.666,-78.5427 182.3633,-80.6477 178,-82 138.8718,-94.1268 91.3203,-88.8627 60.1648,-82.907"/>
<polygon fill="#000000" stroke="#000000" points="54.1597,-81.7116 60.5714,-80.2351 57.102,-82.2974 60.0442,-82.8831 60.0442,-82.8831 60.0442,-82.8831 57.102,-82.2974 59.5171,-85.5311 54.1597,-81.7116 54.1597,-81.7116"/>
</g>
<!-- GTT [0]&#45;&gt;TTA [1] -->
<g id="edge9" class="edge">
<title>GTT [0]&#45;&gt;TTA [1]</title>
<path fill="none" stroke="#000000" d="M240.0137,-53.2072C240.5032,-53.1204 240.9941,-53.0333 241.4857,-52.9461"/>
<polygon fill="#000000" stroke="#000000" points="247.8848,-51.8108 242.4488,-55.5175 244.9309,-52.3349 241.9771,-52.859 241.9771,-52.859 241.9771,-52.859 244.9309,-52.3349 241.5054,-50.2005 247.8848,-51.8108 247.8848,-51.8108"/>
</g>
<!-- CTT [0]&#45;&gt;TTA [0] -->
<g id="edge10" class="edge">
<title>CTT [0]&#45;&gt;TTA [0]</title>
<path fill="none" stroke="#000000" d="M433.6894,-14.9557C408.742,-8.3232 370.7183,0 337,0 151,0 151,0 151,0 108.4957,0 96.7575,-10.535 62,-35 55.2654,-39.7403 48.9726,-46.0372 43.632,-52.2291"/>
<polygon fill="#000000" stroke="#000000" points="39.7421,-56.9161 41.4963,-50.5747 41.658,-54.6075 43.574,-52.299 43.574,-52.299 43.574,-52.299 41.658,-54.6075 45.6516,-54.0234 39.7421,-56.9161 39.7421,-56.9161"/>
</g>
<!-- CTT [0]&#45;&gt;TTA [1] -->
<g id="edge11" class="edge">
<title>CTT [0]&#45;&gt;TTA [1]</title>
<path fill="none" stroke="#000000" d="M433.9817,-23.1147C403.5443,-23.7119 352.7423,-26.1219 310,-35 309.5283,-35.098 309.0542,-35.2005 308.5782,-35.3073"/>
<polygon fill="#000000" stroke="#000000" points="302.3306,-36.9034 307.4755,-32.8022 305.2372,-36.1608 308.1439,-35.4182 308.1439,-35.4182 308.1439,-35.4182 305.2372,-36.1608 308.8122,-38.0341 302.3306,-36.9034 302.3306,-36.9034"/>
</g>
</g>
</svg>
