<?xml version="1.0" encoding="UTF-8" standalone="no"?>
<!DOCTYPE svg PUBLIC "-//W3C//DTD SVG 1.1//EN"
 "http://www.w3.org/Graphics/SVG/1.1/DTD/svg11.dtd">
<!-- Generated by graphviz version 2.40.1 (0)
 -->
<!-- Title: %3 Pages: 1 -->
<svg width="141pt" height="891pt"
 viewBox="7.20 7.20 133.70 884.20" xmlns="http://www.w3.org/2000/svg" xmlns:xlink="http://www.w3.org/1999/xlink">
<g id="graph0" class="graph" transform="scale(1 1) rotate(0) translate(11.2 880.2)">
<title>%3</title>
<polygon fill="#ffffff" stroke="transparent" points="-4,4 -4,-873 122.5,-873 122.5,4 -4,4"/>
<!-- ATT -->
<g id="node1" class="node">
<title>ATT</title>
<text text-anchor="middle" x="43.5" y="-852" font-family="Courier,monospace" font-weight="bold" font-size="10.00" fill="#000000">ATT</text>
</g>
<!-- TTG -->
<g id="node2" class="node">
<title>TTG</title>
<text text-anchor="middle" x="43.5" y="-796" font-family="Courier,monospace" font-weight="bold" font-size="10.00" fill="#000000">TTG</text>
</g>
<!-- ATT&#45;&gt;TTG -->
<g id="edge1" class="edge">
<title>ATT&#45;&gt;TTG</title>
<path fill="none" stroke="#bc0000" d="M43.5,-839.7867C43.5,-833.5343 43.5,-826.1314 43.5,-819.3328"/>
<polygon fill="#bc0000" stroke="#bc0000" points="43.5,-813.3095 46.2001,-819.3095 43.5,-816.3095 43.5001,-819.3095 43.5001,-819.3095 43.5001,-819.3095 43.5,-816.3095 40.8001,-819.3095 43.5,-813.3095 43.5,-813.3095"/>
<text text-anchor="middle" x="66.5" y="-824" font-family="Courier,monospace" font-weight="bold" font-size="10.00" fill="#000000"> 0.260</text>
</g>
<!-- TGG -->
<g id="node3" class="node">
<title>TGG</title>
<text text-anchor="middle" x="14.5" y="-740" font-family="Courier,monospace" font-weight="bold" font-size="10.00" fill="#000000">TGG</text>
</g>
<!-- TTG&#45;&gt;TGG -->
<g id="edge2" class="edge">
<title>TTG&#45;&gt;TGG</title>
<path fill="none" stroke="#890000" d="M28.9106,-788.5006C24.8975,-785.0161 20.9732,-780.769 18.5,-776 16.5071,-772.1571 15.3315,-767.741 14.6674,-763.4029"/>
<polygon fill="#890000" stroke="#890000" points="14.0248,-757.1789 17.3268,-762.8698 14.3329,-760.163 14.6411,-763.1471 14.6411,-763.1471 14.6411,-763.1471 14.3329,-760.163 11.9554,-763.4245 14.0248,-757.1789 14.0248,-757.1789"/>
<text text-anchor="middle" x="41.5" y="-768" font-family="Courier,monospace" font-weight="bold" font-size="10.00" fill="#000000"> 0.460</text>
</g>
<!-- TGA -->
<g id="node4" class="node">
<title>TGA</title>
<text text-anchor="middle" x="72.5" y="-740" font-family="Courier,monospace" font-weight="bold" font-size="10.00" fill="#000000">TGA</text>
</g>
<!-- TTG&#45;&gt;TGA -->
<g id="edge3" class="edge">
<title>TTG&#45;&gt;TGA</title>
<path fill="none" stroke="#fc0000" d="M56.4852,-783.7707C58.3239,-781.2781 60.0716,-778.6398 61.5,-776 63.6631,-772.0025 65.4968,-767.5058 67.0102,-763.1357"/>
<polygon fill="#fc0000" stroke="#fc0000" points="68.8762,-757.3137 69.616,-763.8515 67.9605,-760.1706 67.0448,-763.0274 67.0448,-763.0274 67.0448,-763.0274 67.9605,-760.1706 64.4737,-762.2033 68.8762,-757.3137 68.8762,-757.3137"/>
<text text-anchor="middle" x="88.5" y="-768" font-family="Courier,monospace" font-weight="bold" font-size="10.00" fill="#000000"> 0.010</text>
</g>
<!-- GGA -->
<g id="node5" class="node">
<title>GGA</title>
<text text-anchor="middle" x="14.5" y="-684" font-family="Courier,monospace" font-weight="bold" font-size="10.00" fill="#000000">GGA</text>
</g>
<!-- TGG&#45;&gt;GGA -->
<g id="edge4" class="edge">
<title>TGG&#45;&gt;GGA</title>
<path fill="none" stroke="#000000" d="M14.5,-727.7867C14.5,-721.5343 14.5,-714.1314 14.5,-707.3328"/>
<polygon fill="#000000" stroke="#000000" points="14.5,-701.3095 17.2001,-707.3095 14.5,-704.3095 14.5001,-707.3095 14.5001,-707.3095 14.5001,-707.3095 14.5,-704.3095 11.8001,-707.3095 14.5,-701.3095 14.5,-701.3095"/>
<text text-anchor="middle" x="37.5" y="-712" font-family="Courier,monospace" font-weight="bold" font-size="10.00" fill="#000000"> 1.000</text>
</g>
<!-- GAA -->
<g id="node18" class="node">
<title>GAA</title>
<text text-anchor="middle" x="72.5" y="-684" font-family="Courier,monospace" font-weight="bold" font-size="10.00" fill="#000000">GAA</text>
</g>
<!-- TGA&#45;&gt;GAA -->
<g id="edge17" class="edge">
<title>TGA&#45;&gt;GAA</title>
<path fill="none" stroke="#fc0000" d="M72.5,-727.7867C72.5,-721.5343 72.5,-714.1314 72.5,-707.3328"/>
<polygon fill="#fc0000" stroke="#fc0000" points="72.5,-701.3095 75.2001,-707.3095 72.5,-704.3095 72.5001,-707.3095 72.5001,-707.3095 72.5001,-707.3095 72.5,-704.3095 69.8001,-707.3095 72.5,-701.3095 72.5,-701.3095"/>
<text text-anchor="middle" x="95.5" y="-712" font-family="Courier,monospace" font-weight="bold" font-size="10.00" fill="#000000"> 0.010</text>
</g>
<!-- GAC -->
<g id="node6" class="node">
<title>GAC</title>
<text text-anchor="middle" x="14.5" y="-628" font-family="Courier,monospace" font-weight="bold" font-size="10.00" fill="#000000">GAC</text>
</g>
<!-- GGA&#45;&gt;GAC -->
<g id="edge5" class="edge">
<title>GGA&#45;&gt;GAC</title>
<path fill="none" stroke="#000000" d="M14.5,-671.7867C14.5,-665.5343 14.5,-658.1314 14.5,-651.3328"/>
<polygon fill="#000000" stroke="#000000" points="14.5,-645.3095 17.2001,-651.3095 14.5,-648.3095 14.5001,-651.3095 14.5001,-651.3095 14.5001,-651.3095 14.5,-648.3095 11.8001,-651.3095 14.5,-645.3095 14.5,-645.3095"/>
<text text-anchor="middle" x="37.5" y="-656" font-family="Courier,monospace" font-weight="bold" font-size="10.00" fill="#000000"> 1.000</text>
</g>
<!-- ACA -->
<g id="node7" class="node">
<title>ACA</title>
<text text-anchor="middle" x="14.5" y="-572" font-family="Courier,monospace" font-weight="bold" font-size="10.00" fill="#000000">ACA</text>
</g>
<!-- GAC&#45;&gt;ACA -->
<g id="edge6" class="edge">
<title>GAC&#45;&gt;ACA</title>
<path fill="none" stroke="#000000" d="M14.5,-615.7867C14.5,-609.5343 14.5,-602.1314 14.5,-595.3328"/>
<polygon fill="#000000" stroke="#000000" points="14.5,-589.3095 17.2001,-595.3095 14.5,-592.3095 14.5001,-595.3095 14.5001,-595.3095 14.5001,-595.3095 14.5,-592.3095 11.8001,-595.3095 14.5,-589.3095 14.5,-589.3095"/>
<text text-anchor="middle" x="37.5" y="-600" font-family="Courier,monospace" font-weight="bold" font-size="10.00" fill="#000000"> 1.000</text>
</g>
<!-- CAA -->
<g id="node12" class="node">
<title>CAA</title>
<text text-anchor="middle" x="14.5" y="-516" font-family="Courier,monospace" font-weight="bold" font-size="10.00" fill="#000000">CAA</text>
</g>
<!-- ACA&#45;&gt;CAA -->
<g id="edge10" class="edge">
<title>ACA&#45;&gt;CAA</title>
<path fill="none" stroke="#000000" d="M14.5,-559.7867C14.5,-553.5343 14.5,-546.1314 14.5,-539.3328"/>
<polygon fill="#000000" stroke="#000000" points="14.5,-533.3095 17.2001,-539.3095 14.5,-536.3095 14.5001,-539.3095 14.5001,-539.3095 14.5001,-539.3095 14.5,-536.3095 11.8001,-539.3095 14.5,-533.3095 14.5,-533.3095"/>
<text text-anchor="middle" x="37.5" y="-544" font-family="Courier,monospace" font-weight="bold" font-size="10.00" fill="#000000"> 1.000</text>
</g>
<!-- CCG -->
<g id="node8" class="node">
<title>CCG</title>
<text text-anchor="middle" x="14.5" y="-180" font-family="Courier,monospace" font-weight="bold" font-size="10.00" fill="#000000">CCG</text>
</g>
<!-- CGC -->
<g id="node9" class="node">
<title>CGC</title>
<text text-anchor="middle" x="14.5" y="-124" font-family="Courier,monospace" font-weight="bold" font-size="10.00" fill="#000000">CGC</text>
</g>
<!-- CCG&#45;&gt;CGC -->
<g id="edge7" class="edge">
<title>CCG&#45;&gt;CGC</title>
<path fill="none" stroke="#000000" d="M14.5,-167.7867C14.5,-161.5343 14.5,-154.1314 14.5,-147.3328"/>
<polygon fill="#000000" stroke="#000000" points="14.5,-141.3095 17.2001,-147.3095 14.5,-144.3095 14.5001,-147.3095 14.5001,-147.3095 14.5001,-147.3095 14.5,-144.3095 11.8001,-147.3095 14.5,-141.3095 14.5,-141.3095"/>
<text text-anchor="middle" x="37.5" y="-152" font-family="Courier,monospace" font-weight="bold" font-size="10.00" fill="#000000"> 1.000</text>
</g>
<!-- GCA -->
<g id="node10" class="node">
<title>GCA</title>
<text text-anchor="middle" x="14.5" y="-68" font-family="Courier,monospace" font-weight="bold" font-size="10.00" fill="#000000">GCA</text>
</g>
<!-- CGC&#45;&gt;GCA -->
<g id="edge8" class="edge">
<title>CGC&#45;&gt;GCA</title>
<path fill="none" stroke="#000000" d="M14.5,-111.7867C14.5,-105.5343 14.5,-98.1314 14.5,-91.3328"/>
<polygon fill="#000000" stroke="#000000" points="14.5,-85.3095 17.2001,-91.3095 14.5,-88.3095 14.5001,-91.3095 14.5001,-91.3095 14.5001,-91.3095 14.5,-88.3095 11.8001,-91.3095 14.5,-85.3095 14.5,-85.3095"/>
<text text-anchor="middle" x="37.5" y="-96" font-family="Courier,monospace" font-weight="bold" font-size="10.00" fill="#000000"> 1.000</text>
</g>
<!-- CAT -->
<g id="node11" class="node">
<title>CAT</title>
<text text-anchor="middle" x="14.5" y="-12" font-family="Courier,monospace" font-weight="bold" font-size="10.00" fill="#000000">CAT</text>
</g>
<!-- GCA&#45;&gt;CAT -->
<g id="edge9" class="edge">
<title>GCA&#45;&gt;CAT</title>
<path fill="none" stroke="#000000" d="M14.5,-55.7867C14.5,-49.5343 14.5,-42.1314 14.5,-35.3328"/>
<polygon fill="#000000" stroke="#000000" points="14.5,-29.3095 17.2001,-35.3095 14.5,-32.3095 14.5001,-35.3095 14.5001,-35.3095 14.5001,-35.3095 14.5,-32.3095 11.8001,-35.3095 14.5,-29.3095 14.5,-29.3095"/>
<text text-anchor="middle" x="37.5" y="-40" font-family="Courier,monospace" font-weight="bold" font-size="10.00" fill="#000000"> 1.000</text>
</g>
<!-- AAT -->
<g id="node15" class="node">
<title>AAT</title>
<text text-anchor="middle" x="14.5" y="-460" font-family="Courier,monospace" font-weight="bold" font-size="10.00" fill="#000000">AAT</text>
</g>
<!-- CAA&#45;&gt;AAT -->
<g id="edge13" class="edge">
<title>CAA&#45;&gt;AAT</title>
<path fill="none" stroke="#000000" d="M14.5,-503.7867C14.5,-497.5343 14.5,-490.1314 14.5,-483.3328"/>
<polygon fill="#000000" stroke="#000000" points="14.5,-477.3095 17.2001,-483.3095 14.5,-480.3095 14.5001,-483.3095 14.5001,-483.3095 14.5001,-483.3095 14.5,-480.3095 11.8001,-483.3095 14.5,-477.3095 14.5,-477.3095"/>
<text text-anchor="middle" x="37.5" y="-488" font-family="Courier,monospace" font-weight="bold" font-size="10.00" fill="#000000"> 1.000</text>
</g>
<!-- GTC -->
<g id="node13" class="node">
<title>GTC</title>
<text text-anchor="middle" x="14.5" y="-292" font-family="Courier,monospace" font-weight="bold" font-size="10.00" fill="#000000">GTC</text>
</g>
<!-- TCC -->
<g id="node14" class="node">
<title>TCC</title>
<text text-anchor="middle" x="14.5" y="-236" font-family="Courier,monospace" font-weight="bold" font-size="10.00" fill="#000000">TCC</text>
</g>
<!-- GTC&#45;&gt;TCC -->
<g id="edge11" class="edge">
<title>GTC&#45;&gt;TCC</title>
<path fill="none" stroke="#000000" d="M14.5,-279.7867C14.5,-273.5343 14.5,-266.1314 14.5,-259.3328"/>
<polygon fill="#000000" stroke="#000000" points="14.5,-253.3095 17.2001,-259.3095 14.5,-256.3095 14.5001,-259.3095 14.5001,-259.3095 14.5001,-259.3095 14.5,-256.3095 11.8001,-259.3095 14.5,-253.3095 14.5,-253.3095"/>
<text text-anchor="middle" x="37.5" y="-264" font-family="Courier,monospace" font-weight="bold" font-size="10.00" fill="#000000"> 1.000</text>
</g>
<!-- TCC&#45;&gt;CCG -->
<g id="edge12" class="edge">
<title>TCC&#45;&gt;CCG</title>
<path fill="none" stroke="#000000" d="M14.5,-223.7867C14.5,-217.5343 14.5,-210.1314 14.5,-203.3328"/>
<polygon fill="#000000" stroke="#000000" points="14.5,-197.3095 17.2001,-203.3095 14.5,-200.3095 14.5001,-203.3095 14.5001,-203.3095 14.5001,-203.3095 14.5,-200.3095 11.8001,-203.3095 14.5,-197.3095 14.5,-197.3095"/>
<text text-anchor="middle" x="37.5" y="-208" font-family="Courier,monospace" font-weight="bold" font-size="10.00" fill="#000000"> 1.000</text>
</g>
<!-- ATG -->
<g id="node16" class="node">
<title>ATG</title>
<text text-anchor="middle" x="14.5" y="-404" font-family="Courier,monospace" font-weight="bold" font-size="10.00" fill="#000000">ATG</text>
</g>
<!-- AAT&#45;&gt;ATG -->
<g id="edge14" class="edge">
<title>AAT&#45;&gt;ATG</title>
<path fill="none" stroke="#000000" d="M14.5,-447.7867C14.5,-441.5343 14.5,-434.1314 14.5,-427.3328"/>
<polygon fill="#000000" stroke="#000000" points="14.5,-421.3095 17.2001,-427.3095 14.5,-424.3095 14.5001,-427.3095 14.5001,-427.3095 14.5001,-427.3095 14.5,-424.3095 11.8001,-427.3095 14.5,-421.3095 14.5,-421.3095"/>
<text text-anchor="middle" x="37.5" y="-432" font-family="Courier,monospace" font-weight="bold" font-size="10.00" fill="#000000"> 1.000</text>
</g>
<!-- TGT -->
<g id="node17" class="node">
<title>TGT</title>
<text text-anchor="middle" x="14.5" y="-348" font-family="Courier,monospace" font-weight="bold" font-size="10.00" fill="#000000">TGT</text>
</g>
<!-- ATG&#45;&gt;TGT -->
<g id="edge15" class="edge">
<title>ATG&#45;&gt;TGT</title>
<path fill="none" stroke="#000000" d="M14.5,-391.7867C14.5,-385.5343 14.5,-378.1314 14.5,-371.3328"/>
<polygon fill="#000000" stroke="#000000" points="14.5,-365.3095 17.2001,-371.3095 14.5,-368.3095 14.5001,-371.3095 14.5001,-371.3095 14.5001,-371.3095 14.5,-368.3095 11.8001,-371.3095 14.5,-365.3095 14.5,-365.3095"/>
<text text-anchor="middle" x="37.5" y="-376" font-family="Courier,monospace" font-weight="bold" font-size="10.00" fill="#000000"> 1.000</text>
</g>
<!-- TGT&#45;&gt;GTC -->
<g id="edge16" class="edge">
<title>TGT&#45;&gt;GTC</title>
<path fill="none" stroke="#000000" d="M14.5,-335.7867C14.5,-329.5343 14.5,-322.1314 14.5,-315.3328"/>
<polygon fill="#000000" stroke="#000000" points="14.5,-309.3095 17.2001,-315.3095 14.5,-312.3095 14.5001,-315.3095 14.5001,-315.3095 14.5001,-315.3095 14.5,-312.3095 11.8001,-315.3095 14.5,-309.3095 14.5,-309.3095"/>
<text text-anchor="middle" x="37.5" y="-320" font-family="Courier,monospace" font-weight="bold" font-size="10.00" fill="#000000"> 1.000</text>
</g>
<!-- AAC -->
<g id="node19" class="node">
<title>AAC</title>
<text text-anchor="middle" x="72.5" y="-628" font-family="Courier,monospace" font-weight="bold" font-size="10.00" fill="#000000">AAC</text>
</g>
<!-- GAA&#45;&gt;AAC -->
<g id="edge18" class="edge">
<title>GAA&#45;&gt;AAC</title>
<path fill="none" stroke="#fc0000" d="M72.5,-671.7867C72.5,-665.5343 72.5,-658.1314 72.5,-651.3328"/>
<polygon fill="#fc0000" stroke="#fc0000" points="72.5,-645.3095 75.2001,-651.3095 72.5,-648.3095 72.5001,-651.3095 72.5001,-651.3095 72.5001,-651.3095 72.5,-648.3095 69.8001,-651.3095 72.5,-645.3095 72.5,-645.3095"/>
<text text-anchor="middle" x="95.5" y="-656" font-family="Courier,monospace" font-weight="bold" font-size="10.00" fill="#000000"> 0.010</text>
</g>
</g>
</svg>
