<?xml version="1.0" encoding="UTF-8" standalone="no"?>
<!DOCTYPE svg PUBLIC "-//W3C//DTD SVG 1.1//EN"
 "http://www.w3.org/Graphics/SVG/1.1/DTD/svg11.dtd">
<!-- Generated by graphviz version 2.40.1 (0)
 -->
<!-- Title: %3 Pages: 1 -->
<svg width="141pt" height="891pt"
 viewBox="7.20 7.20 133.70 884.20" xmlns="http://www.w3.org/2000/svg" xmlns:xlink="http://www.w3.org/1999/xlink">
<g id="graph0" class="graph" transform="scale(1 1) rotate(0) translate(11.2 880.2)">
<title>%3</title>
<polygon fill="#ffffff" stroke="transparent" points="-4,4 -4,-873 122.5,-873 122.5,4 -4,4"/>
<!-- ATT -->
<g id="node1" class="node">
<title>ATT</title>
<text text-anchor="middle" x="14.5" y="-852" font-family="Courier,monospace" font-weight="bold" font-size="10.00" fill="#000000">ATT</text>
</g>
<!-- TTG -->
<g id="node2" class="node">
<title>TTG</title>
<text text-anchor="middle" x="14.5" y="-796" font-family="Courier,monospace" font-weight="bold" font-size="10.00" fill="#000000">TTG</text>
</g>
<!-- ATT&#45;&gt;TTG -->
<g id="edge1" class="edge">
<title>ATT&#45;&gt;TTG</title>
<path fill="none" stroke="#bf0000" d="M14.5,-839.7867C14.5,-833.5343 14.5,-826.1314 14.5,-819.3328"/>
<polygon fill="#bf0000" stroke="#bf0000" points="14.5,-813.3095 17.2001,-819.3095 14.5,-816.3095 14.5001,-819.3095 14.5001,-819.3095 14.5001,-819.3095 14.5,-816.3095 11.8001,-819.3095 14.5,-813.3095 14.5,-813.3095"/>
<text text-anchor="middle" x="37.5" y="-824" font-family="Courier,monospace" font-weight="bold" font-size="10.00" fill="#000000"> 0.250</text>
</g>
<!-- TGG -->
<g id="node3" class="node">
<title>TGG</title>
<text text-anchor="middle" x="14.5" y="-740" font-family="Courier,monospace" font-weight="bold" font-size="10.00" fill="#000000">TGG</text>
</g>
<!-- TTG&#45;&gt;TGG -->
<g id="edge2" class="edge">
<title>TTG&#45;&gt;TGG</title>
<path fill="none" stroke="#890000" d="M14.5,-783.7867C14.5,-777.5343 14.5,-770.1314 14.5,-763.3328"/>
<polygon fill="#890000" stroke="#890000" points="14.5,-757.3095 17.2001,-763.3095 14.5,-760.3095 14.5001,-763.3095 14.5001,-763.3095 14.5001,-763.3095 14.5,-760.3095 11.8001,-763.3095 14.5,-757.3095 14.5,-757.3095"/>
<text text-anchor="middle" x="37.5" y="-768" font-family="Courier,monospace" font-weight="bold" font-size="10.00" fill="#000000"> 0.460</text>
</g>
<!-- GGA -->
<g id="node4" class="node">
<title>GGA</title>
<text text-anchor="middle" x="43.5" y="-684" font-family="Courier,monospace" font-weight="bold" font-size="10.00" fill="#000000">GGA</text>
</g>
<!-- TGG&#45;&gt;GGA -->
<g id="edge3" class="edge">
<title>TGG&#45;&gt;GGA</title>
<path fill="none" stroke="#000000" d="M14.0248,-727.8211C14.3782,-721.7091 15.5338,-714.7196 18.5,-709 20.0457,-706.0194 22.1583,-703.2426 24.5051,-700.7285"/>
<polygon fill="#000000" stroke="#000000" points="28.9106,-696.4994 26.452,-702.6023 26.7464,-698.577 24.5821,-700.6546 24.5821,-700.6546 24.5821,-700.6546 26.7464,-698.577 22.7123,-698.7068 28.9106,-696.4994 28.9106,-696.4994"/>
<text text-anchor="middle" x="41.5" y="-712" font-family="Courier,monospace" font-weight="bold" font-size="10.00" fill="#000000"> 1.000</text>
</g>
<!-- GAC -->
<g id="node5" class="node">
<title>GAC</title>
<text text-anchor="middle" x="43.5" y="-628" font-family="Courier,monospace" font-weight="bold" font-size="10.00" fill="#000000">GAC</text>
</g>
<!-- GGA&#45;&gt;GAC -->
<g id="edge4" class="edge">
<title>GGA&#45;&gt;GAC</title>
<path fill="none" stroke="#000000" d="M43.5,-671.7867C43.5,-665.5343 43.5,-658.1314 43.5,-651.3328"/>
<polygon fill="#000000" stroke="#000000" points="43.5,-645.3095 46.2001,-651.3095 43.5,-648.3095 43.5001,-651.3095 43.5001,-651.3095 43.5001,-651.3095 43.5,-648.3095 40.8001,-651.3095 43.5,-645.3095 43.5,-645.3095"/>
<text text-anchor="middle" x="66.5" y="-656" font-family="Courier,monospace" font-weight="bold" font-size="10.00" fill="#000000"> 1.000</text>
</g>
<!-- ACA -->
<g id="node6" class="node">
<title>ACA</title>
<text text-anchor="middle" x="43.5" y="-572" font-family="Courier,monospace" font-weight="bold" font-size="10.00" fill="#000000">ACA</text>
</g>
<!-- GAC&#45;&gt;ACA -->
<g id="edge5" class="edge">
<title>GAC&#45;&gt;ACA</title>
<path fill="none" stroke="#000000" d="M43.5,-615.7867C43.5,-609.5343 43.5,-602.1314 43.5,-595.3328"/>
<polygon fill="#000000" stroke="#000000" points="43.5,-589.3095 46.2001,-595.3095 43.5,-592.3095 43.5001,-595.3095 43.5001,-595.3095 43.5001,-595.3095 43.5,-592.3095 40.8001,-595.3095 43.5,-589.3095 43.5,-589.3095"/>
<text text-anchor="middle" x="66.5" y="-600" font-family="Courier,monospace" font-weight="bold" font-size="10.00" fill="#000000"> 1.000</text>
</g>
<!-- CAA -->
<g id="node11" class="node">
<title>CAA</title>
<text text-anchor="middle" x="43.5" y="-516" font-family="Courier,monospace" font-weight="bold" font-size="10.00" fill="#000000">CAA</text>
</g>
<!-- ACA&#45;&gt;CAA -->
<g id="edge9" class="edge">
<title>ACA&#45;&gt;CAA</title>
<path fill="none" stroke="#000000" d="M43.5,-559.7867C43.5,-553.5343 43.5,-546.1314 43.5,-539.3328"/>
<polygon fill="#000000" stroke="#000000" points="43.5,-533.3095 46.2001,-539.3095 43.5,-536.3095 43.5001,-539.3095 43.5001,-539.3095 43.5001,-539.3095 43.5,-536.3095 40.8001,-539.3095 43.5,-533.3095 43.5,-533.3095"/>
<text text-anchor="middle" x="66.5" y="-544" font-family="Courier,monospace" font-weight="bold" font-size="10.00" fill="#000000"> 1.000</text>
</g>
<!-- CCG -->
<g id="node7" class="node">
<title>CCG</title>
<text text-anchor="middle" x="43.5" y="-180" font-family="Courier,monospace" font-weight="bold" font-size="10.00" fill="#000000">CCG</text>
</g>
<!-- CGC -->
<g id="node8" class="node">
<title>CGC</title>
<text text-anchor="middle" x="43.5" y="-124" font-family="Courier,monospace" font-weight="bold" font-size="10.00" fill="#000000">CGC</text>
</g>
<!-- CCG&#45;&gt;CGC -->
<g id="edge6" class="edge">
<title>CCG&#45;&gt;CGC</title>
<path fill="none" stroke="#000000" d="M43.5,-167.7867C43.5,-161.5343 43.5,-154.1314 43.5,-147.3328"/>
<polygon fill="#000000" stroke="#000000" points="43.5,-141.3095 46.2001,-147.3095 43.5,-144.3095 43.5001,-147.3095 43.5001,-147.3095 43.5001,-147.3095 43.5,-144.3095 40.8001,-147.3095 43.5,-141.3095 43.5,-141.3095"/>
<text text-anchor="middle" x="66.5" y="-152" font-family="Courier,monospace" font-weight="bold" font-size="10.00" fill="#000000"> 1.000</text>
</g>
<!-- GCA -->
<g id="node9" class="node">
<title>GCA</title>
<text text-anchor="middle" x="43.5" y="-68" font-family="Courier,monospace" font-weight="bold" font-size="10.00" fill="#000000">GCA</text>
</g>
<!-- CGC&#45;&gt;GCA -->
<g id="edge7" class="edge">
<title>CGC&#45;&gt;GCA</title>
<path fill="none" stroke="#000000" d="M43.5,-111.7867C43.5,-105.5343 43.5,-98.1314 43.5,-91.3328"/>
<polygon fill="#000000" stroke="#000000" points="43.5,-85.3095 46.2001,-91.3095 43.5,-88.3095 43.5001,-91.3095 43.5001,-91.3095 43.5001,-91.3095 43.5,-88.3095 40.8001,-91.3095 43.5,-85.3095 43.5,-85.3095"/>
<text text-anchor="middle" x="66.5" y="-96" font-family="Courier,monospace" font-weight="bold" font-size="10.00" fill="#000000"> 1.000</text>
</g>
<!-- CAT -->
<g id="node10" class="node">
<title>CAT</title>
<text text-anchor="middle" x="43.5" y="-12" font-family="Courier,monospace" font-weight="bold" font-size="10.00" fill="#000000">CAT</text>
</g>
<!-- GCA&#45;&gt;CAT -->
<g id="edge8" class="edge">
<title>GCA&#45;&gt;CAT</title>
<path fill="none" stroke="#000000" d="M43.5,-55.7867C43.5,-49.5343 43.5,-42.1314 43.5,-35.3328"/>
<polygon fill="#000000" stroke="#000000" points="43.5,-29.3095 46.2001,-35.3095 43.5,-32.3095 43.5001,-35.3095 43.5001,-35.3095 43.5001,-35.3095 43.5,-32.3095 40.8001,-35.3095 43.5,-29.3095 43.5,-29.3095"/>
<text text-anchor="middle" x="66.5" y="-40" font-family="Courier,monospace" font-weight="bold" font-size="10.00" fill="#000000"> 1.000</text>
</g>
<!-- AAT -->
<g id="node14" class="node">
<title>AAT</title>
<text text-anchor="middle" x="43.5" y="-460" font-family="Courier,monospace" font-weight="bold" font-size="10.00" fill="#000000">AAT</text>
</g>
<!-- CAA&#45;&gt;AAT -->
<g id="edge12" class="edge">
<title>CAA&#45;&gt;AAT</title>
<path fill="none" stroke="#000000" d="M43.5,-503.7867C43.5,-497.5343 43.5,-490.1314 43.5,-483.3328"/>
<polygon fill="#000000" stroke="#000000" points="43.5,-477.3095 46.2001,-483.3095 43.5,-480.3095 43.5001,-483.3095 43.5001,-483.3095 43.5001,-483.3095 43.5,-480.3095 40.8001,-483.3095 43.5,-477.3095 43.5,-477.3095"/>
<text text-anchor="middle" x="66.5" y="-488" font-family="Courier,monospace" font-weight="bold" font-size="10.00" fill="#000000"> 1.000</text>
</g>
<!-- GTC -->
<g id="node12" class="node">
<title>GTC</title>
<text text-anchor="middle" x="43.5" y="-292" font-family="Courier,monospace" font-weight="bold" font-size="10.00" fill="#000000">GTC</text>
</g>
<!-- TCC -->
<g id="node13" class="node">
<title>TCC</title>
<text text-anchor="middle" x="43.5" y="-236" font-family="Courier,monospace" font-weight="bold" font-size="10.00" fill="#000000">TCC</text>
</g>
<!-- GTC&#45;&gt;TCC -->
<g id="edge10" class="edge">
<title>GTC&#45;&gt;TCC</title>
<path fill="none" stroke="#000000" d="M43.5,-279.7867C43.5,-273.5343 43.5,-266.1314 43.5,-259.3328"/>
<polygon fill="#000000" stroke="#000000" points="43.5,-253.3095 46.2001,-259.3095 43.5,-256.3095 43.5001,-259.3095 43.5001,-259.3095 43.5001,-259.3095 43.5,-256.3095 40.8001,-259.3095 43.5,-253.3095 43.5,-253.3095"/>
<text text-anchor="middle" x="66.5" y="-264" font-family="Courier,monospace" font-weight="bold" font-size="10.00" fill="#000000"> 1.000</text>
</g>
<!-- TCC&#45;&gt;CCG -->
<g id="edge11" class="edge">
<title>TCC&#45;&gt;CCG</title>
<path fill="none" stroke="#000000" d="M43.5,-223.7867C43.5,-217.5343 43.5,-210.1314 43.5,-203.3328"/>
<polygon fill="#000000" stroke="#000000" points="43.5,-197.3095 46.2001,-203.3095 43.5,-200.3095 43.5001,-203.3095 43.5001,-203.3095 43.5001,-203.3095 43.5,-200.3095 40.8001,-203.3095 43.5,-197.3095 43.5,-197.3095"/>
<text text-anchor="middle" x="66.5" y="-208" font-family="Courier,monospace" font-weight="bold" font-size="10.00" fill="#000000"> 1.000</text>
</g>
<!-- ATG -->
<g id="node15" class="node">
<title>ATG</title>
<text text-anchor="middle" x="43.5" y="-404" font-family="Courier,monospace" font-weight="bold" font-size="10.00" fill="#000000">ATG</text>
</g>
<!-- AAT&#45;&gt;ATG -->
<g id="edge13" class="edge">
<title>AAT&#45;&gt;ATG</title>
<path fill="none" stroke="#000000" d="M43.5,-447.7867C43.5,-441.5343 43.5,-434.1314 43.5,-427.3328"/>
<polygon fill="#000000" stroke="#000000" points="43.5,-421.3095 46.2001,-427.3095 43.5,-424.3095 43.5001,-427.3095 43.5001,-427.3095 43.5001,-427.3095 43.5,-424.3095 40.8001,-427.3095 43.5,-421.3095 43.5,-421.3095"/>
<text text-anchor="middle" x="66.5" y="-432" font-family="Courier,monospace" font-weight="bold" font-size="10.00" fill="#000000"> 1.000</text>
</g>
<!-- TGT -->
<g id="node16" class="node">
<title>TGT</title>
<text text-anchor="middle" x="43.5" y="-348" font-family="Courier,monospace" font-weight="bold" font-size="10.00" fill="#000000">TGT</text>
</g>
<!-- ATG&#45;&gt;TGT -->
<g id="edge14" class="edge">
<title>ATG&#45;&gt;TGT</title>
<path fill="none" stroke="#000000" d="M43.5,-391.7867C43.5,-385.5343 43.5,-378.1314 43.5,-371.3328"/>
<polygon fill="#000000" stroke="#000000" points="43.5,-365.3095 46.2001,-371.3095 43.5,-368.3095 43.5001,-371.3095 43.5001,-371.3095 43.5001,-371.3095 43.5,-368.3095 40.8001,-371.3095 43.5,-365.3095 43.5,-365.3095"/>
<text text-anchor="middle" x="66.5" y="-376" font-family="Courier,monospace" font-weight="bold" font-size="10.00" fill="#000000"> 1.000</text>
</g>
<!-- TGT&#45;&gt;GTC -->
<g id="edge15" class="edge">
<title>TGT&#45;&gt;GTC</title>
<path fill="none" stroke="#000000" d="M43.5,-335.7867C43.5,-329.5343 43.5,-322.1314 43.5,-315.3328"/>
<polygon fill="#000000" stroke="#000000" points="43.5,-309.3095 46.2001,-315.3095 43.5,-312.3095 43.5001,-315.3095 43.5001,-315.3095 43.5001,-315.3095 43.5,-312.3095 40.8001,-315.3095 43.5,-309.3095 43.5,-309.3095"/>
<text text-anchor="middle" x="66.5" y="-320" font-family="Courier,monospace" font-weight="bold" font-size="10.00" fill="#000000"> 1.000</text>
</g>
<!-- ATC -->
<g id="node17" class="node">
<title>ATC</title>
<text text-anchor="middle" x="72.5" y="-852" font-family="Courier,monospace" font-weight="bold" font-size="10.00" fill="#000000">ATC</text>
</g>
<!-- TCG -->
<g id="node18" class="node">
<title>TCG</title>
<text text-anchor="middle" x="72.5" y="-796" font-family="Courier,monospace" font-weight="bold" font-size="10.00" fill="#000000">TCG</text>
</g>
<!-- ATC&#45;&gt;TCG -->
<g id="edge16" class="edge">
<title>ATC&#45;&gt;TCG</title>
<path fill="none" stroke="#fc0000" d="M72.5,-839.7867C72.5,-833.5343 72.5,-826.1314 72.5,-819.3328"/>
<polygon fill="#fc0000" stroke="#fc0000" points="72.5,-813.3095 75.2001,-819.3095 72.5,-816.3095 72.5001,-819.3095 72.5001,-819.3095 72.5001,-819.3095 72.5,-816.3095 69.8001,-819.3095 72.5,-813.3095 72.5,-813.3095"/>
<text text-anchor="middle" x="95.5" y="-824" font-family="Courier,monospace" font-weight="bold" font-size="10.00" fill="#000000"> 0.010</text>
</g>
<!-- CGG -->
<g id="node19" class="node">
<title>CGG</title>
<text text-anchor="middle" x="72.5" y="-740" font-family="Courier,monospace" font-weight="bold" font-size="10.00" fill="#000000">CGG</text>
</g>
<!-- TCG&#45;&gt;CGG -->
<g id="edge17" class="edge">
<title>TCG&#45;&gt;CGG</title>
<path fill="none" stroke="#fc0000" d="M72.5,-783.7867C72.5,-777.5343 72.5,-770.1314 72.5,-763.3328"/>
<polygon fill="#fc0000" stroke="#fc0000" points="72.5,-757.3095 75.2001,-763.3095 72.5,-760.3095 72.5001,-763.3095 72.5001,-763.3095 72.5001,-763.3095 72.5,-760.3095 69.8001,-763.3095 72.5,-757.3095 72.5,-757.3095"/>
<text text-anchor="middle" x="95.5" y="-768" font-family="Courier,monospace" font-weight="bold" font-size="10.00" fill="#000000"> 0.010</text>
</g>
<!-- CGG&#45;&gt;GGA -->
<g id="edge18" class="edge">
<title>CGG&#45;&gt;GGA</title>
<path fill="none" stroke="#fc0000" d="M68.8762,-727.6863C67.0958,-721.6853 64.6464,-714.8145 61.5,-709 61.0536,-708.1751 60.5761,-707.3503 60.0743,-706.53"/>
<polygon fill="#fc0000" stroke="#fc0000" points="56.4852,-701.2293 62.0849,-704.6838 58.1672,-703.7135 59.8492,-706.1976 59.8492,-706.1976 59.8492,-706.1976 58.1672,-703.7135 57.6135,-707.7114 56.4852,-701.2293 56.4852,-701.2293"/>
<text text-anchor="middle" x="88.5" y="-712" font-family="Courier,monospace" font-weight="bold" font-size="10.00" fill="#000000"> 0.010</text>
</g>
</g>
</svg>
