<?xml version="1.0" encoding="UTF-8" standalone="no"?>
<!DOCTYPE svg PUBLIC "-//W3C//DTD SVG 1.1//EN"
 "http://www.w3.org/Graphics/SVG/1.1/DTD/svg11.dtd">
<!-- Generated by graphviz version 2.40.1 (0)
 -->
<!-- Title: %3 Pages: 1 -->
<svg width="394pt" height="170pt"
 viewBox="14.40 14.40 379.40 155.40" xmlns="http://www.w3.org/2000/svg" xmlns:xlink="http://www.w3.org/1999/xlink">
<g id="graph0" class="graph" transform="scale(1 1) rotate(0) translate(18.4 151.4)">
<title>%3</title>
<polygon fill="#ffffff" stroke="transparent" points="-4,4 -4,-137 361,-137 361,4 -4,4"/>
<!-- TTA [0] -->
<g id="node1" class="node">
<title>TTA [0]</title>
<polygon fill="none" stroke="#000000" points="54,-84 0,-84 0,-48 54,-48 54,-84"/>
<text text-anchor="middle" x="27" y="-63.5" font-family="Courier,monospace" font-weight="bold" font-size="10.00" fill="#000000">TTA [0]</text>
</g>
<!-- TAG [0] -->
<g id="node2" class="node">
<title>TAG [0]</title>
<polygon fill="none" stroke="#000000" points="155,-133 101,-133 101,-97 155,-97 155,-133"/>
<text text-anchor="middle" x="128" y="-112.5" font-family="Courier,monospace" font-weight="bold" font-size="10.00" fill="#000000">TAG [0]</text>
</g>
<!-- TTA [0]&#45;&gt;TAG [0] -->
<g id="edge1" class="edge">
<title>TTA [0]&#45;&gt;TAG [0]</title>
<path fill="none" stroke="#000000" d="M54.2502,-83.7538C56.8367,-85.2484 59.4466,-86.6877 62,-88 72.4983,-93.3955 84.3315,-98.5172 95.049,-102.8206"/>
<polygon fill="#000000" stroke="#000000" points="100.8729,-105.1238 94.3004,-105.428 98.0831,-104.0205 95.2933,-102.9172 95.2933,-102.9172 95.2933,-102.9172 98.0831,-104.0205 96.2863,-100.4064 100.8729,-105.1238 100.8729,-105.1238"/>
<text text-anchor="middle" x="77.5" y="-104" font-family="Courier,monospace" font-weight="bold" font-size="10.00" fill="#000000">TTAG</text>
</g>
<!-- TAC [0] -->
<g id="node3" class="node">
<title>TAC [0]</title>
<polygon fill="none" stroke="#000000" points="155,-36 101,-36 101,0 155,0 155,-36"/>
<text text-anchor="middle" x="128" y="-15.5" font-family="Courier,monospace" font-weight="bold" font-size="10.00" fill="#000000">TAC [0]</text>
</g>
<!-- TTA [0]&#45;&gt;TAC [0] -->
<g id="edge2" class="edge">
<title>TTA [0]&#45;&gt;TAC [0]</title>
<path fill="none" stroke="#000000" d="M43.4563,-47.8107C48.9133,-42.6937 55.314,-37.5598 62,-34 72.0981,-28.6236 84.023,-25.0242 94.9392,-22.6271"/>
<polygon fill="#000000" stroke="#000000" points="100.8819,-21.4155 95.5423,-25.2598 97.9424,-22.0149 95.0029,-22.6142 95.0029,-22.6142 95.0029,-22.6142 97.9424,-22.0149 94.4634,-19.9687 100.8819,-21.4155 100.8819,-21.4155"/>
<text text-anchor="middle" x="77.5" y="-37" font-family="Courier,monospace" font-weight="bold" font-size="10.00" fill="#000000">TTAC</text>
</g>
<!-- AGT [0] -->
<g id="node4" class="node">
<title>AGT [0]</title>
<polygon fill="none" stroke="#000000" points="256,-133 202,-133 202,-97 256,-97 256,-133"/>
<text text-anchor="middle" x="229" y="-112.5" font-family="Courier,monospace" font-weight="bold" font-size="10.00" fill="#000000">AGT [0]</text>
</g>
<!-- TAG [0]&#45;&gt;AGT [0] -->
<g id="edge3" class="edge">
<title>TAG [0]&#45;&gt;AGT [0]</title>
<path fill="none" stroke="#000000" d="M155.0661,-115C167.5196,-115 182.4159,-115 195.5637,-115"/>
<polygon fill="#000000" stroke="#000000" points="201.8591,-115 195.8592,-117.7001 198.8591,-115 195.8591,-115.0001 195.8591,-115.0001 195.8591,-115.0001 198.8591,-115 195.8591,-112.3001 201.8591,-115 201.8591,-115"/>
<text text-anchor="middle" x="178.5" y="-118" font-family="Courier,monospace" font-weight="bold" font-size="10.00" fill="#000000">TAGT</text>
</g>
<!-- ACT [0] -->
<g id="node6" class="node">
<title>ACT [0]</title>
<polygon fill="none" stroke="#000000" points="256,-36 202,-36 202,0 256,0 256,-36"/>
<text text-anchor="middle" x="229" y="-15.5" font-family="Courier,monospace" font-weight="bold" font-size="10.00" fill="#000000">ACT [0]</text>
</g>
<!-- TAC [0]&#45;&gt;ACT [0] -->
<g id="edge6" class="edge">
<title>TAC [0]&#45;&gt;ACT [0]</title>
<path fill="none" stroke="#000000" d="M155.0661,-18C167.5196,-18 182.4159,-18 195.5637,-18"/>
<polygon fill="#000000" stroke="#000000" points="201.8591,-18 195.8592,-20.7001 198.8591,-18 195.8591,-18.0001 195.8591,-18.0001 195.8591,-18.0001 198.8591,-18 195.8591,-15.3001 201.8591,-18 201.8591,-18"/>
<text text-anchor="middle" x="178.5" y="-21" font-family="Courier,monospace" font-weight="bold" font-size="10.00" fill="#000000">TACT</text>
</g>
<!-- GTT [0] -->
<g id="node5" class="node">
<title>GTT [0]</title>
<polygon fill="none" stroke="#000000" points="357,-108 303,-108 303,-72 357,-72 357,-108"/>
<text text-anchor="middle" x="330" y="-87.5" font-family="Courier,monospace" font-weight="bold" font-size="10.00" fill="#000000">GTT [0]</text>
</g>
<!-- AGT [0]&#45;&gt;GTT [0] -->
<g id="edge4" class="edge">
<title>AGT [0]&#45;&gt;GTT [0]</title>
<path fill="none" stroke="#000000" d="M256.0661,-108.3005C268.6328,-105.1899 283.687,-101.4636 296.9218,-98.1877"/>
<polygon fill="#000000" stroke="#000000" points="302.8591,-96.718 297.6837,-100.7807 299.947,-97.4389 297.0349,-98.1598 297.0349,-98.1598 297.0349,-98.1598 299.947,-97.4389 296.3861,-95.5388 302.8591,-96.718 302.8591,-96.718"/>
<text text-anchor="middle" x="279.5" y="-109" font-family="Courier,monospace" font-weight="bold" font-size="10.00" fill="#000000">AGTT</text>
</g>
<!-- GTT [0]&#45;&gt;TTA [0] -->
<g id="edge5" class="edge">
<title>GTT [0]&#45;&gt;TTA [0]</title>
<path fill="none" stroke="#000000" d="M302.7961,-87.8452C247.2557,-83.446 120.9743,-73.4435 60.498,-68.6533"/>
<polygon fill="#000000" stroke="#000000" points="54.1559,-68.151 60.3504,-65.9332 57.1465,-68.3879 60.1372,-68.6248 60.1372,-68.6248 60.1372,-68.6248 57.1465,-68.3879 59.9239,-71.3164 54.1559,-68.151 54.1559,-68.151"/>
<text text-anchor="middle" x="178.5" y="-82" font-family="Courier,monospace" font-weight="bold" font-size="10.00" fill="#000000">GTTA</text>
</g>
<!-- CTT [0] -->
<g id="node7" class="node">
<title>CTT [0]</title>
<polygon fill="none" stroke="#000000" points="357,-60 303,-60 303,-24 357,-24 357,-60"/>
<text text-anchor="middle" x="330" y="-39.5" font-family="Courier,monospace" font-weight="bold" font-size="10.00" fill="#000000">CTT [0]</text>
</g>
<!-- ACT [0]&#45;&gt;CTT [0] -->
<g id="edge7" class="edge">
<title>ACT [0]&#45;&gt;CTT [0]</title>
<path fill="none" stroke="#000000" d="M256.0661,-24.4316C268.6328,-27.4177 283.687,-30.9949 296.9218,-34.1398"/>
<polygon fill="#000000" stroke="#000000" points="302.8591,-35.5507 296.3974,-36.7903 299.9404,-34.8571 297.0217,-34.1635 297.0217,-34.1635 297.0217,-34.1635 299.9404,-34.8571 297.6459,-31.5366 302.8591,-35.5507 302.8591,-35.5507"/>
<text text-anchor="middle" x="279.5" y="-36" font-family="Courier,monospace" font-weight="bold" font-size="10.00" fill="#000000">ACTT</text>
</g>
<!-- CTT [0]&#45;&gt;TTA [0] -->
<g id="edge8" class="edge">
<title>CTT [0]&#45;&gt;TTA [0]</title>
<path fill="none" stroke="#000000" d="M302.7961,-44.1548C247.2557,-48.554 120.9743,-58.5565 60.498,-63.3467"/>
<polygon fill="#000000" stroke="#000000" points="54.1559,-63.849 59.9239,-60.6836 57.1465,-63.6121 60.1372,-63.3752 60.1372,-63.3752 60.1372,-63.3752 57.1465,-63.6121 60.3504,-66.0668 54.1559,-63.849 54.1559,-63.849"/>
<text text-anchor="middle" x="178.5" y="-58" font-family="Courier,monospace" font-weight="bold" font-size="10.00" fill="#000000">CTTA</text>
</g>
</g>
</svg>
