<?xml version="1.0" encoding="UTF-8" standalone="no"?>
<!DOCTYPE svg PUBLIC "-//W3C//DTD SVG 1.1//EN"
 "http://www.w3.org/Graphics/SVG/1.1/DTD/svg11.dtd">
<!-- Generated by graphviz version 2.40.1 (0)
 -->
<!-- Title: %3 Pages: 1 -->
<svg width="277pt" height="186pt"
 viewBox="14.40 14.40 262.40 171.40" xmlns="http://www.w3.org/2000/svg" xmlns:xlink="http://www.w3.org/1999/xlink">
<g id="graph0" class="graph" transform="scale(1 1) rotate(0) translate(18.4 167.4)">
<title>%3</title>
<polygon fill="#ffffff" stroke="transparent" points="-4,4 -4,-153 244,-153 244,4 -4,4"/>
<!-- TT [0] -->
<g id="node1" class="node">
<title>TT [0]</title>
<polygon fill="none" stroke="#000000" points="54,-92 0,-92 0,-56 54,-56 54,-92"/>
<text text-anchor="middle" x="27" y="-71.5" font-family="Courier,monospace" font-weight="bold" font-size="10.00" fill="#000000">TT [0]</text>
</g>
<!-- TA [0] -->
<g id="node2" class="node">
<title>TA [0]</title>
<polygon fill="none" stroke="#000000" points="147,-149 93,-149 93,-113 147,-113 147,-149"/>
<text text-anchor="middle" x="120" y="-128.5" font-family="Courier,monospace" font-weight="bold" font-size="10.00" fill="#000000">TA [0]</text>
</g>
<!-- TT [0]&#45;&gt;TA [0] -->
<g id="edge1" class="edge">
<title>TT [0]&#45;&gt;TA [0]</title>
<path fill="none" stroke="#000000" d="M51.6125,-92.1173C55.0586,-94.4955 58.5883,-96.8505 62,-99 69.9849,-104.0307 78.8104,-109.1244 87.1172,-113.7237"/>
<polygon fill="#000000" stroke="#000000" points="92.7684,-116.822 86.2092,-116.305 90.1378,-115.3797 87.5072,-113.9375 87.5072,-113.9375 87.5072,-113.9375 90.1378,-115.3797 88.8052,-111.57 92.7684,-116.822 92.7684,-116.822"/>
<text text-anchor="middle" x="73.5" y="-114" font-family="Courier,monospace" font-weight="bold" font-size="10.00" fill="#000000">TTA</text>
</g>
<!-- TC [0] -->
<g id="node3" class="node">
<title>TC [0]</title>
<polygon fill="none" stroke="#000000" points="147,-36 93,-36 93,0 147,0 147,-36"/>
<text text-anchor="middle" x="120" y="-15.5" font-family="Courier,monospace" font-weight="bold" font-size="10.00" fill="#000000">TC [0]</text>
</g>
<!-- TT [0]&#45;&gt;TC [0] -->
<g id="edge2" class="edge">
<title>TT [0]&#45;&gt;TC [0]</title>
<path fill="none" stroke="#000000" d="M42.0724,-55.9862C47.8218,-49.9603 54.7486,-43.6111 62,-39 69.6361,-34.1443 78.5504,-30.2061 87.0671,-27.1088"/>
<polygon fill="#000000" stroke="#000000" points="92.8791,-25.0979 88.0918,-29.6114 90.044,-26.0788 87.2089,-27.0598 87.2089,-27.0598 87.2089,-27.0598 90.044,-26.0788 86.3261,-24.5082 92.8791,-25.0979 92.8791,-25.0979"/>
<text text-anchor="middle" x="73.5" y="-42" font-family="Courier,monospace" font-weight="bold" font-size="10.00" fill="#000000">TTC</text>
</g>
<!-- AT [0] -->
<g id="node4" class="node">
<title>AT [0]</title>
<polygon fill="none" stroke="#000000" points="240,-118 186,-118 186,-82 240,-82 240,-118"/>
<text text-anchor="middle" x="213" y="-97.5" font-family="Courier,monospace" font-weight="bold" font-size="10.00" fill="#000000">AT [0]</text>
</g>
<!-- TA [0]&#45;&gt;AT [0] -->
<g id="edge3" class="edge">
<title>TA [0]&#45;&gt;AT [0]</title>
<path fill="none" stroke="#000000" d="M147.4001,-121.8666C157.617,-118.461 169.3229,-114.559 179.9915,-111.0028"/>
<polygon fill="#000000" stroke="#000000" points="185.7958,-109.0681 180.9575,-113.527 182.9497,-110.0168 180.1037,-110.9655 180.1037,-110.9655 180.1037,-110.9655 182.9497,-110.0168 179.2498,-108.4041 185.7958,-109.0681 185.7958,-109.0681"/>
<text text-anchor="middle" x="166.5" y="-122" font-family="Courier,monospace" font-weight="bold" font-size="10.00" fill="#000000">TAT</text>
</g>
<!-- CT [0] -->
<g id="node5" class="node">
<title>CT [0]</title>
<polygon fill="none" stroke="#000000" points="240,-67 186,-67 186,-31 240,-31 240,-67"/>
<text text-anchor="middle" x="213" y="-46.5" font-family="Courier,monospace" font-weight="bold" font-size="10.00" fill="#000000">CT [0]</text>
</g>
<!-- TC [0]&#45;&gt;CT [0] -->
<g id="edge5" class="edge">
<title>TC [0]&#45;&gt;CT [0]</title>
<path fill="none" stroke="#000000" d="M147.4001,-27.1334C157.617,-30.539 169.3229,-34.441 179.9915,-37.9972"/>
<polygon fill="#000000" stroke="#000000" points="185.7958,-39.9319 179.2498,-40.5959 182.9497,-38.9832 180.1037,-38.0345 180.1037,-38.0345 180.1037,-38.0345 182.9497,-38.9832 180.9575,-35.473 185.7958,-39.9319 185.7958,-39.9319"/>
<text text-anchor="middle" x="166.5" y="-40" font-family="Courier,monospace" font-weight="bold" font-size="10.00" fill="#000000">TCT</text>
</g>
<!-- AT [0]&#45;&gt;TT [0] -->
<g id="edge4" class="edge">
<title>AT [0]&#45;&gt;TT [0]</title>
<path fill="none" stroke="#000000" d="M185.9214,-96.2148C152.5704,-91.5528 95.9404,-83.6368 60.0569,-78.6209"/>
<polygon fill="#000000" stroke="#000000" points="54.046,-77.7806 60.362,-75.9373 57.0171,-78.196 59.9882,-78.6113 59.9882,-78.6113 59.9882,-78.6113 57.0171,-78.196 59.6144,-81.2853 54.046,-77.7806 54.046,-77.7806"/>
<text text-anchor="middle" x="120" y="-93" font-family="Courier,monospace" font-weight="bold" font-size="10.00" fill="#000000">ATT</text>
</g>
<!-- CT [0]&#45;&gt;TT [0] -->
<g id="edge6" class="edge">
<title>CT [0]&#45;&gt;TT [0]</title>
<path fill="none" stroke="#000000" d="M185.9214,-52.6396C152.5704,-57.1223 95.9404,-64.7338 60.0569,-69.5569"/>
<polygon fill="#000000" stroke="#000000" points="54.046,-70.3648 59.6328,-66.8895 57.0193,-69.9651 59.9925,-69.5654 59.9925,-69.5654 59.9925,-69.5654 57.0193,-69.9651 60.3522,-72.2414 54.046,-70.3648 54.046,-70.3648"/>
<text text-anchor="middle" x="120" y="-67" font-family="Courier,monospace" font-weight="bold" font-size="10.00" fill="#000000">CTT</text>
</g>
</g>
</svg>
