<?xml version="1.0" encoding="UTF-8" standalone="no"?>
<!DOCTYPE svg PUBLIC "-//W3C//DTD SVG 1.1//EN"
 "http://www.w3.org/Graphics/SVG/1.1/DTD/svg11.dtd">
<!-- Generated by graphviz version 2.40.1 (0)
 -->
<!-- Title: %3 Pages: 1 -->
<svg width="272pt" height="373pt"
 viewBox="14.40 14.40 257.42 358.40" xmlns="http://www.w3.org/2000/svg" xmlns:xlink="http://www.w3.org/1999/xlink">
<g id="graph0" class="graph" transform="scale(1 1) rotate(0) translate(18.4 354.4)">
<title>%3</title>
<polygon fill="#ffffff" stroke="transparent" points="-4,4 -4,-340 239.0174,-340 239.0174,4 -4,4"/>
<!-- CTT [0] -->
<g id="node1" class="node">
<title>CTT [0]</title>
<polygon fill="none" stroke="#000000" points="111,-336 57,-336 57,-300 111,-300 111,-336"/>
<text text-anchor="middle" x="84" y="-315.5" font-family="Courier,monospace" font-weight="bold" font-size="10.00" fill="#000000">CTT [0]</text>
</g>
<!-- TTT [1] -->
<g id="node2" class="node">
<title>TTT [1]</title>
<polygon fill="none" stroke="#000000" points="136,-286 82,-286 82,-250 136,-250 136,-286"/>
<text text-anchor="middle" x="109" y="-265.5" font-family="Courier,monospace" font-weight="bold" font-size="10.00" fill="#000000">TTT [1]</text>
</g>
<!-- CTT [0]&#45;&gt;TTT [1] -->
<g id="edge1" class="edge">
<title>CTT [0]&#45;&gt;TTT [1]</title>
<path fill="none" stroke="#000000" d="M93.0256,-299.9489C94.3543,-297.2915 95.7399,-294.5203 97.1155,-291.7691"/>
<polygon fill="#000000" stroke="#000000" points="99.9037,-286.1926 99.6353,-292.7667 98.562,-288.8759 97.2204,-291.5592 97.2204,-291.5592 97.2204,-291.5592 98.562,-288.8759 94.8054,-290.3517 99.9037,-286.1926 99.9037,-286.1926"/>
</g>
<!-- TTG [2] -->
<g id="node3" class="node">
<title>TTG [2]</title>
<polygon fill="none" stroke="#000000" points="185,-236 131,-236 131,-200 185,-200 185,-236"/>
<text text-anchor="middle" x="158" y="-215.5" font-family="Courier,monospace" font-weight="bold" font-size="10.00" fill="#000000">TTG [2]</text>
</g>
<!-- CTT [0]&#45;&gt;TTG [2] -->
<g id="edge2" class="edge">
<title>CTT [0]&#45;&gt;TTG [2]</title>
<path fill="none" stroke="#000000" d="M111.2469,-309.0465C122.655,-303.9859 135.0788,-296.5184 143,-286 152.3971,-273.5218 156.1294,-256.3167 157.5215,-242.3352"/>
<polygon fill="#000000" stroke="#000000" points="158.0083,-236.1666 160.2278,-242.3605 157.7723,-239.1573 157.5362,-242.148 157.5362,-242.148 157.5362,-242.148 157.7723,-239.1573 154.8445,-241.9355 158.0083,-236.1666 158.0083,-236.1666"/>
</g>
<!-- TTT [5] -->
<g id="node4" class="node">
<title>TTT [5]</title>
<polygon fill="none" stroke="#000000" points="124,-86 70,-86 70,-50 124,-50 124,-86"/>
<text text-anchor="middle" x="97" y="-65.5" font-family="Courier,monospace" font-weight="bold" font-size="10.00" fill="#000000">TTT [5]</text>
</g>
<!-- CTT [0]&#45;&gt;TTT [5] -->
<g id="edge3" class="edge">
<title>CTT [0]&#45;&gt;TTT [5]</title>
<path fill="none" stroke="#000000" d="M76.929,-299.8824C69.8496,-280.0856 60,-247.2807 60,-218 60,-218 60,-218 60,-168 60,-140.4195 72.5328,-111.0703 83.0102,-91.3533"/>
<polygon fill="#000000" stroke="#000000" points="85.8988,-86.057 85.3963,-92.6173 84.4623,-88.6908 83.0259,-91.3245 83.0259,-91.3245 83.0259,-91.3245 84.4623,-88.6908 80.6555,-90.0317 85.8988,-86.057 85.8988,-86.057"/>
</g>
<!-- TTA [6] -->
<g id="node5" class="node">
<title>TTA [6]</title>
<polygon fill="none" stroke="#000000" points="90,-36 36,-36 36,0 90,0 90,-36"/>
<text text-anchor="middle" x="63" y="-15.5" font-family="Courier,monospace" font-weight="bold" font-size="10.00" fill="#000000">TTA [6]</text>
</g>
<!-- CTT [0]&#45;&gt;TTA [6] -->
<g id="edge4" class="edge">
<title>CTT [0]&#45;&gt;TTA [6]</title>
<path fill="none" stroke="#000000" d="M56.9595,-301.3363C32.4036,-283.8954 0,-254.0507 0,-218 0,-218 0,-218 0,-118 0,-87.9234 20.6538,-59.505 38.3098,-40.7062"/>
<polygon fill="#000000" stroke="#000000" points="42.7196,-36.1389 40.4944,-42.3308 40.6358,-38.2971 38.552,-40.4553 38.552,-40.4553 38.552,-40.4553 40.6358,-38.2971 36.6096,-38.5799 42.7196,-36.1389 42.7196,-36.1389"/>
</g>
<!-- TTT [1]&#45;&gt;TTG [2] -->
<g id="edge5" class="edge">
<title>TTT [1]&#45;&gt;TTG [2]</title>
<path fill="none" stroke="#000000" d="M126.6901,-249.9489C129.5685,-247.0117 132.5831,-243.9356 135.557,-240.9011"/>
<polygon fill="#000000" stroke="#000000" points="140.1713,-236.1926 137.9001,-242.3677 138.0715,-238.3352 135.9717,-240.4779 135.9717,-240.4779 135.9717,-240.4779 138.0715,-238.3352 134.0433,-238.5881 140.1713,-236.1926 140.1713,-236.1926"/>
</g>
<!-- TTT [1]&#45;&gt;TTT [5] -->
<g id="edge6" class="edge">
<title>TTT [1]&#45;&gt;TTT [5]</title>
<path fill="none" stroke="#000000" d="M104.7404,-249.8986C99.9516,-213.8458 94.9682,-133.0489 94.8822,-92.375"/>
<polygon fill="#000000" stroke="#000000" points="94.9113,-86.2046 97.5829,-92.2173 94.8971,-89.2046 94.8829,-92.2045 94.8829,-92.2045 94.8829,-92.2045 94.8971,-89.2046 92.183,-92.1918 94.9113,-86.2046 94.9113,-86.2046"/>
</g>
<!-- TTT [1]&#45;&gt;TTA [6] -->
<g id="edge7" class="edge">
<title>TTT [1]&#45;&gt;TTA [6]</title>
<path fill="none" stroke="#000000" d="M82.2542,-249.9443C59.3357,-232.0987 30,-202.515 30,-168 30,-168 30,-168 30,-118 30,-90.8777 41.0826,-61.6072 50.4027,-41.7871"/>
<polygon fill="#000000" stroke="#000000" points="53.0989,-36.205 52.9205,-42.7822 51.7941,-38.9064 50.4893,-41.6078 50.4893,-41.6078 50.4893,-41.6078 51.7941,-38.9064 48.058,-40.4335 53.0989,-36.205 53.0989,-36.205"/>
</g>
<!-- TGT [3] -->
<g id="node6" class="node">
<title>TGT [3]</title>
<polygon fill="none" stroke="#000000" points="210,-186 156,-186 156,-150 210,-150 210,-186"/>
<text text-anchor="middle" x="183" y="-165.5" font-family="Courier,monospace" font-weight="bold" font-size="10.00" fill="#000000">TGT [3]</text>
</g>
<!-- TTG [2]&#45;&gt;TGT [3] -->
<g id="edge8" class="edge">
<title>TTG [2]&#45;&gt;TGT [3]</title>
<path fill="none" stroke="#000000" d="M167.0256,-199.9489C168.3543,-197.2915 169.7399,-194.5203 171.1155,-191.7691"/>
<polygon fill="#000000" stroke="#000000" points="173.9037,-186.1926 173.6353,-192.7667 172.562,-188.8759 171.2204,-191.5592 171.2204,-191.5592 171.2204,-191.5592 172.562,-188.8759 168.8054,-190.3517 173.9037,-186.1926 173.9037,-186.1926"/>
</g>
<!-- TTT [5]&#45;&gt;TTT [1] -->
<g id="edge9" class="edge">
<title>TTT [5]&#45;&gt;TTT [1]</title>
<path fill="none" stroke="#000000" d="M101.2733,-86.2046C106.0625,-122.3426 111.0414,-203.1438 111.118,-243.7412"/>
<polygon fill="#000000" stroke="#000000" points="111.0874,-249.8986 108.4173,-243.8852 111.1024,-246.8986 111.1173,-243.8987 111.1173,-243.8987 111.1173,-243.8987 111.1024,-246.8986 113.8173,-243.9121 111.0874,-249.8986 111.0874,-249.8986"/>
</g>
<!-- TTT [5]&#45;&gt;TTG [2] -->
<g id="edge10" class="edge">
<title>TTT [5]&#45;&gt;TTG [2]</title>
<path fill="none" stroke="#000000" d="M107.8049,-86.0085C110.3134,-90.5044 112.87,-95.3668 115,-100 129.5253,-131.5949 142.6413,-169.6206 150.4665,-193.8021"/>
<polygon fill="#000000" stroke="#000000" points="152.3396,-199.6394 147.9354,-194.7513 151.4229,-196.7828 150.5062,-193.9263 150.5062,-193.9263 150.5062,-193.9263 151.4229,-196.7828 153.0771,-193.1013 152.3396,-199.6394 152.3396,-199.6394"/>
</g>
<!-- TTT [5]&#45;&gt;TTA [6] -->
<g id="edge11" class="edge">
<title>TTT [5]&#45;&gt;TTA [6]</title>
<path fill="none" stroke="#000000" d="M84.7252,-49.9489C82.8231,-47.1516 80.8352,-44.2283 78.8677,-41.3348"/>
<polygon fill="#000000" stroke="#000000" points="75.371,-36.1926 80.9776,-39.6359 77.0579,-38.6734 78.7449,-41.1542 78.7449,-41.1542 78.7449,-41.1542 77.0579,-38.6734 76.5122,-42.6724 75.371,-36.1926 75.371,-36.1926"/>
</g>
<!-- GTT [4] -->
<g id="node7" class="node">
<title>GTT [4]</title>
<polygon fill="none" stroke="#000000" points="210,-136 156,-136 156,-100 210,-100 210,-136"/>
<text text-anchor="middle" x="183" y="-115.5" font-family="Courier,monospace" font-weight="bold" font-size="10.00" fill="#000000">GTT [4]</text>
</g>
<!-- TGT [3]&#45;&gt;GTT [4] -->
<g id="edge12" class="edge">
<title>TGT [3]&#45;&gt;GTT [4]</title>
<path fill="none" stroke="#000000" d="M183,-149.9489C183,-147.4313 183,-144.8117 183,-142.2036"/>
<polygon fill="#000000" stroke="#000000" points="183,-136.1926 185.7001,-142.1925 183,-139.1926 183.0001,-142.1926 183.0001,-142.1926 183.0001,-142.1926 183,-139.1926 180.3001,-142.1926 183,-136.1926 183,-136.1926"/>
</g>
<!-- GTT [4]&#45;&gt;TTT [1] -->
<g id="edge13" class="edge">
<title>GTT [4]&#45;&gt;TTT [1]</title>
<path fill="none" stroke="#000000" d="M210.431,-130.371C218.1723,-135.3043 225.6615,-141.7975 230,-150 237.4808,-164.1435 235.108,-170.8373 230,-186 221.0893,-212.4511 214.3134,-219.2317 192,-236 177.2658,-247.0726 158.231,-254.776 142.1075,-259.8451"/>
<polygon fill="#000000" stroke="#000000" points="136.3124,-261.5948 141.2758,-257.2757 139.1843,-260.7276 142.0563,-259.8605 142.0563,-259.8605 142.0563,-259.8605 139.1843,-260.7276 142.8367,-262.4452 136.3124,-261.5948 136.3124,-261.5948"/>
</g>
<!-- GTT [4]&#45;&gt;TTG [2] -->
<g id="edge14" class="edge">
<title>GTT [4]&#45;&gt;TTG [2]</title>
<path fill="none" stroke="#000000" d="M207.5404,-136.2394C211.39,-140.3104 214.8137,-144.94 217,-150 223.3461,-164.6876 225.1838,-172.2513 217,-186 211.1162,-195.8847 200.9967,-202.9045 190.7833,-207.7989"/>
<polygon fill="#000000" stroke="#000000" points="185.1258,-210.3041 189.5188,-205.4059 187.8689,-209.0894 190.612,-207.8747 190.612,-207.8747 190.612,-207.8747 187.8689,-209.0894 191.7052,-210.3435 185.1258,-210.3041 185.1258,-210.3041"/>
</g>
<!-- GTT [4]&#45;&gt;TTT [5] -->
<g id="edge15" class="edge">
<title>GTT [4]&#45;&gt;TTT [5]</title>
<path fill="none" stroke="#000000" d="M155.7891,-102.1797C147.3942,-97.299 138.067,-91.8762 129.3607,-86.8144"/>
<polygon fill="#000000" stroke="#000000" points="124.0339,-83.7174 130.5781,-84.399 126.6275,-85.2253 129.221,-86.7332 129.221,-86.7332 129.221,-86.7332 126.6275,-85.2253 127.8639,-89.0673 124.0339,-83.7174 124.0339,-83.7174"/>
</g>
<!-- GTT [4]&#45;&gt;TTA [6] -->
<g id="edge16" class="edge">
<title>GTT [4]&#45;&gt;TTA [6]</title>
<path fill="none" stroke="#000000" d="M172.5608,-99.8792C163.2204,-84.9383 148.3496,-63.9983 131,-50 120.6156,-41.6215 107.6763,-34.8304 95.8806,-29.6955"/>
<polygon fill="#000000" stroke="#000000" points="90.198,-27.3081 96.7755,-27.1429 92.9638,-28.4701 95.7296,-29.6322 95.7296,-29.6322 95.7296,-29.6322 92.9638,-28.4701 94.6838,-32.1214 90.198,-27.3081 90.198,-27.3081"/>
</g>
</g>
</svg>
