<?xml version="1.0" encoding="UTF-8" standalone="no"?>
<!DOCTYPE svg PUBLIC "-//W3C//DTD SVG 1.1//EN"
 "http://www.w3.org/Graphics/SVG/1.1/DTD/svg11.dtd">
<!-- Generated by graphviz version 2.40.1 (0)
 -->
<!-- Title: %3 Pages: 1 -->
<svg width="495pt" height="102pt"
 viewBox="14.40 14.40 480.40 87.40" xmlns="http://www.w3.org/2000/svg" xmlns:xlink="http://www.w3.org/1999/xlink">
<g id="graph0" class="graph" transform="scale(1 1) rotate(0) translate(18.4 83.4)">
<title>%3</title>
<polygon fill="#ffffff" stroke="transparent" points="-4,4 -4,-69 462,-69 462,4 -4,4"/>
<!-- TTA [0] -->
<g id="node1" class="node">
<title>TTA [0]</title>
<polygon fill="none" stroke="#000000" points="54,-36 0,-36 0,0 54,0 54,-36"/>
<text text-anchor="middle" x="27" y="-15.5" font-family="Courier,monospace" font-weight="bold" font-size="10.00" fill="#000000">TTA [0]</text>
</g>
<!-- TAC [0] -->
<g id="node2" class="node">
<title>TAC [0]</title>
<polygon fill="none" stroke="#000000" points="155,-61 101,-61 101,-25 155,-25 155,-61"/>
<text text-anchor="middle" x="128" y="-40.5" font-family="Courier,monospace" font-weight="bold" font-size="10.00" fill="#000000">TAC [0]</text>
</g>
<!-- TTA [0]&#45;&gt;TAC [0] -->
<g id="edge1" class="edge">
<title>TTA [0]&#45;&gt;TAC [0]</title>
<path fill="none" stroke="#000000" d="M54.0661,-24.6995C66.6328,-27.8101 81.687,-31.5364 94.9218,-34.8123"/>
<polygon fill="#000000" stroke="#000000" points="100.8591,-36.282 94.3861,-37.4612 97.947,-35.5611 95.0349,-34.8402 95.0349,-34.8402 95.0349,-34.8402 97.947,-35.5611 95.6837,-32.2193 100.8591,-36.282 100.8591,-36.282"/>
<text text-anchor="middle" x="77.5" y="-37" font-family="Courier,monospace" font-weight="bold" font-size="10.00" fill="#000000">TTAC</text>
</g>
<!-- ACC [0] -->
<g id="node3" class="node">
<title>ACC [0]</title>
<polygon fill="none" stroke="#000000" points="256,-65 202,-65 202,-29 256,-29 256,-65"/>
<text text-anchor="middle" x="229" y="-44.5" font-family="Courier,monospace" font-weight="bold" font-size="10.00" fill="#000000">ACC [0]</text>
</g>
<!-- TAC [0]&#45;&gt;ACC [0] -->
<g id="edge2" class="edge">
<title>TAC [0]&#45;&gt;ACC [0]</title>
<path fill="none" stroke="#000000" d="M155.0661,-44.0719C167.5196,-44.5651 182.4159,-45.1551 195.5637,-45.6758"/>
<polygon fill="#000000" stroke="#000000" points="201.8591,-45.9251 195.757,-48.3855 198.8615,-45.8063 195.8638,-45.6876 195.8638,-45.6876 195.8638,-45.6876 198.8615,-45.8063 195.9707,-42.9897 201.8591,-45.9251 201.8591,-45.9251"/>
<text text-anchor="middle" x="178.5" y="-48" font-family="Courier,monospace" font-weight="bold" font-size="10.00" fill="#000000">TACC</text>
</g>
<!-- CCC [0] -->
<g id="node4" class="node">
<title>CCC [0]</title>
<polygon fill="none" stroke="#000000" points="357,-62 303,-62 303,-26 357,-26 357,-62"/>
<text text-anchor="middle" x="330" y="-41.5" font-family="Courier,monospace" font-weight="bold" font-size="10.00" fill="#000000">CCC [0]</text>
</g>
<!-- ACC [0]&#45;&gt;CCC [0] -->
<g id="edge3" class="edge">
<title>ACC [0]&#45;&gt;CCC [0]</title>
<path fill="none" stroke="#000000" d="M256.0661,-46.1961C268.5196,-45.8262 283.4159,-45.3837 296.5637,-44.9932"/>
<polygon fill="#000000" stroke="#000000" points="302.8591,-44.8062 296.942,-47.6832 299.8605,-44.8953 296.8618,-44.9844 296.8618,-44.9844 296.8618,-44.9844 299.8605,-44.8953 296.7816,-42.2856 302.8591,-44.8062 302.8591,-44.8062"/>
<text text-anchor="middle" x="279.5" y="-48" font-family="Courier,monospace" font-weight="bold" font-size="10.00" fill="#000000">ACCC</text>
</g>
<!-- CCT [0] -->
<g id="node5" class="node">
<title>CCT [0]</title>
<polygon fill="none" stroke="#000000" points="458,-36 404,-36 404,0 458,0 458,-36"/>
<text text-anchor="middle" x="431" y="-15.5" font-family="Courier,monospace" font-weight="bold" font-size="10.00" fill="#000000">CCT [0]</text>
</g>
<!-- CCC [0]&#45;&gt;CCT [0] -->
<g id="edge4" class="edge">
<title>CCC [0]&#45;&gt;CCT [0]</title>
<path fill="none" stroke="#000000" d="M357.0661,-37.0325C369.6328,-33.7975 384.687,-29.9222 397.9218,-26.5152"/>
<polygon fill="#000000" stroke="#000000" points="403.8591,-24.9868 398.7217,-29.0974 400.9539,-25.7347 398.0486,-26.4826 398.0486,-26.4826 398.0486,-26.4826 400.9539,-25.7347 397.3754,-23.8679 403.8591,-24.9868 403.8591,-24.9868"/>
<text text-anchor="middle" x="380.5" y="-37" font-family="Courier,monospace" font-weight="bold" font-size="10.00" fill="#000000">CCCT</text>
</g>
<!-- CCT [0]&#45;&gt;TTA [0] -->
<g id="edge5" class="edge">
<title>CCT [0]&#45;&gt;TTA [0]</title>
<path fill="none" stroke="#000000" d="M403.6525,-13.3987C383.3826,-10.3845 355.0465,-7 330,-7 128,-7 128,-7 128,-7 105.3994,-7 80.1204,-9.7557 60.5061,-12.5086"/>
<polygon fill="#000000" stroke="#000000" points="54.3475,-13.3987 59.8995,-9.8681 57.3166,-12.9695 60.2857,-12.5403 60.2857,-12.5403 60.2857,-12.5403 57.3166,-12.9695 60.672,-15.2126 54.3475,-13.3987 54.3475,-13.3987"/>
<text text-anchor="middle" x="229" y="-10" font-family="Courier,monospace" font-weight="bold" font-size="10.00" fill="#000000">C?TA</text>
</g>
</g>
</svg>
