<?xml version="1.0" encoding="utf-8" standalone="no"?>
<!DOCTYPE svg PUBLIC "-//W3C//DTD SVG 1.1//EN"
  "http://www.w3.org/Graphics/SVG/1.1/DTD/svg11.dtd">
<!-- Created with matplotlib (https://matplotlib.org/) -->
<svg height="180pt" version="1.1" viewBox="0 0 720 180" width="720pt" xmlns="http://www.w3.org/2000/svg" xmlns:xlink="http://www.w3.org/1999/xlink">
 <defs>
  <style type="text/css">
*{stroke-linecap:butt;stroke-linejoin:round;}
  </style>
 </defs>
 <g id="figure_1">
  <g id="patch_1">
   <path d="M 0 180 
L 720 180 
L 720 0 
L 0 0 
z
" style="fill:#ffffff;"/>
  </g>
  <g id="axes_1">
   <g id="patch_2">
    <path d="M 90 160.2 
L 648 160.2 
L 648 21.6 
L 90 21.6 
z
" style="fill:#ffffff;"/>
   </g>
   <g id="line2d_1">
    <path clip-path="url(#p2c3d244964)" d="M 90 160.2 
L 648 160.2 
" style="fill:none;stroke:#000000;stroke-linecap:square;stroke-width:0.5;"/>
   </g>
   <g id="patch_3">
    <path clip-path="url(#p2c3d244964)" d="M 153.311538 159.78114 
Q 149.900619 159.988759 146.212306 160.093776 
Q 142.523993 160.2 138.506916 160.2 
Q 126.527603 160.2 119.531109 159.412978 
Q 112.534615 158.625956 112.534615 157.280052 
Q 112.534615 155.92932 119.531109 155.143505 
Q 126.527603 154.356483 138.506916 154.356483 
Q 142.523993 154.356483 146.212306 154.462707 
Q 149.900619 154.567724 153.311538 154.775343 
L 153.311538 155.940184 
Q 149.869798 155.664967 146.530795 155.537016 
Q 143.191793 155.409064 139.50348 155.409064 
Q 132.887118 155.409064 129.096067 155.907592 
Q 125.315289 156.404913 125.315289 157.280052 
Q 125.315289 158.15157 129.096067 158.650098 
Q 132.887118 159.147419 139.50348 159.147419 
Q 143.191793 159.147419 146.530795 159.019467 
Q 149.869798 158.890309 153.311538 158.615092 
z
" style="fill:#0000ff;"/>
   </g>
   <g id="patch_4">
    <path clip-path="url(#p2c3d244964)" d="M 140.780826 152.227469 
L 125.098677 152.227469 
L 122.622548 154.356483 
L 112.534615 154.356483 
L 126.941183 142.669449 
L 138.904971 142.669449 
L 153.311538 154.356483 
L 143.231943 154.356483 
z
M 127.599817 150.05838 
L 138.254674 150.05838 
L 132.935583 145.409615 
z
" style="fill:#008000;"/>
   </g>
   <g id="patch_5">
    <path clip-path="url(#p2c3d244964)" d="M 112.534615 101.76483 
L 153.311538 101.76483 
L 153.311538 109.74237 
L 138.641329 109.74237 
L 138.641329 142.669449 
L 127.233274 142.669449 
L 127.233274 109.74237 
L 112.534615 109.74237 
z
" style="fill:#ff0000;"/>
   </g>
   <g id="patch_6">
    <path clip-path="url(#p2c3d244964)" d="M 183.703903 158.611738 
L 168.021753 158.611738 
L 165.545625 160.2 
L 155.457692 160.2 
L 169.86426 151.481375 
L 181.828048 151.481375 
L 196.234615 160.2 
L 186.15502 160.2 
z
M 170.522894 156.993579 
L 181.177751 156.993579 
L 175.85866 153.525562 
z
" style="fill:#008000;"/>
   </g>
   <g id="patch_7">
    <path clip-path="url(#p2c3d244964)" d="M 155.457692 142.76275 
L 196.234615 142.76275 
L 196.234615 144.463125 
L 181.564406 144.463125 
L 181.564406 151.481375 
L 170.156351 151.481375 
L 170.156351 144.463125 
L 155.457692 144.463125 
z
" style="fill:#ff0000;"/>
   </g>
   <g id="patch_8">
    <path clip-path="url(#p2c3d244964)" d="M 196.234615 140.887913 
Q 192.823696 141.817227 189.135383 142.287287 
Q 185.44707 142.76275 181.429993 142.76275 
Q 169.45068 142.76275 162.454186 139.240001 
Q 155.457692 135.717252 155.457692 129.692918 
Q 155.457692 123.646972 162.454186 120.129626 
Q 169.45068 116.606876 181.429993 116.606876 
Q 185.44707 116.606876 189.135383 117.082339 
Q 192.823696 117.552399 196.234615 118.481714 
L 196.234615 123.695599 
Q 192.792875 122.463717 189.453872 121.891 
Q 186.11487 121.318283 182.426557 121.318283 
Q 175.810195 121.318283 172.019144 123.549718 
Q 168.238366 125.77575 168.238366 129.692918 
Q 168.238366 133.593877 172.019144 135.825311 
Q 175.810195 138.051343 182.426557 138.051343 
Q 186.11487 138.051343 189.453872 137.478626 
Q 192.792875 136.900506 196.234615 135.668625 
z
" style="fill:#0000ff;"/>
   </g>
   <g id="patch_9">
    <path clip-path="url(#p2c3d244964)" d="M 239.157692 147.659864 
Q 235.045273 153.929932 230.622137 157.079281 
Q 226.199002 160.2 221.483428 160.2 
Q 210.827692 160.2 204.604231 141.532948 
Q 198.380769 122.865895 198.380769 90.942946 
Q 198.380769 58.6478 204.713895 40.1239 
Q 211.05616 21.6 222.086582 21.6 
Q 226.336082 21.6 230.229173 24.119479 
Q 234.131402 26.610328 237.585834 31.534766 
L 237.585834 59.163148 
Q 234.021737 52.835819 230.494195 49.7151 
Q 226.966653 46.565751 223.420834 46.565751 
Q 216.85924 46.565751 213.304282 58.075191 
Q 209.749324 69.556001 209.749324 90.942946 
Q 209.749324 112.129477 213.17634 123.696178 
Q 216.603357 135.234249 222.909066 135.234249 
Q 224.627144 135.234249 226.098476 134.575749 
Q 227.569808 133.888618 228.739563 132.457096 
L 228.739563 106.51791 
L 222.022611 106.51791 
L 222.022611 83.413138 
L 239.157692 83.413138 
z
" style="fill:#ffa600;"/>
   </g>
   <g id="patch_10">
    <path clip-path="url(#p2c3d244964)" d="M 282.080769 147.659864 
Q 277.96835 153.929932 273.545214 157.079281 
Q 269.122079 160.2 264.406504 160.2 
Q 253.750769 160.2 247.527308 141.532948 
Q 241.303846 122.865895 241.303846 90.942946 
Q 241.303846 58.6478 247.636972 40.1239 
Q 253.979237 21.6 265.009659 21.6 
Q 269.259159 21.6 273.15225 24.119479 
Q 277.054479 26.610328 280.508911 31.534766 
L 280.508911 59.163148 
Q 276.944814 52.835819 273.417272 49.7151 
Q 269.88973 46.565751 266.343911 46.565751 
Q 259.782317 46.565751 256.227359 58.075191 
Q 252.672401 69.556001 252.672401 90.942946 
Q 252.672401 112.129477 256.099417 123.696178 
Q 259.526433 135.234249 265.832143 135.234249 
Q 267.550221 135.234249 269.021553 134.575749 
Q 270.492885 133.888618 271.66264 132.457096 
L 271.66264 106.51791 
L 264.945688 106.51791 
L 264.945688 83.413138 
L 282.080769 83.413138 
z
" style="fill:#ffa600;"/>
   </g>
   <g id="patch_11">
    <path clip-path="url(#p2c3d244964)" d="M 284.226923 149.590139 
L 325.003846 149.590139 
L 325.003846 151.659358 
L 310.333637 151.659358 
L 310.333637 160.2 
L 298.925581 160.2 
L 298.925581 151.659358 
L 284.226923 151.659358 
z
" style="fill:#ff0000;"/>
   </g>
   <g id="patch_12">
    <path clip-path="url(#p2c3d244964)" d="M 325.003846 140.950588 
Q 320.891427 145.270364 316.468291 147.440114 
Q 312.045156 149.590139 307.329581 149.590139 
Q 296.673846 149.590139 290.450384 136.729437 
Q 284.226923 123.868734 284.226923 101.875355 
Q 284.226923 79.62555 290.560049 66.863472 
Q 296.902314 54.101395 307.932736 54.101395 
Q 312.182236 54.101395 316.075327 55.837195 
Q 319.977556 57.55327 323.431988 60.945971 
L 323.431988 79.9806 
Q 319.867891 75.621374 316.340349 73.471349 
Q 312.812807 71.301598 309.266988 71.301598 
Q 302.705394 71.301598 299.150436 79.23105 
Q 295.595478 87.140776 295.595478 101.875355 
Q 295.595478 116.471858 299.022494 124.440759 
Q 302.44951 132.389936 308.75522 132.389936 
Q 310.473298 132.389936 311.94463 131.936261 
Q 313.415962 131.462861 314.585717 130.47661 
L 314.585717 112.605757 
L 307.868765 112.605757 
L 307.868765 96.687678 
L 325.003846 96.687678 
z
" style="fill:#ffa600;"/>
   </g>
   <g id="patch_13">
    <path clip-path="url(#p2c3d244964)" d="M 327.15 149.590139 
L 367.926923 149.590139 
L 367.926923 151.659358 
L 353.256714 151.659358 
L 353.256714 160.2 
L 341.848658 160.2 
L 341.848658 151.659358 
L 327.15 151.659358 
z
" style="fill:#ff0000;"/>
   </g>
   <g id="patch_14">
    <path clip-path="url(#p2c3d244964)" d="M 367.926923 140.950588 
Q 363.814504 145.270364 359.391368 147.440114 
Q 354.968233 149.590139 350.252658 149.590139 
Q 339.596923 149.590139 333.373461 136.729437 
Q 327.15 123.868734 327.15 101.875355 
Q 327.15 79.62555 333.483126 66.863472 
Q 339.82539 54.101395 350.855813 54.101395 
Q 355.105313 54.101395 358.998404 55.837195 
Q 362.900633 57.55327 366.355065 60.945971 
L 366.355065 79.9806 
Q 362.790968 75.621374 359.263426 73.471349 
Q 355.735884 71.301598 352.190065 71.301598 
Q 345.628471 71.301598 342.073513 79.23105 
Q 338.518555 87.140776 338.518555 101.875355 
Q 338.518555 116.471858 341.945571 124.440759 
Q 345.372587 132.389936 351.678297 132.389936 
Q 353.396375 132.389936 354.867707 131.936261 
Q 356.339039 131.462861 357.508794 130.47661 
L 357.508794 112.605757 
L 350.791842 112.605757 
L 350.791842 96.687678 
L 367.926923 96.687678 
z
" style="fill:#ffa600;"/>
   </g>
   <g id="patch_15">
    <path clip-path="url(#p2c3d244964)" d="M 410.85 159.24005 
Q 406.737581 159.720025 402.314445 159.961108 
Q 397.89131 160.2 393.175735 160.2 
Q 382.52 160.2 376.296538 158.771033 
Q 370.073077 157.342066 370.073077 154.898357 
Q 370.073077 152.426157 376.406203 151.008148 
Q 382.748467 149.590139 393.77889 149.590139 
Q 398.02839 149.590139 401.921481 149.783006 
Q 405.82371 149.973681 409.278142 150.350648 
L 409.278142 152.465607 
Q 405.714045 151.981248 402.186503 151.742357 
Q 398.658961 151.501273 395.113142 151.501273 
Q 388.551548 151.501273 384.99659 152.382323 
Q 381.441632 153.261182 381.441632 154.898357 
Q 381.441632 156.520191 384.868648 157.405624 
Q 388.295664 158.288866 394.601374 158.288866 
Q 396.319451 158.288866 397.790784 158.238458 
Q 399.262116 158.185858 400.431871 158.076275 
L 400.431871 156.090624 
L 393.714919 156.090624 
L 393.714919 154.321949 
L 410.85 154.321949 
z
" style="fill:#ffa600;"/>
   </g>
   <g id="patch_16">
    <path clip-path="url(#p2c3d244964)" d="M 398.319287 132.195062 
L 382.637138 132.195062 
L 380.161009 149.590139 
L 370.073077 149.590139 
L 384.479645 54.101395 
L 396.443432 54.101395 
L 410.85 149.590139 
L 400.770405 149.590139 
z
M 385.138278 114.472547 
L 395.793136 114.472547 
L 390.474044 76.489883 
z
" style="fill:#008000;"/>
   </g>
   <g id="patch_17">
    <path clip-path="url(#p2c3d244964)" d="M 441.242364 159.393262 
L 425.560215 159.393262 
L 423.084086 160.2 
L 412.996154 160.2 
L 427.402722 155.771481 
L 439.366509 155.771481 
L 453.773077 160.2 
L 443.693482 160.2 
z
M 428.061355 158.571338 
L 438.716213 158.571338 
L 433.397121 156.809801 
z
" style="fill:#008000;"/>
   </g>
   <g id="patch_18">
    <path clip-path="url(#p2c3d244964)" d="M 453.773077 154.501746 
Q 450.362158 155.131125 446.673844 155.449473 
Q 442.985531 155.771481 438.968455 155.771481 
Q 426.989142 155.771481 419.992648 153.385697 
Q 412.996154 150.999914 412.996154 146.919931 
Q 412.996154 142.825312 419.992648 140.443188 
Q 426.989142 138.057404 438.968455 138.057404 
Q 442.985531 138.057404 446.673844 138.379412 
Q 450.362158 138.69776 453.773077 139.327139 
L 453.773077 142.858245 
Q 450.331336 142.023952 446.992334 141.63608 
Q 443.653332 141.248207 439.965018 141.248207 
Q 433.348657 141.248207 429.557605 142.759447 
Q 425.776827 144.267028 425.776827 146.919931 
Q 425.776827 149.561857 429.557605 151.073097 
Q 433.348657 152.580678 439.965018 152.580678 
Q 443.653332 152.580678 446.992334 152.192806 
Q 450.331336 151.801274 453.773077 150.966981 
z
" style="fill:#0000ff;"/>
   </g>
   <g id="patch_19">
    <path clip-path="url(#p2c3d244964)" d="M 412.996154 115.914808 
L 453.773077 115.914808 
L 453.773077 120.233232 
L 439.102868 120.233232 
L 439.102868 138.057404 
L 427.694812 138.057404 
L 427.694812 120.233232 
L 412.996154 120.233232 
z
" style="fill:#ff0000;"/>
   </g>
   <g id="patch_20">
    <path clip-path="url(#p2c3d244964)" d="M 484.165441 158.839009 
L 468.483292 158.839009 
L 466.007163 160.2 
L 455.919231 160.2 
L 470.325799 152.728962 
L 482.289586 152.728962 
L 496.696154 160.2 
L 486.616559 160.2 
z
M 470.984432 157.4524 
L 481.63929 157.4524 
L 476.320198 154.480637 
z
" style="fill:#008000;"/>
   </g>
   <g id="patch_21">
    <path clip-path="url(#p2c3d244964)" d="M 496.696154 152.193442 
Q 493.285235 152.458887 489.596921 152.593153 
Q 485.908608 152.728962 481.891531 152.728962 
Q 469.912219 152.728962 462.915725 151.72274 
Q 455.919231 150.716519 455.919231 148.995757 
Q 455.919231 147.268823 462.915725 146.264145 
Q 469.912219 145.257923 481.891531 145.257923 
Q 485.908608 145.257923 489.596921 145.393732 
Q 493.285235 145.527998 496.696154 145.793443 
L 496.696154 147.282712 
Q 493.254413 146.930843 489.915411 146.767255 
Q 486.576409 146.603667 482.888095 146.603667 
Q 476.271734 146.603667 472.480682 147.241043 
Q 468.699904 147.876877 468.699904 148.995757 
Q 468.699904 150.110009 472.480682 150.747385 
Q 476.271734 151.383218 482.888095 151.383218 
Q 486.576409 151.383218 489.915411 151.21963 
Q 493.254413 151.054498 496.696154 150.70263 
z
" style="fill:#0000ff;"/>
   </g>
   <g id="patch_22">
    <path clip-path="url(#p2c3d244964)" d="M 455.919231 85.489617 
L 496.696154 85.489617 
L 496.696154 97.146102 
L 482.025945 97.146102 
L 482.025945 145.257923 
L 470.617889 145.257923 
L 470.617889 97.146102 
L 455.919231 97.146102 
z
" style="fill:#ff0000;"/>
   </g>
   <g id="patch_23">
    <path clip-path="url(#p2c3d244964)" d="M 527.088518 159.135493 
L 511.406369 159.135493 
L 508.93024 160.2 
L 498.842308 160.2 
L 513.248875 154.356483 
L 525.212663 154.356483 
L 539.619231 160.2 
L 529.539636 160.2 
z
M 513.907509 158.050948 
L 524.562367 158.050948 
L 519.243275 155.726566 
z
" style="fill:#008000;"/>
   </g>
   <g id="patch_24">
    <path clip-path="url(#p2c3d244964)" d="M 539.619231 153.518763 
Q 536.208312 153.934002 532.519998 154.144035 
Q 528.831685 154.356483 524.814608 154.356483 
Q 512.835296 154.356483 505.838802 152.782439 
Q 498.842308 151.208395 498.842308 148.516587 
Q 498.842308 145.815122 505.838802 144.243493 
Q 512.835296 142.669449 524.814608 142.669449 
Q 528.831685 142.669449 532.519998 142.881897 
Q 536.208312 143.09193 539.619231 143.507169 
L 539.619231 145.83685 
Q 536.17749 145.286417 532.838488 145.030515 
Q 529.499485 144.774612 525.811172 144.774612 
Q 519.194811 144.774612 515.403759 145.771667 
Q 511.622981 146.766308 511.622981 148.516587 
Q 511.622981 150.259623 515.403759 151.256679 
Q 519.194811 152.25132 525.811172 152.25132 
Q 529.499485 152.25132 532.838488 151.995417 
Q 536.17749 151.7371 539.619231 151.186668 
z
" style="fill:#0000ff;"/>
   </g>
   <g id="patch_25">
    <path clip-path="url(#p2c3d244964)" d="M 498.842308 101.76483 
L 539.619231 101.76483 
L 539.619231 109.74237 
L 524.949021 109.74237 
L 524.949021 142.669449 
L 513.540966 142.669449 
L 513.540966 109.74237 
L 498.842308 109.74237 
z
" style="fill:#ff0000;"/>
   </g>
   <g id="patch_26">
    <path clip-path="url(#p2c3d244964)" d="M 570.011595 158.575065 
L 554.329446 158.575065 
L 551.853317 160.2 
L 541.765385 160.2 
L 556.171952 151.280063 
L 568.13574 151.280063 
L 582.542308 160.2 
L 572.462713 160.2 
z
M 556.830586 156.919543 
L 567.485443 156.919543 
L 562.166352 153.37145 
z
" style="fill:#008000;"/>
   </g>
   <g id="patch_27">
    <path clip-path="url(#p2c3d244964)" d="M 541.765385 142.360126 
L 582.542308 142.360126 
L 582.542308 144.099762 
L 567.872098 144.099762 
L 567.872098 151.280063 
L 556.464043 151.280063 
L 556.464043 144.099762 
L 541.765385 144.099762 
z
" style="fill:#ff0000;"/>
   </g>
   <g id="patch_28">
    <path clip-path="url(#p2c3d244964)" d="M 582.542308 141.507625 
Q 579.131388 141.93019 575.443075 142.143929 
Q 571.754762 142.360126 567.737685 142.360126 
Q 555.758373 142.360126 548.761879 140.758308 
Q 541.765385 139.156491 541.765385 136.417186 
Q 541.765385 133.668054 548.761879 132.068694 
Q 555.758373 130.466876 567.737685 130.466876 
Q 571.754762 130.466876 575.443075 130.683072 
Q 579.131388 130.896812 582.542308 131.319377 
L 582.542308 133.690165 
Q 579.100567 133.130021 575.761565 132.869602 
Q 572.422562 132.609184 568.734249 132.609184 
Q 562.117888 132.609184 558.326836 133.623833 
Q 554.546058 134.636024 554.546058 136.417186 
Q 554.546058 138.190978 558.326836 139.205626 
Q 562.117888 140.217818 568.734249 140.217818 
Q 572.422562 140.217818 575.761565 139.957399 
Q 579.100567 139.694524 582.542308 139.13438 
z
" style="fill:#0000ff;"/>
   </g>
   <g id="patch_29">
    <path clip-path="url(#p2c3d244964)" d="M 584.688462 131.67475 
L 625.465385 131.67475 
L 625.465385 137.237969 
L 610.795175 137.237969 
L 610.795175 160.2 
L 599.38712 160.2 
L 599.38712 137.237969 
L 584.688462 137.237969 
z
" style="fill:#ff0000;"/>
   </g>
   <g id="patch_30">
    <path clip-path="url(#p2c3d244964)" d="M 625.465385 128.607741 
Q 622.054465 130.127988 618.366152 130.89695 
Q 614.677839 131.67475 610.660762 131.67475 
Q 598.68145 131.67475 591.684956 125.911955 
Q 584.688462 120.149159 584.688462 110.294071 
Q 584.688462 100.403629 591.684956 94.649672 
Q 598.68145 88.886876 610.660762 88.886876 
Q 614.677839 88.886876 618.366152 89.664677 
Q 622.054465 90.433639 625.465385 91.953886 
L 625.465385 100.483177 
Q 622.023644 98.467966 618.684642 97.53107 
Q 615.345639 96.594174 611.657326 96.594174 
Q 605.040965 96.594174 601.249913 100.244533 
Q 597.469135 103.886055 597.469135 110.294071 
Q 597.469135 116.675572 601.249913 120.325932 
Q 605.040965 123.967453 611.657326 123.967453 
Q 615.345639 123.967453 618.684642 123.030557 
Q 622.023644 122.084822 625.465385 120.069611 
z
" style="fill:#0000ff;"/>
   </g>
   <g id="matplotlib.axis_1">
    <g id="xtick_1">
     <g id="line2d_2">
      <defs>
       <path d="M 0 0 
L 0 3.5 
" id="mbfd4efd194" style="stroke:#000000;stroke-width:0.8;"/>
      </defs>
      <g>
       <use style="stroke:#000000;stroke-width:0.8;" x="132.923077" xlink:href="#mbfd4efd194" y="160.2"/>
      </g>
     </g>
     <g id="text_1">
      <!-- 0 -->
      <defs>
       <path d="M 31.78125 66.40625 
Q 24.171875 66.40625 20.328125 58.90625 
Q 16.5 51.421875 16.5 36.375 
Q 16.5 21.390625 20.328125 13.890625 
Q 24.171875 6.390625 31.78125 6.390625 
Q 39.453125 6.390625 43.28125 13.890625 
Q 47.125 21.390625 47.125 36.375 
Q 47.125 51.421875 43.28125 58.90625 
Q 39.453125 66.40625 31.78125 66.40625 
z
M 31.78125 74.21875 
Q 44.046875 74.21875 50.515625 64.515625 
Q 56.984375 54.828125 56.984375 36.375 
Q 56.984375 17.96875 50.515625 8.265625 
Q 44.046875 -1.421875 31.78125 -1.421875 
Q 19.53125 -1.421875 13.0625 8.265625 
Q 6.59375 17.96875 6.59375 36.375 
Q 6.59375 54.828125 13.0625 64.515625 
Q 19.53125 74.21875 31.78125 74.21875 
z
" id="DejaVuSans-48"/>
      </defs>
      <g transform="translate(129.741827 174.798438)scale(0.1 -0.1)">
       <use xlink:href="#DejaVuSans-48"/>
      </g>
     </g>
    </g>
    <g id="xtick_2">
     <g id="line2d_3">
      <g>
       <use style="stroke:#000000;stroke-width:0.8;" x="218.769231" xlink:href="#mbfd4efd194" y="160.2"/>
      </g>
     </g>
     <g id="text_2">
      <!-- 2 -->
      <defs>
       <path d="M 19.1875 8.296875 
L 53.609375 8.296875 
L 53.609375 0 
L 7.328125 0 
L 7.328125 8.296875 
Q 12.9375 14.109375 22.625 23.890625 
Q 32.328125 33.6875 34.8125 36.53125 
Q 39.546875 41.84375 41.421875 45.53125 
Q 43.3125 49.21875 43.3125 52.78125 
Q 43.3125 58.59375 39.234375 62.25 
Q 35.15625 65.921875 28.609375 65.921875 
Q 23.96875 65.921875 18.8125 64.3125 
Q 13.671875 62.703125 7.8125 59.421875 
L 7.8125 69.390625 
Q 13.765625 71.78125 18.9375 73 
Q 24.125 74.21875 28.421875 74.21875 
Q 39.75 74.21875 46.484375 68.546875 
Q 53.21875 62.890625 53.21875 53.421875 
Q 53.21875 48.921875 51.53125 44.890625 
Q 49.859375 40.875 45.40625 35.40625 
Q 44.1875 33.984375 37.640625 27.21875 
Q 31.109375 20.453125 19.1875 8.296875 
z
" id="DejaVuSans-50"/>
      </defs>
      <g transform="translate(215.587981 174.798438)scale(0.1 -0.1)">
       <use xlink:href="#DejaVuSans-50"/>
      </g>
     </g>
    </g>
    <g id="xtick_3">
     <g id="line2d_4">
      <g>
       <use style="stroke:#000000;stroke-width:0.8;" x="304.615385" xlink:href="#mbfd4efd194" y="160.2"/>
      </g>
     </g>
     <g id="text_3">
      <!-- 4 -->
      <defs>
       <path d="M 37.796875 64.3125 
L 12.890625 25.390625 
L 37.796875 25.390625 
z
M 35.203125 72.90625 
L 47.609375 72.90625 
L 47.609375 25.390625 
L 58.015625 25.390625 
L 58.015625 17.1875 
L 47.609375 17.1875 
L 47.609375 0 
L 37.796875 0 
L 37.796875 17.1875 
L 4.890625 17.1875 
L 4.890625 26.703125 
z
" id="DejaVuSans-52"/>
      </defs>
      <g transform="translate(301.434135 174.798438)scale(0.1 -0.1)">
       <use xlink:href="#DejaVuSans-52"/>
      </g>
     </g>
    </g>
    <g id="xtick_4">
     <g id="line2d_5">
      <g>
       <use style="stroke:#000000;stroke-width:0.8;" x="390.461538" xlink:href="#mbfd4efd194" y="160.2"/>
      </g>
     </g>
     <g id="text_4">
      <!-- 6 -->
      <defs>
       <path d="M 33.015625 40.375 
Q 26.375 40.375 22.484375 35.828125 
Q 18.609375 31.296875 18.609375 23.390625 
Q 18.609375 15.53125 22.484375 10.953125 
Q 26.375 6.390625 33.015625 6.390625 
Q 39.65625 6.390625 43.53125 10.953125 
Q 47.40625 15.53125 47.40625 23.390625 
Q 47.40625 31.296875 43.53125 35.828125 
Q 39.65625 40.375 33.015625 40.375 
z
M 52.59375 71.296875 
L 52.59375 62.3125 
Q 48.875 64.0625 45.09375 64.984375 
Q 41.3125 65.921875 37.59375 65.921875 
Q 27.828125 65.921875 22.671875 59.328125 
Q 17.53125 52.734375 16.796875 39.40625 
Q 19.671875 43.65625 24.015625 45.921875 
Q 28.375 48.1875 33.59375 48.1875 
Q 44.578125 48.1875 50.953125 41.515625 
Q 57.328125 34.859375 57.328125 23.390625 
Q 57.328125 12.15625 50.6875 5.359375 
Q 44.046875 -1.421875 33.015625 -1.421875 
Q 20.359375 -1.421875 13.671875 8.265625 
Q 6.984375 17.96875 6.984375 36.375 
Q 6.984375 53.65625 15.1875 63.9375 
Q 23.390625 74.21875 37.203125 74.21875 
Q 40.921875 74.21875 44.703125 73.484375 
Q 48.484375 72.75 52.59375 71.296875 
z
" id="DejaVuSans-54"/>
      </defs>
      <g transform="translate(387.280288 174.798438)scale(0.1 -0.1)">
       <use xlink:href="#DejaVuSans-54"/>
      </g>
     </g>
    </g>
    <g id="xtick_5">
     <g id="line2d_6">
      <g>
       <use style="stroke:#000000;stroke-width:0.8;" x="476.307692" xlink:href="#mbfd4efd194" y="160.2"/>
      </g>
     </g>
     <g id="text_5">
      <!-- 8 -->
      <defs>
       <path d="M 31.78125 34.625 
Q 24.75 34.625 20.71875 30.859375 
Q 16.703125 27.09375 16.703125 20.515625 
Q 16.703125 13.921875 20.71875 10.15625 
Q 24.75 6.390625 31.78125 6.390625 
Q 38.8125 6.390625 42.859375 10.171875 
Q 46.921875 13.96875 46.921875 20.515625 
Q 46.921875 27.09375 42.890625 30.859375 
Q 38.875 34.625 31.78125 34.625 
z
M 21.921875 38.8125 
Q 15.578125 40.375 12.03125 44.71875 
Q 8.5 49.078125 8.5 55.328125 
Q 8.5 64.0625 14.71875 69.140625 
Q 20.953125 74.21875 31.78125 74.21875 
Q 42.671875 74.21875 48.875 69.140625 
Q 55.078125 64.0625 55.078125 55.328125 
Q 55.078125 49.078125 51.53125 44.71875 
Q 48 40.375 41.703125 38.8125 
Q 48.828125 37.15625 52.796875 32.3125 
Q 56.78125 27.484375 56.78125 20.515625 
Q 56.78125 9.90625 50.3125 4.234375 
Q 43.84375 -1.421875 31.78125 -1.421875 
Q 19.734375 -1.421875 13.25 4.234375 
Q 6.78125 9.90625 6.78125 20.515625 
Q 6.78125 27.484375 10.78125 32.3125 
Q 14.796875 37.15625 21.921875 38.8125 
z
M 18.3125 54.390625 
Q 18.3125 48.734375 21.84375 45.5625 
Q 25.390625 42.390625 31.78125 42.390625 
Q 38.140625 42.390625 41.71875 45.5625 
Q 45.3125 48.734375 45.3125 54.390625 
Q 45.3125 60.0625 41.71875 63.234375 
Q 38.140625 66.40625 31.78125 66.40625 
Q 25.390625 66.40625 21.84375 63.234375 
Q 18.3125 60.0625 18.3125 54.390625 
z
" id="DejaVuSans-56"/>
      </defs>
      <g transform="translate(473.126442 174.798438)scale(0.1 -0.1)">
       <use xlink:href="#DejaVuSans-56"/>
      </g>
     </g>
    </g>
    <g id="xtick_6">
     <g id="line2d_7">
      <g>
       <use style="stroke:#000000;stroke-width:0.8;" x="562.153846" xlink:href="#mbfd4efd194" y="160.2"/>
      </g>
     </g>
     <g id="text_6">
      <!-- 10 -->
      <defs>
       <path d="M 12.40625 8.296875 
L 28.515625 8.296875 
L 28.515625 63.921875 
L 10.984375 60.40625 
L 10.984375 69.390625 
L 28.421875 72.90625 
L 38.28125 72.90625 
L 38.28125 8.296875 
L 54.390625 8.296875 
L 54.390625 0 
L 12.40625 0 
z
" id="DejaVuSans-49"/>
      </defs>
      <g transform="translate(555.791346 174.798438)scale(0.1 -0.1)">
       <use xlink:href="#DejaVuSans-49"/>
       <use x="63.623047" xlink:href="#DejaVuSans-48"/>
      </g>
     </g>
    </g>
    <g id="xtick_7">
     <g id="line2d_8">
      <g>
       <use style="stroke:#000000;stroke-width:0.8;" x="648" xlink:href="#mbfd4efd194" y="160.2"/>
      </g>
     </g>
     <g id="text_7">
      <!-- 12 -->
      <g transform="translate(641.6375 174.798438)scale(0.1 -0.1)">
       <use xlink:href="#DejaVuSans-49"/>
       <use x="63.623047" xlink:href="#DejaVuSans-50"/>
      </g>
     </g>
    </g>
   </g>
   <g id="matplotlib.axis_2">
    <g id="ytick_1">
     <g id="line2d_9">
      <defs>
       <path d="M 0 0 
L -3.5 0 
" id="m6534d8a004" style="stroke:#000000;stroke-width:0.8;"/>
      </defs>
      <g>
       <use style="stroke:#000000;stroke-width:0.8;" x="90" xlink:href="#m6534d8a004" y="160.2"/>
      </g>
     </g>
     <g id="text_8">
      <!-- 0.0 -->
      <defs>
       <path d="M 10.6875 12.40625 
L 21 12.40625 
L 21 0 
L 10.6875 0 
z
" id="DejaVuSans-46"/>
      </defs>
      <g transform="translate(67.096875 163.999219)scale(0.1 -0.1)">
       <use xlink:href="#DejaVuSans-48"/>
       <use x="63.623047" xlink:href="#DejaVuSans-46"/>
       <use x="95.410156" xlink:href="#DejaVuSans-48"/>
      </g>
     </g>
    </g>
    <g id="ytick_2">
     <g id="line2d_10">
      <g>
       <use style="stroke:#000000;stroke-width:0.8;" x="90" xlink:href="#m6534d8a004" y="125.55"/>
      </g>
     </g>
     <g id="text_9">
      <!-- 0.5 -->
      <defs>
       <path d="M 10.796875 72.90625 
L 49.515625 72.90625 
L 49.515625 64.59375 
L 19.828125 64.59375 
L 19.828125 46.734375 
Q 21.96875 47.46875 24.109375 47.828125 
Q 26.265625 48.1875 28.421875 48.1875 
Q 40.625 48.1875 47.75 41.5 
Q 54.890625 34.8125 54.890625 23.390625 
Q 54.890625 11.625 47.5625 5.09375 
Q 40.234375 -1.421875 26.90625 -1.421875 
Q 22.3125 -1.421875 17.546875 -0.640625 
Q 12.796875 0.140625 7.71875 1.703125 
L 7.71875 11.625 
Q 12.109375 9.234375 16.796875 8.0625 
Q 21.484375 6.890625 26.703125 6.890625 
Q 35.15625 6.890625 40.078125 11.328125 
Q 45.015625 15.765625 45.015625 23.390625 
Q 45.015625 31 40.078125 35.4375 
Q 35.15625 39.890625 26.703125 39.890625 
Q 22.75 39.890625 18.8125 39.015625 
Q 14.890625 38.140625 10.796875 36.28125 
z
" id="DejaVuSans-53"/>
      </defs>
      <g transform="translate(67.096875 129.349219)scale(0.1 -0.1)">
       <use xlink:href="#DejaVuSans-48"/>
       <use x="63.623047" xlink:href="#DejaVuSans-46"/>
       <use x="95.410156" xlink:href="#DejaVuSans-53"/>
      </g>
     </g>
    </g>
    <g id="ytick_3">
     <g id="line2d_11">
      <g>
       <use style="stroke:#000000;stroke-width:0.8;" x="90" xlink:href="#m6534d8a004" y="90.9"/>
      </g>
     </g>
     <g id="text_10">
      <!-- 1.0 -->
      <g transform="translate(67.096875 94.699219)scale(0.1 -0.1)">
       <use xlink:href="#DejaVuSans-49"/>
       <use x="63.623047" xlink:href="#DejaVuSans-46"/>
       <use x="95.410156" xlink:href="#DejaVuSans-48"/>
      </g>
     </g>
    </g>
    <g id="ytick_4">
     <g id="line2d_12">
      <g>
       <use style="stroke:#000000;stroke-width:0.8;" x="90" xlink:href="#m6534d8a004" y="56.25"/>
      </g>
     </g>
     <g id="text_11">
      <!-- 1.5 -->
      <g transform="translate(67.096875 60.049219)scale(0.1 -0.1)">
       <use xlink:href="#DejaVuSans-49"/>
       <use x="63.623047" xlink:href="#DejaVuSans-46"/>
       <use x="95.410156" xlink:href="#DejaVuSans-53"/>
      </g>
     </g>
    </g>
    <g id="ytick_5">
     <g id="line2d_13">
      <g>
       <use style="stroke:#000000;stroke-width:0.8;" x="90" xlink:href="#m6534d8a004" y="21.6"/>
      </g>
     </g>
     <g id="text_12">
      <!-- 2.0 -->
      <g transform="translate(67.096875 25.399219)scale(0.1 -0.1)">
       <use xlink:href="#DejaVuSans-50"/>
       <use x="63.623047" xlink:href="#DejaVuSans-46"/>
       <use x="95.410156" xlink:href="#DejaVuSans-48"/>
      </g>
     </g>
    </g>
    <g id="text_13">
     <!-- information (bits) -->
     <defs>
      <path d="M 9.421875 54.6875 
L 18.40625 54.6875 
L 18.40625 0 
L 9.421875 0 
z
M 9.421875 75.984375 
L 18.40625 75.984375 
L 18.40625 64.59375 
L 9.421875 64.59375 
z
" id="DejaVuSans-105"/>
      <path d="M 54.890625 33.015625 
L 54.890625 0 
L 45.90625 0 
L 45.90625 32.71875 
Q 45.90625 40.484375 42.875 44.328125 
Q 39.84375 48.1875 33.796875 48.1875 
Q 26.515625 48.1875 22.3125 43.546875 
Q 18.109375 38.921875 18.109375 30.90625 
L 18.109375 0 
L 9.078125 0 
L 9.078125 54.6875 
L 18.109375 54.6875 
L 18.109375 46.1875 
Q 21.34375 51.125 25.703125 53.5625 
Q 30.078125 56 35.796875 56 
Q 45.21875 56 50.046875 50.171875 
Q 54.890625 44.34375 54.890625 33.015625 
z
" id="DejaVuSans-110"/>
      <path d="M 37.109375 75.984375 
L 37.109375 68.5 
L 28.515625 68.5 
Q 23.6875 68.5 21.796875 66.546875 
Q 19.921875 64.59375 19.921875 59.515625 
L 19.921875 54.6875 
L 34.71875 54.6875 
L 34.71875 47.703125 
L 19.921875 47.703125 
L 19.921875 0 
L 10.890625 0 
L 10.890625 47.703125 
L 2.296875 47.703125 
L 2.296875 54.6875 
L 10.890625 54.6875 
L 10.890625 58.5 
Q 10.890625 67.625 15.140625 71.796875 
Q 19.390625 75.984375 28.609375 75.984375 
z
" id="DejaVuSans-102"/>
      <path d="M 30.609375 48.390625 
Q 23.390625 48.390625 19.1875 42.75 
Q 14.984375 37.109375 14.984375 27.296875 
Q 14.984375 17.484375 19.15625 11.84375 
Q 23.34375 6.203125 30.609375 6.203125 
Q 37.796875 6.203125 41.984375 11.859375 
Q 46.1875 17.53125 46.1875 27.296875 
Q 46.1875 37.015625 41.984375 42.703125 
Q 37.796875 48.390625 30.609375 48.390625 
z
M 30.609375 56 
Q 42.328125 56 49.015625 48.375 
Q 55.71875 40.765625 55.71875 27.296875 
Q 55.71875 13.875 49.015625 6.21875 
Q 42.328125 -1.421875 30.609375 -1.421875 
Q 18.84375 -1.421875 12.171875 6.21875 
Q 5.515625 13.875 5.515625 27.296875 
Q 5.515625 40.765625 12.171875 48.375 
Q 18.84375 56 30.609375 56 
z
" id="DejaVuSans-111"/>
      <path d="M 41.109375 46.296875 
Q 39.59375 47.171875 37.8125 47.578125 
Q 36.03125 48 33.890625 48 
Q 26.265625 48 22.1875 43.046875 
Q 18.109375 38.09375 18.109375 28.8125 
L 18.109375 0 
L 9.078125 0 
L 9.078125 54.6875 
L 18.109375 54.6875 
L 18.109375 46.1875 
Q 20.953125 51.171875 25.484375 53.578125 
Q 30.03125 56 36.53125 56 
Q 37.453125 56 38.578125 55.875 
Q 39.703125 55.765625 41.0625 55.515625 
z
" id="DejaVuSans-114"/>
      <path d="M 52 44.1875 
Q 55.375 50.25 60.0625 53.125 
Q 64.75 56 71.09375 56 
Q 79.640625 56 84.28125 50.015625 
Q 88.921875 44.046875 88.921875 33.015625 
L 88.921875 0 
L 79.890625 0 
L 79.890625 32.71875 
Q 79.890625 40.578125 77.09375 44.375 
Q 74.3125 48.1875 68.609375 48.1875 
Q 61.625 48.1875 57.5625 43.546875 
Q 53.515625 38.921875 53.515625 30.90625 
L 53.515625 0 
L 44.484375 0 
L 44.484375 32.71875 
Q 44.484375 40.625 41.703125 44.40625 
Q 38.921875 48.1875 33.109375 48.1875 
Q 26.21875 48.1875 22.15625 43.53125 
Q 18.109375 38.875 18.109375 30.90625 
L 18.109375 0 
L 9.078125 0 
L 9.078125 54.6875 
L 18.109375 54.6875 
L 18.109375 46.1875 
Q 21.1875 51.21875 25.484375 53.609375 
Q 29.78125 56 35.6875 56 
Q 41.65625 56 45.828125 52.96875 
Q 50 49.953125 52 44.1875 
z
" id="DejaVuSans-109"/>
      <path d="M 34.28125 27.484375 
Q 23.390625 27.484375 19.1875 25 
Q 14.984375 22.515625 14.984375 16.5 
Q 14.984375 11.71875 18.140625 8.90625 
Q 21.296875 6.109375 26.703125 6.109375 
Q 34.1875 6.109375 38.703125 11.40625 
Q 43.21875 16.703125 43.21875 25.484375 
L 43.21875 27.484375 
z
M 52.203125 31.203125 
L 52.203125 0 
L 43.21875 0 
L 43.21875 8.296875 
Q 40.140625 3.328125 35.546875 0.953125 
Q 30.953125 -1.421875 24.3125 -1.421875 
Q 15.921875 -1.421875 10.953125 3.296875 
Q 6 8.015625 6 15.921875 
Q 6 25.140625 12.171875 29.828125 
Q 18.359375 34.515625 30.609375 34.515625 
L 43.21875 34.515625 
L 43.21875 35.40625 
Q 43.21875 41.609375 39.140625 45 
Q 35.0625 48.390625 27.6875 48.390625 
Q 23 48.390625 18.546875 47.265625 
Q 14.109375 46.140625 10.015625 43.890625 
L 10.015625 52.203125 
Q 14.9375 54.109375 19.578125 55.046875 
Q 24.21875 56 28.609375 56 
Q 40.484375 56 46.34375 49.84375 
Q 52.203125 43.703125 52.203125 31.203125 
z
" id="DejaVuSans-97"/>
      <path d="M 18.3125 70.21875 
L 18.3125 54.6875 
L 36.8125 54.6875 
L 36.8125 47.703125 
L 18.3125 47.703125 
L 18.3125 18.015625 
Q 18.3125 11.328125 20.140625 9.421875 
Q 21.96875 7.515625 27.59375 7.515625 
L 36.8125 7.515625 
L 36.8125 0 
L 27.59375 0 
Q 17.1875 0 13.234375 3.875 
Q 9.28125 7.765625 9.28125 18.015625 
L 9.28125 47.703125 
L 2.6875 47.703125 
L 2.6875 54.6875 
L 9.28125 54.6875 
L 9.28125 70.21875 
z
" id="DejaVuSans-116"/>
      <path id="DejaVuSans-32"/>
      <path d="M 31 75.875 
Q 24.46875 64.65625 21.28125 53.65625 
Q 18.109375 42.671875 18.109375 31.390625 
Q 18.109375 20.125 21.3125 9.0625 
Q 24.515625 -2 31 -13.1875 
L 23.1875 -13.1875 
Q 15.875 -1.703125 12.234375 9.375 
Q 8.59375 20.453125 8.59375 31.390625 
Q 8.59375 42.28125 12.203125 53.3125 
Q 15.828125 64.359375 23.1875 75.875 
z
" id="DejaVuSans-40"/>
      <path d="M 48.6875 27.296875 
Q 48.6875 37.203125 44.609375 42.84375 
Q 40.53125 48.484375 33.40625 48.484375 
Q 26.265625 48.484375 22.1875 42.84375 
Q 18.109375 37.203125 18.109375 27.296875 
Q 18.109375 17.390625 22.1875 11.75 
Q 26.265625 6.109375 33.40625 6.109375 
Q 40.53125 6.109375 44.609375 11.75 
Q 48.6875 17.390625 48.6875 27.296875 
z
M 18.109375 46.390625 
Q 20.953125 51.265625 25.265625 53.625 
Q 29.59375 56 35.59375 56 
Q 45.5625 56 51.78125 48.09375 
Q 58.015625 40.1875 58.015625 27.296875 
Q 58.015625 14.40625 51.78125 6.484375 
Q 45.5625 -1.421875 35.59375 -1.421875 
Q 29.59375 -1.421875 25.265625 0.953125 
Q 20.953125 3.328125 18.109375 8.203125 
L 18.109375 0 
L 9.078125 0 
L 9.078125 75.984375 
L 18.109375 75.984375 
z
" id="DejaVuSans-98"/>
      <path d="M 44.28125 53.078125 
L 44.28125 44.578125 
Q 40.484375 46.53125 36.375 47.5 
Q 32.28125 48.484375 27.875 48.484375 
Q 21.1875 48.484375 17.84375 46.4375 
Q 14.5 44.390625 14.5 40.28125 
Q 14.5 37.15625 16.890625 35.375 
Q 19.28125 33.59375 26.515625 31.984375 
L 29.59375 31.296875 
Q 39.15625 29.25 43.1875 25.515625 
Q 47.21875 21.78125 47.21875 15.09375 
Q 47.21875 7.46875 41.1875 3.015625 
Q 35.15625 -1.421875 24.609375 -1.421875 
Q 20.21875 -1.421875 15.453125 -0.5625 
Q 10.6875 0.296875 5.421875 2 
L 5.421875 11.28125 
Q 10.40625 8.6875 15.234375 7.390625 
Q 20.0625 6.109375 24.8125 6.109375 
Q 31.15625 6.109375 34.5625 8.28125 
Q 37.984375 10.453125 37.984375 14.40625 
Q 37.984375 18.0625 35.515625 20.015625 
Q 33.0625 21.96875 24.703125 23.78125 
L 21.578125 24.515625 
Q 13.234375 26.265625 9.515625 29.90625 
Q 5.8125 33.546875 5.8125 39.890625 
Q 5.8125 47.609375 11.28125 51.796875 
Q 16.75 56 26.8125 56 
Q 31.78125 56 36.171875 55.265625 
Q 40.578125 54.546875 44.28125 53.078125 
z
" id="DejaVuSans-115"/>
      <path d="M 8.015625 75.875 
L 15.828125 75.875 
Q 23.140625 64.359375 26.78125 53.3125 
Q 30.421875 42.28125 30.421875 31.390625 
Q 30.421875 20.453125 26.78125 9.375 
Q 23.140625 -1.703125 15.828125 -13.1875 
L 8.015625 -13.1875 
Q 14.5 -2 17.703125 9.0625 
Q 20.90625 20.125 20.90625 31.390625 
Q 20.90625 42.671875 17.703125 53.65625 
Q 14.5 64.65625 8.015625 75.875 
z
" id="DejaVuSans-41"/>
     </defs>
     <g transform="translate(61.017187 134.375781)rotate(-90)scale(0.1 -0.1)">
      <use xlink:href="#DejaVuSans-105"/>
      <use x="27.783203" xlink:href="#DejaVuSans-110"/>
      <use x="91.162109" xlink:href="#DejaVuSans-102"/>
      <use x="126.367188" xlink:href="#DejaVuSans-111"/>
      <use x="187.548828" xlink:href="#DejaVuSans-114"/>
      <use x="226.912109" xlink:href="#DejaVuSans-109"/>
      <use x="324.324219" xlink:href="#DejaVuSans-97"/>
      <use x="385.603516" xlink:href="#DejaVuSans-116"/>
      <use x="424.8125" xlink:href="#DejaVuSans-105"/>
      <use x="452.595703" xlink:href="#DejaVuSans-111"/>
      <use x="513.777344" xlink:href="#DejaVuSans-110"/>
      <use x="577.15625" xlink:href="#DejaVuSans-32"/>
      <use x="608.943359" xlink:href="#DejaVuSans-40"/>
      <use x="647.957031" xlink:href="#DejaVuSans-98"/>
      <use x="711.433594" xlink:href="#DejaVuSans-105"/>
      <use x="739.216797" xlink:href="#DejaVuSans-116"/>
      <use x="778.425781" xlink:href="#DejaVuSans-115"/>
      <use x="830.525391" xlink:href="#DejaVuSans-41"/>
     </g>
    </g>
   </g>
   <g id="patch_31">
    <path d="M 90 160.2 
L 90 21.6 
" style="fill:none;stroke:#000000;stroke-linecap:square;stroke-linejoin:miter;stroke-width:0.8;"/>
   </g>
   <g id="patch_32">
    <path d="M 648 160.2 
L 648 21.6 
" style="fill:none;stroke:#000000;stroke-linecap:square;stroke-linejoin:miter;stroke-width:0.8;"/>
   </g>
   <g id="patch_33">
    <path d="M 90 160.2 
L 648 160.2 
" style="fill:none;stroke:#000000;stroke-linecap:square;stroke-linejoin:miter;stroke-width:0.8;"/>
   </g>
   <g id="patch_34">
    <path d="M 90 21.6 
L 648 21.6 
" style="fill:none;stroke:#000000;stroke-linecap:square;stroke-linejoin:miter;stroke-width:0.8;"/>
   </g>
  </g>
 </g>
 <defs>
  <clipPath id="p2c3d244964">
   <rect height="138.6" width="558" x="90" y="21.6"/>
  </clipPath>
 </defs>
</svg>
