<svg class="bob" font-family="arial" font-size="14" height="128" width="968" xmlns="http://www.w3.org/2000/svg">
<defs>
<marker id="triangle" markerHeight="8" markerWidth="8" orient="auto" refX="4" refY="2" viewBox="0 0 8 4">
<polygon class="fg_fill" points="0,0 0,4 8,2 0,0"/>
</marker>
<marker id="clear_triangle" markerHeight="10" markerWidth="10" orient="auto" refX="1" refY="7" viewBox="0 0 20 14">
<polygon class="bg_fill" points="2,2 2,12 18,7 2,2"/>
</marker>
<marker id="circle" markerHeight="5" markerWidth="5" orient="auto" refX="10" refY="10" viewBox="0 0 20 20">
<circle class="fg_fill" cx="10" cy="10" r="8"/>
</marker>
<marker id="square" markerHeight="5" markerWidth="5" orient="auto" refX="10" refY="10" viewBox="0 0 20 20">
<rect class="fg_fill" height="20" width="20" x="0" y="0"/>
</marker>
<marker id="open_circle" markerHeight="10" markerWidth="10" orient="auto" refX="10" refY="10" viewBox="0 0 20 20">
<circle class="bg_fill" cx="10" cy="10" r="4"/>
</marker>
<marker id="big_open_circle" markerHeight="20" markerWidth="20" orient="auto" refX="20" refY="20" viewBox="0 0 40 40">
<circle class="bg_fill" cx="20" cy="20" r="6"/>
</marker>
</defs>
<style type="text/css">

rect.backdrop {
    fill: white;
}
text{
    fill: black;
}

circle {
    fill: none;
    stroke: black;
    stroke-width: 2;
}

line {
    stroke: black;
    stroke-width: 2;
    stroke-opacity: 1;
    fill-opacity: 1;
    stroke-linecap: round;
    stroke-linejoin: miter;
}

path {
    fill: none;
    stroke: black;
    stroke-width: 2;
    stroke-opacity: 1;
    fill-opacity: 1;
    stroke-linecap: round;
    stroke-linejoin: miter;
}

line.dashed {
    stroke-dasharray: 5;
}

.fg_fill {
    fill: black;
}


.bg_fill {
    fill: white;
    stroke: black;
    stroke-width: 2;
}

tspan.head{
    fill: none;
    stroke: none;
}
    
</style>
<rect class="backdrop" height="128" width="968" x="0" y="0"/>
<g>
<line x1="20" x2="20" y1="0" y2="16"/>
</g>
<g>
<line x1="24" x2="20" y1="8" y2="8"/>
<line class="dashed" x1="24" x2="272" y1="8" y2="8"/>
</g>
<g>
<line marker-end="url(#triangle)" x1="88" x2="100" y1="72" y2="72"/>
</g>
<g>
<line marker-end="url(#triangle)" x1="128" x2="140" y1="72" y2="72"/>
</g>
<g>
<line marker-end="url(#triangle)" x1="168" x2="180" y1="72" y2="72"/>
</g>
<g>
<line x1="188" x2="188" y1="44" y2="64"/>
<path d="M 192 40 A 4 4 0 0 0 188 44"/>
</g>
<g>
<line x1="192" x2="528" y1="40" y2="40"/>
<path d="M 532 44 A 4 4 0 0 0 528 40"/>
</g>
<g>
<line x1="192" x2="528" y1="88" y2="88"/>
<path d="M 188 84 A 4 4 0 0 0 192 88"/>
<path d="M 528 88 A 4 4 0 0 0 532 84"/>
</g>
<g>
<line marker-end="url(#triangle)" x1="208" x2="220" y1="72" y2="72"/>
</g>
<g>
<line marker-end="url(#triangle)" x1="248" x2="260" y1="72" y2="72"/>
</g>
<g>
<line marker-end="url(#triangle)" x1="288" x2="300" y1="72" y2="72"/>
</g>
<g>
<line marker-end="url(#triangle)" x1="328" x2="340" y1="72" y2="72"/>
</g>
<g>
<line marker-end="url(#triangle)" x1="368" x2="380" y1="72" y2="72"/>
</g>
<g>
<line marker-end="url(#triangle)" x1="408" x2="420" y1="72" y2="72"/>
</g>
<g>
<line marker-end="url(#triangle)" x1="448" x2="460" y1="72" y2="72"/>
</g>
<g>
<line marker-end="url(#triangle)" x1="488" x2="500" y1="72" y2="72"/>
</g>
<g>
<line marker-end="url(#triangle)" x1="528" x2="540" y1="72" y2="72"/>
</g>
<g>
<line x1="532" x2="532" y1="44" y2="64"/>
</g>
<g>
<line marker-end="url(#triangle)" x1="568" x2="580" y1="72" y2="72"/>
</g>
<g>
<line marker-end="url(#triangle)" x1="608" x2="620" y1="72" y2="72"/>
</g>
<g>
<line x1="676" x2="676" y1="0" y2="16"/>
</g>
<g>
<line x1="676" x2="672" y1="8" y2="8"/>
<line x1="680" x2="676" y1="8" y2="8"/>
<line class="dashed" x1="392" x2="672" y1="8" y2="8"/>
<line class="dashed" x1="680" x2="800" y1="8" y2="8"/>
</g>
<g>
<line marker-end="url(#triangle)" x1="744" x2="756" y1="72" y2="72"/>
</g>
<g>
<line marker-end="url(#triangle)" x1="784" x2="796" y1="72" y2="72"/>
</g>
<g>
<line marker-end="url(#triangle)" x1="824" x2="836" y1="72" y2="72"/>
</g>
<g>
<line marker-end="url(#triangle)" x1="864" x2="876" y1="72" y2="72"/>
</g>
<g>
<line x1="940" x2="940" y1="0" y2="16"/>
</g>
<g>
<line x1="940" x2="936" y1="8" y2="8"/>
<line class="dashed" x1="848" x2="936" y1="8" y2="8"/>
</g>
<g>
<text x="1" y="76">
5&#39;
</text>
</g>
<g>
<text x="1" y="124">
Transcription factor binding to a transcription factor binding site.
</text>
</g>
<g>
<text x="25" y="76">
.
</text>
</g>
<g>
<text x="41" y="76">
.
</text>
</g>
<g>
<text x="57" y="76">
.
</text>
</g>
<g>
<text x="73" y="76">
A
</text>
</g>
<g>
<text x="113" y="76">
A
</text>
</g>
<g>
<text x="153" y="76">
A
</text>
</g>
<g>
<text x="193" y="76">
A
</text>
</g>
<g>
<text x="233" y="76">
T
</text>
</g>
<g>
<text x="273" y="60">
transcription
</text>
</g>
<g>
<text x="273" y="76">
T
</text>
</g>
<g>
<text x="281" y="12">
gene
</text>
</g>
<g>
<text x="313" y="76">
G
</text>
</g>
<g>
<text x="321" y="12">
upstream
</text>
</g>
<g>
<text x="353" y="76">
C
</text>
</g>
<g>
<text x="385" y="60">
factor
</text>
</g>
<g>
<text x="393" y="76">
C
</text>
</g>
<g>
<text x="433" y="76">
C
</text>
</g>
<g>
<text x="473" y="76">
T
</text>
</g>
<g>
<text x="513" y="76">
A
</text>
</g>
<g>
<text x="553" y="76">
A
</text>
</g>
<g>
<text x="593" y="76">
C
</text>
</g>
<g>
<text x="633" y="76">
.
</text>
</g>
<g>
<text x="649" y="76">
.
</text>
</g>
<g>
<text x="665" y="76">
.
</text>
</g>
<g>
<text x="681" y="76">
.
</text>
</g>
<g>
<text x="697" y="76">
.
</text>
</g>
<g>
<text x="713" y="76">
.
</text>
</g>
<g>
<text x="729" y="76">
A
</text>
</g>
<g>
<text x="769" y="76">
C
</text>
</g>
<g>
<text x="809" y="12">
gene
</text>
</g>
<g>
<text x="809" y="76">
G
</text>
</g>
<g>
<text x="849" y="76">
G
</text>
</g>
<g>
<text x="889" y="76">
C
</text>
</g>
<g>
<text x="905" y="76">
.
</text>
</g>
<g>
<text x="921" y="76">
.
</text>
</g>
<g>
<text x="937" y="76">
.
</text>
</g>
<g>
<text x="953" y="76">
3&#39;
</text>
</g>
</svg>
