<svg class="bob" font-family="arial" font-size="14" height="208" width="408" xmlns="http://www.w3.org/2000/svg">
<defs>
<marker id="triangle" markerHeight="8" markerWidth="8" orient="auto" refX="4" refY="2" viewBox="0 0 8 4">
<polygon class="fg_fill" points="0,0 0,4 8,2 0,0"/>
</marker>
<marker id="clear_triangle" markerHeight="10" markerWidth="10" orient="auto" refX="1" refY="7" viewBox="0 0 20 14">
<polygon class="bg_fill" points="2,2 2,12 18,7 2,2"/>
</marker>
<marker id="circle" markerHeight="5" markerWidth="5" orient="auto" refX="10" refY="10" viewBox="0 0 20 20">
<circle class="fg_fill" cx="10" cy="10" r="8"/>
</marker>
<marker id="square" markerHeight="5" markerWidth="5" orient="auto" refX="10" refY="10" viewBox="0 0 20 20">
<rect class="fg_fill" height="20" width="20" x="0" y="0"/>
</marker>
<marker id="open_circle" markerHeight="10" markerWidth="10" orient="auto" refX="10" refY="10" viewBox="0 0 20 20">
<circle class="bg_fill" cx="10" cy="10" r="4"/>
</marker>
<marker id="big_open_circle" markerHeight="20" markerWidth="20" orient="auto" refX="20" refY="20" viewBox="0 0 40 40">
<circle class="bg_fill" cx="20" cy="20" r="6"/>
</marker>
</defs>
<style type="text/css">

rect.backdrop {
    fill: white;
}
text{
    fill: black;
}

circle {
    fill: none;
    stroke: black;
    stroke-width: 2;
}

line {
    stroke: black;
    stroke-width: 2;
    stroke-opacity: 1;
    fill-opacity: 1;
    stroke-linecap: round;
    stroke-linejoin: miter;
}

path {
    fill: none;
    stroke: black;
    stroke-width: 2;
    stroke-opacity: 1;
    fill-opacity: 1;
    stroke-linecap: round;
    stroke-linejoin: miter;
}

line.dashed {
    stroke-dasharray: 5;
}

.fg_fill {
    fill: black;
}


.bg_fill {
    fill: white;
    stroke: black;
    stroke-width: 2;
}

tspan.head{
    fill: none;
    stroke: none;
}
    
</style>
<rect class="backdrop" height="208" width="408" x="0" y="0"/>
<g>
<line marker-end="url(#triangle)" x1="12" x2="12" y1="24" y2="76"/>
<line x1="12" x2="404" y1="24" y2="24"/>
<line x1="404" x2="404" y1="24" y2="72"/>
</g>
<g>
<line marker-end="url(#triangle)" x1="12" x2="12" y1="144" y2="132"/>
<line x1="12" x2="12" y1="144" y2="184"/>
<line x1="12" x2="404" y1="184" y2="184"/>
<line x1="404" x2="404" y1="136" y2="184"/>
</g>
<g>
<line x1="32" x2="44" y1="112" y2="136"/>
<line marker-end="url(#triangle)" x1="44" x2="108" y1="136" y2="136"/>
</g>
<g>
<line x1="44" x2="32" y1="72" y2="96"/>
<line marker-end="url(#triangle)" x1="44" x2="108" y1="72" y2="72"/>
</g>
<g>
<line marker-end="url(#triangle)" x1="152" x2="220" y1="72" y2="72"/>
</g>
<g>
<line marker-end="url(#triangle)" x1="152" x2="220" y1="136" y2="136"/>
</g>
<g>
<line marker-end="url(#triangle)" x1="264" x2="332" y1="72" y2="72"/>
</g>
<g>
<line marker-end="url(#triangle)" x1="264" x2="332" y1="136" y2="136"/>
</g>
<g>
<line x1="376" x2="404" y1="72" y2="72"/>
</g>
<g>
<line x1="376" x2="404" y1="136" y2="136"/>
</g>
<g>
<text x="1" y="108">
TTA
</text>
</g>
<g>
<text x="57" y="60">
TTAG
</text>
</g>
<g>
<text x="57" y="156">
TTAC
</text>
</g>
<g>
<text x="121" y="76">
TAG
</text>
</g>
<g>
<text x="121" y="140">
TAC
</text>
</g>
<g>
<text x="169" y="60">
TAGT
</text>
</g>
<g>
<text x="169" y="156">
TACT
</text>
</g>
<g>
<text x="185" y="12">
GTTA
</text>
</g>
<g>
<text x="185" y="204">
CTTA
</text>
</g>
<g>
<text x="233" y="76">
AGT
</text>
</g>
<g>
<text x="233" y="140">
ACT
</text>
</g>
<g>
<text x="281" y="60">
AGTG
</text>
</g>
<g>
<text x="281" y="156">
ACTT
</text>
</g>
<g>
<text x="345" y="76">
GTT
</text>
</g>
<g>
<text x="345" y="140">
CTT
</text>
</g>
</svg>
