<svg class="bob" font-family="arial" font-size="14" height="400" width="560" xmlns="http://www.w3.org/2000/svg">
<defs>
<marker id="triangle" markerHeight="8" markerWidth="8" orient="auto" refX="4" refY="2" viewBox="0 0 8 4">
<polygon class="fg_fill" points="0,0 0,4 8,2 0,0"/>
</marker>
<marker id="clear_triangle" markerHeight="10" markerWidth="10" orient="auto" refX="1" refY="7" viewBox="0 0 20 14">
<polygon class="bg_fill" points="2,2 2,12 18,7 2,2"/>
</marker>
<marker id="circle" markerHeight="5" markerWidth="5" orient="auto" refX="10" refY="10" viewBox="0 0 20 20">
<circle class="fg_fill" cx="10" cy="10" r="8"/>
</marker>
<marker id="square" markerHeight="5" markerWidth="5" orient="auto" refX="10" refY="10" viewBox="0 0 20 20">
<rect class="fg_fill" height="20" width="20" x="0" y="0"/>
</marker>
<marker id="open_circle" markerHeight="10" markerWidth="10" orient="auto" refX="10" refY="10" viewBox="0 0 20 20">
<circle class="bg_fill" cx="10" cy="10" r="4"/>
</marker>
<marker id="big_open_circle" markerHeight="20" markerWidth="20" orient="auto" refX="20" refY="20" viewBox="0 0 40 40">
<circle class="bg_fill" cx="20" cy="20" r="6"/>
</marker>
</defs>
<style type="text/css">

rect.backdrop {
    fill: white;
}
text{
    fill: black;
}

circle {
    fill: none;
    stroke: black;
    stroke-width: 2;
}

line {
    stroke: black;
    stroke-width: 2;
    stroke-opacity: 1;
    fill-opacity: 1;
    stroke-linecap: round;
    stroke-linejoin: miter;
}

path {
    fill: none;
    stroke: black;
    stroke-width: 2;
    stroke-opacity: 1;
    fill-opacity: 1;
    stroke-linecap: round;
    stroke-linejoin: miter;
}

line.dashed {
    stroke-dasharray: 5;
}

.fg_fill {
    fill: black;
}


.bg_fill {
    fill: white;
    stroke: black;
    stroke-width: 2;
}

tspan.head{
    fill: none;
    stroke: none;
}
    
</style>
<rect class="backdrop" height="400" width="560" x="0" y="0"/>
<g>
<line marker-end="url(#triangle)" x1="28" x2="28" y1="284" y2="316"/>
<path d="M 32 280 A 4 4 0 0 0 28 284"/>
</g>
<g>
<line x1="28" x2="28" y1="320" y2="356"/>
<path d="M 28 356 A 4 4 0 0 0 32 360"/>
</g>
<g>
<line x1="32" x2="56" y1="280" y2="280"/>
</g>
<g>
<line marker-end="url(#triangle)" x1="32" x2="44" y1="360" y2="360"/>
<line marker-start="url(#triangle)" x1="40" x2="44" y1="360" y2="360"/>
</g>
<g>
<line x1="48" x2="72" y1="360" y2="360"/>
</g>
<g>
<line marker-start="url(#triangle)" x1="64" x2="60" y1="280" y2="280"/>
<line marker-end="url(#triangle)" x1="64" x2="60" y1="280" y2="280"/>
<line x1="64" x2="72" y1="280" y2="280"/>
</g>
<g>
<line marker-end="url(#triangle)" x1="120" x2="132" y1="248" y2="248"/>
<line marker-start="url(#triangle)" x1="128" x2="132" y1="248" y2="248"/>
</g>
<g>
<line x1="120" x2="144" y1="392" y2="392"/>
</g>
<g>
<line marker-end="url(#triangle)" x1="136" x2="180" y1="248" y2="248"/>
<line marker-start="url(#triangle)" x1="176" x2="180" y1="248" y2="248"/>
</g>
<g>
<line marker-start="url(#triangle)" x1="152" x2="148" y1="392" y2="392"/>
<line marker-end="url(#triangle)" x1="152" x2="148" y1="392" y2="392"/>
<line x1="152" x2="176" y1="392" y2="392"/>
</g>
<g>
<line x1="172" x2="172" y1="28" y2="164"/>
<path d="M 172 164 A 4 4 0 0 0 176 168"/>
<path d="M 176 24 A 4 4 0 0 0 172 28"/>
</g>
<g>
<line x1="176" x2="256" y1="24" y2="24"/>
</g>
<g>
<line x1="176" x2="256" y1="168" y2="168"/>
</g>
<g>
<line x1="184" x2="192" y1="56" y2="56"/>
</g>
<g>
<line x1="184" x2="192" y1="72" y2="72"/>
</g>
<g>
<line x1="184" x2="192" y1="88" y2="88"/>
</g>
<g>
<line x1="184" x2="192" y1="104" y2="104"/>
</g>
<g>
<line x1="184" x2="192" y1="120" y2="120"/>
</g>
<g>
<line x1="184" x2="192" y1="136" y2="136"/>
</g>
<g>
<line x1="184" x2="200" y1="248" y2="248"/>
<path d="M 204 252 A 4 4 0 0 0 200 248"/>
</g>
<g>
<line marker-start="url(#triangle)" x1="184" x2="180" y1="392" y2="392"/>
<line marker-end="url(#triangle)" x1="184" x2="180" y1="392" y2="392"/>
<line x1="184" x2="200" y1="392" y2="392"/>
<path d="M 200 392 A 4 4 0 0 0 204 388"/>
</g>
<g>
<line x1="204" x2="204" y1="32" y2="48"/>
</g>
<g>
<line x1="204" x2="204" y1="64" y2="128"/>
</g>
<g>
<line x1="204" x2="204" y1="144" y2="160"/>
</g>
<g>
<line marker-end="url(#triangle)" x1="204" x2="204" y1="252" y2="284"/>
</g>
<g>
<line marker-end="url(#triangle)" x1="204" x2="204" y1="288" y2="316"/>
</g>
<g>
<line marker-end="url(#triangle)" x1="204" x2="204" y1="320" y2="348"/>
</g>
<g>
<line x1="204" x2="204" y1="352" y2="388"/>
</g>
<g>
<line x1="208" x2="256" y1="56" y2="56"/>
</g>
<g>
<line x1="208" x2="256" y1="136" y2="136"/>
</g>
<g>
<line x1="220" x2="220" y1="32" y2="48"/>
</g>
<g>
<line x1="220" x2="220" y1="144" y2="160"/>
</g>
<g>
<line x1="236" x2="236" y1="32" y2="48"/>
</g>
<g>
<line x1="236" x2="236" y1="144" y2="160"/>
</g>
<g>
<line x1="252" x2="252" y1="32" y2="48"/>
</g>
<g>
<line x1="252" x2="252" y1="144" y2="160"/>
</g>
<g>
<line marker-end="url(#triangle)" x1="256" x2="292" y1="8" y2="8"/>
</g>
<g>
<line marker-end="url(#triangle)" x1="264" x2="260" y1="72" y2="72"/>
<line x1="264" x2="296" y1="72" y2="72"/>
</g>
<g>
<line x1="268" x2="268" y1="32" y2="48"/>
</g>
<g>
<line x1="268" x2="268" y1="144" y2="160"/>
</g>
<g>
<line x1="284" x2="284" y1="32" y2="48"/>
</g>
<g>
<line x1="284" x2="284" y1="144" y2="160"/>
</g>
<g>
<line x1="296" x2="376" y1="24" y2="24"/>
<path d="M 380 28 A 4 4 0 0 0 376 24"/>
</g>
<g>
<line x1="296" x2="344" y1="56" y2="56"/>
</g>
<g>
<line x1="296" x2="344" y1="136" y2="136"/>
</g>
<g>
<line x1="296" x2="376" y1="168" y2="168"/>
<path d="M 376 168 A 4 4 0 0 0 380 164"/>
</g>
<g>
<line x1="300" x2="300" y1="32" y2="48"/>
</g>
<g>
<line x1="300" x2="300" y1="144" y2="160"/>
</g>
<g>
<line x1="316" x2="316" y1="32" y2="48"/>
</g>
<g>
<line x1="316" x2="316" y1="144" y2="160"/>
</g>
<g>
<line x1="332" x2="332" y1="32" y2="48"/>
</g>
<g>
<line x1="332" x2="332" y1="144" y2="160"/>
</g>
<g>
<line x1="348" x2="348" y1="32" y2="48"/>
</g>
<g>
<line x1="348" x2="348" y1="64" y2="128"/>
</g>
<g>
<line x1="348" x2="348" y1="144" y2="160"/>
</g>
<g>
<line x1="360" x2="368" y1="56" y2="56"/>
</g>
<g>
<line x1="360" x2="368" y1="72" y2="72"/>
</g>
<g>
<line x1="360" x2="368" y1="88" y2="88"/>
</g>
<g>
<line x1="360" x2="368" y1="104" y2="104"/>
</g>
<g>
<line x1="360" x2="368" y1="120" y2="120"/>
</g>
<g>
<line x1="360" x2="368" y1="136" y2="136"/>
</g>
<g>
<line x1="364" x2="364" y1="252" y2="272"/>
<path d="M 368 248 A 4 4 0 0 0 364 252"/>
</g>
<g>
<line marker-end="url(#triangle)" x1="364" x2="364" y1="288" y2="276"/>
<line x1="364" x2="364" y1="288" y2="304"/>
</g>
<g>
<line marker-end="url(#triangle)" x1="364" x2="364" y1="320" y2="308"/>
<line x1="364" x2="364" y1="320" y2="336"/>
</g>
<g>
<line marker-end="url(#triangle)" x1="364" x2="364" y1="352" y2="340"/>
<line x1="364" x2="364" y1="352" y2="388"/>
<path d="M 364 388 A 4 4 0 0 0 368 392"/>
</g>
<g>
<line marker-end="url(#triangle)" x1="368" x2="388" y1="248" y2="248"/>
<line marker-start="url(#triangle)" x1="384" x2="388" y1="248" y2="248"/>
</g>
<g>
<line x1="368" x2="384" y1="392" y2="392"/>
</g>
<g>
<line x1="380" x2="380" y1="28" y2="164"/>
</g>
<g>
<line marker-end="url(#triangle)" x1="392" x2="420" y1="248" y2="248"/>
<line marker-start="url(#triangle)" x1="416" x2="420" y1="248" y2="248"/>
</g>
<g>
<line marker-start="url(#triangle)" x1="392" x2="388" y1="392" y2="392"/>
<line marker-end="url(#triangle)" x1="392" x2="388" y1="392" y2="392"/>
<line x1="392" x2="416" y1="392" y2="392"/>
</g>
<g>
<line x1="424" x2="448" y1="248" y2="248"/>
</g>
<g>
<line marker-start="url(#triangle)" x1="424" x2="420" y1="392" y2="392"/>
<line marker-end="url(#triangle)" x1="424" x2="420" y1="392" y2="392"/>
<line x1="424" x2="448" y1="392" y2="392"/>
</g>
<g>
<line x1="488" x2="512" y1="280" y2="280"/>
</g>
<g>
<line marker-end="url(#triangle)" x1="488" x2="516" y1="360" y2="360"/>
<line marker-start="url(#triangle)" x1="512" x2="516" y1="360" y2="360"/>
</g>
<g>
<line marker-start="url(#triangle)" x1="520" x2="516" y1="280" y2="280"/>
<line marker-end="url(#triangle)" x1="520" x2="516" y1="280" y2="280"/>
<line x1="520" x2="536" y1="280" y2="280"/>
<path d="M 540 284 A 4 4 0 0 0 536 280"/>
</g>
<g>
<line x1="520" x2="536" y1="360" y2="360"/>
<path d="M 536 360 A 4 4 0 0 0 540 356"/>
</g>
<g>
<line x1="540" x2="540" y1="284" y2="320"/>
</g>
<g>
<line marker-end="url(#triangle)" x1="540" x2="540" y1="336" y2="324"/>
<line x1="540" x2="540" y1="336" y2="356"/>
</g>
<g>
<text x="41" y="220">
forward
</text>
</g>
<g>
<text x="89" y="252">
ori
</text>
</g>
<g>
<text x="89" y="284">
ori
</text>
</g>
<g>
<text x="89" y="364">
ter
</text>
</g>
<g>
<text x="89" y="396">
ter
</text>
</g>
<g>
<text x="105" y="220">
half-strands
</text>
</g>
<g>
<text x="233" y="12">
5&#39;
</text>
</g>
<g>
<text x="233" y="76">
3&#39;
</text>
</g>
<g>
<text x="265" y="28">
ori
</text>
</g>
<g>
<text x="265" y="60">
ori
</text>
</g>
<g>
<text x="265" y="140">
ter
</text>
</g>
<g>
<text x="265" y="172">
ter
</text>
</g>
<g>
<text x="305" y="12">
3&#39;
</text>
</g>
<g>
<text x="305" y="76">
5&#39;
</text>
</g>
<g>
<text x="377" y="220">
reverse
</text>
</g>
<g>
<text x="441" y="220">
half-strands
</text>
</g>
<g>
<text x="457" y="252">
ori
</text>
</g>
<g>
<text x="457" y="284">
ori
</text>
</g>
<g>
<text x="457" y="364">
ter
</text>
</g>
<g>
<text x="457" y="396">
ter
</text>
</g>
</svg>
