<svg class="bob" font-family="arial" font-size="14" height="112" width="712" xmlns="http://www.w3.org/2000/svg">
<defs>
<marker id="triangle" markerHeight="8" markerWidth="8" orient="auto" refX="4" refY="2" viewBox="0 0 8 4">
<polygon class="fg_fill" points="0,0 0,4 8,2 0,0"/>
</marker>
<marker id="clear_triangle" markerHeight="10" markerWidth="10" orient="auto" refX="1" refY="7" viewBox="0 0 20 14">
<polygon class="bg_fill" points="2,2 2,12 18,7 2,2"/>
</marker>
<marker id="circle" markerHeight="5" markerWidth="5" orient="auto" refX="10" refY="10" viewBox="0 0 20 20">
<circle class="fg_fill" cx="10" cy="10" r="8"/>
</marker>
<marker id="square" markerHeight="5" markerWidth="5" orient="auto" refX="10" refY="10" viewBox="0 0 20 20">
<rect class="fg_fill" height="20" width="20" x="0" y="0"/>
</marker>
<marker id="open_circle" markerHeight="10" markerWidth="10" orient="auto" refX="10" refY="10" viewBox="0 0 20 20">
<circle class="bg_fill" cx="10" cy="10" r="4"/>
</marker>
<marker id="big_open_circle" markerHeight="20" markerWidth="20" orient="auto" refX="20" refY="20" viewBox="0 0 40 40">
<circle class="bg_fill" cx="20" cy="20" r="6"/>
</marker>
</defs>
<style type="text/css">

rect.backdrop {
    fill: white;
}
text{
    fill: black;
}

circle {
    fill: none;
    stroke: black;
    stroke-width: 2;
}

line {
    stroke: black;
    stroke-width: 2;
    stroke-opacity: 1;
    fill-opacity: 1;
    stroke-linecap: round;
    stroke-linejoin: miter;
}

path {
    fill: none;
    stroke: black;
    stroke-width: 2;
    stroke-opacity: 1;
    fill-opacity: 1;
    stroke-linecap: round;
    stroke-linejoin: miter;
}

line.dashed {
    stroke-dasharray: 5;
}

.fg_fill {
    fill: black;
}


.bg_fill {
    fill: white;
    stroke: black;
    stroke-width: 2;
}

tspan.head{
    fill: none;
    stroke: none;
}
    
</style>
<rect class="backdrop" height="112" width="712" x="0" y="0"/>
<g>
<line marker-end="url(#triangle)" x1="16" x2="36" y1="40" y2="40"/>
</g>
<g>
<line marker-end="url(#triangle)" x1="16" x2="36" y1="104" y2="104"/>
</g>
<g>
<line marker-end="url(#triangle)" x1="64" x2="84" y1="40" y2="40"/>
</g>
<g>
<line marker-end="url(#triangle)" x1="64" x2="84" y1="104" y2="104"/>
</g>
<g>
<line x1="112" x2="128" y1="40" y2="40"/>
<path d="M 132 44 A 4 4 0 0 0 128 40"/>
</g>
<g>
<line x1="112" x2="128" y1="104" y2="104"/>
<path d="M 128 104 A 4 4 0 0 0 132 100"/>
</g>
<g>
<line x1="132" x2="132" y1="44" y2="72"/>
<line x1="132" x2="132" y1="72" y2="100"/>
<line marker-end="url(#triangle)" x1="132" x2="156" y1="72" y2="72"/>
</g>
<g>
<line x1="240" x2="260" y1="72" y2="72"/>
<line x1="260" x2="260" y1="44" y2="72"/>
<line x1="260" x2="260" y1="72" y2="100"/>
<path d="M 260 100 A 4 4 0 0 0 264 104"/>
<path d="M 264 40 A 4 4 0 0 0 260 44"/>
</g>
<g>
<line marker-end="url(#triangle)" x1="264" x2="284" y1="40" y2="40"/>
</g>
<g>
<line marker-end="url(#triangle)" x1="264" x2="284" y1="104" y2="104"/>
</g>
<g>
<line marker-end="url(#triangle)" x1="312" x2="332" y1="40" y2="40"/>
</g>
<g>
<line marker-end="url(#triangle)" x1="312" x2="332" y1="104" y2="104"/>
</g>
<g>
<line marker-end="url(#triangle)" x1="360" x2="380" y1="40" y2="40"/>
</g>
<g>
<line marker-end="url(#triangle)" x1="360" x2="380" y1="104" y2="104"/>
</g>
<g>
<line x1="472" x2="492" y1="72" y2="72"/>
<line x1="492" x2="492" y1="44" y2="72"/>
<line x1="492" x2="492" y1="72" y2="100"/>
<path d="M 492 100 A 4 4 0 0 0 496 104"/>
<path d="M 496 40 A 4 4 0 0 0 492 44"/>
</g>
<g>
<line marker-end="url(#triangle)" x1="496" x2="516" y1="40" y2="40"/>
</g>
<g>
<line marker-end="url(#triangle)" x1="496" x2="516" y1="104" y2="104"/>
</g>
<g>
<line marker-end="url(#triangle)" x1="544" x2="564" y1="40" y2="40"/>
</g>
<g>
<line marker-end="url(#triangle)" x1="544" x2="564" y1="104" y2="104"/>
</g>
<g>
<line marker-end="url(#triangle)" x1="592" x2="612" y1="40" y2="40"/>
</g>
<g>
<line marker-end="url(#triangle)" x1="592" x2="612" y1="104" y2="104"/>
</g>
<g>
<line x1="632" x2="648" y1="104" y2="104"/>
<path d="M 648 104 A 4 4 0 0 0 652 100"/>
</g>
<g>
<line x1="640" x2="656" y1="40" y2="40"/>
<path d="M 660 44 A 4 4 0 0 0 656 40"/>
</g>
<g>
<line x1="660" x2="660" y1="44" y2="72"/>
<line x1="660" x2="660" y1="72" y2="96"/>
<line marker-end="url(#triangle)" x1="660" x2="684" y1="72" y2="72"/>
</g>
<g>
<text x="1" y="44">
x
</text>
</g>
<g>
<text x="1" y="108">
x
</text>
</g>
<g>
<text x="33" y="12">
Forked prefix
</text>
</g>
<g>
<text x="49" y="44">
x
</text>
</g>
<g>
<text x="49" y="108">
x
</text>
</g>
<g>
<text x="97" y="44">
x
</text>
</g>
<g>
<text x="97" y="108">
x
</text>
</g>
<g>
<text x="169" y="76">
x
</text>
</g>
<g>
<text x="225" y="76">
x
</text>
</g>
<g>
<text x="297" y="44">
x
</text>
</g>
<g>
<text x="297" y="108">
x
</text>
</g>
<g>
<text x="305" y="12">
Forked suffix
</text>
</g>
<g>
<text x="345" y="44">
x
</text>
</g>
<g>
<text x="345" y="108">
x
</text>
</g>
<g>
<text x="393" y="44">
x
</text>
</g>
<g>
<text x="393" y="108">
x
</text>
</g>
<g>
<text x="457" y="76">
x
</text>
</g>
<g>
<text x="529" y="44">
x
</text>
</g>
<g>
<text x="529" y="108">
x
</text>
</g>
<g>
<text x="553" y="12">
Bubble
</text>
</g>
<g>
<text x="577" y="44">
x
</text>
</g>
<g>
<text x="577" y="108">
x
</text>
</g>
<g>
<text x="625" y="44">
x
</text>
</g>
<g>
<text x="625" y="108">
x
</text>
</g>
<g>
<text x="697" y="76">
x
</text>
</g>
</svg>
