<svg class="bob" font-family="arial" font-size="14" height="480" width="808" xmlns="http://www.w3.org/2000/svg">
<defs>
<marker id="triangle" markerHeight="8" markerWidth="8" orient="auto" refX="4" refY="2" viewBox="0 0 8 4">
<polygon class="fg_fill" points="0,0 0,4 8,2 0,0"/>
</marker>
<marker id="clear_triangle" markerHeight="10" markerWidth="10" orient="auto" refX="1" refY="7" viewBox="0 0 20 14">
<polygon class="bg_fill" points="2,2 2,12 18,7 2,2"/>
</marker>
<marker id="circle" markerHeight="5" markerWidth="5" orient="auto" refX="10" refY="10" viewBox="0 0 20 20">
<circle class="fg_fill" cx="10" cy="10" r="8"/>
</marker>
<marker id="square" markerHeight="5" markerWidth="5" orient="auto" refX="10" refY="10" viewBox="0 0 20 20">
<rect class="fg_fill" height="20" width="20" x="0" y="0"/>
</marker>
<marker id="open_circle" markerHeight="10" markerWidth="10" orient="auto" refX="10" refY="10" viewBox="0 0 20 20">
<circle class="bg_fill" cx="10" cy="10" r="4"/>
</marker>
<marker id="big_open_circle" markerHeight="20" markerWidth="20" orient="auto" refX="20" refY="20" viewBox="0 0 40 40">
<circle class="bg_fill" cx="20" cy="20" r="6"/>
</marker>
</defs>
<style type="text/css">

rect.backdrop {
    fill: white;
}
text{
    fill: black;
}

circle {
    fill: none;
    stroke: black;
    stroke-width: 2;
}

line {
    stroke: black;
    stroke-width: 2;
    stroke-opacity: 1;
    fill-opacity: 1;
    stroke-linecap: round;
    stroke-linejoin: miter;
}

path {
    fill: none;
    stroke: black;
    stroke-width: 2;
    stroke-opacity: 1;
    fill-opacity: 1;
    stroke-linecap: round;
    stroke-linejoin: miter;
}

line.dashed {
    stroke-dasharray: 5;
}

.fg_fill {
    fill: black;
}


.bg_fill {
    fill: white;
    stroke: black;
    stroke-width: 2;
}

tspan.head{
    fill: none;
    stroke: none;
}
    
</style>
<rect class="backdrop" height="480" width="808" x="0" y="0"/>
<g>
<line x1="256" x2="276" y1="40" y2="40"/>
<line x1="276" x2="276" y1="40" y2="56"/>
<line marker-end="url(#triangle)" x1="276" x2="444" y1="40" y2="40"/>
<line x1="276" x2="276" y1="56" y2="72"/>
<line marker-end="url(#triangle)" x1="276" x2="444" y1="56" y2="56"/>
<line x1="276" x2="276" y1="72" y2="88"/>
<line marker-end="url(#triangle)" x1="276" x2="444" y1="72" y2="72"/>
<line x1="276" x2="276" y1="88" y2="104"/>
<line marker-end="url(#triangle)" x1="276" x2="444" y1="88" y2="88"/>
<line x1="276" x2="276" y1="104" y2="120"/>
<line marker-end="url(#triangle)" x1="276" x2="444" y1="104" y2="104"/>
<line marker-end="url(#triangle)" x1="276" x2="444" y1="120" y2="120"/>
</g>
<g>
<line x1="304" x2="324" y1="136" y2="136"/>
<line x1="324" x2="324" y1="136" y2="152"/>
<line marker-end="url(#triangle)" x1="324" x2="444" y1="136" y2="136"/>
<line x1="324" x2="324" y1="152" y2="168"/>
<line marker-end="url(#triangle)" x1="324" x2="444" y1="152" y2="152"/>
<line x1="324" x2="324" y1="168" y2="184"/>
<line marker-end="url(#triangle)" x1="324" x2="444" y1="168" y2="168"/>
<line x1="324" x2="324" y1="184" y2="200"/>
<line marker-end="url(#triangle)" x1="324" x2="444" y1="184" y2="184"/>
<line x1="324" x2="324" y1="200" y2="216"/>
<line marker-end="url(#triangle)" x1="324" x2="444" y1="200" y2="200"/>
<line marker-end="url(#triangle)" x1="324" x2="444" y1="216" y2="216"/>
</g>
<g>
<line x1="336" x2="356" y1="232" y2="232"/>
<line x1="356" x2="356" y1="232" y2="248"/>
<line marker-end="url(#triangle)" x1="356" x2="444" y1="232" y2="232"/>
<line x1="356" x2="356" y1="248" y2="264"/>
<line marker-end="url(#triangle)" x1="356" x2="444" y1="248" y2="248"/>
<line x1="356" x2="356" y1="264" y2="280"/>
<line marker-end="url(#triangle)" x1="356" x2="444" y1="264" y2="264"/>
<line x1="356" x2="356" y1="280" y2="296"/>
<line marker-end="url(#triangle)" x1="356" x2="444" y1="280" y2="280"/>
<line x1="356" x2="356" y1="296" y2="312"/>
<line marker-end="url(#triangle)" x1="356" x2="444" y1="296" y2="296"/>
<line marker-end="url(#triangle)" x1="356" x2="444" y1="312" y2="312"/>
</g>
<g>
<line x1="416" x2="428" y1="328" y2="328"/>
<line x1="428" x2="428" y1="328" y2="344"/>
<line marker-end="url(#triangle)" x1="428" x2="444" y1="328" y2="328"/>
<line x1="428" x2="428" y1="344" y2="360"/>
<line marker-end="url(#triangle)" x1="428" x2="444" y1="344" y2="344"/>
<line x1="428" x2="428" y1="360" y2="376"/>
<line marker-end="url(#triangle)" x1="428" x2="444" y1="360" y2="360"/>
<line x1="428" x2="428" y1="376" y2="392"/>
<line marker-end="url(#triangle)" x1="428" x2="444" y1="376" y2="376"/>
<line x1="428" x2="428" y1="392" y2="408"/>
<line marker-end="url(#triangle)" x1="428" x2="444" y1="392" y2="392"/>
<line marker-end="url(#triangle)" x1="428" x2="444" y1="408" y2="408"/>
</g>
<g>
<text x="1" y="44">
1:
</text>
</g>
<g>
<text x="1" y="140">
2:
</text>
</g>
<g>
<text x="1" y="236">
3:
</text>
</g>
<g>
<text x="1" y="332">
4:
</text>
</g>
<g>
<text x="1" y="428">
String:
</text>
</g>
<g>
<text x="1" y="444">
Coverage:
</text>
</g>
<g>
<text x="1" y="476">
* Coverage of &gt; means more than 9.
</text>
</g>
<g>
<text x="97" y="44">
A
</text>
</g>
<g>
<text x="97" y="428">
A
</text>
</g>
<g>
<text x="97" y="444">
1
</text>
</g>
<g>
<text x="113" y="44">
C
</text>
</g>
<g>
<text x="113" y="428">
C
</text>
</g>
<g>
<text x="113" y="444">
1
</text>
</g>
<g>
<text x="129" y="44">
T
</text>
</g>
<g>
<text x="129" y="428">
T
</text>
</g>
<g>
<text x="129" y="444">
1
</text>
</g>
<g>
<text x="145" y="44">
A
</text>
</g>
<g>
<text x="145" y="140">
A
</text>
</g>
<g>
<text x="145" y="428">
A
</text>
</g>
<g>
<text x="145" y="444">
2
</text>
</g>
<g>
<text x="161" y="12">
4 original 10-mers (left) broken up to perfectly overlapping 5-mers (right)
</text>
</g>
<g>
<text x="161" y="44">
A
</text>
</g>
<g>
<text x="161" y="140">
A
</text>
</g>
<g>
<text x="161" y="428">
A
</text>
</g>
<g>
<text x="161" y="444">
2
</text>
</g>
<g>
<text x="177" y="44">
G
</text>
</g>
<g>
<text x="177" y="140">
G
</text>
</g>
<g>
<text x="177" y="236">
G
</text>
</g>
<g>
<text x="177" y="428">
G
</text>
</g>
<g>
<text x="177" y="444">
3
</text>
</g>
<g>
<text x="193" y="44">
A
</text>
</g>
<g>
<text x="193" y="140">
A
</text>
</g>
<g>
<text x="193" y="236">
A
</text>
</g>
<g>
<text x="193" y="428">
A
</text>
</g>
<g>
<text x="193" y="444">
3
</text>
</g>
<g>
<text x="209" y="44">
A
</text>
</g>
<g>
<text x="209" y="140">
A
</text>
</g>
<g>
<text x="209" y="236">
A
</text>
</g>
<g>
<text x="209" y="428">
A
</text>
</g>
<g>
<text x="209" y="444">
3
</text>
</g>
<g>
<text x="225" y="44">
C
</text>
</g>
<g>
<text x="225" y="140">
C
</text>
</g>
<g>
<text x="225" y="236">
C
</text>
</g>
<g>
<text x="225" y="428">
C
</text>
</g>
<g>
<text x="225" y="444">
3
</text>
</g>
<g>
<text x="241" y="44">
C
</text>
</g>
<g>
<text x="241" y="140">
C
</text>
</g>
<g>
<text x="241" y="236">
C
</text>
</g>
<g>
<text x="241" y="428">
C
</text>
</g>
<g>
<text x="241" y="444">
3
</text>
</g>
<g>
<text x="257" y="140">
T
</text>
</g>
<g>
<text x="257" y="236">
T
</text>
</g>
<g>
<text x="257" y="332">
T
</text>
</g>
<g>
<text x="257" y="428">
T
</text>
</g>
<g>
<text x="257" y="444">
3
</text>
</g>
<g>
<text x="273" y="140">
A
</text>
</g>
<g>
<text x="273" y="236">
A
</text>
</g>
<g>
<text x="273" y="332">
A
</text>
</g>
<g>
<text x="273" y="428">
A
</text>
</g>
<g>
<text x="273" y="444">
3
</text>
</g>
<g>
<text x="289" y="140">
A
</text>
</g>
<g>
<text x="289" y="236">
A
</text>
</g>
<g>
<text x="289" y="332">
A
</text>
</g>
<g>
<text x="289" y="428">
A
</text>
</g>
<g>
<text x="289" y="444">
3
</text>
</g>
<g>
<text x="305" y="236">
T
</text>
</g>
<g>
<text x="305" y="332">
T
</text>
</g>
<g>
<text x="305" y="428">
T
</text>
</g>
<g>
<text x="305" y="444">
2
</text>
</g>
<g>
<text x="321" y="236">
T
</text>
</g>
<g>
<text x="321" y="332">
T
</text>
</g>
<g>
<text x="321" y="428">
T
</text>
</g>
<g>
<text x="321" y="444">
2
</text>
</g>
<g>
<text x="337" y="332">
T
</text>
</g>
<g>
<text x="337" y="428">
T
</text>
</g>
<g>
<text x="337" y="444">
1
</text>
</g>
<g>
<text x="353" y="332">
A
</text>
</g>
<g>
<text x="353" y="428">
A
</text>
</g>
<g>
<text x="353" y="444">
1
</text>
</g>
<g>
<text x="369" y="332">
G
</text>
</g>
<g>
<text x="369" y="428">
G
</text>
</g>
<g>
<text x="369" y="444">
1
</text>
</g>
<g>
<text x="385" y="332">
C
</text>
</g>
<g>
<text x="385" y="428">
C
</text>
</g>
<g>
<text x="385" y="444">
1
</text>
</g>
<g>
<text x="401" y="332">
T
</text>
</g>
<g>
<text x="401" y="428">
T
</text>
</g>
<g>
<text x="401" y="444">
1
</text>
</g>
<g>
<text x="457" y="44">
A
</text>
</g>
<g>
<text x="457" y="428">
A
</text>
</g>
<g>
<text x="457" y="444">
1
</text>
</g>
<g>
<text x="473" y="44">
C
</text>
</g>
<g>
<text x="473" y="60">
C
</text>
</g>
<g>
<text x="473" y="428">
C
</text>
</g>
<g>
<text x="473" y="444">
2
</text>
</g>
<g>
<text x="489" y="44">
T
</text>
</g>
<g>
<text x="489" y="60">
T
</text>
</g>
<g>
<text x="489" y="76">
T
</text>
</g>
<g>
<text x="489" y="428">
T
</text>
</g>
<g>
<text x="489" y="444">
3
</text>
</g>
<g>
<text x="505" y="44">
A
</text>
</g>
<g>
<text x="505" y="60">
A
</text>
</g>
<g>
<text x="505" y="76">
A
</text>
</g>
<g>
<text x="505" y="92">
A
</text>
</g>
<g>
<text x="505" y="140">
A
</text>
</g>
<g>
<text x="505" y="428">
A
</text>
</g>
<g>
<text x="505" y="444">
5
</text>
</g>
<g>
<text x="521" y="44">
A
</text>
</g>
<g>
<text x="521" y="60">
A
</text>
</g>
<g>
<text x="521" y="76">
A
</text>
</g>
<g>
<text x="521" y="92">
A
</text>
</g>
<g>
<text x="521" y="108">
A
</text>
</g>
<g>
<text x="521" y="140">
A
</text>
</g>
<g>
<text x="521" y="156">
A
</text>
</g>
<g>
<text x="521" y="428">
A
</text>
</g>
<g>
<text x="521" y="444">
7
</text>
</g>
<g>
<text x="537" y="60">
G
</text>
</g>
<g>
<text x="537" y="76">
G
</text>
</g>
<g>
<text x="537" y="92">
G
</text>
</g>
<g>
<text x="537" y="108">
G
</text>
</g>
<g>
<text x="537" y="124">
G
</text>
</g>
<g>
<text x="537" y="140">
G
</text>
</g>
<g>
<text x="537" y="156">
G
</text>
</g>
<g>
<text x="537" y="172">
G
</text>
</g>
<g>
<text x="537" y="236">
G
</text>
</g>
<g>
<text x="537" y="428">
G
</text>
</g>
<g>
<text x="537" y="444">
9
</text>
</g>
<g>
<text x="553" y="76">
A
</text>
</g>
<g>
<text x="553" y="92">
A
</text>
</g>
<g>
<text x="553" y="108">
A
</text>
</g>
<g>
<text x="553" y="124">
A
</text>
</g>
<g>
<text x="553" y="140">
A
</text>
</g>
<g>
<text x="553" y="156">
A
</text>
</g>
<g>
<text x="553" y="172">
A
</text>
</g>
<g>
<text x="553" y="188">
A
</text>
</g>
<g>
<text x="553" y="236">
A
</text>
</g>
<g>
<text x="553" y="252">
A
</text>
</g>
<g>
<text x="553" y="428">
A
</text>
</g>
<g>
<text x="553" y="444">
&gt;
</text>
</g>
<g>
<text x="569" y="92">
A
</text>
</g>
<g>
<text x="569" y="108">
A
</text>
</g>
<g>
<text x="569" y="124">
A
</text>
</g>
<g>
<text x="569" y="140">
A
</text>
</g>
<g>
<text x="569" y="156">
A
</text>
</g>
<g>
<text x="569" y="172">
A
</text>
</g>
<g>
<text x="569" y="188">
A
</text>
</g>
<g>
<text x="569" y="204">
A
</text>
</g>
<g>
<text x="569" y="236">
A
</text>
</g>
<g>
<text x="569" y="252">
A
</text>
</g>
<g>
<text x="569" y="268">
A
</text>
</g>
<g>
<text x="569" y="428">
A
</text>
</g>
<g>
<text x="569" y="444">
&gt;
</text>
</g>
<g>
<text x="585" y="108">
C
</text>
</g>
<g>
<text x="585" y="124">
C
</text>
</g>
<g>
<text x="585" y="156">
C
</text>
</g>
<g>
<text x="585" y="172">
C
</text>
</g>
<g>
<text x="585" y="188">
C
</text>
</g>
<g>
<text x="585" y="204">
C
</text>
</g>
<g>
<text x="585" y="220">
C
</text>
</g>
<g>
<text x="585" y="236">
C
</text>
</g>
<g>
<text x="585" y="252">
C
</text>
</g>
<g>
<text x="585" y="268">
C
</text>
</g>
<g>
<text x="585" y="284">
C
</text>
</g>
<g>
<text x="585" y="428">
C
</text>
</g>
<g>
<text x="585" y="444">
&gt;
</text>
</g>
<g>
<text x="601" y="124">
C
</text>
</g>
<g>
<text x="601" y="172">
C
</text>
</g>
<g>
<text x="601" y="188">
C
</text>
</g>
<g>
<text x="601" y="204">
C
</text>
</g>
<g>
<text x="601" y="220">
C
</text>
</g>
<g>
<text x="601" y="236">
C
</text>
</g>
<g>
<text x="601" y="252">
C
</text>
</g>
<g>
<text x="601" y="268">
C
</text>
</g>
<g>
<text x="601" y="284">
C
</text>
</g>
<g>
<text x="601" y="300">
C
</text>
</g>
<g>
<text x="601" y="428">
C
</text>
</g>
<g>
<text x="601" y="444">
&gt;
</text>
</g>
<g>
<text x="617" y="188">
T
</text>
</g>
<g>
<text x="617" y="204">
T
</text>
</g>
<g>
<text x="617" y="220">
T
</text>
</g>
<g>
<text x="617" y="252">
T
</text>
</g>
<g>
<text x="617" y="268">
T
</text>
</g>
<g>
<text x="617" y="284">
T
</text>
</g>
<g>
<text x="617" y="300">
T
</text>
</g>
<g>
<text x="617" y="316">
T
</text>
</g>
<g>
<text x="617" y="332">
T
</text>
</g>
<g>
<text x="617" y="428">
T
</text>
</g>
<g>
<text x="617" y="444">
9
</text>
</g>
<g>
<text x="633" y="204">
A
</text>
</g>
<g>
<text x="633" y="220">
A
</text>
</g>
<g>
<text x="633" y="268">
A
</text>
</g>
<g>
<text x="633" y="284">
A
</text>
</g>
<g>
<text x="633" y="300">
A
</text>
</g>
<g>
<text x="633" y="316">
A
</text>
</g>
<g>
<text x="633" y="332">
A
</text>
</g>
<g>
<text x="633" y="348">
A
</text>
</g>
<g>
<text x="633" y="428">
A
</text>
</g>
<g>
<text x="633" y="444">
8
</text>
</g>
<g>
<text x="649" y="220">
A
</text>
</g>
<g>
<text x="649" y="284">
A
</text>
</g>
<g>
<text x="649" y="300">
A
</text>
</g>
<g>
<text x="649" y="316">
A
</text>
</g>
<g>
<text x="649" y="332">
A
</text>
</g>
<g>
<text x="649" y="348">
A
</text>
</g>
<g>
<text x="649" y="364">
A
</text>
</g>
<g>
<text x="649" y="428">
A
</text>
</g>
<g>
<text x="649" y="444">
7
</text>
</g>
<g>
<text x="665" y="300">
T
</text>
</g>
<g>
<text x="665" y="316">
T
</text>
</g>
<g>
<text x="665" y="332">
T
</text>
</g>
<g>
<text x="665" y="348">
T
</text>
</g>
<g>
<text x="665" y="364">
T
</text>
</g>
<g>
<text x="665" y="380">
T
</text>
</g>
<g>
<text x="665" y="428">
T
</text>
</g>
<g>
<text x="665" y="444">
6
</text>
</g>
<g>
<text x="681" y="316">
T
</text>
</g>
<g>
<text x="681" y="332">
T
</text>
</g>
<g>
<text x="681" y="348">
T
</text>
</g>
<g>
<text x="681" y="364">
T
</text>
</g>
<g>
<text x="681" y="380">
T
</text>
</g>
<g>
<text x="681" y="396">
T
</text>
</g>
<g>
<text x="681" y="428">
T
</text>
</g>
<g>
<text x="681" y="444">
6
</text>
</g>
<g>
<text x="697" y="348">
T
</text>
</g>
<g>
<text x="697" y="364">
T
</text>
</g>
<g>
<text x="697" y="380">
T
</text>
</g>
<g>
<text x="697" y="396">
T
</text>
</g>
<g>
<text x="697" y="412">
T
</text>
</g>
<g>
<text x="697" y="428">
T
</text>
</g>
<g>
<text x="697" y="444">
5
</text>
</g>
<g>
<text x="713" y="364">
A
</text>
</g>
<g>
<text x="713" y="380">
A
</text>
</g>
<g>
<text x="713" y="396">
A
</text>
</g>
<g>
<text x="713" y="412">
A
</text>
</g>
<g>
<text x="713" y="428">
A
</text>
</g>
<g>
<text x="713" y="444">
4
</text>
</g>
<g>
<text x="729" y="380">
G
</text>
</g>
<g>
<text x="729" y="396">
G
</text>
</g>
<g>
<text x="729" y="412">
G
</text>
</g>
<g>
<text x="729" y="428">
G
</text>
</g>
<g>
<text x="729" y="444">
3
</text>
</g>
<g>
<text x="745" y="396">
C
</text>
</g>
<g>
<text x="745" y="412">
C
</text>
</g>
<g>
<text x="745" y="428">
C
</text>
</g>
<g>
<text x="745" y="444">
2
</text>
</g>
<g>
<text x="761" y="412">
T
</text>
</g>
<g>
<text x="761" y="428">
T
</text>
</g>
<g>
<text x="761" y="444">
1
</text>
</g>
</svg>
