<svg class="bob" font-family="arial" font-size="14" height="64" width="848" xmlns="http://www.w3.org/2000/svg">
<defs>
<marker id="triangle" markerHeight="8" markerWidth="8" orient="auto" refX="4" refY="2" viewBox="0 0 8 4">
<polygon class="fg_fill" points="0,0 0,4 8,2 0,0"/>
</marker>
<marker id="clear_triangle" markerHeight="10" markerWidth="10" orient="auto" refX="1" refY="7" viewBox="0 0 20 14">
<polygon class="bg_fill" points="2,2 2,12 18,7 2,2"/>
</marker>
<marker id="circle" markerHeight="5" markerWidth="5" orient="auto" refX="10" refY="10" viewBox="0 0 20 20">
<circle class="fg_fill" cx="10" cy="10" r="8"/>
</marker>
<marker id="square" markerHeight="5" markerWidth="5" orient="auto" refX="10" refY="10" viewBox="0 0 20 20">
<rect class="fg_fill" height="20" width="20" x="0" y="0"/>
</marker>
<marker id="open_circle" markerHeight="10" markerWidth="10" orient="auto" refX="10" refY="10" viewBox="0 0 20 20">
<circle class="bg_fill" cx="10" cy="10" r="4"/>
</marker>
<marker id="big_open_circle" markerHeight="20" markerWidth="20" orient="auto" refX="20" refY="20" viewBox="0 0 40 40">
<circle class="bg_fill" cx="20" cy="20" r="6"/>
</marker>
</defs>
<style type="text/css">

rect.backdrop {
    fill: white;
}
text{
    fill: black;
}

circle {
    fill: none;
    stroke: black;
    stroke-width: 2;
}

line {
    stroke: black;
    stroke-width: 2;
    stroke-opacity: 1;
    fill-opacity: 1;
    stroke-linecap: round;
    stroke-linejoin: miter;
}

path {
    fill: none;
    stroke: black;
    stroke-width: 2;
    stroke-opacity: 1;
    fill-opacity: 1;
    stroke-linecap: round;
    stroke-linejoin: miter;
}

line.dashed {
    stroke-dasharray: 5;
}

.fg_fill {
    fill: black;
}


.bg_fill {
    fill: white;
    stroke: black;
    stroke-width: 2;
}

tspan.head{
    fill: none;
    stroke: none;
}
    
</style>
<rect class="backdrop" height="64" width="848" x="0" y="0"/>
<g>
<line marker-end="url(#triangle)" x1="16" x2="28" y1="8" y2="8"/>
</g>
<g>
<line marker-end="url(#triangle)" x1="56" x2="68" y1="8" y2="8"/>
</g>
<g>
<line marker-end="url(#triangle)" x1="96" x2="108" y1="8" y2="8"/>
</g>
<g>
<line marker-end="url(#triangle)" x1="136" x2="148" y1="8" y2="8"/>
</g>
<g>
<line marker-end="url(#triangle)" x1="176" x2="188" y1="8" y2="8"/>
</g>
<g>
<line marker-end="url(#triangle)" x1="216" x2="228" y1="8" y2="8"/>
</g>
<g>
<line marker-end="url(#triangle)" x1="256" x2="268" y1="8" y2="8"/>
</g>
<g>
<line marker-end="url(#triangle)" x1="296" x2="308" y1="8" y2="8"/>
</g>
<g>
<line marker-end="url(#triangle)" x1="336" x2="348" y1="8" y2="8"/>
</g>
<g>
<line marker-end="url(#triangle)" x1="376" x2="388" y1="8" y2="8"/>
</g>
<g>
<line marker-end="url(#triangle)" x1="416" x2="428" y1="8" y2="8"/>
</g>
<g>
<line marker-end="url(#triangle)" x1="456" x2="468" y1="8" y2="8"/>
</g>
<g>
<line marker-end="url(#triangle)" x1="496" x2="508" y1="8" y2="8"/>
</g>
<g>
<line marker-end="url(#triangle)" x1="536" x2="548" y1="8" y2="8"/>
</g>
<g>
<line marker-end="url(#triangle)" x1="576" x2="588" y1="8" y2="8"/>
</g>
<g>
<line marker-end="url(#triangle)" x1="616" x2="628" y1="8" y2="8"/>
</g>
<g>
<line marker-end="url(#triangle)" x1="656" x2="668" y1="8" y2="8"/>
</g>
<g>
<line marker-end="url(#triangle)" x1="696" x2="708" y1="8" y2="8"/>
</g>
<g>
<line marker-end="url(#triangle)" x1="736" x2="748" y1="8" y2="8"/>
</g>
<g>
<line marker-end="url(#triangle)" x1="776" x2="788" y1="8" y2="8"/>
</g>
<g>
<line marker-end="url(#triangle)" x1="816" x2="828" y1="8" y2="8"/>
</g>
<g>
<text x="1" y="12">
A
</text>
</g>
<g>
<text x="1" y="44">
* First and last k=3 bases are known.
</text>
</g>
<g>
<text x="1" y="60">
* Middle d=16 bases aren&#39;t known.
</text>
</g>
<g>
<text x="41" y="12">
C
</text>
</g>
<g>
<text x="81" y="12">
A
</text>
</g>
<g>
<text x="121" y="12">
?
</text>
</g>
<g>
<text x="161" y="12">
?
</text>
</g>
<g>
<text x="201" y="12">
?
</text>
</g>
<g>
<text x="241" y="12">
?
</text>
</g>
<g>
<text x="281" y="12">
?
</text>
</g>
<g>
<text x="321" y="12">
?
</text>
</g>
<g>
<text x="361" y="12">
?
</text>
</g>
<g>
<text x="401" y="12">
?
</text>
</g>
<g>
<text x="441" y="12">
?
</text>
</g>
<g>
<text x="481" y="12">
?
</text>
</g>
<g>
<text x="521" y="12">
?
</text>
</g>
<g>
<text x="561" y="12">
?
</text>
</g>
<g>
<text x="601" y="12">
?
</text>
</g>
<g>
<text x="641" y="12">
?
</text>
</g>
<g>
<text x="681" y="12">
?
</text>
</g>
<g>
<text x="721" y="12">
?
</text>
</g>
<g>
<text x="761" y="12">
T
</text>
</g>
<g>
<text x="801" y="12">
G
</text>
</g>
<g>
<text x="841" y="12">
C
</text>
</g>
</svg>
