<svg class="bob" font-family="arial" font-size="14" height="128" width="96" xmlns="http://www.w3.org/2000/svg">
<defs>
<marker id="triangle" markerHeight="8" markerWidth="8" orient="auto" refX="4" refY="2" viewBox="0 0 8 4">
<polygon class="fg_fill" points="0,0 0,4 8,2 0,0"/>
</marker>
<marker id="clear_triangle" markerHeight="10" markerWidth="10" orient="auto" refX="1" refY="7" viewBox="0 0 20 14">
<polygon class="bg_fill" points="2,2 2,12 18,7 2,2"/>
</marker>
<marker id="circle" markerHeight="5" markerWidth="5" orient="auto" refX="10" refY="10" viewBox="0 0 20 20">
<circle class="fg_fill" cx="10" cy="10" r="8"/>
</marker>
<marker id="square" markerHeight="5" markerWidth="5" orient="auto" refX="10" refY="10" viewBox="0 0 20 20">
<rect class="fg_fill" height="20" width="20" x="0" y="0"/>
</marker>
<marker id="open_circle" markerHeight="10" markerWidth="10" orient="auto" refX="10" refY="10" viewBox="0 0 20 20">
<circle class="bg_fill" cx="10" cy="10" r="4"/>
</marker>
<marker id="big_open_circle" markerHeight="20" markerWidth="20" orient="auto" refX="20" refY="20" viewBox="0 0 40 40">
<circle class="bg_fill" cx="20" cy="20" r="6"/>
</marker>
</defs>
<style type="text/css">

rect.backdrop {
    fill: white;
}
text{
    fill: black;
}

circle {
    fill: none;
    stroke: black;
    stroke-width: 2;
}

line {
    stroke: black;
    stroke-width: 2;
    stroke-opacity: 1;
    fill-opacity: 1;
    stroke-linecap: round;
    stroke-linejoin: miter;
}

path {
    fill: none;
    stroke: black;
    stroke-width: 2;
    stroke-opacity: 1;
    fill-opacity: 1;
    stroke-linecap: round;
    stroke-linejoin: miter;
}

line.dashed {
    stroke-dasharray: 5;
}

.fg_fill {
    fill: black;
}


.bg_fill {
    fill: white;
    stroke: black;
    stroke-width: 2;
}

tspan.head{
    fill: none;
    stroke: none;
}
    
</style>
<rect class="backdrop" height="128" width="96" x="0" y="0"/>
<g>
<line marker-end="url(#triangle)" x1="32" x2="52" y1="8" y2="8"/>
</g>
<g>
<line marker-end="url(#triangle)" x1="32" x2="52" y1="24" y2="24"/>
</g>
<g>
<line marker-end="url(#triangle)" x1="32" x2="52" y1="40" y2="40"/>
</g>
<g>
<line marker-end="url(#triangle)" x1="32" x2="52" y1="56" y2="56"/>
</g>
<g>
<line marker-end="url(#triangle)" x1="32" x2="52" y1="72" y2="72"/>
</g>
<g>
<line marker-end="url(#triangle)" x1="32" x2="52" y1="88" y2="88"/>
</g>
<g>
<line marker-end="url(#triangle)" x1="32" x2="52" y1="104" y2="104"/>
</g>
<g>
<line marker-end="url(#triangle)" x1="32" x2="52" y1="120" y2="120"/>
</g>
<g>
<text x="1" y="12">
TTA
</text>
</g>
<g>
<text x="1" y="28">
TAG
</text>
</g>
<g>
<text x="1" y="44">
AGT
</text>
</g>
<g>
<text x="1" y="60">
GTT
</text>
</g>
<g>
<text x="1" y="76">
TTA
</text>
</g>
<g>
<text x="1" y="92">
TAC
</text>
</g>
<g>
<text x="1" y="108">
ACT
</text>
</g>
<g>
<text x="1" y="124">
CTT
</text>
</g>
<g>
<text x="65" y="12">
TAG
</text>
</g>
<g>
<text x="65" y="28">
AGT
</text>
</g>
<g>
<text x="65" y="44">
GTT
</text>
</g>
<g>
<text x="65" y="60">
TTA
</text>
</g>
<g>
<text x="65" y="76">
TAC
</text>
</g>
<g>
<text x="65" y="92">
ACT
</text>
</g>
<g>
<text x="65" y="108">
CTT
</text>
</g>
<g>
<text x="65" y="124">
TTA
</text>
</g>
</svg>
