<svg class="bob" font-family="arial" font-size="14" height="160" width="344" xmlns="http://www.w3.org/2000/svg">
<defs>
<marker id="triangle" markerHeight="8" markerWidth="8" orient="auto" refX="4" refY="2" viewBox="0 0 8 4">
<polygon class="fg_fill" points="0,0 0,4 8,2 0,0"/>
</marker>
<marker id="clear_triangle" markerHeight="10" markerWidth="10" orient="auto" refX="1" refY="7" viewBox="0 0 20 14">
<polygon class="bg_fill" points="2,2 2,12 18,7 2,2"/>
</marker>
<marker id="circle" markerHeight="5" markerWidth="5" orient="auto" refX="10" refY="10" viewBox="0 0 20 20">
<circle class="fg_fill" cx="10" cy="10" r="8"/>
</marker>
<marker id="square" markerHeight="5" markerWidth="5" orient="auto" refX="10" refY="10" viewBox="0 0 20 20">
<rect class="fg_fill" height="20" width="20" x="0" y="0"/>
</marker>
<marker id="open_circle" markerHeight="10" markerWidth="10" orient="auto" refX="10" refY="10" viewBox="0 0 20 20">
<circle class="bg_fill" cx="10" cy="10" r="4"/>
</marker>
<marker id="big_open_circle" markerHeight="20" markerWidth="20" orient="auto" refX="20" refY="20" viewBox="0 0 40 40">
<circle class="bg_fill" cx="20" cy="20" r="6"/>
</marker>
</defs>
<style type="text/css">

rect.backdrop {
    fill: white;
}
text{
    fill: black;
}

circle {
    fill: none;
    stroke: black;
    stroke-width: 2;
}

line {
    stroke: black;
    stroke-width: 2;
    stroke-opacity: 1;
    fill-opacity: 1;
    stroke-linecap: round;
    stroke-linejoin: miter;
}

path {
    fill: none;
    stroke: black;
    stroke-width: 2;
    stroke-opacity: 1;
    fill-opacity: 1;
    stroke-linecap: round;
    stroke-linejoin: miter;
}

line.dashed {
    stroke-dasharray: 5;
}

.fg_fill {
    fill: black;
}


.bg_fill {
    fill: white;
    stroke: black;
    stroke-width: 2;
}

tspan.head{
    fill: none;
    stroke: none;
}
    
</style>
<rect class="backdrop" height="160" width="344" x="0" y="0"/>
<g>
<line marker-end="url(#triangle)" x1="12" x2="12" y1="32" y2="20"/>
<line x1="12" x2="12" y1="32" y2="52"/>
<path d="M 12 52 A 4 4 0 0 0 16 56"/>
</g>
<g>
<line x1="16" x2="264" y1="56" y2="56"/>
<path d="M 264 56 A 4 4 0 0 0 268 52"/>
</g>
<g>
<line marker-end="url(#triangle)" x1="32" x2="52" y1="8" y2="8"/>
</g>
<g>
<line marker-end="url(#triangle)" x1="96" x2="116" y1="8" y2="8"/>
</g>
<g>
<line marker-end="url(#triangle)" x1="160" x2="180" y1="8" y2="8"/>
</g>
<g>
<line marker-end="url(#triangle)" x1="224" x2="244" y1="8" y2="8"/>
</g>
<g>
<line x1="268" x2="268" y1="16" y2="52"/>
</g>
<g>
<text x="1" y="12">
TTA
</text>
</g>
<g>
<text x="1" y="124">
Path = [TTA, TAC, ACC, CCC, CCT, TTA]
</text>
</g>
<g>
<text x="1" y="156">
* Last path element must be dropped (TTA)
</text>
</g>
<g>
<text x="65" y="12">
TAC
</text>
</g>
<g>
<text x="97" y="76">
artificial edge
</text>
</g>
<g>
<text x="129" y="12">
ACC
</text>
</g>
<g>
<text x="193" y="12">
CCC
</text>
</g>
<g>
<text x="257" y="12">
CCT
</text>
</g>
</svg>
