<svg class="bob" font-family="arial" font-size="14" height="464" width="640" xmlns="http://www.w3.org/2000/svg">
<defs>
<marker id="triangle" markerHeight="8" markerWidth="8" orient="auto" refX="4" refY="2" viewBox="0 0 8 4">
<polygon class="fg_fill" points="0,0 0,4 8,2 0,0"/>
</marker>
<marker id="clear_triangle" markerHeight="10" markerWidth="10" orient="auto" refX="1" refY="7" viewBox="0 0 20 14">
<polygon class="bg_fill" points="2,2 2,12 18,7 2,2"/>
</marker>
<marker id="circle" markerHeight="5" markerWidth="5" orient="auto" refX="10" refY="10" viewBox="0 0 20 20">
<circle class="fg_fill" cx="10" cy="10" r="8"/>
</marker>
<marker id="square" markerHeight="5" markerWidth="5" orient="auto" refX="10" refY="10" viewBox="0 0 20 20">
<rect class="fg_fill" height="20" width="20" x="0" y="0"/>
</marker>
<marker id="open_circle" markerHeight="10" markerWidth="10" orient="auto" refX="10" refY="10" viewBox="0 0 20 20">
<circle class="bg_fill" cx="10" cy="10" r="4"/>
</marker>
<marker id="big_open_circle" markerHeight="20" markerWidth="20" orient="auto" refX="20" refY="20" viewBox="0 0 40 40">
<circle class="bg_fill" cx="20" cy="20" r="6"/>
</marker>
</defs>
<style type="text/css">

rect.backdrop {
    fill: white;
}
text{
    fill: black;
}

circle {
    fill: none;
    stroke: black;
    stroke-width: 2;
}

line {
    stroke: black;
    stroke-width: 2;
    stroke-opacity: 1;
    fill-opacity: 1;
    stroke-linecap: round;
    stroke-linejoin: miter;
}

path {
    fill: none;
    stroke: black;
    stroke-width: 2;
    stroke-opacity: 1;
    fill-opacity: 1;
    stroke-linecap: round;
    stroke-linejoin: miter;
}

line.dashed {
    stroke-dasharray: 5;
}

.fg_fill {
    fill: black;
}


.bg_fill {
    fill: white;
    stroke: black;
    stroke-width: 2;
}

tspan.head{
    fill: none;
    stroke: none;
}
    
</style>
<rect class="backdrop" height="464" width="640" x="0" y="0"/>
<g>
<line x1="260" x2="260" y1="256" y2="272"/>
</g>
<g>
<line x1="260" x2="260" y1="368" y2="384"/>
</g>
<g>
<line marker-end="url(#triangle)" x1="264" x2="284" y1="8" y2="8"/>
<line marker-start="url(#triangle)" x1="280" x2="284" y1="8" y2="8"/>
</g>
<g>
<line x1="264" x2="280" y1="152" y2="152"/>
</g>
<g>
<line marker-end="url(#triangle)" x1="264" x2="284" y1="248" y2="248"/>
<line marker-start="url(#triangle)" x1="280" x2="284" y1="248" y2="248"/>
</g>
<g>
<line x1="264" x2="280" y1="280" y2="280"/>
</g>
<g>
<line marker-end="url(#triangle)" x1="264" x2="284" y1="360" y2="360"/>
<line marker-start="url(#triangle)" x1="280" x2="284" y1="360" y2="360"/>
</g>
<g>
<line x1="264" x2="280" y1="392" y2="392"/>
</g>
<g>
<line x1="276" x2="276" y1="256" y2="272"/>
</g>
<g>
<line x1="276" x2="276" y1="368" y2="384"/>
</g>
<g>
<line marker-end="url(#triangle)" x1="284" x2="284" y1="176" y2="220"/>
</g>
<g>
<line marker-end="url(#triangle)" x1="288" x2="324" y1="8" y2="8"/>
<line marker-start="url(#triangle)" x1="320" x2="324" y1="8" y2="8"/>
</g>
<g>
<line marker-start="url(#triangle)" x1="288" x2="284" y1="152" y2="152"/>
<line marker-end="url(#triangle)" x1="288" x2="284" y1="152" y2="152"/>
<line x1="288" x2="312" y1="152" y2="152"/>
</g>
<g>
<line marker-end="url(#triangle)" x1="288" x2="324" y1="248" y2="248"/>
<line marker-start="url(#triangle)" x1="320" x2="324" y1="248" y2="248"/>
</g>
<g>
<line marker-start="url(#triangle)" x1="288" x2="284" y1="280" y2="280"/>
<line marker-end="url(#triangle)" x1="288" x2="284" y1="280" y2="280"/>
<line x1="288" x2="312" y1="280" y2="280"/>
</g>
<g>
<line x1="288" x2="312" y1="360" y2="360"/>
</g>
<g>
<line marker-start="url(#triangle)" x1="288" x2="284" y1="392" y2="392"/>
<line marker-end="url(#triangle)" x1="288" x2="284" y1="392" y2="392"/>
<line x1="288" x2="312" y1="392" y2="392"/>
</g>
<g>
<line x1="292" x2="292" y1="256" y2="272"/>
</g>
<g>
<line x1="292" x2="292" y1="368" y2="384"/>
</g>
<g>
<line x1="308" x2="308" y1="256" y2="272"/>
</g>
<g>
<line x1="308" x2="308" y1="368" y2="384"/>
</g>
<g>
<line x1="316" x2="316" y1="288" y2="320"/>
</g>
<g>
<line marker-end="url(#triangle)" x1="316" x2="316" y1="336" y2="324"/>
<line x1="316" x2="316" y1="336" y2="352"/>
</g>
<g>
<line marker-start="url(#triangle)" x1="320" x2="316" y1="152" y2="152"/>
<line marker-end="url(#triangle)" x1="320" x2="316" y1="152" y2="152"/>
<line x1="320" x2="344" y1="152" y2="152"/>
<path d="M 344 152 A 4 4 0 0 0 348 148"/>
</g>
<g>
<line marker-start="url(#triangle)" x1="320" x2="316" y1="392" y2="392"/>
<line marker-end="url(#triangle)" x1="320" x2="316" y1="392" y2="392"/>
<line x1="320" x2="344" y1="392" y2="392"/>
<path d="M 344 392 A 4 4 0 0 0 348 388"/>
</g>
<g>
<line x1="328" x2="344" y1="8" y2="8"/>
<path d="M 348 12 A 4 4 0 0 0 344 8"/>
</g>
<g>
<line x1="328" x2="344" y1="248" y2="248"/>
<path d="M 348 252 A 4 4 0 0 0 344 248"/>
</g>
<g>
<line x1="328" x2="336" y1="280" y2="280"/>
</g>
<g>
<line x1="328" x2="336" y1="296" y2="296"/>
</g>
<g>
<line x1="328" x2="336" y1="312" y2="312"/>
</g>
<g>
<line x1="328" x2="336" y1="328" y2="328"/>
</g>
<g>
<line x1="328" x2="336" y1="344" y2="344"/>
</g>
<g>
<line x1="328" x2="336" y1="360" y2="360"/>
</g>
<g>
<line marker-end="url(#triangle)" x1="348" x2="348" y1="12" y2="44"/>
</g>
<g>
<line marker-end="url(#triangle)" x1="348" x2="348" y1="48" y2="76"/>
</g>
<g>
<line marker-end="url(#triangle)" x1="348" x2="348" y1="80" y2="108"/>
</g>
<g>
<line x1="348" x2="348" y1="112" y2="148"/>
</g>
<g>
<line marker-end="url(#triangle)" x1="348" x2="348" y1="252" y2="284"/>
</g>
<g>
<line marker-end="url(#triangle)" x1="348" x2="348" y1="288" y2="316"/>
</g>
<g>
<line marker-end="url(#triangle)" x1="348" x2="348" y1="320" y2="348"/>
</g>
<g>
<line x1="348" x2="348" y1="352" y2="388"/>
</g>
<g>
<text x="1" y="316">
Reverse half-strand (synthesized)
</text>
</g>
<g>
<text x="1" y="332">
less Gs / more As
</text>
</g>
<g>
<text x="1" y="428">
The forward half-strand ends up with less Cs and more Ts. As such, the
</text>
</g>
<g>
<text x="1" y="444">
reverse complement strand that gets synthesized for it by DNA polymerase
</text>
</g>
<g>
<text x="1" y="460">
will have less Gs and more As.
</text>
</g>
<g>
<text x="233" y="12">
ori
</text>
</g>
<g>
<text x="233" y="156">
ter
</text>
</g>
<g>
<text x="233" y="252">
ori
</text>
</g>
<g>
<text x="233" y="284">
ori
</text>
</g>
<g>
<text x="233" y="364">
ter
</text>
</g>
<g>
<text x="233" y="396">
ter
</text>
</g>
<g>
<text x="297" y="204">
synthesize reverse complement
</text>
</g>
<g>
<text x="385" y="316">
Forward half-strand (original)
</text>
</g>
<g>
<text x="385" y="332">
less Cs / more Ts
</text>
</g>
</svg>
