<svg class="bob" font-family="arial" font-size="14" height="128" width="536" xmlns="http://www.w3.org/2000/svg">
<defs>
<marker id="triangle" markerHeight="8" markerWidth="8" orient="auto" refX="4" refY="2" viewBox="0 0 8 4">
<polygon class="fg_fill" points="0,0 0,4 8,2 0,0"/>
</marker>
<marker id="clear_triangle" markerHeight="10" markerWidth="10" orient="auto" refX="1" refY="7" viewBox="0 0 20 14">
<polygon class="bg_fill" points="2,2 2,12 18,7 2,2"/>
</marker>
<marker id="circle" markerHeight="5" markerWidth="5" orient="auto" refX="10" refY="10" viewBox="0 0 20 20">
<circle class="fg_fill" cx="10" cy="10" r="8"/>
</marker>
<marker id="square" markerHeight="5" markerWidth="5" orient="auto" refX="10" refY="10" viewBox="0 0 20 20">
<rect class="fg_fill" height="20" width="20" x="0" y="0"/>
</marker>
<marker id="open_circle" markerHeight="10" markerWidth="10" orient="auto" refX="10" refY="10" viewBox="0 0 20 20">
<circle class="bg_fill" cx="10" cy="10" r="4"/>
</marker>
<marker id="big_open_circle" markerHeight="20" markerWidth="20" orient="auto" refX="20" refY="20" viewBox="0 0 40 40">
<circle class="bg_fill" cx="20" cy="20" r="6"/>
</marker>
</defs>
<style type="text/css">

rect.backdrop {
    fill: white;
}
text{
    fill: black;
}

circle {
    fill: none;
    stroke: black;
    stroke-width: 2;
}

line {
    stroke: black;
    stroke-width: 2;
    stroke-opacity: 1;
    fill-opacity: 1;
    stroke-linecap: round;
    stroke-linejoin: miter;
}

path {
    fill: none;
    stroke: black;
    stroke-width: 2;
    stroke-opacity: 1;
    fill-opacity: 1;
    stroke-linecap: round;
    stroke-linejoin: miter;
}

line.dashed {
    stroke-dasharray: 5;
}

.fg_fill {
    fill: black;
}


.bg_fill {
    fill: white;
    stroke: black;
    stroke-width: 2;
}

tspan.head{
    fill: none;
    stroke: none;
}
    
</style>
<rect class="backdrop" height="128" width="536" x="0" y="0"/>
<g>
<line marker-end="url(#triangle)" x1="88" x2="100" y1="56" y2="56"/>
</g>
<g>
<line marker-end="url(#triangle)" x1="96" x2="92" y1="40" y2="40"/>
<line x1="96" x2="160" y1="40" y2="40"/>
</g>
<g>
<line marker-end="url(#triangle)" x1="128" x2="140" y1="56" y2="56"/>
</g>
<g>
<line marker-end="url(#triangle)" x1="168" x2="180" y1="56" y2="56"/>
</g>
<g>
<line x1="176" x2="184" y1="40" y2="40"/>
<path d="M 176 40 A 4 4 0 0 0 172 44"/>
</g>
<g>
<line x1="176" x2="288" y1="72" y2="72"/>
<path d="M 172 68 A 4 4 0 0 0 176 72"/>
<path d="M 288 72 A 4 4 0 0 0 292 68"/>
</g>
<g>
<line x1="196" x2="196" y1="16" y2="48"/>
</g>
<g>
<line x1="208" x2="288" y1="40" y2="40"/>
<path d="M 292 44 A 4 4 0 0 0 288 40"/>
</g>
<g>
<line marker-end="url(#triangle)" x1="208" x2="220" y1="56" y2="56"/>
</g>
<g>
<line marker-end="url(#triangle)" x1="216" x2="212" y1="8" y2="8"/>
<line x1="216" x2="224" y1="8" y2="8"/>
</g>
<g>
<line marker-end="url(#triangle)" x1="248" x2="260" y1="56" y2="56"/>
</g>
<g>
<line marker-end="url(#triangle)" x1="256" x2="252" y1="8" y2="8"/>
<line x1="256" x2="264" y1="8" y2="8"/>
</g>
<g>
<line marker-end="url(#triangle)" x1="288" x2="300" y1="56" y2="56"/>
</g>
<g>
<line marker-end="url(#triangle)" x1="296" x2="292" y1="8" y2="8"/>
<line x1="296" x2="304" y1="8" y2="8"/>
</g>
<g>
<line marker-end="url(#triangle)" x1="328" x2="340" y1="56" y2="56"/>
</g>
<g>
<line marker-end="url(#triangle)" x1="328" x2="364" y1="104" y2="104"/>
</g>
<g>
<line marker-end="url(#triangle)" x1="336" x2="332" y1="8" y2="8"/>
<line x1="336" x2="344" y1="8" y2="8"/>
</g>
<g>
<line marker-end="url(#triangle)" x1="368" x2="380" y1="56" y2="56"/>
</g>
<g>
<line marker-end="url(#triangle)" x1="376" x2="372" y1="8" y2="8"/>
<line x1="376" x2="384" y1="8" y2="8"/>
</g>
<g>
<line marker-end="url(#triangle)" x1="408" x2="420" y1="56" y2="56"/>
</g>
<g>
<line marker-end="url(#triangle)" x1="416" x2="412" y1="8" y2="8"/>
<line x1="416" x2="424" y1="8" y2="8"/>
</g>
<g>
<line marker-end="url(#triangle)" x1="448" x2="460" y1="56" y2="56"/>
</g>
<g>
<line marker-end="url(#triangle)" x1="456" x2="452" y1="8" y2="8"/>
<line x1="456" x2="464" y1="8" y2="8"/>
</g>
<g>
<text x="1" y="60">
5&#39;
</text>
</g>
<g>
<text x="25" y="60">
.
</text>
</g>
<g>
<text x="41" y="60">
.
</text>
</g>
<g>
<text x="57" y="60">
.
</text>
</g>
<g>
<text x="73" y="60">
A
</text>
</g>
<g>
<text x="113" y="60">
A
</text>
</g>
<g>
<text x="137" y="108">
Direction of DNA:
</text>
</g>
<g>
<text x="137" y="124">
DNA polymerases moves in the reverse direction
</text>
</g>
<g>
<text x="153" y="60">
A
</text>
</g>
<g>
<text x="193" y="12">
G
</text>
</g>
<g>
<text x="193" y="60">
C
</text>
</g>
<g>
<text x="233" y="12">
C
</text>
</g>
<g>
<text x="233" y="60">
C
</text>
</g>
<g>
<text x="273" y="12">
T
</text>
</g>
<g>
<text x="273" y="60">
G
</text>
</g>
<g>
<text x="305" y="108">
5&#39;
</text>
</g>
<g>
<text x="313" y="12">
T
</text>
</g>
<g>
<text x="313" y="60">
A
</text>
</g>
<g>
<text x="353" y="12">
T
</text>
</g>
<g>
<text x="353" y="60">
A
</text>
</g>
<g>
<text x="377" y="108">
3&#39;
</text>
</g>
<g>
<text x="393" y="12">
T
</text>
</g>
<g>
<text x="393" y="60">
A
</text>
</g>
<g>
<text x="433" y="12">
G
</text>
</g>
<g>
<text x="433" y="60">
C
</text>
</g>
<g>
<text x="473" y="12">
.
</text>
</g>
<g>
<text x="473" y="60">
.
</text>
</g>
<g>
<text x="489" y="12">
.
</text>
</g>
<g>
<text x="489" y="60">
.
</text>
</g>
<g>
<text x="505" y="12">
.
</text>
</g>
<g>
<text x="505" y="60">
.
</text>
</g>
<g>
<text x="521" y="60">
3&#39;
</text>
</g>
</svg>
