<svg class="bob" font-family="arial" font-size="14" height="224" width="448" xmlns="http://www.w3.org/2000/svg">
<defs>
<marker id="triangle" markerHeight="8" markerWidth="8" orient="auto" refX="4" refY="2" viewBox="0 0 8 4">
<polygon class="fg_fill" points="0,0 0,4 8,2 0,0"/>
</marker>
<marker id="clear_triangle" markerHeight="10" markerWidth="10" orient="auto" refX="1" refY="7" viewBox="0 0 20 14">
<polygon class="bg_fill" points="2,2 2,12 18,7 2,2"/>
</marker>
<marker id="circle" markerHeight="5" markerWidth="5" orient="auto" refX="10" refY="10" viewBox="0 0 20 20">
<circle class="fg_fill" cx="10" cy="10" r="8"/>
</marker>
<marker id="square" markerHeight="5" markerWidth="5" orient="auto" refX="10" refY="10" viewBox="0 0 20 20">
<rect class="fg_fill" height="20" width="20" x="0" y="0"/>
</marker>
<marker id="open_circle" markerHeight="10" markerWidth="10" orient="auto" refX="10" refY="10" viewBox="0 0 20 20">
<circle class="bg_fill" cx="10" cy="10" r="4"/>
</marker>
<marker id="big_open_circle" markerHeight="20" markerWidth="20" orient="auto" refX="20" refY="20" viewBox="0 0 40 40">
<circle class="bg_fill" cx="20" cy="20" r="6"/>
</marker>
</defs>
<style type="text/css">

rect.backdrop {
    fill: white;
}
text{
    fill: black;
}

circle {
    fill: none;
    stroke: black;
    stroke-width: 2;
}

line {
    stroke: black;
    stroke-width: 2;
    stroke-opacity: 1;
    fill-opacity: 1;
    stroke-linecap: round;
    stroke-linejoin: miter;
}

path {
    fill: none;
    stroke: black;
    stroke-width: 2;
    stroke-opacity: 1;
    fill-opacity: 1;
    stroke-linecap: round;
    stroke-linejoin: miter;
}

line.dashed {
    stroke-dasharray: 5;
}

.fg_fill {
    fill: black;
}


.bg_fill {
    fill: white;
    stroke: black;
    stroke-width: 2;
}

tspan.head{
    fill: none;
    stroke: none;
}
    
</style>
<rect class="backdrop" height="224" width="448" x="0" y="0"/>
<g>
<line x1="4" x2="4" y1="88" y2="120"/>
<line x1="4" x2="68" y1="88" y2="88"/>
<line x1="4" x2="68" y1="120" y2="120"/>
<line x1="68" x2="68" y1="88" y2="120"/>
</g>
<g>
<line x1="36" x2="36" y1="40" y2="72"/>
<line x1="36" x2="100" y1="40" y2="40"/>
<line x1="36" x2="100" y1="72" y2="72"/>
<line x1="100" x2="100" y1="40" y2="72"/>
</g>
<g>
<line x1="36" x2="36" y1="136" y2="168"/>
<line x1="36" x2="100" y1="136" y2="136"/>
<line x1="36" x2="100" y1="168" y2="168"/>
<line x1="100" x2="100" y1="136" y2="168"/>
</g>
<g>
<line x1="112" x2="164" y1="56" y2="56"/>
<line x1="164" x2="164" y1="56" y2="88"/>
<line marker-end="url(#triangle)" x1="164" x2="220" y1="88" y2="88"/>
</g>
<g>
<line marker-end="url(#triangle)" x1="112" x2="236" y1="104" y2="104"/>
</g>
<g>
<line x1="112" x2="164" y1="152" y2="152"/>
<line x1="164" x2="164" y1="120" y2="152"/>
<line marker-end="url(#triangle)" x1="164" x2="268" y1="120" y2="120"/>
</g>
<g>
<text x="1" y="204">
* 1st is the reverse complement of the 2nd and 3rd.
</text>
</g>
<g>
<text x="1" y="220">
* Reconstructed genome has an extra T prepended.
</text>
</g>
<g>
<text x="9" y="60">
T
</text>
</g>
<g>
<text x="9" y="108">
A
</text>
</g>
<g>
<text x="9" y="156">
A
</text>
</g>
<g>
<text x="25" y="60">
T
</text>
</g>
<g>
<text x="25" y="108">
A
</text>
</g>
<g>
<text x="25" y="156">
A
</text>
</g>
<g>
<text x="41" y="60">
T
</text>
</g>
<g>
<text x="41" y="108">
A
</text>
</g>
<g>
<text x="41" y="156">
A
</text>
</g>
<g>
<text x="57" y="12">
DNA reads
</text>
</g>
<g>
<text x="57" y="60">
A
</text>
</g>
<g>
<text x="57" y="108">
T
</text>
</g>
<g>
<text x="57" y="156">
T
</text>
</g>
<g>
<text x="73" y="60">
A
</text>
</g>
<g>
<text x="73" y="108">
T
</text>
</g>
<g>
<text x="73" y="156">
T
</text>
</g>
<g>
<text x="89" y="60">
A
</text>
</g>
<g>
<text x="89" y="108">
T
</text>
</g>
<g>
<text x="89" y="156">
T
</text>
</g>
<g>
<text x="225" y="12">
Stitched DNA reads
</text>
</g>
<g>
<text x="233" y="60">
T
</text>
</g>
<g>
<text x="233" y="92">
T
</text>
</g>
<g>
<text x="249" y="60">
A
</text>
</g>
<g>
<text x="249" y="92">
A
</text>
</g>
<g>
<text x="249" y="108">
A
</text>
</g>
<g>
<text x="265" y="60">
A
</text>
</g>
<g>
<text x="265" y="92">
A
</text>
</g>
<g>
<text x="265" y="108">
A
</text>
</g>
<g>
<text x="281" y="60">
A
</text>
</g>
<g>
<text x="281" y="92">
A
</text>
</g>
<g>
<text x="281" y="108">
A
</text>
</g>
<g>
<text x="281" y="124">
A
</text>
</g>
<g>
<text x="297" y="60">
T
</text>
</g>
<g>
<text x="297" y="108">
T
</text>
</g>
<g>
<text x="297" y="124">
T
</text>
</g>
<g>
<text x="313" y="60">
T
</text>
</g>
<g>
<text x="313" y="124">
T
</text>
</g>
<g>
<text x="329" y="60">
T
</text>
</g>
<g>
<text x="329" y="124">
T
</text>
</g>
</svg>
