<svg class="bob" font-family="arial" font-size="14" height="400" width="936" xmlns="http://www.w3.org/2000/svg">
<defs>
<marker id="triangle" markerHeight="8" markerWidth="8" orient="auto" refX="4" refY="2" viewBox="0 0 8 4">
<polygon class="fg_fill" points="0,0 0,4 8,2 0,0"/>
</marker>
<marker id="clear_triangle" markerHeight="10" markerWidth="10" orient="auto" refX="1" refY="7" viewBox="0 0 20 14">
<polygon class="bg_fill" points="2,2 2,12 18,7 2,2"/>
</marker>
<marker id="circle" markerHeight="5" markerWidth="5" orient="auto" refX="10" refY="10" viewBox="0 0 20 20">
<circle class="fg_fill" cx="10" cy="10" r="8"/>
</marker>
<marker id="square" markerHeight="5" markerWidth="5" orient="auto" refX="10" refY="10" viewBox="0 0 20 20">
<rect class="fg_fill" height="20" width="20" x="0" y="0"/>
</marker>
<marker id="open_circle" markerHeight="10" markerWidth="10" orient="auto" refX="10" refY="10" viewBox="0 0 20 20">
<circle class="bg_fill" cx="10" cy="10" r="4"/>
</marker>
<marker id="big_open_circle" markerHeight="20" markerWidth="20" orient="auto" refX="20" refY="20" viewBox="0 0 40 40">
<circle class="bg_fill" cx="20" cy="20" r="6"/>
</marker>
</defs>
<style type="text/css">

rect.backdrop {
    fill: white;
}
text{
    fill: black;
}

circle {
    fill: none;
    stroke: black;
    stroke-width: 2;
}

line {
    stroke: black;
    stroke-width: 2;
    stroke-opacity: 1;
    fill-opacity: 1;
    stroke-linecap: round;
    stroke-linejoin: miter;
}

path {
    fill: none;
    stroke: black;
    stroke-width: 2;
    stroke-opacity: 1;
    fill-opacity: 1;
    stroke-linecap: round;
    stroke-linejoin: miter;
}

line.dashed {
    stroke-dasharray: 5;
}

.fg_fill {
    fill: black;
}


.bg_fill {
    fill: white;
    stroke: black;
    stroke-width: 2;
}

tspan.head{
    fill: none;
    stroke: none;
}
    
</style>
<rect class="backdrop" height="400" width="936" x="0" y="0"/>
<g>
<line marker-end="url(#triangle)" x1="136" x2="148" y1="232" y2="232"/>
</g>
<g>
<line marker-end="url(#triangle)" x1="144" x2="140" y1="264" y2="264"/>
<line x1="144" x2="152" y1="264" y2="264"/>
</g>
<g>
<line marker-end="url(#triangle)" x1="176" x2="188" y1="232" y2="232"/>
</g>
<g>
<line marker-end="url(#triangle)" x1="184" x2="180" y1="264" y2="264"/>
<line x1="184" x2="192" y1="264" y2="264"/>
</g>
<g>
<line x1="216" x2="228" y1="232" y2="232"/>
<line x1="228" x2="240" y1="232" y2="208"/>
</g>
<g>
<line marker-end="url(#triangle)" x1="228" x2="220" y1="264" y2="264"/>
<line x1="228" x2="240" y1="264" y2="288"/>
</g>
<g>
<line marker-end="url(#triangle)" x1="256" x2="268" y1="200" y2="200"/>
</g>
<g>
<line marker-end="url(#triangle)" x1="256" x2="268" y1="344" y2="344"/>
</g>
<g>
<line marker-end="url(#triangle)" x1="264" x2="260" y1="296" y2="296"/>
<line x1="264" x2="272" y1="296" y2="296"/>
</g>
<g>
<line marker-end="url(#triangle)" x1="296" x2="308" y1="200" y2="200"/>
</g>
<g>
<line marker-end="url(#triangle)" x1="296" x2="308" y1="344" y2="344"/>
</g>
<g>
<line marker-end="url(#triangle)" x1="304" x2="300" y1="296" y2="296"/>
<line x1="304" x2="312" y1="296" y2="296"/>
</g>
<g>
<line x1="320" x2="424" y1="280" y2="280"/>
<path d="M 320 280 A 4 4 0 0 0 316 284"/>
<path d="M 428 284 A 4 4 0 0 0 424 280"/>
</g>
<g>
<line x1="320" x2="392" y1="312" y2="312"/>
<path d="M 316 308 A 4 4 0 0 0 320 312"/>
</g>
<g>
<line marker-end="url(#triangle)" x1="336" x2="348" y1="200" y2="200"/>
</g>
<g>
<line marker-end="url(#triangle)" x1="336" x2="348" y1="344" y2="344"/>
</g>
<g>
<line marker-end="url(#triangle)" x1="344" x2="340" y1="296" y2="296"/>
<line x1="344" x2="352" y1="296" y2="296"/>
</g>
<g>
<line marker-end="url(#triangle)" x1="376" x2="388" y1="200" y2="200"/>
</g>
<g>
<line marker-end="url(#triangle)" x1="376" x2="388" y1="344" y2="344"/>
</g>
<g>
<line marker-end="url(#triangle)" x1="384" x2="380" y1="296" y2="296"/>
<line x1="384" x2="392" y1="296" y2="296"/>
</g>
<g>
<line x1="404" x2="404" y1="304" y2="336"/>
</g>
<g>
<line marker-end="url(#triangle)" x1="416" x2="428" y1="200" y2="200"/>
</g>
<g>
<line x1="416" x2="424" y1="312" y2="312"/>
<path d="M 424 312 A 4 4 0 0 0 428 308"/>
</g>
<g>
<line marker-end="url(#triangle)" x1="424" x2="420" y1="296" y2="296"/>
<line x1="424" x2="432" y1="296" y2="296"/>
</g>
<g>
<line marker-end="url(#triangle)" x1="440" x2="476" y1="312" y2="312"/>
</g>
<g>
<line marker-end="url(#triangle)" x1="504" x2="500" y1="184" y2="184"/>
<line x1="504" x2="536" y1="184" y2="184"/>
</g>
<g>
<line marker-end="url(#triangle)" x1="536" x2="548" y1="200" y2="200"/>
</g>
<g>
<line marker-end="url(#triangle)" x1="544" x2="540" y1="296" y2="296"/>
<line x1="544" x2="552" y1="296" y2="296"/>
</g>
<g>
<line x1="552" x2="560" y1="184" y2="184"/>
<path d="M 552 184 A 4 4 0 0 0 548 188"/>
</g>
<g>
<line x1="552" x2="664" y1="216" y2="216"/>
<path d="M 548 212 A 4 4 0 0 0 552 216"/>
<path d="M 664 216 A 4 4 0 0 0 668 212"/>
</g>
<g>
<line x1="572" x2="572" y1="160" y2="192"/>
</g>
<g>
<line marker-end="url(#triangle)" x1="576" x2="588" y1="200" y2="200"/>
</g>
<g>
<line x1="584" x2="664" y1="184" y2="184"/>
<path d="M 668 188 A 4 4 0 0 0 664 184"/>
</g>
<g>
<line marker-end="url(#triangle)" x1="584" x2="580" y1="296" y2="296"/>
<line x1="584" x2="592" y1="296" y2="296"/>
</g>
<g>
<line marker-end="url(#triangle)" x1="592" x2="588" y1="152" y2="152"/>
<line x1="592" x2="600" y1="152" y2="152"/>
</g>
<g>
<line marker-end="url(#triangle)" x1="616" x2="628" y1="200" y2="200"/>
</g>
<g>
<line marker-end="url(#triangle)" x1="624" x2="620" y1="296" y2="296"/>
<line x1="624" x2="632" y1="296" y2="296"/>
</g>
<g>
<line marker-end="url(#triangle)" x1="632" x2="628" y1="152" y2="152"/>
<line x1="632" x2="640" y1="152" y2="152"/>
</g>
<g>
<line marker-end="url(#triangle)" x1="656" x2="668" y1="200" y2="200"/>
</g>
<g>
<line marker-end="url(#triangle)" x1="664" x2="660" y1="296" y2="296"/>
<line x1="664" x2="672" y1="296" y2="296"/>
</g>
<g>
<line marker-end="url(#triangle)" x1="672" x2="668" y1="152" y2="152"/>
<line x1="672" x2="680" y1="152" y2="152"/>
</g>
<g>
<line marker-end="url(#triangle)" x1="696" x2="708" y1="200" y2="200"/>
</g>
<g>
<line marker-end="url(#triangle)" x1="704" x2="700" y1="296" y2="296"/>
<line x1="704" x2="712" y1="296" y2="296"/>
</g>
<g>
<line marker-end="url(#triangle)" x1="712" x2="708" y1="152" y2="152"/>
<line x1="712" x2="720" y1="152" y2="152"/>
</g>
<g>
<line x1="728" x2="736" y1="208" y2="224"/>
</g>
<g>
<line x1="728" x2="736" y1="288" y2="272"/>
</g>
<g>
<line marker-end="url(#triangle)" x1="752" x2="764" y1="232" y2="232"/>
</g>
<g>
<line marker-end="url(#triangle)" x1="760" x2="756" y1="264" y2="264"/>
<line x1="760" x2="768" y1="264" y2="264"/>
</g>
<g>
<line marker-end="url(#triangle)" x1="792" x2="804" y1="232" y2="232"/>
</g>
<g>
<line marker-end="url(#triangle)" x1="800" x2="796" y1="264" y2="264"/>
<line x1="800" x2="808" y1="264" y2="264"/>
</g>
<g>
<text x="1" y="252">
ter
</text>
</g>
<g>
<text x="33" y="44">
A DNA polymerase attaches to the tip of the replication fork at
</text>
</g>
<g>
<text x="33" y="60">
the forward half-strand, roughly every 2000 nucleotide opening,
</text>
</g>
<g>
<text x="33" y="76">
to produce a small segment of DNA called an Okazaki fragment.
</text>
</g>
<g>
<text x="49" y="236">
5&#39;
</text>
</g>
<g>
<text x="49" y="268">
3&#39;
</text>
</g>
<g>
<text x="73" y="236">
.
</text>
</g>
<g>
<text x="73" y="268">
.
</text>
</g>
<g>
<text x="89" y="236">
.
</text>
</g>
<g>
<text x="89" y="268">
.
</text>
</g>
<g>
<text x="105" y="236">
.
</text>
</g>
<g>
<text x="105" y="268">
.
</text>
</g>
<g>
<text x="121" y="236">
A
</text>
</g>
<g>
<text x="121" y="268">
T
</text>
</g>
<g>
<text x="161" y="236">
C
</text>
</g>
<g>
<text x="161" y="268">
G
</text>
</g>
<g>
<text x="201" y="236">
T
</text>
</g>
<g>
<text x="201" y="268">
A
</text>
</g>
<g>
<text x="241" y="204">
A
</text>
</g>
<g>
<text x="241" y="300">
T
</text>
</g>
<g>
<text x="241" y="348">
A
</text>
</g>
<g>
<text x="281" y="204">
C
</text>
</g>
<g>
<text x="281" y="300">
G
</text>
</g>
<g>
<text x="281" y="348">
C
</text>
</g>
<g>
<text x="321" y="204">
C
</text>
</g>
<g>
<text x="321" y="300">
G
</text>
</g>
<g>
<text x="321" y="348">
C
</text>
</g>
<g>
<text x="361" y="204">
G
</text>
</g>
<g>
<text x="361" y="300">
C
</text>
</g>
<g>
<text x="361" y="348">
G
</text>
</g>
<g>
<text x="369" y="12">
DNA polymerase synthesizing the forward half-strand
</text>
</g>
<g>
<text x="401" y="204">
A
</text>
</g>
<g>
<text x="401" y="300">
T
</text>
</g>
<g>
<text x="401" y="348">
A
</text>
</g>
<g>
<text x="441" y="204">
.
</text>
</g>
<g>
<text x="441" y="300">
.
</text>
</g>
<g>
<text x="457" y="204">
.
</text>
</g>
<g>
<text x="457" y="300">
.
</text>
</g>
<g>
<text x="473" y="108">
ori
</text>
</g>
<g>
<text x="473" y="204">
.
</text>
</g>
<g>
<text x="473" y="300">
.
</text>
</g>
<g>
<text x="473" y="396">
ori
</text>
</g>
<g>
<text x="489" y="204">
.
</text>
</g>
<g>
<text x="489" y="300">
.
</text>
</g>
<g>
<text x="505" y="204">
.
</text>
</g>
<g>
<text x="505" y="300">
.
</text>
</g>
<g>
<text x="521" y="204">
.
</text>
</g>
<g>
<text x="521" y="300">
.
</text>
</g>
<g>
<text x="561" y="204">
G
</text>
</g>
<g>
<text x="561" y="300">
C
</text>
</g>
<g>
<text x="569" y="156">
C
</text>
</g>
<g>
<text x="601" y="204">
A
</text>
</g>
<g>
<text x="601" y="300">
T
</text>
</g>
<g>
<text x="609" y="156">
T
</text>
</g>
<g>
<text x="641" y="204">
A
</text>
</g>
<g>
<text x="641" y="300">
T
</text>
</g>
<g>
<text x="649" y="156">
T
</text>
</g>
<g>
<text x="681" y="204">
A
</text>
</g>
<g>
<text x="681" y="300">
T
</text>
</g>
<g>
<text x="689" y="156">
T
</text>
</g>
<g>
<text x="721" y="204">
C
</text>
</g>
<g>
<text x="721" y="300">
G
</text>
</g>
<g>
<text x="729" y="156">
G
</text>
</g>
<g>
<text x="737" y="236">
A
</text>
</g>
<g>
<text x="737" y="268">
T
</text>
</g>
<g>
<text x="777" y="236">
C
</text>
</g>
<g>
<text x="777" y="268">
G
</text>
</g>
<g>
<text x="817" y="236">
T
</text>
</g>
<g>
<text x="817" y="268">
A
</text>
</g>
<g>
<text x="833" y="236">
.
</text>
</g>
<g>
<text x="833" y="268">
.
</text>
</g>
<g>
<text x="849" y="236">
.
</text>
</g>
<g>
<text x="849" y="268">
.
</text>
</g>
<g>
<text x="865" y="236">
.
</text>
</g>
<g>
<text x="865" y="268">
.
</text>
</g>
<g>
<text x="881" y="236">
3&#39;
</text>
</g>
<g>
<text x="881" y="268">
5&#39;
</text>
</g>
<g>
<text x="913" y="252">
ter
</text>
</g>
</svg>
