<svg class="bob" font-family="arial" font-size="14" height="112" width="560" xmlns="http://www.w3.org/2000/svg">
<defs>
<marker id="triangle" markerHeight="8" markerWidth="8" orient="auto" refX="4" refY="2" viewBox="0 0 8 4">
<polygon class="fg_fill" points="0,0 0,4 8,2 0,0"/>
</marker>
<marker id="clear_triangle" markerHeight="10" markerWidth="10" orient="auto" refX="1" refY="7" viewBox="0 0 20 14">
<polygon class="bg_fill" points="2,2 2,12 18,7 2,2"/>
</marker>
<marker id="circle" markerHeight="5" markerWidth="5" orient="auto" refX="10" refY="10" viewBox="0 0 20 20">
<circle class="fg_fill" cx="10" cy="10" r="8"/>
</marker>
<marker id="square" markerHeight="5" markerWidth="5" orient="auto" refX="10" refY="10" viewBox="0 0 20 20">
<rect class="fg_fill" height="20" width="20" x="0" y="0"/>
</marker>
<marker id="open_circle" markerHeight="10" markerWidth="10" orient="auto" refX="10" refY="10" viewBox="0 0 20 20">
<circle class="bg_fill" cx="10" cy="10" r="4"/>
</marker>
<marker id="big_open_circle" markerHeight="20" markerWidth="20" orient="auto" refX="20" refY="20" viewBox="0 0 40 40">
<circle class="bg_fill" cx="20" cy="20" r="6"/>
</marker>
</defs>
<style type="text/css">

rect.backdrop {
    fill: white;
}
text{
    fill: black;
}

circle {
    fill: none;
    stroke: black;
    stroke-width: 2;
}

line {
    stroke: black;
    stroke-width: 2;
    stroke-opacity: 1;
    fill-opacity: 1;
    stroke-linecap: round;
    stroke-linejoin: miter;
}

path {
    fill: none;
    stroke: black;
    stroke-width: 2;
    stroke-opacity: 1;
    fill-opacity: 1;
    stroke-linecap: round;
    stroke-linejoin: miter;
}

line.dashed {
    stroke-dasharray: 5;
}

.fg_fill {
    fill: black;
}


.bg_fill {
    fill: white;
    stroke: black;
    stroke-width: 2;
}

tspan.head{
    fill: none;
    stroke: none;
}
    
</style>
<rect class="backdrop" height="112" width="560" x="0" y="0"/>
<g>
<line x1="4" x2="4" y1="40" y2="72"/>
<line x1="4" x2="556" y1="40" y2="40"/>
<line x1="4" x2="52" y1="72" y2="72"/>
<line x1="52" x2="52" y1="72" y2="96"/>
<line x1="52" x2="196" y1="72" y2="72"/>
<line x1="196" x2="196" y1="72" y2="96"/>
<line x1="196" x2="460" y1="72" y2="72"/>
<line x1="460" x2="460" y1="72" y2="96"/>
<line x1="460" x2="556" y1="72" y2="72"/>
<line x1="556" x2="556" y1="40" y2="72"/>
</g>
<g>
<line class="dashed" x1="36" x2="36" y1="48" y2="64"/>
</g>
<g>
<line class="dashed" x1="68" x2="68" y1="48" y2="64"/>
</g>
<g>
<line class="dashed" x1="180" x2="180" y1="48" y2="64"/>
</g>
<g>
<line class="dashed" x1="212" x2="212" y1="48" y2="64"/>
</g>
<g>
<line class="dashed" x1="444" x2="444" y1="48" y2="64"/>
</g>
<g>
<line class="dashed" x1="476" x2="476" y1="48" y2="64"/>
</g>
<g>
<text x="17" y="108">
DnaA
</text>
</g>
<g>
<text x="57" y="108">
box
</text>
</g>
<g>
<text x="161" y="108">
DnaA
</text>
</g>
<g>
<text x="169" y="12">
DnaA
</text>
</g>
<g>
<text x="201" y="108">
box
</text>
</g>
<g>
<text x="209" y="12">
boxes
</text>
</g>
<g>
<text x="257" y="12">
within
</text>
</g>
<g>
<text x="313" y="12">
the
</text>
</g>
<g>
<text x="345" y="12">
ori
</text>
</g>
<g>
<text x="425" y="108">
DnaA
</text>
</g>
<g>
<text x="465" y="108">
box
</text>
</g>
</svg>
