<svg class="bob" font-family="arial" font-size="14" height="208" width="392" xmlns="http://www.w3.org/2000/svg">
<defs>
<marker id="triangle" markerHeight="8" markerWidth="8" orient="auto" refX="4" refY="2" viewBox="0 0 8 4">
<polygon class="fg_fill" points="0,0 0,4 8,2 0,0"/>
</marker>
<marker id="clear_triangle" markerHeight="10" markerWidth="10" orient="auto" refX="1" refY="7" viewBox="0 0 20 14">
<polygon class="bg_fill" points="2,2 2,12 18,7 2,2"/>
</marker>
<marker id="circle" markerHeight="5" markerWidth="5" orient="auto" refX="10" refY="10" viewBox="0 0 20 20">
<circle class="fg_fill" cx="10" cy="10" r="8"/>
</marker>
<marker id="square" markerHeight="5" markerWidth="5" orient="auto" refX="10" refY="10" viewBox="0 0 20 20">
<rect class="fg_fill" height="20" width="20" x="0" y="0"/>
</marker>
<marker id="open_circle" markerHeight="10" markerWidth="10" orient="auto" refX="10" refY="10" viewBox="0 0 20 20">
<circle class="bg_fill" cx="10" cy="10" r="4"/>
</marker>
<marker id="big_open_circle" markerHeight="20" markerWidth="20" orient="auto" refX="20" refY="20" viewBox="0 0 40 40">
<circle class="bg_fill" cx="20" cy="20" r="6"/>
</marker>
</defs>
<style type="text/css">

rect.backdrop {
    fill: white;
}
text{
    fill: black;
}

circle {
    fill: none;
    stroke: black;
    stroke-width: 2;
}

line {
    stroke: black;
    stroke-width: 2;
    stroke-opacity: 1;
    fill-opacity: 1;
    stroke-linecap: round;
    stroke-linejoin: miter;
}

path {
    fill: none;
    stroke: black;
    stroke-width: 2;
    stroke-opacity: 1;
    fill-opacity: 1;
    stroke-linecap: round;
    stroke-linejoin: miter;
}

line.dashed {
    stroke-dasharray: 5;
}

.fg_fill {
    fill: black;
}


.bg_fill {
    fill: white;
    stroke: black;
    stroke-width: 2;
}

tspan.head{
    fill: none;
    stroke: none;
}
    
</style>
<rect class="backdrop" height="208" width="392" x="0" y="0"/>
<g>
<text x="1" y="44">
1:
</text>
</g>
<g>
<text x="1" y="60">
2:
</text>
</g>
<g>
<text x="1" y="76">
3:
</text>
</g>
<g>
<text x="1" y="92">
4:
</text>
</g>
<g>
<text x="1" y="108">
5:
</text>
</g>
<g>
<text x="1" y="124">
6:
</text>
</g>
<g>
<text x="1" y="140">
7:
</text>
</g>
<g>
<text x="1" y="156">
8:
</text>
</g>
<g>
<text x="1" y="172">
String:
</text>
</g>
<g>
<text x="1" y="204">
Coverage:
</text>
</g>
<g>
<text x="89" y="12">
Read coverage for each 1-mer
</text>
</g>
<g>
<text x="97" y="44">
A
</text>
</g>
<g>
<text x="97" y="172">
A
</text>
</g>
<g>
<text x="97" y="204">
1
</text>
</g>
<g>
<text x="113" y="44">
C
</text>
</g>
<g>
<text x="113" y="60">
C
</text>
</g>
<g>
<text x="113" y="172">
C
</text>
</g>
<g>
<text x="113" y="204">
2
</text>
</g>
<g>
<text x="129" y="44">
T
</text>
</g>
<g>
<text x="129" y="60">
T
</text>
</g>
<g>
<text x="129" y="76">
T
</text>
</g>
<g>
<text x="129" y="172">
T
</text>
</g>
<g>
<text x="129" y="204">
3
</text>
</g>
<g>
<text x="145" y="44">
A
</text>
</g>
<g>
<text x="145" y="60">
A
</text>
</g>
<g>
<text x="145" y="76">
A
</text>
</g>
<g>
<text x="145" y="172">
A
</text>
</g>
<g>
<text x="145" y="204">
3
</text>
</g>
<g>
<text x="161" y="44">
A
</text>
</g>
<g>
<text x="161" y="60">
A
</text>
</g>
<g>
<text x="161" y="76">
A
</text>
</g>
<g>
<text x="161" y="92">
A
</text>
</g>
<g>
<text x="161" y="172">
A
</text>
</g>
<g>
<text x="161" y="204">
4
</text>
</g>
<g>
<text x="177" y="44">
G
</text>
</g>
<g>
<text x="177" y="60">
G
</text>
</g>
<g>
<text x="177" y="76">
G
</text>
</g>
<g>
<text x="177" y="92">
G
</text>
</g>
<g>
<text x="177" y="172">
G
</text>
</g>
<g>
<text x="177" y="204">
4
</text>
</g>
<g>
<text x="193" y="44">
A
</text>
</g>
<g>
<text x="193" y="60">
A
</text>
</g>
<g>
<text x="193" y="76">
A
</text>
</g>
<g>
<text x="193" y="92">
A
</text>
</g>
<g>
<text x="193" y="108">
A
</text>
</g>
<g>
<text x="193" y="172">
A
</text>
</g>
<g>
<text x="193" y="204">
5
</text>
</g>
<g>
<text x="209" y="60">
A
</text>
</g>
<g>
<text x="209" y="76">
A
</text>
</g>
<g>
<text x="209" y="92">
A
</text>
</g>
<g>
<text x="209" y="108">
A
</text>
</g>
<g>
<text x="209" y="172">
A
</text>
</g>
<g>
<text x="209" y="204">
4
</text>
</g>
<g>
<text x="225" y="76">
C
</text>
</g>
<g>
<text x="225" y="92">
C
</text>
</g>
<g>
<text x="225" y="108">
C
</text>
</g>
<g>
<text x="225" y="172">
C
</text>
</g>
<g>
<text x="225" y="204">
3
</text>
</g>
<g>
<text x="241" y="92">
C
</text>
</g>
<g>
<text x="241" y="108">
C
</text>
</g>
<g>
<text x="241" y="124">
C
</text>
</g>
<g>
<text x="241" y="172">
C
</text>
</g>
<g>
<text x="241" y="204">
3
</text>
</g>
<g>
<text x="257" y="92">
T
</text>
</g>
<g>
<text x="257" y="108">
T
</text>
</g>
<g>
<text x="257" y="124">
T
</text>
</g>
<g>
<text x="257" y="172">
T
</text>
</g>
<g>
<text x="257" y="204">
3
</text>
</g>
<g>
<text x="273" y="108">
A
</text>
</g>
<g>
<text x="273" y="124">
A
</text>
</g>
<g>
<text x="273" y="140">
A
</text>
</g>
<g>
<text x="273" y="172">
A
</text>
</g>
<g>
<text x="273" y="204">
3
</text>
</g>
<g>
<text x="289" y="108">
A
</text>
</g>
<g>
<text x="289" y="124">
A
</text>
</g>
<g>
<text x="289" y="140">
A
</text>
</g>
<g>
<text x="289" y="156">
A
</text>
</g>
<g>
<text x="289" y="172">
A
</text>
</g>
<g>
<text x="289" y="204">
4
</text>
</g>
<g>
<text x="305" y="124">
T
</text>
</g>
<g>
<text x="305" y="140">
T
</text>
</g>
<g>
<text x="305" y="156">
T
</text>
</g>
<g>
<text x="305" y="172">
T
</text>
</g>
<g>
<text x="305" y="204">
3
</text>
</g>
<g>
<text x="321" y="124">
T
</text>
</g>
<g>
<text x="321" y="140">
T
</text>
</g>
<g>
<text x="321" y="156">
T
</text>
</g>
<g>
<text x="321" y="172">
T
</text>
</g>
<g>
<text x="321" y="204">
3
</text>
</g>
<g>
<text x="337" y="124">
T
</text>
</g>
<g>
<text x="337" y="140">
T
</text>
</g>
<g>
<text x="337" y="156">
T
</text>
</g>
<g>
<text x="337" y="172">
T
</text>
</g>
<g>
<text x="337" y="204">
3
</text>
</g>
<g>
<text x="353" y="140">
A
</text>
</g>
<g>
<text x="353" y="156">
A
</text>
</g>
<g>
<text x="353" y="172">
A
</text>
</g>
<g>
<text x="353" y="204">
2
</text>
</g>
<g>
<text x="369" y="140">
G
</text>
</g>
<g>
<text x="369" y="156">
G
</text>
</g>
<g>
<text x="369" y="172">
G
</text>
</g>
<g>
<text x="369" y="204">
2
</text>
</g>
<g>
<text x="385" y="156">
C
</text>
</g>
<g>
<text x="385" y="172">
C
</text>
</g>
<g>
<text x="385" y="204">
1
</text>
</g>
</svg>
