<svg class="bob" font-family="arial" font-size="14" height="400" width="568" xmlns="http://www.w3.org/2000/svg">
<defs>
<marker id="triangle" markerHeight="8" markerWidth="8" orient="auto" refX="4" refY="2" viewBox="0 0 8 4">
<polygon class="fg_fill" points="0,0 0,4 8,2 0,0"/>
</marker>
<marker id="clear_triangle" markerHeight="10" markerWidth="10" orient="auto" refX="1" refY="7" viewBox="0 0 20 14">
<polygon class="bg_fill" points="2,2 2,12 18,7 2,2"/>
</marker>
<marker id="circle" markerHeight="5" markerWidth="5" orient="auto" refX="10" refY="10" viewBox="0 0 20 20">
<circle class="fg_fill" cx="10" cy="10" r="8"/>
</marker>
<marker id="square" markerHeight="5" markerWidth="5" orient="auto" refX="10" refY="10" viewBox="0 0 20 20">
<rect class="fg_fill" height="20" width="20" x="0" y="0"/>
</marker>
<marker id="open_circle" markerHeight="10" markerWidth="10" orient="auto" refX="10" refY="10" viewBox="0 0 20 20">
<circle class="bg_fill" cx="10" cy="10" r="4"/>
</marker>
<marker id="big_open_circle" markerHeight="20" markerWidth="20" orient="auto" refX="20" refY="20" viewBox="0 0 40 40">
<circle class="bg_fill" cx="20" cy="20" r="6"/>
</marker>
</defs>
<style type="text/css">

rect.backdrop {
    fill: white;
}
text{
    fill: black;
}

circle {
    fill: none;
    stroke: black;
    stroke-width: 2;
}

line {
    stroke: black;
    stroke-width: 2;
    stroke-opacity: 1;
    fill-opacity: 1;
    stroke-linecap: round;
    stroke-linejoin: miter;
}

path {
    fill: none;
    stroke: black;
    stroke-width: 2;
    stroke-opacity: 1;
    fill-opacity: 1;
    stroke-linecap: round;
    stroke-linejoin: miter;
}

line.dashed {
    stroke-dasharray: 5;
}

.fg_fill {
    fill: black;
}


.bg_fill {
    fill: white;
    stroke: black;
    stroke-width: 2;
}

tspan.head{
    fill: none;
    stroke: none;
}
    
</style>
<rect class="backdrop" height="400" width="568" x="0" y="0"/>
<g>
<line marker-end="url(#triangle)" x1="36" x2="36" y1="284" y2="316"/>
<path d="M 40 280 A 4 4 0 0 0 36 284"/>
</g>
<g>
<line x1="36" x2="36" y1="320" y2="356"/>
<path d="M 36 356 A 4 4 0 0 0 40 360"/>
</g>
<g>
<line x1="40" x2="64" y1="280" y2="280"/>
</g>
<g>
<line marker-end="url(#triangle)" x1="40" x2="52" y1="360" y2="360"/>
<line marker-start="url(#triangle)" x1="48" x2="52" y1="360" y2="360"/>
</g>
<g>
<line x1="56" x2="80" y1="360" y2="360"/>
</g>
<g>
<line marker-start="url(#triangle)" x1="72" x2="68" y1="280" y2="280"/>
<line marker-end="url(#triangle)" x1="72" x2="68" y1="280" y2="280"/>
<line x1="72" x2="80" y1="280" y2="280"/>
</g>
<g>
<line marker-end="url(#triangle)" x1="128" x2="140" y1="248" y2="248"/>
<line marker-start="url(#triangle)" x1="136" x2="140" y1="248" y2="248"/>
</g>
<g>
<line x1="128" x2="152" y1="392" y2="392"/>
</g>
<g>
<line marker-end="url(#triangle)" x1="144" x2="188" y1="248" y2="248"/>
<line marker-start="url(#triangle)" x1="184" x2="188" y1="248" y2="248"/>
</g>
<g>
<line marker-start="url(#triangle)" x1="160" x2="156" y1="392" y2="392"/>
<line marker-end="url(#triangle)" x1="160" x2="156" y1="392" y2="392"/>
<line x1="160" x2="184" y1="392" y2="392"/>
</g>
<g>
<line x1="180" x2="180" y1="28" y2="164"/>
<path d="M 180 164 A 4 4 0 0 0 184 168"/>
<path d="M 184 24 A 4 4 0 0 0 180 28"/>
</g>
<g>
<line x1="184" x2="264" y1="24" y2="24"/>
</g>
<g>
<line x1="184" x2="264" y1="168" y2="168"/>
</g>
<g>
<line x1="192" x2="200" y1="56" y2="56"/>
</g>
<g>
<line x1="192" x2="200" y1="72" y2="72"/>
</g>
<g>
<line x1="192" x2="200" y1="88" y2="88"/>
</g>
<g>
<line x1="192" x2="200" y1="104" y2="104"/>
</g>
<g>
<line x1="192" x2="200" y1="120" y2="120"/>
</g>
<g>
<line x1="192" x2="200" y1="136" y2="136"/>
</g>
<g>
<line x1="192" x2="208" y1="248" y2="248"/>
<path d="M 212 252 A 4 4 0 0 0 208 248"/>
</g>
<g>
<line marker-start="url(#triangle)" x1="192" x2="188" y1="392" y2="392"/>
<line marker-end="url(#triangle)" x1="192" x2="188" y1="392" y2="392"/>
<line x1="192" x2="208" y1="392" y2="392"/>
<path d="M 208 392 A 4 4 0 0 0 212 388"/>
</g>
<g>
<line x1="212" x2="212" y1="32" y2="48"/>
</g>
<g>
<line x1="212" x2="212" y1="64" y2="128"/>
</g>
<g>
<line x1="212" x2="212" y1="144" y2="160"/>
</g>
<g>
<line marker-end="url(#triangle)" x1="212" x2="212" y1="252" y2="284"/>
</g>
<g>
<line marker-end="url(#triangle)" x1="212" x2="212" y1="288" y2="316"/>
</g>
<g>
<line marker-end="url(#triangle)" x1="212" x2="212" y1="320" y2="348"/>
</g>
<g>
<line x1="212" x2="212" y1="352" y2="388"/>
</g>
<g>
<line x1="216" x2="264" y1="56" y2="56"/>
</g>
<g>
<line x1="216" x2="264" y1="136" y2="136"/>
</g>
<g>
<line x1="228" x2="228" y1="32" y2="48"/>
</g>
<g>
<line x1="228" x2="228" y1="144" y2="160"/>
</g>
<g>
<line x1="244" x2="244" y1="32" y2="48"/>
</g>
<g>
<line x1="244" x2="244" y1="144" y2="160"/>
</g>
<g>
<line x1="260" x2="260" y1="32" y2="48"/>
</g>
<g>
<line x1="260" x2="260" y1="144" y2="160"/>
</g>
<g>
<line marker-end="url(#triangle)" x1="264" x2="300" y1="8" y2="8"/>
</g>
<g>
<line marker-end="url(#triangle)" x1="272" x2="268" y1="72" y2="72"/>
<line x1="272" x2="304" y1="72" y2="72"/>
</g>
<g>
<line x1="276" x2="276" y1="32" y2="48"/>
</g>
<g>
<line x1="276" x2="276" y1="144" y2="160"/>
</g>
<g>
<line x1="292" x2="292" y1="32" y2="48"/>
</g>
<g>
<line x1="292" x2="292" y1="144" y2="160"/>
</g>
<g>
<line x1="304" x2="384" y1="24" y2="24"/>
<path d="M 388 28 A 4 4 0 0 0 384 24"/>
</g>
<g>
<line x1="304" x2="352" y1="56" y2="56"/>
</g>
<g>
<line x1="304" x2="352" y1="136" y2="136"/>
</g>
<g>
<line x1="304" x2="384" y1="168" y2="168"/>
<path d="M 384 168 A 4 4 0 0 0 388 164"/>
</g>
<g>
<line x1="308" x2="308" y1="32" y2="48"/>
</g>
<g>
<line x1="308" x2="308" y1="144" y2="160"/>
</g>
<g>
<line x1="324" x2="324" y1="32" y2="48"/>
</g>
<g>
<line x1="324" x2="324" y1="144" y2="160"/>
</g>
<g>
<line x1="340" x2="340" y1="32" y2="48"/>
</g>
<g>
<line x1="340" x2="340" y1="144" y2="160"/>
</g>
<g>
<line x1="356" x2="356" y1="32" y2="48"/>
</g>
<g>
<line x1="356" x2="356" y1="64" y2="128"/>
</g>
<g>
<line x1="356" x2="356" y1="144" y2="160"/>
</g>
<g>
<line x1="368" x2="376" y1="56" y2="56"/>
</g>
<g>
<line x1="368" x2="376" y1="72" y2="72"/>
</g>
<g>
<line x1="368" x2="376" y1="88" y2="88"/>
</g>
<g>
<line x1="368" x2="376" y1="104" y2="104"/>
</g>
<g>
<line x1="368" x2="376" y1="120" y2="120"/>
</g>
<g>
<line x1="368" x2="376" y1="136" y2="136"/>
</g>
<g>
<line x1="372" x2="372" y1="252" y2="272"/>
<path d="M 376 248 A 4 4 0 0 0 372 252"/>
</g>
<g>
<line marker-end="url(#triangle)" x1="372" x2="372" y1="288" y2="276"/>
<line x1="372" x2="372" y1="288" y2="304"/>
</g>
<g>
<line marker-end="url(#triangle)" x1="372" x2="372" y1="320" y2="308"/>
<line x1="372" x2="372" y1="320" y2="336"/>
</g>
<g>
<line marker-end="url(#triangle)" x1="372" x2="372" y1="352" y2="340"/>
<line x1="372" x2="372" y1="352" y2="388"/>
<path d="M 372 388 A 4 4 0 0 0 376 392"/>
</g>
<g>
<line marker-end="url(#triangle)" x1="376" x2="396" y1="248" y2="248"/>
<line marker-start="url(#triangle)" x1="392" x2="396" y1="248" y2="248"/>
</g>
<g>
<line x1="376" x2="392" y1="392" y2="392"/>
</g>
<g>
<line x1="388" x2="388" y1="28" y2="164"/>
</g>
<g>
<line marker-end="url(#triangle)" x1="400" x2="428" y1="248" y2="248"/>
<line marker-start="url(#triangle)" x1="424" x2="428" y1="248" y2="248"/>
</g>
<g>
<line marker-start="url(#triangle)" x1="400" x2="396" y1="392" y2="392"/>
<line marker-end="url(#triangle)" x1="400" x2="396" y1="392" y2="392"/>
<line x1="400" x2="424" y1="392" y2="392"/>
</g>
<g>
<line x1="432" x2="456" y1="248" y2="248"/>
</g>
<g>
<line marker-start="url(#triangle)" x1="432" x2="428" y1="392" y2="392"/>
<line marker-end="url(#triangle)" x1="432" x2="428" y1="392" y2="392"/>
<line x1="432" x2="456" y1="392" y2="392"/>
</g>
<g>
<line x1="496" x2="520" y1="280" y2="280"/>
</g>
<g>
<line marker-end="url(#triangle)" x1="496" x2="524" y1="360" y2="360"/>
<line marker-start="url(#triangle)" x1="520" x2="524" y1="360" y2="360"/>
</g>
<g>
<line marker-start="url(#triangle)" x1="528" x2="524" y1="280" y2="280"/>
<line marker-end="url(#triangle)" x1="528" x2="524" y1="280" y2="280"/>
<line x1="528" x2="544" y1="280" y2="280"/>
<path d="M 548 284 A 4 4 0 0 0 544 280"/>
</g>
<g>
<line x1="528" x2="544" y1="360" y2="360"/>
<path d="M 544 360 A 4 4 0 0 0 548 356"/>
</g>
<g>
<line x1="548" x2="548" y1="284" y2="320"/>
</g>
<g>
<line marker-end="url(#triangle)" x1="548" x2="548" y1="336" y2="324"/>
<line x1="548" x2="548" y1="336" y2="356"/>
</g>
<g>
<text x="49" y="220">
forward
</text>
</g>
<g>
<text x="97" y="252">
ori
</text>
</g>
<g>
<text x="97" y="284">
ori
</text>
</g>
<g>
<text x="97" y="364">
ter
</text>
</g>
<g>
<text x="97" y="396">
ter
</text>
</g>
<g>
<text x="113" y="220">
half-strands
</text>
</g>
<g>
<text x="241" y="12">
5&#39;
</text>
</g>
<g>
<text x="241" y="76">
3&#39;
</text>
</g>
<g>
<text x="273" y="28">
ori
</text>
</g>
<g>
<text x="273" y="60">
ori
</text>
</g>
<g>
<text x="273" y="140">
ter
</text>
</g>
<g>
<text x="273" y="172">
ter
</text>
</g>
<g>
<text x="313" y="12">
3&#39;
</text>
</g>
<g>
<text x="313" y="76">
5&#39;
</text>
</g>
<g>
<text x="385" y="220">
reverse
</text>
</g>
<g>
<text x="449" y="220">
half-strands
</text>
</g>
<g>
<text x="465" y="252">
ori
</text>
</g>
<g>
<text x="465" y="284">
ori
</text>
</g>
<g>
<text x="465" y="364">
ter
</text>
</g>
<g>
<text x="465" y="396">
ter
</text>
</g>
</svg>
