<svg class="bob" font-family="arial" font-size="14" height="160" width="240" xmlns="http://www.w3.org/2000/svg">
<defs>
<marker id="triangle" markerHeight="8" markerWidth="8" orient="auto" refX="4" refY="2" viewBox="0 0 8 4">
<polygon class="fg_fill" points="0,0 0,4 8,2 0,0"/>
</marker>
<marker id="clear_triangle" markerHeight="10" markerWidth="10" orient="auto" refX="1" refY="7" viewBox="0 0 20 14">
<polygon class="bg_fill" points="2,2 2,12 18,7 2,2"/>
</marker>
<marker id="circle" markerHeight="5" markerWidth="5" orient="auto" refX="10" refY="10" viewBox="0 0 20 20">
<circle class="fg_fill" cx="10" cy="10" r="8"/>
</marker>
<marker id="square" markerHeight="5" markerWidth="5" orient="auto" refX="10" refY="10" viewBox="0 0 20 20">
<rect class="fg_fill" height="20" width="20" x="0" y="0"/>
</marker>
<marker id="open_circle" markerHeight="10" markerWidth="10" orient="auto" refX="10" refY="10" viewBox="0 0 20 20">
<circle class="bg_fill" cx="10" cy="10" r="4"/>
</marker>
<marker id="big_open_circle" markerHeight="20" markerWidth="20" orient="auto" refX="20" refY="20" viewBox="0 0 40 40">
<circle class="bg_fill" cx="20" cy="20" r="6"/>
</marker>
</defs>
<style type="text/css">

rect.backdrop {
    fill: white;
}
text{
    fill: black;
}

circle {
    fill: none;
    stroke: black;
    stroke-width: 2;
}

line {
    stroke: black;
    stroke-width: 2;
    stroke-opacity: 1;
    fill-opacity: 1;
    stroke-linecap: round;
    stroke-linejoin: miter;
}

path {
    fill: none;
    stroke: black;
    stroke-width: 2;
    stroke-opacity: 1;
    fill-opacity: 1;
    stroke-linecap: round;
    stroke-linejoin: miter;
}

line.dashed {
    stroke-dasharray: 5;
}

.fg_fill {
    fill: black;
}


.bg_fill {
    fill: white;
    stroke: black;
    stroke-width: 2;
}

tspan.head{
    fill: none;
    stroke: none;
}
    
</style>
<rect class="backdrop" height="160" width="240" x="0" y="0"/>
<g>
<line x1="24" x2="44" y1="88" y2="88"/>
<line x1="44" x2="44" y1="60" y2="88"/>
<line x1="44" x2="44" y1="88" y2="116"/>
<path d="M 44 116 A 4 4 0 0 0 48 120"/>
<path d="M 48 56 A 4 4 0 0 0 44 60"/>
</g>
<g>
<line marker-end="url(#triangle)" x1="48" x2="68" y1="56" y2="56"/>
</g>
<g>
<line marker-end="url(#triangle)" x1="48" x2="68" y1="120" y2="120"/>
</g>
<g>
<line marker-end="url(#triangle)" x1="104" x2="124" y1="56" y2="56"/>
</g>
<g>
<line marker-end="url(#triangle)" x1="104" x2="124" y1="120" y2="120"/>
</g>
<g>
<line x1="160" x2="176" y1="56" y2="56"/>
<path d="M 180 60 A 4 4 0 0 0 176 56"/>
</g>
<g>
<line x1="160" x2="176" y1="120" y2="120"/>
<path d="M 176 120 A 4 4 0 0 0 180 116"/>
</g>
<g>
<line x1="180" x2="180" y1="60" y2="88"/>
<line x1="180" x2="180" y1="88" y2="116"/>
<line marker-end="url(#triangle)" x1="180" x2="204" y1="88" y2="88"/>
</g>
<g>
<text x="1" y="12">
ATTGG = [AT, TT, TG, GG]
</text>
</g>
<g>
<text x="1" y="28">
ATCGG = [AT, TC, CG, GG]
</text>
</g>
<g>
<text x="1" y="92">
AT
</text>
</g>
<g>
<text x="1" y="156">
This is a bubble
</text>
</g>
<g>
<text x="81" y="60">
TC
</text>
</g>
<g>
<text x="81" y="124">
TT
</text>
</g>
<g>
<text x="137" y="60">
CG
</text>
</g>
<g>
<text x="137" y="124">
TG
</text>
</g>
<g>
<text x="217" y="92">
GG
</text>
</g>
</svg>
