<svg class="bob" font-family="arial" font-size="14" height="272" width="744" xmlns="http://www.w3.org/2000/svg">
<defs>
<marker id="triangle" markerHeight="8" markerWidth="8" orient="auto" refX="4" refY="2" viewBox="0 0 8 4">
<polygon class="fg_fill" points="0,0 0,4 8,2 0,0"/>
</marker>
<marker id="clear_triangle" markerHeight="10" markerWidth="10" orient="auto" refX="1" refY="7" viewBox="0 0 20 14">
<polygon class="bg_fill" points="2,2 2,12 18,7 2,2"/>
</marker>
<marker id="circle" markerHeight="5" markerWidth="5" orient="auto" refX="10" refY="10" viewBox="0 0 20 20">
<circle class="fg_fill" cx="10" cy="10" r="8"/>
</marker>
<marker id="square" markerHeight="5" markerWidth="5" orient="auto" refX="10" refY="10" viewBox="0 0 20 20">
<rect class="fg_fill" height="20" width="20" x="0" y="0"/>
</marker>
<marker id="open_circle" markerHeight="10" markerWidth="10" orient="auto" refX="10" refY="10" viewBox="0 0 20 20">
<circle class="bg_fill" cx="10" cy="10" r="4"/>
</marker>
<marker id="big_open_circle" markerHeight="20" markerWidth="20" orient="auto" refX="20" refY="20" viewBox="0 0 40 40">
<circle class="bg_fill" cx="20" cy="20" r="6"/>
</marker>
</defs>
<style type="text/css">

rect.backdrop {
    fill: white;
}
text{
    fill: black;
}

circle {
    fill: none;
    stroke: black;
    stroke-width: 2;
}

line {
    stroke: black;
    stroke-width: 2;
    stroke-opacity: 1;
    fill-opacity: 1;
    stroke-linecap: round;
    stroke-linejoin: miter;
}

path {
    fill: none;
    stroke: black;
    stroke-width: 2;
    stroke-opacity: 1;
    fill-opacity: 1;
    stroke-linecap: round;
    stroke-linejoin: miter;
}

line.dashed {
    stroke-dasharray: 5;
}

.fg_fill {
    fill: black;
}


.bg_fill {
    fill: white;
    stroke: black;
    stroke-width: 2;
}

tspan.head{
    fill: none;
    stroke: none;
}
    
</style>
<rect class="backdrop" height="272" width="744" x="0" y="0"/>
<g>
<line x1="4" x2="4" y1="80" y2="96"/>
</g>
<g>
<line x1="4" x2="100" y1="88" y2="88"/>
</g>
<g>
<line x1="20" x2="20" y1="128" y2="144"/>
</g>
<g>
<line x1="20" x2="116" y1="136" y2="136"/>
</g>
<g>
<line x1="36" x2="36" y1="32" y2="48"/>
</g>
<g>
<line x1="36" x2="132" y1="40" y2="40"/>
</g>
<g>
<line x1="68" x2="68" y1="176" y2="192"/>
</g>
<g>
<line x1="68" x2="164" y1="184" y2="184"/>
</g>
<g>
<line x1="100" x2="100" y1="80" y2="96"/>
</g>
<g>
<line x1="100" x2="100" y1="224" y2="240"/>
</g>
<g>
<line x1="100" x2="196" y1="232" y2="232"/>
</g>
<g>
<line x1="116" x2="116" y1="128" y2="144"/>
</g>
<g>
<line x1="132" x2="132" y1="32" y2="48"/>
</g>
<g>
<line x1="148" x2="148" y1="32" y2="48"/>
</g>
<g>
<line x1="148" x2="244" y1="40" y2="40"/>
</g>
<g>
<line x1="164" x2="164" y1="176" y2="192"/>
</g>
<g>
<line x1="180" x2="180" y1="176" y2="192"/>
</g>
<g>
<line x1="180" x2="276" y1="184" y2="184"/>
</g>
<g>
<line x1="196" x2="196" y1="80" y2="96"/>
</g>
<g>
<line x1="196" x2="292" y1="88" y2="88"/>
</g>
<g>
<line x1="196" x2="196" y1="128" y2="144"/>
</g>
<g>
<line x1="196" x2="292" y1="136" y2="136"/>
</g>
<g>
<line x1="196" x2="196" y1="224" y2="240"/>
</g>
<g>
<line x1="244" x2="244" y1="32" y2="48"/>
</g>
<g>
<line x1="276" x2="276" y1="176" y2="192"/>
</g>
<g>
<line x1="292" x2="292" y1="80" y2="96"/>
</g>
<g>
<line x1="292" x2="292" y1="128" y2="144"/>
</g>
<g>
<line marker-end="url(#triangle)" x1="344" x2="404" y1="120" y2="120"/>
</g>
<g>
<text x="1" y="60">
A
</text>
</g>
<g>
<text x="1" y="108">
A
</text>
</g>
<g>
<text x="1" y="156">
A
</text>
</g>
<g>
<text x="1" y="204">
A
</text>
</g>
<g>
<text x="1" y="252">
A
</text>
</g>
<g>
<text x="17" y="60">
C
</text>
</g>
<g>
<text x="17" y="108">
C
</text>
</g>
<g>
<text x="17" y="156">
C
</text>
</g>
<g>
<text x="17" y="204">
C
</text>
</g>
<g>
<text x="17" y="252">
C
</text>
</g>
<g>
<text x="33" y="60">
T
</text>
</g>
<g>
<text x="33" y="108">
T
</text>
</g>
<g>
<text x="33" y="156">
T
</text>
</g>
<g>
<text x="33" y="204">
T
</text>
</g>
<g>
<text x="33" y="252">
T
</text>
</g>
<g>
<text x="49" y="60">
A
</text>
</g>
<g>
<text x="49" y="108">
A
</text>
</g>
<g>
<text x="49" y="156">
A
</text>
</g>
<g>
<text x="49" y="204">
A
</text>
</g>
<g>
<text x="49" y="252">
A
</text>
</g>
<g>
<text x="65" y="12">
Capture DNA fragments
</text>
</g>
<g>
<text x="65" y="60">
A
</text>
</g>
<g>
<text x="65" y="108">
A
</text>
</g>
<g>
<text x="65" y="156">
A
</text>
</g>
<g>
<text x="65" y="204">
A
</text>
</g>
<g>
<text x="65" y="252">
A
</text>
</g>
<g>
<text x="81" y="60">
G
</text>
</g>
<g>
<text x="81" y="108">
G
</text>
</g>
<g>
<text x="81" y="156">
G
</text>
</g>
<g>
<text x="81" y="204">
G
</text>
</g>
<g>
<text x="81" y="252">
G
</text>
</g>
<g>
<text x="97" y="60">
A
</text>
</g>
<g>
<text x="97" y="108">
A
</text>
</g>
<g>
<text x="97" y="156">
A
</text>
</g>
<g>
<text x="97" y="204">
A
</text>
</g>
<g>
<text x="97" y="252">
A
</text>
</g>
<g>
<text x="113" y="60">
A
</text>
</g>
<g>
<text x="113" y="108">
A
</text>
</g>
<g>
<text x="113" y="156">
A
</text>
</g>
<g>
<text x="113" y="204">
A
</text>
</g>
<g>
<text x="113" y="252">
A
</text>
</g>
<g>
<text x="129" y="60">
C
</text>
</g>
<g>
<text x="129" y="108">
C
</text>
</g>
<g>
<text x="129" y="156">
C
</text>
</g>
<g>
<text x="129" y="204">
C
</text>
</g>
<g>
<text x="129" y="252">
C
</text>
</g>
<g>
<text x="145" y="60">
C
</text>
</g>
<g>
<text x="145" y="108">
C
</text>
</g>
<g>
<text x="145" y="156">
C
</text>
</g>
<g>
<text x="145" y="204">
C
</text>
</g>
<g>
<text x="145" y="252">
C
</text>
</g>
<g>
<text x="161" y="60">
T
</text>
</g>
<g>
<text x="161" y="108">
T
</text>
</g>
<g>
<text x="161" y="156">
T
</text>
</g>
<g>
<text x="161" y="204">
T
</text>
</g>
<g>
<text x="161" y="252">
T
</text>
</g>
<g>
<text x="177" y="60">
A
</text>
</g>
<g>
<text x="177" y="108">
A
</text>
</g>
<g>
<text x="177" y="156">
A
</text>
</g>
<g>
<text x="177" y="204">
A
</text>
</g>
<g>
<text x="177" y="252">
A
</text>
</g>
<g>
<text x="193" y="60">
A
</text>
</g>
<g>
<text x="193" y="108">
A
</text>
</g>
<g>
<text x="193" y="156">
A
</text>
</g>
<g>
<text x="193" y="204">
A
</text>
</g>
<g>
<text x="193" y="252">
A
</text>
</g>
<g>
<text x="209" y="60">
T
</text>
</g>
<g>
<text x="209" y="108">
T
</text>
</g>
<g>
<text x="209" y="156">
T
</text>
</g>
<g>
<text x="209" y="204">
T
</text>
</g>
<g>
<text x="209" y="252">
T
</text>
</g>
<g>
<text x="225" y="60">
T
</text>
</g>
<g>
<text x="225" y="108">
T
</text>
</g>
<g>
<text x="225" y="156">
T
</text>
</g>
<g>
<text x="225" y="204">
T
</text>
</g>
<g>
<text x="225" y="252">
T
</text>
</g>
<g>
<text x="241" y="60">
T
</text>
</g>
<g>
<text x="241" y="108">
T
</text>
</g>
<g>
<text x="241" y="156">
T
</text>
</g>
<g>
<text x="241" y="204">
T
</text>
</g>
<g>
<text x="241" y="252">
T
</text>
</g>
<g>
<text x="257" y="60">
A
</text>
</g>
<g>
<text x="257" y="108">
A
</text>
</g>
<g>
<text x="257" y="156">
A
</text>
</g>
<g>
<text x="257" y="204">
A
</text>
</g>
<g>
<text x="257" y="252">
A
</text>
</g>
<g>
<text x="273" y="60">
G
</text>
</g>
<g>
<text x="273" y="108">
G
</text>
</g>
<g>
<text x="273" y="156">
G
</text>
</g>
<g>
<text x="273" y="204">
G
</text>
</g>
<g>
<text x="273" y="252">
G
</text>
</g>
<g>
<text x="289" y="60">
C
</text>
</g>
<g>
<text x="289" y="108">
C
</text>
</g>
<g>
<text x="289" y="156">
C
</text>
</g>
<g>
<text x="289" y="204">
C
</text>
</g>
<g>
<text x="289" y="252">
C
</text>
</g>
<g>
<text x="449" y="44">
A
</text>
</g>
<g>
<text x="449" y="188">
A
</text>
</g>
<g>
<text x="465" y="44">
C
</text>
</g>
<g>
<text x="465" y="60">
C
</text>
</g>
<g>
<text x="465" y="188">
C
</text>
</g>
<g>
<text x="481" y="44">
T
</text>
</g>
<g>
<text x="481" y="60">
T
</text>
</g>
<g>
<text x="481" y="76">
T
</text>
</g>
<g>
<text x="481" y="188">
T
</text>
</g>
<g>
<text x="497" y="44">
A
</text>
</g>
<g>
<text x="497" y="60">
A
</text>
</g>
<g>
<text x="497" y="76">
A
</text>
</g>
<g>
<text x="497" y="188">
A
</text>
</g>
<g>
<text x="513" y="44">
A
</text>
</g>
<g>
<text x="513" y="60">
A
</text>
</g>
<g>
<text x="513" y="76">
A
</text>
</g>
<g>
<text x="513" y="92">
A
</text>
</g>
<g>
<text x="513" y="188">
A
</text>
</g>
<g>
<text x="529" y="12">
Stitch DNA fragments
</text>
</g>
<g>
<text x="529" y="44">
G
</text>
</g>
<g>
<text x="529" y="60">
G
</text>
</g>
<g>
<text x="529" y="76">
G
</text>
</g>
<g>
<text x="529" y="92">
G
</text>
</g>
<g>
<text x="529" y="188">
G
</text>
</g>
<g>
<text x="545" y="44">
A
</text>
</g>
<g>
<text x="545" y="60">
A
</text>
</g>
<g>
<text x="545" y="76">
A
</text>
</g>
<g>
<text x="545" y="92">
A
</text>
</g>
<g>
<text x="545" y="108">
A
</text>
</g>
<g>
<text x="545" y="188">
A
</text>
</g>
<g>
<text x="561" y="60">
A
</text>
</g>
<g>
<text x="561" y="76">
A
</text>
</g>
<g>
<text x="561" y="92">
A
</text>
</g>
<g>
<text x="561" y="108">
A
</text>
</g>
<g>
<text x="561" y="188">
A
</text>
</g>
<g>
<text x="577" y="76">
C
</text>
</g>
<g>
<text x="577" y="92">
C
</text>
</g>
<g>
<text x="577" y="108">
C
</text>
</g>
<g>
<text x="577" y="188">
C
</text>
</g>
<g>
<text x="593" y="92">
C
</text>
</g>
<g>
<text x="593" y="108">
C
</text>
</g>
<g>
<text x="593" y="124">
C
</text>
</g>
<g>
<text x="593" y="188">
C
</text>
</g>
<g>
<text x="609" y="92">
T
</text>
</g>
<g>
<text x="609" y="108">
T
</text>
</g>
<g>
<text x="609" y="124">
T
</text>
</g>
<g>
<text x="609" y="188">
T
</text>
</g>
<g>
<text x="625" y="108">
A
</text>
</g>
<g>
<text x="625" y="124">
A
</text>
</g>
<g>
<text x="625" y="140">
A
</text>
</g>
<g>
<text x="625" y="188">
A
</text>
</g>
<g>
<text x="641" y="108">
A
</text>
</g>
<g>
<text x="641" y="124">
A
</text>
</g>
<g>
<text x="641" y="140">
A
</text>
</g>
<g>
<text x="641" y="156">
A
</text>
</g>
<g>
<text x="641" y="172">
A
</text>
</g>
<g>
<text x="641" y="188">
A
</text>
</g>
<g>
<text x="657" y="124">
T
</text>
</g>
<g>
<text x="657" y="140">
T
</text>
</g>
<g>
<text x="657" y="156">
T
</text>
</g>
<g>
<text x="657" y="172">
T
</text>
</g>
<g>
<text x="657" y="188">
T
</text>
</g>
<g>
<text x="673" y="124">
T
</text>
</g>
<g>
<text x="673" y="140">
T
</text>
</g>
<g>
<text x="673" y="156">
T
</text>
</g>
<g>
<text x="673" y="172">
T
</text>
</g>
<g>
<text x="673" y="188">
T
</text>
</g>
<g>
<text x="689" y="124">
T
</text>
</g>
<g>
<text x="689" y="140">
T
</text>
</g>
<g>
<text x="689" y="156">
T
</text>
</g>
<g>
<text x="689" y="172">
T
</text>
</g>
<g>
<text x="689" y="188">
T
</text>
</g>
<g>
<text x="705" y="140">
A
</text>
</g>
<g>
<text x="705" y="156">
A
</text>
</g>
<g>
<text x="705" y="172">
A
</text>
</g>
<g>
<text x="705" y="188">
A
</text>
</g>
<g>
<text x="721" y="140">
G
</text>
</g>
<g>
<text x="721" y="156">
G
</text>
</g>
<g>
<text x="721" y="172">
G
</text>
</g>
<g>
<text x="721" y="188">
G
</text>
</g>
<g>
<text x="737" y="156">
C
</text>
</g>
<g>
<text x="737" y="172">
C
</text>
</g>
<g>
<text x="737" y="188">
C
</text>
</g>
</svg>
