<svg class="bob" font-family="arial" font-size="14" height="112" width="528" xmlns="http://www.w3.org/2000/svg">
<defs>
<marker id="triangle" markerHeight="8" markerWidth="8" orient="auto" refX="4" refY="2" viewBox="0 0 8 4">
<polygon class="fg_fill" points="0,0 0,4 8,2 0,0"/>
</marker>
<marker id="clear_triangle" markerHeight="10" markerWidth="10" orient="auto" refX="1" refY="7" viewBox="0 0 20 14">
<polygon class="bg_fill" points="2,2 2,12 18,7 2,2"/>
</marker>
<marker id="circle" markerHeight="5" markerWidth="5" orient="auto" refX="10" refY="10" viewBox="0 0 20 20">
<circle class="fg_fill" cx="10" cy="10" r="8"/>
</marker>
<marker id="square" markerHeight="5" markerWidth="5" orient="auto" refX="10" refY="10" viewBox="0 0 20 20">
<rect class="fg_fill" height="20" width="20" x="0" y="0"/>
</marker>
<marker id="open_circle" markerHeight="10" markerWidth="10" orient="auto" refX="10" refY="10" viewBox="0 0 20 20">
<circle class="bg_fill" cx="10" cy="10" r="4"/>
</marker>
<marker id="big_open_circle" markerHeight="20" markerWidth="20" orient="auto" refX="20" refY="20" viewBox="0 0 40 40">
<circle class="bg_fill" cx="20" cy="20" r="6"/>
</marker>
</defs>
<style type="text/css">

rect.backdrop {
    fill: white;
}
text{
    fill: black;
}

circle {
    fill: none;
    stroke: black;
    stroke-width: 2;
}

line {
    stroke: black;
    stroke-width: 2;
    stroke-opacity: 1;
    fill-opacity: 1;
    stroke-linecap: round;
    stroke-linejoin: miter;
}

path {
    fill: none;
    stroke: black;
    stroke-width: 2;
    stroke-opacity: 1;
    fill-opacity: 1;
    stroke-linecap: round;
    stroke-linejoin: miter;
}

line.dashed {
    stroke-dasharray: 5;
}

.fg_fill {
    fill: black;
}


.bg_fill {
    fill: white;
    stroke: black;
    stroke-width: 2;
}

tspan.head{
    fill: none;
    stroke: none;
}
    
</style>
<rect class="backdrop" height="112" width="528" x="0" y="0"/>
<g>
<line x1="4" x2="4" y1="12" y2="52"/>
<path d="M 4 52 A 4 4 0 0 0 8 56"/>
<path d="M 8 8 A 4 4 0 0 0 4 12"/>
</g>
<g>
<line x1="8" x2="520" y1="8" y2="8"/>
<path d="M 524 12 A 4 4 0 0 0 520 8"/>
</g>
<g>
<line marker-end="url(#triangle)" x1="8" x2="20" y1="56" y2="56"/>
</g>
<g>
<line marker-end="url(#triangle)" x1="44" x2="44" y1="80" y2="68"/>
<line x1="44" x2="44" y1="80" y2="100"/>
<path d="M 44 100 A 4 4 0 0 0 48 104"/>
</g>
<g>
<line x1="48" x2="232" y1="104" y2="104"/>
<path d="M 232 104 A 4 4 0 0 0 236 100"/>
</g>
<g>
<line marker-end="url(#triangle)" x1="64" x2="84" y1="56" y2="56"/>
</g>
<g>
<line marker-end="url(#triangle)" x1="128" x2="148" y1="56" y2="56"/>
</g>
<g>
<line marker-end="url(#triangle)" x1="192" x2="212" y1="56" y2="56"/>
</g>
<g>
<line x1="236" x2="236" y1="64" y2="100"/>
</g>
<g>
<line marker-end="url(#triangle)" x1="256" x2="276" y1="56" y2="56"/>
</g>
<g>
<line marker-end="url(#triangle)" x1="300" x2="300" y1="80" y2="68"/>
<line x1="300" x2="300" y1="80" y2="100"/>
<path d="M 300 100 A 4 4 0 0 0 304 104"/>
</g>
<g>
<line x1="304" x2="488" y1="104" y2="104"/>
<path d="M 488 104 A 4 4 0 0 0 492 100"/>
</g>
<g>
<line marker-end="url(#triangle)" x1="320" x2="340" y1="56" y2="56"/>
</g>
<g>
<line marker-end="url(#triangle)" x1="384" x2="404" y1="56" y2="56"/>
</g>
<g>
<line marker-end="url(#triangle)" x1="448" x2="468" y1="56" y2="56"/>
</g>
<g>
<line x1="492" x2="492" y1="64" y2="100"/>
</g>
<g>
<line x1="512" x2="520" y1="56" y2="56"/>
<path d="M 520 56 A 4 4 0 0 0 524 52"/>
</g>
<g>
<line x1="524" x2="524" y1="12" y2="52"/>
</g>
<g>
<text x="33" y="60">
TTA
</text>
</g>
<g>
<text x="97" y="60">
TAG
</text>
</g>
<g>
<text x="161" y="60">
AGT
</text>
</g>
<g>
<text x="225" y="60">
GTT
</text>
</g>
<g>
<text x="289" y="60">
TTA
</text>
</g>
<g>
<text x="353" y="60">
TAC
</text>
</g>
<g>
<text x="417" y="60">
ACT
</text>
</g>
<g>
<text x="481" y="60">
CTT
</text>
</g>
</svg>
