<svg class="bob" font-family="arial" font-size="14" height="96" width="640" xmlns="http://www.w3.org/2000/svg">
<defs>
<marker id="triangle" markerHeight="8" markerWidth="8" orient="auto" refX="4" refY="2" viewBox="0 0 8 4">
<polygon class="fg_fill" points="0,0 0,4 8,2 0,0"/>
</marker>
<marker id="clear_triangle" markerHeight="10" markerWidth="10" orient="auto" refX="1" refY="7" viewBox="0 0 20 14">
<polygon class="bg_fill" points="2,2 2,12 18,7 2,2"/>
</marker>
<marker id="circle" markerHeight="5" markerWidth="5" orient="auto" refX="10" refY="10" viewBox="0 0 20 20">
<circle class="fg_fill" cx="10" cy="10" r="8"/>
</marker>
<marker id="square" markerHeight="5" markerWidth="5" orient="auto" refX="10" refY="10" viewBox="0 0 20 20">
<rect class="fg_fill" height="20" width="20" x="0" y="0"/>
</marker>
<marker id="open_circle" markerHeight="10" markerWidth="10" orient="auto" refX="10" refY="10" viewBox="0 0 20 20">
<circle class="bg_fill" cx="10" cy="10" r="4"/>
</marker>
<marker id="big_open_circle" markerHeight="20" markerWidth="20" orient="auto" refX="20" refY="20" viewBox="0 0 40 40">
<circle class="bg_fill" cx="20" cy="20" r="6"/>
</marker>
</defs>
<style type="text/css">

rect.backdrop {
    fill: white;
}
text{
    fill: black;
}

circle {
    fill: none;
    stroke: black;
    stroke-width: 2;
}

line {
    stroke: black;
    stroke-width: 2;
    stroke-opacity: 1;
    fill-opacity: 1;
    stroke-linecap: round;
    stroke-linejoin: miter;
}

path {
    fill: none;
    stroke: black;
    stroke-width: 2;
    stroke-opacity: 1;
    fill-opacity: 1;
    stroke-linecap: round;
    stroke-linejoin: miter;
}

line.dashed {
    stroke-dasharray: 5;
}

.fg_fill {
    fill: black;
}


.bg_fill {
    fill: white;
    stroke: black;
    stroke-width: 2;
}

tspan.head{
    fill: none;
    stroke: none;
}
    
</style>
<rect class="backdrop" height="96" width="640" x="0" y="0"/>
<g>
<line marker-end="url(#triangle)" x1="4" x2="4" y1="32" y2="20"/>
<line x1="4" x2="4" y1="32" y2="48"/>
</g>
<g>
<line marker-end="url(#triangle)" x1="16" x2="44" y1="8" y2="8"/>
</g>
<g>
<line marker-end="url(#triangle)" x1="24" x2="20" y1="56" y2="56"/>
<line x1="24" x2="48" y1="56" y2="56"/>
</g>
<g>
<line marker-end="url(#triangle)" x1="60" x2="60" y1="16" y2="44"/>
</g>
<g>
<line marker-end="url(#triangle)" x1="116" x2="116" y1="32" y2="20"/>
<line x1="116" x2="116" y1="32" y2="48"/>
</g>
<g>
<line marker-end="url(#triangle)" x1="128" x2="156" y1="8" y2="8"/>
</g>
<g>
<line marker-end="url(#triangle)" x1="136" x2="132" y1="56" y2="56"/>
<line x1="136" x2="160" y1="56" y2="56"/>
</g>
<g>
<line marker-end="url(#triangle)" x1="172" x2="172" y1="16" y2="44"/>
</g>
<g>
<text x="1" y="12">
A
</text>
</g>
<g>
<text x="1" y="60">
D
</text>
</g>
<g>
<text x="1" y="92">
* It isn&#39;t possible to reach E, F, G, or H from A, B, C, or D (and vice versa)
</text>
</g>
<g>
<text x="57" y="12">
B
</text>
</g>
<g>
<text x="57" y="60">
C
</text>
</g>
<g>
<text x="113" y="12">
E
</text>
</g>
<g>
<text x="113" y="60">
H
</text>
</g>
<g>
<text x="169" y="12">
F
</text>
</g>
<g>
<text x="169" y="60">
G
</text>
</g>
</svg>
