<svg class="bob" font-family="arial" font-size="14" height="416" width="808" xmlns="http://www.w3.org/2000/svg">
<defs>
<marker id="triangle" markerHeight="8" markerWidth="8" orient="auto" refX="4" refY="2" viewBox="0 0 8 4">
<polygon class="fg_fill" points="0,0 0,4 8,2 0,0"/>
</marker>
<marker id="clear_triangle" markerHeight="10" markerWidth="10" orient="auto" refX="1" refY="7" viewBox="0 0 20 14">
<polygon class="bg_fill" points="2,2 2,12 18,7 2,2"/>
</marker>
<marker id="circle" markerHeight="5" markerWidth="5" orient="auto" refX="10" refY="10" viewBox="0 0 20 20">
<circle class="fg_fill" cx="10" cy="10" r="8"/>
</marker>
<marker id="square" markerHeight="5" markerWidth="5" orient="auto" refX="10" refY="10" viewBox="0 0 20 20">
<rect class="fg_fill" height="20" width="20" x="0" y="0"/>
</marker>
<marker id="open_circle" markerHeight="10" markerWidth="10" orient="auto" refX="10" refY="10" viewBox="0 0 20 20">
<circle class="bg_fill" cx="10" cy="10" r="4"/>
</marker>
<marker id="big_open_circle" markerHeight="20" markerWidth="20" orient="auto" refX="20" refY="20" viewBox="0 0 40 40">
<circle class="bg_fill" cx="20" cy="20" r="6"/>
</marker>
</defs>
<style type="text/css">

rect.backdrop {
    fill: white;
}
text{
    fill: black;
}

circle {
    fill: none;
    stroke: black;
    stroke-width: 2;
}

line {
    stroke: black;
    stroke-width: 2;
    stroke-opacity: 1;
    fill-opacity: 1;
    stroke-linecap: round;
    stroke-linejoin: miter;
}

path {
    fill: none;
    stroke: black;
    stroke-width: 2;
    stroke-opacity: 1;
    fill-opacity: 1;
    stroke-linecap: round;
    stroke-linejoin: miter;
}

line.dashed {
    stroke-dasharray: 5;
}

.fg_fill {
    fill: black;
}


.bg_fill {
    fill: white;
    stroke: black;
    stroke-width: 2;
}

tspan.head{
    fill: none;
    stroke: none;
}
    
</style>
<rect class="backdrop" height="416" width="808" x="0" y="0"/>
<g>
<line x1="4" x2="4" y1="88" y2="120"/>
<line x1="4" x2="116" y1="88" y2="88"/>
<line x1="4" x2="116" y1="120" y2="120"/>
<line x1="116" x2="116" y1="88" y2="120"/>
</g>
<g>
<line x1="20" x2="20" y1="328" y2="360"/>
<line x1="20" x2="132" y1="328" y2="328"/>
<line x1="20" x2="132" y1="360" y2="360"/>
<line x1="132" x2="132" y1="328" y2="360"/>
</g>
<g>
<line x1="36" x2="36" y1="40" y2="72"/>
<line x1="36" x2="148" y1="40" y2="40"/>
<line x1="36" x2="148" y1="72" y2="72"/>
<line x1="148" x2="148" y1="40" y2="72"/>
</g>
<g>
<line x1="68" x2="68" y1="184" y2="216"/>
<line x1="68" x2="180" y1="184" y2="184"/>
<line x1="68" x2="180" y1="216" y2="216"/>
<line x1="180" x2="180" y1="184" y2="216"/>
</g>
<g>
<line x1="100" x2="100" y1="232" y2="264"/>
<line x1="100" x2="212" y1="232" y2="232"/>
<line x1="100" x2="212" y1="264" y2="264"/>
<line x1="212" x2="212" y1="232" y2="264"/>
</g>
<g>
<line x1="148" x2="148" y1="280" y2="312"/>
<line x1="148" x2="260" y1="280" y2="280"/>
<line x1="148" x2="260" y1="312" y2="312"/>
<line x1="260" x2="260" y1="280" y2="312"/>
</g>
<g>
<line x1="180" x2="180" y1="376" y2="408"/>
<line x1="180" x2="292" y1="376" y2="376"/>
<line x1="180" x2="292" y1="408" y2="408"/>
<line x1="292" x2="292" y1="376" y2="408"/>
</g>
<g>
<line x1="196" x2="196" y1="136" y2="168"/>
<line x1="196" x2="308" y1="136" y2="136"/>
<line x1="196" x2="308" y1="168" y2="168"/>
<line x1="308" x2="308" y1="136" y2="168"/>
</g>
<g>
<line x1="320" x2="364" y1="56" y2="56"/>
<line x1="364" x2="364" y1="56" y2="88"/>
<line x1="368" x2="364" y1="96" y2="88"/>
<line x1="368" x2="372" y1="96" y2="96"/>
<line x1="372" x2="372" y1="96" y2="112"/>
<line x1="372" x2="368" y1="112" y2="112"/>
</g>
<g>
<line x1="320" x2="368" y1="104" y2="104"/>
</g>
<g>
<line x1="320" x2="340" y1="152" y2="152"/>
<line x1="340" x2="340" y1="152" y2="184"/>
<line x1="344" x2="340" y1="192" y2="184"/>
<line x1="344" x2="348" y1="192" y2="192"/>
<line x1="348" x2="348" y1="192" y2="208"/>
<line x1="348" x2="344" y1="208" y2="208"/>
</g>
<g>
<line x1="320" x2="344" y1="200" y2="200"/>
</g>
<g>
<line x1="320" x2="344" y1="248" y2="248"/>
</g>
<g>
<line x1="320" x2="764" y1="296" y2="296"/>
<line x1="764" x2="764" y1="248" y2="296"/>
<line x1="764" x2="768" y1="248" y2="240"/>
<line x1="772" x2="768" y1="240" y2="240"/>
</g>
<g>
<line x1="320" x2="780" y1="344" y2="344"/>
<line x1="780" x2="780" y1="248" y2="344"/>
<line x1="780" x2="784" y1="248" y2="240"/>
<line x1="788" x2="784" y1="240" y2="240"/>
</g>
<g>
<line x1="320" x2="804" y1="392" y2="392"/>
<line x1="804" x2="804" y1="232" y2="392"/>
</g>
<g>
<line x1="332" x2="344" y1="280" y2="256"/>
<line x1="332" x2="748" y1="280" y2="280"/>
<line x1="348" x2="344" y1="256" y2="256"/>
<line x1="748" x2="748" y1="248" y2="280"/>
</g>
<g>
<line x1="336" x2="344" y1="224" y2="208"/>
<line x1="336" x2="344" y1="224" y2="240"/>
<line x1="344" x2="348" y1="240" y2="240"/>
<line x1="348" x2="348" y1="240" y2="256"/>
</g>
<g>
<line x1="352" x2="452" y1="200" y2="200"/>
<line x1="452" x2="452" y1="184" y2="200"/>
<line marker-end="url(#triangle)" x1="452" x2="468" y1="184" y2="184"/>
</g>
<g>
<line x1="352" x2="484" y1="248" y2="248"/>
<line x1="484" x2="484" y1="200" y2="248"/>
<line marker-end="url(#triangle)" x1="484" x2="500" y1="200" y2="200"/>
</g>
<g>
<line x1="364" x2="364" y1="120" y2="168"/>
<line x1="364" x2="368" y1="120" y2="112"/>
<line marker-end="url(#triangle)" x1="364" x2="436" y1="168" y2="168"/>
</g>
<g>
<line x1="376" x2="388" y1="104" y2="104"/>
<line x1="388" x2="388" y1="104" y2="136"/>
<line marker-end="url(#triangle)" x1="388" x2="404" y1="136" y2="136"/>
</g>
<g>
<line marker-end="url(#triangle)" x1="552" x2="548" y1="152" y2="152"/>
<line x1="552" x2="780" y1="152" y2="152"/>
<line x1="780" x2="780" y1="152" y2="216"/>
<line x1="784" x2="780" y1="224" y2="216"/>
<line x1="784" x2="788" y1="224" y2="224"/>
<line x1="788" x2="788" y1="224" y2="240"/>
</g>
<g>
<line marker-end="url(#triangle)" x1="680" x2="676" y1="216" y2="216"/>
<line x1="680" x2="764" y1="216" y2="216"/>
<line x1="764" x2="768" y1="216" y2="224"/>
<line x1="768" x2="772" y1="224" y2="224"/>
<line x1="772" x2="772" y1="224" y2="240"/>
</g>
<g>
<line marker-end="url(#triangle)" x1="712" x2="708" y1="232" y2="232"/>
<line x1="712" x2="768" y1="232" y2="232"/>
</g>
<g>
<line marker-end="url(#triangle)" x1="728" x2="724" y1="248" y2="248"/>
<line x1="728" x2="748" y1="248" y2="248"/>
</g>
<g>
<line x1="776" x2="784" y1="232" y2="232"/>
</g>
<g>
<line x1="792" x2="804" y1="232" y2="232"/>
</g>
<g>
<text x="9" y="60">
A
</text>
</g>
<g>
<text x="9" y="108">
A
</text>
</g>
<g>
<text x="9" y="156">
A
</text>
</g>
<g>
<text x="9" y="204">
A
</text>
</g>
<g>
<text x="9" y="252">
A
</text>
</g>
<g>
<text x="9" y="300">
A
</text>
</g>
<g>
<text x="9" y="348">
A
</text>
</g>
<g>
<text x="9" y="396">
A
</text>
</g>
<g>
<text x="25" y="60">
C
</text>
</g>
<g>
<text x="25" y="108">
C
</text>
</g>
<g>
<text x="25" y="156">
C
</text>
</g>
<g>
<text x="25" y="204">
C
</text>
</g>
<g>
<text x="25" y="252">
C
</text>
</g>
<g>
<text x="25" y="300">
C
</text>
</g>
<g>
<text x="25" y="348">
C
</text>
</g>
<g>
<text x="25" y="396">
C
</text>
</g>
<g>
<text x="41" y="60">
T
</text>
</g>
<g>
<text x="41" y="108">
T
</text>
</g>
<g>
<text x="41" y="156">
T
</text>
</g>
<g>
<text x="41" y="204">
T
</text>
</g>
<g>
<text x="41" y="252">
T
</text>
</g>
<g>
<text x="41" y="300">
T
</text>
</g>
<g>
<text x="41" y="348">
T
</text>
</g>
<g>
<text x="41" y="396">
T
</text>
</g>
<g>
<text x="57" y="60">
A
</text>
</g>
<g>
<text x="57" y="108">
A
</text>
</g>
<g>
<text x="57" y="156">
A
</text>
</g>
<g>
<text x="57" y="204">
A
</text>
</g>
<g>
<text x="57" y="252">
A
</text>
</g>
<g>
<text x="57" y="300">
A
</text>
</g>
<g>
<text x="57" y="348">
A
</text>
</g>
<g>
<text x="57" y="396">
A
</text>
</g>
<g>
<text x="73" y="60">
A
</text>
</g>
<g>
<text x="73" y="108">
A
</text>
</g>
<g>
<text x="73" y="156">
A
</text>
</g>
<g>
<text x="73" y="204">
A
</text>
</g>
<g>
<text x="73" y="252">
A
</text>
</g>
<g>
<text x="73" y="300">
A
</text>
</g>
<g>
<text x="73" y="348">
A
</text>
</g>
<g>
<text x="73" y="396">
A
</text>
</g>
<g>
<text x="89" y="60">
G
</text>
</g>
<g>
<text x="89" y="108">
G
</text>
</g>
<g>
<text x="89" y="156">
G
</text>
</g>
<g>
<text x="89" y="204">
G
</text>
</g>
<g>
<text x="89" y="252">
G
</text>
</g>
<g>
<text x="89" y="300">
G
</text>
</g>
<g>
<text x="89" y="348">
G
</text>
</g>
<g>
<text x="89" y="396">
G
</text>
</g>
<g>
<text x="105" y="60">
A
</text>
</g>
<g>
<text x="105" y="108">
A
</text>
</g>
<g>
<text x="105" y="156">
A
</text>
</g>
<g>
<text x="105" y="204">
A
</text>
</g>
<g>
<text x="105" y="252">
A
</text>
</g>
<g>
<text x="105" y="300">
A
</text>
</g>
<g>
<text x="105" y="348">
A
</text>
</g>
<g>
<text x="105" y="396">
A
</text>
</g>
<g>
<text x="113" y="12">
DNA reads
</text>
</g>
<g>
<text x="121" y="60">
A
</text>
</g>
<g>
<text x="121" y="108">
A
</text>
</g>
<g>
<text x="121" y="156">
A
</text>
</g>
<g>
<text x="121" y="204">
A
</text>
</g>
<g>
<text x="121" y="252">
A
</text>
</g>
<g>
<text x="121" y="300">
A
</text>
</g>
<g>
<text x="121" y="348">
A
</text>
</g>
<g>
<text x="121" y="396">
A
</text>
</g>
<g>
<text x="137" y="60">
C
</text>
</g>
<g>
<text x="137" y="108">
C
</text>
</g>
<g>
<text x="137" y="156">
C
</text>
</g>
<g>
<text x="137" y="204">
C
</text>
</g>
<g>
<text x="137" y="252">
C
</text>
</g>
<g>
<text x="137" y="300">
C
</text>
</g>
<g>
<text x="137" y="348">
C
</text>
</g>
<g>
<text x="137" y="396">
C
</text>
</g>
<g>
<text x="153" y="60">
C
</text>
</g>
<g>
<text x="153" y="108">
C
</text>
</g>
<g>
<text x="153" y="156">
C
</text>
</g>
<g>
<text x="153" y="204">
C
</text>
</g>
<g>
<text x="153" y="252">
C
</text>
</g>
<g>
<text x="153" y="300">
C
</text>
</g>
<g>
<text x="153" y="348">
C
</text>
</g>
<g>
<text x="153" y="396">
C
</text>
</g>
<g>
<text x="169" y="60">
T
</text>
</g>
<g>
<text x="169" y="108">
T
</text>
</g>
<g>
<text x="169" y="156">
T
</text>
</g>
<g>
<text x="169" y="204">
T
</text>
</g>
<g>
<text x="169" y="252">
T
</text>
</g>
<g>
<text x="169" y="300">
T
</text>
</g>
<g>
<text x="169" y="348">
T
</text>
</g>
<g>
<text x="169" y="396">
T
</text>
</g>
<g>
<text x="185" y="60">
A
</text>
</g>
<g>
<text x="185" y="108">
A
</text>
</g>
<g>
<text x="185" y="156">
A
</text>
</g>
<g>
<text x="185" y="204">
A
</text>
</g>
<g>
<text x="185" y="252">
A
</text>
</g>
<g>
<text x="185" y="300">
A
</text>
</g>
<g>
<text x="185" y="348">
A
</text>
</g>
<g>
<text x="185" y="396">
A
</text>
</g>
<g>
<text x="201" y="60">
A
</text>
</g>
<g>
<text x="201" y="108">
A
</text>
</g>
<g>
<text x="201" y="156">
A
</text>
</g>
<g>
<text x="201" y="204">
A
</text>
</g>
<g>
<text x="201" y="252">
A
</text>
</g>
<g>
<text x="201" y="300">
A
</text>
</g>
<g>
<text x="201" y="348">
A
</text>
</g>
<g>
<text x="201" y="396">
A
</text>
</g>
<g>
<text x="217" y="60">
T
</text>
</g>
<g>
<text x="217" y="108">
T
</text>
</g>
<g>
<text x="217" y="156">
T
</text>
</g>
<g>
<text x="217" y="204">
T
</text>
</g>
<g>
<text x="217" y="252">
T
</text>
</g>
<g>
<text x="217" y="300">
T
</text>
</g>
<g>
<text x="217" y="348">
T
</text>
</g>
<g>
<text x="217" y="396">
T
</text>
</g>
<g>
<text x="233" y="60">
T
</text>
</g>
<g>
<text x="233" y="108">
T
</text>
</g>
<g>
<text x="233" y="156">
T
</text>
</g>
<g>
<text x="233" y="204">
T
</text>
</g>
<g>
<text x="233" y="252">
T
</text>
</g>
<g>
<text x="233" y="300">
T
</text>
</g>
<g>
<text x="233" y="348">
T
</text>
</g>
<g>
<text x="233" y="396">
T
</text>
</g>
<g>
<text x="249" y="60">
T
</text>
</g>
<g>
<text x="249" y="108">
T
</text>
</g>
<g>
<text x="249" y="156">
T
</text>
</g>
<g>
<text x="249" y="204">
T
</text>
</g>
<g>
<text x="249" y="252">
T
</text>
</g>
<g>
<text x="249" y="300">
T
</text>
</g>
<g>
<text x="249" y="348">
T
</text>
</g>
<g>
<text x="249" y="396">
T
</text>
</g>
<g>
<text x="265" y="60">
A
</text>
</g>
<g>
<text x="265" y="108">
A
</text>
</g>
<g>
<text x="265" y="156">
A
</text>
</g>
<g>
<text x="265" y="204">
A
</text>
</g>
<g>
<text x="265" y="252">
A
</text>
</g>
<g>
<text x="265" y="300">
A
</text>
</g>
<g>
<text x="265" y="348">
A
</text>
</g>
<g>
<text x="265" y="396">
A
</text>
</g>
<g>
<text x="281" y="60">
G
</text>
</g>
<g>
<text x="281" y="108">
G
</text>
</g>
<g>
<text x="281" y="156">
G
</text>
</g>
<g>
<text x="281" y="204">
G
</text>
</g>
<g>
<text x="281" y="252">
G
</text>
</g>
<g>
<text x="281" y="300">
G
</text>
</g>
<g>
<text x="281" y="348">
G
</text>
</g>
<g>
<text x="281" y="396">
G
</text>
</g>
<g>
<text x="297" y="60">
C
</text>
</g>
<g>
<text x="297" y="108">
C
</text>
</g>
<g>
<text x="297" y="156">
C
</text>
</g>
<g>
<text x="297" y="204">
C
</text>
</g>
<g>
<text x="297" y="252">
C
</text>
</g>
<g>
<text x="297" y="300">
C
</text>
</g>
<g>
<text x="297" y="348">
C
</text>
</g>
<g>
<text x="297" y="396">
C
</text>
</g>
<g>
<text x="417" y="108">
A
</text>
</g>
<g>
<text x="417" y="140">
A
</text>
</g>
<g>
<text x="433" y="108">
C
</text>
</g>
<g>
<text x="433" y="140">
C
</text>
</g>
<g>
<text x="433" y="156">
C
</text>
</g>
<g>
<text x="449" y="12">
Stitched DNA reads
</text>
</g>
<g>
<text x="449" y="108">
T
</text>
</g>
<g>
<text x="449" y="140">
T
</text>
</g>
<g>
<text x="449" y="156">
T
</text>
</g>
<g>
<text x="449" y="172">
T
</text>
</g>
<g>
<text x="465" y="108">
A
</text>
</g>
<g>
<text x="465" y="140">
A
</text>
</g>
<g>
<text x="465" y="156">
A
</text>
</g>
<g>
<text x="465" y="172">
A
</text>
</g>
<g>
<text x="481" y="108">
A
</text>
</g>
<g>
<text x="481" y="140">
A
</text>
</g>
<g>
<text x="481" y="156">
A
</text>
</g>
<g>
<text x="481" y="172">
A
</text>
</g>
<g>
<text x="481" y="188">
A
</text>
</g>
<g>
<text x="497" y="108">
G
</text>
</g>
<g>
<text x="497" y="140">
G
</text>
</g>
<g>
<text x="497" y="156">
G
</text>
</g>
<g>
<text x="497" y="172">
G
</text>
</g>
<g>
<text x="497" y="188">
G
</text>
</g>
<g>
<text x="513" y="108">
A
</text>
</g>
<g>
<text x="513" y="140">
A
</text>
</g>
<g>
<text x="513" y="156">
A
</text>
</g>
<g>
<text x="513" y="172">
A
</text>
</g>
<g>
<text x="513" y="188">
A
</text>
</g>
<g>
<text x="513" y="204">
A
</text>
</g>
<g>
<text x="529" y="108">
A
</text>
</g>
<g>
<text x="529" y="156">
A
</text>
</g>
<g>
<text x="529" y="172">
A
</text>
</g>
<g>
<text x="529" y="188">
A
</text>
</g>
<g>
<text x="529" y="204">
A
</text>
</g>
<g>
<text x="545" y="108">
C
</text>
</g>
<g>
<text x="545" y="172">
C
</text>
</g>
<g>
<text x="545" y="188">
C
</text>
</g>
<g>
<text x="545" y="204">
C
</text>
</g>
<g>
<text x="561" y="108">
C
</text>
</g>
<g>
<text x="561" y="188">
C
</text>
</g>
<g>
<text x="561" y="204">
C
</text>
</g>
<g>
<text x="561" y="220">
C
</text>
</g>
<g>
<text x="577" y="108">
T
</text>
</g>
<g>
<text x="577" y="188">
T
</text>
</g>
<g>
<text x="577" y="204">
T
</text>
</g>
<g>
<text x="577" y="220">
T
</text>
</g>
<g>
<text x="593" y="108">
A
</text>
</g>
<g>
<text x="593" y="204">
A
</text>
</g>
<g>
<text x="593" y="220">
A
</text>
</g>
<g>
<text x="593" y="236">
A
</text>
</g>
<g>
<text x="609" y="108">
A
</text>
</g>
<g>
<text x="609" y="204">
A
</text>
</g>
<g>
<text x="609" y="220">
A
</text>
</g>
<g>
<text x="609" y="236">
A
</text>
</g>
<g>
<text x="609" y="252">
A
</text>
</g>
<g>
<text x="625" y="108">
T
</text>
</g>
<g>
<text x="625" y="220">
T
</text>
</g>
<g>
<text x="625" y="236">
T
</text>
</g>
<g>
<text x="625" y="252">
T
</text>
</g>
<g>
<text x="641" y="108">
T
</text>
</g>
<g>
<text x="641" y="220">
T
</text>
</g>
<g>
<text x="641" y="236">
T
</text>
</g>
<g>
<text x="641" y="252">
T
</text>
</g>
<g>
<text x="657" y="108">
T
</text>
</g>
<g>
<text x="657" y="220">
T
</text>
</g>
<g>
<text x="657" y="236">
T
</text>
</g>
<g>
<text x="657" y="252">
T
</text>
</g>
<g>
<text x="673" y="108">
A
</text>
</g>
<g>
<text x="673" y="236">
A
</text>
</g>
<g>
<text x="673" y="252">
A
</text>
</g>
<g>
<text x="689" y="108">
G
</text>
</g>
<g>
<text x="689" y="236">
G
</text>
</g>
<g>
<text x="689" y="252">
G
</text>
</g>
<g>
<text x="705" y="108">
C
</text>
</g>
<g>
<text x="705" y="252">
C
</text>
</g>
</svg>
