<svg class="bob" font-family="arial" font-size="14" height="208" width="256" xmlns="http://www.w3.org/2000/svg">
<defs>
<marker id="triangle" markerHeight="8" markerWidth="8" orient="auto" refX="4" refY="2" viewBox="0 0 8 4">
<polygon class="fg_fill" points="0,0 0,4 8,2 0,0"/>
</marker>
<marker id="clear_triangle" markerHeight="10" markerWidth="10" orient="auto" refX="1" refY="7" viewBox="0 0 20 14">
<polygon class="bg_fill" points="2,2 2,12 18,7 2,2"/>
</marker>
<marker id="circle" markerHeight="5" markerWidth="5" orient="auto" refX="10" refY="10" viewBox="0 0 20 20">
<circle class="fg_fill" cx="10" cy="10" r="8"/>
</marker>
<marker id="square" markerHeight="5" markerWidth="5" orient="auto" refX="10" refY="10" viewBox="0 0 20 20">
<rect class="fg_fill" height="20" width="20" x="0" y="0"/>
</marker>
<marker id="open_circle" markerHeight="10" markerWidth="10" orient="auto" refX="10" refY="10" viewBox="0 0 20 20">
<circle class="bg_fill" cx="10" cy="10" r="4"/>
</marker>
<marker id="big_open_circle" markerHeight="20" markerWidth="20" orient="auto" refX="20" refY="20" viewBox="0 0 40 40">
<circle class="bg_fill" cx="20" cy="20" r="6"/>
</marker>
</defs>
<style type="text/css">

rect.backdrop {
    fill: white;
}
text{
    fill: black;
}

circle {
    fill: none;
    stroke: black;
    stroke-width: 2;
}

line {
    stroke: black;
    stroke-width: 2;
    stroke-opacity: 1;
    fill-opacity: 1;
    stroke-linecap: round;
    stroke-linejoin: miter;
}

path {
    fill: none;
    stroke: black;
    stroke-width: 2;
    stroke-opacity: 1;
    fill-opacity: 1;
    stroke-linecap: round;
    stroke-linejoin: miter;
}

line.dashed {
    stroke-dasharray: 5;
}

.fg_fill {
    fill: black;
}


.bg_fill {
    fill: white;
    stroke: black;
    stroke-width: 2;
}

tspan.head{
    fill: none;
    stroke: none;
}
    
</style>
<rect class="backdrop" height="208" width="256" x="0" y="0"/>
<g>
<line x1="4" x2="4" y1="24" y2="96"/>
<line marker-end="url(#triangle)" x1="4" x2="100" y1="24" y2="24"/>
</g>
<g>
<line marker-end="url(#triangle)" x1="4" x2="4" y1="128" y2="116"/>
<line x1="4" x2="4" y1="128" y2="184"/>
<line x1="4" x2="104" y1="184" y2="184"/>
</g>
<g>
<line x1="12" x2="12" y1="56" y2="96"/>
<line x1="12" x2="52" y1="56" y2="56"/>
<line x1="52" x2="52" y1="56" y2="152"/>
</g>
<g>
<line marker-end="url(#triangle)" x1="12" x2="12" y1="128" y2="116"/>
<line x1="12" x2="12" y1="128" y2="152"/>
<line x1="12" x2="52" y1="152" y2="152"/>
</g>
<g>
<line x1="76" x2="76" y1="72" y2="152"/>
<line x1="76" x2="116" y1="72" y2="72"/>
<line x1="76" x2="116" y1="152" y2="152"/>
<line x1="116" x2="116" y1="48" y2="72"/>
<line x1="116" x2="116" y1="152" y2="176"/>
</g>
<g>
<line marker-end="url(#triangle)" x1="116" x2="116" y1="48" y2="36"/>
</g>
<g>
<line x1="124" x2="124" y1="32" y2="56"/>
<line x1="124" x2="164" y1="56" y2="56"/>
<line x1="164" x2="164" y1="56" y2="136"/>
</g>
<g>
<line marker-end="url(#triangle)" x1="124" x2="124" y1="136" y2="172"/>
<line x1="124" x2="164" y1="136" y2="136"/>
</g>
<g>
<line x1="136" x2="244" y1="24" y2="24"/>
<line marker-end="url(#triangle)" x1="244" x2="244" y1="24" y2="92"/>
</g>
<g>
<line marker-end="url(#triangle)" x1="144" x2="140" y1="184" y2="184"/>
<line x1="144" x2="244" y1="184" y2="184"/>
<line x1="244" x2="244" y1="112" y2="184"/>
</g>
<g>
<line x1="196" x2="196" y1="56" y2="152"/>
<line x1="196" x2="236" y1="56" y2="56"/>
<line x1="196" x2="236" y1="152" y2="152"/>
<line marker-end="url(#triangle)" x1="236" x2="236" y1="56" y2="92"/>
<line x1="236" x2="236" y1="112" y2="152"/>
</g>
<g>
<text x="1" y="108">
00
</text>
</g>
<g>
<text x="17" y="140">
000
</text>
</g>
<g>
<text x="33" y="12">
001
</text>
</g>
<g>
<text x="33" y="204">
100
</text>
</g>
<g>
<text x="89" y="140">
101
</text>
</g>
<g>
<text x="113" y="28">
01
</text>
</g>
<g>
<text x="113" y="188">
10
</text>
</g>
<g>
<text x="129" y="76">
010
</text>
</g>
<g>
<text x="185" y="12">
011
</text>
</g>
<g>
<text x="185" y="204">
110
</text>
</g>
<g>
<text x="201" y="140">
111
</text>
</g>
<g>
<text x="233" y="108">
11
</text>
</g>
</svg>
