<svg class="bob" font-family="arial" font-size="14" height="320" width="872" xmlns="http://www.w3.org/2000/svg">
<defs>
<marker id="triangle" markerHeight="8" markerWidth="8" orient="auto" refX="4" refY="2" viewBox="0 0 8 4">
<polygon class="fg_fill" points="0,0 0,4 8,2 0,0"/>
</marker>
<marker id="clear_triangle" markerHeight="10" markerWidth="10" orient="auto" refX="1" refY="7" viewBox="0 0 20 14">
<polygon class="bg_fill" points="2,2 2,12 18,7 2,2"/>
</marker>
<marker id="circle" markerHeight="5" markerWidth="5" orient="auto" refX="10" refY="10" viewBox="0 0 20 20">
<circle class="fg_fill" cx="10" cy="10" r="8"/>
</marker>
<marker id="square" markerHeight="5" markerWidth="5" orient="auto" refX="10" refY="10" viewBox="0 0 20 20">
<rect class="fg_fill" height="20" width="20" x="0" y="0"/>
</marker>
<marker id="open_circle" markerHeight="10" markerWidth="10" orient="auto" refX="10" refY="10" viewBox="0 0 20 20">
<circle class="bg_fill" cx="10" cy="10" r="4"/>
</marker>
<marker id="big_open_circle" markerHeight="20" markerWidth="20" orient="auto" refX="20" refY="20" viewBox="0 0 40 40">
<circle class="bg_fill" cx="20" cy="20" r="6"/>
</marker>
</defs>
<style type="text/css">

rect.backdrop {
    fill: white;
}
text{
    fill: black;
}

circle {
    fill: none;
    stroke: black;
    stroke-width: 2;
}

line {
    stroke: black;
    stroke-width: 2;
    stroke-opacity: 1;
    fill-opacity: 1;
    stroke-linecap: round;
    stroke-linejoin: miter;
}

path {
    fill: none;
    stroke: black;
    stroke-width: 2;
    stroke-opacity: 1;
    fill-opacity: 1;
    stroke-linecap: round;
    stroke-linejoin: miter;
}

line.dashed {
    stroke-dasharray: 5;
}

.fg_fill {
    fill: black;
}


.bg_fill {
    fill: white;
    stroke: black;
    stroke-width: 2;
}

tspan.head{
    fill: none;
    stroke: none;
}
    
</style>
<rect class="backdrop" height="320" width="872" x="0" y="0"/>
<g>
<line x1="12" x2="12" y1="168" y2="224"/>
<line x1="12" x2="60" y1="168" y2="168"/>
<line x1="60" x2="60" y1="96" y2="168"/>
</g>
<g>
<line x1="52" x2="52" y1="184" y2="224"/>
<line x1="52" x2="76" y1="184" y2="184"/>
<line x1="76" x2="76" y1="96" y2="184"/>
</g>
<g>
<line marker-end="url(#triangle)" x1="60" x2="60" y1="96" y2="84"/>
</g>
<g>
<line marker-end="url(#triangle)" x1="76" x2="76" y1="96" y2="84"/>
</g>
<g>
<line marker-end="url(#triangle)" x1="92" x2="92" y1="96" y2="84"/>
<line x1="92" x2="92" y1="96" y2="224"/>
</g>
<g>
<line marker-end="url(#triangle)" x1="108" x2="108" y1="96" y2="84"/>
<line x1="108" x2="108" y1="96" y2="200"/>
<line x1="108" x2="132" y1="200" y2="200"/>
<line x1="132" x2="132" y1="200" y2="224"/>
</g>
<g>
<line marker-end="url(#triangle)" x1="124" x2="124" y1="96" y2="84"/>
<line x1="124" x2="124" y1="96" y2="168"/>
<line x1="124" x2="172" y1="168" y2="168"/>
<line x1="172" x2="172" y1="168" y2="224"/>
</g>
<g>
<line marker-end="url(#triangle)" x1="140" x2="140" y1="96" y2="84"/>
<line x1="140" x2="140" y1="96" y2="152"/>
<line x1="140" x2="212" y1="152" y2="152"/>
<line x1="212" x2="212" y1="152" y2="224"/>
</g>
<g>
<line marker-end="url(#triangle)" x1="156" x2="156" y1="96" y2="84"/>
<line x1="156" x2="156" y1="96" y2="136"/>
<line x1="156" x2="252" y1="136" y2="136"/>
<line x1="252" x2="252" y1="136" y2="224"/>
</g>
<g>
<line marker-end="url(#triangle)" x1="172" x2="172" y1="96" y2="84"/>
<line x1="172" x2="172" y1="96" y2="120"/>
<line x1="172" x2="292" y1="120" y2="120"/>
<line x1="292" x2="292" y1="120" y2="224"/>
</g>
<g>
<line x1="484" x2="484" y1="8" y2="296"/>
<line x1="484" x2="596" y1="8" y2="8"/>
<line x1="484" x2="844" y1="296" y2="296"/>
<line marker-end="url(#triangle)" x1="596" x2="596" y1="8" y2="92"/>
<line x1="844" x2="844" y1="224" y2="296"/>
</g>
<g>
<line x1="500" x2="500" y1="24" y2="280"/>
<line x1="500" x2="580" y1="24" y2="24"/>
<line x1="500" x2="804" y1="280" y2="280"/>
<line marker-end="url(#triangle)" x1="580" x2="580" y1="24" y2="92"/>
<line x1="804" x2="804" y1="224" y2="280"/>
</g>
<g>
<line x1="516" x2="516" y1="40" y2="264"/>
<line x1="516" x2="564" y1="40" y2="40"/>
<line x1="516" x2="764" y1="264" y2="264"/>
<line marker-end="url(#triangle)" x1="564" x2="564" y1="40" y2="92"/>
<line x1="764" x2="764" y1="224" y2="264"/>
</g>
<g>
<line x1="532" x2="532" y1="56" y2="248"/>
<line x1="532" x2="548" y1="56" y2="56"/>
<line x1="532" x2="724" y1="248" y2="248"/>
<line marker-end="url(#triangle)" x1="548" x2="548" y1="56" y2="92"/>
<line x1="724" x2="724" y1="224" y2="248"/>
</g>
<g>
<line x1="564" x2="564" y1="152" y2="208"/>
<line x1="564" x2="612" y1="152" y2="152"/>
<line x1="612" x2="612" y1="128" y2="152"/>
</g>
<g>
<line x1="604" x2="604" y1="168" y2="208"/>
<line x1="604" x2="628" y1="168" y2="168"/>
<line x1="628" x2="628" y1="128" y2="168"/>
</g>
<g>
<line marker-end="url(#triangle)" x1="612" x2="612" y1="128" y2="116"/>
</g>
<g>
<line marker-end="url(#triangle)" x1="628" x2="628" y1="128" y2="116"/>
</g>
<g>
<line marker-end="url(#triangle)" x1="644" x2="644" y1="128" y2="116"/>
<line x1="644" x2="644" y1="128" y2="208"/>
</g>
<g>
<line marker-end="url(#triangle)" x1="660" x2="660" y1="128" y2="116"/>
<line x1="660" x2="660" y1="128" y2="184"/>
<line x1="660" x2="684" y1="184" y2="184"/>
<line x1="684" x2="684" y1="184" y2="208"/>
</g>
<g>
<text x="9" y="236">
TTA
</text>
</g>
<g>
<text x="49" y="236">
TAC
</text>
</g>
<g>
<text x="57" y="76">
T
</text>
</g>
<g>
<text x="73" y="76">
T
</text>
</g>
<g>
<text x="89" y="76">
A
</text>
</g>
<g>
<text x="89" y="236">
ACT
</text>
</g>
<g>
<text x="105" y="76">
C
</text>
</g>
<g>
<text x="121" y="76">
T
</text>
</g>
<g>
<text x="129" y="236">
CTT
</text>
</g>
<g>
<text x="137" y="76">
T
</text>
</g>
<g>
<text x="153" y="76">
A
</text>
</g>
<g>
<text x="169" y="76">
G
</text>
</g>
<g>
<text x="169" y="236">
TTA
</text>
</g>
<g>
<text x="185" y="76">
T
</text>
</g>
<g>
<text x="201" y="76">
T
</text>
</g>
<g>
<text x="209" y="236">
TAG
</text>
</g>
<g>
<text x="249" y="236">
AGT
</text>
</g>
<g>
<text x="289" y="236">
GTT
</text>
</g>
<g>
<text x="545" y="108">
T
</text>
</g>
<g>
<text x="561" y="108">
T
</text>
</g>
<g>
<text x="561" y="220">
TTA
</text>
</g>
<g>
<text x="577" y="108">
A
</text>
</g>
<g>
<text x="593" y="108">
G
</text>
</g>
<g>
<text x="601" y="220">
TAC
</text>
</g>
<g>
<text x="609" y="108">
T
</text>
</g>
<g>
<text x="625" y="108">
T
</text>
</g>
<g>
<text x="641" y="108">
A
</text>
</g>
<g>
<text x="641" y="220">
ACT
</text>
</g>
<g>
<text x="657" y="108">
C
</text>
</g>
<g>
<text x="673" y="108">
T
</text>
</g>
<g>
<text x="681" y="220">
CTT
</text>
</g>
<g>
<text x="689" y="108">
T
</text>
</g>
<g>
<text x="721" y="220">
TTA
</text>
</g>
<g>
<text x="761" y="220">
TAG
</text>
</g>
<g>
<text x="801" y="220">
AGT
</text>
</g>
<g>
<text x="841" y="220">
GTT
</text>
</g>
</svg>
