<svg class="bob" font-family="arial" font-size="14" height="352" width="1064" xmlns="http://www.w3.org/2000/svg">
<defs>
<marker id="triangle" markerHeight="8" markerWidth="8" orient="auto" refX="4" refY="2" viewBox="0 0 8 4">
<polygon class="fg_fill" points="0,0 0,4 8,2 0,0"/>
</marker>
<marker id="clear_triangle" markerHeight="10" markerWidth="10" orient="auto" refX="1" refY="7" viewBox="0 0 20 14">
<polygon class="bg_fill" points="2,2 2,12 18,7 2,2"/>
</marker>
<marker id="circle" markerHeight="5" markerWidth="5" orient="auto" refX="10" refY="10" viewBox="0 0 20 20">
<circle class="fg_fill" cx="10" cy="10" r="8"/>
</marker>
<marker id="square" markerHeight="5" markerWidth="5" orient="auto" refX="10" refY="10" viewBox="0 0 20 20">
<rect class="fg_fill" height="20" width="20" x="0" y="0"/>
</marker>
<marker id="open_circle" markerHeight="10" markerWidth="10" orient="auto" refX="10" refY="10" viewBox="0 0 20 20">
<circle class="bg_fill" cx="10" cy="10" r="4"/>
</marker>
<marker id="big_open_circle" markerHeight="20" markerWidth="20" orient="auto" refX="20" refY="20" viewBox="0 0 40 40">
<circle class="bg_fill" cx="20" cy="20" r="6"/>
</marker>
</defs>
<style type="text/css">

rect.backdrop {
    fill: white;
}
text{
    fill: black;
}

circle {
    fill: none;
    stroke: black;
    stroke-width: 2;
}

line {
    stroke: black;
    stroke-width: 2;
    stroke-opacity: 1;
    fill-opacity: 1;
    stroke-linecap: round;
    stroke-linejoin: miter;
}

path {
    fill: none;
    stroke: black;
    stroke-width: 2;
    stroke-opacity: 1;
    fill-opacity: 1;
    stroke-linecap: round;
    stroke-linejoin: miter;
}

line.dashed {
    stroke-dasharray: 5;
}

.fg_fill {
    fill: black;
}


.bg_fill {
    fill: white;
    stroke: black;
    stroke-width: 2;
}

tspan.head{
    fill: none;
    stroke: none;
}
    
</style>
<rect class="backdrop" height="352" width="1064" x="0" y="0"/>
<g>
<line marker-end="url(#triangle)" x1="136" x2="148" y1="184" y2="184"/>
</g>
<g>
<line marker-end="url(#triangle)" x1="144" x2="140" y1="216" y2="216"/>
<line x1="144" x2="152" y1="216" y2="216"/>
</g>
<g>
<line marker-end="url(#triangle)" x1="176" x2="188" y1="184" y2="184"/>
</g>
<g>
<line marker-end="url(#triangle)" x1="184" x2="180" y1="216" y2="216"/>
<line x1="184" x2="192" y1="216" y2="216"/>
</g>
<g>
<line x1="216" x2="228" y1="184" y2="184"/>
<line x1="228" x2="240" y1="184" y2="160"/>
</g>
<g>
<line marker-end="url(#triangle)" x1="224" x2="220" y1="136" y2="136"/>
<line x1="224" x2="272" y1="136" y2="136"/>
</g>
<g>
<line marker-end="url(#triangle)" x1="228" x2="220" y1="216" y2="216"/>
<line x1="228" x2="240" y1="216" y2="240"/>
</g>
<g>
<line marker-end="url(#triangle)" x1="256" x2="268" y1="152" y2="152"/>
</g>
<g>
<line marker-end="url(#triangle)" x1="264" x2="260" y1="248" y2="248"/>
<line x1="264" x2="272" y1="248" y2="248"/>
</g>
<g>
<line x1="296" x2="312" y1="136" y2="136"/>
<path d="M 296 136 A 4 4 0 0 0 292 140"/>
</g>
<g>
<line marker-end="url(#triangle)" x1="296" x2="308" y1="152" y2="152"/>
</g>
<g>
<line x1="296" x2="416" y1="168" y2="168"/>
<path d="M 292 164 A 4 4 0 0 0 296 168"/>
<path d="M 416 168 A 4 4 0 0 0 420 164"/>
</g>
<g>
<line marker-end="url(#triangle)" x1="304" x2="300" y1="248" y2="248"/>
<line x1="304" x2="312" y1="248" y2="248"/>
</g>
<g>
<line x1="324" x2="324" y1="112" y2="144"/>
</g>
<g>
<line x1="336" x2="416" y1="136" y2="136"/>
<path d="M 420 140 A 4 4 0 0 0 416 136"/>
</g>
<g>
<line marker-end="url(#triangle)" x1="336" x2="348" y1="152" y2="152"/>
</g>
<g>
<line marker-end="url(#triangle)" x1="344" x2="340" y1="104" y2="104"/>
<line x1="344" x2="352" y1="104" y2="104"/>
</g>
<g>
<line marker-end="url(#triangle)" x1="344" x2="340" y1="248" y2="248"/>
<line x1="344" x2="352" y1="248" y2="248"/>
</g>
<g>
<line marker-end="url(#triangle)" x1="376" x2="388" y1="152" y2="152"/>
</g>
<g>
<line marker-end="url(#triangle)" x1="384" x2="380" y1="104" y2="104"/>
<line x1="384" x2="392" y1="104" y2="104"/>
</g>
<g>
<line marker-end="url(#triangle)" x1="384" x2="380" y1="248" y2="248"/>
<line x1="384" x2="392" y1="248" y2="248"/>
</g>
<g>
<line marker-end="url(#triangle)" x1="416" x2="428" y1="152" y2="152"/>
</g>
<g>
<line marker-end="url(#triangle)" x1="424" x2="420" y1="104" y2="104"/>
<line x1="424" x2="432" y1="104" y2="104"/>
</g>
<g>
<line marker-end="url(#triangle)" x1="424" x2="420" y1="248" y2="248"/>
<line x1="424" x2="432" y1="248" y2="248"/>
</g>
<g>
<line marker-end="url(#triangle)" x1="504" x2="516" y1="152" y2="152"/>
</g>
<g>
<line marker-end="url(#triangle)" x1="512" x2="508" y1="104" y2="104"/>
<line x1="512" x2="520" y1="104" y2="104"/>
</g>
<g>
<line marker-end="url(#triangle)" x1="512" x2="508" y1="248" y2="248"/>
<line x1="512" x2="520" y1="248" y2="248"/>
</g>
<g>
<line marker-end="url(#triangle)" x1="544" x2="556" y1="152" y2="152"/>
</g>
<g>
<line marker-end="url(#triangle)" x1="544" x2="556" y1="296" y2="296"/>
</g>
<g>
<line marker-end="url(#triangle)" x1="552" x2="548" y1="248" y2="248"/>
<line x1="552" x2="560" y1="248" y2="248"/>
</g>
<g>
<line marker-end="url(#triangle)" x1="584" x2="596" y1="152" y2="152"/>
</g>
<g>
<line marker-end="url(#triangle)" x1="584" x2="596" y1="296" y2="296"/>
</g>
<g>
<line marker-end="url(#triangle)" x1="592" x2="588" y1="248" y2="248"/>
<line x1="592" x2="600" y1="248" y2="248"/>
</g>
<g>
<line marker-end="url(#triangle)" x1="656" x2="668" y1="152" y2="152"/>
</g>
<g>
<line marker-end="url(#triangle)" x1="656" x2="668" y1="296" y2="296"/>
</g>
<g>
<line marker-end="url(#triangle)" x1="664" x2="660" y1="248" y2="248"/>
<line x1="664" x2="672" y1="248" y2="248"/>
</g>
<g>
<line x1="688" x2="808" y1="232" y2="232"/>
<path d="M 688 232 A 4 4 0 0 0 684 236"/>
<path d="M 812 236 A 4 4 0 0 0 808 232"/>
</g>
<g>
<line x1="688" x2="752" y1="264" y2="264"/>
<path d="M 684 260 A 4 4 0 0 0 688 264"/>
</g>
<g>
<line marker-end="url(#triangle)" x1="696" x2="708" y1="152" y2="152"/>
</g>
<g>
<line marker-end="url(#triangle)" x1="696" x2="708" y1="296" y2="296"/>
</g>
<g>
<line marker-end="url(#triangle)" x1="704" x2="700" y1="248" y2="248"/>
<line x1="704" x2="712" y1="248" y2="248"/>
</g>
<g>
<line marker-end="url(#triangle)" x1="736" x2="748" y1="152" y2="152"/>
</g>
<g>
<line marker-end="url(#triangle)" x1="736" x2="748" y1="296" y2="296"/>
</g>
<g>
<line marker-end="url(#triangle)" x1="744" x2="740" y1="248" y2="248"/>
<line x1="744" x2="752" y1="248" y2="248"/>
</g>
<g>
<line x1="764" x2="764" y1="256" y2="288"/>
</g>
<g>
<line marker-end="url(#triangle)" x1="776" x2="788" y1="152" y2="152"/>
</g>
<g>
<line x1="776" x2="808" y1="264" y2="264"/>
<path d="M 808 264 A 4 4 0 0 0 812 260"/>
</g>
<g>
<line marker-end="url(#triangle)" x1="784" x2="780" y1="248" y2="248"/>
<line x1="784" x2="792" y1="248" y2="248"/>
</g>
<g>
<line marker-end="url(#triangle)" x1="816" x2="828" y1="152" y2="152"/>
</g>
<g>
<line marker-end="url(#triangle)" x1="824" x2="820" y1="248" y2="248"/>
<line x1="824" x2="832" y1="248" y2="248"/>
</g>
<g>
<line marker-end="url(#triangle)" x1="832" x2="884" y1="264" y2="264"/>
</g>
<g>
<line x1="848" x2="856" y1="160" y2="176"/>
</g>
<g>
<line x1="848" x2="856" y1="240" y2="224"/>
</g>
<g>
<line marker-end="url(#triangle)" x1="872" x2="884" y1="184" y2="184"/>
</g>
<g>
<line marker-end="url(#triangle)" x1="880" x2="876" y1="216" y2="216"/>
<line x1="880" x2="888" y1="216" y2="216"/>
</g>
<g>
<line marker-end="url(#triangle)" x1="912" x2="924" y1="184" y2="184"/>
</g>
<g>
<line marker-end="url(#triangle)" x1="920" x2="916" y1="216" y2="216"/>
<line x1="920" x2="928" y1="216" y2="216"/>
</g>
<g>
<text x="1" y="204">
ter
</text>
</g>
<g>
<text x="33" y="12">
A single DNA polymerase walks the reverse half-strand,
</text>
</g>
<g>
<text x="33" y="28">
from ori to ter, as the replication fork widens.
</text>
</g>
<g>
<text x="49" y="188">
5&#39;
</text>
</g>
<g>
<text x="49" y="220">
3&#39;
</text>
</g>
<g>
<text x="73" y="188">
.
</text>
</g>
<g>
<text x="73" y="220">
.
</text>
</g>
<g>
<text x="89" y="188">
.
</text>
</g>
<g>
<text x="89" y="220">
.
</text>
</g>
<g>
<text x="105" y="188">
.
</text>
</g>
<g>
<text x="105" y="220">
.
</text>
</g>
<g>
<text x="121" y="188">
A
</text>
</g>
<g>
<text x="121" y="220">
T
</text>
</g>
<g>
<text x="161" y="188">
C
</text>
</g>
<g>
<text x="161" y="220">
G
</text>
</g>
<g>
<text x="201" y="188">
T
</text>
</g>
<g>
<text x="201" y="220">
A
</text>
</g>
<g>
<text x="241" y="156">
A
</text>
</g>
<g>
<text x="241" y="252">
T
</text>
</g>
<g>
<text x="281" y="156">
C
</text>
</g>
<g>
<text x="281" y="252">
G
</text>
</g>
<g>
<text x="321" y="108">
G
</text>
</g>
<g>
<text x="321" y="156">
C
</text>
</g>
<g>
<text x="321" y="252">
G
</text>
</g>
<g>
<text x="361" y="108">
C
</text>
</g>
<g>
<text x="361" y="156">
G
</text>
</g>
<g>
<text x="361" y="252">
C
</text>
</g>
<g>
<text x="401" y="108">
T
</text>
</g>
<g>
<text x="401" y="156">
A
</text>
</g>
<g>
<text x="401" y="252">
T
</text>
</g>
<g>
<text x="441" y="108">
.
</text>
</g>
<g>
<text x="441" y="156">
.
</text>
</g>
<g>
<text x="441" y="252">
.
</text>
</g>
<g>
<text x="457" y="108">
.
</text>
</g>
<g>
<text x="457" y="156">
.
</text>
</g>
<g>
<text x="457" y="252">
.
</text>
</g>
<g>
<text x="473" y="108">
.
</text>
</g>
<g>
<text x="473" y="156">
.
</text>
</g>
<g>
<text x="473" y="252">
.
</text>
</g>
<g>
<text x="489" y="108">
T
</text>
</g>
<g>
<text x="489" y="156">
A
</text>
</g>
<g>
<text x="489" y="252">
T
</text>
</g>
<g>
<text x="521" y="60">
ori
</text>
</g>
<g>
<text x="521" y="348">
ori
</text>
</g>
<g>
<text x="529" y="108">
G
</text>
</g>
<g>
<text x="529" y="156">
C
</text>
</g>
<g>
<text x="529" y="252">
G
</text>
</g>
<g>
<text x="529" y="300">
C
</text>
</g>
<g>
<text x="569" y="156">
T
</text>
</g>
<g>
<text x="569" y="252">
A
</text>
</g>
<g>
<text x="569" y="300">
T
</text>
</g>
<g>
<text x="609" y="156">
.
</text>
</g>
<g>
<text x="609" y="252">
.
</text>
</g>
<g>
<text x="609" y="300">
.
</text>
</g>
<g>
<text x="625" y="156">
.
</text>
</g>
<g>
<text x="625" y="252">
.
</text>
</g>
<g>
<text x="625" y="300">
.
</text>
</g>
<g>
<text x="641" y="156">
.
</text>
</g>
<g>
<text x="641" y="252">
.
</text>
</g>
<g>
<text x="641" y="300">
.
</text>
</g>
<g>
<text x="681" y="156">
G
</text>
</g>
<g>
<text x="681" y="252">
C
</text>
</g>
<g>
<text x="681" y="300">
G
</text>
</g>
<g>
<text x="721" y="156">
A
</text>
</g>
<g>
<text x="721" y="252">
T
</text>
</g>
<g>
<text x="721" y="300">
A
</text>
</g>
<g>
<text x="761" y="156">
A
</text>
</g>
<g>
<text x="761" y="252">
T
</text>
</g>
<g>
<text x="761" y="300">
A
</text>
</g>
<g>
<text x="801" y="156">
A
</text>
</g>
<g>
<text x="801" y="252">
T
</text>
</g>
<g>
<text x="841" y="156">
C
</text>
</g>
<g>
<text x="841" y="252">
G
</text>
</g>
<g>
<text x="857" y="188">
A
</text>
</g>
<g>
<text x="857" y="220">
T
</text>
</g>
<g>
<text x="897" y="188">
C
</text>
</g>
<g>
<text x="897" y="220">
G
</text>
</g>
<g>
<text x="937" y="188">
T
</text>
</g>
<g>
<text x="937" y="220">
A
</text>
</g>
<g>
<text x="953" y="188">
.
</text>
</g>
<g>
<text x="953" y="220">
.
</text>
</g>
<g>
<text x="969" y="188">
.
</text>
</g>
<g>
<text x="969" y="220">
.
</text>
</g>
<g>
<text x="985" y="188">
.
</text>
</g>
<g>
<text x="985" y="220">
.
</text>
</g>
<g>
<text x="1001" y="188">
3&#39;
</text>
</g>
<g>
<text x="1001" y="220">
5&#39;
</text>
</g>
<g>
<text x="1041" y="204">
ter
</text>
</g>
</svg>
