<svg class="bob" font-family="arial" font-size="14" height="176" width="216" xmlns="http://www.w3.org/2000/svg">
<defs>
<marker id="triangle" markerHeight="8" markerWidth="8" orient="auto" refX="4" refY="2" viewBox="0 0 8 4">
<polygon class="fg_fill" points="0,0 0,4 8,2 0,0"/>
</marker>
<marker id="clear_triangle" markerHeight="10" markerWidth="10" orient="auto" refX="1" refY="7" viewBox="0 0 20 14">
<polygon class="bg_fill" points="2,2 2,12 18,7 2,2"/>
</marker>
<marker id="circle" markerHeight="5" markerWidth="5" orient="auto" refX="10" refY="10" viewBox="0 0 20 20">
<circle class="fg_fill" cx="10" cy="10" r="8"/>
</marker>
<marker id="square" markerHeight="5" markerWidth="5" orient="auto" refX="10" refY="10" viewBox="0 0 20 20">
<rect class="fg_fill" height="20" width="20" x="0" y="0"/>
</marker>
<marker id="open_circle" markerHeight="10" markerWidth="10" orient="auto" refX="10" refY="10" viewBox="0 0 20 20">
<circle class="bg_fill" cx="10" cy="10" r="4"/>
</marker>
<marker id="big_open_circle" markerHeight="20" markerWidth="20" orient="auto" refX="20" refY="20" viewBox="0 0 40 40">
<circle class="bg_fill" cx="20" cy="20" r="6"/>
</marker>
</defs>
<style type="text/css">

rect.backdrop {
    fill: white;
}
text{
    fill: black;
}

circle {
    fill: none;
    stroke: black;
    stroke-width: 2;
}

line {
    stroke: black;
    stroke-width: 2;
    stroke-opacity: 1;
    fill-opacity: 1;
    stroke-linecap: round;
    stroke-linejoin: miter;
}

path {
    fill: none;
    stroke: black;
    stroke-width: 2;
    stroke-opacity: 1;
    fill-opacity: 1;
    stroke-linecap: round;
    stroke-linejoin: miter;
}

line.dashed {
    stroke-dasharray: 5;
}

.fg_fill {
    fill: black;
}


.bg_fill {
    fill: white;
    stroke: black;
    stroke-width: 2;
}

tspan.head{
    fill: none;
    stroke: none;
}
    
</style>
<rect class="backdrop" height="176" width="216" x="0" y="0"/>
<g>
<line x1="4" x2="4" y1="28" y2="164"/>
<path d="M 4 164 A 4 4 0 0 0 8 168"/>
<path d="M 8 24 A 4 4 0 0 0 4 28"/>
</g>
<g>
<line x1="8" x2="88" y1="24" y2="24"/>
</g>
<g>
<line x1="8" x2="88" y1="168" y2="168"/>
</g>
<g>
<line x1="16" x2="24" y1="56" y2="56"/>
</g>
<g>
<line x1="16" x2="24" y1="72" y2="72"/>
</g>
<g>
<line x1="16" x2="24" y1="88" y2="88"/>
</g>
<g>
<line x1="16" x2="24" y1="104" y2="104"/>
</g>
<g>
<line x1="16" x2="24" y1="120" y2="120"/>
</g>
<g>
<line x1="16" x2="24" y1="136" y2="136"/>
</g>
<g>
<line x1="36" x2="36" y1="32" y2="48"/>
</g>
<g>
<line x1="36" x2="36" y1="64" y2="128"/>
</g>
<g>
<line x1="36" x2="36" y1="144" y2="160"/>
</g>
<g>
<line x1="40" x2="88" y1="56" y2="56"/>
</g>
<g>
<line x1="40" x2="88" y1="136" y2="136"/>
</g>
<g>
<line x1="52" x2="52" y1="32" y2="48"/>
</g>
<g>
<line x1="52" x2="52" y1="144" y2="160"/>
</g>
<g>
<line x1="68" x2="68" y1="32" y2="48"/>
</g>
<g>
<line x1="68" x2="68" y1="144" y2="160"/>
</g>
<g>
<line x1="84" x2="84" y1="32" y2="48"/>
</g>
<g>
<line x1="84" x2="84" y1="144" y2="160"/>
</g>
<g>
<line marker-end="url(#triangle)" x1="88" x2="124" y1="8" y2="8"/>
</g>
<g>
<line marker-end="url(#triangle)" x1="96" x2="92" y1="72" y2="72"/>
<line x1="96" x2="128" y1="72" y2="72"/>
</g>
<g>
<line x1="100" x2="100" y1="32" y2="48"/>
</g>
<g>
<line x1="100" x2="100" y1="144" y2="160"/>
</g>
<g>
<line x1="116" x2="116" y1="32" y2="48"/>
</g>
<g>
<line x1="116" x2="116" y1="144" y2="160"/>
</g>
<g>
<line x1="128" x2="208" y1="24" y2="24"/>
<path d="M 212 28 A 4 4 0 0 0 208 24"/>
</g>
<g>
<line x1="128" x2="176" y1="56" y2="56"/>
</g>
<g>
<line x1="128" x2="176" y1="136" y2="136"/>
</g>
<g>
<line x1="128" x2="208" y1="168" y2="168"/>
<path d="M 208 168 A 4 4 0 0 0 212 164"/>
</g>
<g>
<line x1="132" x2="132" y1="32" y2="48"/>
</g>
<g>
<line x1="132" x2="132" y1="144" y2="160"/>
</g>
<g>
<line x1="148" x2="148" y1="32" y2="48"/>
</g>
<g>
<line x1="148" x2="148" y1="144" y2="160"/>
</g>
<g>
<line x1="164" x2="164" y1="32" y2="48"/>
</g>
<g>
<line x1="164" x2="164" y1="144" y2="160"/>
</g>
<g>
<line x1="180" x2="180" y1="32" y2="48"/>
</g>
<g>
<line x1="180" x2="180" y1="64" y2="128"/>
</g>
<g>
<line x1="180" x2="180" y1="144" y2="160"/>
</g>
<g>
<line x1="192" x2="200" y1="56" y2="56"/>
</g>
<g>
<line x1="192" x2="200" y1="72" y2="72"/>
</g>
<g>
<line x1="192" x2="200" y1="88" y2="88"/>
</g>
<g>
<line x1="192" x2="200" y1="104" y2="104"/>
</g>
<g>
<line x1="192" x2="200" y1="120" y2="120"/>
</g>
<g>
<line x1="192" x2="200" y1="136" y2="136"/>
</g>
<g>
<line x1="212" x2="212" y1="28" y2="164"/>
</g>
<g>
<text x="65" y="12">
5&#39;
</text>
</g>
<g>
<text x="65" y="76">
3&#39;
</text>
</g>
<g>
<text x="97" y="28">
ori
</text>
</g>
<g>
<text x="97" y="60">
ori
</text>
</g>
<g>
<text x="97" y="140">
ter
</text>
</g>
<g>
<text x="97" y="172">
ter
</text>
</g>
<g>
<text x="137" y="12">
3&#39;
</text>
</g>
<g>
<text x="137" y="76">
5&#39;
</text>
</g>
</svg>
