<svg class="bob" font-family="arial" font-size="14" height="80" width="504" xmlns="http://www.w3.org/2000/svg">
<defs>
<marker id="triangle" markerHeight="8" markerWidth="8" orient="auto" refX="4" refY="2" viewBox="0 0 8 4">
<polygon class="fg_fill" points="0,0 0,4 8,2 0,0"/>
</marker>
<marker id="clear_triangle" markerHeight="10" markerWidth="10" orient="auto" refX="1" refY="7" viewBox="0 0 20 14">
<polygon class="bg_fill" points="2,2 2,12 18,7 2,2"/>
</marker>
<marker id="circle" markerHeight="5" markerWidth="5" orient="auto" refX="10" refY="10" viewBox="0 0 20 20">
<circle class="fg_fill" cx="10" cy="10" r="8"/>
</marker>
<marker id="square" markerHeight="5" markerWidth="5" orient="auto" refX="10" refY="10" viewBox="0 0 20 20">
<rect class="fg_fill" height="20" width="20" x="0" y="0"/>
</marker>
<marker id="open_circle" markerHeight="10" markerWidth="10" orient="auto" refX="10" refY="10" viewBox="0 0 20 20">
<circle class="bg_fill" cx="10" cy="10" r="4"/>
</marker>
<marker id="big_open_circle" markerHeight="20" markerWidth="20" orient="auto" refX="20" refY="20" viewBox="0 0 40 40">
<circle class="bg_fill" cx="20" cy="20" r="6"/>
</marker>
</defs>
<style type="text/css">

rect.backdrop {
    fill: white;
}
text{
    fill: black;
}

circle {
    fill: none;
    stroke: black;
    stroke-width: 2;
}

line {
    stroke: black;
    stroke-width: 2;
    stroke-opacity: 1;
    fill-opacity: 1;
    stroke-linecap: round;
    stroke-linejoin: miter;
}

path {
    fill: none;
    stroke: black;
    stroke-width: 2;
    stroke-opacity: 1;
    fill-opacity: 1;
    stroke-linecap: round;
    stroke-linejoin: miter;
}

line.dashed {
    stroke-dasharray: 5;
}

.fg_fill {
    fill: black;
}


.bg_fill {
    fill: white;
    stroke: black;
    stroke-width: 2;
}

tspan.head{
    fill: none;
    stroke: none;
}
    
</style>
<rect class="backdrop" height="80" width="504" x="0" y="0"/>
<g>
<line marker-end="url(#triangle)" x1="24" x2="68" y1="24" y2="24"/>
</g>
<g>
<line marker-end="url(#triangle)" x1="24" x2="68" y1="72" y2="72"/>
</g>
<g>
<line marker-end="url(#triangle)" x1="160" x2="204" y1="24" y2="24"/>
</g>
<g>
<line marker-end="url(#triangle)" x1="160" x2="204" y1="72" y2="72"/>
</g>
<g>
<line marker-end="url(#triangle)" x1="296" x2="340" y1="24" y2="24"/>
</g>
<g>
<line marker-end="url(#triangle)" x1="296" x2="340" y1="72" y2="72"/>
</g>
<g>
<line marker-end="url(#triangle)" x1="432" x2="476" y1="24" y2="24"/>
</g>
<g>
<line marker-end="url(#triangle)" x1="432" x2="476" y1="72" y2="72"/>
</g>
<g>
<text x="1" y="28">
00
</text>
</g>
<g>
<text x="1" y="76">
10
</text>
</g>
<g>
<text x="33" y="12">
000
</text>
</g>
<g>
<text x="33" y="60">
100
</text>
</g>
<g>
<text x="81" y="28">
00
</text>
</g>
<g>
<text x="81" y="76">
00
</text>
</g>
<g>
<text x="137" y="28">
00
</text>
</g>
<g>
<text x="137" y="76">
10
</text>
</g>
<g>
<text x="169" y="12">
001
</text>
</g>
<g>
<text x="169" y="60">
101
</text>
</g>
<g>
<text x="217" y="28">
01
</text>
</g>
<g>
<text x="217" y="76">
01
</text>
</g>
<g>
<text x="273" y="28">
01
</text>
</g>
<g>
<text x="273" y="76">
11
</text>
</g>
<g>
<text x="305" y="12">
010
</text>
</g>
<g>
<text x="305" y="60">
110
</text>
</g>
<g>
<text x="353" y="28">
10
</text>
</g>
<g>
<text x="353" y="76">
10
</text>
</g>
<g>
<text x="409" y="28">
01
</text>
</g>
<g>
<text x="409" y="76">
11
</text>
</g>
<g>
<text x="441" y="12">
011
</text>
</g>
<g>
<text x="441" y="60">
111
</text>
</g>
<g>
<text x="489" y="28">
11
</text>
</g>
<g>
<text x="489" y="76">
11
</text>
</g>
</svg>
