<svg class="bob" font-family="arial" font-size="14" height="160" width="368" xmlns="http://www.w3.org/2000/svg">
<defs>
<marker id="triangle" markerHeight="8" markerWidth="8" orient="auto" refX="4" refY="2" viewBox="0 0 8 4">
<polygon class="fg_fill" points="0,0 0,4 8,2 0,0"/>
</marker>
<marker id="clear_triangle" markerHeight="10" markerWidth="10" orient="auto" refX="1" refY="7" viewBox="0 0 20 14">
<polygon class="bg_fill" points="2,2 2,12 18,7 2,2"/>
</marker>
<marker id="circle" markerHeight="5" markerWidth="5" orient="auto" refX="10" refY="10" viewBox="0 0 20 20">
<circle class="fg_fill" cx="10" cy="10" r="8"/>
</marker>
<marker id="square" markerHeight="5" markerWidth="5" orient="auto" refX="10" refY="10" viewBox="0 0 20 20">
<rect class="fg_fill" height="20" width="20" x="0" y="0"/>
</marker>
<marker id="open_circle" markerHeight="10" markerWidth="10" orient="auto" refX="10" refY="10" viewBox="0 0 20 20">
<circle class="bg_fill" cx="10" cy="10" r="4"/>
</marker>
<marker id="big_open_circle" markerHeight="20" markerWidth="20" orient="auto" refX="20" refY="20" viewBox="0 0 40 40">
<circle class="bg_fill" cx="20" cy="20" r="6"/>
</marker>
</defs>
<style type="text/css">

rect.backdrop {
    fill: white;
}
text{
    fill: black;
}

circle {
    fill: none;
    stroke: black;
    stroke-width: 2;
}

line {
    stroke: black;
    stroke-width: 2;
    stroke-opacity: 1;
    fill-opacity: 1;
    stroke-linecap: round;
    stroke-linejoin: miter;
}

path {
    fill: none;
    stroke: black;
    stroke-width: 2;
    stroke-opacity: 1;
    fill-opacity: 1;
    stroke-linecap: round;
    stroke-linejoin: miter;
}

line.dashed {
    stroke-dasharray: 5;
}

.fg_fill {
    fill: black;
}


.bg_fill {
    fill: white;
    stroke: black;
    stroke-width: 2;
}

tspan.head{
    fill: none;
    stroke: none;
}
    
</style>
<rect class="backdrop" height="160" width="368" x="0" y="0"/>
<g>
<line x1="12" x2="12" y1="40" y2="72"/>
<line x1="12" x2="76" y1="40" y2="40"/>
<line x1="12" x2="76" y1="72" y2="72"/>
<line x1="76" x2="76" y1="40" y2="72"/>
</g>
<g>
<line x1="28" x2="28" y1="88" y2="120"/>
<line x1="28" x2="92" y1="88" y2="88"/>
<line x1="28" x2="92" y1="120" y2="120"/>
<line x1="92" x2="92" y1="88" y2="120"/>
</g>
<g>
<line x1="96" x2="172" y1="56" y2="56"/>
<line x1="172" x2="172" y1="56" y2="72"/>
<line marker-end="url(#triangle)" x1="172" x2="212" y1="72" y2="72"/>
</g>
<g>
<line x1="104" x2="164" y1="104" y2="104"/>
<line x1="164" x2="164" y1="88" y2="104"/>
<line marker-end="url(#triangle)" x1="164" x2="228" y1="88" y2="88"/>
</g>
<g>
<text x="1" y="60">
G
</text>
</g>
<g>
<text x="1" y="108">
G
</text>
</g>
<g>
<text x="1" y="156">
* Starting G wasn&#39;t captured.
</text>
</g>
<g>
<text x="17" y="60">
A
</text>
</g>
<g>
<text x="17" y="108">
A
</text>
</g>
<g>
<text x="33" y="60">
A
</text>
</g>
<g>
<text x="33" y="108">
A
</text>
</g>
<g>
<text x="49" y="60">
T
</text>
</g>
<g>
<text x="49" y="108">
T
</text>
</g>
<g>
<text x="57" y="12">
DNA reads
</text>
</g>
<g>
<text x="65" y="60">
T
</text>
</g>
<g>
<text x="65" y="108">
T
</text>
</g>
<g>
<text x="81" y="60">
T
</text>
</g>
<g>
<text x="81" y="108">
T
</text>
</g>
<g>
<text x="209" y="12">
Stitched DNA reads
</text>
</g>
<g>
<text x="225" y="44">
A
</text>
</g>
<g>
<text x="225" y="76">
A
</text>
</g>
<g>
<text x="241" y="44">
A
</text>
</g>
<g>
<text x="241" y="76">
A
</text>
</g>
<g>
<text x="241" y="92">
A
</text>
</g>
<g>
<text x="257" y="44">
T
</text>
</g>
<g>
<text x="257" y="76">
T
</text>
</g>
<g>
<text x="257" y="92">
T
</text>
</g>
<g>
<text x="273" y="44">
T
</text>
</g>
<g>
<text x="273" y="76">
T
</text>
</g>
<g>
<text x="273" y="92">
T
</text>
</g>
<g>
<text x="289" y="44">
T
</text>
</g>
<g>
<text x="289" y="92">
T
</text>
</g>
</svg>
