<svg class="bob" font-family="arial" font-size="14" height="288" width="648" xmlns="http://www.w3.org/2000/svg">
<defs>
<marker id="triangle" markerHeight="8" markerWidth="8" orient="auto" refX="4" refY="2" viewBox="0 0 8 4">
<polygon class="fg_fill" points="0,0 0,4 8,2 0,0"/>
</marker>
<marker id="clear_triangle" markerHeight="10" markerWidth="10" orient="auto" refX="1" refY="7" viewBox="0 0 20 14">
<polygon class="bg_fill" points="2,2 2,12 18,7 2,2"/>
</marker>
<marker id="circle" markerHeight="5" markerWidth="5" orient="auto" refX="10" refY="10" viewBox="0 0 20 20">
<circle class="fg_fill" cx="10" cy="10" r="8"/>
</marker>
<marker id="square" markerHeight="5" markerWidth="5" orient="auto" refX="10" refY="10" viewBox="0 0 20 20">
<rect class="fg_fill" height="20" width="20" x="0" y="0"/>
</marker>
<marker id="open_circle" markerHeight="10" markerWidth="10" orient="auto" refX="10" refY="10" viewBox="0 0 20 20">
<circle class="bg_fill" cx="10" cy="10" r="4"/>
</marker>
<marker id="big_open_circle" markerHeight="20" markerWidth="20" orient="auto" refX="20" refY="20" viewBox="0 0 40 40">
<circle class="bg_fill" cx="20" cy="20" r="6"/>
</marker>
</defs>
<style type="text/css">

rect.backdrop {
    fill: white;
}
text{
    fill: black;
}

circle {
    fill: none;
    stroke: black;
    stroke-width: 2;
}

line {
    stroke: black;
    stroke-width: 2;
    stroke-opacity: 1;
    fill-opacity: 1;
    stroke-linecap: round;
    stroke-linejoin: miter;
}

path {
    fill: none;
    stroke: black;
    stroke-width: 2;
    stroke-opacity: 1;
    fill-opacity: 1;
    stroke-linecap: round;
    stroke-linejoin: miter;
}

line.dashed {
    stroke-dasharray: 5;
}

.fg_fill {
    fill: black;
}


.bg_fill {
    fill: white;
    stroke: black;
    stroke-width: 2;
}

tspan.head{
    fill: none;
    stroke: none;
}
    
</style>
<rect class="backdrop" height="288" width="648" x="0" y="0"/>
<g>
<line x1="20" x2="20" y1="108" y2="244"/>
<path d="M 20 244 A 4 4 0 0 0 24 248"/>
<path d="M 24 104 A 4 4 0 0 0 20 108"/>
</g>
<g>
<line x1="24" x2="104" y1="104" y2="104"/>
</g>
<g>
<line x1="24" x2="104" y1="248" y2="248"/>
</g>
<g>
<line x1="32" x2="40" y1="136" y2="136"/>
</g>
<g>
<line x1="32" x2="40" y1="152" y2="152"/>
</g>
<g>
<line x1="32" x2="40" y1="168" y2="168"/>
</g>
<g>
<line x1="32" x2="40" y1="184" y2="184"/>
</g>
<g>
<line x1="32" x2="40" y1="200" y2="200"/>
</g>
<g>
<line x1="32" x2="40" y1="216" y2="216"/>
</g>
<g>
<line x1="52" x2="52" y1="112" y2="128"/>
</g>
<g>
<line x1="52" x2="52" y1="144" y2="208"/>
</g>
<g>
<line x1="52" x2="52" y1="224" y2="240"/>
</g>
<g>
<line x1="56" x2="104" y1="136" y2="136"/>
</g>
<g>
<line x1="56" x2="104" y1="216" y2="216"/>
</g>
<g>
<line x1="68" x2="68" y1="112" y2="128"/>
</g>
<g>
<line x1="68" x2="68" y1="224" y2="240"/>
</g>
<g>
<line x1="84" x2="84" y1="112" y2="128"/>
</g>
<g>
<line x1="84" x2="84" y1="224" y2="240"/>
</g>
<g>
<line x1="100" x2="100" y1="112" y2="128"/>
</g>
<g>
<line x1="100" x2="100" y1="224" y2="240"/>
</g>
<g>
<line marker-end="url(#triangle)" x1="104" x2="140" y1="88" y2="88"/>
</g>
<g>
<line marker-end="url(#triangle)" x1="112" x2="108" y1="152" y2="152"/>
<line x1="112" x2="144" y1="152" y2="152"/>
</g>
<g>
<line x1="116" x2="116" y1="112" y2="128"/>
</g>
<g>
<line x1="116" x2="116" y1="224" y2="240"/>
</g>
<g>
<line x1="132" x2="132" y1="112" y2="128"/>
</g>
<g>
<line x1="132" x2="132" y1="224" y2="240"/>
</g>
<g>
<line x1="144" x2="224" y1="104" y2="104"/>
<path d="M 228 108 A 4 4 0 0 0 224 104"/>
</g>
<g>
<line x1="144" x2="224" y1="248" y2="248"/>
<path d="M 224 248 A 4 4 0 0 0 228 244"/>
</g>
<g>
<line x1="148" x2="148" y1="112" y2="128"/>
</g>
<g>
<line x1="148" x2="148" y1="224" y2="240"/>
</g>
<g>
<line x1="164" x2="164" y1="112" y2="128"/>
</g>
<g>
<line x1="164" x2="164" y1="224" y2="240"/>
</g>
<g>
<line x1="180" x2="180" y1="112" y2="128"/>
</g>
<g>
<line x1="180" x2="180" y1="224" y2="240"/>
</g>
<g>
<line x1="196" x2="196" y1="112" y2="128"/>
</g>
<g>
<line x1="196" x2="196" y1="224" y2="240"/>
</g>
<g>
<line x1="208" x2="216" y1="136" y2="136"/>
</g>
<g>
<line x1="208" x2="216" y1="152" y2="152"/>
</g>
<g>
<line x1="208" x2="216" y1="168" y2="168"/>
</g>
<g>
<line x1="208" x2="216" y1="184" y2="184"/>
</g>
<g>
<line x1="208" x2="216" y1="200" y2="200"/>
</g>
<g>
<line x1="208" x2="216" y1="216" y2="216"/>
</g>
<g>
<line x1="228" x2="228" y1="108" y2="244"/>
</g>
<g>
<line x1="332" x2="332" y1="108" y2="244"/>
<path d="M 332 244 A 4 4 0 0 0 336 248"/>
<path d="M 336 104 A 4 4 0 0 0 332 108"/>
</g>
<g>
<line x1="336" x2="416" y1="104" y2="104"/>
</g>
<g>
<line x1="336" x2="416" y1="248" y2="248"/>
</g>
<g>
<line x1="344" x2="352" y1="136" y2="136"/>
</g>
<g>
<line x1="344" x2="352" y1="152" y2="152"/>
</g>
<g>
<line x1="344" x2="352" y1="168" y2="168"/>
</g>
<g>
<line x1="344" x2="352" y1="184" y2="184"/>
</g>
<g>
<line x1="344" x2="352" y1="200" y2="200"/>
</g>
<g>
<line x1="344" x2="352" y1="216" y2="216"/>
</g>
<g>
<line x1="364" x2="364" y1="112" y2="128"/>
</g>
<g>
<line x1="364" x2="364" y1="144" y2="208"/>
</g>
<g>
<line x1="364" x2="364" y1="224" y2="240"/>
</g>
<g>
<line x1="368" x2="416" y1="136" y2="136"/>
</g>
<g>
<line x1="368" x2="416" y1="216" y2="216"/>
</g>
<g>
<line x1="380" x2="380" y1="112" y2="128"/>
</g>
<g>
<line x1="380" x2="380" y1="224" y2="240"/>
</g>
<g>
<line x1="396" x2="396" y1="112" y2="128"/>
</g>
<g>
<line x1="396" x2="396" y1="224" y2="240"/>
</g>
<g>
<line x1="412" x2="412" y1="112" y2="128"/>
</g>
<g>
<line x1="412" x2="412" y1="224" y2="240"/>
</g>
<g>
<line marker-end="url(#triangle)" x1="416" x2="452" y1="88" y2="88"/>
</g>
<g>
<line marker-end="url(#triangle)" x1="424" x2="420" y1="152" y2="152"/>
<line x1="424" x2="456" y1="152" y2="152"/>
</g>
<g>
<line x1="428" x2="428" y1="112" y2="128"/>
</g>
<g>
<line x1="428" x2="428" y1="224" y2="240"/>
</g>
<g>
<line x1="444" x2="444" y1="112" y2="128"/>
</g>
<g>
<line x1="444" x2="444" y1="224" y2="240"/>
</g>
<g>
<line x1="456" x2="504" y1="136" y2="136"/>
</g>
<g>
<line x1="456" x2="504" y1="216" y2="216"/>
</g>
<g>
<line x1="460" x2="460" y1="112" y2="128"/>
</g>
<g>
<line x1="460" x2="460" y1="224" y2="240"/>
</g>
<g>
<line x1="476" x2="476" y1="112" y2="128"/>
</g>
<g>
<line x1="476" x2="476" y1="224" y2="240"/>
</g>
<g>
<line x1="492" x2="492" y1="112" y2="128"/>
</g>
<g>
<line x1="492" x2="492" y1="224" y2="240"/>
</g>
<g>
<line x1="508" x2="508" y1="112" y2="128"/>
</g>
<g>
<line x1="508" x2="508" y1="144" y2="208"/>
</g>
<g>
<line x1="508" x2="508" y1="224" y2="240"/>
</g>
<g>
<line x1="520" x2="528" y1="136" y2="136"/>
</g>
<g>
<line x1="520" x2="528" y1="152" y2="152"/>
</g>
<g>
<line x1="520" x2="528" y1="168" y2="168"/>
</g>
<g>
<line x1="520" x2="528" y1="184" y2="184"/>
</g>
<g>
<line x1="520" x2="528" y1="200" y2="200"/>
</g>
<g>
<line x1="520" x2="528" y1="216" y2="216"/>
</g>
<g>
<line x1="540" x2="540" y1="108" y2="112"/>
<line class="dashed" x1="540" x2="540" y1="112" y2="240"/>
<path d="M 540 108 A 4 4 0 0 0 536 104"/>
</g>
<g>
<line x1="540" x2="540" y1="244" y2="240"/>
<path d="M 536 248 A 4 4 0 0 0 540 244"/>
</g>
<g>
<line class="dashed" x1="144" x2="184" y1="216" y2="216"/>
</g>
<g>
<line class="dashed" x1="152" x2="192" y1="136" y2="136"/>
</g>
<g>
<line class="dashed" x1="196" x2="196" y1="144" y2="208"/>
</g>
<g>
<line class="dashed" x1="464" x2="536" y1="104" y2="104"/>
</g>
<g>
<line class="dashed" x1="464" x2="536" y1="248" y2="248"/>
</g>
<g>
<text x="17" y="44">
The end result is 2 daughter chromosomes, but the synthesized strand for each
</text>
</g>
<g>
<text x="17" y="60">
forward strand is chopped up into pieces (Okazaki fragments).
</text>
</g>
<g>
<text x="17" y="284">
original strand is outside strand
</text>
</g>
<g>
<text x="81" y="92">
5&#39;
</text>
</g>
<g>
<text x="81" y="156">
3&#39;
</text>
</g>
<g>
<text x="113" y="108">
ori
</text>
</g>
<g>
<text x="113" y="140">
ori
</text>
</g>
<g>
<text x="113" y="220">
ter
</text>
</g>
<g>
<text x="113" y="252">
ter
</text>
</g>
<g>
<text x="153" y="92">
3&#39;
</text>
</g>
<g>
<text x="153" y="156">
5&#39;
</text>
</g>
<g>
<text x="193" y="12">
Two daughter chromosomes
</text>
</g>
<g>
<text x="329" y="284">
original strand is inner strand
</text>
</g>
<g>
<text x="393" y="92">
5&#39;
</text>
</g>
<g>
<text x="393" y="156">
3&#39;
</text>
</g>
<g>
<text x="425" y="108">
ori
</text>
</g>
<g>
<text x="425" y="140">
ori
</text>
</g>
<g>
<text x="425" y="220">
ter
</text>
</g>
<g>
<text x="425" y="252">
ter
</text>
</g>
<g>
<text x="465" y="92">
3&#39;
</text>
</g>
<g>
<text x="465" y="156">
5&#39;
</text>
</g>
</svg>
