<?xml version="1.0" encoding="utf-8"?>
<!-- Generator: Adobe Illustrator 12.0.0, SVG Export Plug-In . SVG Version: 6.00 Build 51448)  -->
<!DOCTYPE svg PUBLIC "-//W3C//DTD SVG 1.1//EN" "http://www.w3.org/Graphics/SVG/1.1/DTD/svg11.dtd" >
<svg  version="1.1" id="Layer_1" xmlns="http://www.w3.org/2000/svg" xmlns:xlink="http://www.w3.org/1999/xlink" width="617.96875" height="244.48828"
	 viewBox="0.00024 0 617.96875 244.48828" overflow="visible" enable-background="new 0.00024 0 617.96875 244.48828"
	 xml:space="preserve">
<rect x="0.00024" fill="#FFFFFF" width="617.96875" height="244.48828"/>
<rect x="6.06567" y="23.99854" fill="#E5E5E5" width="607.46973" height="190.49072"/>
<path fill="#072C3D" d="M325.5188,48.33398h-57.44922c-5.93164,0-9.96387,3.01758-12.55078,6.66016
	c-0.91406,1.28711-17.58105-8.02734-27.24805-6.69141l-2.92969,4.35547c-0.26758,0.92383,17.24902-1.93555,26.42773,8.64453
	l-0.04297,3.20898l0.15723,3.46094l5.18945,114.16602c0.1084,2.37695,1.10449,4.41797,2.88184,5.90234
	c1.87012,1.56055,4.36914,2.28613,6.69043,2.5957c1.31348,0.1748-8.8291,11.61523-7.77441,11.59961
	c1.24023-0.01855,3.9082,0.98145,4.35059,0.92773c0.05371,0,5.38379-8.86035,14.0498-12.49609c14.73828,0,61.79883,0,61.79883,0
	c2.4375,0,4.49414-0.55762,6.2168-1.46777c0.99414-0.52539,1.87695-1.16797,2.6582-1.88867
	c14.32617,3.99219,7.13086-0.125,7.73633-1.00781c0.76172-1.1123,0.55469,1.03516-3.78125-4.91113
	c0.63281-1.58594,0.99805-3.12012,1.14844-4.36328l0.0332-0.27344l-0.01758-0.27539c-0.05078-0.8125-4.33008-69.39453-5.62695-97.75
	c-0.23047-5.06445-0.11719-8.86133-0.36719-10.72852c-1.98242-14.7793-14.08789-20.31836,8.07227-18.0918
	c-0.69531-1.32227,0.92578-3.61328,0.09766-4.60938c-0.87891-1.05859-4.65234-1.24414-15.60938,6.03711
	c-2.28125-1.89648-4.25-2.71094-4.44531-2.78906l-0.53711-0.21484H325.5188z M268.06958,54.33398c0,0,64.01953,0,65.33008,0
	c1.73633,0.89648,7.66992,4.61719,7.66992,13.66797c0,12.40625,5.56641,101.81836,5.98633,108.52344
	c-0.21289,1.38867-1.57031,8.14258-7.98633,8.14258h-66.5293l-0.20117,0.02734c-1.98438,0.25977-6.68262,0.29492-8.54297-1.26367
	c-0.48047-0.40234-0.69727-0.87109-0.72949-1.56641c0,0-5.28809-116.33984-5.31836-117
	C258.06079,63.21875,260.11743,54.33398,268.06958,54.33398z"/>
<path fill="#E4F792" stroke="#006B33" stroke-width="0.95762" d="M269.56665,57.32227
	c10.2002-0.00391,20.35938,0.71289,30.52734,0.84766c7.13965,0.09473,15.03125-2.87012,22.12598-1.04883
	c15.4043,3.95508,17.3457,24.95313,18.0293,38.03906c1.38867,26.55664,3.01074,53.10254,4.65039,79.64551
	c-0.20117,1.33496-1.49414,7.82813-7.61523,7.82813h-63.45508l-0.19141,0.02637c-1.89258,0.24902-6.375,0.28418-8.14844-1.21484
	c-0.45801-0.38672-0.66602-0.83789-0.69727-1.50586c-0.48633-10.79004,2.95117-20.63477,3.77734-31.27246
	c0.71484-9.22168-0.52734-18.26367-1.97363-27.02246C264.90356,111.39551,248.68677,57.33008,269.56665,57.32227z"/>
<path fill="#CCFF00" stroke="#072C3D" stroke-width="0.95762" d="M282.79614,149.75977
	c7.83984-5.56445-4.2793-13.18164-7.32617-5.98535C273.48169,148.46875,278.6731,152.6875,282.79614,149.75977z"/>
<path fill="#00A0C6" stroke="#072C3D" stroke-width="0.95762" d="M285.25513,115.94434
	c1.15625,1.7168,2.26172,3.44336,3.0625,5.21191c5.46094,12.0459,15.44727,41.39648,33.04297,37.69141
	c11.41406-2.40332,12.81445-15.71973,12.99219-25.22559c0.25-13.23535-1.31445-26.87305-6.58594-39.12012
	c-6.94336-16.13281-29.46484-27.44531-41.48242-9.6748c-4.19336,6.20215-8.66797,14.67188-6.14844,22.22266
	C281.15356,110.10059,283.27856,113.00977,285.25513,115.94434z"/>
<ellipse fill="#FFFFFF" stroke="#000000" cx="277.31958" cy="70.36035" rx="2.25" ry="2"/>
<ellipse fill="#FFFFFF" stroke="#000000" cx="327.31958" cy="74.61035" rx="1.75" ry="2.25"/>
<circle fill="#FFFFFF" stroke="#000000" cx="302.81958" cy="172.11035" r="2.25"/>
<ellipse fill="#FFFFFF" stroke="#000000" cx="329.06958" cy="169.98535" rx="2" ry="2.125"/>
<path fill="#00FF00" stroke="#000000" d="M312.2356,143.00098c0,0-27.9082,25.75586-64.66602,17.33398l-0.66797,7.33203
	l-18.66602-13.99902l21.35156-6.66699l-1.18262,6.80566c0,0,37.16504,2.52832,52.35645-22.28027L312.2356,143.00098z"/>
<g>
	<path d="M206.65454,115.72852v5.51172h5.32129v-5.51172h3.22266v14.28809h-3.22266v-5.95703h-5.32129v5.95703h-3.22168v-14.28809
		H206.65454z"/>
	<path d="M228.36353,130.25c-4.21875,0-6.7207-3.20117-6.7207-7.27148c0-4.28223,2.75586-7.4834,6.95313-7.4834
		c4.38867,0,6.78418,3.28613,6.78418,7.22949c0,4.70605-2.81934,7.52539-6.99609,7.52539H228.36353z M228.51196,127.68457
		c2.18359,0,3.43359-2.05566,3.43359-4.85449c0-2.56543-1.20801-4.76953-3.43359-4.76953
		c-2.22656,0-3.47754,2.16211-3.47754,4.83301c0,2.69238,1.29395,4.79102,3.45605,4.79102H228.51196z"/>
</g>
<g>
	<path d="M215.57349,134.4248v-1.08594l0.97949-0.88477c1.6875-1.51074,2.50195-2.37305,2.51465-3.26953
		c0-0.62598-0.36621-1.12109-1.25195-1.12109c-0.66016,0-1.23926,0.33008-1.64063,0.625l-0.50684-1.27441
		c0.56641-0.43652,1.47461-0.79102,2.50195-0.79102c1.74707,0,2.69141,1.01563,2.69141,2.4082
		c0,1.28613-0.9209,2.31348-2.04199,3.30469l-0.70801,0.58984v0.02344h2.90332v1.47559H215.57349z"/>
</g>
<g>
	<path d="M301.27954,109.57715v5.03711h4.8623v-5.03711h2.94531v13.05762h-2.94531v-5.44434h-4.8623v5.44434h-2.94434v-13.05762
		H301.27954z"/>
	<path d="M321.11841,122.84766c-3.85547,0-6.1416-2.9248-6.1416-6.64453c0-3.91309,2.51855-6.83887,6.35449-6.83887
		c4.00977,0,6.19922,3.00293,6.19922,6.60645c0,4.30078-2.57617,6.87695-6.39258,6.87695H321.11841z M321.25317,120.50391
		c1.99609,0,3.13867-1.87988,3.13867-4.43652c0-2.34375-1.10352-4.35938-3.13867-4.35938c-2.0332,0-3.17676,1.97656-3.17676,4.41699
		c0,2.46094,1.18164,4.37891,3.15723,4.37891H321.25317z"/>
</g>
<g>
	<path d="M309.42993,126.04297v-0.99219l0.89551-0.80957c1.54199-1.38086,2.28711-2.16797,2.29688-2.9873
		c0-0.57227-0.33398-1.02539-1.14258-1.02539c-0.60449,0-1.13281,0.30273-1.5,0.57227l-0.46289-1.16504
		c0.51758-0.39941,1.34766-0.72266,2.28613-0.72266c1.59668,0,2.45898,0.92773,2.45898,2.2002
		c0,1.17578-0.84082,2.11426-1.86621,3.02051l-0.64648,0.53906v0.02148h2.65234v1.34863H309.42993z"/>
</g>
<path fill="#FFFF00" stroke="#000000" d="M219.02759,89.09082c0,0,32.1875-20.15332,66.75586-5.08301l2.01172-7.08203
	L303.552,94.13379l-22.21582,2.60547l2.41895-6.46973c0,0-36.05664-9.35352-55.57227,12.21875L219.02759,89.09082z"/>
<path fill="#072C3D" d="M125.32349,49.0752H67.87427c-5.93066,0-9.96289,3.01758-12.55078,6.66016
	c-0.91309,1.28613-17.58008-8.02832-27.24707-6.69141l-2.93066,4.35449c-0.26758,0.92383,17.25-1.93457,26.42871,8.64551
	l-0.04395,3.20898l0.1582,3.46094l5.18945,114.16602c0.10742,2.37695,1.10449,4.41797,2.88184,5.90234
	c1.87012,1.56055,4.36816,2.28516,6.69043,2.5957c1.3125,0.17383-8.8291,11.61523-7.77539,11.59961
	c1.24121-0.01953,3.9082,0.98047,4.35156,0.92773c0.05371,0,5.38281-8.86133,14.04883-12.49609c14.73828,0,61.7998,0,61.7998,0
	c2.4375,0,4.49414-0.55859,6.2168-1.46875c0.99316-0.52539,1.87598-1.16797,2.65723-1.88867
	c14.32715,3.99219,21.38867-0.125,21.99414-1.00781c0.76172-1.11133-13.70215,1.03516-18.03906-4.91016
	c0.63281-1.58594,0.99805-3.12109,1.14844-4.36328l0.0332-0.27344l-0.01758-0.27539c-0.05078-0.8125-4.33008-69.39453-5.62598-97.75
	c-0.23145-5.06445-0.11719-8.86133-0.36816-10.72852c-1.98242-14.7793,0.16992-20.31934,22.33008-18.0918
	c-0.69531-1.32227,0.92578-3.61426,0.09863-4.60938c-0.87988-1.05859-18.91113-1.24512-29.86816,6.03711
	c-2.28125-1.89648-4.25-2.71094-4.44531-2.78906l-0.53711-0.21484H125.32349z M67.87427,55.0752c0,0,64.01953,0,65.33105,0
	c1.73535,0.89551,7.66895,4.61719,7.66895,13.66797c0,12.40625,5.56738,101.81836,5.98633,108.52344
	c-0.21289,1.38867-1.56934,8.14258-7.98535,8.14258H72.34497l-0.2002,0.02734c-1.98438,0.25977-6.68262,0.29492-8.54395-1.26367
	c-0.47949-0.40234-0.69727-0.87109-0.72852-1.56641c0,0-5.28906-116.33984-5.31836-117.00098
	C57.86646,63.95996,59.9231,55.0752,67.87427,55.0752z"/>
<path fill="#E4F792" stroke="#006B33" stroke-width="0.95762" d="M64.36157,180.77051c0,0,27.63281-33.27539,30.67969-41.02734
	c4.04395-10.29102-5.66699-18.00195-5.66699-18.00195c-3.33301-3.33203-22.26172-2.76367-26.55078,0.94531l-0.18945-4.35156
	c0,0,12.40723-3.25977,24.58008-4.63184c1.73633-0.19629,3.95313-2.46582,4.49414-6.5752
	c1.27246-9.6582-25.06641-49.31934-25.06641-49.31934c1.14746,0.31641,3.36426-0.27148,4.4248,0.60059
	c5.80176,4.77051,26.30762,46,26.30762,46c4.37207-4.37305,9.66699-1.66699,9.66699-1.66699
	c3.06836-5.86719,21.3125-46.18262,21.3125-46.18262s3.62598,1.82031,4.02051,0.84961s-22.40527,41.25977-16.66602,47
	c3.56152,3.56055,10.28516,13.89844,10.28516,13.89844c2.68945,6.25,2.88086,9.60156,0.88086,17.26758
	c0,0-2.0127,4.67969,14.90918,6.58594c0,0,0.73633,0.73633,0.14063,2.58203c0,0-17.19043-2.20508-20.21582,2.33008
	c-3.25684,4.88477,0.76172,10.24023,21.50195,33.00195l-2.4043,2.43164c0,0-26.06934-25.10156-28.0752-27.28906
	c0,0-8.39844-11.50586-17.02246-7.80859c0,0-20.50586,26.27734-28.83691,36.0957
	C65.61841,182.84668,64.80688,181.91895,64.36157,180.77051z"/>
<path fill="#CCFF00" stroke="#072C3D" stroke-width="0.95762" d="M103.93579,129.16699
	c7.83887-5.56445-4.28027-13.18164-7.32715-5.98633C94.62134,127.87598,99.81177,132.09473,103.93579,129.16699z"/>
<path fill="#00A0C6" stroke="#072C3D" stroke-width="0.95762" d="M98.49927,108.99512
	c-0.47559,3.45508,3.21484,7.64063,5.02246,10.23047c4.84668,6.94336,5.08984,11.61328,2.33594,19.14844
	c-1.11719,3.05664-3.18652,6.47852,0.85645,8.59961c9.43066,4.94336,15.75879-9.61719,16.69141-16.42578
	c1.12988-8.24805-2.30469-17.49023-9.36719-22.17188c-3.00293-1.98926-10.83203-4.9668-14.11328-1.98535
	C99.06274,107.1748,98.6272,108.05762,98.49927,108.99512z"/>
<ellipse fill="#FFFFFF" stroke="#000000" cx="99.37329" cy="113.07422" rx="2.25" ry="2"/>
<ellipse fill="#FFFFFF" stroke="#000000" cx="92.70728" cy="116.40723" rx="1.75" ry="2.25"/>
<circle fill="#FFFFFF" stroke="#000000" cx="104.87427" cy="133.90723" r="2.25"/>
<ellipse fill="#FFFFFF" stroke="#000000" cx="96.60864" cy="123.18066" rx="2" ry="2.125"/>
<path fill="#00FF00" stroke="#000000" d="M111.11743,93.78613c0,0-33.60059,17.69727-66.94824,0.0918l-2.53418,6.91309
	L27.20435,82.45605l22.34863-0.94141l-2.89453,6.27148c0,0,35.25879,12.01563,56.3291-8.04199L111.11743,93.78613z"/>
<path fill="#00FF00" stroke="#000000" d="M105.78442,166.2666c0,0-36.32324,11.08789-65.78125-12.45703l-3.78516,6.31641
	l-10.7373-20.71484l22.12793,3.26367l-4.01855,5.61719c0,0,32.38281,18.41016,56.83887,2.65625L105.78442,166.2666z"/>
<g>
	<path d="M15.80396,109.96875v5.51172h5.32129v-5.51172h3.22168v14.28906h-3.22168v-5.95703h-5.32129v5.95703H12.5813v-14.28906
		H15.80396z"/>
	<path d="M37.51196,124.49121c-4.21875,0-6.71973-3.20117-6.71973-7.27148c0-4.2832,2.75586-7.48438,6.95313-7.48438
		c4.38867,0,6.78418,3.28613,6.78418,7.22949c0,4.70605-2.82031,7.52637-6.99609,7.52637H37.51196z M37.6604,121.92578
		c2.18359,0,3.43457-2.05664,3.43457-4.85449c0-2.56543-1.20898-4.77051-3.43457-4.77051s-3.47656,2.16211-3.47656,4.83398
		c0,2.69238,1.29297,4.79102,3.45508,4.79102H37.6604z"/>
</g>
<g>
	<path d="M24.72192,128.66602v-1.08594l0.98047-0.88574c1.6875-1.51074,2.50195-2.37207,2.51367-3.26953
		c0-0.625-0.36621-1.12109-1.25098-1.12109c-0.66113,0-1.23926,0.33105-1.64063,0.62598l-0.50781-1.27539
		c0.56641-0.43652,1.47559-0.79004,2.50195-0.79004c1.74707,0,2.69141,1.01465,2.69141,2.40723
		c0,1.28711-0.9209,2.31348-2.04199,3.30469l-0.70801,0.59082v0.02344h2.90332v1.47559H24.72192z"/>
</g>
<g>
	<g>
		<path d="M484.12915,221.26074h-4.10059v-1.48047h9.97949v1.48047h-4.11914v12h-1.75977V221.26074z"/>
		<path d="M498.64868,230.62109c0,1,0.01953,1.87988,0.08008,2.63965h-1.56055l-0.09961-1.58008h-0.04004
			c-0.44043,0.78027-1.47949,1.7998-3.2002,1.7998c-1.51953,0-3.33984-0.85938-3.33984-4.23926v-5.66016h1.75977v5.33984
			c0,1.83984,0.58008,3.09961,2.16016,3.09961c1.17969,0,2-0.81934,2.32031-1.62012
			c0.09961-0.23926,0.16016-0.55957,0.16016-0.89941v-5.91992h1.75977V230.62109z"/>
		<path d="M501.58813,226.60059c0-1.13965-0.01953-2.12012-0.08008-3.01953h1.54102l0.08008,1.89941h0.05957
			c0.44043-1.2998,1.52051-2.12012,2.7002-2.12012c0.17969,0,0.32031,0.02051,0.47949,0.06055v1.63965
			c-0.2002-0.01953-0.37988-0.04004-0.62012-0.04004c-1.24023,0-2.11914,0.94043-2.35938,2.24023
			c-0.04004,0.25977-0.06055,0.54004-0.06055,0.83984v5.16016h-1.75977L501.58813,226.60059z"/>
		<path d="M516.22876,231.84082c0,2.24023-0.46094,3.58008-1.38086,4.43945c-0.95898,0.86035-2.31934,1.16016-3.53906,1.16016
			c-1.16016,0-2.44043-0.2793-3.2207-0.7998l0.44043-1.36035c0.63965,0.4209,1.63965,0.78027,2.83984,0.78027
			c1.7998,0,3.12012-0.93945,3.12012-3.39941v-1.06055h-0.04004c-0.52051,0.90039-1.58008,1.62012-3.08008,1.62012
			c-2.39941,0-4.12012-2.04004-4.12012-4.74023c0-3.2793,2.14063-5.12012,4.38086-5.12012
			c1.67969,0,2.58008,0.86035,3.01953,1.66016h0.04004l0.05957-1.43945h1.56055c-0.06055,0.67969-0.08008,1.45996-0.08008,2.63965
			V231.84082z M514.46899,227.38086c0-0.28027-0.02051-0.54004-0.10059-0.78027c-0.31934-1.04004-1.15918-1.87988-2.45996-1.87988
			c-1.67969,0-2.87988,1.41992-2.87988,3.67969c0,1.87988,0.97949,3.48047,2.86035,3.48047
			c1.09961,0,2.08008-0.67969,2.43945-1.82031c0.09961-0.28027,0.14063-0.62012,0.14063-0.93945V227.38086z"/>
		<path d="M519.96802,221.80078c-0.65918,0-1.09961-0.52051-1.09961-1.13965c0-0.62012,0.45996-1.12012,1.13965-1.12012
			s1.12012,0.5,1.12012,1.12012c0,0.61914-0.44043,1.13965-1.13965,1.13965H519.96802z M519.12817,233.26074v-9.67969h1.76074
			v9.67969H519.12817z"/>
		<path d="M532.16821,219.06055v11.7002c0,0.86035,0.01953,1.83984,0.08008,2.5h-1.58008l-0.08008-1.67969h-0.04004
			c-0.54004,1.08008-1.7002,1.89941-3.28027,1.89941c-2.33984,0-4.16016-1.97949-4.16016-4.91992
			c-0.01953-3.24023,2-5.2002,4.33984-5.2002c1.5,0,2.5,0.7002,2.91992,1.45996h0.04102v-5.75977H532.16821z M530.40845,227.52051
			c0-0.24023-0.02051-0.51953-0.08008-0.75977c-0.25977-1.09961-1.2207-2.01953-2.54102-2.01953
			c-1.81934,0-2.89941,1.59961-2.89941,3.71973c0,1.97949,0.97949,3.59961,2.86035,3.59961
			c1.17969,0,2.25977-0.7998,2.58008-2.09961c0.05957-0.24023,0.08008-0.48047,0.08008-0.75977V227.52051z"/>
	</g>
</g>
<g>
	<path d="M273.59009,219.92676h7.25977v1.46094h-5.5v4.47949h5.08008v1.44043h-5.08008v6.09961h-1.75977V219.92676z"/>
	<path d="M282.95044,219.20703h1.75977v14.2002h-1.75977V219.20703z"/>
	<path d="M294.45044,231.08691c0,0.83984,0.04004,1.66016,0.13965,2.32031h-1.58008l-0.15918-1.21973h-0.06055
		c-0.51953,0.75977-1.58008,1.43945-2.95996,1.43945c-1.95996,0-2.95996-1.37988-2.95996-2.7793
		c0-2.34082,2.08008-3.62012,5.82031-3.60059v-0.2002c0-0.7998-0.2207-2.25977-2.2002-2.23926
		c-0.91992,0-1.86035,0.25977-2.54004,0.71973l-0.40039-1.17969c0.80078-0.5,1.98047-0.84082,3.2002-0.84082
		c2.98047,0,3.7002,2.02051,3.7002,3.95996V231.08691z M292.73071,228.4668c-1.91992-0.04004-4.10059,0.30078-4.10059,2.18066
		c0,1.16016,0.76074,1.67969,1.64063,1.67969c1.2793,0,2.09961-0.7998,2.37988-1.62012
		c0.05957-0.17969,0.08008-0.37988,0.08008-0.55957V228.4668z"/>
	<path d="M304.17017,233.06738c-0.45996,0.21973-1.48047,0.55957-2.78027,0.55957c-2.91992,0-4.82031-1.97949-4.82031-4.95996
		c0-2.97949,2.04004-5.16016,5.2002-5.16016c1.04004,0,1.95996,0.26074,2.44043,0.52051l-0.40039,1.33984
		c-0.41992-0.21973-1.08008-0.45996-2.04004-0.45996c-2.21973,0-3.41992,1.66016-3.41992,3.67969
		c0,2.24023,1.44043,3.62012,3.36035,3.62012c1,0,1.66016-0.24023,2.16016-0.45996L304.17017,233.06738z"/>
	<path d="M313.13013,233.06738c-0.46094,0.21973-1.48047,0.55957-2.78027,0.55957c-2.91992,0-4.82031-1.97949-4.82031-4.95996
		c0-2.97949,2.04004-5.16016,5.2002-5.16016c1.04004,0,1.95996,0.26074,2.43945,0.52051l-0.39941,1.33984
		c-0.41992-0.21973-1.08008-0.45996-2.04004-0.45996c-2.21973,0-3.41992,1.66016-3.41992,3.67969
		c0,2.24023,1.43945,3.62012,3.35938,3.62012c1,0,1.66016-0.24023,2.16016-0.45996L313.13013,233.06738z"/>
	<path d="M316.02954,221.94727c-0.65918,0-1.09961-0.52051-1.09961-1.13965c0-0.62012,0.45996-1.12012,1.13965-1.12012
		s1.12012,0.5,1.12012,1.12012c0,0.61914-0.44043,1.13965-1.13965,1.13965H316.02954z M315.1897,233.40723v-9.67969h1.76074v9.67969
		H315.1897z"/>
	<path d="M328.22974,219.20703v11.7002c0,0.86035,0.01953,1.83984,0.08008,2.5h-1.58008l-0.08008-1.67969h-0.04004
		c-0.54004,1.08008-1.7002,1.89941-3.28027,1.89941c-2.33984,0-4.16016-1.97949-4.16016-4.91992
		c-0.01953-3.24023,2-5.2002,4.33984-5.2002c1.5,0,2.5,0.7002,2.91992,1.45996h0.04102v-5.75977H328.22974z M326.46997,227.66699
		c0-0.24023-0.02051-0.51953-0.08008-0.75977c-0.25977-1.09961-1.2207-2.01953-2.54102-2.01953
		c-1.81934,0-2.89941,1.59961-2.89941,3.71973c0,1.97949,0.97949,3.59961,2.86035,3.59961c1.17969,0,2.25977-0.7998,2.58008-2.09961
		c0.05957-0.24023,0.08008-0.48047,0.08008-0.75977V227.66699z"/>
</g>
<g>
	<path d="M275.79907,4.29443v13.47998h-1.75977V4.29443H275.79907z"/>
	<path d="M278.49927,15.99463c0.54004,0.31982,1.45996,0.67969,2.33984,0.67969c1.25977,0,1.86035-0.62012,1.86035-1.43994
		c0-0.83984-0.5-1.2998-1.78027-1.77979c-1.75977-0.64014-2.58008-1.58008-2.58008-2.74023
		c0-1.56006,1.28027-2.83984,3.33984-2.83984c0.98047,0,1.84082,0.25977,2.36035,0.6001l-0.41992,1.25977
		c-0.37988-0.21973-1.08008-0.56006-1.98047-0.56006c-1.04004,0-1.59961,0.6001-1.59961,1.32031
		c0,0.81982,0.55957,1.17969,1.82031,1.65967c1.66016,0.62012,2.54004,1.45996,2.54004,2.91992
		c0,1.72021-1.34082,2.92041-3.60059,2.92041c-1.05957,0-2.04004-0.28027-2.71973-0.68018L278.49927,15.99463z"/>
	<path d="M290.59888,17.99463c-2.59961,0-4.63965-1.92041-4.63965-4.97998c0-3.24023,2.13965-5.14014,4.7998-5.14014
		c2.78027,0,4.66016,2.02002,4.66016,4.95996c0,3.6001-2.5,5.16016-4.7998,5.16016H290.59888z M290.65942,16.67432
		c1.67969,0,2.93945-1.58008,2.93945-3.77979c0-1.64014-0.81934-3.7002-2.89941-3.7002c-2.06055,0-2.95996,1.91992-2.95996,3.76025
		c0,2.11963,1.2002,3.71973,2.89941,3.71973H290.65942z"/>
	<path d="M299.75903,5.77441v2.31982h2.51953v1.34033h-2.51953v5.21973c0,1.2002,0.33984,1.87988,1.31934,1.87988
		c0.48047,0,0.76074-0.03955,1.02051-0.11963l0.08008,1.33984c-0.33984,0.12012-0.87988,0.24023-1.56055,0.24023
		c-0.81934,0-1.47949-0.28027-1.89941-0.74023c-0.48047-0.54004-0.68066-1.3999-0.68066-2.54004V9.43457h-1.5V8.09424h1.5V6.31445
		L299.75903,5.77441z"/>
	<path d="M308.07837,17.99463c-2.60059,0-4.63965-1.92041-4.63965-4.97998c0-3.24023,2.13965-5.14014,4.7998-5.14014
		c2.78027,0,4.66016,2.02002,4.66016,4.95996c0,3.6001-2.5,5.16016-4.7998,5.16016H308.07837z M308.13794,16.67432
		c1.68066,0,2.94043-1.58008,2.94043-3.77979c0-1.64014-0.81934-3.7002-2.89941-3.7002c-2.06055,0-2.95996,1.91992-2.95996,3.76025
		c0,2.11963,1.2002,3.71973,2.89941,3.71973H308.13794z"/>
	<path d="M315.11841,10.71436c0-1.02002-0.01953-1.81982-0.08008-2.62012h1.56055l0.09961,1.58008h0.04004
		c0.47949-0.8999,1.60059-1.7998,3.2002-1.7998c1.33984,0,3.41992,0.7998,3.41992,4.12012v5.77979h-1.75977v-5.58008
		c0-1.56006-0.58008-2.87988-2.24023-2.87988c-1.14063,0-2.04004,0.81982-2.36035,1.7998
		c-0.08008,0.22021-0.12012,0.54004-0.12012,0.82031v5.83984h-1.75977V10.71436z"/>
	<path d="M327.05786,6.31445c-0.65918,0-1.09961-0.52002-1.09961-1.14014s0.46094-1.12012,1.14063-1.12012
		s1.11914,0.5,1.11914,1.12012s-0.43945,1.14014-1.13965,1.14014H327.05786z M326.21802,17.77441V8.09424h1.76074v9.68018H326.21802
		z"/>
	<path d="M337.7981,17.43457c-0.45996,0.21973-1.48047,0.56006-2.7793,0.56006c-2.91992,0-4.82031-1.97998-4.82031-4.96045
		c0-2.97998,2.03906-5.15967,5.19922-5.15967c1.04102,0,1.96094,0.25977,2.44043,0.52002l-0.39941,1.33984
		c-0.41992-0.21973-1.08008-0.45996-2.04102-0.45996c-2.21875,0-3.41992,1.66016-3.41992,3.68018
		c0,2.23975,1.44043,3.61963,3.36035,3.61963c1,0,1.66016-0.23975,2.16016-0.45996L337.7981,17.43457z"/>
</g>
<g>
	<path d="M61.6311,3.64795v5.64014h6.52051V3.64795h1.75977v13.47998h-1.75977v-6.31982H61.6311v6.31982h-1.75977V3.64795H61.6311z"
		/>
	<path d="M73.47192,7.44775l2.09961,5.72021c0.24023,0.64014,0.48047,1.3999,0.63965,1.97998h0.04004
		c0.18066-0.58008,0.37988-1.31982,0.62012-2.02002l1.91992-5.68018h1.86035l-2.63965,6.90039
		c-1.26074,3.31982-2.12012,5.02002-3.32031,6.07959c-0.87988,0.74023-1.71973,1.04004-2.16016,1.12012l-0.43945-1.47998
		c0.43945-0.12012,1.01953-0.3999,1.53906-0.85986c0.48047-0.37988,1.06055-1.06006,1.48047-1.95996
		c0.08008-0.18018,0.13965-0.30029,0.13965-0.41992c0-0.1001-0.04004-0.24023-0.13965-0.44043L71.552,7.44775H73.47192z"/>
	<path d="M82.25122,10.60791c0-1.23975-0.01953-2.23975-0.08008-3.16016h1.58008l0.10059,1.66016h0.04004
		c0.69922-1.2002,1.85938-1.87988,3.41992-1.87988c2.35938,0,4.12012,1.97998,4.12012,4.91992
		c0,3.47998-2.14063,5.2002-4.40039,5.2002c-1.2998,0-2.40039-0.56006-2.98047-1.52002h-0.03906v5.25977h-1.76074V10.60791z
		 M84.01196,13.18799c0,0.23975,0.01953,0.5,0.0791,0.71973c0.30078,1.22021,1.38086,2.06006,2.62012,2.06006
		c1.86035,0,2.94043-1.52002,2.94043-3.73975c0-1.93994-1-3.6001-2.86035-3.6001c-1.2002,0-2.33984,0.83984-2.67969,2.16016
		c-0.04004,0.23975-0.09961,0.5-0.09961,0.71973V13.18799z"/>
	<path d="M94.65063,12.58789c0.04004,2.37988,1.54004,3.35986,3.2998,3.35986c1.26074,0,2.04004-0.21973,2.68066-0.47998
		l0.31934,1.24023c-0.61914,0.27979-1.69922,0.62012-3.23926,0.62012c-2.95996,0-4.76074-1.97998-4.76074-4.88037
		c0-2.93994,1.74023-5.23975,4.56055-5.23975c3.16016,0,3.97949,2.77979,3.97949,4.56006c0,0.35986-0.01953,0.63965-0.05957,0.83984
		L94.65063,12.58789z M99.79126,11.32813c0.01953-1.1001-0.45996-2.86035-2.41992-2.86035
		c-1.80078,0-2.56055,1.64014-2.7002,2.86035H99.79126z"/>
	<path d="M103.69067,10.46777c0-1.13965-0.02051-2.11963-0.08008-3.02002h1.54004l0.08008,1.90039h0.05957
		c0.44043-1.30029,1.52051-2.12012,2.7002-2.12012c0.17969,0,0.32031,0.02002,0.47949,0.06006v1.63965
		c-0.19922-0.02002-0.37988-0.04004-0.61914-0.04004c-1.24023,0-2.12012,0.94043-2.36035,2.24023
		c-0.04004,0.25977-0.05957,0.54004-0.05957,0.83984v5.16016h-1.76074L103.69067,10.46777z"/>
	<path d="M112.81079,5.12793v2.31982h2.51953v1.34033h-2.51953v5.21973c0,1.2002,0.33984,1.87988,1.31934,1.87988
		c0.48047,0,0.76074-0.03955,1.02051-0.11963l0.08008,1.33984c-0.33984,0.12012-0.87988,0.24023-1.56055,0.24023
		c-0.81934,0-1.47949-0.28027-1.89941-0.74023c-0.48047-0.54004-0.68066-1.3999-0.68066-2.54004V8.78809h-1.5V7.44775h1.5V5.66797
		L112.81079,5.12793z"/>
	<path d="M121.13013,17.34814c-2.59961,0-4.63965-1.92041-4.63965-4.97998c0-3.24023,2.13965-5.14014,4.7998-5.14014
		c2.78027,0,4.66016,2.02002,4.66016,4.95996c0,3.6001-2.5,5.16016-4.7998,5.16016H121.13013z M121.19067,16.02783
		c1.67969,0,2.93945-1.58008,2.93945-3.77979c0-1.64014-0.81934-3.7002-2.89941-3.7002c-2.06055,0-2.95996,1.91992-2.95996,3.76025
		c0,2.11963,1.19922,3.71973,2.89941,3.71973H121.19067z"/>
	<path d="M128.17017,10.06787c0-1.02002-0.01953-1.81982-0.08008-2.62012h1.56055l0.09961,1.58008h0.04004
		c0.48047-0.8999,1.60059-1.7998,3.2002-1.7998c1.33984,0,3.41992,0.7998,3.41992,4.12012v5.77979h-1.75977v-5.58008
		c0-1.56006-0.58008-2.87988-2.24023-2.87988c-1.13965,0-2.04004,0.81982-2.36035,1.7998
		c-0.08008,0.22021-0.11914,0.54004-0.11914,0.82031v5.83984h-1.76074V10.06787z"/>
	<path d="M140.10962,5.66797c-0.65918,0-1.09961-0.52002-1.09961-1.14014s0.45996-1.12012,1.13965-1.12012
		c0.68066,0,1.12012,0.5,1.12012,1.12012s-0.43945,1.14014-1.13965,1.14014H140.10962z M139.26978,17.12793V7.44775h1.76074v9.68018
		H139.26978z"/>
	<path d="M150.84985,16.78809c-0.45996,0.21973-1.48047,0.56006-2.78027,0.56006c-2.91992,0-4.82031-1.97998-4.82031-4.96045
		c0-2.97998,2.04004-5.15967,5.2002-5.15967c1.04004,0,1.95996,0.25977,2.44043,0.52002l-0.40039,1.33984
		c-0.41992-0.21973-1.08008-0.45996-2.04004-0.45996c-2.21973,0-3.41992,1.66016-3.41992,3.68018
		c0,2.23975,1.44043,3.61963,3.36035,3.61963c1,0,1.66016-0.23975,2.16016-0.45996L150.84985,16.78809z"/>
</g>
<g>
	<path d="M466.14673,4.19092v5.64014h6.51953V4.19092h1.75977V17.6709h-1.75977v-6.31982h-6.51953v6.31982h-1.75977V4.19092
		H466.14673z"/>
	<path d="M477.98657,7.99072l2.09961,5.72021c0.24023,0.64014,0.48047,1.3999,0.64063,1.97998h0.03906
		c0.18066-0.58008,0.38086-1.31982,0.62109-2.02002l1.91992-5.68018h1.85938l-2.63965,6.90039
		c-1.26074,3.31982-2.12012,5.02002-3.32031,6.07959c-0.87988,0.74023-1.71973,1.04004-2.15918,1.12012l-0.44043-1.47998
		c0.44043-0.12012,1.02051-0.3999,1.54004-0.85986c0.48047-0.37988,1.05957-1.06006,1.48047-1.95996
		c0.0791-0.18018,0.13867-0.30029,0.13867-0.41992c0-0.1001-0.03906-0.24023-0.13867-0.44043l-3.56055-8.93994H477.98657z"/>
	<path d="M486.76587,11.15088c0-1.23975-0.01953-2.23975-0.08008-3.16016h1.58008l0.10059,1.66016h0.04004
		c0.69922-1.2002,1.85938-1.87988,3.41992-1.87988c2.35938,0,4.12012,1.97998,4.12012,4.91992
		c0,3.47998-2.13965,5.2002-4.39941,5.2002c-1.30078,0-2.40039-0.56006-2.98047-1.52002h-0.04004v5.25977h-1.76074V11.15088z
		 M488.52661,13.73096c0,0.23975,0.02051,0.5,0.0791,0.71973c0.30078,1.22021,1.38086,2.06006,2.62109,2.06006
		c1.85938,0,2.93945-1.52002,2.93945-3.73975c0-1.93994-1-3.6001-2.85938-3.6001c-1.20117,0-2.33984,0.83984-2.68066,2.16016
		c-0.04004,0.23975-0.09961,0.5-0.09961,0.71973V13.73096z"/>
	<path d="M502.10571,17.89111c-2.59961,0-4.64063-1.92041-4.64063-4.97998c0-3.24023,2.14063-5.14014,4.80078-5.14014
		c2.7793,0,4.66016,2.02002,4.66016,4.95996c0,3.6001-2.5,5.16016-4.80078,5.16016H502.10571z M502.16626,16.5708
		c1.67969,0,2.93945-1.58008,2.93945-3.77979c0-1.64014-0.82031-3.7002-2.90039-3.7002c-2.05957,0-2.95898,1.91992-2.95898,3.76025
		c0,2.11963,1.19922,3.71973,2.89941,3.71973H502.16626z"/>
	<path d="M511.26587,5.6709v2.31982h2.51953v1.34033h-2.51953v5.21973c0,1.2002,0.33984,1.87988,1.32031,1.87988
		c0.47949,0,0.75977-0.03955,1.01953-0.11963l0.08008,1.33984c-0.33984,0.12012-0.87988,0.24023-1.56055,0.24023
		c-0.81934,0-1.47949-0.28027-1.89941-0.74023c-0.47949-0.54004-0.68066-1.3999-0.68066-2.54004V9.33105h-1.5V7.99072h1.5V6.21094
		L511.26587,5.6709z"/>
	<path d="M519.58618,17.89111c-2.60059,0-4.64063-1.92041-4.64063-4.97998c0-3.24023,2.14063-5.14014,4.80078-5.14014
		c2.7793,0,4.66016,2.02002,4.66016,4.95996c0,3.6001-2.5,5.16016-4.80078,5.16016H519.58618z M519.64575,16.5708
		c1.68066,0,2.94043-1.58008,2.94043-3.77979c0-1.64014-0.82031-3.7002-2.90039-3.7002c-2.06055,0-2.95996,1.91992-2.95996,3.76025
		c0,2.11963,1.2002,3.71973,2.89941,3.71973H519.64575z"/>
	<path d="M526.62524,10.61084c0-1.02002-0.01953-1.81982-0.08008-2.62012h1.56055l0.09961,1.58008h0.04102
		c0.47949-0.8999,1.59961-1.7998,3.19922-1.7998c1.33984,0,3.41992,0.7998,3.41992,4.12012v5.77979h-1.75977v-5.58008
		c0-1.56006-0.58008-2.87988-2.24023-2.87988c-1.13965,0-2.03906,0.81982-2.35938,1.7998
		c-0.08008,0.22021-0.12012,0.54004-0.12012,0.82031v5.83984h-1.76074V10.61084z"/>
	<path d="M538.5647,6.21094c-0.65918,0-1.09961-0.52002-1.09961-1.14014s0.46094-1.12012,1.14063-1.12012
		s1.11914,0.5,1.11914,1.12012s-0.43945,1.14014-1.13965,1.14014H538.5647z M537.72485,17.6709V7.99072h1.76074v9.68018H537.72485z"
		/>
	<path d="M549.30493,17.33105c-0.45996,0.21973-1.48047,0.56006-2.7793,0.56006c-2.91992,0-4.82031-1.97998-4.82031-4.96045
		c0-2.97998,2.03906-5.15967,5.19922-5.15967c1.04102,0,1.96094,0.25977,2.44043,0.52002l-0.39941,1.33984
		c-0.41992-0.21973-1.08008-0.45996-2.04102-0.45996c-2.21875,0-3.41992,1.66016-3.41992,3.68018
		c0,2.23975,1.44043,3.61963,3.36035,3.61963c1,0,1.66016-0.23975,2.16016-0.45996L549.30493,17.33105z"/>
</g>
<path fill="#072C3D" d="M536.17603,45.05469c0,0-23.57227-3.34473-38.57227-3.34473S459.0979,47.85742,456.51001,51.5
	c-0.91309,1.28711-17.58008-8.02734-27.24805-6.69141l-2.92969,4.35547c-0.26758,0.92383,17.25-1.93555,26.42871,8.64453
	l-0.04395,3.20898l-2.15234,3.46094c-8.46191,38.73242,7.5,114.16602,7.5,114.16602
	c0.10742,2.37695,1.10449,4.41797,2.88184,5.90234c1.87012,1.56055,4.36816,2.28516,6.69043,2.5957
	c1.3125,0.17383-8.8291,11.61523-7.77539,11.59961c1.24121-0.01953,3.9082,0.98047,4.35156,0.92773
	c0.05371,0,5.38281-8.86133,14.04883-12.49609c14.73828,0,61.7998,0,61.7998,0c2.4375,0,4.49414-0.55859,6.2168-1.46875
	c0.99316-0.52539,1.87598-1.16797,2.65723-1.88867c14.32715,3.99219,21.38867-0.125,21.99414-1.00781
	c0.76172-1.11133-13.70215,1.03516-18.03906-4.91016c0.63281-1.58594,1.18164-4.63672,1.18164-4.63672l-0.01758-0.27539
	c-0.05078-0.8125,12.50977-64.81445-5.99414-108.47852c-1.98242-14.7793,0.16992-20.31836,22.33008-18.0918
	c-0.69531-1.32227,0.92578-3.61328,0.09863-4.60938c-0.87988-1.05859-18.91113-1.24414-29.86816,6.03711
	C538.34009,45.94727,536.37134,45.13281,536.17603,45.05469l-0.53711-0.21484L536.17603,45.05469z M469.06079,50.83984
	c34.67285-7.5,64.01953,0,65.33105,0c1.73535,0.89648,5.26758,7.26563,7.66895,13.66797
	c20.50391,54.66406,5.56738,101.81836,5.98633,108.52344c-0.21289,1.38867-1.56934,8.14258-7.98535,8.14258h-66.53027
	l-0.2002,0.02734c-1.98438,0.25977-6.68262,0.29492-8.54395-1.26367c-0.47949-0.40234-0.69727-0.87109-0.72852-1.56641
	c0,0-16.75-69.125-5.31836-117C460.19946,56.43457,469.06079,50.83984,469.06079,50.83984z"/>
<path fill="#E4F792" stroke="#006B33" stroke-width="0.95762" d="M470.55688,53.82813c32.24219-6.92188,61.06055,0,62.31055,0
	c1.65723,0.86133,3.93848,5.12109,7.31641,13.14063c17.41797,41.34375,5.30957,97.89453,5.70801,104.3418
	c-0.20215,1.33594-1.49512,7.82813-7.61523,7.82813h-63.45605l-0.19141,0.02734c-1.89258,0.24805-6.375,0.2832-8.14844-1.21484
	c-0.45703-0.38672-0.66504-0.83789-0.69629-1.50586c0,0-16.18359-67.89648-5.07227-112.49219
	C460.71216,63.95313,463.70532,53.82813,470.55688,53.82813z"/>
<path fill="#CCFF00" stroke="#072C3D" stroke-width="0.95762" d="M476.4104,109.60352
	c7.83887-5.56445-4.28027-13.18164-7.32715-5.98633C467.09595,108.3125,472.28638,112.53125,476.4104,109.60352z"/>
<path fill="#00A0C6" stroke="#072C3D" stroke-width="0.95762" d="M483.14478,146.51074
	c1.68359,4.00293,4.45313,7.53906,8.81738,10.36133c15.13184,9.78809,33.44238,10.94434,47.125-2.30371
	c11.3916-11.0293,6.33984-37.96484,5.48926-52.88672c-1.15332-20.23438-16.39648-46.02344-40.80664-39.77637
	c-19.31641,4.94336-20,21.89551-20,38.99707C483.76978,115.31836,477.63599,133.41113,483.14478,146.51074z"/>
<ellipse fill="#FFFFFF" stroke="#000000" cx="469.84009" cy="58.39551" rx="2.25" ry="2"/>
<ellipse fill="#FFFFFF" stroke="#000000" cx="535.1604" cy="64.2666" rx="1.75" ry="2.25"/>
<circle fill="#FFFFFF" stroke="#000000" cx="486.76978" cy="161.87695" r="2.25"/>
<ellipse fill="#FFFFFF" stroke="#000000" cx="533.58423" cy="166.02344" rx="2" ry="2.125"/>
<path fill="#FFFF00" stroke="#000000" d="M407.77856,149.79492c0,0,27.84082-25.82813,64.62012-17.50195l0.64941-7.33398
	l18.70215,13.94922l-21.33398,6.72266l1.16406-6.80859c0,0-37.1709-2.43164-52.29883,22.41602L407.77856,149.79492z"/>
<g>
	<path d="M391.64673,111.2334v5.51172h5.32129v-5.51172h3.22168v14.28906h-3.22168v-5.95703h-5.32129v5.95703h-3.22266V111.2334
		H391.64673z"/>
	<path d="M413.35474,125.75586c-4.21875,0-6.71973-3.20117-6.71973-7.27148c0-4.2832,2.75586-7.48438,6.95313-7.48438
		c4.38867,0,6.78418,3.28613,6.78418,7.22949c0,4.70605-2.82031,7.52637-6.99609,7.52637H413.35474z M413.50317,123.19043
		c2.18359,0,3.43457-2.05664,3.43457-4.85449c0-2.56543-1.20898-4.77051-3.43457-4.77051s-3.47656,2.16211-3.47656,4.83398
		c0,2.69238,1.29297,4.79102,3.45508,4.79102H413.50317z"/>
</g>
<g>
	<path d="M400.5647,128.93066v-1.08594l0.98047-0.88574c1.6875-1.51074,2.50195-2.37207,2.51367-3.26953
		c0-0.625-0.36621-1.12109-1.25098-1.12109c-0.66113,0-1.23926,0.33105-1.64063,0.62598l-0.50781-1.27539
		c0.56641-0.43652,1.47559-0.79004,2.50195-0.79004c1.74707,0,2.69141,1.01465,2.69141,2.40723
		c0,1.28711-0.9209,2.31348-2.04199,3.30469l-0.70801,0.59082v0.02344h2.90332v1.47559H400.5647z"/>
</g>
<g>
	<path d="M502.27075,106.08301v5.03711h4.86328v-5.03711h2.94434v13.05762h-2.94434v-5.44434h-4.86328v5.44434h-2.94434v-13.05762
		H502.27075z"/>
	<path d="M522.10962,119.35352c-3.85547,0-6.1416-2.9248-6.1416-6.64453c0-3.91406,2.51855-6.83984,6.35449-6.83984
		c4.01074,0,6.19922,3.00293,6.19922,6.60742c0,4.30078-2.57617,6.87695-6.39258,6.87695H522.10962z M522.24536,117.00977
		c1.99512,0,3.13867-1.87988,3.13867-4.43652c0-2.34473-1.10449-4.35938-3.13867-4.35938s-3.17773,1.97559-3.17773,4.41699
		c0,2.46094,1.18164,4.37891,3.1582,4.37891H522.24536z"/>
</g>
<g>
	<path d="M510.42114,122.54785v-0.99219l0.89551-0.80859c1.54199-1.38086,2.28711-2.16797,2.29785-2.98828
		c0-0.57129-0.33496-1.02441-1.14355-1.02441c-0.60449,0-1.13281,0.30176-1.5,0.57129l-0.46289-1.16504
		c0.51758-0.39844,1.34766-0.72266,2.28613-0.72266c1.59668,0,2.45898,0.92773,2.45898,2.20117
		c0,1.17578-0.84082,2.11328-1.86523,3.01953l-0.64746,0.54004v0.02148h2.65332v1.34766H510.42114z"/>
</g>
<path fill="#FFFF00" stroke="#000000" d="M407.84888,78.78125c0,0,32.18848-20.1543,66.75684-5.08203l2.01172-7.08398
	l15.75586,17.20898l-22.21484,2.60547l2.41895-6.4707c0,0-36.05664-9.35352-55.57324,12.21875L407.84888,78.78125z"/>
<g>
	<path fill="#00A0C6" d="M567.28149,72.59766l-3.09375-9.43555h1.33008l1.46973,4.64746
		c0.3916,1.27441,0.74219,2.43652,1.00879,3.52832h0.02734c0.26563-1.0918,0.64453-2.28223,1.07813-3.51465l1.5957-4.66113h1.30273
		l-3.375,9.43555H567.28149z"/>
	<path fill="#00A0C6" d="M577.25024,70.97363c0,0.58789,0.02734,1.16211,0.09766,1.62402h-1.10547l-0.11328-0.85352h-0.04102
		c-0.36426,0.53125-1.10645,1.00781-2.07227,1.00781c-1.37207,0-2.07227-0.96582-2.07227-1.94629
		c0-1.6377,1.45605-2.53418,4.07422-2.51953v-0.14063c0-0.55957-0.1543-1.58203-1.54004-1.56738
		c-0.64355,0-1.30176,0.18164-1.77832,0.50391l-0.2793-0.82617c0.55957-0.35059,1.38574-0.58789,2.24023-0.58789
		c2.08594,0,2.58984,1.41406,2.58984,2.77148V70.97363z M576.04517,69.13965c-1.34375-0.02832-2.86914,0.20996-2.86914,1.52637
		c0,0.81152,0.53125,1.17578,1.14844,1.17578c0.89551,0,1.46875-0.56055,1.66602-1.13379
		c0.04102-0.12598,0.05469-0.2666,0.05469-0.39258V69.13965z"/>
	<path fill="#00A0C6" d="M584.05396,72.35938c-0.32227,0.1543-1.03613,0.39258-1.94629,0.39258
		c-2.04395,0-3.37305-1.38672-3.37305-3.47266s1.42773-3.61133,3.63867-3.61133c0.72852,0,1.37305,0.18164,1.70898,0.36328
		l-0.28027,0.93848c-0.29395-0.1543-0.75684-0.32227-1.42871-0.32227c-1.55273,0-2.39355,1.16211-2.39355,2.57617
		c0,1.56836,1.00879,2.53418,2.35254,2.53418c0.69922,0,1.16211-0.16797,1.51172-0.32227L584.05396,72.35938z"/>
	<path fill="#00A0C6" d="M591.16626,70.75c0,0.69922,0.01367,1.31543,0.05566,1.84766h-1.09277l-0.06934-1.10645h-0.02832
		c-0.30762,0.54688-1.03516,1.26074-2.24023,1.26074c-1.06348,0-2.33789-0.60254-2.33789-2.96875v-3.96191h1.23242v3.73828
		c0,1.28809,0.40625,2.16992,1.51172,2.16992c0.82617,0,1.40039-0.57422,1.625-1.13379
		c0.06934-0.16797,0.11133-0.3916,0.11133-0.62988v-4.14453h1.23242V70.75z"/>
	<path fill="#00A0C6" d="M595.96704,72.75195c-1.81934,0-3.24707-1.34473-3.24707-3.48633
		c0-2.26758,1.49707-3.59766,3.36035-3.59766c1.94531,0,3.26172,1.41406,3.26172,3.47168c0,2.51953-1.75,3.6123-3.36035,3.6123
		H595.96704z M596.01001,71.82813c1.17578,0,2.05762-1.10645,2.05762-2.64648c0-1.14844-0.57324-2.58984-2.03027-2.58984
		c-1.44141,0-2.07227,1.34375-2.07227,2.63184c0,1.48438,0.84082,2.60449,2.03125,2.60449H596.01001z"/>
	<path fill="#00A0C6" d="M600.89575,62.65723h1.23145v9.94043h-1.23145V62.65723z"/>
	<path fill="#00A0C6" d="M604.87134,69.41992c0.02832,1.66602,1.07813,2.35156,2.31055,2.35156
		c0.88184,0,1.42773-0.1543,1.87598-0.33594l0.22363,0.86816c-0.43359,0.19629-1.18945,0.43359-2.26758,0.43359
		c-2.07227,0-3.33203-1.38574-3.33203-3.41602c0-2.05762,1.21777-3.66797,3.19141-3.66797
		c2.21289,0,2.78613,1.94629,2.78613,3.19238c0,0.25195-0.01367,0.44824-0.04199,0.58789L604.87134,69.41992z M608.46899,68.53809
		c0.01465-0.77051-0.32129-2.00195-1.69336-2.00195c-1.25977,0-1.79199,1.14746-1.89063,2.00195H608.46899z"/>
</g>
<line fill="none" stroke="#000000" x1="521.59106" y1="138.72461" x2="582.29224" y2="74.02344"/>
<g>
	<path d="M53.66138,220.07227c0.83984-0.16016,1.94043-0.28027,3.33984-0.28027c1.7207,0,2.98047,0.40039,3.78027,1.12012
		c0.74023,0.63965,1.2002,1.62012,1.2002,2.82031c0,1.21973-0.36035,2.17969-1.06055,2.87988
		c-0.91992,0.97949-2.41992,1.47949-4.11914,1.47949c-0.52051,0-1-0.01953-1.40039-0.12012v5.40039h-1.74023V220.07227z
		 M55.40161,226.55176c0.37988,0.10059,0.87988,0.14063,1.44043,0.14063c2.11914,0,3.37988-1.04004,3.37988-2.86035
		c0-1.7998-1.26074-2.66016-3.18066-2.66016c-0.75977,0-1.33984,0.08008-1.63965,0.14063V226.55176L55.40161,226.55176z"/>
	<path d="M64.14185,219.17188h1.75977v14.2002h-1.75977V219.17188z"/>
	<path d="M75.64185,231.05176c0,0.83984,0.04004,1.66016,0.13965,2.32031h-1.58008l-0.15918-1.21973h-0.06055
		c-0.51953,0.75977-1.58008,1.43945-2.95996,1.43945c-1.95996,0-2.95996-1.37988-2.95996-2.7793
		c0-2.34082,2.08008-3.62012,5.82031-3.60059v-0.2002c0-0.7998-0.2207-2.25977-2.2002-2.23926
		c-0.91992,0-1.86035,0.25977-2.54004,0.71973l-0.40039-1.17969c0.80078-0.5,1.98047-0.84082,3.2002-0.84082
		c2.98047,0,3.7002,2.02051,3.7002,3.95996V231.05176z M73.92212,228.43164c-1.91992-0.04004-4.10059,0.30078-4.10059,2.18066
		c0,1.16016,0.76074,1.67969,1.64063,1.67969c1.2793,0,2.09961-0.7998,2.37988-1.62012
		c0.05957-0.17969,0.08008-0.37988,0.08008-0.55957V228.43164z"/>
	<path d="M78.22192,231.5918c0.53906,0.32031,1.45996,0.68066,2.33984,0.68066c1.25977,0,1.85938-0.62012,1.85938-1.44043
		c0-0.83984-0.5-1.2998-1.7793-1.78027c-1.76074-0.63965-2.58008-1.58008-2.58008-2.73926c0-1.56055,1.2793-2.84082,3.33984-2.84082
		c0.97949,0,1.83984,0.26074,2.35938,0.60059l-0.41992,1.25977c-0.37988-0.21973-1.08008-0.55957-1.97949-0.55957
		c-1.04004,0-1.60059,0.59961-1.60059,1.31934c0,0.82031,0.56055,1.18066,1.82031,1.66016
		c1.66016,0.62012,2.54004,1.45996,2.54004,2.91992c0,1.71973-1.33984,2.91992-3.59961,2.91992
		c-1.06055,0-2.04004-0.2793-2.7207-0.67969L78.22192,231.5918z"/>
	<path d="M86.3811,226.3125c0-1.02051-0.04004-1.82031-0.08008-2.62012h1.54004l0.08008,1.55957h0.06055
		c0.54004-0.91992,1.43945-1.78027,3.05957-1.78027c1.2998,0,2.2998,0.80078,2.71973,1.94043h0.04004
		c0.30078-0.55957,0.7002-0.95996,1.10059-1.25977c0.58008-0.44043,1.2002-0.68066,2.12012-0.68066
		c1.2998,0,3.19922,0.84082,3.19922,4.2002v5.7002h-1.71973v-5.48047c0-1.87988-0.7002-2.97949-2.09961-2.97949
		c-1.02051,0-1.78027,0.74023-2.10059,1.58008c-0.08008,0.25977-0.13965,0.58008-0.13965,0.87988v6h-1.71973v-5.7998
		c0-1.56055-0.68066-2.66016-2.02051-2.66016c-1.08008,0-1.89941,0.87988-2.17969,1.75977
		c-0.09961,0.25977-0.13965,0.56055-0.13965,0.86035v5.83984h-1.7207V226.3125z"/>
	<path d="M107.00122,233.5918c-2.59961,0-4.63965-1.91992-4.63965-4.97949c0-3.24023,2.13965-5.14063,4.7998-5.14063
		c2.78027,0,4.66016,2.02051,4.66016,4.95996c0,3.60059-2.5,5.16016-4.7998,5.16016H107.00122z M107.06177,232.27246
		c1.67969,0,2.93945-1.58008,2.93945-3.78027c0-1.63965-0.81934-3.7002-2.89941-3.7002c-2.06055,0-2.95996,1.91992-2.95996,3.75977
		c0,2.12012,1.2002,3.7207,2.89941,3.7207H107.06177z"/>
	<path d="M114.04126,219.17188h1.76074v14.2002h-1.76074V219.17188z"/>
	<path d="M119.36157,223.69238l2.09961,5.71973c0.24023,0.63965,0.48047,1.40039,0.63965,1.97949h0.04004
		c0.18066-0.5791,0.37988-1.31934,0.62012-2.01953l1.91992-5.67969h1.86035l-2.63965,6.89941
		c-1.26074,3.32031-2.12012,5.02051-3.32031,6.08008c-0.87988,0.74023-1.71973,1.04004-2.16016,1.12012l-0.43945-1.47949
		c0.43945-0.12012,1.01953-0.40039,1.53906-0.86035c0.48047-0.37988,1.06055-1.06055,1.48047-1.95996
		c0.08008-0.17969,0.13965-0.2998,0.13965-0.41992c0-0.10059-0.04004-0.24023-0.13965-0.44043l-3.55957-8.93945H119.36157z"/>
	<path d="M127.04126,232.35254l4.37988-5.7002c0.44043-0.54004,0.82031-1,1.28027-1.52051v-0.04004h-5.26074v-1.39941h7.38086
		v1.09961l-4.34082,5.63965c-0.39941,0.52051-0.7998,1.02051-1.23926,1.5v0.04004h5.66016v1.40039h-7.86035V232.35254z"/>
	<path d="M137.56079,228.83203c0.04004,2.37988,1.54004,3.36035,3.2998,3.36035c1.26074,0,2.04004-0.2207,2.68066-0.48047
		l0.31934,1.24023c-0.61914,0.28027-1.69922,0.62012-3.23926,0.62012c-2.95996,0-4.76074-1.98047-4.76074-4.87988
		c0-2.94043,1.74023-5.24023,4.56055-5.24023c3.16016,0,3.97949,2.78027,3.97949,4.55957c0,0.36035-0.01953,0.64063-0.05957,0.84082
		L137.56079,228.83203z M142.70142,227.57227c0.01953-1.10059-0.45996-2.86035-2.41992-2.86035
		c-1.80078,0-2.56055,1.64063-2.7002,2.86035H142.70142z"/>
	<path d="M154.94067,219.17188v11.7002c0,0.86035,0.02051,1.83984,0.08008,2.5h-1.58008l-0.0791-1.67969h-0.04004
		c-0.54004,1.08008-1.7002,1.89941-3.28027,1.89941c-2.33984,0-4.16016-1.97949-4.16016-4.91992
		c-0.01953-3.24023,2-5.2002,4.33984-5.2002c1.5,0,2.5,0.7002,2.91992,1.45996h0.04004v-5.75977H154.94067z M153.18091,227.63184
		c0-0.24023-0.01953-0.51953-0.08008-0.75977c-0.25977-1.09961-1.21973-2.01953-2.54004-2.01953
		c-1.81934,0-2.89941,1.59961-2.89941,3.71973c0,1.97949,0.97949,3.59961,2.85938,3.59961c1.18066,0,2.26074-0.7998,2.58008-2.09961
		c0.06055-0.24023,0.08008-0.48047,0.08008-0.75977V227.63184z"/>
</g>
</svg>
