<?xml version="1.0" encoding="UTF-8" standalone="no"?>
<!DOCTYPE svg PUBLIC "-//W3C//DTD SVG 1.1//EN"
 "http://www.w3.org/Graphics/SVG/1.1/DTD/svg11.dtd">
<!-- Generated by graphviz version 2.40.1 (0)
 -->
<!-- Title: G Pages: 1 -->
<svg width="428pt" height="371pt"
 viewBox="0.00 0.00 427.93 371.48" xmlns="http://www.w3.org/2000/svg" xmlns:xlink="http://www.w3.org/1999/xlink">
<g id="graph0" class="graph" transform="scale(1 1) rotate(0) translate(4 367.4802)">
<title>G</title>
<polygon fill="#ffffff" stroke="transparent" points="-4,4 -4,-367.4802 423.9275,-367.4802 423.9275,4 -4,4"/>
<!-- Photon -->
<g id="node1" class="node">
<title>Photon</title>
<ellipse fill="none" stroke="#000000" cx="65.0538" cy="-336.6102" rx="65.1077" ry="26.7407"/>
<text text-anchor="middle" x="65.0538" y="-340.4102" font-family="Times,serif" font-size="14.00" fill="#000000">Photons</text>
<text text-anchor="middle" x="65.0538" y="-325.4102" font-family="Times,serif" font-size="14.00" fill="#000000">(sunlight)</text>
</g>
<!-- LDR -->
<g id="node7" class="node">
<title>LDR</title>
<polygon fill="none" stroke="#000000" points="255.5538,-273.7401 6.5538,-273.7401 6.5538,-235.7401 255.5538,-235.7401 255.5538,-273.7401"/>
<text text-anchor="middle" x="131.0538" y="-258.5401" font-family="Times,serif" font-size="14.00" fill="#000000">Light&#45;dependent reactions</text>
<text text-anchor="middle" x="131.0538" y="-243.5401" font-family="Times,serif" font-size="14.00" fill="#000000">(happens in thylakoid membrane)</text>
</g>
<!-- Photon&#45;&gt;LDR -->
<g id="edge1" class="edge">
<title>Photon&#45;&gt;LDR</title>
<path fill="none" stroke="#000000" d="M85.9366,-310.706C93.3558,-301.5028 101.7238,-291.1227 109.2203,-281.8236"/>
<polygon fill="#000000" stroke="#000000" points="111.9867,-283.9687 115.5381,-273.9867 106.537,-279.5754 111.9867,-283.9687"/>
</g>
<!-- H2O -->
<g id="node2" class="node">
<title>H2O</title>
<ellipse fill="none" stroke="#000000" cx="197.0538" cy="-336.6102" rx="48.5816" ry="26.7407"/>
<text text-anchor="middle" x="197.0538" y="-340.4102" font-family="Times,serif" font-size="14.00" fill="#000000">H2O</text>
<text text-anchor="middle" x="197.0538" y="-325.4102" font-family="Times,serif" font-size="14.00" fill="#000000">(water)</text>
</g>
<!-- H2O&#45;&gt;LDR -->
<g id="edge2" class="edge">
<title>H2O&#45;&gt;LDR</title>
<path fill="none" stroke="#000000" d="M177.2516,-312.0465C169.539,-302.4792 160.6747,-291.4835 152.7866,-281.6986"/>
<polygon fill="#000000" stroke="#000000" points="155.4378,-279.4106 146.4368,-273.822 149.9881,-283.8039 155.4378,-279.4106"/>
</g>
<!-- CO2 -->
<g id="node3" class="node">
<title>CO2</title>
<ellipse fill="none" stroke="#000000" cx="323.0538" cy="-172.8701" rx="96.7474" ry="26.7407"/>
<text text-anchor="middle" x="323.0538" y="-176.6701" font-family="Times,serif" font-size="14.00" fill="#000000">CO2</text>
<text text-anchor="middle" x="323.0538" y="-161.6701" font-family="Times,serif" font-size="14.00" fill="#000000">(carbon dioxide)</text>
</g>
<!-- CALVIN -->
<g id="node8" class="node">
<title>CALVIN</title>
<polygon fill="none" stroke="#000000" points="331.5538,-110 172.5538,-110 172.5538,-72 331.5538,-72 331.5538,-110"/>
<text text-anchor="middle" x="252.0538" y="-94.8" font-family="Times,serif" font-size="14.00" fill="#000000">Calvin cycle</text>
<text text-anchor="middle" x="252.0538" y="-79.8" font-family="Times,serif" font-size="14.00" fill="#000000">(happens in stroma)</text>
</g>
<!-- CO2&#45;&gt;CALVIN -->
<g id="edge6" class="edge">
<title>CO2&#45;&gt;CALVIN</title>
<path fill="none" stroke="#000000" d="M300.1982,-146.5152C292.2343,-137.3321 283.2939,-127.0229 275.2988,-117.8037"/>
<polygon fill="#000000" stroke="#000000" points="277.7604,-115.3001 268.5644,-110.0384 272.472,-119.8863 277.7604,-115.3001"/>
</g>
<!-- O2 -->
<g id="node4" class="node">
<title>O2</title>
<ellipse fill="none" stroke="#000000" cx="82.0538" cy="-172.8701" rx="54.3945" ry="26.7407"/>
<text text-anchor="middle" x="82.0538" y="-176.6701" font-family="Times,serif" font-size="14.00" fill="#000000">O2</text>
<text text-anchor="middle" x="82.0538" y="-161.6701" font-family="Times,serif" font-size="14.00" fill="#000000">(oxygen)</text>
</g>
<!-- ATP -->
<g id="node5" class="node">
<title>ATP</title>
<ellipse fill="none" stroke="#000000" cx="181.0538" cy="-172.8701" rx="27" ry="18"/>
<text text-anchor="middle" x="181.0538" y="-169.1701" font-family="Times,serif" font-size="14.00" fill="#000000">ATP</text>
</g>
<!-- ATP&#45;&gt;CALVIN -->
<g id="edge5" class="edge">
<title>ATP&#45;&gt;CALVIN</title>
<path fill="none" stroke="#000000" d="M194.7433,-157.0847C204.354,-146.0026 217.4467,-130.9054 228.6921,-117.9384"/>
<polygon fill="#000000" stroke="#000000" points="231.4999,-120.0428 235.4075,-110.1949 226.2115,-115.4566 231.4999,-120.0428"/>
</g>
<!-- ADP -->
<g id="node6" class="node">
<title>ADP</title>
<ellipse fill="none" stroke="#000000" cx="207.0538" cy="-18" rx="27" ry="18"/>
<text text-anchor="middle" x="207.0538" y="-14.3" font-family="Times,serif" font-size="14.00" fill="#000000">ADP</text>
</g>
<!-- LDR&#45;&gt;O2 -->
<g id="edge4" class="edge">
<title>LDR&#45;&gt;O2</title>
<path fill="none" stroke="#000000" d="M119.4415,-235.3381C114.4146,-226.939 108.3758,-216.8492 102.6321,-207.2527"/>
<polygon fill="#000000" stroke="#000000" points="105.6167,-205.4239 97.4779,-198.6408 99.6103,-209.0189 105.6167,-205.4239"/>
</g>
<!-- LDR&#45;&gt;ATP -->
<g id="edge3" class="edge">
<title>LDR&#45;&gt;ATP</title>
<path fill="none" stroke="#000000" d="M142.9031,-235.3381C149.6688,-224.26 158.2307,-210.2406 165.5285,-198.2912"/>
<polygon fill="#000000" stroke="#000000" points="168.587,-199.9984 170.8121,-189.6399 162.6129,-196.3499 168.587,-199.9984"/>
</g>
<!-- CALVIN&#45;&gt;ADP -->
<g id="edge8" class="edge">
<title>CALVIN&#45;&gt;ADP</title>
<path fill="none" stroke="#000000" d="M240.2306,-71.8201C234.863,-63.1127 228.4401,-52.6933 222.6815,-43.3516"/>
<polygon fill="#000000" stroke="#000000" points="225.647,-41.4924 217.4201,-34.8164 219.6882,-45.1656 225.647,-41.4924"/>
</g>
<!-- CARB -->
<g id="node9" class="node">
<title>CARB</title>
<ellipse fill="none" stroke="#000000" cx="297.0538" cy="-18" rx="44.6926" ry="18"/>
<text text-anchor="middle" x="297.0538" y="-14.3" font-family="Times,serif" font-size="14.00" fill="#000000">Glucose</text>
</g>
<!-- CALVIN&#45;&gt;CARB -->
<g id="edge7" class="edge">
<title>CALVIN&#45;&gt;CARB</title>
<path fill="none" stroke="#000000" d="M263.877,-71.8201C269.0331,-63.4559 275.1629,-53.512 280.7422,-44.4611"/>
<polygon fill="#000000" stroke="#000000" points="283.8134,-46.1487 286.0816,-35.7994 277.8546,-42.4754 283.8134,-46.1487"/>
</g>
</g>
</svg>
