<?xml version="1.0" encoding="UTF-8" standalone="no"?>
<!DOCTYPE svg PUBLIC "-//W3C//DTD SVG 1.1//EN"
 "http://www.w3.org/Graphics/SVG/1.1/DTD/svg11.dtd">
<!-- Generated by graphviz version 2.40.1 (0)
 -->
<!-- Title: G Pages: 1 -->
<svg width="675pt" height="207pt"
 viewBox="0.00 0.00 675.00 207.00" xmlns="http://www.w3.org/2000/svg" xmlns:xlink="http://www.w3.org/1999/xlink">
<g id="graph0" class="graph" transform="scale(1 1) rotate(0) translate(4 203)">
<title>G</title>
<polygon fill="#ffffff" stroke="transparent" points="-4,4 -4,-203 671,-203 671,4 -4,4"/>
<g id="clust1" class="cluster">
<title>clusterparent1</title>
<polygon fill="none" stroke="#000000" points="8,-116 8,-191 212,-191 212,-116 8,-116"/>
<text text-anchor="middle" x="110" y="-175.8" font-family="Times,serif" font-size="14.00" fill="#000000">Male parent color alleles</text>
</g>
<g id="clust2" class="cluster">
<title>clusterparent2</title>
<polygon fill="none" stroke="#000000" points="360,-116 360,-191 579,-191 579,-116 360,-116"/>
<text text-anchor="middle" x="469.5" y="-175.8" font-family="Times,serif" font-size="14.00" fill="#000000">Female parent color alleles</text>
</g>
<g id="clust3" class="cluster">
<title>clusterchild1</title>
<polygon fill="none" stroke="#000000" points="217,-8 217,-83 376,-83 376,-8 217,-8"/>
<text text-anchor="middle" x="296.5" y="-67.8" font-family="Times,serif" font-size="14.00" fill="#000000">Child color alleles</text>
</g>
<!-- red1 -->
<g id="node1" class="node">
<title>red1</title>
<ellipse fill="none" stroke="#000000" cx="161" cy="-142" rx="27" ry="18"/>
<text text-anchor="middle" x="161" y="-138.3" font-family="Times,serif" font-size="14.00" fill="#000000">Red</text>
</g>
<!-- red3 -->
<g id="node5" class="node">
<title>red3</title>
<ellipse fill="none" stroke="#000000" cx="252" cy="-34" rx="27" ry="18"/>
<text text-anchor="middle" x="252" y="-30.3" font-family="Times,serif" font-size="14.00" fill="#000000">Red</text>
</g>
<!-- red1&#45;&gt;red3 -->
<g id="edge1" class="edge">
<title>red1&#45;&gt;red3</title>
<path fill="none" stroke="#000000" d="M157.3281,-123.9076C156.1874,-113.6268 156.4374,-100.8768 162,-91 174.1443,-69.4366 198.1817,-54.8425 218.3614,-45.8233"/>
<polygon fill="#000000" stroke="#000000" points="219.7269,-49.0461 227.5962,-41.9521 217.0206,-42.5903 219.7269,-49.0461"/>
<text text-anchor="middle" x="282.5" y="-94.8" font-family="Times,serif" font-size="14.00" fill="#000000">randomly chosen from male parent</text>
</g>
<!-- red2 -->
<g id="node2" class="node">
<title>red2</title>
<ellipse fill="none" stroke="#000000" cx="74" cy="-142" rx="27" ry="18"/>
<text text-anchor="middle" x="74" y="-138.3" font-family="Times,serif" font-size="14.00" fill="#000000">Red</text>
</g>
<!-- white1 -->
<g id="node3" class="node">
<title>white1</title>
<ellipse fill="none" stroke="#000000" cx="524" cy="-142" rx="35.194" ry="18"/>
<text text-anchor="middle" x="524" y="-138.3" font-family="Times,serif" font-size="14.00" fill="#000000">White</text>
</g>
<!-- white2 -->
<g id="node4" class="node">
<title>white2</title>
<ellipse fill="none" stroke="#000000" cx="425" cy="-142" rx="35.194" ry="18"/>
<text text-anchor="middle" x="425" y="-138.3" font-family="Times,serif" font-size="14.00" fill="#000000">White</text>
</g>
<!-- white3 -->
<g id="node6" class="node">
<title>white3</title>
<ellipse fill="none" stroke="#000000" cx="333" cy="-34" rx="35.194" ry="18"/>
<text text-anchor="middle" x="333" y="-30.3" font-family="Times,serif" font-size="14.00" fill="#000000">White</text>
</g>
<!-- white2&#45;&gt;white3 -->
<g id="edge2" class="edge">
<title>white2&#45;&gt;white3</title>
<path fill="none" stroke="#000000" d="M419.5826,-123.8844C415.9435,-113.5958 410.4435,-100.8458 403,-91 392.2234,-76.7452 377.1597,-63.8807 363.7659,-53.9961"/>
<polygon fill="#000000" stroke="#000000" points="365.4436,-50.8941 355.2672,-47.946 361.384,-56.5968 365.4436,-50.8941"/>
<text text-anchor="middle" x="539" y="-94.8" font-family="Times,serif" font-size="14.00" fill="#000000">randomly chosen from female parent</text>
</g>
</g>
</svg>
