<?xml version="1.0" encoding="UTF-8" standalone="no"?><svg xmlns="http://www.w3.org/2000/svg" xmlns:xlink="http://www.w3.org/1999/xlink" contentScriptType="application/ecmascript" contentStyleType="text/css" height="817px" preserveAspectRatio="none" style="width:471px;height:817px;" version="1.1" viewBox="0 0 471 817" width="471px" zoomAndPan="magnify"><defs><filter height="300%" id="fhrswmc5c3e8z" width="300%" x="-1" y="-1"><feGaussianBlur result="blurOut" stdDeviation="2.0"/><feColorMatrix in="blurOut" result="blurOut2" type="matrix" values="0 0 0 0 0 0 0 0 0 0 0 0 0 0 0 0 0 0 .4 0"/><feOffset dx="4.0" dy="4.0" in="blurOut2" result="blurOut3"/><feBlend in="SourceGraphic" in2="blurOut3" mode="normal"/></filter></defs><g><ellipse cx="176" cy="18" fill="#000000" filter="url(#fhrswmc5c3e8z)" rx="10" ry="10" style="stroke: none; stroke-width: 1.0;"/><rect fill="#00FF00" filter="url(#fhrswmc5c3e8z)" height="81.875" rx="12.5" ry="12.5" style="stroke: #A80036; stroke-width: 1.5;" width="195" x="78.5" y="69"/><text fill="#000000" font-family="sans-serif" font-size="12" lengthAdjust="spacingAndGlyphs" textLength="175" x="88.5" y="90.1387">Determine cation and anion</text><text fill="#000000" font-family="sans-serif" font-size="12" lengthAdjust="spacingAndGlyphs" textLength="0" x="178" y="104.1074"/><text fill="#000000" font-family="sans-serif" font-size="12" lengthAdjust="spacingAndGlyphs" textLength="68" x="99" y="118.0762">Cation=NH</text><text fill="#000000" font-family="sans-serif" font-size="9" lengthAdjust="spacingAndGlyphs" textLength="6" x="167" y="121.7837">4</text><text fill="#000000" font-family="sans-serif" font-size="12" lengthAdjust="spacingAndGlyphs" textLength="80" x="173" y="118.0762">, charge=1+</text><text fill="#000000" font-family="sans-serif" font-size="12" lengthAdjust="spacingAndGlyphs" textLength="63" x="104.5" y="135.0449">Anion=NO</text><text fill="#000000" font-family="sans-serif" font-size="9" lengthAdjust="spacingAndGlyphs" textLength="6" x="167.5" y="138.7524">2</text><text fill="#000000" font-family="sans-serif" font-size="12" lengthAdjust="spacingAndGlyphs" textLength="74" x="173.5" y="135.0449">, charge=1-</text><polygon fill="#FEFECE" filter="url(#fhrswmc5c3e8z)" points="176,197,188,209,176,221,164,209,176,197" style="stroke: #A80036; stroke-width: 1.5;"/><rect fill="#00FF00" filter="url(#fhrswmc5c3e8z)" height="61.9063" rx="12.5" ry="12.5" style="stroke: #A80036; stroke-width: 1.5;" width="91" x="130.5" y="246"/><text fill="#000000" font-family="sans-serif" font-size="12" lengthAdjust="spacingAndGlyphs" textLength="71" x="140.5" y="267.1387">Write name</text><text fill="#000000" font-family="sans-serif" font-size="12" lengthAdjust="spacingAndGlyphs" textLength="0" x="178" y="281.1074"/><text fill="#000000" font-family="sans-serif" font-size="12" lengthAdjust="spacingAndGlyphs" textLength="68" x="142" y="295.0762">Ammonium</text><rect fill="#000000" filter="url(#fhrswmc5c3e8z)" height="8" style="stroke: none; stroke-width: 1.0;" width="80" x="234" y="556"/><rect fill="#FEFECE" filter="url(#fhrswmc5c3e8z)" height="33.9688" rx="12.5" ry="12.5" style="stroke: #A80036; stroke-width: 1.5;" width="91" x="238.5" y="192"/><text fill="#000000" font-family="sans-serif" font-size="12" lengthAdjust="spacingAndGlyphs" textLength="71" x="248.5" y="213.1387">Write name</text><polygon fill="#FEFECE" filter="url(#fhrswmc5c3e8z)" points="284,328,296,340,284,352,272,340,284,328" style="stroke: #A80036; stroke-width: 1.5;"/><rect fill="#FEFECE" filter="url(#fhrswmc5c3e8z)" height="33.9688" rx="12.5" ry="12.5" style="stroke: #A80036; stroke-width: 1.5;" width="133" x="207.5" y="406"/><text fill="#000000" font-family="sans-serif" font-size="12" lengthAdjust="spacingAndGlyphs" textLength="113" x="217.5" y="427.1387">Determine charge</text><rect fill="#FEFECE" filter="url(#fhrswmc5c3e8z)" height="33.9688" rx="12.5" ry="12.5" style="stroke: #A80036; stroke-width: 1.5;" width="100" x="224" y="481"/><text fill="#000000" font-family="sans-serif" font-size="12" lengthAdjust="spacingAndGlyphs" textLength="80" x="234" y="502.1387">Write charge</text><polygon fill="#FEFECE" filter="url(#fhrswmc5c3e8z)" points="274,605,286,617,274,629,262,617,274,605" style="stroke: #A80036; stroke-width: 1.5;"/><rect fill="#FEFECE" filter="url(#fhrswmc5c3e8z)" height="33.9688" rx="12.5" ry="12.5" style="stroke: #A80036; stroke-width: 1.5;" width="300" x="6" y="697"/><text fill="#000000" font-family="sans-serif" font-size="12" lengthAdjust="spacingAndGlyphs" textLength="280" x="16" y="718.1387">Write name but replace last syllable with -ide</text><ellipse cx="274" cy="796" fill="none" filter="url(#fhrswmc5c3e8z)" rx="10" ry="10" style="stroke: #000000; stroke-width: 1.0;"/><ellipse cx="274.5" cy="796.5" fill="#000000" rx="6" ry="6" style="stroke: none; stroke-width: 1.0;"/><rect fill="#00FF00" filter="url(#fhrswmc5c3e8z)" height="61.9063" rx="12.5" ry="12.5" style="stroke: #A80036; stroke-width: 1.5;" width="135" x="325.5" y="683"/><text fill="#000000" font-family="sans-serif" font-size="12" lengthAdjust="spacingAndGlyphs" textLength="71" x="357.5" y="704.1387">Write name</text><text fill="#000000" font-family="sans-serif" font-size="12" lengthAdjust="spacingAndGlyphs" textLength="0" x="395" y="718.1074"/><text fill="#000000" font-family="sans-serif" font-size="12" lengthAdjust="spacingAndGlyphs" textLength="115" x="335.5" y="732.0762">Ammonium Nitrate</text><!--link start to Determine cation and anion\n\nCation=NH<sub>4</sub>, charge=1+\nAnion=NO<sub>2</sub>, charge=1- --><path d="M176,28.1971 C176,36.953 176,50.2381 176,63.5712 " fill="none" id="start-Determine cation and anion\n\nCation=NH&lt;sub&gt;4&lt;/sub&gt;, charge=1+\nAnion=NO&lt;sub&gt;2&lt;/sub&gt;, charge=1-" style="stroke: #007F00; stroke-width: 1.0;"/><polygon fill="#007F00" points="176,68.8729,180,59.8729,176,63.8729,172,59.8729,176,68.8729" style="stroke: #007F00; stroke-width: 1.0;"/><!--link Determine cation and anion\n\nCation=NH<sub>4</sub>, charge=1+\nAnion=NO<sub>2</sub>, charge=1- to #5--><path d="M176,151.1248 C176,165.3691 176,180.5662 176,191.8119 " fill="none" id="Determine cation and anion\n\nCation=NH&lt;sub&gt;4&lt;/sub&gt;, charge=1+\nAnion=NO&lt;sub&gt;2&lt;/sub&gt;, charge=1--#5" style="stroke: #007F00; stroke-width: 1.0;"/><polygon fill="#007F00" points="176,196.9936,180,187.9936,176,191.9936,172,187.9936,176,196.9936" style="stroke: #007F00; stroke-width: 1.0;"/><text fill="#007F00" font-family="sans-serif" font-size="11" lengthAdjust="spacingAndGlyphs" textLength="68" x="90.45" y="186.6221">cation type?</text><!--link #5 to Write name\n\nAmmonium--><path d="M176,221.157 C176,226.6975 176,233.5798 176,240.5994 " fill="none" id="#5-Write name\n\nAmmonium" style="stroke: #007F00; stroke-width: 1.0;"/><polygon fill="#007F00" points="176,245.974,180,236.974,176,240.974,172,236.974,176,245.974" style="stroke: #007F00; stroke-width: 1.0;"/><text fill="#007F00" font-family="sans-serif" font-size="11" lengthAdjust="spacingAndGlyphs" textLength="51" x="124" y="230.6684">molecule</text><!--link Write name\n\nAmmonium to CAT_WRITE--><path d="M176,308.2492 C176,328.4365 176,355.2708 176,379 C176,379 176,379 176,498 C176,531.3058 216.9235,547.4569 245.8802,554.7163 " fill="none" id="Write name\n\nAmmonium-CAT_WRITE" style="stroke: #007F00; stroke-width: 1.0;"/><polygon fill="#007F00" points="250.7754,555.8886,242.9544,549.9026,245.9129,554.7242,241.0913,557.6827,250.7754,555.8886" style="stroke: #007F00; stroke-width: 1.0;"/><!--link #5 to Write name--><path d="M188.389,209 C199.4356,209 216.3771,209 232.9474,209 " fill="none" id="#5-Write name" style="stroke: #A80036; stroke-width: 1.0;"/><polygon fill="#A80036" points="238.071,209,229.071,205,233.071,209,229.071,213,238.071,209" style="stroke: #A80036; stroke-width: 1.0;"/><text fill="#000000" font-family="sans-serif" font-size="11" lengthAdjust="spacingAndGlyphs" textLength="29" x="198.75" y="203.2104">atom</text><!--link Write name to #14--><path d="M284,226.126 C284,251.2483 284,297.8217 284,322.9186 " fill="none" id="Write name-#14" style="stroke: #A80036; stroke-width: 1.0;"/><polygon fill="#A80036" points="284,327.9326,288,318.9326,284,322.9326,280,318.9326,284,327.9326" style="stroke: #A80036; stroke-width: 1.0;"/><text fill="#000000" font-family="sans-serif" font-size="11" lengthAdjust="spacingAndGlyphs" textLength="63" x="295.2219" y="304.4995">predictable</text><text fill="#000000" font-family="sans-serif" font-size="11" lengthAdjust="spacingAndGlyphs" textLength="45" x="304.2219" y="317.3041">charge?</text><!--link #14 to CAT_WRITE--><path d="M291.7337,344.597 C306.5985,353.9446 338.7683,376.7811 351,406 C356.8352,419.939 352.6807,424.9826 351,440 C347.1986,473.9669 352.5905,486.3191 334,515 C322.5201,532.7108 301.523,546.0346 287.6632,553.4264 " fill="none" id="#14-CAT_WRITE" style="stroke: #A80036; stroke-width: 1.0;"/><polygon fill="#A80036" points="282.9108,555.8784,292.743,555.3063,287.3542,553.5857,289.0747,548.1969,282.9108,555.8784" style="stroke: #A80036; stroke-width: 1.0;"/><!--link #14 to Determine charge--><path d="M282.6927,350.8508 C281.1801,363.4051 278.6489,384.4142 276.7068,400.5332 " fill="none" id="#14-Determine charge" style="stroke: #A80036; stroke-width: 1.0;"/><polygon fill="#A80036" points="276.0731,405.7929,281.1213,397.3362,276.6714,400.8288,273.1788,396.3789,276.0731,405.7929" style="stroke: #A80036; stroke-width: 1.0;"/><text fill="#000000" font-family="sans-serif" font-size="11" lengthAdjust="spacingAndGlyphs" textLength="14" x="280" y="383.2104">no</text><!--link Determine charge to Write charge--><path d="M274,440.0187 C274,450.5877 274,464.2879 274,475.7171 " fill="none" id="Determine charge-Write charge" style="stroke: #A80036; stroke-width: 1.0;"/><polygon fill="#A80036" points="274,480.7891,278,471.7891,274,475.7891,270,471.7891,274,480.7891" style="stroke: #A80036; stroke-width: 1.0;"/><!--link Write charge to CAT_WRITE--><path d="M274,515.2705 C274,526.6646 274,541.1598 274,550.5087 " fill="none" id="Write charge-CAT_WRITE" style="stroke: #A80036; stroke-width: 1.0;"/><polygon fill="#A80036" points="274,555.5908,278,546.5908,274,550.5908,270,546.5908,274,555.5908" style="stroke: #A80036; stroke-width: 1.0;"/><!--link CAT_WRITE to #23--><path d="M274,564.0993 C274,571.4254 274,587.1603 274,599.5751 " fill="none" id="CAT_WRITE-#23" style="stroke: #007F00; stroke-width: 1.0;"/><polygon fill="#007F00" points="274,604.6582,278,595.6582,274,599.6582,270,595.6582,274,604.6582" style="stroke: #007F00; stroke-width: 1.0;"/><text fill="#007F00" font-family="sans-serif" font-size="11" lengthAdjust="spacingAndGlyphs" textLength="65" x="193.9688" y="594.5717">anion type?</text><!--link #23 to Write name but replace last syllable with -ide--><path d="M267.3177,622.4931 C250.9607,635.9391 208.2423,671.055 180.7339,693.6679 " fill="none" id="#23-Write name but replace last syllable with -ide" style="stroke: #A80036; stroke-width: 1.0;"/><polygon fill="#A80036" points="176.7905,696.9095,186.2831,694.2844,180.653,693.7344,181.203,688.1044,176.7905,696.9095" style="stroke: #A80036; stroke-width: 1.0;"/><text fill="#000000" font-family="sans-serif" font-size="11" lengthAdjust="spacingAndGlyphs" textLength="29" x="234" y="660.2104">atom</text><!--link Write name but replace last syllable with -ide to end--><path d="M180.7367,731.1899 C205.2833,748.2477 241.9388,773.7201 261.1693,787.0837 " fill="none" id="Write name but replace last syllable with -ide-end" style="stroke: #A80036; stroke-width: 1.0;"/><polygon fill="#A80036" points="265.665,790.2079,260.5569,781.7873,261.559,787.3546,255.9917,788.3568,265.665,790.2079" style="stroke: #A80036; stroke-width: 1.0;"/><!--link #23 to Write name\n\nAmmonium Nitrate--><path d="M280.7389,622.4931 C294.0867,633.3732 324.841,658.4418 350.7904,679.5938 " fill="none" id="#23-Write name\n\nAmmonium Nitrate" style="stroke: #007F00; stroke-width: 1.0;"/><polygon fill="#007F00" points="354.9104,682.9522,350.4617,674.1653,351.0348,679.7931,345.4071,680.3662,354.9104,682.9522" style="stroke: #007F00; stroke-width: 1.0;"/><text fill="#007F00" font-family="sans-serif" font-size="11" lengthAdjust="spacingAndGlyphs" textLength="51" x="330" y="660.2104">molecule</text><!--link Write name\n\nAmmonium Nitrate to end--><path d="M348.0112,745.0007 C326.061,760.1261 301.3046,777.185 286.7108,787.2413 " fill="none" id="Write name\n\nAmmonium Nitrate-end" style="stroke: #007F00; stroke-width: 1.0;"/><polygon fill="#007F00" points="282.5224,790.1275,292.203,788.3148,286.6396,787.2905,287.6639,781.7272,282.5224,790.1275" style="stroke: #007F00; stroke-width: 1.0;"/><!--
@startuml
(*) -[#007F00]-> "Determine cation and anion\n\nCation=NH<sub>4</sub>, charge=1+\nAnion=NO<sub>2</sub>, charge=1-" #00FF00

-[#007F00]-> if "<color:#007F00> cation type?" then
    -[#007F00]> [<color:#007F00>molecule] "Write name\n\nAmmonium" #00FF00
    -[#007F00]-> ===CAT_WRITE===
else
    -> [atom] "Write name"
    - -> if "predictable\ncharge?" then
        - -> ===CAT_WRITE===
    else
        - -> [no] "Determine charge"
        - -> "Write charge"
        - -> ===CAT_WRITE===
    endif
endif

-[#007F00]-> if "<color:#007F00>anion type?" then
    - -> [atom] "Write name but replace last syllable with -ide"
    - -> (*)
else
    -[#007F00]-> [<color:#007F00>molecule] "Write name\n\nAmmonium Nitrate" #00FF00
    -[#007F00]-> (*)
endif

@enduml

PlantUML version 1.2019.08(Sat Jul 13 19:25:14 GMT 2019)
(GPL source distribution)
Java Runtime: OpenJDK Runtime Environment
JVM: OpenJDK 64-Bit Server VM
Java Version: 11.0.4+4-alpine-r1
Operating System: Linux
OS Version: 5.3.0-29-generic
Default Encoding: UTF-8
Language: en
Country: US
--></g></svg>