<?xml version="1.0" encoding="UTF-8" standalone="no"?><svg xmlns="http://www.w3.org/2000/svg" xmlns:xlink="http://www.w3.org/1999/xlink" contentScriptType="application/ecmascript" contentStyleType="text/css" height="1058px" preserveAspectRatio="none" style="width:377px;height:1058px;" version="1.1" viewBox="0 0 377 1058" width="377px" zoomAndPan="magnify"><defs><filter height="300%" id="f1kdzwp778w1ju" width="300%" x="-1" y="-1"><feGaussianBlur result="blurOut" stdDeviation="2.0"/><feColorMatrix in="blurOut" result="blurOut2" type="matrix" values="0 0 0 0 0 0 0 0 0 0 0 0 0 0 0 0 0 0 .4 0"/><feOffset dx="4.0" dy="4.0" in="blurOut2" result="blurOut3"/><feBlend in="SourceGraphic" in2="blurOut3" mode="normal"/></filter></defs><g><ellipse cx="124" cy="18" fill="#000000" filter="url(#f1kdzwp778w1ju)" rx="10" ry="10" style="stroke: none; stroke-width: 1.0;"/><rect fill="#FEFECE" filter="url(#f1kdzwp778w1ju)" height="33.9688" rx="12.5" ry="12.5" style="stroke: #A80036; stroke-width: 1.5;" width="195" x="26.5" y="69"/><text fill="#000000" font-family="sans-serif" font-size="12" lengthAdjust="spacingAndGlyphs" textLength="175" x="36.5" y="90.1387">Determine cation and anion</text><rect fill="#FEFECE" filter="url(#f1kdzwp778w1ju)" height="33.9688" rx="12.5" ry="12.5" style="stroke: #A80036; stroke-width: 1.5;" width="125" x="61.5" y="154.5"/><text fill="#000000" font-family="sans-serif" font-size="12" lengthAdjust="spacingAndGlyphs" textLength="105" x="71.5" y="175.6387">Determine ratios</text><path d="M206.5,144 L206.5,167.5 L186.6484,171.5 L206.5,175.5 L206.5,199.3984 A0,0 0 0 0 206.5,199.3984 L365.5,199.3984 A0,0 0 0 0 365.5,199.3984 L365.5,154 L355.5,144 L206.5,144 A0,0 0 0 0 206.5,144 " fill="#FBFB77" filter="url(#f1kdzwp778w1ju)" style="stroke: #A80036; stroke-width: 1.0;"/><path d="M355.5,144 L355.5,154 L365.5,154 L355.5,144 " fill="#FBFB77" style="stroke: #A80036; stroke-width: 1.0;"/><text fill="#000000" font-family="sans-serif" font-size="13" lengthAdjust="spacingAndGlyphs" textLength="130" x="212.5" y="161.0669">Confused as to what</text><text fill="#000000" font-family="sans-serif" font-size="13" lengthAdjust="spacingAndGlyphs" textLength="138" x="212.5" y="176.1997">this means? see note</text><text fill="#000000" font-family="sans-serif" font-size="13" lengthAdjust="spacingAndGlyphs" textLength="40" x="212.5" y="191.3325">below.</text><polygon fill="#FEFECE" filter="url(#f1kdzwp778w1ju)" points="124,240,136,252,124,264,112,252,124,240" style="stroke: #A80036; stroke-width: 1.5;"/><rect fill="#FEFECE" filter="url(#f1kdzwp778w1ju)" height="47.9375" rx="12.5" ry="12.5" style="stroke: #A80036; stroke-width: 1.5;" width="110" x="7" y="318"/><text fill="#000000" font-family="sans-serif" font-size="12" lengthAdjust="spacingAndGlyphs" textLength="83" x="20.5" y="339.1387">Write formula</text><text fill="#000000" font-family="sans-serif" font-size="12" lengthAdjust="spacingAndGlyphs" textLength="90" x="17" y="353.1074">in parenthesis</text><rect fill="#000000" filter="url(#f1kdzwp778w1ju)" height="8" style="stroke: none; stroke-width: 1.0;" width="80" x="84" y="407"/><rect fill="#FEFECE" filter="url(#f1kdzwp778w1ju)" height="33.9688" rx="12.5" ry="12.5" style="stroke: #A80036; stroke-width: 1.5;" width="99" x="137.5" y="325"/><text fill="#000000" font-family="sans-serif" font-size="12" lengthAdjust="spacingAndGlyphs" textLength="79" x="147.5" y="346.1387">Write symbol</text><polygon fill="#FEFECE" filter="url(#f1kdzwp778w1ju)" points="124,456,136,468,124,480,112,468,124,456" style="stroke: #A80036; stroke-width: 1.5;"/><rect fill="#FEFECE" filter="url(#f1kdzwp778w1ju)" height="33.9688" rx="12.5" ry="12.5" style="stroke: #A80036; stroke-width: 1.5;" width="85" x="39.5" y="534"/><text fill="#000000" font-family="sans-serif" font-size="12" lengthAdjust="spacingAndGlyphs" textLength="65" x="49.5" y="555.1387">Write ratio</text><rect fill="#000000" filter="url(#f1kdzwp778w1ju)" height="8" style="stroke: none; stroke-width: 1.0;" width="80" x="83" y="609"/><polygon fill="#FEFECE" filter="url(#f1kdzwp778w1ju)" points="123,658,135,670,123,682,111,670,123,658" style="stroke: #A80036; stroke-width: 1.5;"/><rect fill="#FEFECE" filter="url(#f1kdzwp778w1ju)" height="47.9375" rx="12.5" ry="12.5" style="stroke: #A80036; stroke-width: 1.5;" width="110" x="6" y="736"/><text fill="#000000" font-family="sans-serif" font-size="12" lengthAdjust="spacingAndGlyphs" textLength="83" x="19.5" y="757.1387">Write formula</text><text fill="#000000" font-family="sans-serif" font-size="12" lengthAdjust="spacingAndGlyphs" textLength="90" x="16" y="771.1074">in parenthesis​</text><rect fill="#000000" filter="url(#f1kdzwp778w1ju)" height="8" style="stroke: none; stroke-width: 1.0;" width="80" x="83" y="825"/><rect fill="#FEFECE" filter="url(#f1kdzwp778w1ju)" height="33.9688" rx="12.5" ry="12.5" style="stroke: #A80036; stroke-width: 1.5;" width="99" x="136.5" y="743"/><text fill="#000000" font-family="sans-serif" font-size="12" lengthAdjust="spacingAndGlyphs" textLength="79" x="146.5" y="764.1387">Write symbol​</text><polygon fill="#FEFECE" filter="url(#f1kdzwp778w1ju)" points="123,874,135,886,123,898,111,886,123,874" style="stroke: #A80036; stroke-width: 1.5;"/><rect fill="#FEFECE" filter="url(#f1kdzwp778w1ju)" height="33.9688" rx="12.5" ry="12.5" style="stroke: #A80036; stroke-width: 1.5;" width="85" x="38.5" y="952"/><text fill="#000000" font-family="sans-serif" font-size="12" lengthAdjust="spacingAndGlyphs" textLength="65" x="48.5" y="973.1387">Write ratio​</text><ellipse cx="122" cy="1037" fill="none" filter="url(#f1kdzwp778w1ju)" rx="10" ry="10" style="stroke: #000000; stroke-width: 1.0;"/><ellipse cx="122.5" cy="1037.5" fill="#000000" rx="6" ry="6" style="stroke: none; stroke-width: 1.0;"/><!--link start to Determine cation and anion--><path d="M124,28.0336 C124,37.4082 124,51.7285 124,63.7898 " fill="none" id="start-Determine cation and anion" style="stroke: #A80036; stroke-width: 1.0;"/><polygon fill="#A80036" points="124,68.7995,128,59.7995,124,63.7995,120,59.7995,124,68.7995" style="stroke: #A80036; stroke-width: 1.0;"/><!--link Determine cation and anion to Determine ratios--><path d="M124,103.3022 C124,116.5136 124,134.8231 124,149.1445 " fill="none" id="Determine cation and anion-Determine ratios" style="stroke: #A80036; stroke-width: 1.0;"/><polygon fill="#A80036" points="124,154.2235,128,145.2235,124,149.2235,120,145.2235,124,154.2235" style="stroke: #A80036; stroke-width: 1.0;"/><!--link Determine ratios to #10--><path d="M124,188.572 C124,202.099 124,220.9242 124,234.5489 " fill="none" id="Determine ratios-#10" style="stroke: #A80036; stroke-width: 1.0;"/><polygon fill="#A80036" points="124,239.6752,128,230.6752,124,234.6752,120,230.6752,124,239.6752" style="stroke: #A80036; stroke-width: 1.0;"/><text fill="#000000" font-family="sans-serif" font-size="11" lengthAdjust="spacingAndGlyphs" textLength="68" x="40.275" y="229.5965">cation type?</text><!--link #10 to Write formula\nin parenthesis--><path d="M117.8831,258.6148 C112.1872,264.9169 103.6062,274.7836 97,284 C90.3454,293.284 83.7023,303.872 78.0198,313.4381 " fill="none" id="#10-Write formula\nin parenthesis" style="stroke: #A80036; stroke-width: 1.0;"/><polygon fill="#A80036" points="75.48,317.7531,83.4925,312.026,78.0163,313.4441,76.5981,307.9679,75.48,317.7531" style="stroke: #A80036; stroke-width: 1.0;"/><text fill="#000000" font-family="sans-serif" font-size="11" lengthAdjust="spacingAndGlyphs" textLength="51" x="98" y="295.2104">molecule</text><!--link Write formula\nin parenthesis to CAT_WRITE--><path d="M83.6846,366.1329 C95.2082,378.9575 108.625,393.8891 116.7074,402.884 " fill="none" id="Write formula\nin parenthesis-CAT_WRITE" style="stroke: #A80036; stroke-width: 1.0;"/><polygon fill="#A80036" points="120.215,406.7876,117.175,397.4197,116.8731,403.0685,111.2243,402.7666,120.215,406.7876" style="stroke: #A80036; stroke-width: 1.0;"/><!--link #10 to Write symbol--><path d="M130.0905,258.6339 C135.7677,264.9494 144.3361,274.8252 151,284 C159.4099,295.5787 167.8956,309.1385 174.5145,320.2344 " fill="none" id="#10-Write symbol" style="stroke: #A80036; stroke-width: 1.0;"/><polygon fill="#A80036" points="177.2312,324.826,176.0909,315.0434,174.6852,320.5228,169.2057,319.117,177.2312,324.826" style="stroke: #A80036; stroke-width: 1.0;"/><text fill="#000000" font-family="sans-serif" font-size="11" lengthAdjust="spacingAndGlyphs" textLength="29" x="162" y="295.2104">atom</text><!--link Write symbol to CAT_WRITE--><path d="M171.427,359.0562 C158.5599,373.1487 140.8814,392.5108 131.149,403.1701 " fill="none" id="Write symbol-CAT_WRITE" style="stroke: #A80036; stroke-width: 1.0;"/><polygon fill="#A80036" points="127.7232,406.9223,136.7456,402.9731,131.0946,403.2299,130.8378,397.5789,127.7232,406.9223" style="stroke: #A80036; stroke-width: 1.0;"/><!--link CAT_WRITE to #20--><path d="M124,415.0993 C124,422.4254 124,438.1603 124,450.5751 " fill="none" id="CAT_WRITE-#20" style="stroke: #A80036; stroke-width: 1.0;"/><polygon fill="#A80036" points="124,455.6582,128,446.6582,124,450.6582,120,446.6582,124,455.6582" style="stroke: #A80036; stroke-width: 1.0;"/><text fill="#000000" font-family="sans-serif" font-size="11" lengthAdjust="spacingAndGlyphs" textLength="56" x="55.05" y="445.5717">ratio &gt; 1?</text><!--link #20 to Write ratio--><path d="M119.8193,476.2618 C113.6365,488.4803 101.8401,511.7921 93.0587,529.1459 " fill="none" id="#20-Write ratio" style="stroke: #A80036; stroke-width: 1.0;"/><polygon fill="#A80036" points="90.669,533.8684,98.3016,527.644,92.9265,529.4071,91.1635,524.032,90.669,533.8684" style="stroke: #A80036; stroke-width: 1.0;"/><text fill="#000000" font-family="sans-serif" font-size="11" lengthAdjust="spacingAndGlyphs" textLength="20" x="108" y="511.2104">yes</text><!--link Write ratio to CAT_WRITE_RATIO--><path d="M93.4208,568.2705 C101.1689,579.9871 111.0854,594.9828 117.2401,604.2899 " fill="none" id="Write ratio-CAT_WRITE_RATIO" style="stroke: #A80036; stroke-width: 1.0;"/><polygon fill="#A80036" points="120.0842,608.5908,118.4564,598.8774,117.3263,604.4202,111.7835,603.2901,120.0842,608.5908" style="stroke: #A80036; stroke-width: 1.0;"/><!--link #20 to CAT_WRITE_RATIO--><path d="M127.5417,476.7947 C129.8952,483.1294 132.7707,491.9446 134,500 C138.5595,529.8763 137.6141,537.9947 134,568 C132.4708,580.6958 128.5978,594.9802 125.8824,603.9822 " fill="none" id="#20-CAT_WRITE_RATIO" style="stroke: #A80036; stroke-width: 1.0;"/><polygon fill="#A80036" points="124.3725,608.8433,130.8621,601.4349,125.8556,604.0683,123.2222,599.0619,124.3725,608.8433" style="stroke: #A80036; stroke-width: 1.0;"/><text fill="#000000" font-family="sans-serif" font-size="11" lengthAdjust="spacingAndGlyphs" textLength="14" x="139" y="555.2104">no</text><!--link CAT_WRITE_RATIO to #28--><path d="M123,617.0993 C123,624.4254 123,640.1603 123,652.5751 " fill="none" id="CAT_WRITE_RATIO-#28" style="stroke: #A80036; stroke-width: 1.0;"/><polygon fill="#A80036" points="123,657.6582,127,648.6582,123,652.6582,119,648.6582,123,657.6582" style="stroke: #A80036; stroke-width: 1.0;"/><text fill="#000000" font-family="sans-serif" font-size="11" lengthAdjust="spacingAndGlyphs" textLength="65" x="42.9688" y="647.5717">anion type?</text><!--link #28 to Write formula\nin parenthesis&#8203;--><path d="M116.8831,676.6148 C111.1872,682.9169 102.6062,692.7836 96,702 C89.3454,711.284 82.7023,721.872 77.0198,731.4381 " fill="none" id="#28-Write formula\nin parenthesis&amp;#8203;" style="stroke: #A80036; stroke-width: 1.0;"/><polygon fill="#A80036" points="74.48,735.7531,82.4925,730.026,77.0163,731.4441,75.5981,725.9679,74.48,735.7531" style="stroke: #A80036; stroke-width: 1.0;"/><text fill="#000000" font-family="sans-serif" font-size="11" lengthAdjust="spacingAndGlyphs" textLength="51" x="97" y="713.2104">molecule</text><!--link Write formula\nin parenthesis&#8203; to AN_WRITE--><path d="M82.6846,784.1329 C94.2082,796.9575 107.625,811.8891 115.7074,820.884 " fill="none" id="Write formula\nin parenthesis&amp;#8203;-AN_WRITE" style="stroke: #A80036; stroke-width: 1.0;"/><polygon fill="#A80036" points="119.215,824.7876,116.175,815.4197,115.8731,821.0685,110.2243,820.7666,119.215,824.7876" style="stroke: #A80036; stroke-width: 1.0;"/><!--link #28 to Write symbol&#8203;--><path d="M129.0905,676.6339 C134.7677,682.9494 143.3361,692.8252 150,702 C158.4099,713.5787 166.8956,727.1385 173.5145,738.2344 " fill="none" id="#28-Write symbol&amp;#8203;" style="stroke: #A80036; stroke-width: 1.0;"/><polygon fill="#A80036" points="176.2312,742.826,175.0909,733.0434,173.6852,738.5228,168.2057,737.117,176.2312,742.826" style="stroke: #A80036; stroke-width: 1.0;"/><text fill="#000000" font-family="sans-serif" font-size="11" lengthAdjust="spacingAndGlyphs" textLength="29" x="161" y="713.2104">atom</text><!--link Write symbol&#8203; to AN_WRITE--><path d="M170.427,777.0562 C157.5599,791.1487 139.8814,810.5108 130.149,821.1701 " fill="none" id="Write symbol&amp;#8203;-AN_WRITE" style="stroke: #A80036; stroke-width: 1.0;"/><polygon fill="#A80036" points="126.7232,824.9223,135.7456,820.9731,130.0946,821.2299,129.8378,815.5789,126.7232,824.9223" style="stroke: #A80036; stroke-width: 1.0;"/><!--link AN_WRITE to #38--><path d="M123,833.0993 C123,840.4254 123,856.1603 123,868.5751 " fill="none" id="AN_WRITE-#38" style="stroke: #A80036; stroke-width: 1.0;"/><polygon fill="#A80036" points="123,873.6582,127,864.6582,123,868.6582,119,864.6582,123,873.6582" style="stroke: #A80036; stroke-width: 1.0;"/><text fill="#000000" font-family="sans-serif" font-size="11" lengthAdjust="spacingAndGlyphs" textLength="56" x="54.05" y="863.5717">ratio &gt; 1?</text><!--link #38 to Write ratio&#8203;--><path d="M118.8193,894.2618 C112.6365,906.4803 100.8401,929.7921 92.0587,947.1459 " fill="none" id="#38-Write ratio&amp;#8203;" style="stroke: #A80036; stroke-width: 1.0;"/><polygon fill="#A80036" points="89.669,951.8684,97.3016,945.644,91.9265,947.4071,90.1635,942.032,89.669,951.8684" style="stroke: #A80036; stroke-width: 1.0;"/><text fill="#000000" font-family="sans-serif" font-size="11" lengthAdjust="spacingAndGlyphs" textLength="20" x="107" y="929.2104">yes</text><!--link Write ratio&#8203; to end--><path d="M91.346,986.1593 C98.4035,997.8643 107.6089,1013.1319 114.0834,1023.87 " fill="none" id="Write ratio&amp;#8203;-end" style="stroke: #A80036; stroke-width: 1.0;"/><polygon fill="#A80036" points="116.6768,1028.1712,115.4552,1018.3984,114.0951,1023.8893,108.6042,1022.5292,116.6768,1028.1712" style="stroke: #A80036; stroke-width: 1.0;"/><!--link #38 to end--><path d="M126.5417,894.7947 C128.8952,901.1294 131.7707,909.9446 133,918 C137.5595,947.8763 136.2041,955.9481 133,986 C131.6753,998.4251 128.584,1012.2688 126.0147,1022.3942 " fill="none" id="#38-end" style="stroke: #A80036; stroke-width: 1.0;"/><polygon fill="#A80036" points="124.7309,1027.3229,130.8705,1019.6219,125.9913,1022.4844,123.1288,1017.6052,124.7309,1027.3229" style="stroke: #A80036; stroke-width: 1.0;"/><text fill="#000000" font-family="sans-serif" font-size="11" lengthAdjust="spacingAndGlyphs" textLength="14" x="137" y="973.2104">no</text><!--
@startuml
(*) - -> "Determine cation and anion"
- -> "Determine ratios"
note right: Confused as to what\nthis means? see note\nbelow.

if "cation type?" then
    - -> [molecule] "Write formula\nin parenthesis"
    - -> ===CAT_WRITE===
else
    - -> [atom] "Write symbol"
    - -> ===CAT_WRITE===
endif

if "ratio > 1?" then
    - -> [yes] "Write ratio"
    - -> ===CAT_WRITE_RATIO===
else
    - -> [no] ===CAT_WRITE_RATIO===
endif

if "anion type?" then
    - -> [molecule] "Write formula\nin parenthesis&#8203;"
    - -> ===AN_WRITE===
else
    - -> [atom] "Write symbol&#8203;"
    - -> ===AN_WRITE===
endif

if "ratio > 1?" then
    - -> [yes] "Write ratio&#8203;"
    - -> (*)
else
    - -> [no] (*)
endif

@enduml

PlantUML version 1.2019.08(Sat Jul 13 19:25:14 GMT 2019)
(GPL source distribution)
Java Runtime: OpenJDK Runtime Environment
JVM: OpenJDK 64-Bit Server VM
Java Version: 11.0.4+4-alpine-r1
Operating System: Linux
OS Version: 5.3.0-24-generic
Default Encoding: UTF-8
Language: en
Country: US
--></g></svg>