<?xml version="1.0" encoding="utf-8"?>
<svg viewBox="0.12 13.203 513.301 157.916" width="513.301" height="157.916" xmlns="http://www.w3.org/2000/svg">
  <rect x="0.12" y="16.712" width="154.407" height="154.407" style="stroke: rgb(0, 0, 0); fill: rgb(255, 255, 255);"/>
  <circle style="fill: rgb(0, 213, 255);" transform="matrix(1, 0, 0, 1.000005, -72.90618, -31.075504)" cx="88.036" cy="161.614" r="5.528"/>
  <circle style="fill: rgb(0, 255, 183);" transform="matrix(1, 0, 0, 1.000005, -56.198398, -15.653434)" cx="88.036" cy="161.614" r="5.528"/>
  <circle style="fill: rgb(255, 174, 0);" transform="matrix(1, 0, 0, 1.000005, -49.129798, -47.14099)" cx="88.036" cy="161.614" r="5.528"/>
  <circle style="fill: rgb(255, 0, 0);" transform="matrix(1, 0, 0, 1.000005, -68.407797, -58.707858)" cx="88.036" cy="161.614" r="5.528"/>
  <circle style="fill: rgb(179, 255, 0);" transform="matrix(1, 0, 0, 1.000005, -39.490806, -25.292491)" cx="88.036" cy="161.614" r="5.528"/>
  <circle style="fill: rgb(0, 21, 255);" transform="matrix(1, 0, 0, 1.000005, -74.191206, -3.443967)" cx="88.036" cy="161.614" r="5.528"/>
  <circle style="fill: rgb(51, 255, 0);" transform="matrix(1, 0, 0, 1.000005, -22.783203, -5.371782)" cx="88.036" cy="161.614" r="5.528"/>
  <path fill="rgb(255,0,0)" stroke-width="0" d="M 19.133 102.619 C 18.647 102.927 17.893 102.464 17.789 101.779 C 17.627 100.713 19.383 96.203 20.725 93.525 C 19.835 93.716 19.015 93.833 18.865 93.726 C 18.664 93.584 19.092 92.989 19.369 92.718 C 19.68 92.411 20.165 92.09 20.714 92.045 C 20.906 92.03 21.194 92.057 21.507 92.109 C 21.54 92.057 21.572 92.008 21.603 91.963 C 21.429 91.49 21.332 91.109 21.408 91.011 C 21.569 90.802 22.519 91.317 23.088 91.851 C 23.907 92.617 24.903 94.945 25.609 95.716 C 26.054 96.201 26.818 96.39 26.786 96.557 C 26.756 96.711 26 96.752 25.609 96.724 C 25.215 96.698 24.732 96.67 24.434 96.389 C 24.083 96.061 24.084 95.073 23.761 94.707 C 23.493 94.406 23.069 94.57 22.752 94.204 C 22.701 94.144 22.644 94.068 22.586 93.975 C 21.897 96.837 19.971 102.088 19.133 102.619 Z M 37.024 115.314 C 37.525 114.972 38.576 115.469 38.705 115.818 C 38.84 116.182 37.965 116.811 37.696 117.498 C 37.374 118.323 37.212 119.774 37.024 120.523 C 36.894 121.039 36.878 121.413 36.689 121.701 C 36.524 121.944 36.322 122.054 36.016 122.203 C 35.813 122.303 35.441 122.469 35.096 122.592 C 35.119 123.1 35.083 123.502 34.997 123.525 C 34.916 123.547 34.726 123.205 34.493 122.746 C 34.418 122.748 34.363 122.737 34.336 122.707 C 34.29 122.657 34.302 122.573 34.35 122.46 C 34.006 121.773 33.604 120.953 33.317 120.668 C 32.97 120.323 32.459 120.391 32.309 120.163 C 32.186 119.979 32.141 119.551 32.309 119.492 C 32.597 119.39 34.209 120.017 34.66 120.668 C 34.776 120.833 34.866 121.083 34.935 121.37 C 34.961 121.314 34.984 121.253 35.009 121.194 C 35.497 119.93 36.192 115.877 37.024 115.314 Z M 39.777 122.216 C 40.228 122.342 40.755 122.961 40.618 123.225 C 40.419 123.602 38.002 124.119 37.424 123.897 C 37.048 123.751 36.757 123.15 36.922 122.889 C 37.161 122.504 39.153 122.041 39.777 122.216 Z M 50.364 135.478 C 50.989 135.179 55.763 135.549 59.038 135.946 C 58.229 135.367 56.384 134.39 56.094 133.956 C 55.95 133.74 55.92 133.492 56.094 133.451 C 56.536 133.352 60.055 135.154 60.799 135.638 C 61.137 135.854 61.068 136.007 61.303 136.14 C 61.594 136.307 62.376 136.247 62.478 136.478 C 62.58 136.702 62.308 137.367 61.974 137.485 C 61.657 137.6 60.886 137.349 60.318 137.091 C 60.079 137.124 59.838 137.147 59.608 137.161 C 57.577 137.266 51.161 136.713 50.364 136.151 C 50.085 135.955 50.064 135.623 50.364 135.478 Z M 60.796 137.548 C 61.081 137.59 61.435 138.063 61.3 138.387 C 61.056 138.973 57.848 140.679 57.602 140.572 C 57.439 140.5 58.192 139.549 58.443 139.228 C 58.627 138.993 58.692 138.925 58.947 138.723 C 59.349 138.41 60.402 137.488 60.796 137.548 Z M 54.682 155.644 C 55.47 155.234 63.077 155.795 63.756 156.317 C 64 156.502 63.868 156.835 63.587 156.989 C 62.951 157.342 59.782 157.131 58.211 156.989 C 56.874 156.868 55.081 156.682 54.682 156.317 C 54.479 156.13 54.405 155.79 54.682 155.644 Z M 55.781 152.724 C 56.184 152.7 56.592 153.047 56.62 153.227 C 56.647 153.385 56.351 153.598 56.116 153.731 C 55.826 153.898 55.284 153.892 54.94 154.068 C 54.615 154.234 54.474 154.575 54.1 154.741 C 53.631 154.945 52.375 155.208 52.251 155.076 C 52.161 154.979 52.44 154.661 52.756 154.404 C 53.31 153.949 55.112 152.76 55.781 152.724 Z M 52.432 155.644 C 52.66 155.486 53.37 155.8 53.778 156.149 C 54.29 156.588 54.534 157.828 55.122 158.333 C 55.672 158.808 57.105 158.933 57.138 159.174 C 57.165 159.367 56.412 159.672 55.961 159.678 C 55.426 159.683 54.566 159.367 54.112 159.006 C 53.697 158.674 53.586 157.975 53.273 157.66 C 53.014 157.402 52.585 157.441 52.432 157.158 C 52.251 156.818 52.201 155.808 52.432 155.644 Z M 23.658 126.34 C 23.658 126.508 23.192 126.65 22.817 126.845 C 22.282 127.124 21.073 127.398 20.633 127.852 C 20.275 128.221 20.513 128.868 20.128 129.195 C 19.64 129.615 17.756 130.034 17.607 129.868 C 17.487 129.735 18.256 128.978 18.617 128.692 C 18.934 128.442 19.372 128.44 19.624 128.188 C 19.876 127.936 19.827 127.447 20.128 127.179 C 20.493 126.856 21.339 126.752 21.81 126.508 C 22.081 126.365 22.302 126.112 22.516 125.959 C 22.267 125.972 22.042 125.976 21.861 125.966 C 20.928 125.915 19.65 125.619 19.34 125.293 C 19.161 125.103 19.095 124.744 19.34 124.62 C 19.93 124.319 25.297 125.22 25.391 125.461 C 25.441 125.594 24.238 125.812 23.143 125.913 C 23.399 126.025 23.658 126.224 23.658 126.34 Z M 24.652 125.836 C 24.922 125.785 25.275 128.018 25.157 128.692 C 25.075 129.167 24.512 129.401 24.485 129.7 C 24.463 129.949 24.922 130.192 24.821 130.372 C 24.679 130.627 23.354 131.199 23.141 130.877 C 22.809 130.378 24.312 125.899 24.652 125.836 Z M 25.802 139.24 C 26.112 139.441 26.11 139.515 26.307 139.745 C 26.587 140.07 27.039 140.764 27.316 141.09 C 27.513 141.32 27.591 141.396 27.821 141.594 C 28.144 141.872 28.67 142.188 29.164 142.602 C 29.767 143.105 31.294 144.226 31.181 144.45 C 31.069 144.673 29.088 144.304 28.491 143.945 C 28.031 143.668 28.002 143.02 27.652 142.77 C 27.322 142.534 26.897 142.754 26.475 142.433 C 25.818 141.933 25.057 140.011 24.291 139.409 C 24.077 139.241 23.813 139.151 23.55 139.091 C 23.926 140.07 25.215 142.08 25.132 142.252 C 25.07 142.381 24.466 141.895 24.122 141.412 C 23.809 140.967 23.231 139.864 22.836 138.944 C 22.662 138.898 22.523 138.838 22.443 138.736 C 22.241 138.477 22.196 137.85 22.429 137.734 C 22.419 137.649 22.422 137.586 22.443 137.548 C 22.451 137.533 22.463 137.521 22.479 137.512 C 21.975 137.353 21.554 137.166 21.408 137.018 C 21.255 136.86 21.212 136.612 21.408 136.514 C 21.93 136.252 27.004 136.922 27.122 137.184 C 27.213 137.386 25.215 137.884 24.265 137.857 C 24.004 137.85 23.694 137.808 23.378 137.744 C 23.58 137.849 23.746 137.966 23.787 138.052 C 23.802 138.086 23.801 138.117 23.788 138.149 C 24.576 138.519 25.468 139.023 25.802 139.24 Z M 10.809 160.816 C 11.11 160.715 11.767 161.286 11.817 161.656 C 11.875 162.091 11.08 162.885 10.809 163.336 C 10.605 163.679 10.549 163.869 10.304 164.178 C 9.985 164.577 9.46 165.243 8.96 165.521 C 8.499 165.778 7.576 166.054 7.447 165.858 C 7.303 165.636 8.033 164.464 8.456 164.008 C 8.834 163.602 9.429 163.614 9.8 163.168 C 10.249 162.628 10.414 160.948 10.809 160.816 Z M 5.198 163.065 C 5.414 162.812 5.993 162.908 6.207 163.232 C 6.584 163.803 6.584 166.99 6.207 167.434 C 5.993 167.686 5.414 167.589 5.198 167.266 C 4.82 166.694 4.82 163.509 5.198 163.065 Z M 10.95 166.028 C 11.413 166.094 11.899 166.371 11.79 166.533 C 11.584 166.839 7.599 167.607 6.917 167.373 C 6.597 167.262 6.421 166.886 6.582 166.7 C 6.91 166.322 10.106 165.908 10.95 166.028 Z" style="fill: rgb(166, 209, 48); stroke-width: 2px; stroke: rgb(0, 0, 0);"/>
  <rect x="176.928" y="16.712" width="154.407" height="154.407" style="stroke: rgb(0, 0, 0); fill: rgb(255, 255, 255);"/>
  <circle style="fill: rgb(0, 213, 255);" transform="matrix(1, 0, 0, 1.000005, 164.869122, -71.085837)" cx="88.036" cy="161.614" r="5.528"/>
  <circle style="fill: rgb(0, 255, 183);" transform="matrix(1, 0, 0, 1.000005, 112.988111, -71.540862)" cx="88.036" cy="161.614" r="5.528"/>
  <circle style="fill: rgb(255, 174, 0);" transform="matrix(1, 0, 0, 1.000005, 101.639387, 1.125418)" cx="88.036" cy="161.614" r="5.528"/>
  <circle style="fill: rgb(255, 0, 0);" transform="matrix(1, 0, 0, 1.000005, 129.99246, -103.798834)" cx="88.036" cy="161.614" r="5.528"/>
  <circle style="fill: rgb(179, 255, 0);" transform="matrix(1, 0, 0, 1.000005, 192.568768, -31.643342)" cx="88.036" cy="161.614" r="5.528"/>
  <circle style="fill: rgb(0, 21, 255);" transform="matrix(1, 0, 0, 1.000005, 125.479185, -50.440219)" cx="88.036" cy="161.614" r="5.528"/>
  <circle style="fill: rgb(51, 255, 0);" transform="matrix(1, 0, 0, 1.000005, 98.772192, -9.817375)" cx="88.036" cy="161.614" r="5.528"/>
  <path fill="rgb(255,0,0)" stroke-width="0" d="M 223.17 101.777 C 223.444 101.735 223.72 102.017 223.796 102.388 C 223.882 102.452 223.928 102.509 223.915 102.553 C 223.907 102.58 223.873 102.61 223.812 102.64 C 223.809 102.697 223.801 102.753 223.788 102.81 C 223.493 104.043 219.35 108.486 217.803 109.622 C 216.891 110.289 215.799 110.657 215.531 110.446 C 215.3 110.265 215.586 109.23 215.945 108.795 C 216.351 108.303 217.471 108.145 218.009 107.764 C 218.456 107.445 218.55 107.277 219.041 106.731 C 219.592 106.119 220.761 104.411 221.746 103.17 C 220.799 103.343 219.881 103.454 219.787 103.378 C 219.663 103.275 220.503 102.833 220.818 102.553 C 221.12 102.283 221.245 101.796 221.645 101.727 C 221.885 101.685 222.381 101.796 222.851 101.955 C 222.976 101.854 223.085 101.79 223.17 101.777 Z M 224.01 102.775 C 224.205 102.446 225.005 102.482 225.249 102.775 C 225.6 103.197 225.158 104.991 225.249 105.87 C 225.324 106.593 225.798 107.604 225.662 107.728 C 225.554 107.826 225.066 107.531 224.835 107.108 C 224.421 106.354 223.685 103.317 224.01 102.775 Z M 223.265 43.764 C 223.436 43.646 223.626 43.632 223.798 43.698 C 224.032 43.453 226.065 43.714 226.678 44.33 C 227.352 45.009 227.603 47.723 227.504 47.839 C 227.43 47.924 227.04 46.742 226.678 46.396 C 226.34 46.073 225.857 46.124 225.44 45.777 C 225.166 45.547 224.7 45.085 224.332 44.652 C 224.324 44.653 224.317 44.655 224.309 44.657 C 224.237 46.841 221.159 56.003 220.169 56.559 C 219.682 56.832 218.988 56.022 218.929 55.115 C 218.842 53.744 220.587 48.845 221.957 45.935 C 221.461 46.138 220.715 46.319 220.628 46.187 C 220.517 46.02 221.357 45.107 221.661 44.744 C 221.889 44.469 222.098 44.306 222.279 44.126 C 222.435 43.969 222.465 43.734 222.692 43.712 C 222.795 43.702 222.983 43.744 223.2 43.814 C 223.223 43.794 223.244 43.776 223.265 43.764 Z M 213.118 84.546 C 213.05 84.648 212.928 84.763 212.761 84.888 C 212.922 85.987 212.992 87.581 212.96 88.47 C 212.926 89.396 212.936 90.501 212.547 90.739 C 212.199 90.952 211.128 90.551 210.896 90.121 C 210.637 89.642 211.118 88.658 211.309 87.85 C 211.489 87.081 212.043 86.012 212.133 85.293 C 209.302 86.928 201.696 89.599 201.146 89.501 C 200.912 89.459 201.435 88.972 201.767 88.676 C 202.254 88.24 203.444 87.599 204.037 87.231 C 204.467 86.964 204.471 86.934 205.069 86.612 C 206.026 86.095 209.029 84.178 210.977 83.312 C 209.489 82.594 207.497 80.948 207.086 80.324 C 206.857 79.977 206.796 79.573 207.086 79.499 C 207.823 79.307 214.784 82.114 214.929 82.8 C 214.992 83.105 214.133 83.462 213.215 83.609 C 213.321 83.915 213.31 84.264 213.118 84.546 Z M 262.988 86.261 C 263.568 86.207 264.499 86.596 264.433 86.881 C 264.331 87.316 261.288 88.245 260.305 88.739 C 259.647 89.071 259.482 89.362 258.86 89.564 C 258.059 89.824 255.837 90.092 255.763 89.977 C 255.703 89.881 256.995 89.359 257.622 89.152 C 258.233 88.951 259.06 88.997 259.48 88.739 C 259.809 88.538 259.739 88.214 260.1 87.913 C 260.672 87.432 262.205 86.336 262.988 86.261 Z M 259.782 82.038 C 260.113 81.802 261.574 82.064 262.051 82.451 C 262.482 82.8 262.205 83.652 262.671 84.102 C 263.272 84.684 265.685 84.958 265.767 85.342 C 265.83 85.633 264.938 86.219 264.322 86.167 C 263.432 86.094 261.606 84.395 260.813 83.896 C 260.331 83.595 259.954 83.584 259.782 83.278 C 259.606 82.967 259.523 82.225 259.782 82.038 Z M 265.657 86.485 C 265.985 86.477 266.387 87.673 266.275 88.342 C 266.136 89.163 264.839 91.012 264.417 91.025 C 264.102 91.035 263.733 90.17 263.799 89.58 C 263.89 88.758 265.236 86.494 265.657 86.485 Z M 283.707 128.813 C 284.436 128.364 291.134 128.882 291.139 129.019 C 291.141 129.157 284.434 130.048 283.707 129.638 C 283.407 129.469 283.407 128.999 283.707 128.813 Z M 290.265 124.59 C 290.681 124.481 291.746 125.122 292.122 125.622 C 292.483 126.1 292.231 127.025 292.535 127.48 C 292.811 127.89 293.848 128.153 293.775 128.305 C 293.682 128.491 291.686 128.672 291.298 128.305 C 290.95 127.977 291.581 126.859 291.298 126.448 C 291.019 126.044 289.79 126.164 289.647 125.827 C 289.516 125.523 289.915 124.68 290.265 124.59 Z M 292.535 128.813 C 293.02 128.751 293.958 130.037 293.775 130.671 C 293.521 131.538 289.874 133.377 289.647 133.353 C 289.524 133.341 289.979 132.955 290.265 132.529 C 290.772 131.769 291.903 128.891 292.535 128.813 Z M 175.967 152.534 C 176.454 152.046 185.108 152.748 185.874 153.358 C 186.16 153.587 186.025 153.99 185.667 154.185 C 184.803 154.651 179.672 154.693 178.03 154.185 C 176.954 153.851 175.679 152.82 175.967 152.534 Z M 175.664 150.85 C 175.863 150.907 176.471 151.727 176.284 152.088 C 176.152 152.343 175.429 152.689 174.69 152.955 C 175.07 153.116 175.429 153.276 175.664 153.358 C 176.12 153.519 176.37 153.478 176.697 153.771 C 177.142 154.171 178.209 155.61 177.935 155.836 C 177.561 156.144 173.62 154.932 172.981 154.185 C 172.578 153.712 172.657 152.738 172.981 152.534 C 173.048 152.49 173.149 152.479 173.273 152.49 C 173.379 152.335 173.497 152.191 173.601 152.088 C 173.982 151.714 174.905 151.504 175.253 151.263 C 175.472 151.11 175.524 150.809 175.664 150.85 Z M 183.524 158.44 C 184.054 158.888 184.303 159.88 184.761 160.297 C 185.143 160.641 185.679 160.498 186.002 160.916 C 186.442 161.486 187.062 163.662 186.826 163.806 C 186.589 163.95 185.168 162.14 184.555 161.742 C 184.147 161.476 183.802 161.541 183.524 161.328 C 183.254 161.124 183.1 160.822 182.904 160.504 C 182.684 160.145 182.596 159.573 182.285 159.264 C 182.047 159.027 181.495 158.959 181.213 158.809 C 181.107 159.38 180.789 160.137 180.794 160.709 C 180.797 161.487 181.334 162.883 181.205 162.979 C 181.101 163.059 180.618 162.476 180.379 161.949 C 180.018 161.141 179.413 158.914 179.555 158.234 C 179.633 157.854 179.921 157.639 180.174 157.613 C 180.435 157.588 180.954 157.809 181.157 158.138 C 181.18 158.089 181.209 158.042 181.239 157.996 C 181.238 157.994 181.238 157.994 181.238 157.994 C 180.89 157.828 180.772 157.245 180.824 156.963 C 180.874 156.705 181.107 156.374 181.445 156.344 C 181.993 156.294 184.167 157.307 184.127 157.583 C 184.108 157.718 183.516 157.883 182.864 157.983 C 183.108 158.124 183.344 158.286 183.524 158.44 Z" style="fill: rgb(166, 209, 48); stroke-width: 2px; stroke: rgb(0, 0, 0);"/>
  <rect x="352.597" y="16.712" width="154.407" height="154.407" style="stroke: rgb(0, 0, 0); fill: rgb(255, 255, 255);"/>
  <circle style="fill: rgb(0, 213, 255);" transform="matrix(1, 0, 0, 1.000005, 402.331902, -103.597898)" cx="88.036" cy="161.614" r="5.528"/>
  <circle style="fill: rgb(0, 255, 183);" transform="matrix(1, 0, 0, 1.000005, 340.138513, -92.804854)" cx="88.036" cy="161.614" r="5.528"/>
  <circle style="fill: rgb(255, 174, 0);" transform="matrix(1, 0, 0, 1.000005, 286.821528, -27.972671)" cx="88.036" cy="161.614" r="5.528"/>
  <circle style="fill: rgb(255, 0, 0);" transform="matrix(1, 0, 0, 1.000005, 321.386438, -136.903516)" cx="88.036" cy="161.614" r="5.528"/>
  <circle style="fill: rgb(179, 255, 0);" transform="matrix(1, 0, 0, 1.000005, 412.101585, -36.609042)" cx="88.036" cy="161.614" r="5.528"/>
  <circle style="fill: rgb(0, 21, 255);" transform="matrix(1, 0, 0, 1.000005, 335.282739, -77.859564)" cx="88.036" cy="161.614" r="5.528"/>
  <circle style="fill: rgb(51, 255, 0);" transform="matrix(1, 0, 0, 1.000005, 320.326807, -10.376947)" cx="88.036" cy="161.614" r="5.528"/>
  <path fill="rgb(255,0,0)" stroke-width="0" d="M 410.86 22.955 C 410.522 23.275 409.989 23.087 409.768 22.773 C 409.429 22.286 409.538 20.76 409.768 19.5 C 409.947 18.53 410.437 16.741 410.922 15.436 C 409.587 16.259 407.749 17.188 407.576 17.09 C 407.372 16.974 408.556 15.457 409.211 14.907 C 409.732 14.471 410.509 14.012 411.074 13.866 C 411.016 13.571 411.011 13.339 411.083 13.257 C 411.257 13.058 412.235 13.451 412.538 13.802 C 412.853 14.166 412.638 14.9 412.903 15.44 C 413.203 16.053 414.464 17.172 414.357 17.257 C 414.276 17.323 413.388 16.873 412.654 16.357 C 412.462 18.425 411.486 22.361 410.86 22.955 Z M 497.468 50.385 C 497.712 50.347 498.355 50.949 498.378 51.294 C 498.401 51.668 497.858 52.235 497.468 52.567 C 497.072 52.904 496.661 52.912 496.013 53.295 C 494.976 53.906 492.155 56.311 491.648 56.205 C 491.377 56.146 491.538 55.394 491.648 55.112 C 491.745 54.868 491.848 54.838 492.194 54.567 C 492.962 53.97 496.151 52.274 496.923 51.476 C 497.34 51.043 497.23 50.421 497.468 50.385 Z M 498.083 48.51 C 498.558 48.548 499.11 48.862 498.993 49.055 C 498.765 49.434 493.876 50.529 493.536 50.328 C 493.373 50.232 493.709 49.829 494.081 49.601 C 494.769 49.186 497.264 48.445 498.083 48.51 Z M 499.301 49.63 C 499.626 49.263 500.471 49.285 500.756 49.63 C 501.168 50.125 501.192 52.56 500.756 53.267 C 500.415 53.818 499.252 54.297 498.938 53.994 C 498.503 53.577 498.795 50.199 499.301 49.63 Z M 436.236 60.457 C 436.479 60.405 437.249 61.333 437.328 61.73 C 437.392 62.051 437.385 62.259 436.964 62.639 C 435.901 63.601 428.577 67.149 428.053 67.004 C 427.786 66.931 428.457 66.105 429.144 65.549 C 430.366 64.56 434.952 62.939 435.873 61.913 C 436.354 61.376 436.005 60.506 436.236 60.457 Z M 433.103 59.143 C 433.513 58.91 436.133 59.176 437.829 59.416 C 437.732 59.088 437.751 58.668 437.943 58.583 C 438.327 58.413 440.349 59.066 440.852 59.856 C 441.396 60.706 441.277 63.16 440.852 63.673 C 440.563 64.025 439.639 63.997 439.398 63.673 C 439.071 63.237 440.096 61.25 439.761 60.583 C 439.528 60.117 438.619 60.07 438.16 59.844 C 436.499 59.995 433.541 60.142 433.103 59.87 C 432.841 59.707 432.843 59.289 433.103 59.143 Z M 430.487 77.654 C 430.528 77.661 430.574 77.666 430.622 77.68 C 430.637 77.651 430.652 77.627 430.668 77.608 C 430.678 77.598 430.687 77.589 430.697 77.579 C 430.607 77.602 430.512 77.624 430.412 77.646 C 430.437 77.647 430.461 77.651 430.487 77.654 Z M 429.213 79.653 C 428.826 79.9 428.791 79.93 428.305 80.2 C 427.359 80.721 423.677 82.805 423.395 82.746 C 423.257 82.718 423.579 82.326 423.941 82.018 C 424.647 81.417 427.291 80.253 428.122 79.471 C 428.67 78.958 428.622 78.319 429.031 78.018 C 429.115 77.955 429.212 77.902 429.317 77.853 C 428.272 78.022 427.216 78.105 426.948 77.944 C 426.637 77.757 426.677 77.072 426.948 76.853 C 427.358 76.52 429.534 77.019 430.039 76.853 C 430.286 76.771 430.219 76.499 430.403 76.489 C 430.682 76.474 431.791 77.008 431.675 77.216 C 431.637 77.285 431.434 77.372 431.134 77.462 C 431.376 77.481 431.631 77.598 431.76 77.79 C 432.149 78.371 432.149 81.522 431.76 81.974 C 431.531 82.237 430.899 82.132 430.668 81.791 C 430.426 81.429 430.333 80.068 430.393 78.986 C 429.952 79.242 429.472 79.492 429.213 79.653 Z M 507.918 123.495 C 508.254 123.344 509.807 123.556 510.967 123.797 C 510.317 123.331 509.623 122.594 509.417 122.209 C 509.235 121.867 509.178 121.368 509.417 121.3 C 509.877 121.172 513.345 122.977 513.419 123.483 C 513.45 123.691 513.067 123.948 512.63 124.098 C 513.031 124.243 513.421 124.596 513.419 124.781 C 513.416 125.062 512.097 125.399 511.965 125.69 C 511.879 125.876 512.238 126.063 512.145 126.236 C 512.009 126.497 511.164 126.778 510.691 126.964 C 510.257 127.134 509.46 127.515 509.417 127.327 C 509.364 127.081 510.716 125.19 511.623 124.394 C 509.544 124.752 503.24 125.303 502.28 124.949 C 501.864 124.795 501.725 124.387 501.916 124.221 C 502.34 123.854 507.047 124.603 507.735 124.221 C 508.04 124.052 507.642 123.616 507.918 123.495 Z M 379.439 129.006 C 379.176 129.33 379.005 129.221 378.713 129.551 C 378.201 130.128 377.469 132.016 376.712 132.643 C 376.103 133.146 374.907 133.604 374.71 133.371 C 374.493 133.111 375.356 131.326 375.802 130.825 C 376.123 130.462 376.465 130.704 376.893 130.277 C 377.588 129.592 378.86 126.57 379.657 125.634 C 379.641 125.506 379.628 125.374 379.622 125.251 C 377.715 125.575 374.998 125.893 374.907 125.872 C 374.804 125.849 377.204 125.506 377.999 125.145 C 378.635 124.856 378.9 124.13 379.454 124.055 C 380.043 123.972 381.584 124.543 381.454 124.781 C 381.424 124.837 381.261 124.9 381.002 124.969 C 381.101 125.036 381.175 125.103 381.202 125.158 C 381.296 125.357 380.822 125.48 380.838 125.886 C 380.87 126.718 382.838 130.081 382.656 130.433 C 382.553 130.634 381.92 130.24 381.566 129.887 C 381.153 129.473 380.641 128.466 380.302 127.754 C 379.996 128.264 379.644 128.752 379.439 129.006 Z M 416.497 149.234 C 417.076 149.219 417.817 149.294 418.466 149.409 C 417.511 148.657 416.391 147.488 416.12 146.982 C 415.914 146.598 415.944 146.176 416.12 146.072 C 416.336 145.945 417.14 146.293 417.575 146.618 C 418.064 146.983 418.321 147.779 418.848 148.256 C 419.402 148.756 420.84 149.214 420.847 149.527 C 420.852 149.759 420.24 150.128 419.727 150.095 C 418.272 150.695 410.425 152.166 409.768 151.78 C 409.466 151.602 409.83 151.014 410.314 150.689 C 411.248 150.059 414.775 149.277 416.497 149.234 Z M 420.347 150.354 C 420.655 150.306 421.269 150.524 421.257 150.898 C 421.234 151.647 418.373 155.163 417.438 155.445 C 416.903 155.606 416.227 155.008 416.165 154.718 C 416.107 154.455 416.712 154.159 416.892 153.809 C 417.081 153.438 416.949 152.902 417.256 152.535 C 417.636 152.082 418.72 151.842 419.256 151.444 C 419.716 151.105 419.99 150.408 420.347 150.354 Z" style="fill: rgb(166, 209, 48); stroke-width: 2px; stroke: rgb(0, 0, 0);"/>
</svg>