<?xml version="1.0" encoding="utf-8"?>
<svg viewBox="0.12 16.712 506.884 154.407" width="506.884" height="154.407" xmlns="http://www.w3.org/2000/svg">
  <rect x="0.12" y="16.712" width="154.407" height="154.407" style="stroke: rgb(0, 0, 0); fill: rgb(255, 255, 255);"/>
  <rect x="176.928" y="16.712" width="154.407" height="154.407" style="stroke: rgb(0, 0, 0); fill: rgb(255, 255, 255);"/>
  <rect x="352.597" y="16.712" width="154.407" height="154.407" style="stroke: rgb(0, 0, 0); fill: rgb(255, 255, 255);"/>
  <circle style="fill: rgb(0, 21, 255);" transform="matrix(1, 0, 0, 1.000005, -119.256216, -210.125103)" cx="130.662" cy="239.867" r="8.204"/>
  <path stroke-width="0" d="M 35.666 219.22 C 36.221 219.195 38.089 220.339 37.852 220.677 C 37.47 221.226 29.232 221.299 29.106 221.164 C 28.999 221.049 33.654 220.672 34.693 220.192 C 35.283 219.918 35.239 219.239 35.666 219.22 Z" style="stroke-width: 2px; stroke: rgb(255, 255, 255); fill: rgb(255, 255, 255);" transform="matrix(1, 0, 0, 1, -21.959682, -189.896496)"/>
  <circle style="fill: rgb(0, 21, 255);" transform="matrix(1, 0, 0, 1.000005, -100.208159, -183.14021)" cx="130.662" cy="239.867" r="8.204"/>
  <path stroke-width="0" d="M 35.666 219.22 C 36.221 219.195 38.089 220.339 37.852 220.677 C 37.47 221.226 29.232 221.299 29.106 221.164 C 28.999 221.049 33.654 220.672 34.693 220.192 C 35.283 219.918 35.239 219.239 35.666 219.22 Z" style="stroke-width: 2px; stroke: rgb(255, 255, 255); fill: rgb(255, 255, 255);" transform="matrix(1, 0, 0, 1, -2.91162, -162.911618)"/>
  <circle style="fill: rgb(0, 21, 255);" transform="matrix(1, 0, 0, 1.000005, -114.494207, -132.345136)" cx="130.662" cy="239.867" r="8.204"/>
  <path stroke-width="0" d="M 35.666 219.22 C 36.221 219.195 38.089 220.339 37.852 220.677 C 37.47 221.226 29.232 221.299 29.106 221.164 C 28.999 221.049 33.654 220.672 34.693 220.192 C 35.283 219.918 35.239 219.239 35.666 219.22 Z" style="stroke-width: 2px; stroke: rgb(255, 255, 255); fill: rgb(255, 255, 255);" transform="matrix(1, 0, 0, 1, -17.197672, -112.116537)"/>
  <circle style="fill: rgb(0, 21, 255);" transform="matrix(1, 0, 0, 1.000005, -101.7955, -86.312117)" cx="130.662" cy="239.867" r="8.204"/>
  <path stroke-width="0" d="M 35.666 219.22 C 36.221 219.195 38.089 220.339 37.852 220.677 C 37.47 221.226 29.232 221.299 29.106 221.164 C 28.999 221.049 33.654 220.672 34.693 220.192 C 35.283 219.918 35.239 219.239 35.666 219.22 Z" style="stroke-width: 2px; stroke: rgb(255, 255, 255); fill: rgb(255, 255, 255);" transform="matrix(1, 0, 0, 1, -4.498964, -66.083518)"/>
  <circle style="fill: rgb(255, 0, 0);" transform="matrix(1, 0, 0, 1.000005, -1.793185, -209.331432)" cx="130.662" cy="239.867" r="8.204"/>
  <path stroke-width="0" d="M 73.216 217.452 C 73.647 216.893 74.729 217.027 75.161 217.696 C 75.587 218.353 75.8 220.774 75.803 223.182 C 78.056 223.423 79.955 223.718 80.131 223.919 C 80.371 224.191 78.752 224.766 77.46 224.891 C 77.043 224.93 76.454 224.943 75.768 224.933 C 75.69 226.702 75.489 228.203 75.161 228.629 C 74.729 229.187 73.647 229.052 73.216 228.386 C 72.902 227.9 72.702 226.455 72.619 224.762 C 70.497 224.581 68.46 224.272 67.983 223.919 C 67.62 223.65 67.59 223.152 67.983 222.946 C 68.413 222.721 70.359 222.752 72.574 222.9 C 72.569 220.451 72.784 218.012 73.216 217.452 Z" style="stroke-width: 2px; stroke: rgb(255, 255, 255); fill: rgb(255, 255, 255);" transform="matrix(1, 0, 0, 1, 55.141154, -192.186016)"/>
  <circle style="fill: rgb(255, 0, 0);" transform="matrix(1, 0, 0, 1.000005, 4.556177, -181.552868)" cx="130.662" cy="239.867" r="8.204"/>
  <path stroke-width="0" d="M 73.216 217.452 C 73.647 216.893 74.729 217.027 75.161 217.696 C 75.587 218.353 75.8 220.774 75.803 223.182 C 78.056 223.423 79.955 223.718 80.131 223.919 C 80.371 224.191 78.752 224.766 77.46 224.891 C 77.043 224.93 76.454 224.943 75.768 224.933 C 75.69 226.702 75.489 228.203 75.161 228.629 C 74.729 229.187 73.647 229.052 73.216 228.386 C 72.902 227.9 72.702 226.455 72.619 224.762 C 70.497 224.581 68.46 224.272 67.983 223.919 C 67.62 223.65 67.59 223.152 67.983 222.946 C 68.413 222.721 70.359 222.752 72.574 222.9 C 72.569 220.451 72.784 218.012 73.216 217.452 Z" style="stroke-width: 2px; stroke: rgb(255, 255, 255); fill: rgb(255, 255, 255);" transform="matrix(1, 0, 0, 1, 61.490519, -164.407452)"/>
  <circle style="fill: rgb(255, 0, 0);" transform="matrix(1, 0, 0, 1.000005, 11.699188, -148.218595)" cx="130.662" cy="239.867" r="8.204"/>
  <path stroke-width="0" d="M 73.216 217.452 C 73.647 216.893 74.729 217.027 75.161 217.696 C 75.587 218.353 75.8 220.774 75.803 223.182 C 78.056 223.423 79.955 223.718 80.131 223.919 C 80.371 224.191 78.752 224.766 77.46 224.891 C 77.043 224.93 76.454 224.943 75.768 224.933 C 75.69 226.702 75.489 228.203 75.161 228.629 C 74.729 229.187 73.647 229.052 73.216 228.386 C 72.902 227.9 72.702 226.455 72.619 224.762 C 70.497 224.581 68.46 224.272 67.983 223.919 C 67.62 223.65 67.59 223.152 67.983 222.946 C 68.413 222.721 70.359 222.752 72.574 222.9 C 72.569 220.451 72.784 218.012 73.216 217.452 Z" style="stroke-width: 2px; stroke: rgb(255, 255, 255); fill: rgb(255, 255, 255);" transform="matrix(1, 0, 0, 1, 68.633528, -131.073179)"/>
  <circle style="fill: rgb(255, 0, 0);" transform="matrix(1, 0, 0, 1.000005, -6.555202, -102.18556)" cx="130.662" cy="239.867" r="8.204"/>
  <path stroke-width="0" d="M 73.216 217.452 C 73.647 216.893 74.729 217.027 75.161 217.696 C 75.587 218.353 75.8 220.774 75.803 223.182 C 78.056 223.423 79.955 223.718 80.131 223.919 C 80.371 224.191 78.752 224.766 77.46 224.891 C 77.043 224.93 76.454 224.943 75.768 224.933 C 75.69 226.702 75.489 228.203 75.161 228.629 C 74.729 229.187 73.647 229.052 73.216 228.386 C 72.902 227.9 72.702 226.455 72.619 224.762 C 70.497 224.581 68.46 224.272 67.983 223.919 C 67.62 223.65 67.59 223.152 67.983 222.946 C 68.413 222.721 70.359 222.752 72.574 222.9 C 72.569 220.451 72.784 218.012 73.216 217.452 Z" style="stroke-width: 2px; stroke: rgb(255, 255, 255); fill: rgb(255, 255, 255);" transform="matrix(1, 0, 0, 1, 50.379138, -85.040144)"/>
  <circle style="fill: rgb(0, 21, 255);" transform="matrix(1, 0, 0, 1.000005, 82.335753, -208.537746)" cx="130.662" cy="239.867" r="8.204"/>
  <path stroke-width="0" d="M 35.666 219.22 C 36.221 219.195 38.089 220.339 37.852 220.677 C 37.47 221.226 29.232 221.299 29.106 221.164 C 28.999 221.049 33.654 220.672 34.693 220.192 C 35.283 219.918 35.239 219.239 35.666 219.22 Z" style="stroke-width: 2px; stroke: rgb(255, 255, 255); fill: rgb(255, 255, 255);" transform="matrix(1, 0, 0, 1, 179.63229, -188.309155)"/>
  <circle style="fill: rgb(0, 21, 255);" transform="matrix(1, 0, 0, 1.000005, 82.335753, -183.14021)" cx="130.662" cy="239.867" r="8.204"/>
  <path stroke-width="0" d="M 35.666 219.22 C 36.221 219.195 38.089 220.339 37.852 220.677 C 37.47 221.226 29.232 221.299 29.106 221.164 C 28.999 221.049 33.654 220.672 34.693 220.192 C 35.283 219.918 35.239 219.239 35.666 219.22 Z" style="stroke-width: 2px; stroke: rgb(255, 255, 255); fill: rgb(255, 255, 255);" transform="matrix(1, 0, 0, 1, 179.63229, -162.911618)"/>
  <circle style="fill: rgb(0, 21, 255);" transform="matrix(1, 0, 0, 1.000005, 94.240744, -142.662885)" cx="130.662" cy="239.867" r="8.204"/>
  <path stroke-width="0" d="M 35.666 219.22 C 36.221 219.195 38.089 220.339 37.852 220.677 C 37.47 221.226 29.232 221.299 29.106 221.164 C 28.999 221.049 33.654 220.672 34.693 220.192 C 35.283 219.918 35.239 219.239 35.666 219.22 Z" style="stroke-width: 2px; stroke: rgb(255, 255, 255); fill: rgb(255, 255, 255);" transform="matrix(1, 0, 0, 1, 191.537289, -122.434278)"/>
  <circle style="fill: rgb(0, 21, 255);" transform="matrix(1, 0, 0, 1.000005, 89.478728, -99.010885)" cx="130.662" cy="239.867" r="8.204"/>
  <path stroke-width="0" d="M 35.666 219.22 C 36.221 219.195 38.089 220.339 37.852 220.677 C 37.47 221.226 29.232 221.299 29.106 221.164 C 28.999 221.049 33.654 220.672 34.693 220.192 C 35.283 219.918 35.239 219.239 35.666 219.22 Z" style="stroke-width: 2px; stroke: rgb(255, 255, 255); fill: rgb(255, 255, 255);" transform="matrix(1, 0, 0, 1, 186.775265, -78.782286)"/>
  <circle style="fill: rgb(255, 0, 0);" transform="matrix(1, 0, 0, 1.000005, 152.972318, -212.506115)" cx="130.662" cy="239.867" r="8.204"/>
  <path stroke-width="0" d="M 73.216 217.452 C 73.647 216.893 74.729 217.027 75.161 217.696 C 75.587 218.353 75.8 220.774 75.803 223.182 C 78.056 223.423 79.955 223.718 80.131 223.919 C 80.371 224.191 78.752 224.766 77.46 224.891 C 77.043 224.93 76.454 224.943 75.768 224.933 C 75.69 226.702 75.489 228.203 75.161 228.629 C 74.729 229.187 73.647 229.052 73.216 228.386 C 72.902 227.9 72.702 226.455 72.619 224.762 C 70.497 224.581 68.46 224.272 67.983 223.919 C 67.62 223.65 67.59 223.152 67.983 222.946 C 68.413 222.721 70.359 222.752 72.574 222.9 C 72.569 220.451 72.784 218.012 73.216 217.452 Z" style="stroke-width: 2px; stroke: rgb(255, 255, 255); fill: rgb(255, 255, 255);" transform="matrix(1, 0, 0, 1, 209.906658, -195.360699)"/>
  <circle style="fill: rgb(255, 0, 0);" transform="matrix(1, 0, 0, 1.000005, 130.749555, -186.314907)" cx="130.662" cy="239.867" r="8.204"/>
  <path stroke-width="0" d="M 73.216 217.452 C 73.647 216.893 74.729 217.027 75.161 217.696 C 75.587 218.353 75.8 220.774 75.803 223.182 C 78.056 223.423 79.955 223.718 80.131 223.919 C 80.371 224.191 78.752 224.766 77.46 224.891 C 77.043 224.93 76.454 224.943 75.768 224.933 C 75.69 226.702 75.489 228.203 75.161 228.629 C 74.729 229.187 73.647 229.052 73.216 228.386 C 72.902 227.9 72.702 226.455 72.619 224.762 C 70.497 224.581 68.46 224.272 67.983 223.919 C 67.62 223.65 67.59 223.152 67.983 222.946 C 68.413 222.721 70.359 222.752 72.574 222.9 C 72.569 220.451 72.784 218.012 73.216 217.452 Z" style="stroke-width: 2px; stroke: rgb(255, 255, 255); fill: rgb(255, 255, 255);" transform="matrix(1, 0, 0, 1, 187.683895, -169.169491)"/>
  <circle style="fill: rgb(255, 0, 0);" transform="matrix(1, 0, 0, 1.000005, 152.178617, -156.949002)" cx="130.662" cy="239.867" r="8.204"/>
  <path stroke-width="0" d="M 73.216 217.452 C 73.647 216.893 74.729 217.027 75.161 217.696 C 75.587 218.353 75.8 220.774 75.803 223.182 C 78.056 223.423 79.955 223.718 80.131 223.919 C 80.371 224.191 78.752 224.766 77.46 224.891 C 77.043 224.93 76.454 224.943 75.768 224.933 C 75.69 226.702 75.489 228.203 75.161 228.629 C 74.729 229.187 73.647 229.052 73.216 228.386 C 72.902 227.9 72.702 226.455 72.619 224.762 C 70.497 224.581 68.46 224.272 67.983 223.919 C 67.62 223.65 67.59 223.152 67.983 222.946 C 68.413 222.721 70.359 222.752 72.574 222.9 C 72.569 220.451 72.784 218.012 73.216 217.452 Z" style="stroke-width: 2px; stroke: rgb(255, 255, 255); fill: rgb(255, 255, 255);" transform="matrix(1, 0, 0, 1, 209.112957, -139.803586)"/>
  <circle style="fill: rgb(255, 0, 0);" transform="matrix(1, 0, 0, 1.000005, 136.305234, -105.36025)" cx="130.662" cy="239.867" r="8.204"/>
  <path stroke-width="0" d="M 73.216 217.452 C 73.647 216.893 74.729 217.027 75.161 217.696 C 75.587 218.353 75.8 220.774 75.803 223.182 C 78.056 223.423 79.955 223.718 80.131 223.919 C 80.371 224.191 78.752 224.766 77.46 224.891 C 77.043 224.93 76.454 224.943 75.768 224.933 C 75.69 226.702 75.489 228.203 75.161 228.629 C 74.729 229.187 73.647 229.052 73.216 228.386 C 72.902 227.9 72.702 226.455 72.619 224.762 C 70.497 224.581 68.46 224.272 67.983 223.919 C 67.62 223.65 67.59 223.152 67.983 222.946 C 68.413 222.721 70.359 222.752 72.574 222.9 C 72.569 220.451 72.784 218.012 73.216 217.452 Z" style="stroke-width: 2px; stroke: rgb(255, 255, 255); fill: rgb(255, 255, 255);" transform="matrix(1, 0, 0, 1, 193.239575, -88.214834)"/>
  <circle style="fill: rgb(0, 21, 255);" transform="matrix(1, 0, 0, 1.000005, 280.753016, -88.693121)" cx="130.662" cy="239.867" r="8.204"/>
  <path stroke-width="0" d="M 35.666 219.22 C 36.221 219.195 38.089 220.339 37.852 220.677 C 37.47 221.226 29.232 221.299 29.106 221.164 C 28.999 221.049 33.654 220.672 34.693 220.192 C 35.283 219.918 35.239 219.239 35.666 219.22 Z" style="stroke-width: 2px; stroke: rgb(255, 255, 255); fill: rgb(255, 255, 255);" transform="matrix(1, 0, 0, 1, 378.049553, -68.464522)"/>
  <circle style="fill: rgb(0, 21, 255);" transform="matrix(1, 0, 0, 1.000005, 301.388361, -125.995748)" cx="130.662" cy="239.867" r="8.204"/>
  <path stroke-width="0" d="M 35.666 219.22 C 36.221 219.195 38.089 220.339 37.852 220.677 C 37.47 221.226 29.232 221.299 29.106 221.164 C 28.999 221.049 33.654 220.672 34.693 220.192 C 35.283 219.918 35.239 219.239 35.666 219.22 Z" style="stroke-width: 2px; stroke: rgb(255, 255, 255); fill: rgb(255, 255, 255);" transform="matrix(1, 0, 0, 1, 398.684899, -105.767149)"/>
  <circle style="fill: rgb(0, 21, 255);" transform="matrix(1, 0, 0, 1.000005, 279.165705, -171.235119)" cx="130.662" cy="239.867" r="8.204"/>
  <path stroke-width="0" d="M 35.666 219.22 C 36.221 219.195 38.089 220.339 37.852 220.677 C 37.47 221.226 29.232 221.299 29.106 221.164 C 28.999 221.049 33.654 220.672 34.693 220.192 C 35.283 219.918 35.239 219.239 35.666 219.22 Z" style="stroke-width: 2px; stroke: rgb(255, 255, 255); fill: rgb(255, 255, 255);" transform="matrix(1, 0, 0, 1, 376.462243, -151.006513)"/>
  <circle style="fill: rgb(0, 21, 255);" transform="matrix(1, 0, 0, 1.000005, 305.356806, -205.363064)" cx="130.662" cy="239.867" r="8.204"/>
  <path stroke-width="0" d="M 35.666 219.22 C 36.221 219.195 38.089 220.339 37.852 220.677 C 37.47 221.226 29.232 221.299 29.106 221.164 C 28.999 221.049 33.654 220.672 34.693 220.192 C 35.283 219.918 35.239 219.239 35.666 219.22 Z" style="stroke-width: 2px; stroke: rgb(255, 255, 255); fill: rgb(255, 255, 255);" transform="matrix(1, 0, 0, 1, 402.653343, -185.134457)"/>
  <circle style="fill: rgb(255, 0, 0);" transform="matrix(1, 0, 0, 1.000005, 316.468164, -200.601025)" cx="130.662" cy="239.867" r="8.204"/>
  <path stroke-width="0" d="M 73.216 217.452 C 73.647 216.893 74.729 217.027 75.161 217.696 C 75.587 218.353 75.8 220.774 75.803 223.182 C 78.056 223.423 79.955 223.718 80.131 223.919 C 80.371 224.191 78.752 224.766 77.46 224.891 C 77.043 224.93 76.454 224.943 75.768 224.933 C 75.69 226.702 75.489 228.203 75.161 228.629 C 74.729 229.187 73.647 229.052 73.216 228.386 C 72.902 227.9 72.702 226.455 72.619 224.762 C 70.497 224.581 68.46 224.272 67.983 223.919 C 67.62 223.65 67.59 223.152 67.983 222.946 C 68.413 222.721 70.359 222.752 72.574 222.9 C 72.569 220.451 72.784 218.012 73.216 217.452 Z" style="stroke-width: 2px; stroke: rgb(255, 255, 255); fill: rgb(255, 255, 255);" transform="matrix(1, 0, 0, 1, 373.40252, -183.455609)"/>
  <circle style="fill: rgb(255, 0, 0);" transform="matrix(1, 0, 0, 1.000005, 292.658045, -168.854108)" cx="130.662" cy="239.867" r="8.204"/>
  <path stroke-width="0" d="M 73.216 217.452 C 73.647 216.893 74.729 217.027 75.161 217.696 C 75.587 218.353 75.8 220.774 75.803 223.182 C 78.056 223.423 79.955 223.718 80.131 223.919 C 80.371 224.191 78.752 224.766 77.46 224.891 C 77.043 224.93 76.454 224.943 75.768 224.933 C 75.69 226.702 75.489 228.203 75.161 228.629 C 74.729 229.187 73.647 229.052 73.216 228.386 C 72.902 227.9 72.702 226.455 72.619 224.762 C 70.497 224.581 68.46 224.272 67.983 223.919 C 67.62 223.65 67.59 223.152 67.983 222.946 C 68.413 222.721 70.359 222.752 72.574 222.9 C 72.569 220.451 72.784 218.012 73.216 217.452 Z" style="stroke-width: 2px; stroke: rgb(255, 255, 255); fill: rgb(255, 255, 255);" transform="matrix(1, 0, 0, 1, 349.592401, -151.708692)"/>
  <circle style="fill: rgb(255, 0, 0);" transform="matrix(1, 0, 0, 1.000005, 309.325128, -135.519834)" cx="130.662" cy="239.867" r="8.204"/>
  <path stroke-width="0" d="M 73.216 217.452 C 73.647 216.893 74.729 217.027 75.161 217.696 C 75.587 218.353 75.8 220.774 75.803 223.182 C 78.056 223.423 79.955 223.718 80.131 223.919 C 80.371 224.191 78.752 224.766 77.46 224.891 C 77.043 224.93 76.454 224.943 75.768 224.933 C 75.69 226.702 75.489 228.203 75.161 228.629 C 74.729 229.187 73.647 229.052 73.216 228.386 C 72.902 227.9 72.702 226.455 72.619 224.762 C 70.497 224.581 68.46 224.272 67.983 223.919 C 67.62 223.65 67.59 223.152 67.983 222.946 C 68.413 222.721 70.359 222.752 72.574 222.9 C 72.569 220.451 72.784 218.012 73.216 217.452 Z" style="stroke-width: 2px; stroke: rgb(255, 255, 255); fill: rgb(255, 255, 255);" transform="matrix(1, 0, 0, 1, 366.259484, -118.374418)"/>
  <circle style="fill: rgb(255, 0, 0);" transform="matrix(1, 0, 0, 1.000005, 292.658045, -86.312117)" cx="130.662" cy="239.867" r="8.204"/>
  <path stroke-width="0" d="M 73.216 217.452 C 73.647 216.893 74.729 217.027 75.161 217.696 C 75.587 218.353 75.8 220.774 75.803 223.182 C 78.056 223.423 79.955 223.718 80.131 223.919 C 80.371 224.191 78.752 224.766 77.46 224.891 C 77.043 224.93 76.454 224.943 75.768 224.933 C 75.69 226.702 75.489 228.203 75.161 228.629 C 74.729 229.187 73.647 229.052 73.216 228.386 C 72.902 227.9 72.702 226.455 72.619 224.762 C 70.497 224.581 68.46 224.272 67.983 223.919 C 67.62 223.65 67.59 223.152 67.983 222.946 C 68.413 222.721 70.359 222.752 72.574 222.9 C 72.569 220.451 72.784 218.012 73.216 217.452 Z" style="stroke-width: 2px; stroke: rgb(255, 255, 255); fill: rgb(255, 255, 255);" transform="matrix(1, 0, 0, 1, 349.592401, -69.166701)"/>
  <path stroke-width="0" d="M 29.148 90.404 C 27.676 90.175 27.407 89.667 27.343 89.114 C 27.271 88.495 27.634 87.484 29.148 86.792 C 32.501 85.261 46.072 83.748 54.39 83.293 C 53.721 82.841 53.164 82.452 52.859 82.209 C 52.375 81.823 52.506 81.788 52.085 81.435 C 51.326 80.798 48.906 79.626 48.216 78.598 C 47.674 77.789 47.557 76.589 47.7 76.018 C 47.802 75.617 47.97 75.414 48.474 75.245 C 49.448 74.916 51.52 74.647 54.149 75.245 C 58.629 76.262 72.414 81.289 74.011 83.499 C 74.706 84.461 73.877 85.446 73.237 86.078 C 72.48 86.825 70.869 86.632 69.368 87.368 C 67.345 88.36 63.288 91.13 62.145 92.011 C 61.644 92.397 61.693 92.575 61.371 92.785 C 61.018 93.015 60.465 92.928 60.082 93.301 C 59.568 93.8 59.659 95.335 58.792 95.88 C 57.654 96.595 54.285 96.526 53.117 96.396 C 52.453 96.322 51.886 96.355 51.828 95.88 C 51.715 94.958 54.107 91.071 55.697 89.689 C 56.443 89.041 57.725 88.669 58.792 88.372 C 47.512 89.736 32.291 90.892 29.148 90.404 Z" style="stroke-width: 2px; fill: rgb(0, 21, 255); stroke: rgb(0, 0, 0);"/>
  <path stroke-width="0" d="M 98.515 65.72 C 102.364 65.217 107.191 65.222 108.059 66.236 C 108.63 66.904 107.9 68.512 106.769 69.332 C 104.929 70.666 95.514 71.207 95.678 71.653 C 95.862 72.155 105.559 71.944 110.896 71.911 C 116.612 71.876 126.481 71.087 128.952 71.395 C 129.838 71.506 130.085 71.527 130.242 71.911 C 130.447 72.411 130.765 73.817 129.468 74.491 C 125.837 76.378 95.39 73.545 94.13 75.78 C 93.214 77.405 107.072 81.769 108.059 83.519 C 108.486 84.276 107.91 84.918 107.285 85.324 C 106.364 85.922 104.658 86.436 102.126 85.84 C 97.279 84.699 80.439 76.635 78.654 73.975 C 77.936 72.906 78.363 72.252 79.427 71.395 C 81.796 69.488 93.353 66.396 98.515 65.72 Z" style="stroke-width: 2px; fill: rgb(255, 0, 0); stroke: rgb(0, 0, 0);"/>
</svg>