<?xml version="1.0" encoding="UTF-8" standalone="no"?>
<svg
   xmlns:cdml="http://www.freesoftware.fsf.org/bkchem/cdml"
   xmlns:dc="http://purl.org/dc/elements/1.1/"
   xmlns:cc="http://creativecommons.org/ns#"
   xmlns:rdf="http://www.w3.org/1999/02/22-rdf-syntax-ns#"
   xmlns:svg="http://www.w3.org/2000/svg"
   xmlns="http://www.w3.org/2000/svg"
   xmlns:sodipodi="http://sodipodi.sourceforge.net/DTD/sodipodi-0.dtd"
   xmlns:inkscape="http://www.inkscape.org/namespaces/inkscape"
   height="112.18333mm"
   version="1.0"
   viewBox="0 0 642 424"
   width="169.86250mm"
   id="svg2708"
   sodipodi:version="0.32"
   inkscape:version="0.46"
   sodipodi:docname="GHB metabolism path.svg"
   inkscape:output_extension="org.inkscape.output.svg.inkscape">
  <metadata
     id="metadata2989">
    <rdf:RDF>
      <cc:Work
         rdf:about="">
        <dc:format>image/svg+xml</dc:format>
        <dc:type
           rdf:resource="http://purl.org/dc/dcmitype/StillImage" />
      </cc:Work>
    </rdf:RDF>
  </metadata>
  <defs
     id="defs2987">
    <inkscape:perspective
       sodipodi:type="inkscape:persp3d"
       inkscape:vp_x="0 : 198.74998 : 1"
       inkscape:vp_y="0 : 1000 : 0"
       inkscape:vp_z="601.875 : 198.74998 : 1"
       inkscape:persp3d-origin="300.9375 : 132.49999 : 1"
       id="perspective2991" />
  </defs>
  <sodipodi:namedview
     inkscape:window-height="844"
     inkscape:window-width="1440"
     inkscape:pageshadow="2"
     inkscape:pageopacity="0.0"
     guidetolerance="10.0"
     gridtolerance="10.0"
     objecttolerance="10.0"
     borderopacity="1.0"
     bordercolor="#666666"
     pagecolor="#ffffff"
     id="base"
     showgrid="false"
     inkscape:zoom="4.5468304"
     inkscape:cx="425.24541"
     inkscape:cy="209.83303"
     inkscape:window-x="-4"
     inkscape:window-y="-4"
     inkscape:current-layer="svg2708" />
  <g
     style="font-size:15px;stroke:#000000;stroke-width:1;stroke-linecap:round;font-family:Helvetica"
     id="g2712"
     transform="translate(-42,3)">
    <line
       id="line2714"
       y2="50"
       y1="36.77"
       x2="125.82"
       x1="102.91" />
  </g>
  <g
     style="font-size:15px;stroke:#000000;stroke-width:1;stroke-linecap:round;font-family:Helvetica"
     id="g2716"
     transform="translate(-42,3)">
    <line
       id="line2718"
       y2="41.130001"
       y1="49.990002"
       x2="187"
       x1="171.64999" />
  </g>
  <g
     style="font-size:15px;stroke:#000000;stroke-width:1;stroke-linecap:round;font-family:Helvetica"
     id="g2720"
     transform="translate(-42,3)">
    <line
       id="line2722"
       y2="36.77"
       y1="45.380001"
       x2="102.91"
       x1="88" />
  </g>
  <g
     style="font-size:15px;stroke:#000000;stroke-width:1;stroke-linecap:round;font-family:Helvetica"
     id="g2724"
     transform="translate(-42,3)">
    <line
       id="line2726"
       y2="36.77"
       y1="50"
       x2="148.73"
       x1="125.82" />
  </g>
  <g
     style="font-size:15px;stroke:#000000;stroke-width:1;stroke-linecap:round;font-family:Helvetica"
     id="g2728"
     transform="translate(-42,3)">
    <line
       id="line2730"
       y2="49.990002"
       y1="36.77"
       x2="171.64999"
       x1="148.73" />
  </g>
  <path
     style="font-size:15px;fill:#000000;stroke-linecap:round;font-family:helvetica"
     d="M 21.501171,56 L 21.501171,45.262695 L 22.92207,45.262695 L 22.92207,49.671875 L 28.503124,49.671875 L 28.503124,45.262695 L 29.924023,45.262695 L 29.924023,56 L 28.503124,56 L 28.503124,50.938965 L 22.92207,50.938965 L 22.92207,56 L 21.501171,56 z M 31.864941,50.770508 C 31.86494,48.988288 32.343455,47.593026 33.300488,46.584717 C 34.257516,45.576426 35.492866,45.072277 37.006542,45.072266 C 37.997746,45.072277 38.8913,45.309093 39.687206,45.782715 C 40.483095,46.256357 41.089784,46.916757 41.507275,47.763916 C 41.924744,48.611091 42.133484,49.571784 42.133495,50.645996 C 42.133484,51.734868 41.913758,52.708988 41.474316,53.568359 C 41.034853,54.427736 40.412295,55.07837 39.60664,55.520264 C 38.800968,55.962158 37.931828,56.183105 36.999218,56.183105 C 35.988471,56.183105 35.085152,55.938965 34.289257,55.450684 C 33.493356,54.962403 32.89033,54.2959 32.480175,53.451172 C 32.070018,52.606449 31.86494,51.712895 31.864941,50.770508 L 31.864941,50.770508 z M 33.329784,50.79248 C 33.329782,52.08643 33.677682,53.105716 34.373486,53.850342 C 35.069282,54.594972 35.942084,54.967286 36.991894,54.967285 C 38.061223,54.967286 38.941349,54.59131 39.632275,53.839355 C 40.323183,53.087405 40.668642,52.020512 40.668652,50.638672 C 40.668642,49.764655 40.520937,49.001716 40.225536,48.349854 C 39.930117,47.698006 39.497989,47.192636 38.92915,46.83374 C 38.360295,46.474863 37.721868,46.29542 37.013866,46.29541 C 36.008002,46.29542 35.142525,46.640878 34.417431,47.331787 C 33.692331,48.022713 33.329782,49.176276 33.329784,50.79248 L 33.329784,50.79248 z"
     id="text2732" />
  <path
     style="font-size:15px;fill:#000000;stroke-linecap:round;font-family:helvetica"
     d="M 147.0251,37.530506 C 147.0251,35.748287 147.50362,34.353024 148.46065,33.344715 C 149.41768,32.336425 150.65303,31.832275 152.1667,31.832264 C 153.15791,31.832275 154.05146,32.069091 154.84737,32.542713 C 155.64326,33.016356 156.24994,33.676755 156.66743,34.523914 C 157.0849,35.37109 157.29364,36.331782 157.29366,37.405994 C 157.29364,38.494866 157.07392,39.468986 156.63448,40.328358 C 156.19501,41.187734 155.57245,41.838368 154.7668,42.280262 C 153.96113,42.722157 153.09199,42.943104 152.15938,42.943104 C 151.14863,42.943104 150.24531,42.698963 149.44942,42.210682 C 148.65352,41.722402 148.05049,41.055898 147.64034,40.21117 C 147.23018,39.366447 147.0251,38.472893 147.0251,37.530506 L 147.0251,37.530506 z M 148.48994,37.552479 C 148.48994,38.846428 148.83784,39.865714 149.53365,40.61034 C 150.22944,41.35497 151.10224,41.727285 152.15205,41.727283 C 153.22138,41.727285 154.10151,41.351308 154.79243,40.599354 C 155.48334,39.847404 155.8288,38.78051 155.82881,37.39867 C 155.8288,36.524653 155.6811,35.761714 155.3857,35.109852 C 155.09028,34.458005 154.65815,33.952634 154.08931,33.593739 C 153.52045,33.234861 152.88203,33.055418 152.17403,33.055408 C 151.16816,33.055418 150.30268,33.400877 149.57759,34.091785 C 148.85249,34.782711 148.48994,35.936275 148.48994,37.552479 L 148.48994,37.552479 z M 159.16133,42.759998 L 159.16133,32.022694 L 160.58223,32.022694 L 160.58223,36.431873 L 166.16328,36.431873 L 166.16328,32.022694 L 167.58418,32.022694 L 167.58418,42.759998 L 166.16328,42.759998 L 166.16328,37.698963 L 160.58223,37.698963 L 160.58223,42.759998 L 159.16133,42.759998 z"
     id="text2734" />
  <polyline
     style="font-size:15px;fill:none;stroke:#000000;stroke-width:1;stroke-linecap:round;font-family:Helvetica"
     id="polyline2736"
     points="136.00,91.00 136.00,143.47"
     transform="translate(-42,3)" />
  <polygon
     style="font-size:15px;fill:#000000;fill-rule:evenodd;stroke:#000000;stroke-width:1;stroke-linecap:round;font-family:Helvetica"
     id="polygon2738"
     points="136,151.47 139,141.47 136,143.47 133,141.47 136,151.47 "
     transform="translate(-42,3)" />
  <g
     style="font-size:15px;stroke:#000000;stroke-width:1;stroke-linecap:round;font-family:Helvetica"
     id="g2740"
     transform="translate(-42,3)">
    <line
       id="line2742"
       y2="190.48"
       y1="177.25"
       x2="128.33"
       x1="105.42" />
  </g>
  <g
     style="font-size:15px;stroke:#000000;stroke-width:1;stroke-linecap:round;font-family:Helvetica"
     id="g2750"
     transform="translate(-42,3)">
    <line
       id="line2752"
       y2="177.25"
       y1="186.17"
       x2="105.42"
       x1="90" />
  </g>
  <g
     style="font-size:15px;stroke:#000000;stroke-width:1;stroke-linecap:round;font-family:Helvetica"
     id="g2754"
     transform="translate(-42,3)">
    <line
       id="line2756"
       y2="177.25"
       y1="190.48"
       x2="151.23"
       x1="128.33" />
  </g>
  <g
     style="font-size:15px;stroke:#000000;stroke-width:1;stroke-linecap:round;font-family:Helvetica"
     id="g2758"
     transform="translate(-42,3)">
    <line
       id="line2760"
       y2="190.48"
       y1="177.25"
       x2="174.14"
       x1="151.23" />
  </g>
  <path
     style="font-size:15px;fill:#000000;stroke-linecap:round;font-family:helvetica"
     d="M 23.501175,196.52 L 23.501175,185.7827 L 24.922073,185.7827 L 24.922073,190.19188 L 30.503128,190.19188 L 30.503128,185.7827 L 31.924026,185.7827 L 31.924026,196.52 L 30.503128,196.52 L 30.503128,191.45897 L 24.922073,191.45897 L 24.922073,196.52 L 23.501175,196.52 z M 33.864944,191.29051 C 33.864944,189.50829 34.343459,188.11303 35.300491,187.10472 C 36.257519,186.09643 37.49287,185.59228 39.006546,185.59227 C 39.99775,185.59228 40.891304,185.8291 41.68721,186.30272 C 42.483099,186.77636 43.089788,187.43676 43.507278,188.28392 C 43.924748,189.1311 44.133488,190.09179 44.133499,191.166 C 44.133488,192.25487 43.913762,193.22899 43.474319,194.08836 C 43.034856,194.94774 42.412298,195.59837 41.606644,196.04027 C 40.800972,196.48216 39.931832,196.70311 38.999222,196.70311 C 37.988475,196.70311 37.085155,196.45897 36.289261,195.97069 C 35.49336,195.48241 34.890333,194.8159 34.480179,193.97118 C 34.070022,193.12645 33.864944,192.2329 33.864944,191.29051 L 33.864944,191.29051 z M 35.329788,191.31248 C 35.329786,192.60643 35.677686,193.62572 36.373489,194.37035 C 37.069286,195.11498 37.942088,195.48729 38.991898,195.48729 C 40.061227,195.48729 40.941353,195.11131 41.632278,194.35936 C 42.323187,193.60741 42.668646,192.54052 42.668655,191.15868 C 42.668646,190.28466 42.520941,189.52172 42.22554,188.86986 C 41.930121,188.21801 41.497993,187.71264 40.929153,187.35374 C 40.360299,186.99487 39.721871,186.81542 39.01387,186.81541 C 38.008006,186.81542 37.142528,187.16088 36.417435,187.85179 C 35.692334,188.54272 35.329786,189.69628 35.329788,191.31248 L 35.329788,191.31248 z"
     id="text2762" />
  <path
     style="font-size:15px;fill:#000000;stroke-linecap:round;font-family:helvetica"
     d="M 149.0251,178.02051 C 149.0251,176.23829 149.50362,174.84303 150.46065,173.83472 C 151.41768,172.82643 152.65303,172.32228 154.1667,172.32227 C 155.15791,172.32228 156.05146,172.55909 156.84737,173.03271 C 157.64326,173.50636 158.24994,174.16676 158.66743,175.01392 C 159.0849,175.86109 159.29364,176.82178 159.29366,177.896 C 159.29364,178.98487 159.07392,179.95899 158.63448,180.81836 C 158.19501,181.67774 157.57245,182.32837 156.7668,182.77026 C 155.96113,183.21216 155.09199,183.43311 154.15938,183.43311 C 153.14863,183.43311 152.24531,183.18896 151.44942,182.70068 C 150.65352,182.2124 150.05049,181.5459 149.64034,180.70117 C 149.23018,179.85645 149.0251,178.96289 149.0251,178.02051 L 149.0251,178.02051 z M 150.48994,178.04248 C 150.48994,179.33643 150.83784,180.35572 151.53365,181.10034 C 152.22944,181.84497 153.10224,182.21729 154.15205,182.21729 C 155.22138,182.21729 156.10151,181.84131 156.79243,181.08936 C 157.48334,180.33741 157.8288,179.27051 157.82881,177.88867 C 157.8288,177.01465 157.6811,176.25172 157.3857,175.59985 C 157.09028,174.94801 156.65815,174.44264 156.08931,174.08374 C 155.52045,173.72486 154.88203,173.54542 154.17403,173.54541 C 153.16816,173.54542 152.30268,173.89088 151.57759,174.58179 C 150.85249,175.27271 150.48994,176.42628 150.48994,178.04248 L 150.48994,178.04248 z"
     id="text2764" />
  <polyline
     style="font-size:15px;fill:none;stroke:#000000;stroke-width:1;stroke-linecap:round;font-family:Helvetica"
     id="polyline2766"
     points="220.00,189.00 272.47,189.00"
     transform="translate(-42,3)" />
  <polygon
     style="font-size:15px;fill:#000000;fill-rule:evenodd;stroke:#000000;stroke-width:1;stroke-linecap:round;font-family:Helvetica"
     id="polygon2768"
     points="280.47,189 270.47,186 272.47,189 270.47,192 280.47,189 "
     transform="translate(-42,3)" />
  <g
     style="font-size:15px;stroke:#000000;stroke-width:1;stroke-linecap:round;font-family:Helvetica"
     id="g2770"
     transform="translate(-42,3)">
    <line
       id="line2772"
       y2="180.16"
       y1="188.75"
       x2="421"
       x1="406.14001" />
    <line
       id="line2774"
       y2="183.63"
       y1="192.21001"
       x2="423"
       x1="408.14001" />
  </g>
  <g
     style="font-size:15px;stroke:#000000;stroke-width:1;stroke-linecap:round;font-family:Helvetica"
     id="g2776"
     transform="translate(-42,3)">
    <line
       id="line2778"
       y2="207"
       y1="190.48"
       x2="407.14001"
       x1="407.14001" />
  </g>
  <g
     style="font-size:15px;stroke:#000000;stroke-width:1;stroke-linecap:round;font-family:Helvetica"
     id="g2780"
     transform="translate(-42,3)">
    <line
       id="line2782"
       y2="190.48"
       y1="177.25"
       x2="361.32999"
       x1="338.42001" />
  </g>
  <g
     style="font-size:15px;stroke:#000000;stroke-width:1;stroke-linecap:round;font-family:Helvetica"
     id="g2784"
     transform="translate(-42,3)">
    <line
       id="line2786"
       y2="177.25"
       y1="185.88"
       x2="338.42001"
       x1="323.5" />
  </g>
  <g
     style="font-size:15px;stroke:#000000;stroke-width:1;stroke-linecap:round;font-family:Helvetica"
     id="g2788"
     transform="translate(-42,3)">
    <line
       id="line2790"
       y2="177.25"
       y1="190.48"
       x2="384.23001"
       x1="361.32999" />
  </g>
  <g
     style="font-size:15px;stroke:#000000;stroke-width:1;stroke-linecap:round;font-family:Helvetica"
     id="g2792"
     transform="translate(-42,3)">
    <line
       id="line2794"
       y2="190.48"
       y1="177.25"
       x2="407.14001"
       x1="384.23001" />
  </g>
  <path
     style="font-size:15px;fill:#000000;stroke-linecap:round;font-family:helvetica"
     d="M 257.50116,196.52 L 257.50116,185.7827 L 258.92206,185.7827 L 258.92206,190.19188 L 264.50311,190.19188 L 264.50311,185.7827 L 265.92401,185.7827 L 265.92401,196.52 L 264.50311,196.52 L 264.50311,191.45897 L 258.92206,191.45897 L 258.92206,196.52 L 257.50116,196.52 z M 267.86493,191.29051 C 267.86493,189.50829 268.34344,188.11303 269.30048,187.10472 C 270.2575,186.09643 271.49285,185.59228 273.00653,185.59227 C 273.99773,185.59228 274.89129,185.8291 275.68719,186.30272 C 276.48308,186.77636 277.08977,187.43676 277.50726,188.28392 C 277.92473,189.1311 278.13347,190.09179 278.13348,191.166 C 278.13347,192.25487 277.91375,193.22899 277.4743,194.08836 C 277.03484,194.94774 276.41228,195.59837 275.60663,196.04027 C 274.80096,196.48216 273.93182,196.70311 272.99921,196.70311 C 271.98846,196.70311 271.08514,196.45897 270.28925,195.97069 C 269.49334,195.48241 268.89032,194.8159 268.48016,193.97118 C 268.07001,193.12645 267.86493,192.2329 267.86493,191.29051 L 267.86493,191.29051 z M 269.32977,191.31248 C 269.32977,192.60643 269.67767,193.62572 270.37347,194.37035 C 271.06927,195.11498 271.94207,195.48729 272.99188,195.48729 C 274.06121,195.48729 274.94134,195.11131 275.63226,194.35936 C 276.32317,193.60741 276.66863,192.54052 276.66864,191.15868 C 276.66863,190.28466 276.52093,189.52172 276.22552,188.86986 C 275.93011,188.21801 275.49798,187.71264 274.92914,187.35374 C 274.36028,186.99487 273.72186,186.81542 273.01385,186.81541 C 272.00799,186.81542 271.14251,187.16088 270.41742,187.85179 C 269.69232,188.54272 269.32977,189.69628 269.32977,191.31248 L 269.32977,191.31248 z"
     id="text2796" />
  <path
     style="font-size:15px;fill:#000000;stroke-linecap:round;font-family:helvetica"
     d="M 382.02509,180.01112 C 382.02508,178.2289 382.5036,176.83364 383.46063,175.82533 C 384.41766,174.81704 385.65301,174.31289 387.16669,174.31288 C 388.15789,174.31289 389.05144,174.5497 389.84735,175.02332 C 390.64324,175.49697 391.24993,176.15737 391.66742,177.00453 C 392.08489,177.8517 392.29363,178.81239 392.29364,179.88661 C 392.29363,180.97548 392.0739,181.9496 391.63446,182.80897 C 391.195,183.66835 390.57244,184.31898 389.76678,184.76087 C 388.96111,185.20277 388.09197,185.42372 387.15936,185.42372 C 386.14862,185.42372 385.2453,185.17957 384.4494,184.69129 C 383.6535,184.20301 383.05047,183.53651 382.64032,182.69178 C 382.23016,181.84706 382.02508,180.9535 382.02509,180.01112 L 382.02509,180.01112 z M 383.48993,180.03309 C 383.48993,181.32704 383.83783,182.34633 384.53363,183.09095 C 385.22943,183.83558 386.10223,184.2079 387.15204,184.2079 C 388.22137,184.2079 389.10149,183.83192 389.79242,183.07997 C 390.48333,182.32802 390.82879,181.26112 390.8288,179.87928 C 390.82879,179.00526 390.68108,178.24233 390.38568,177.59046 C 390.09026,176.93862 389.65813,176.43325 389.08929,176.07435 C 388.52044,175.71547 387.88201,175.53603 387.17401,175.53602 C 386.16815,175.53603 385.30267,175.88149 384.57758,176.5724 C 383.85248,177.26332 383.48993,178.41689 383.48993,180.03309 L 383.48993,180.03309 z"
     id="text2798" />
  <path
     style="font-size:15px;fill:#000000;stroke-linecap:round;font-family:helvetica"
     d="M 359.02509,217.71051 C 359.02508,215.92829 359.5036,214.53303 360.46063,213.52472 C 361.41766,212.51643 362.65301,212.01228 364.16669,212.01227 C 365.15789,212.01228 366.05144,212.2491 366.84735,212.72272 C 367.64324,213.19636 368.24993,213.85676 368.66742,214.70392 C 369.08489,215.55109 369.29363,216.51179 369.29364,217.586 C 369.29363,218.67487 369.0739,219.64899 368.63446,220.50836 C 368.195,221.36774 367.57244,222.01837 366.76678,222.46027 C 365.96111,222.90216 365.09197,223.12311 364.15936,223.12311 C 363.14862,223.12311 362.2453,222.87897 361.4494,222.39069 C 360.6535,221.90241 360.05047,221.2359 359.64032,220.39117 C 359.23016,219.54645 359.02508,218.6529 359.02509,217.71051 L 359.02509,217.71051 z M 360.48993,217.73248 C 360.48993,219.02643 360.83783,220.04572 361.53363,220.79034 C 362.22943,221.53497 363.10223,221.90729 364.15204,221.90729 C 365.22137,221.90729 366.10149,221.53131 366.79242,220.77936 C 367.48333,220.02741 367.82879,218.96051 367.8288,217.57867 C 367.82879,216.70466 367.68108,215.94172 367.38568,215.28986 C 367.09026,214.63801 366.65813,214.13264 366.08929,213.77374 C 365.52044,213.41487 364.88201,213.23542 364.17401,213.23541 C 363.16815,213.23542 362.30267,213.58088 361.57758,214.27179 C 360.85248,214.96272 360.48993,216.11628 360.48993,217.73248 L 360.48993,217.73248 z M 371.16132,222.94 L 371.16132,212.2027 L 372.58221,212.2027 L 372.58221,216.61188 L 378.16327,216.61188 L 378.16327,212.2027 L 379.58417,212.2027 L 379.58417,222.94 L 378.16327,222.94 L 378.16327,217.87897 L 372.58221,217.87897 L 372.58221,222.94 L 371.16132,222.94 z"
     id="text2800" />
  <polyline
     style="font-size:15px;fill:none;stroke:#000000;stroke-width:1;stroke-linecap:round;font-family:Helvetica"
     id="polyline2802"
     points="375.00,96.00 375.00,148.47"
     transform="translate(-42,3)" />
  <polygon
     style="font-size:15px;fill:#000000;fill-rule:evenodd;stroke:#000000;stroke-width:1;stroke-linecap:round;font-family:Helvetica"
     id="polygon2804"
     points="375,156.47 378,146.47 375,148.47 372,146.47 375,156.47 "
     transform="translate(-42,3)" />
  <g
     style="font-size:15px;stroke:#000000;stroke-width:1;stroke-linecap:round;font-family:Helvetica"
     id="g2806"
     transform="translate(-42,3)">
    <line
       id="line2808"
       y2="32.560001"
       y1="57.73"
       x2="356.59"
       x1="364.76001" />
  </g>
  <g
     style="font-size:15px;stroke:#000000;stroke-width:1;stroke-linecap:round;font-family:Helvetica"
     id="g2810"
     transform="translate(-42,3)">
    <line
       id="line2812"
       y2="57.73"
       y1="32.560001"
       x2="391.23999"
       x1="399.41" />
  </g>
  <g
     style="font-size:15px;stroke:#000000;stroke-width:1;stroke-linecap:round;font-family:Helvetica"
     id="g2814"
     transform="translate(-42,3)">
    <line
       id="line2816"
       y2="57.73"
       y1="57.73"
       x2="364.76001"
       x1="391.23999" />
  </g>
  <g
     style="font-size:15px;stroke:#000000;stroke-width:1;stroke-linecap:round;font-family:Helvetica"
     id="g2818"
     transform="translate(-42,3)">
    <line
       id="line2820"
       y2="22.809999"
       y1="32.560001"
       x2="370"
       x1="356.59" />
  </g>
  <g
     style="font-size:15px;stroke:#000000;stroke-width:1;stroke-linecap:round;font-family:Helvetica"
     id="g2822"
     transform="translate(-42,3)">
    <line
       id="line2824"
       y2="32.560001"
       y1="22.809999"
       x2="399.41"
       x1="386" />
  </g>
  <g
     style="font-size:15px;stroke:#000000;stroke-width:1;stroke-linecap:round;font-family:Helvetica"
     id="g2826"
     transform="translate(-42,3)">
    <line
       id="line2828"
       y2="24.940001"
       y1="30.66"
       x2="416.38"
       x1="398.79001" />
    <line
       id="line2830"
       y2="28.74"
       y1="34.459999"
       x2="417.62"
       x1="400.03" />
  </g>
  <path
     style="font-size:15px;fill:#000000;stroke-linecap:round;font-family:helvetica"
     d="M 330.02509,17.770508 C 330.02508,15.988288 330.5036,14.593026 331.46063,13.584717 C 332.41766,12.576426 333.65301,12.072277 335.16669,12.072266 C 336.15789,12.072277 337.05144,12.309093 337.84735,12.782715 C 338.64324,13.256357 339.24993,13.916757 339.66742,14.763916 C 340.08489,15.611091 340.29363,16.571784 340.29364,17.645996 C 340.29363,18.734868 340.0739,19.708988 339.63446,20.568359 C 339.195,21.427736 338.57244,22.07837 337.76678,22.520264 C 336.96111,22.962158 336.09197,23.183105 335.15936,23.183105 C 334.14862,23.183105 333.2453,22.938965 332.4494,22.450684 C 331.6535,21.962403 331.05047,21.2959 330.64032,20.451172 C 330.23016,19.606449 330.02508,18.712895 330.02509,17.770508 L 330.02509,17.770508 z M 331.48993,17.79248 C 331.48993,19.08643 331.83783,20.105716 332.53363,20.850342 C 333.22943,21.594972 334.10223,21.967286 335.15204,21.967285 C 336.22137,21.967286 337.10149,21.59131 337.79242,20.839355 C 338.48333,20.087405 338.82879,19.020512 338.8288,17.638672 C 338.82879,16.764655 338.68108,16.001716 338.38568,15.349854 C 338.09026,14.698006 337.65813,14.192636 337.08929,13.83374 C 336.52044,13.474863 335.88201,13.29542 335.17401,13.29541 C 334.16815,13.29542 333.30267,13.640878 332.57758,14.331787 C 331.85248,15.022713 331.48993,16.176276 331.48993,17.79248 L 331.48993,17.79248 z"
     id="text2832" />
  <path
     style="font-size:15px;fill:#000000;stroke-linecap:round;font-family:helvetica"
     d="M 377.68863,27.804654 C 377.68862,26.022434 378.16714,24.627172 379.12417,23.618863 C 380.0812,22.610573 381.31655,22.106423 382.83023,22.106412 C 383.82143,22.106423 384.71498,22.343239 385.51089,22.816861 C 386.30678,23.290504 386.91347,23.950903 387.33096,24.798062 C 387.74843,25.645238 387.95717,26.60593 387.95718,27.680142 C 387.95717,28.769014 387.73744,29.743134 387.298,30.602506 C 386.85854,31.461882 386.23598,32.112516 385.43032,32.55441 C 384.62465,32.996304 383.75551,33.217251 382.8229,33.217252 C 381.81216,33.217251 380.90884,32.973111 380.11294,32.48483 C 379.31704,31.99655 378.71401,31.330046 378.30386,30.485318 C 377.8937,29.640595 377.68862,28.747041 377.68863,27.804654 L 377.68863,27.804654 z M 379.15347,27.826627 C 379.15347,29.120576 379.50137,30.139862 380.19717,30.884488 C 380.89297,31.629118 381.76577,32.001432 382.81558,32.001431 C 383.88491,32.001432 384.76503,31.625456 385.45596,30.873502 C 386.14687,30.121551 386.49233,29.054658 386.49234,27.672818 C 386.49233,26.798801 386.34462,26.035862 386.04922,25.384 C 385.7538,24.732153 385.32167,24.226782 384.75283,23.867886 C 384.18398,23.509009 383.54555,23.329566 382.83755,23.329556 C 381.83169,23.329566 380.96621,23.675025 380.24112,24.365933 C 379.51602,25.056859 379.15347,26.210423 379.15347,27.826627 L 379.15347,27.826627 z"
     id="text2834" />
  <polyline
     style="font-size:15px;fill:none;stroke:#000000;stroke-width:1;stroke-linecap:round;font-family:Helvetica"
     id="polyline2836"
     points="464.00,196.00 516.47,196.00"
     transform="translate(-42,3)" />
  <polygon
     style="font-size:15px;fill:#000000;fill-rule:evenodd;stroke:#000000;stroke-width:1;stroke-linecap:round;font-family:Helvetica"
     id="polygon2838"
     points="524.47,196 514.47,193 516.47,196 514.47,199 524.47,196 "
     transform="translate(-42,3)" />
  <polyline
     style="font-size:15px;fill:none;stroke:#000000;stroke-width:1;stroke-linecap:round;font-family:Helvetica"
     id="polyline2840"
     points="373.00,264.00 373.00,316.47"
     transform="translate(-42,3)" />
  <polygon
     style="font-size:15px;fill:#000000;fill-rule:evenodd;stroke:#000000;stroke-width:1;stroke-linecap:round;font-family:Helvetica"
     id="polygon2842"
     points="373,324.47 376,314.47 373,316.47 370,314.47 373,324.47 "
     transform="translate(-42,3)" />
  <g
     style="font-size:15px;stroke:#000000;stroke-width:1;stroke-linecap:round;font-family:Helvetica"
     id="g2844"
     transform="translate(-42,3)">
    <line
       id="line2846"
       y2="371"
       y1="354.48999"
       x2="417.64999"
       x1="417.64999" />
  </g>
  <g
     style="font-size:15px;stroke:#000000;stroke-width:1;stroke-linecap:round;font-family:Helvetica"
     id="g2848"
     transform="translate(-42,3)">
    <line
       id="line2850"
       y2="344.17999"
       y1="352.76001"
       x2="431.5"
       x1="416.64999" />
    <line
       id="line2852"
       y2="347.64001"
       y1="356.22"
       x2="433.5"
       x1="418.64999" />
  </g>
  <g
     style="font-size:15px;stroke:#000000;stroke-width:1;stroke-linecap:round;font-family:Helvetica"
     id="g2854"
     transform="translate(-42,3)">
    <line
       id="line2856"
       y2="354.48999"
       y1="341.26001"
       x2="371.84"
       x1="348.92999" />
  </g>
  <g
     style="font-size:15px;stroke:#000000;stroke-width:1;stroke-linecap:round;font-family:Helvetica"
     id="g2858"
     transform="translate(-42,3)">
    <line
       id="line2860"
       y2="341.26001"
       y1="349.89999"
       x2="348.92999"
       x1="334" />
  </g>
  <g
     style="font-size:15px;stroke:#000000;stroke-width:1;stroke-linecap:round;font-family:Helvetica"
     id="g2862"
     transform="translate(-42,3)">
    <line
       id="line2864"
       y2="341.26001"
       y1="354.48999"
       x2="394.73999"
       x1="371.84" />
  </g>
  <g
     style="font-size:15px;stroke:#000000;stroke-width:1;stroke-linecap:round;font-family:Helvetica"
     id="g2866"
     transform="translate(-42,3)">
    <line
       id="line2868"
       y2="354.48999"
       y1="341.26001"
       x2="417.64999"
       x1="394.73999" />
  </g>
  <path
     style="font-size:15px;fill:#000000;stroke-linecap:round;font-family:helvetica"
     d="M 393.02509,345.3482 C 393.02508,343.56598 393.5036,342.17072 394.46063,341.16241 C 395.41766,340.15412 396.65301,339.64997 398.16669,339.64996 C 399.15789,339.64997 400.05144,339.88678 400.84735,340.3604 C 401.64324,340.83405 402.24993,341.49445 402.66742,342.34161 C 403.08489,343.18878 403.29363,344.14947 403.29364,345.22369 C 403.29363,346.31256 403.0739,347.28668 402.63446,348.14605 C 402.195,349.00543 401.57244,349.65606 400.76678,350.09795 C 399.96111,350.53985 399.09197,350.7608 398.15936,350.7608 C 397.14862,350.7608 396.2453,350.51665 395.4494,350.02837 C 394.6535,349.54009 394.05047,348.87359 393.64032,348.02886 C 393.23016,347.18414 393.02508,346.29058 393.02509,345.3482 L 393.02509,345.3482 z M 394.48993,345.37017 C 394.48993,346.66412 394.83783,347.68341 395.53363,348.42803 C 396.22943,349.17266 397.10223,349.54498 398.15204,349.54497 C 399.22137,349.54498 400.10149,349.169 400.79242,348.41705 C 401.48333,347.6651 401.82879,346.5982 401.8288,345.21636 C 401.82879,344.34234 401.68108,343.57941 401.38568,342.92754 C 401.09026,342.2757 400.65813,341.77033 400.08929,341.41143 C 399.52044,341.05255 398.88201,340.87311 398.17401,340.8731 C 397.16815,340.87311 396.30267,341.21857 395.57758,341.90948 C 394.85248,342.6004 394.48993,343.75397 394.48993,345.37017 L 394.48993,345.37017 z"
     id="text2870" />
  <path
     style="font-size:15px;fill:#000000;stroke-linecap:round;font-family:helvetica"
     d="M 369.02509,381.72052 C 369.02508,379.9383 369.5036,378.54304 370.46063,377.53473 C 371.41766,376.52644 372.65301,376.02229 374.16669,376.02228 C 375.15789,376.02229 376.05144,376.2591 376.84735,376.73273 C 377.64324,377.20637 378.24993,377.86677 378.66742,378.71393 C 379.08489,379.5611 379.29363,380.5218 379.29364,381.59601 C 379.29363,382.68488 379.0739,383.659 378.63446,384.51837 C 378.195,385.37775 377.57244,386.02838 376.76678,386.47028 C 375.96111,386.91217 375.09197,387.13312 374.15936,387.13312 C 373.14862,387.13312 372.2453,386.88898 371.4494,386.4007 C 370.6535,385.91242 370.05047,385.24591 369.64032,384.40118 C 369.23016,383.55646 369.02508,382.66291 369.02509,381.72052 L 369.02509,381.72052 z M 370.48993,381.74249 C 370.48993,383.03644 370.83783,384.05573 371.53363,384.80035 C 372.22943,385.54498 373.10223,385.9173 374.15204,385.9173 C 375.22137,385.9173 376.10149,385.54132 376.79242,384.78937 C 377.48333,384.03742 377.82879,382.97052 377.8288,381.58868 C 377.82879,380.71467 377.68108,379.95173 377.38568,379.29987 C 377.09026,378.64802 376.65813,378.14265 376.08929,377.78375 C 375.52044,377.42488 374.88201,377.24543 374.17401,377.24542 C 373.16815,377.24543 372.30267,377.59089 371.57758,378.2818 C 370.85248,378.97273 370.48993,380.12629 370.48993,381.74249 L 370.48993,381.74249 z M 381.16132,386.95001 L 381.16132,376.21271 L 382.58221,376.21271 L 382.58221,380.62189 L 388.16327,380.62189 L 388.16327,376.21271 L 389.58417,376.21271 L 389.58417,386.95001 L 388.16327,386.95001 L 388.16327,381.88898 L 382.58221,381.88898 L 382.58221,386.95001 L 381.16132,386.95001 z"
     id="text2872" />
  <path
     style="font-size:15px;fill:#000000;stroke-linecap:round;font-family:helvetica"
     d="M 260.50116,360.53 L 260.50116,349.79269 L 261.92206,349.79269 L 261.92206,354.20187 L 267.50311,354.20187 L 267.50311,349.79269 L 268.92401,349.79269 L 268.92401,360.53 L 267.50311,360.53 L 267.50311,355.46896 L 261.92206,355.46896 L 261.92206,360.53 L 260.50116,360.53 z M 275.80328,363.22913 L 275.80328,364.17945 L 270.48041,364.17945 C 270.47308,363.94141 270.51154,363.71253 270.59576,363.4928 C 270.73126,363.13026 270.94824,362.7732 271.2467,362.42164 C 271.54516,362.07008 271.97638,361.66358 272.54034,361.20215 C 273.41559,360.48438 274.00702,359.91584 274.31464,359.49653 C 274.62225,359.07722 274.77606,358.6808 274.77606,358.30726 C 274.77606,357.91542 274.63598,357.58491 274.35583,357.31574 C 274.07568,357.04658 273.71038,356.912 273.25995,356.91199 C 272.78387,356.912 272.40301,357.05482 272.11737,357.34046 C 271.83172,357.62611 271.68707,358.02162 271.68341,358.52698 L 270.66718,358.42261 C 270.73675,357.66456 270.9986,357.08687 271.4527,356.68952 C 271.9068,356.29219 272.51654,356.09352 273.28192,356.09351 C 274.05462,356.09352 274.66619,356.30775 275.11664,356.73621 C 275.56707,357.16469 275.79229,357.69569 275.7923,358.32923 C 275.79229,358.6515 275.72637,358.96827 275.59454,359.27955 C 275.4627,359.59083 275.24389,359.91859 274.93811,360.26282 C 274.63232,360.60706 274.1242,361.07948 273.41376,361.68006 C 272.82049,362.17811 272.43963,362.51594 272.27118,362.69355 C 272.10272,362.87116 271.96356,363.04969 271.8537,363.22913 L 275.80328,363.22913 z M 277.54462,360.53 L 277.54462,349.79269 L 279.00214,349.79269 L 284.64178,358.22287 L 284.64178,349.79269 L 286.00409,349.79269 L 286.00409,360.53 L 284.54657,360.53 L 278.90692,352.0925 L 278.90692,360.53 L 277.54462,360.53 z"
     id="text2874"
     sodipodi:nodetypes="ccccccccccccccccssssssssccssssssssccccccccccccc" />
  <g
     style="font-size:15px;stroke:#000000;stroke-width:1;stroke-linecap:round;font-family:Helvetica"
     id="g2878"
     transform="translate(-42,3)">
    <line
       id="line2880"
       y2="213"
       y1="196.49001"
       x2="641.65002"
       x1="641.65002" />
  </g>
  <g
     style="font-size:15px;stroke:#000000;stroke-width:1;stroke-linecap:round;font-family:Helvetica"
     id="g2882"
     transform="translate(-42,3)">
    <line
       id="line2884"
       y2="185.89"
       y1="194.75999"
       x2="656"
       x1="640.65002" />
    <line
       id="line2886"
       y2="189.36"
       y1="198.22"
       x2="658"
       x1="642.65002" />
  </g>
  <g
     style="font-size:15px;stroke:#000000;stroke-width:1;stroke-linecap:round;font-family:Helvetica"
     id="g2888"
     transform="translate(-42,3)">
    <line
       id="line2890"
       y2="196.49001"
       y1="183.25999"
       x2="595.84003"
       x1="572.92999" />
  </g>
  <g
     style="font-size:15px;stroke:#000000;stroke-width:1;stroke-linecap:round;font-family:Helvetica"
     id="g2898"
     transform="translate(-42,3)">
    <line
       id="line2900"
       y2="183.25999"
       y1="196.49001"
       x2="618.73999"
       x1="595.84003" />
  </g>
  <g
     style="font-size:15px;stroke:#000000;stroke-width:1;stroke-linecap:round;font-family:Helvetica"
     id="g2902"
     transform="translate(-42,3)">
    <line
       id="line2904"
       y2="196.49001"
       y1="183.25999"
       x2="641.65002"
       x1="618.73999" />
  </g>
  <path
     style="font-size:15px;fill:#000000;stroke-linecap:round;font-family:helvetica"
     d="M 502.02509,197.30051 C 502.02508,195.51829 502.5036,194.12302 503.46063,193.11472 C 504.41766,192.10643 505.65301,191.60228 507.16669,191.60226 C 508.15789,191.60228 509.05144,191.83909 509.84735,192.31271 C 510.64324,192.78636 511.24993,193.44676 511.66742,194.29391 C 512.08489,195.14109 512.29363,196.10178 512.29364,197.17599 C 512.29363,198.26487 512.0739,199.23899 511.63446,200.09836 C 511.195,200.95773 510.57244,201.60837 509.76678,202.05026 C 508.96111,202.49216 508.09197,202.7131 507.15936,202.7131 C 506.14862,202.7131 505.2453,202.46896 504.4494,201.98068 C 503.6535,201.4924 503.05047,200.8259 502.64032,199.98117 C 502.23016,199.13645 502.02508,198.24289 502.02509,197.30051 L 502.02509,197.30051 z M 503.48993,197.32248 C 503.48993,198.61643 503.83783,199.63571 504.53363,200.38034 C 505.22943,201.12497 506.10223,201.49728 507.15204,201.49728 C 508.22137,201.49728 509.10149,201.12131 509.79242,200.36935 C 510.48333,199.6174 510.82879,198.55051 510.8288,197.16867 C 510.82879,196.29465 510.68108,195.53171 510.38568,194.87985 C 510.09026,194.22801 509.65813,193.72263 509.08929,193.36374 C 508.52044,193.00486 507.88201,192.82542 507.17401,192.82541 C 506.16815,192.82542 505.30267,193.17088 504.57758,193.86179 C 503.85248,194.55271 503.48993,195.70628 503.48993,197.32248 L 503.48993,197.32248 z"
     id="text2906" />
  <path
     style="font-size:15px;fill:#000000;stroke-linecap:round;font-family:helvetica"
     d="M 617.02509,186.02111 C 617.02508,184.23889 617.5036,182.84363 618.46063,181.83532 C 619.41766,180.82703 620.65301,180.32288 622.16669,180.32287 C 623.15789,180.32288 624.05144,180.5597 624.84735,181.03332 C 625.64324,181.50696 626.24993,182.16736 626.66742,183.01452 C 627.08489,183.8617 627.29363,184.82239 627.29364,185.8966 C 627.29363,186.98547 627.0739,187.95959 626.63446,188.81896 C 626.195,189.67834 625.57244,190.32897 624.76678,190.77087 C 623.96111,191.21276 623.09197,191.43371 622.15936,191.43371 C 621.14862,191.43371 620.2453,191.18957 619.4494,190.70129 C 618.6535,190.21301 618.05047,189.5465 617.64032,188.70178 C 617.23016,187.85705 617.02508,186.9635 617.02509,186.02111 L 617.02509,186.02111 z M 618.48993,186.04308 C 618.48993,187.33703 618.83783,188.35632 619.53363,189.10095 C 620.22943,189.84558 621.10223,190.21789 622.15204,190.21789 C 623.22137,190.21789 624.10149,189.84191 624.79242,189.08996 C 625.48333,188.33801 625.82879,187.27112 625.8288,185.88928 C 625.82879,185.01526 625.68108,184.25232 625.38568,183.60046 C 625.09026,182.94861 624.65813,182.44324 624.08929,182.08434 C 623.52044,181.72547 622.88201,181.54602 622.17401,181.54601 C 621.16815,181.54602 620.30267,181.89148 619.57758,182.58239 C 618.85248,183.27332 618.48993,184.42688 618.48993,186.04308 L 618.48993,186.04308 z"
     id="text2908" />
  <path
     style="font-size:15px;fill:#000000;stroke-linecap:round;font-family:helvetica"
     d="M 594.02509,223.7205 C 594.02508,221.93829 594.5036,220.54302 595.46063,219.53471 C 596.41766,218.52642 597.65301,218.02227 599.16669,218.02226 C 600.15789,218.02227 601.05144,218.25909 601.84735,218.73271 C 602.64324,219.20635 603.24993,219.86675 603.66742,220.71391 C 604.08489,221.56109 604.29363,222.52178 604.29364,223.59599 C 604.29363,224.68486 604.0739,225.65898 603.63446,226.51836 C 603.195,227.37773 602.57244,228.02837 601.76678,228.47026 C 600.96111,228.91216 600.09197,229.1331 599.15936,229.1331 C 598.14862,229.1331 597.2453,228.88896 596.4494,228.40068 C 595.6535,227.9124 595.05047,227.2459 594.64032,226.40117 C 594.23016,225.55645 594.02508,224.66289 594.02509,223.7205 L 594.02509,223.7205 z M 595.48993,223.74248 C 595.48993,225.03643 595.83783,226.05571 596.53363,226.80034 C 597.22943,227.54497 598.10223,227.91728 599.15204,227.91728 C 600.22137,227.91728 601.10149,227.54131 601.79242,226.78935 C 602.48333,226.0374 602.82879,224.97051 602.8288,223.58867 C 602.82879,222.71465 602.68108,221.95171 602.38568,221.29985 C 602.09026,220.648 601.65813,220.14263 601.08929,219.78374 C 600.52044,219.42486 599.88201,219.24542 599.17401,219.24541 C 598.16815,219.24542 597.30267,219.59088 596.57758,220.28178 C 595.85248,220.97271 595.48993,222.12627 595.48993,223.74248 L 595.48993,223.74248 z M 606.16132,228.95 L 606.16132,218.21269 L 607.58221,218.21269 L 607.58221,222.62187 L 613.16327,222.62187 L 613.16327,218.21269 L 614.58417,218.21269 L 614.58417,228.95 L 613.16327,228.95 L 613.16327,223.88896 L 607.58221,223.88896 L 607.58221,228.95 L 606.16132,228.95 z"
     id="text2910" />
  <polyline
     style="font-size:15px;fill:none;stroke:#000000;stroke-width:1;stroke-linecap:round;font-family:Helvetica"
     id="polyline2912"
     points="599.00,265.00 599.00,317.47"
     transform="translate(-42,3)" />
  <polygon
     style="font-size:15px;fill:#000000;fill-rule:evenodd;stroke:#000000;stroke-width:1;stroke-linecap:round;font-family:Helvetica"
     id="polygon2914"
     points="599,325.47 602,315.47 599,317.47 596,315.47 599,325.47 "
     transform="translate(-42,3)" />
  <g
     style="font-size:15px;stroke:#000000;stroke-width:1;stroke-linecap:round;font-family:Helvetica"
     id="g2916"
     transform="translate(-42,3)">
    <line
       id="line2918"
       y2="376"
       y1="359.48999"
       x2="642.65002"
       x1="642.65002" />
  </g>
  <g
     style="font-size:15px;stroke:#000000;stroke-width:1;stroke-linecap:round;font-family:Helvetica"
     id="g2920"
     transform="translate(-42,3)">
    <line
       id="line2922"
       y2="359.48999"
       y1="346.26001"
       x2="596.84003"
       x1="573.92999" />
  </g>
  <g
     style="font-size:15px;stroke:#000000;stroke-width:1;stroke-linecap:round;font-family:Helvetica"
     id="g2924"
     transform="translate(-42,3)">
    <line
       id="line2926"
       y2="344.53"
       y1="353.17001"
       x2="572.92999"
       x1="558" />
    <line
       id="line2928"
       y2="347.98999"
       y1="356.63"
       x2="574.94"
       x1="560" />
  </g>
  <g
     style="font-size:15px;stroke:#000000;stroke-width:1;stroke-linecap:round;font-family:Helvetica"
     id="g2930"
     transform="translate(-42,3)">
    <line
       id="line2932"
       y2="346.26001"
       y1="359.48999"
       x2="619.73999"
       x1="596.84003" />
  </g>
  <g
     style="font-size:15px;stroke:#000000;stroke-width:1;stroke-linecap:round;font-family:Helvetica"
     id="g2934"
     transform="translate(-42,3)">
    <line
       id="line2936"
       y2="359.48999"
       y1="346.26001"
       x2="642.65002"
       x1="619.73999" />
  </g>
  <g
     style="font-size:15px;stroke:#000000;stroke-width:1;stroke-linecap:round;font-family:Helvetica"
     id="g2938"
     transform="translate(-42,3)">
    <line
       id="line2940"
       y2="349.17999"
       y1="357.76001"
       x2="656.5"
       x1="641.65002" />
    <line
       id="line2942"
       y2="352.64001"
       y1="361.22"
       x2="658.5"
       x1="643.65002" />
  </g>
  <g
     style="font-size:15px;stroke:#000000;stroke-width:1;stroke-linecap:round;font-family:Helvetica"
     id="g2944"
     transform="translate(-42,3)">
    <line
       id="line2946"
       y2="328"
       y1="346.26001"
       x2="573.92999"
       x1="573.92999" />
  </g>
  <path
     style="font-size:15px;fill:#000000;stroke-linecap:round;font-family:helvetica"
     d="M 503.02509,360.30051 C 503.02508,358.51829 503.5036,357.12302 504.46063,356.11472 C 505.41766,355.10643 506.65301,354.60228 508.16669,354.60226 C 509.15789,354.60228 510.05144,354.83909 510.84735,355.31271 C 511.64324,355.78636 512.24993,356.44676 512.66742,357.29391 C 513.08489,358.14109 513.29363,359.10178 513.29364,360.17599 C 513.29363,361.26487 513.0739,362.23899 512.63446,363.09836 C 512.195,363.95773 511.57244,364.60837 510.76678,365.05026 C 509.96111,365.49216 509.09197,365.7131 508.15936,365.7131 C 507.14862,365.7131 506.2453,365.46896 505.4494,364.98068 C 504.6535,364.4924 504.05047,363.8259 503.64032,362.98117 C 503.23016,362.13645 503.02508,361.24289 503.02509,360.30051 L 503.02509,360.30051 z M 504.48993,360.32248 C 504.48993,361.61643 504.83783,362.63571 505.53363,363.38034 C 506.22943,364.12497 507.10223,364.49728 508.15204,364.49728 C 509.22137,364.49728 510.10149,364.12131 510.79242,363.36935 C 511.48333,362.6174 511.82879,361.55051 511.8288,360.16867 C 511.82879,359.29465 511.68108,358.53171 511.38568,357.87985 C 511.09026,357.22801 510.65813,356.72263 510.08929,356.36374 C 509.52044,356.00486 508.88201,355.82542 508.17401,355.82541 C 507.16815,355.82542 506.30267,356.17088 505.57758,356.86179 C 504.85248,357.55271 504.48993,358.70628 504.48993,360.32248 L 504.48993,360.32248 z"
     id="text2948" />
  <path
     style="font-size:15px;fill:#000000;stroke-linecap:round;font-family:helvetica"
     d="M 618.02509,349.68467 C 618.02508,347.90245 618.5036,346.50719 619.46063,345.49888 C 620.41766,344.49059 621.65301,343.98644 623.16669,343.98643 C 624.15789,343.98644 625.05144,344.22325 625.84735,344.69687 C 626.64324,345.17052 627.24993,345.83092 627.66742,346.67808 C 628.08489,347.52525 628.29363,348.48594 628.29364,349.56016 C 628.29363,350.64903 628.0739,351.62315 627.63446,352.48252 C 627.195,353.3419 626.57244,353.99253 625.76678,354.43442 C 624.96111,354.87632 624.09197,355.09727 623.15936,355.09727 C 622.14862,355.09727 621.2453,354.85312 620.4494,354.36484 C 619.6535,353.87656 619.05047,353.21006 618.64032,352.36533 C 618.23016,351.52061 618.02508,350.62705 618.02509,349.68467 L 618.02509,349.68467 z M 619.48993,349.70664 C 619.48993,351.00059 619.83783,352.01988 620.53363,352.7645 C 621.22943,353.50913 622.10223,353.88145 623.15204,353.88144 C 624.22137,353.88145 625.10149,353.50547 625.79242,352.75352 C 626.48333,352.00157 626.82879,350.93467 626.8288,349.55283 C 626.82879,348.67881 626.68108,347.91588 626.38568,347.26401 C 626.09026,346.61217 625.65813,346.1068 625.08929,345.7479 C 624.52044,345.38902 623.88201,345.20958 623.17401,345.20957 C 622.16815,345.20958 621.30267,345.55504 620.57758,346.24595 C 619.85248,346.93687 619.48993,348.09044 619.48993,349.70664 L 619.48993,349.70664 z"
     id="text2950" />
  <path
     style="font-size:15px;fill:#000000;stroke-linecap:round;font-family:helvetica"
     d="M 595.02509,386.72052 C 595.02508,384.9383 595.5036,383.54304 596.46063,382.53473 C 597.41766,381.52644 598.65301,381.02229 600.16669,381.02228 C 601.15789,381.02229 602.05144,381.2591 602.84735,381.73273 C 603.64324,382.20637 604.24993,382.86677 604.66742,383.71393 C 605.08489,384.5611 605.29363,385.5218 605.29364,386.59601 C 605.29363,387.68488 605.0739,388.659 604.63446,389.51837 C 604.195,390.37775 603.57244,391.02838 602.76678,391.47028 C 601.96111,391.91217 601.09197,392.13312 600.15936,392.13312 C 599.14862,392.13312 598.2453,391.88898 597.4494,391.4007 C 596.6535,390.91242 596.05047,390.24591 595.64032,389.40118 C 595.23016,388.55646 595.02508,387.66291 595.02509,386.72052 L 595.02509,386.72052 z M 596.48993,386.74249 C 596.48993,388.03644 596.83783,389.05573 597.53363,389.80035 C 598.22943,390.54498 599.10223,390.9173 600.15204,390.9173 C 601.22137,390.9173 602.10149,390.54132 602.79242,389.78937 C 603.48333,389.03742 603.82879,387.97052 603.8288,386.58868 C 603.82879,385.71467 603.68108,384.95173 603.38568,384.29987 C 603.09026,383.64802 602.65813,383.14265 602.08929,382.78375 C 601.52044,382.42488 600.88201,382.24543 600.17401,382.24542 C 599.16815,382.24543 598.30267,382.59089 597.57758,383.2818 C 596.85248,383.97273 596.48993,385.12629 596.48993,386.74249 L 596.48993,386.74249 z M 607.16132,391.95001 L 607.16132,381.21271 L 608.58221,381.21271 L 608.58221,385.62189 L 614.16327,385.62189 L 614.16327,381.21271 L 615.58417,381.21271 L 615.58417,391.95001 L 614.16327,391.95001 L 614.16327,386.88898 L 608.58221,386.88898 L 608.58221,391.95001 L 607.16132,391.95001 z"
     id="text2952" />
  <path
     style="font-size:15px;fill:#000000;stroke-linecap:round;font-family:helvetica"
     d="M 515.50116,325.81 L 515.50116,315.07269 L 516.92206,315.07269 L 516.92206,319.48187 L 522.50311,319.48187 L 522.50311,315.07269 L 523.92401,315.07269 L 523.92401,325.81 L 522.50311,325.81 L 522.50311,320.74896 L 516.92206,320.74896 L 516.92206,325.81 L 515.50116,325.81 z M 525.86493,320.58051 C 525.86493,318.79829 526.34344,317.40302 527.30048,316.39471 C 528.2575,315.38642 529.49285,314.88227 531.00653,314.88226 C 531.99773,314.88227 532.89129,315.11909 533.68719,315.59271 C 534.48308,316.06635 535.08977,316.72675 535.50726,317.57391 C 535.92473,318.42109 536.13347,319.38178 536.13348,320.45599 C 536.13347,321.54487 535.91375,322.51899 535.4743,323.37836 C 535.03484,324.23773 534.41228,324.88837 533.60663,325.33026 C 532.80096,325.77216 531.93182,325.9931 530.99921,325.9931 C 529.98846,325.9931 529.08514,325.74896 528.28925,325.26068 C 527.49334,324.7724 526.89032,324.1059 526.48016,323.26117 C 526.07001,322.41645 525.86493,321.52289 525.86493,320.58051 L 525.86493,320.58051 z M 527.32977,320.60248 C 527.32977,321.89643 527.67767,322.91571 528.37347,323.66034 C 529.06927,324.40497 529.94207,324.77728 530.99188,324.77728 C 532.06121,324.77728 532.94134,324.40131 533.63226,323.64935 C 534.32317,322.8974 534.66863,321.83051 534.66864,320.44867 C 534.66863,319.57465 534.52093,318.81171 534.22552,318.15985 C 533.93011,317.508 533.49798,317.00263 532.92914,316.64374 C 532.36028,316.28486 531.72186,316.10542 531.01385,316.10541 C 530.00799,316.10542 529.14251,316.45088 528.41742,317.14178 C 527.69232,317.83271 527.32977,318.98627 527.32977,320.60248 L 527.32977,320.60248 z"
     id="text2954" />
  <text
     style="font-size:12.5px;fill:#000000;stroke-linecap:round;font-family:helvetica"
     id="text2956"
     y="79"
     x="54"
     textLength="81"
     font-size="10pt">1,4-butanediol</text>
  <text
     style="font-size:12.5px;fill:#000000;stroke-linecap:round;font-family:helvetica"
     id="text2958"
     y="229"
     x="29"
     textLength="127"
     font-size="10pt">4-hydroxybutaldehyde</text>
  <text
     style="font-size:12.5px;fill:#000000;stroke-linecap:round;font-family:helvetica"
     id="text2960"
     y="82"
     x="292"
     textLength="89"
     font-size="10pt">γ-butyrolactone</text>
  <text
     style="font-size:12.5px;fill:#000000;stroke-linecap:round;font-family:helvetica"
     id="text2962"
     y="254"
     x="255"
     textLength="134"
     font-size="10pt">γ-hydroxybutanoic acid</text>
  <text
     style="font-size:12.5px;fill:#000000;stroke-linecap:round;font-family:helvetica"
     id="text2964"
     y="253"
     x="490"
     textLength="132"
     font-size="10pt">succinic semialdehyde</text>
  <text
     style="font-size:12.5px;fill:#000000;stroke-linecap:round;font-family:helvetica"
     id="text2966"
     y="409.01001"
     x="266"
     textLength="123"
     font-size="10pt">γ-aminobutanoic acid</text>
  <text
     style="font-size:12.5px;fill:#000000;stroke-linecap:round;font-family:helvetica"
     id="text2968"
     y="408"
     x="518"
     textLength="76"
     font-size="10pt">succinic acid</text>
  <text
     style="font-size:12.5px;fill:#000000;stroke-linecap:round;font-family:helvetica"
     id="text2970"
     y="124"
     x="105"
     textLength="27"
     font-size="10pt">ADH</text>
  <text
     style="font-size:12.5px;fill:#000000;stroke-linecap:round;font-family:helvetica"
     id="text2972"
     y="182"
     x="191"
     textLength="34"
     font-size="10pt">ALDH</text>
  <text
     style="font-size:12.5px;fill:#000000;stroke-linecap:round;font-family:helvetica"
     id="text2974"
     y="129"
     x="343"
     textLength="60"
     font-size="10pt">lactamase</text>
  <text
     style="font-size:12.5px;fill:#000000;stroke-linecap:round;font-family:helvetica"
     id="text2976"
     y="187"
     x="441"
     textLength="27"
     font-size="10pt">ADH</text>
  <text
     style="font-size:12.5px;fill:#000000;stroke-linecap:round;font-family:helvetica"
     id="text2978"
     y="298"
     x="566"
     textLength="34"
     font-size="10pt">ALDH</text>
  <text
     style="font-size:12.5px;fill:#000000;stroke-linecap:round;font-family:helvetica"
     id="text2980"
     y="297"
     x="342"
     textLength="119"
     font-size="10pt">GABA transaminase</text>
  <text
     style="font-size:12.5px;fill:#000000;stroke-linecap:round;font-family:helvetica"
     id="text2982"
     y="382"
     x="20"
     textLength="176"
     font-size="10pt">ADH = alcohol dehydrogenase</text>
  <text
     style="font-size:12.5px;fill:#000000;stroke-linecap:round;font-family:helvetica"
     id="text2984"
     y="403"
     x="13"
     textLength="194"
     font-size="10pt">ALDH = aldehyde dehydrogenase</text>
  <cdml:cdml
     version="0.15">
    <cdml:info>
      <cdml:author_program
         version="0.13.0">BKchem</cdml:author_program>
    </cdml:info>
    <cdml:paper
       crop_margin="10"
       crop_svg="1"
       orientation="portrait"
       replace_minus="0"
       type="A4"
       use_real_minus="0" />
    <cdml:viewport
       viewport="0.000000 0.000000 640.000000 480.000000" />
    <cdml:standard
       area_color=""
       font_family="helvetica"
       font_size="12"
       line_color="#000"
       line_width="1px"
       paper_crop_margin="10"
       paper_crop_svg="0"
       paper_orientation="portrait"
       paper_type="A4">
      <cdml:bond
         double-ratio="0.75"
         length="0.7cm"
         wedge-width="5px"
         width="6px" />
      <cdml:arrow
         length="1.6cm" />
      <cdml:atom
         show_hydrogens="0" />
    </cdml:standard>
    <cdml:molecule
       id="molecule50268"
       name="">
      <cdml:atom
         id="atom40479"
         name="C"
         valency="4">
        <cdml:point
           x="2.723cm"
           y="0.973cm" />
      </cdml:atom>
      <cdml:atom
         id="atom22731"
         name="C"
         valency="4">
        <cdml:point
           x="3.329cm"
           y="1.323cm" />
      </cdml:atom>
      <cdml:atom
         id="atom7513"
         name="C"
         valency="4">
        <cdml:point
           x="3.935cm"
           y="0.973cm" />
      </cdml:atom>
      <cdml:atom
         id="atom92209"
         name="C"
         valency="4">
        <cdml:point
           x="4.542cm"
           y="1.323cm" />
      </cdml:atom>
      <cdml:atom
         hydrogens="on"
         id="atom50053"
         name="O"
         pos="center-last"
         valency="2">
        <cdml:point
           x="2.117cm"
           y="1.323cm" />
      </cdml:atom>
      <cdml:atom
         hydrogens="on"
         id="atom14975"
         name="O"
         pos="center-first"
         valency="2">
        <cdml:point
           x="5.148cm"
           y="0.973cm" />
      </cdml:atom>
      <cdml:bond
         double_ratio="0.75"
         end="atom22731"
         id="bond92685"
         line_width="1.0"
         start="atom40479"
         type="n1" />
      <cdml:bond
         double_ratio="0.75"
         end="atom14975"
         id="bond97570"
         line_width="1.0"
         start="atom92209"
         type="n1" />
      <cdml:bond
         double_ratio="0.75"
         end="atom40479"
         id="bond95695"
         line_width="1.0"
         start="atom50053"
         type="n1" />
      <cdml:bond
         double_ratio="0.75"
         end="atom7513"
         id="bond34744"
         line_width="1.0"
         start="atom22731"
         type="n1" />
      <cdml:bond
         double_ratio="0.75"
         end="atom92209"
         id="bond8333"
         line_width="1.0"
         start="atom7513"
         type="n1" />
    </cdml:molecule>
    <cdml:arrow
       color="#000"
       end="yes"
       id="arrow81312"
       shape="(8, 10, 3)"
       spline="no"
       start="no"
       type="normal"
       width="1.0">
      <cdml:point
         x="3.598cm"
         y="2.408cm" />
      <cdml:point
         x="3.598cm"
         y="4.008cm" />
    </cdml:arrow>
    <cdml:molecule
       id="molecule41430"
       name="">
      <cdml:atom
         id="atom46469"
         name="C"
         valency="4">
        <cdml:point
           x="2.789cm"
           y="4.690cm" />
      </cdml:atom>
      <cdml:atom
         id="atom32128"
         name="C"
         valency="4">
        <cdml:point
           x="3.395cm"
           y="5.040cm" />
      </cdml:atom>
      <cdml:atom
         id="atom36926"
         name="C"
         valency="4">
        <cdml:point
           x="4.001cm"
           y="4.690cm" />
      </cdml:atom>
      <cdml:atom
         id="atom23592"
         name="C"
         valency="4">
        <cdml:point
           x="4.607cm"
           y="5.040cm" />
      </cdml:atom>
      <cdml:atom
         hydrogens="on"
         id="atom9047"
         name="O"
         pos="center-last"
         valency="2">
        <cdml:point
           x="2.182cm"
           y="5.041cm" />
      </cdml:atom>
      <cdml:atom
         id="atom43238"
         name="O"
         pos="center-first"
         valency="2">
        <cdml:point
           x="5.213cm"
           y="4.690cm" />
      </cdml:atom>
      <cdml:bond
         double_ratio="0.75"
         end="atom32128"
         id="bond43703"
         line_width="1.0"
         start="atom46469"
         type="n1" />
      <cdml:bond
         bond_width="6.0"
         center="no"
         double_ratio="0.75"
         end="atom43238"
         id="bond47539"
         line_width="1.0"
         start="atom23592"
         type="n2" />
      <cdml:bond
         double_ratio="0.75"
         end="atom46469"
         id="bond70368"
         line_width="1.0"
         start="atom9047"
         type="n1" />
      <cdml:bond
         double_ratio="0.75"
         end="atom36926"
         id="bond13086"
         line_width="1.0"
         start="atom32128"
         type="n1" />
      <cdml:bond
         double_ratio="0.75"
         end="atom23592"
         id="bond41638"
         line_width="1.0"
         start="atom36926"
         type="n1" />
    </cdml:molecule>
    <cdml:arrow
       color="#000"
       end="yes"
       id="arrow76309"
       shape="(8, 10, 3)"
       spline="no"
       start="no"
       type="normal"
       width="1.0">
      <cdml:point
         x="5.821cm"
         y="5.001cm" />
      <cdml:point
         x="7.421cm"
         y="5.001cm" />
    </cdml:arrow>
    <cdml:molecule
       id="molecule93948"
       name="">
      <cdml:atom
         id="atom99439"
         name="C"
         valency="4">
        <cdml:point
           x="8.954cm"
           y="4.690cm" />
      </cdml:atom>
      <cdml:atom
         id="atom27424"
         name="C"
         valency="4">
        <cdml:point
           x="9.560cm"
           y="5.040cm" />
      </cdml:atom>
      <cdml:atom
         id="atom35439"
         name="C"
         valency="4">
        <cdml:point
           x="10.166cm"
           y="4.690cm" />
      </cdml:atom>
      <cdml:atom
         id="atom69607"
         name="C"
         valency="4">
        <cdml:point
           x="10.772cm"
           y="5.040cm" />
      </cdml:atom>
      <cdml:atom
         hydrogens="on"
         id="atom47450"
         name="O"
         pos="center-last"
         valency="2">
        <cdml:point
           x="8.347cm"
           y="5.041cm" />
      </cdml:atom>
      <cdml:atom
         hydrogens="on"
         id="atom49374"
         name="O"
         pos="center-first"
         valency="2">
        <cdml:point
           x="11.378cm"
           y="4.690cm" />
      </cdml:atom>
      <cdml:atom
         hydrogens="on"
         id="atom4004"
         name="O"
         pos="center-first"
         valency="2">
        <cdml:point
           x="10.772cm"
           y="5.740cm" />
      </cdml:atom>
      <cdml:bond
         bond_width="6.0"
         center="yes"
         double_ratio="0.75"
         end="atom49374"
         id="bond55270"
         line_width="1.0"
         start="atom69607"
         type="n2" />
      <cdml:bond
         double_ratio="0.75"
         end="atom4004"
         id="bond34510"
         line_width="1.0"
         start="atom69607"
         type="n1" />
      <cdml:bond
         double_ratio="0.75"
         end="atom27424"
         id="bond26523"
         line_width="1.0"
         start="atom99439"
         type="n1" />
      <cdml:bond
         double_ratio="0.75"
         end="atom99439"
         id="bond18333"
         line_width="1.0"
         start="atom47450"
         type="n1" />
      <cdml:bond
         double_ratio="0.75"
         end="atom35439"
         id="bond65609"
         line_width="1.0"
         start="atom27424"
         type="n1" />
      <cdml:bond
         double_ratio="0.75"
         end="atom69607"
         id="bond31610"
         line_width="1.0"
         start="atom35439"
         type="n1" />
    </cdml:molecule>
    <cdml:arrow
       color="#000"
       end="yes"
       id="arrow67925"
       shape="(8, 10, 3)"
       spline="no"
       start="no"
       type="normal"
       width="1.0">
      <cdml:point
         x="9.922cm"
         y="2.540cm" />
      <cdml:point
         x="9.922cm"
         y="4.140cm" />
    </cdml:arrow>
    <cdml:molecule
       id="molecule53851"
       name="">
      <cdml:atom
         id="atom43020"
         name="C"
         valency="4">
        <cdml:point
           x="10.568cm"
           y="0.861cm" />
      </cdml:atom>
      <cdml:atom
         id="atom79745"
         name="C"
         valency="4">
        <cdml:point
           x="10.352cm"
           y="1.527cm" />
      </cdml:atom>
      <cdml:atom
         id="atom5221"
         name="C"
         valency="4">
        <cdml:point
           x="9.651cm"
           y="1.527cm" />
      </cdml:atom>
      <cdml:atom
         id="atom10580"
         name="C"
         valency="4">
        <cdml:point
           x="9.435cm"
           y="0.861cm" />
      </cdml:atom>
      <cdml:atom
         id="atom24993"
         name="O"
         pos="center-first"
         valency="2">
        <cdml:point
           x="10.001cm"
           y="0.450cm" />
      </cdml:atom>
      <cdml:atom
         id="atom12391"
         name="O"
         pos="center-first"
         valency="2">
        <cdml:point
           x="11.234cm"
           y="0.645cm" />
      </cdml:atom>
      <cdml:bond
         double_ratio="0.75"
         end="atom10580"
         id="bond8060"
         line_width="1.0"
         start="atom5221"
         type="n1" />
      <cdml:bond
         double_ratio="0.75"
         end="atom79745"
         id="bond11758"
         line_width="1.0"
         start="atom43020"
         type="n1" />
      <cdml:bond
         double_ratio="0.75"
         end="atom5221"
         id="bond54106"
         line_width="1.0"
         start="atom79745"
         type="n1" />
      <cdml:bond
         double_ratio="0.75"
         end="atom24993"
         id="bond53992"
         line_width="1.0"
         start="atom10580"
         type="n1" />
      <cdml:bond
         double_ratio="0.75"
         end="atom43020"
         id="bond42363"
         line_width="1.0"
         start="atom24993"
         type="n1" />
      <cdml:bond
         bond_width="6.0"
         center="yes"
         double_ratio="0.75"
         end="atom12391"
         id="bond38018"
         line_width="1.0"
         start="atom43020"
         type="n2" />
    </cdml:molecule>
    <cdml:arrow
       color="#000"
       end="yes"
       id="arrow92057"
       shape="(8, 10, 3)"
       spline="no"
       start="no"
       type="normal"
       width="1.0">
      <cdml:point
         x="12.277cm"
         y="5.186cm" />
      <cdml:point
         x="13.877cm"
         y="5.186cm" />
    </cdml:arrow>
    <cdml:arrow
       color="#000"
       end="yes"
       id="arrow68420"
       shape="(8, 10, 3)"
       spline="no"
       start="no"
       type="normal"
       width="1.0">
      <cdml:point
         x="9.869cm"
         y="6.985cm" />
      <cdml:point
         x="9.869cm"
         y="8.585cm" />
    </cdml:arrow>
    <cdml:molecule
       id="molecule92179"
       name="">
      <cdml:atom
         id="atom18116"
         name="C"
         valency="4">
        <cdml:point
           x="9.232cm"
           y="9.029cm" />
      </cdml:atom>
      <cdml:atom
         id="atom78809"
         name="C"
         valency="4">
        <cdml:point
           x="9.838cm"
           y="9.379cm" />
      </cdml:atom>
      <cdml:atom
         id="atom85307"
         name="C"
         valency="4">
        <cdml:point
           x="10.444cm"
           y="9.029cm" />
      </cdml:atom>
      <cdml:atom
         id="atom11833"
         name="C"
         valency="4">
        <cdml:point
           x="11.050cm"
           y="9.379cm" />
      </cdml:atom>
      <cdml:atom
         hydrogens="on"
         id="atom69741"
         name="O"
         pos="center-first"
         valency="2">
        <cdml:point
           x="11.656cm"
           y="9.029cm" />
      </cdml:atom>
      <cdml:atom
         hydrogens="on"
         id="atom97861"
         name="O"
         pos="center-first"
         valency="2">
        <cdml:point
           x="11.050cm"
           y="10.079cm" />
      </cdml:atom>
      <cdml:atom
         hydrogens="on"
         id="atom7120"
         name="N"
         pos="center-last"
         valency="3">
        <cdml:point
           x="8.625cm"
           y="9.380cm" />
      </cdml:atom>
      <cdml:bond
         double_ratio="0.75"
         end="atom97861"
         id="bond24060"
         line_width="1.0"
         start="atom11833"
         type="n1" />
      <cdml:bond
         bond_width="6.0"
         center="yes"
         double_ratio="0.75"
         end="atom69741"
         id="bond51136"
         line_width="1.0"
         start="atom11833"
         type="n2" />
      <cdml:bond
         double_ratio="0.75"
         end="atom78809"
         id="bond36824"
         line_width="1.0"
         start="atom18116"
         type="n1" />
      <cdml:bond
         double_ratio="0.75"
         end="atom18116"
         id="bond9981"
         line_width="1.0"
         start="atom7120"
         type="n1" />
      <cdml:bond
         double_ratio="0.75"
         end="atom85307"
         id="bond44610"
         line_width="1.0"
         start="atom78809"
         type="n1" />
      <cdml:bond
         double_ratio="0.75"
         end="atom11833"
         id="bond32971"
         line_width="1.0"
         start="atom85307"
         type="n1" />
    </cdml:molecule>
    <cdml:molecule
       id="molecule61082"
       name="">
      <cdml:atom
         id="atom23867"
         name="C"
         valency="4">
        <cdml:point
           x="15.159cm"
           y="4.849cm" />
      </cdml:atom>
      <cdml:atom
         id="atom81871"
         name="C"
         valency="4">
        <cdml:point
           x="15.765cm"
           y="5.199cm" />
      </cdml:atom>
      <cdml:atom
         id="atom29526"
         name="C"
         valency="4">
        <cdml:point
           x="16.371cm"
           y="4.849cm" />
      </cdml:atom>
      <cdml:atom
         id="atom50634"
         name="C"
         valency="4">
        <cdml:point
           x="16.977cm"
           y="5.199cm" />
      </cdml:atom>
      <cdml:atom
         hydrogens="on"
         id="atom7615"
         name="O"
         pos="center-last"
         valency="2">
        <cdml:point
           x="14.552cm"
           y="5.200cm" />
      </cdml:atom>
      <cdml:atom
         hydrogens="on"
         id="atom77499"
         name="O"
         pos="center-first"
         valency="2">
        <cdml:point
           x="17.583cm"
           y="4.849cm" />
      </cdml:atom>
      <cdml:atom
         hydrogens="on"
         id="atom14881"
         name="O"
         pos="center-first"
         valency="2">
        <cdml:point
           x="16.977cm"
           y="5.899cm" />
      </cdml:atom>
      <cdml:bond
         double_ratio="0.75"
         end="atom14881"
         id="bond53480"
         line_width="1.0"
         start="atom50634"
         type="n1" />
      <cdml:bond
         bond_width="6.0"
         center="yes"
         double_ratio="0.75"
         end="atom77499"
         id="bond14254"
         line_width="1.0"
         start="atom50634"
         type="n2" />
      <cdml:bond
         double_ratio="0.75"
         end="atom81871"
         id="bond41176"
         line_width="1.0"
         start="atom23867"
         type="n1" />
      <cdml:bond
         bond_width="-6.0"
         center="no"
         double_ratio="0.75"
         end="atom23867"
         id="bond28512"
         line_width="1.0"
         start="atom7615"
         type="n2" />
      <cdml:bond
         double_ratio="0.75"
         end="atom29526"
         id="bond19441"
         line_width="1.0"
         start="atom81871"
         type="n1" />
      <cdml:bond
         double_ratio="0.75"
         end="atom50634"
         id="bond58397"
         line_width="1.0"
         start="atom29526"
         type="n1" />
    </cdml:molecule>
    <cdml:arrow
       color="#000"
       end="yes"
       id="arrow38735"
       shape="(8, 10, 3)"
       spline="no"
       start="no"
       type="normal"
       width="1.0">
      <cdml:point
         x="15.849cm"
         y="7.011cm" />
      <cdml:point
         x="15.849cm"
         y="8.611cm" />
    </cdml:arrow>
    <cdml:molecule
       id="molecule37366"
       name="">
      <cdml:atom
         id="atom90161"
         name="C"
         valency="4">
        <cdml:point
           x="15.185cm"
           y="9.162cm" />
      </cdml:atom>
      <cdml:atom
         id="atom58627"
         name="C"
         valency="4">
        <cdml:point
           x="15.791cm"
           y="9.512cm" />
      </cdml:atom>
      <cdml:atom
         id="atom41859"
         name="C"
         valency="4">
        <cdml:point
           x="16.397cm"
           y="9.162cm" />
      </cdml:atom>
      <cdml:atom
         id="atom48628"
         name="C"
         valency="4">
        <cdml:point
           x="17.003cm"
           y="9.512cm" />
      </cdml:atom>
      <cdml:atom
         hydrogens="on"
         id="atom46274"
         name="O"
         pos="center-last"
         valency="2">
        <cdml:point
           x="14.578cm"
           y="9.513cm" />
      </cdml:atom>
      <cdml:atom
         hydrogens="on"
         id="atom13906"
         name="O"
         pos="center-first"
         valency="2">
        <cdml:point
           x="17.609cm"
           y="9.162cm" />
      </cdml:atom>
      <cdml:atom
         hydrogens="on"
         id="atom7835"
         name="O"
         pos="center-first"
         valency="2">
        <cdml:point
           x="17.003cm"
           y="10.212cm" />
      </cdml:atom>
      <cdml:atom
         hydrogens="on"
         id="atom14847"
         name="O"
         pos="center-last"
         valency="2">
        <cdml:point
           x="15.185cm"
           y="8.462cm" />
      </cdml:atom>
      <cdml:bond
         double_ratio="0.75"
         end="atom7835"
         id="bond18629"
         line_width="1.0"
         start="atom48628"
         type="n1" />
      <cdml:bond
         double_ratio="0.75"
         end="atom58627"
         id="bond64834"
         line_width="1.0"
         start="atom90161"
         type="n1" />
      <cdml:bond
         bond_width="6.0"
         center="yes"
         double_ratio="0.75"
         end="atom90161"
         id="bond65114"
         line_width="1.0"
         start="atom46274"
         type="n2" />
      <cdml:bond
         double_ratio="0.75"
         end="atom41859"
         id="bond39671"
         line_width="1.0"
         start="atom58627"
         type="n1" />
      <cdml:bond
         double_ratio="0.75"
         end="atom48628"
         id="bond99735"
         line_width="1.0"
         start="atom41859"
         type="n1" />
      <cdml:bond
         bond_width="6.0"
         center="yes"
         double_ratio="0.75"
         end="atom13906"
         id="bond49168"
         line_width="1.0"
         start="atom48628"
         type="n2" />
      <cdml:bond
         double_ratio="0.75"
         end="atom14847"
         id="bond35597"
         line_width="1.0"
         start="atom90161"
         type="n1" />
    </cdml:molecule>
    <cdml:text
       id="text85183">
      <cdml:font
         family="helvetica"
         size="10" />
      <cdml:point
         x="2.593cm"
         y="1.905cm" />
      <cdml:ftext>1,4-butanediol</cdml:ftext>
    </cdml:text>
    <cdml:text
       id="text64746">
      <cdml:font
         family="helvetica"
         size="10" />
      <cdml:point
         x="1.931cm"
         y="5.874cm" />
      <cdml:ftext>4-hydroxybutaldehyde</cdml:ftext>
    </cdml:text>
    <cdml:text
       id="text4933">
      <cdml:font
         family="helvetica"
         size="10" />
      <cdml:point
         x="8.890cm"
         y="1.984cm" />
      <cdml:ftext>γ-butyrolactone</cdml:ftext>
    </cdml:text>
    <cdml:text
       id="text64925">
      <cdml:font
         family="helvetica"
         size="10" />
      <cdml:point
         x="7.911cm"
         y="6.535cm" />
      <cdml:ftext>γ-hydroxybutanoic acid</cdml:ftext>
    </cdml:text>
    <cdml:text
       id="text90017">
      <cdml:font
         family="helvetica"
         size="10" />
      <cdml:point
         x="14.129cm"
         y="6.509cm" />
      <cdml:ftext>succinic semialdehyde</cdml:ftext>
    </cdml:text>
    <cdml:text
       id="text39543">
      <cdml:font
         family="helvetica"
         size="10" />
      <cdml:point
         x="8.202cm"
         y="10.637cm" />
      <cdml:ftext>γ-aminobutanoic acid</cdml:ftext>
    </cdml:text>
    <cdml:text
       id="text82039">
      <cdml:font
         family="helvetica"
         size="10" />
      <cdml:point
         x="14.870cm"
         y="10.610cm" />
      <cdml:ftext>succinic acid</cdml:ftext>
    </cdml:text>
    <cdml:text
       id="text39852">
      <cdml:font
         family="helvetica"
         size="10" />
      <cdml:point
         x="3.969cm"
         y="3.096cm" />
      <cdml:ftext>ADH</cdml:ftext>
    </cdml:text>
    <cdml:text
       id="text71417">
      <cdml:font
         family="helvetica"
         size="10" />
      <cdml:point
         x="6.244cm"
         y="4.630cm" />
      <cdml:ftext>ALDH</cdml:ftext>
    </cdml:text>
    <cdml:text
       id="text18510">
      <cdml:font
         family="helvetica"
         size="10" />
      <cdml:point
         x="10.213cm"
         y="3.228cm" />
      <cdml:ftext>lactamase</cdml:ftext>
    </cdml:text>
    <cdml:text
       id="text58342">
      <cdml:font
         family="helvetica"
         size="10" />
      <cdml:point
         x="12.885cm"
         y="4.763cm" />
      <cdml:ftext>ADH</cdml:ftext>
    </cdml:text>
    <cdml:text
       id="text74149">
      <cdml:font
         family="helvetica"
         size="10" />
      <cdml:point
         x="16.166cm"
         y="7.699cm" />
      <cdml:ftext>ALDH</cdml:ftext>
    </cdml:text>
    <cdml:text
       id="text25249">
      <cdml:font
         family="helvetica"
         size="10" />
      <cdml:point
         x="10.266cm"
         y="7.673cm" />
      <cdml:ftext>GABA transaminase</cdml:ftext>
    </cdml:text>
    <cdml:text
       id="text70887">
      <cdml:font
         family="helvetica"
         size="10" />
      <cdml:point
         x="1.720cm"
         y="9.922cm" />
      <cdml:ftext>ADH = alcohol dehydrogenase</cdml:ftext>
    </cdml:text>
    <cdml:text
       id="text15522">
      <cdml:font
         family="helvetica"
         size="10" />
      <cdml:point
         x="1.561cm"
         y="10.478cm" />
      <cdml:ftext>ALDH = aldehyde dehydrogenase</cdml:ftext>
    </cdml:text>
  </cdml:cdml>
  <g
     style="font-size:15px;stroke:#000000;stroke-width:1;stroke-linecap:round;font-family:Helvetica"
     id="g3169"
     transform="translate(-275.2273,0.9323657)">
    <line
       id="line3171"
       y2="180.16"
       y1="188.75"
       x2="421"
       x1="406.14001" />
    <line
       id="line3173"
       y2="183.63"
       y1="192.21001"
       x2="423"
       x1="408.14001" />
  </g>
  <g
     style="font-size:15px;stroke:#000000;stroke-width:1;stroke-linecap:round;font-family:Helvetica"
     id="g3175"
     transform="translate(109.42968,6.4350051)">
    <line
       id="line3177"
       y2="180.16"
       y1="188.75"
       x2="421"
       x1="406.14001" />
    <line
       id="line3179"
       y2="183.63"
       y1="192.21001"
       x2="423"
       x1="408.14001" />
  </g>
</svg>
