<?xml version="1.0" encoding="UTF-8" standalone="no"?>
<!-- Created with Inkscape (http://www.inkscape.org/) -->
<svg
   xmlns:svg="http://www.w3.org/2000/svg"
   xmlns="http://www.w3.org/2000/svg"
   xmlns:xlink="http://www.w3.org/1999/xlink"
   version="1.0"
   viewBox="0 0 635.07001 284.98431"
   font-family="Arial, sans-serif"
   font-size="18">

  <metadata>
    <rdf:RDF
        xmlns:dc="http://purl.org/dc/elements/1.1/"
        xmlns:cc="http://creativecommons.org/ns#"
        xmlns:rdf="http://www.w3.org/1999/02/22-rdf-syntax-ns#">
      <cc:Work
         rdf:about="">
        <dc:format>image/svg+xml</dc:format>
        <dc:type
           rdf:resource="http://purl.org/dc/dcmitype/StillImage" />
        <dc:title>Scheme sodium-potassium pump</dc:title>
        <dc:creator rdf:resource="https://commons.wikimedia.org/wiki/User:LadyofHats" />
        <dc:contributor rdf:resource="https://commons.wikimedia.org/wiki/User:Dbrouse~commonswiki" />
        <dc:contributor rdf:resource="https://commons.wikimedia.org/wiki/User:Glrx" />
        <dc:date>2007-02-23</dc:date>
        <dc:publisher rdf:resource="https://commons.wikimedia.org" />
        <cc:license>Public domain</cc:license>
        <cc:attributionURL rdf:resource="https://commons.wikimedia.org/wiki/File:Scheme_sodium-potassium_pump-en.svg" />
        <cc:attributionName>Mariana Ruiz Villarreal</cc:attributionName>
      </cc:Work>
    </rdf:RDF>
  </metadata>

  <title>Scheme sodium-potassium pump</title>

  <defs>

    <g id="memtop">
      <g id="g56" transform="translate(-97.098137,-93.139648)">
        <path
           style="fill:#f9ecac;stroke:#000000;stroke-width:0.90170002"
           d="m 96.78613,93.05713 c -0.62598,0.12207 -1.09717,0.63135 -1.2002,1.2959 -0.22705,1.46191 -0.89844,2.76563 -1.60889,4.14551 -0.68262,1.32422 -1.38818,2.69336 -1.70703,4.25635 -0.63867,3.12793 -0.25098,6.70117 0.12354,10.1582 0.21777,2.01172 0.42432,3.91211 0.42432,5.64063 0,0.73828 0.59863,1.33789 1.33789,1.33789 0.73877,0 1.3374,-0.59961 1.3374,-1.33789 0,-1.87402 -0.22363,-3.93555 -0.43994,-5.92969 -0.22119,-2.04297 -0.44824,-4.12988 -0.44824,-6.07324 0,-1.1499 0.08008,-2.25 0.28613,-3.26074 0.24512,-1.20068 0.8374,-2.3501 1.46387,-3.56641 0.48438,-0.94141 0.96533,-1.91309 1.34033,-2.96143 0.27539,0.33936 0.54297,0.68457 0.74463,0.96826 0.87744,1.49951 1.00293,4.50781 1.07764,6.31006 0.03613,0.89941 0.05176,1.80664 0.05176,2.71826 0,2.12695 -0.08301,4.27344 -0.16406,6.37109 -0.08252,2.12891 -0.16699,4.33008 -0.16699,6.49414 0,0.73828 0.59863,1.33789 1.3374,1.33789 0.73877,0 1.33789,-0.59961 1.33789,-1.33789 0,-2.11133 0.084,-4.28711 0.16504,-6.39063 0.11768,-3.04688 0.23926,-6.19727 0.11279,-9.26514 -0.0923,-2.23828 -0.22852,-5.56396 -1.46924,-7.63867 -0.0225,-0.03808 -2.19092,-3.61425 -3.93604,-3.27245 z" />
        <circle
           style="fill:#f9ecac;stroke:#000000;stroke-width:0.90170002"
           r="6.1528301"
           cy="93.139648"
           cx="97.098137" />
      </g>
    </g>

    <g id="membot">
      <g id="g64" transform="translate(-97.098137,-93.139648)">
        <path
           style="fill:#f9ecac;stroke:#000000;stroke-width:0.90170002"
           d="m 97.41016,149.13379 c 0.62549,-0.12305 1.09668,-0.63086 1.2002,-1.29688 0.22656,-1.46094 0.89844,-2.76563 1.60938,-4.14453 0.68213,-1.32422 1.3877,-2.69336 1.70703,-4.25684 0.6377,-3.12793 0.25049,-6.70215 -0.12451,-10.1582 -0.21826,-2.01074 -0.42383,-3.91113 -0.42383,-5.64063 0,-0.73926 -0.59863,-1.33691 -1.3374,-1.33691 -0.73877,0 -1.33789,0.59766 -1.33789,1.33691 0,1.87402 0.22363,3.93457 0.43994,5.92871 0.22168,2.04492 0.44775,4.13086 0.44775,6.07422 0,1.15039 -0.0791,2.25 -0.28564,3.25977 -0.24512,1.20313 -0.83691,2.35059 -1.46387,3.56836 -0.48438,0.93945 -0.96533,1.91211 -1.34033,2.95898 -0.27539,-0.33789 -0.54297,-0.68262 -0.74463,-0.96777 -0.87793,-1.49902 -1.00342,-4.50684 -1.07715,-6.30957 -0.03662,-0.89844 -0.05273,-1.80566 -0.05273,-2.71777 0,-2.12793 0.0835,-4.27441 0.16455,-6.37109 0.08203,-2.12988 0.16699,-4.33105 0.16699,-6.49414 0,-0.73926 -0.59912,-1.33691 -1.33789,-1.33691 -0.73877,0 -1.3374,0.59766 -1.3374,1.33691 0,2.1123 -0.08398,4.28613 -0.16504,6.3916 -0.11816,3.04688 -0.23926,6.19727 -0.11279,9.26367 0.0918,2.23828 0.229,5.56445 1.46924,7.63867 0.02244,0.0371 2.1909,3.61524 3.93602,3.27344 z" />
        <circle
           style="fill:#f9ecac;stroke:#000000;stroke-width:0.90170002"
           r="6.1528301"
           cy="149.0498"
           cx="97.098137" />
      </g>
    </g>

    <g id="mem">
      <use xlink:href="#memtop"></use>
      <use xlink:href="#membot"></use>
    </g>

    <g id="pump1">
      <g transform="translate(-138.23876,-166.00819)">
        <path
         id="path672"
         style="fill:#b56300;stroke:#000000;stroke-width:0.99999642"
         d="m 138.23876,166.00819 c -4.20018,1.15527 -8.84274,0.22363 -8.08737,-5.29295 1.35742,-9.90816 3.76757,-19.20306 3.64159,-29.69325 -0.12939,-10.82125 -1.13037,-21.61418 -1.12988,-32.439825 4.9e-4,-6.627416 5.75633,-11.999467 12.85738,-11.999467 l 14.2851,0 c 7.09861,0 12.85348,5.369121 12.85738,11.993117 0.01,16.693305 0.38965,32.647345 -0.69873,49.319165 -0.31738,4.85545 8.94724,21.85246 -3.95213,18.69134 -7.74754,-1.8994 -6.86131,-24.55948 -16.79828,-18.18548 -3.91308,2.51073 -4.66259,10.75484 -7.55174,14.40326 -1.11181,1.40429 -3.20605,2.59471 -5.42332,3.20409 z" />
        <path
         id="path688"
         style="fill:#3f2500"
         d="m 144.9946,156.96134 0,-8.39156 -2.99511,-5.66697 4.33103,-7.33103 -4.97264,-5.69432 4.39257,-10.05953 -4.41747,-4.20507 3.66161,-10.45748 c 0,-6.214336 4.07957,-11.251908 9.11227,-11.251908 l 0,0 c 5.03221,0 9.11178,5.037582 9.11178,11.251908 l 0,51.80596" />
      </g>
    </g>

    <g id="pump2">
      <g transform="translate(-292.44925,-81.360057)">
        <path
           id="path711"
           style="fill:#b56300;stroke:#000000;stroke-width:0.99999642"
           d="m 292.44915,81.360057 c 1.62694,-1.658684 3.4824,-3.052719 5.54686,-3.969226 3.37401,-1.497554 5.82322,-1.747063 6.66403,1.849114 0.99902,4.273914 -3.04491,4.945782 -4.90721,7.718232 -1.97265,2.937979 -1.34862,3.787096 -1.31347,7.158174 0.0996,9.468229 1.0664,18.920339 1.22753,28.391009 0.14844,8.71091 0.2959,17.42182 0.44434,26.13271 0.1123,6.62693 -5.55076,12.09566 -12.65132,12.21676 l -14.28315,0.24316 c -7.09666,0.12012 -12.94332,-5.15037 -13.05953,-11.7734 -0.17676,-10.0732 -0.78515,-20.25578 -0.58788,-30.32118 0.17871,-9.12888 2.53954,-19.13177 -0.39551,-28.049697 -1.00732,-3.057609 -6.75437,-8.149381 -5.70213,-10.982871 2.33007,-6.273417 12.92671,1.096186 15.0639,4.455064 2.8164,4.425764 5.37547,26.357814 14.31294,17.641044 3.24853,-3.168446 2.29589,-8.753876 4.25487,-12.846141 1.31884,-2.75535 3.13183,-5.56344 5.38573,-7.862752 z" />
        <path
           id="path735"
           style="fill:#3f2500"
           d="m 287.78998,91.79557 c 0,0.0019 -0.0322,-1.899404 0.0928,5.43455 0,0 9.45017,8.67282 0.40234,20.00579 0,0 7.38084,10.66695 0.30078,21.34074 l 0.0791,4.66209 c 0.10352,6.17088 -3.88964,11.24312 -8.92185,11.32711 -5.03123,0.0859 -9.19527,-4.84666 -9.29879,-11.01754 l 0.16992,-9.3193 -3.01562,-5.65428 4.30271,-7.34764 -4.99412,-5.67576 4.3535,-10.07662 c 0,0 -4.32029,-4.08153 -4.43064,-4.18602 -0.30957,-0.29248 2.78612,-10.285128 3.35644,-9.71433 5.90429,5.903809 17.61127,0.810077 17.60346,0.22121 z" />
      </g>
    </g>

    <g id="Na">
      <title>sodium</title>
      <g transform="translate(-120.18359,-221.3291)">
        <polygon style="fill:#ff7f00;stroke:#ff4000"
          points="120.18359,221.3291 121.71875,213.875 128.94385,211.47559 134.63281,216.53223 133.09814,223.98828 133.09814,223.98828 125.87354,226.38672 " />
      </g>
    </g>

    <g id="K">
      <title>potassium</title>
      <ellipse
        style="fill:#ffbf00;stroke:#ff7f00"
        ry="6.8081799"
        rx="11.26385" />
    </g>

    <g id="phos">
      <title>phosphate</title>
      <polygon fill="#2f2f75" stroke="#000000" stroke-width="1.2"
               points="-7.75,5 0,1.25 0,-1.25, -7.75,-5 -19,-5 -19,5" />
    </g>
    
    <g id="ADP" >
      <title>ADP</title>
      <use xlink:href="#phos" x="-1"/>
      <use xlink:href="#phos" x="-22" />
      <polygon
         style="fill:#00a0c6;stroke:#000000;stroke-width:2.4"
         points="2,0 2,-30, 25,-15 " />
    </g>
    
    <g id="ATP">
      <title>ATP</title>
      <use xlink:href="#ADP" />
      <use xlink:href="#phos" x="-43" />
    </g>

    <linearGradient
       x1="727.50684"
       y1="-223.36621"
       x2="734.56995"
       y2="-47.589802"
       id="XMLID_18_"
       gradientUnits="userSpaceOnUse"
       gradientTransform="matrix(-1,0,0,-1,1349.1445,37.073748)">
      <stop
         style="stop-color:#ff7f00;stop-opacity:1"
         offset="0.00562"
         id="stop800" />
      <stop
         style="stop-color:#ffbf00;stop-opacity:1"
         offset="0.23596001"
         id="stop802" />
      <stop
         style="stop-color:#fff0c5;stop-opacity:1"
         offset="1"
         id="stop804" />
    </linearGradient>
    <linearGradient
       x1="588.66797"
       y1="22.79834"
       x2="595.74103"
       y2="198.82152"
       id="XMLID_17_"
       gradientUnits="userSpaceOnUse"
       gradientTransform="translate(0,5.0846502e-4)">
      <stop
         style="stop-color:#bf0000;stop-opacity:1"
         offset="0"
         id="stop791" />
      <stop
         style="stop-color:#ff4000;stop-opacity:1"
         offset="0.17416"
         id="stop793" />
      <stop
         style="stop-color:#ffcab9;stop-opacity:1"
         offset="1"
         id="stop795" />
    </linearGradient>
    <linearGradient
       x1="324.47461"
       y1="182.55762"
       x2="348.05328"
       y2="169.78586"
       id="XMLID_16_"
       gradientUnits="userSpaceOnUse"
       gradientTransform="matrix(-0.11326,-0.99362,-0.99362,0.11326,720.32141,501.78316)">
      <stop
         style="stop-color:#ff0000;stop-opacity:1"
         offset="0"
         id="stop744" />
      <stop
         style="stop-color:#ffffff;stop-opacity:1"
         offset="1"
         id="stop746" />
    </linearGradient>
    <linearGradient
       x1="-47.748051"
       y1="318.89648"
       x2="-24.166361"
       y2="306.12308"
       id="XMLID_15_"
       gradientUnits="userSpaceOnUse"
       gradientTransform="matrix(-0.71332,0.70078,-0.70078,-0.71332,345.08499,418.32155)">
      <stop
         style="stop-color:#b2b2b2;stop-opacity:1"
         offset="0"
         id="stop693" />
      <stop
         style="stop-color:#ffffff;stop-opacity:1"
         offset="1"
         id="stop695" />
    </linearGradient>
    <linearGradient
       x1="387.71777"
       y1="72.804199"
       x2="411.29715"
       y2="60.032051"
       id="XMLID_14_"
       gradientUnits="userSpaceOnUse"
       gradientTransform="matrix(0.75183,-0.65935,0.65935,0.75183,62.86533,291.03231)">
      <stop
         style="stop-color:#b2b2b2;stop-opacity:1"
         offset="0"
         id="stop36" />
      <stop
         style="stop-color:#ffffff;stop-opacity:1"
         offset="1"
         id="stop38" />
    </linearGradient>
    <linearGradient
       x1="-222.74658"
       y1="-146.22754"
       x2="-199.16739"
       y2="-158.99959"
       id="XMLID_13_"
       gradientUnits="userSpaceOnUse"
       gradientTransform="matrix(0.02682,0.99961,0.99961,-0.02682,447.47021,272.28506)">
      <stop
         style="stop-color:#ff0000;stop-opacity:1"
         offset="0"
         id="stop29" />
      <stop
         style="stop-color:#ffffff;stop-opacity:1"
         offset="1"
         id="stop31" />
    </linearGradient>
    <linearGradient
       x1="270.04492"
       y1="86.78125"
       x2="293.62305"
       y2="74.009781"
       id="XMLID_12_"
       gradientUnits="userSpaceOnUse"
       gradientTransform="matrix(0.24581,0.96935,-0.96935,0.24581,276.25372,-220.58817)">
      <stop
         style="stop-color:#ff4000;stop-opacity:1"
         offset="0"
         id="stop22" />
      <stop
         style="stop-color:#ffffff;stop-opacity:1"
         offset="1"
         id="stop24" />
    </linearGradient>
    <linearGradient
       x1="376.73633"
       y1="289.8291"
       x2="400.31464"
       y2="277.05753"
       id="XMLID_11_"
       gradientUnits="userSpaceOnUse"
       gradientTransform="matrix(0.09992,-0.99505,0.99505,0.09992,204.58835,537.43947)">
      <stop
         style="stop-color:#ff0000;stop-opacity:1"
         offset="0"
         id="stop15" />
      <stop
         style="stop-color:#ffffff;stop-opacity:1"
         offset="1"
         id="stop17" />
    </linearGradient>
    <radialGradient
       cx="280.59473"
       cy="175.56641"
       r="30.544161"
       id="XMLID_10_"
       gradientUnits="userSpaceOnUse"
       gradientTransform="translate(0,5.0846502e-4)">
      <stop
         style="stop-color:#ffffff;stop-opacity:1"
         offset="0"
         id="stop6" />
      <stop
         style="stop-color:#ffff00;stop-opacity:1"
         offset="0.31461"
         id="stop8" />
      <stop
         style="stop-color:#ff4000;stop-opacity:1"
         offset="1"
         id="stop10" />
    </radialGradient>
    <linearGradient
       xlink:href="#XMLID_18_"
       id="linearGradient3480"
       gradientUnits="userSpaceOnUse"
       gradientTransform="matrix(-0.9999964,0,0,-0.9999964,1349.1396,37.073615)"
       x1="727.50684"
       y1="-223.36621"
       x2="734.56995"
       y2="-47.589802" />
    <linearGradient
       xlink:href="#XMLID_17_"
       id="linearGradient3483"
       gradientUnits="userSpaceOnUse"
       gradientTransform="matrix(0.9999964,0,0,0.9999964,0,5.0846319e-4)"
       x1="588.66797"
       y1="22.79834"
       x2="595.74103"
       y2="198.82152" />
    <linearGradient
       xlink:href="#XMLID_16_"
       id="linearGradient3506"
       gradientUnits="userSpaceOnUse"
       gradientTransform="matrix(-0.11325959,-0.99361642,-0.99361642,0.11325959,720.31882,501.78135)"
       x1="324.47461"
       y1="182.55762"
       x2="348.05328"
       y2="169.78586" />
    <linearGradient
       xlink:href="#XMLID_15_"
       id="linearGradient3531"
       gradientUnits="userSpaceOnUse"
       gradientTransform="matrix(-0.71331743,0.70077748,-0.70077748,-0.71331743,345.08375,418.32004)"
       x1="-47.748051"
       y1="318.89648"
       x2="-24.166361"
       y2="306.12308" />
    <linearGradient
       xlink:href="#XMLID_14_"
       id="linearGradient3859"
       gradientUnits="userSpaceOnUse"
       gradientTransform="matrix(0.75182729,-0.65934763,0.65934763,0.75182729,62.865104,291.03126)"
       x1="387.71777"
       y1="72.804199"
       x2="411.29715"
       y2="60.032051" />
    <linearGradient
       xlink:href="#XMLID_13_"
       id="linearGradient3862"
       gradientUnits="userSpaceOnUse"
       gradientTransform="matrix(0.0268199,0.9996064,0.9996064,-0.0268199,447.4686,272.28408)"
       x1="-222.74658"
       y1="-146.22754"
       x2="-199.16739"
       y2="-158.99959" />
    <linearGradient
       xlink:href="#XMLID_12_"
       id="linearGradient3865"
       gradientUnits="userSpaceOnUse"
       gradientTransform="matrix(0.24580912,0.96934651,-0.96934651,0.24580912,276.25273,-220.58738)"
       x1="270.04492"
       y1="86.78125"
       x2="293.62305"
       y2="74.009781" />
    <linearGradient
       xlink:href="#XMLID_11_"
       id="linearGradient3868"
       gradientUnits="userSpaceOnUse"
       gradientTransform="matrix(0.09991964,-0.99504642,0.99504642,0.09991964,204.58761,537.43754)"
       x1="376.73633"
       y1="289.8291"
       x2="400.31464"
       y2="277.05753" />
    <radialGradient
       xlink:href="#XMLID_10_"
       id="radialGradient3871"
       gradientUnits="userSpaceOnUse"
       gradientTransform="matrix(0.9999964,0,0,0.9999964,0,5.0846319e-4)"
       cx="280.59473"
       cy="175.56641"
       r="30.544161" />
  </defs>

  <!-- explosion -->
  <path
     id="path12"
     style="fill:url(#radialGradient3871)"
     d="m 250.21199,171.78454 c 5.21043,1.64063 12.51704,2.91015 14.88911,7.29588 3.58934,6.63474 -8.32077,18.75579 -11.4985,24.10636 4.17723,-4.09667 14.1186,-15.34077 20.39592,-15.79291 6.9116,-0.49902 5.40135,8.72066 5.30271,13.62593 0.15625,-7.77244 7.15623,-11.03316 12.38717,-15.00483 6.97849,-5.29881 13.42378,-4.76365 22.11613,-4.77635 -2.64159,-0.17285 -12.89936,-2.45507 -14.03901,-5.31639 -1.82421,-4.58104 6.84666,-7.18748 10.06051,-8.76071 -3.17771,2.21386 -14.9892,4.54393 -17.72942,1.58983 3.48339,-7.49118 11.14449,-13.21089 14.51069,-20.80656 -5.23924,2.25683 -9.08298,7.51071 -14.24116,10.09859 -8.1694,4.0996 -8.00095,-4.45896 -15.76948,-2.80956 -5.36131,1.1377 -9.81881,9.19528 -16.01068,1.6084 2.61425,3.20311 8.35739,6.17282 4.92381,10.56344 -3.35594,4.291 -13.4438,2.87597 -18.12688,3.3164 0.8203,0.38767 1.78269,0.7324 2.82908,1.06248 z" />

  <!-- pump number 3 arrow -->
  <path
     id="path40"
     style="fill:url(#linearGradient3859)"
     d="m 403.60304,83.484079 -4.07421,-1.249505 5.19041,8.768038 3.89843,-9.847134 -3.45702,2.951159 c 0,0 -1.35253,-18.226004 12.18941,-18.982351 l -5.14939,-5.872539 c -13.29293,11.657668 -8.59763,24.232332 -8.59763,24.232332 z" />

  <g transform="scale(0.9999964,0.9999964)">
    <title>membrane</title>
    <use xlink:href="#mem" x="10.41992" y="93.453613"/>
    <use xlink:href="#mem" x="24.907471" y="93.175781"/>
    <use xlink:href="#mem" x="39.999271" y="92.990723"/>
    <use xlink:href="#mem" x="54.512211" y="93.370613"/>
    <use xlink:href="#mem" x="69" y="93.092773"/>
    <use xlink:href="#mem" x="83.396477" y="93.162598"/>
    <use xlink:href="#mem" x="97.098137" y="93.139648"/>
    <use xlink:href="#mem" x="110.88379" y="93.003906"/>
    <use xlink:href="#mem" x="124.79492" y="92.73584"/>

    <use xlink:href="#mem" x="181.10327" y="93.139648"/>
    <use xlink:href="#mem" x="194.88892" y="93.003906"/>
    <use xlink:href="#mem" x="208.80005" y="92.73584"/>
    <use xlink:href="#mem" x="223.31299" y="93.115723"/>
    <use xlink:href="#mem" x="237.22388" y="92.847656"/>
    <use xlink:href="#mem" x="251.43359" y="93.20459"/>

    <use xlink:href="#mem" x="308.16895" y="93.20459"/>
    <use xlink:href="#mem" x="322.04395" y="93.60498"/>
    <use xlink:href="#mem" x="335.95508" y="93.336906"/>
    <use xlink:href="#mem" x="350.16455" y="93.693848"/>
    <use xlink:href="#mem" x="363.9502" y="93.557617"/>
    <use xlink:href="#mem" x="377.86035" y="93.290039"/>

    <use xlink:href="#mem" x="434.16895" y="93.693848"/>
    <use xlink:href="#mem" x="447.95508" y="93.557617"/>
    <use xlink:href="#mem" x="461.86621" y="93.290039"/>
    <use xlink:href="#mem" x="475.47266" y="93.716309"/>
    <use xlink:href="#mem" x="489.38379" y="93.449219"/>

    <use xlink:href="#mem" x="545.5" y="93.758301"/>
    <use xlink:href="#mem" x="559.47754" y="93.716797"/>
    <use xlink:href="#mem" x="573.38965" y="93.449219"/>
    
    <g>
      <rect
         id="rect606"
         style="opacity:0.7;fill:#ffffff"
         y="104.35461"
         x="0"
         height="33.390018"
         width="126.9346" />
      <text x="63.5" y="126" font-size="16" text-anchor="middle">Cell membrane</text>
    </g>
  </g>

  <text x="6" y="19" fill="#9e5823">Extracellular space</text>
  <text x="6" y="277" fill="#9e5823">Intracellular space</text>

  <use xlink:href="#K" transform="matrix(0.9993264,0.03649987,-0.03649987,0.9993264,7.7143925,-19.58662) translate(540.29736,201.48926)" />
  <use xlink:href="#K" transform="scale(0.9999964,0.9999964) translate(466.08203,49.997559)" />
  <use xlink:href="#K" transform="matrix(0.6998975,-0.7142375,0.7142375,0.6998975,-26.997154,65.209408) translate(64.100594,64.731453)" />
  <use xlink:href="#K" transform="matrix(0.8576669,-0.5142082,0.5142082,0.8576669,-82.248427,151.25485) translate(232.09326,224.19629)" />
  <use xlink:href="#K" transform="matrix(0.7606073,-0.6491977,0.6491977,0.7606073,13.586992,408.00226) translate(560.03711,185.57812)" />

  <use xlink:href="#K" transform="matrix(0.8576669,-0.5141982,0.5141982,0.8576669,29.696244,192.4035) translate(362.4043,42.559078)" />

  <g font-size="16">
    <text x="482" y="45" class="Q703">Potassium</text>
    <text x="482" y="65">
      K<tspan baseline-shift="super">+</tspan>
    </text>
  </g>

  <g font-size="16">
    <text x="140" y="48" class="Q658">Sodium</text>
    <text x="140" y="68">
      Na<tspan baseline-shift="super">+</tspan>
    </text>
  </g>
  
  <!-- pump number 1 -->
  <use xlink:href="#pump1" x="138.23876" y="166.00819" />

  <!-- sodium inside pump number 1 -->
  <use xlink:href="#Na" transform="translate(141.97119,130.27148) rotate(7) " />

  <!-- arrow into pump number 1 -->
  <path
     id="path697"
     style="fill:url(#linearGradient3531)"
     d="m 154.79583,164.08925 4.13964,1.01758 -5.6782,-8.46188 -3.33495,10.05269 3.28417,-3.14159 c 0,0 2.38036,18.12006 -11.09762,19.64056 l 5.47361,5.57322 c 12.61372,-12.39058 7.21335,-24.68058 7.21335,-24.68058 z" />

  <!-- sodium inside pump number 1 -->
  <use xlink:href="#Na" transform="translate(142.46289,115.61328) rotate(6)" />

  <!-- pump number 2 -->
  <use xlink:href="#pump2" x="292.44925" y="81.360057" />

  <!-- phosphate inside pump number 2; width 275 to 285 (10); height 164 to 145 (12) -->
  <polygon visibility="hidden"
     id="polygon737"
     style="fill:#2f2f75;stroke:#000000;stroke-width:1.21668005"
     points="285.16357,156.90918 281.84521,164.65137 279.37891,164.65137 275.33008,156.90918 275.33008,145.70703 275.33008,145.70703 285.16357,145.70703 " />
  <use xlink:href="#phos" transform="translate(280.3,164.65) rotate(90)" />
  
  <!-- pump number 2 top left arrow -->
  <path
     id="path26"
     style="fill:url(#linearGradient3865)"
     d="m 263.85989,66.64283 2.96435,-3.062979 -10.16891,0.641598 7.00143,7.945281 -1.05859,-4.419904 c 0,0 16.8515,7.074195 11.3735,19.48284 l 7.57127,-1.920893 C 277.19627,68.171145 263.85989,66.64283 263.85989,66.64283 z" />
  <!-- pump number 2 top right arrow -->
  <path
     id="path33"
     style="fill:url(#linearGradient3862)"
     d="m 291.29778,58.974888 -3.68407,-2.141103 9.95944,-2.146472 -4.57811,9.550256 -0.18164,-4.542464 c 0,0 -14.29536,11.387659 -5.65086,21.840251 l -7.80857,0.20898 c -0.4746,-17.673767 11.94381,-22.769448 11.94381,-22.769448 z" />

  <!-- pump number 3 -->
  <use xlink:href="#pump2" x="419.35982" y="80.293661" />

  <!-- phosphate inside pump number 3 -->
  <use xlink:href="#phos" transform="translate(407,163.58) rotate(90)" />
  
  <!-- pump number 4 -->
  <use xlink:href="#pump1" x="503.23745" y="162.00821" />
  
  <!-- pump number 4 left arrow -->
  <path
     id="path748"
     style="fill:url(#linearGradient3506)"
     d="m 505.71791,194.29715 3.85741,1.81444 -9.73825,3.00097 3.73534,-9.91012 0.57422,4.50877 c 0,0 13.25581,-12.581 3.73924,-22.24797 l 7.76071,-0.88476 c 2.00293,17.5683 -9.92867,23.71867 -9.92867,23.71867 z" />
  <!-- pump number 4 right arrow -->
  <path
     id="path19"
     style="fill:url(#linearGradient3868)"
     d="m 527.00787,185.81769 -3.83299,1.8662 9.7773,2.87011 -3.86717,-9.85934 -0.51465,4.51658 c 0,0 -13.4228,-12.40327 -4.0371,-22.19621 l -7.77145,-0.78026 c -1.76757,17.59368 10.24606,23.58292 10.24606,23.58292 z" />
  
  <!-- free phosphate released -->
  <use xlink:href="#phos" transform="translate(496.5,200) rotate(-11.3)" />
  
  <use xlink:href="#Na" x="120.18359" y="221.3291" />
  <use xlink:href="#Na" x="13.41455" y="182.93262" />
  <use xlink:href="#Na" x="62.91309" y="40.43848" />
  <use xlink:href="#Na" x="358.86914" y="202.99023" />
  <use xlink:href="#Na" x="352.08691" y="70.99561" />
  <use xlink:href="#Na" x="302.55371" y="63.03369" />
  <use xlink:href="#Na" x="422.89551" y="32.93896" />
  <use xlink:href="#Na" x="120.65869" y="52.83691" />
  <use xlink:href="#Na" x="16.104" y="61.56152" />

  <use xlink:href="#Na" x="279.82959" y="45.48535" />
  <use xlink:href="#Na" x="238.51367" y="61.37695" />
  <use xlink:href="#Na" x="140.96875" y="185.65137" />

  <use xlink:href="#K" transform="matrix(-0.03584987,0.9993564,-0.9993564,-0.03584987,552.88707,-278.93767) translate(411.00049,127.23633)" />

  <use xlink:href="#K" transform="matrix(0.6820576,-0.7312874,0.7312874,0.6820576,81.738239,318.99968) translate(407.74072,65.49585)" />

  <text x="487" y="224" font-size="16" text-anchor="middle">
    P<tspan baseline-shift="sub">i</tspan>
  </text>
  <use xlink:href="#K" transform="matrix(0.6999175,-0.7142175,0.7142175,0.6999175,4.1744251,375.82483) translate(449.33789,182.94531)" />
  <use xlink:href="#K" transform="matrix(0.8576669,-0.5141982,0.5141982,0.8576669,-71.988884,199.89263) translate(325.08984,229.98682)" />
  <use xlink:href="#K" transform="matrix(0.6820276,-0.7313174,0.7313174,0.6820276,-73.220439,207.57049) translate(202.09473,187.98877)" />

  <text x="93" y="188" font-size="16" class="Q80863" text-anchor="end">ATP</text>
  <use xlink:href="#ATP" x="98" y="202" />

  <use xlink:href="#ADP" x="330" y="190" />
  <path
     style="fill:none;stroke:#000000;stroke-width:1px;stroke-linecap:butt;stroke-linejoin:miter;stroke-opacity:1"
     d="m 278.24253,191.64979 c 0,0 5.07317,-8.45381 5.72334,-13.20771 0.58213,-4.25648 -1.76103,-12.76746 -1.76103,-12.76746 l -1.32077,9.2454"
     id="path3950" />
  <path
     style="fill:none;stroke:#000000;stroke-width:1px;stroke-linecap:butt;stroke-linejoin:miter;stroke-opacity:1"
     d="m 282.20484,166.55514 4.40257,5.28308"
     id="path3952" />

  <text x="419" y="216" font-size="16" class="Q185253" text-anchor="end">ADP</text>
  <use xlink:href="#ADP" x="424" y="230" />
  
  <g>
    <title>concentration scale</title>
    
    <rect
       id="rect797"
       style="fill:url(#linearGradient3483);stroke:#666666"
       y="22.46818"
       x="582.6366"
       height="238.26721"
       width="21.605392" />
    <text x="598" y="19" font-size="16" text-anchor="middle" fill="#ff4000">
      Na<tspan baseline-shift="super">+</tspan>
    </text>
    <text x="593" y="40" font-size="20" font-weight="bold" text-anchor="middle">+</text>
    <text x="593" y="256" font-size="20" font-weight="bold" text-anchor="middle">&#x2212;</text>

    <rect
       id="rect806"
       style="fill:url(#linearGradient3480);stroke:#666666"
       y="22.868078"
       x="605.25366"
       height="237.86731"
       width="23.232336" />
    <text x="616.6" y="282" font-size="16" text-anchor="middle">
      K<tspan baseline-shift="super">+</tspan>
    </text>
    <text x="617" y="40" font-size="20" font-weight="bold" text-anchor="middle">&#x2212;</text>
    <text x="617" y="256" font-size="20" font-weight="bold" text-anchor="middle">+</text>
    <text transform="translate(622,140) rotate(-90)" font-size="16" fill="#ff7f00" text-anchor="middle">concentration</text>
  </g>

</svg>
