<?xml version="1.0" encoding="UTF-8" standalone="no"?><svg xmlns="http://www.w3.org/2000/svg" xmlns:xlink="http://www.w3.org/1999/xlink" contentScriptType="application/ecmascript" contentStyleType="text/css" height="827px" preserveAspectRatio="none" style="width:473px;height:827px;" version="1.1" viewBox="0 0 473 827" width="473px" zoomAndPan="magnify"><defs><filter height="300%" id="f148h3wyh40m4" width="300%" x="-1" y="-1"><feGaussianBlur result="blurOut" stdDeviation="2.0"/><feColorMatrix in="blurOut" result="blurOut2" type="matrix" values="0 0 0 0 0 0 0 0 0 0 0 0 0 0 0 0 0 0 .4 0"/><feOffset dx="4.0" dy="4.0" in="blurOut2" result="blurOut3"/><feBlend in="SourceGraphic" in2="blurOut3" mode="normal"/></filter></defs><g><ellipse cx="177" cy="18" fill="#000000" filter="url(#f148h3wyh40m4)" rx="10" ry="10" style="stroke: none; stroke-width: 1.0;"/><rect fill="#00FF00" filter="url(#f148h3wyh40m4)" height="78.875" rx="12.5" ry="12.5" style="stroke: #A80036; stroke-width: 1.5;" width="195" x="79.5" y="69"/><text fill="#000000" font-family="sans-serif" font-size="12" lengthAdjust="spacingAndGlyphs" textLength="175" x="89.5" y="90.1387">Determine cation and anion</text><text fill="#000000" font-family="sans-serif" font-size="12" lengthAdjust="spacingAndGlyphs" textLength="0" x="179" y="104.1074"/><text fill="#000000" font-family="sans-serif" font-size="12" lengthAdjust="spacingAndGlyphs" textLength="147" x="103.5" y="118.0762">Cation=Na, charge=1+</text><text fill="#000000" font-family="sans-serif" font-size="12" lengthAdjust="spacingAndGlyphs" textLength="62" x="106" y="132.0449">Anion=CO</text><text fill="#000000" font-family="sans-serif" font-size="9" lengthAdjust="spacingAndGlyphs" textLength="6" x="168" y="135.7524">3</text><text fill="#000000" font-family="sans-serif" font-size="12" lengthAdjust="spacingAndGlyphs" textLength="74" x="174" y="132.0449">, charge=2-</text><polygon fill="#FEFECE" filter="url(#f148h3wyh40m4)" points="177,208,189,220,177,232,165,220,177,208" style="stroke: #A80036; stroke-width: 1.5;"/><rect fill="#FEFECE" filter="url(#f148h3wyh40m4)" height="33.9688" rx="12.5" ry="12.5" style="stroke: #A80036; stroke-width: 1.5;" width="91" x="131.5" y="271"/><text fill="#000000" font-family="sans-serif" font-size="12" lengthAdjust="spacingAndGlyphs" textLength="71" x="141.5" y="292.1387">Write name​</text><rect fill="#000000" filter="url(#f148h3wyh40m4)" height="8" style="stroke: none; stroke-width: 1.0;" width="80" x="235" y="566"/><rect fill="#00FF00" filter="url(#f148h3wyh40m4)" height="61.9063" rx="12.5" ry="12.5" style="stroke: #A80036; stroke-width: 1.5;" width="91" x="243.5" y="189"/><text fill="#000000" font-family="sans-serif" font-size="12" lengthAdjust="spacingAndGlyphs" textLength="71" x="253.5" y="210.1387">Write name</text><text fill="#000000" font-family="sans-serif" font-size="12" lengthAdjust="spacingAndGlyphs" textLength="0" x="291" y="224.1074"/><text fill="#000000" font-family="sans-serif" font-size="12" lengthAdjust="spacingAndGlyphs" textLength="46" x="266" y="238.0762">Sodium</text><polygon fill="#FEFECE" filter="url(#f148h3wyh40m4)" points="289,325,301,337,289,349,277,337,289,325" style="stroke: #A80036; stroke-width: 1.5;"/><rect fill="#FEFECE" filter="url(#f148h3wyh40m4)" height="33.9688" rx="12.5" ry="12.5" style="stroke: #A80036; stroke-width: 1.5;" width="133" x="208.5" y="403"/><text fill="#000000" font-family="sans-serif" font-size="12" lengthAdjust="spacingAndGlyphs" textLength="113" x="218.5" y="424.1387">Determine charge</text><rect fill="#FEFECE" filter="url(#f148h3wyh40m4)" height="33.9688" rx="12.5" ry="12.5" style="stroke: #A80036; stroke-width: 1.5;" width="100" x="225" y="491"/><text fill="#000000" font-family="sans-serif" font-size="12" lengthAdjust="spacingAndGlyphs" textLength="80" x="235" y="512.1387">Write charge</text><polygon fill="#FEFECE" filter="url(#f148h3wyh40m4)" points="275,615,287,627,275,639,263,627,275,615" style="stroke: #A80036; stroke-width: 1.5;"/><rect fill="#FEFECE" filter="url(#f148h3wyh40m4)" height="33.9688" rx="12.5" ry="12.5" style="stroke: #A80036; stroke-width: 1.5;" width="300" x="6" y="707"/><text fill="#000000" font-family="sans-serif" font-size="12" lengthAdjust="spacingAndGlyphs" textLength="280" x="16" y="728.1387">Write name but replace last syllable with -ide</text><ellipse cx="274" cy="806" fill="none" filter="url(#f148h3wyh40m4)" rx="10" ry="10" style="stroke: #000000; stroke-width: 1.0;"/><ellipse cx="274.5" cy="806.5" fill="#000000" rx="6" ry="6" style="stroke: none; stroke-width: 1.0;"/><rect fill="#00FF00" filter="url(#f148h3wyh40m4)" height="61.9063" rx="12.5" ry="12.5" style="stroke: #A80036; stroke-width: 1.5;" width="136" x="326" y="693"/><text fill="#000000" font-family="sans-serif" font-size="12" lengthAdjust="spacingAndGlyphs" textLength="71" x="358.5" y="714.1387">Write name</text><text fill="#000000" font-family="sans-serif" font-size="12" lengthAdjust="spacingAndGlyphs" textLength="0" x="396" y="728.1074"/><text fill="#000000" font-family="sans-serif" font-size="12" lengthAdjust="spacingAndGlyphs" textLength="116" x="336" y="742.0762">Sodium Carbonate</text><!--link start to Determine cation and anion\n\nCation=Na, charge=1+\nAnion=CO<sub>3</sub>, charge=2- --><path d="M177,28.0309 C177,36.8065 177,50.2072 177,63.5706 " fill="none" id="start-Determine cation and anion\n\nCation=Na, charge=1+\nAnion=CO&lt;sub&gt;3&lt;/sub&gt;, charge=2-" style="stroke: #007F00; stroke-width: 1.0;"/><polygon fill="#007F00" points="177,68.8794,181,59.8794,177,63.8794,173,59.8794,177,68.8794" style="stroke: #007F00; stroke-width: 1.0;"/><!--link Determine cation and anion\n\nCation=Na, charge=1+\nAnion=CO<sub>3</sub>, charge=2- to #5--><path d="M177,148.1247 C177,166.856 177,188.2447 177,202.7856 " fill="none" id="Determine cation and anion\n\nCation=Na, charge=1+\nAnion=CO&lt;sub&gt;3&lt;/sub&gt;, charge=2--#5" style="stroke: #007F00; stroke-width: 1.0;"/><polygon fill="#007F00" points="177,207.8153,181,198.8153,177,202.8153,173,198.8153,177,207.8153" style="stroke: #007F00; stroke-width: 1.0;"/><text fill="#007F00" font-family="sans-serif" font-size="11" lengthAdjust="spacingAndGlyphs" textLength="68" x="91.45" y="197.3569">cation type?</text><!--link #5 to Write name&#8203;--><path d="M177,232.157 C177,241.415 177,254.4198 177,265.5504 " fill="none" id="#5-Write name&amp;#8203;" style="stroke: #A80036; stroke-width: 1.0;"/><polygon fill="#A80036" points="177,270.8394,181,261.8394,177,265.8394,173,261.8394,177,270.8394" style="stroke: #A80036; stroke-width: 1.0;"/><text fill="#000000" font-family="sans-serif" font-size="11" lengthAdjust="spacingAndGlyphs" textLength="51" x="125" y="248.6443">molecule</text><!--link Write name&#8203; to CAT_WRITE--><path d="M177,305.1995 C177,322.9382 177,351.4028 177,376 C177,376 177,376 177,508 C177,541.3058 217.9235,557.4569 246.8802,564.7163 " fill="none" id="Write name&amp;#8203;-CAT_WRITE" style="stroke: #A80036; stroke-width: 1.0;"/><polygon fill="#A80036" points="251.7754,565.8886,243.9544,559.9026,246.9129,564.7242,242.0913,567.6827,251.7754,565.8886" style="stroke: #A80036; stroke-width: 1.0;"/><!--link #5 to Write name\n\nSodium--><path d="M189.4139,220 C201.3356,220 220.1543,220 238.2381,220 " fill="none" id="#5-Write name\n\nSodium" style="stroke: #007F00; stroke-width: 1.0;"/><polygon fill="#007F00" points="243.3128,220,234.3128,216,238.3128,220,234.3128,224,243.3128,220" style="stroke: #007F00; stroke-width: 1.0;"/><text fill="#007F00" font-family="sans-serif" font-size="11" lengthAdjust="spacingAndGlyphs" textLength="29" x="203.75" y="214.2104">atom</text><!--link Write name\n\nSodium to #14--><path d="M289,251.0467 C289,273.0107 289,301.6522 289,319.6892 " fill="none" id="Write name\n\nSodium-#14" style="stroke: #007F00; stroke-width: 1.0;"/><polygon fill="#007F00" points="289,324.9273,293,315.9273,289,319.9273,285,315.9273,289,324.9273" style="stroke: #007F00; stroke-width: 1.0;"/><text fill="#007F00" font-family="sans-serif" font-size="11" lengthAdjust="spacingAndGlyphs" textLength="63" x="218.5471" y="301.466">predictable</text><text fill="#007F00" font-family="sans-serif" font-size="11" lengthAdjust="spacingAndGlyphs" textLength="45" x="227.5471" y="314.2707">charge?</text><!--link #14 to CAT_WRITE--><path d="M296.2847,341.7189 C310.2843,351.2802 340.5708,374.4738 352,403 C357.6201,417.0271 353.4396,421.9576 352,437 C348.205,476.653 356.1278,491.2304 335,525 C323.8056,542.8926 302.7324,556.168 288.7785,563.4998 " fill="none" id="#14-CAT_WRITE" style="stroke: #007F00; stroke-width: 1.0;"/><polygon fill="#007F00" points="283.9912,565.9296,293.827,565.4232,288.4498,563.6667,290.2063,558.2894,283.9912,565.9296" style="stroke: #007F00; stroke-width: 1.0;"/><text fill="#007F00" font-family="sans-serif" font-size="11" lengthAdjust="spacingAndGlyphs" textLength="48" x="351" y="468.2104">yes (1+)</text><!--link #14 to Determine charge--><path d="M287.2269,347.512 C285.1115,360.0531 281.5166,381.3661 278.7707,397.6454 " fill="none" id="#14-Determine charge" style="stroke: #A80036; stroke-width: 1.0;"/><polygon fill="#A80036" points="277.8754,402.9532,283.3167,394.7439,278.7071,398.0229,275.4282,393.4132,277.8754,402.9532" style="stroke: #A80036; stroke-width: 1.0;"/><text fill="#000000" font-family="sans-serif" font-size="11" lengthAdjust="spacingAndGlyphs" textLength="14" x="284" y="380.2104">no</text><!--link Determine charge to Write charge--><path d="M275,437.386 C275,451.2154 275,470.6635 275,485.6491 " fill="none" id="Determine charge-Write charge" style="stroke: #A80036; stroke-width: 1.0;"/><polygon fill="#A80036" points="275,490.9496,279,481.9496,275,485.9496,271,481.9496,275,490.9496" style="stroke: #A80036; stroke-width: 1.0;"/><!--link Write charge to CAT_WRITE--><path d="M275,525.2705 C275,536.6646 275,551.1598 275,560.5087 " fill="none" id="Write charge-CAT_WRITE" style="stroke: #A80036; stroke-width: 1.0;"/><polygon fill="#A80036" points="275,565.5908,279,556.5908,275,560.5908,271,556.5908,275,565.5908" style="stroke: #A80036; stroke-width: 1.0;"/><!--link CAT_WRITE to #23--><path d="M275,574.0993 C275,581.4254 275,597.1603 275,609.5751 " fill="none" id="CAT_WRITE-#23" style="stroke: #007F00; stroke-width: 1.0;"/><polygon fill="#007F00" points="275,614.6582,279,605.6582,275,609.6582,271,605.6582,275,614.6582" style="stroke: #007F00; stroke-width: 1.0;"/><text fill="#007F00" font-family="sans-serif" font-size="11" lengthAdjust="spacingAndGlyphs" textLength="65" x="194.9688" y="604.5717">anion type?</text><!--link #23 to Write name but replace last syllable with -ide--><path d="M268.2611,632.4931 C251.7654,645.9391 208.6851,681.055 180.9435,703.6679 " fill="none" id="#23-Write name but replace last syllable with -ide" style="stroke: #A80036; stroke-width: 1.0;"/><polygon fill="#A80036" points="176.9667,706.9095,186.47,704.3235,180.8423,703.7504,181.4154,698.1226,176.9667,706.9095" style="stroke: #A80036; stroke-width: 1.0;"/><text fill="#000000" font-family="sans-serif" font-size="11" lengthAdjust="spacingAndGlyphs" textLength="29" x="235" y="670.2104">atom</text><!--link Write name but replace last syllable with -ide to end--><path d="M180.7367,741.1899 C205.2833,758.2477 241.9388,783.7201 261.1693,797.0837 " fill="none" id="Write name but replace last syllable with -ide-end" style="stroke: #A80036; stroke-width: 1.0;"/><polygon fill="#A80036" points="265.665,800.2079,260.5569,791.7873,261.559,797.3546,255.9917,798.3568,265.665,800.2079" style="stroke: #A80036; stroke-width: 1.0;"/><!--link #23 to Write name\n\nSodium Carbonate--><path d="M281.7389,632.4931 C295.0867,643.3732 325.841,668.4418 351.7904,689.5938 " fill="none" id="#23-Write name\n\nSodium Carbonate" style="stroke: #007F00; stroke-width: 1.0;"/><polygon fill="#007F00" points="355.9104,692.9522,351.4617,684.1653,352.0348,689.7931,346.4071,690.3662,355.9104,692.9522" style="stroke: #007F00; stroke-width: 1.0;"/><text fill="#007F00" font-family="sans-serif" font-size="11" lengthAdjust="spacingAndGlyphs" textLength="51" x="331" y="670.2104">molecule</text><!--link Write name\n\nSodium Carbonate to end--><path d="M348.6331,755.0007 C326.4985,770.1261 301.5341,787.185 286.8177,797.2413 " fill="none" id="Write name\n\nSodium Carbonate-end" style="stroke: #007F00; stroke-width: 1.0;"/><polygon fill="#007F00" points="282.594,800.1275,292.2815,798.3522,286.7222,797.3065,287.7679,791.7471,282.594,800.1275" style="stroke: #007F00; stroke-width: 1.0;"/><!--
@startuml
(*) -[#007F00]-> "Determine cation and anion\n\nCation=Na, charge=1+\nAnion=CO<sub>3</sub>, charge=2-" #00FF00

-[#007F00]-> if "<color:#007F00> cation type?" then
    -> [molecule] "Write name&#8203;"
    - -> ===CAT_WRITE===
else
    -[#007F00]> [<color:#007F00> atom] "Write name\n\nSodium" #00FF00
    -[#007F00]-> if "<color:#007F00>predictable\n<color:#007F00>charge?" then
        -[#007F00]-> [<color:#007F00>yes (1+)] ===CAT_WRITE===
    else
        - -> [no] "Determine charge"
        - -> "Write charge"
        - -> ===CAT_WRITE===
    endif
endif

-[#007F00]-> if "<color:#007F00>anion type?" then
    - -> [atom] "Write name but replace last syllable with -ide"
    - -> (*)
else
    -[#007F00]-> [<color:#007F00>molecule] "Write name\n\nSodium Carbonate" #00FF00
    -[#007F00]-> (*)
endif

@enduml

PlantUML version 1.2019.08(Sat Jul 13 19:25:14 GMT 2019)
(GPL source distribution)
Java Runtime: OpenJDK Runtime Environment
JVM: OpenJDK 64-Bit Server VM
Java Version: 11.0.4+4-alpine-r1
Operating System: Linux
OS Version: 5.3.0-23-generic
Default Encoding: UTF-8
Language: en
Country: US
--></g></svg>