<?xml version="1.0" encoding="UTF-8" standalone="no"?><svg xmlns="http://www.w3.org/2000/svg" xmlns:xlink="http://www.w3.org/1999/xlink" contentScriptType="application/ecmascript" contentStyleType="text/css" height="1175px" preserveAspectRatio="none" style="width:247px;height:1175px;" version="1.1" viewBox="0 0 247 1175" width="247px" zoomAndPan="magnify"><defs><filter height="300%" id="f62nsog1qcv8n" width="300%" x="-1" y="-1"><feGaussianBlur result="blurOut" stdDeviation="2.0"/><feColorMatrix in="blurOut" result="blurOut2" type="matrix" values="0 0 0 0 0 0 0 0 0 0 0 0 0 0 0 0 0 0 .4 0"/><feOffset dx="4.0" dy="4.0" in="blurOut2" result="blurOut3"/><feBlend in="SourceGraphic" in2="blurOut3" mode="normal"/></filter></defs><g><ellipse cx="124" cy="18" fill="#000000" filter="url(#f62nsog1qcv8n)" rx="10" ry="10" style="stroke: none; stroke-width: 1.0;"/><rect fill="#00FF00" filter="url(#f62nsog1qcv8n)" height="81.875" rx="12.5" ry="12.5" style="stroke: #A80036; stroke-width: 1.5;" width="195" x="26.5" y="69"/><text fill="#000000" font-family="sans-serif" font-size="12" lengthAdjust="spacingAndGlyphs" textLength="175" x="36.5" y="90.1387">Determine cation and anion</text><text fill="#000000" font-family="sans-serif" font-size="12" lengthAdjust="spacingAndGlyphs" textLength="0" x="126" y="104.1074"/><text fill="#000000" font-family="sans-serif" font-size="12" lengthAdjust="spacingAndGlyphs" textLength="68" x="47" y="118.0762">Cation=NH</text><text fill="#000000" font-family="sans-serif" font-size="9" lengthAdjust="spacingAndGlyphs" textLength="6" x="115" y="121.7837">4</text><text fill="#000000" font-family="sans-serif" font-size="12" lengthAdjust="spacingAndGlyphs" textLength="80" x="121" y="118.0762">, charge=1+</text><text fill="#000000" font-family="sans-serif" font-size="12" lengthAdjust="spacingAndGlyphs" textLength="62" x="53" y="135.0449">Anion=CO</text><text fill="#000000" font-family="sans-serif" font-size="9" lengthAdjust="spacingAndGlyphs" textLength="6" x="115" y="138.7524">3</text><text fill="#000000" font-family="sans-serif" font-size="12" lengthAdjust="spacingAndGlyphs" textLength="74" x="121" y="135.0449">, charge=1-</text><rect fill="#00FF00" filter="url(#f62nsog1qcv8n)" height="61.9063" rx="12.5" ry="12.5" style="stroke: #A80036; stroke-width: 1.5;" width="125" x="61.5" y="192"/><text fill="#000000" font-family="sans-serif" font-size="12" lengthAdjust="spacingAndGlyphs" textLength="105" x="71.5" y="213.1387">Determine ratios</text><text fill="#000000" font-family="sans-serif" font-size="12" lengthAdjust="spacingAndGlyphs" textLength="0" x="126" y="227.1074"/><text fill="#000000" font-family="sans-serif" font-size="12" lengthAdjust="spacingAndGlyphs" textLength="20" x="114" y="241.0762">1:1</text><polygon fill="#FEFECE" filter="url(#f62nsog1qcv8n)" points="124,295,136,307,124,319,112,307,124,295" style="stroke: #A80036; stroke-width: 1.5;"/><rect fill="#00FF00" filter="url(#f62nsog1qcv8n)" height="78.875" rx="12.5" ry="12.5" style="stroke: #A80036; stroke-width: 1.5;" width="110" x="7" y="373"/><text fill="#000000" font-family="sans-serif" font-size="12" lengthAdjust="spacingAndGlyphs" textLength="83" x="20.5" y="394.1387">Write formula</text><text fill="#000000" font-family="sans-serif" font-size="12" lengthAdjust="spacingAndGlyphs" textLength="90" x="17" y="408.1074">in parenthesis</text><text fill="#000000" font-family="sans-serif" font-size="12" lengthAdjust="spacingAndGlyphs" textLength="0" x="64" y="422.0762"/><text fill="#000000" font-family="sans-serif" font-size="12" lengthAdjust="spacingAndGlyphs" textLength="23" x="45" y="436.0449">(NH</text><text fill="#000000" font-family="sans-serif" font-size="9" lengthAdjust="spacingAndGlyphs" textLength="6" x="68" y="439.7524">4</text><text fill="#000000" font-family="sans-serif" font-size="12" lengthAdjust="spacingAndGlyphs" textLength="5" x="74" y="436.0449">)</text><rect fill="#000000" filter="url(#f62nsog1qcv8n)" height="8" style="stroke: none; stroke-width: 1.0;" width="80" x="84" y="493"/><rect fill="#FEFECE" filter="url(#f62nsog1qcv8n)" height="33.9688" rx="12.5" ry="12.5" style="stroke: #A80036; stroke-width: 1.5;" width="99" x="137.5" y="395.5"/><text fill="#000000" font-family="sans-serif" font-size="12" lengthAdjust="spacingAndGlyphs" textLength="79" x="147.5" y="416.6387">Write symbol</text><polygon fill="#FEFECE" filter="url(#f62nsog1qcv8n)" points="124,542,136,554,124,566,112,554,124,542" style="stroke: #A80036; stroke-width: 1.5;"/><rect fill="#FEFECE" filter="url(#f62nsog1qcv8n)" height="33.9688" rx="12.5" ry="12.5" style="stroke: #A80036; stroke-width: 1.5;" width="85" x="39.5" y="620"/><text fill="#000000" font-family="sans-serif" font-size="12" lengthAdjust="spacingAndGlyphs" textLength="65" x="49.5" y="641.1387">Write ratio</text><rect fill="#000000" filter="url(#f62nsog1qcv8n)" height="8" style="stroke: none; stroke-width: 1.0;" width="80" x="83" y="695"/><polygon fill="#FEFECE" filter="url(#f62nsog1qcv8n)" points="123,744,135,756,123,768,111,756,123,744" style="stroke: #A80036; stroke-width: 1.5;"/><rect fill="#00FF00" filter="url(#f62nsog1qcv8n)" height="78.875" rx="12.5" ry="12.5" style="stroke: #A80036; stroke-width: 1.5;" width="110" x="6" y="822"/><text fill="#000000" font-family="sans-serif" font-size="12" lengthAdjust="spacingAndGlyphs" textLength="83" x="19.5" y="843.1387">Write formula</text><text fill="#000000" font-family="sans-serif" font-size="12" lengthAdjust="spacingAndGlyphs" textLength="90" x="16" y="857.1074">in parenthesis​</text><text fill="#000000" font-family="sans-serif" font-size="12" lengthAdjust="spacingAndGlyphs" textLength="0" x="63" y="871.0762"/><text fill="#000000" font-family="sans-serif" font-size="12" lengthAdjust="spacingAndGlyphs" textLength="23" x="27.5" y="885.0449">(NH</text><text fill="#000000" font-family="sans-serif" font-size="9" lengthAdjust="spacingAndGlyphs" textLength="6" x="50.5" y="888.7524">4</text><text fill="#000000" font-family="sans-serif" font-size="12" lengthAdjust="spacingAndGlyphs" textLength="27" x="56.5" y="885.0449">)(CO</text><text fill="#000000" font-family="sans-serif" font-size="9" lengthAdjust="spacingAndGlyphs" textLength="6" x="83.5" y="888.7524">3</text><text fill="#000000" font-family="sans-serif" font-size="12" lengthAdjust="spacingAndGlyphs" textLength="5" x="89.5" y="885.0449">)</text><rect fill="#000000" filter="url(#f62nsog1qcv8n)" height="8" style="stroke: none; stroke-width: 1.0;" width="80" x="83" y="942"/><rect fill="#FEFECE" filter="url(#f62nsog1qcv8n)" height="33.9688" rx="12.5" ry="12.5" style="stroke: #A80036; stroke-width: 1.5;" width="99" x="136.5" y="844.5"/><text fill="#000000" font-family="sans-serif" font-size="12" lengthAdjust="spacingAndGlyphs" textLength="79" x="146.5" y="865.6387">Write symbol​</text><polygon fill="#FEFECE" filter="url(#f62nsog1qcv8n)" points="123,991,135,1003,123,1015,111,1003,123,991" style="stroke: #A80036; stroke-width: 1.5;"/><rect fill="#FEFECE" filter="url(#f62nsog1qcv8n)" height="33.9688" rx="12.5" ry="12.5" style="stroke: #A80036; stroke-width: 1.5;" width="85" x="38.5" y="1069"/><text fill="#000000" font-family="sans-serif" font-size="12" lengthAdjust="spacingAndGlyphs" textLength="65" x="48.5" y="1090.1387">Write ratio​</text><ellipse cx="122" cy="1154" fill="none" filter="url(#f62nsog1qcv8n)" rx="10" ry="10" style="stroke: #000000; stroke-width: 1.0;"/><ellipse cx="122.5" cy="1154.5" fill="#000000" rx="6" ry="6" style="stroke: none; stroke-width: 1.0;"/><!--link start to Determine cation and anion\n\nCation=NH<sub>4</sub>, charge=1+\nAnion=CO<sub>3</sub>, charge=1- --><path d="M124,28.1971 C124,36.953 124,50.2381 124,63.5712 " fill="none" id="start-Determine cation and anion\n\nCation=NH&lt;sub&gt;4&lt;/sub&gt;, charge=1+\nAnion=CO&lt;sub&gt;3&lt;/sub&gt;, charge=1-" style="stroke: #007F00; stroke-width: 1.0;"/><polygon fill="#007F00" points="124,68.8729,128,59.8729,124,63.8729,120,59.8729,124,68.8729" style="stroke: #007F00; stroke-width: 1.0;"/><!--link Determine cation and anion\n\nCation=NH<sub>4</sub>, charge=1+\nAnion=CO<sub>3</sub>, charge=1- to Determine ratios\n\n1:1--><path d="M124,151.1153 C124,162.7166 124,175.2548 124,186.5612 " fill="none" id="Determine cation and anion\n\nCation=NH&lt;sub&gt;4&lt;/sub&gt;, charge=1+\nAnion=CO&lt;sub&gt;3&lt;/sub&gt;, charge=1--Determine ratios\n\n1:1" style="stroke: #007F00; stroke-width: 1.0;"/><polygon fill="#007F00" points="124,191.6615,128,182.6615,124,186.6615,120,182.6615,124,191.6615" style="stroke: #007F00; stroke-width: 1.0;"/><!--link Determine ratios\n\n1:1 to #7--><path d="M124,254.2785 C124,266.3538 124,279.6963 124,289.9375 " fill="none" id="Determine ratios\n\n1:1-#7" style="stroke: #007F00; stroke-width: 1.0;"/><polygon fill="#007F00" points="124,294.9872,128,285.9872,124,289.9872,120,285.9872,124,294.9872" style="stroke: #007F00; stroke-width: 1.0;"/><text fill="#007F00" font-family="sans-serif" font-size="11" lengthAdjust="spacingAndGlyphs" textLength="68" x="39.425" y="284.6126">cation type?</text><!--link #7 to Write formula\nin parenthesis\n\n(NH<sub>4</sub>)--><path d="M117.6717,313.471 C111.8264,319.6714 103.1443,329.4695 97,339 C91.0895,348.1679 85.5616,358.4885 80.7228,368.4334 " fill="none" id="#7-Write formula\nin parenthesis\n\n(NH&lt;sub&gt;4&lt;/sub&gt;)" style="stroke: #007F00; stroke-width: 1.0;"/><polygon fill="#007F00" points="78.5492,372.9707,86.0449,366.5821,80.7093,368.4614,78.83,363.1258,78.5492,372.9707" style="stroke: #007F00; stroke-width: 1.0;"/><text fill="#007F00" font-family="sans-serif" font-size="11" lengthAdjust="spacingAndGlyphs" textLength="51" x="98" y="350.2104">molecule</text><!--link Write formula\nin parenthesis\n\n(NH<sub>4</sub>) to CAT_WRITE--><path d="M91.1845,452.2757 C101.2547,466.0004 111.5812,480.0744 117.894,488.6781 " fill="none" id="Write formula\nin parenthesis\n\n(NH&lt;sub&gt;4&lt;/sub&gt;)-CAT_WRITE" style="stroke: #007F00; stroke-width: 1.0;"/><polygon fill="#007F00" points="120.9611,492.8582,118.862,483.2356,118.0033,488.8269,112.412,487.9682,120.9611,492.8582" style="stroke: #007F00; stroke-width: 1.0;"/><!--link #7 to Write symbol--><path d="M130.3043,313.4866 C136.1326,319.698 144.8032,329.5035 151,339 C161.6736,355.3572 171.2643,375.3399 177.8576,390.3385 " fill="none" id="#7-Write symbol" style="stroke: #A80036; stroke-width: 1.0;"/><polygon fill="#A80036" points="179.9759,395.2214,180.0635,385.3729,177.9859,390.6345,172.7244,388.5569,179.9759,395.2214" style="stroke: #A80036; stroke-width: 1.0;"/><text fill="#000000" font-family="sans-serif" font-size="11" lengthAdjust="spacingAndGlyphs" textLength="29" x="160" y="350.2104">atom</text><!--link Write symbol to CAT_WRITE--><path d="M174.251,429.5998 C160.813,447.6239 140.2166,475.2492 130.0735,488.8537 " fill="none" id="Write symbol-CAT_WRITE" style="stroke: #A80036; stroke-width: 1.0;"/><polygon fill="#A80036" points="127.0599,492.8958,135.6462,488.0714,130.0485,488.8873,129.2326,483.2896,127.0599,492.8958" style="stroke: #A80036; stroke-width: 1.0;"/><!--link CAT_WRITE to #17--><path d="M124,501.0993 C124,508.4254 124,524.1603 124,536.5751 " fill="none" id="CAT_WRITE-#17" style="stroke: #007F00; stroke-width: 1.0;"/><polygon fill="#007F00" points="124,541.6582,128,532.6582,124,536.6582,120,532.6582,124,541.6582" style="stroke: #007F00; stroke-width: 1.0;"/><text fill="#007F00" font-family="sans-serif" font-size="11" lengthAdjust="spacingAndGlyphs" textLength="56" x="55.05" y="531.5717">ratio &gt; 1?</text><!--link #17 to Write ratio--><path d="M119.8193,562.2618 C113.6365,574.4803 101.8401,597.7921 93.0587,615.1459 " fill="none" id="#17-Write ratio" style="stroke: #A80036; stroke-width: 1.0;"/><polygon fill="#A80036" points="90.669,619.8684,98.3016,613.644,92.9265,615.4071,91.1635,610.032,90.669,619.8684" style="stroke: #A80036; stroke-width: 1.0;"/><text fill="#000000" font-family="sans-serif" font-size="11" lengthAdjust="spacingAndGlyphs" textLength="20" x="108" y="597.2104">yes</text><!--link Write ratio to CAT_WRITE_RATIO--><path d="M93.4208,654.2705 C101.1689,665.9871 111.0854,680.9828 117.2401,690.2899 " fill="none" id="Write ratio-CAT_WRITE_RATIO" style="stroke: #A80036; stroke-width: 1.0;"/><polygon fill="#A80036" points="120.0842,694.5908,118.4564,684.8774,117.3263,690.4202,111.7835,689.2901,120.0842,694.5908" style="stroke: #A80036; stroke-width: 1.0;"/><!--link #17 to CAT_WRITE_RATIO--><path d="M127.4688,562.8064 C129.788,569.1466 132.6524,577.9635 134,586 C138.9987,615.8093 138.9273,624.0307 135,654 C133.3296,666.747 129.1051,681.0189 126.1435,690.0043 " fill="none" id="#17-CAT_WRITE_RATIO" style="stroke: #007F00; stroke-width: 1.0;"/><polygon fill="#007F00" points="124.4968,694.8549,131.1776,687.6184,126.1041,690.1203,123.6022,685.0468,124.4968,694.8549" style="stroke: #007F00; stroke-width: 1.0;"/><text fill="#007F00" font-family="sans-serif" font-size="11" lengthAdjust="spacingAndGlyphs" textLength="14" x="138" y="641.2104">no</text><!--link CAT_WRITE_RATIO to #25--><path d="M123,703.0993 C123,710.4254 123,726.1603 123,738.5751 " fill="none" id="CAT_WRITE_RATIO-#25" style="stroke: #007F00; stroke-width: 1.0;"/><polygon fill="#007F00" points="123,743.6582,127,734.6582,123,738.6582,119,734.6582,123,743.6582" style="stroke: #007F00; stroke-width: 1.0;"/><text fill="#007F00" font-family="sans-serif" font-size="11" lengthAdjust="spacingAndGlyphs" textLength="65" x="42.9688" y="733.5717">anion type?</text><!--link #25 to Write formula\nin parenthesis&#8203;\n\n(NH<sub>4</sub>)(CO<sub>3</sub>)--><path d="M116.6717,762.471 C110.8264,768.6714 102.1443,778.4695 96,788 C90.0895,797.1679 84.5616,807.4885 79.7228,817.4334 " fill="none" id="#25-Write formula\nin parenthesis&amp;#8203;\n\n(NH&lt;sub&gt;4&lt;/sub&gt;)(CO&lt;sub&gt;3&lt;/sub&gt;)" style="stroke: #007F00; stroke-width: 1.0;"/><polygon fill="#007F00" points="77.5492,821.9707,85.0449,815.5821,79.7093,817.4614,77.83,812.1258,77.5492,821.9707" style="stroke: #007F00; stroke-width: 1.0;"/><text fill="#007F00" font-family="sans-serif" font-size="11" lengthAdjust="spacingAndGlyphs" textLength="51" x="97" y="799.2104">molecule</text><!--link Write formula\nin parenthesis&#8203;\n\n(NH<sub>4</sub>)(CO<sub>3</sub>) to AN_WRITE--><path d="M90.1845,901.2757 C100.2547,915.0004 110.5812,929.0744 116.894,937.6781 " fill="none" id="Write formula\nin parenthesis&amp;#8203;\n\n(NH&lt;sub&gt;4&lt;/sub&gt;)(CO&lt;sub&gt;3&lt;/sub&gt;)-AN_WRITE" style="stroke: #007F00; stroke-width: 1.0;"/><polygon fill="#007F00" points="119.9611,941.8582,117.862,932.2356,117.0033,937.8269,111.412,936.9682,119.9611,941.8582" style="stroke: #007F00; stroke-width: 1.0;"/><!--link #25 to Write symbol&#8203;--><path d="M129.3043,762.4866 C135.1326,768.698 143.8032,778.5035 150,788 C160.6736,804.3572 170.2643,824.3399 176.8576,839.3385 " fill="none" id="#25-Write symbol&amp;#8203;" style="stroke: #A80036; stroke-width: 1.0;"/><polygon fill="#A80036" points="178.9759,844.2214,179.0635,834.3729,176.9859,839.6345,171.7244,837.5569,178.9759,844.2214" style="stroke: #A80036; stroke-width: 1.0;"/><text fill="#000000" font-family="sans-serif" font-size="11" lengthAdjust="spacingAndGlyphs" textLength="29" x="159" y="799.2104">atom</text><!--link Write symbol&#8203; to AN_WRITE--><path d="M173.251,878.5998 C159.813,896.6239 139.2166,924.2492 129.0735,937.8537 " fill="none" id="Write symbol&amp;#8203;-AN_WRITE" style="stroke: #A80036; stroke-width: 1.0;"/><polygon fill="#A80036" points="126.0599,941.8958,134.6462,937.0714,129.0485,937.8873,128.2326,932.2896,126.0599,941.8958" style="stroke: #A80036; stroke-width: 1.0;"/><!--link AN_WRITE to #35--><path d="M123,950.0993 C123,957.4254 123,973.1603 123,985.5751 " fill="none" id="AN_WRITE-#35" style="stroke: #007F00; stroke-width: 1.0;"/><polygon fill="#007F00" points="123,990.6582,127,981.6582,123,985.6582,119,981.6582,123,990.6582" style="stroke: #007F00; stroke-width: 1.0;"/><text fill="#007F00" font-family="sans-serif" font-size="11" lengthAdjust="spacingAndGlyphs" textLength="56" x="54.05" y="980.5717">ratio &gt; 1?</text><!--link #35 to Write ratio&#8203;--><path d="M118.8193,1011.2618 C112.6365,1023.4803 100.8401,1046.7921 92.0587,1064.1459 " fill="none" id="#35-Write ratio&amp;#8203;" style="stroke: #A80036; stroke-width: 1.0;"/><polygon fill="#A80036" points="89.669,1068.8684,97.3016,1062.644,91.9265,1064.4071,90.1635,1059.032,89.669,1068.8684" style="stroke: #A80036; stroke-width: 1.0;"/><text fill="#007F00" font-family="sans-serif" font-size="11" lengthAdjust="spacingAndGlyphs" textLength="20" x="107" y="1046.2104">yes</text><!--link Write ratio&#8203; to end--><path d="M91.346,1103.1593 C98.4035,1114.8643 107.6089,1130.1319 114.0834,1140.87 " fill="none" id="Write ratio&amp;#8203;-end" style="stroke: #A80036; stroke-width: 1.0;"/><polygon fill="#A80036" points="116.6768,1145.1712,115.4552,1135.3984,114.0951,1140.8893,108.6042,1139.5292,116.6768,1145.1712" style="stroke: #A80036; stroke-width: 1.0;"/><!--link #35 to end--><path d="M126.4688,1011.8064 C128.788,1018.1466 131.6524,1026.9635 133,1035 C137.9987,1064.8093 137.4846,1072.9761 134,1103 C132.5533,1115.4645 129.1811,1129.3052 126.3788,1139.4193 " fill="none" id="#35-end" style="stroke: #007F00; stroke-width: 1.0;"/><polygon fill="#007F00" points="124.9785,1144.3417,131.2885,1136.7797,126.3466,1139.5325,123.5938,1134.5907,124.9785,1144.3417" style="stroke: #007F00; stroke-width: 1.0;"/><text fill="#000000" font-family="sans-serif" font-size="11" lengthAdjust="spacingAndGlyphs" textLength="14" x="137" y="1090.2104">no</text><!--
@startuml
(*) -[#007F00]-> "Determine cation and anion\n\nCation=NH<sub>4</sub>, charge=1+\nAnion=CO<sub>3</sub>, charge=1-" #00FF00
-[#007F00]-> "Determine ratios\n\n1:1" #00FF00

-[#007F00]-> if "<color:#007F00>cation type?" then
    -[#007F00]-> [<color:#007F00>molecule] "Write formula\nin parenthesis\n\n(NH<sub>4</sub>)" #00FF00
    -[#007F00]-> ===CAT_WRITE===
else
    - -> [atom] "Write symbol"
    - -> ===CAT_WRITE===
endif

-[#007F00]-> if "<color:#007F00>ratio > 1?" then
    - -> [yes] "Write ratio"
    - -> ===CAT_WRITE_RATIO===
else
    -[#007F00]-> [<color:#007F00>no] ===CAT_WRITE_RATIO===
endif

-[#007F00]-> if "<color:#007F00>anion type?" then
    -[#007F00]-> [<color:#007F00>molecule] "Write formula\nin parenthesis&#8203;\n\n(NH<sub>4</sub>)(CO<sub>3</sub>)" #00FF00
    -[#007F00]-> ===AN_WRITE===
else
    - -> [atom] "Write symbol&#8203;"
    - -> ===AN_WRITE===
endif

-[#007F00]-> if "<color:#007F00>ratio > 1?" then
    - -> [<color:#007F00>yes] "Write ratio&#8203;"
    - -> (*)
else
    -[#007F00]-> [no] (*)
endif

@enduml

PlantUML version 1.2019.08(Sat Jul 13 19:25:14 GMT 2019)
(GPL source distribution)
Java Runtime: OpenJDK Runtime Environment
JVM: OpenJDK 64-Bit Server VM
Java Version: 11.0.4+4-alpine-r1
Operating System: Linux
OS Version: 5.3.0-29-generic
Default Encoding: UTF-8
Language: en
Country: US
--></g></svg>