<svg class="bob" font-family="arial" font-size="14" height="96" width="256" xmlns="http://www.w3.org/2000/svg">
<defs>
<marker id="triangle" markerHeight="8" markerWidth="8" orient="auto" refX="4" refY="2" viewBox="0 0 8 4">
<polygon class="fg_fill" points="0,0 0,4 8,2 0,0"/>
</marker>
<marker id="clear_triangle" markerHeight="10" markerWidth="10" orient="auto" refX="1" refY="7" viewBox="0 0 20 14">
<polygon class="bg_fill" points="2,2 2,12 18,7 2,2"/>
</marker>
<marker id="circle" markerHeight="5" markerWidth="5" orient="auto" refX="10" refY="10" viewBox="0 0 20 20">
<circle class="fg_fill" cx="10" cy="10" r="8"/>
</marker>
<marker id="square" markerHeight="5" markerWidth="5" orient="auto" refX="10" refY="10" viewBox="0 0 20 20">
<rect class="fg_fill" height="20" width="20" x="0" y="0"/>
</marker>
<marker id="open_circle" markerHeight="10" markerWidth="10" orient="auto" refX="10" refY="10" viewBox="0 0 20 20">
<circle class="bg_fill" cx="10" cy="10" r="4"/>
</marker>
<marker id="big_open_circle" markerHeight="20" markerWidth="20" orient="auto" refX="20" refY="20" viewBox="0 0 40 40">
<circle class="bg_fill" cx="20" cy="20" r="6"/>
</marker>
</defs>
<style type="text/css">

rect.backdrop {
    fill: white;
}
text{
    fill: black;
}

circle {
    fill: none;
    stroke: black;
    stroke-width: 2;
}

line {
    stroke: black;
    stroke-width: 2;
    stroke-opacity: 1;
    fill-opacity: 1;
    stroke-linecap: round;
    stroke-linejoin: miter;
}

path {
    fill: none;
    stroke: black;
    stroke-width: 2;
    stroke-opacity: 1;
    fill-opacity: 1;
    stroke-linecap: round;
    stroke-linejoin: miter;
}

line.dashed {
    stroke-dasharray: 5;
}

.fg_fill {
    fill: black;
}


.bg_fill {
    fill: white;
    stroke: black;
    stroke-width: 2;
}

tspan.head{
    fill: none;
    stroke: none;
}
    
</style>
<rect class="backdrop" height="96" width="256" x="0" y="0"/>
<g>
<line x1="12" x2="12" y1="16" y2="36"/>
<path d="M 12 36 A 4 4 0 0 0 16 40"/>
</g>
<g>
<line x1="16" x2="36" y1="40" y2="40"/>
<line x1="36" x2="36" y1="16" y2="40"/>
<line x1="36" x2="52" y1="40" y2="40"/>
<line x1="52" x2="52" y1="40" y2="80"/>
<line x1="52" x2="68" y1="40" y2="40"/>
<line x1="68" x2="68" y1="16" y2="40"/>
<line x1="68" x2="88" y1="40" y2="40"/>
<path d="M 88 40 A 4 4 0 0 0 92 36"/>
</g>
<g>
<line marker-end="url(#triangle)" x1="80" x2="76" y1="88" y2="88"/>
<line x1="80" x2="96" y1="88" y2="88"/>
</g>
<g>
<line x1="92" x2="92" y1="16" y2="36"/>
</g>
<g>
<line marker-end="url(#triangle)" x1="120" x2="116" y1="8" y2="8"/>
<line x1="120" x2="136" y1="8" y2="8"/>
</g>
<g>
<text x="9" y="12">
2
</text>
</g>
<g>
<text x="33" y="12">
2
</text>
</g>
<g>
<text x="49" y="92">
2
</text>
</g>
<g>
<text x="65" y="12">
2
</text>
</g>
<g>
<text x="89" y="12">
2
</text>
</g>
<g>
<text x="105" y="92">
root
</text>
</g>
<g>
<text x="145" y="12">
result
</text>
</g>
<g>
<text x="145" y="92">
(base)
</text>
</g>
<g>
<text x="201" y="12">
(power)
</text>
</g>
</svg>
