<svg class="bob" font-family="arial" font-size="14" height="80" width="464" xmlns="http://www.w3.org/2000/svg">
<defs>
<marker id="triangle" markerHeight="8" markerWidth="8" orient="auto" refX="4" refY="2" viewBox="0 0 8 4">
<polygon class="fg_fill" points="0,0 0,4 8,2 0,0"/>
</marker>
<marker id="clear_triangle" markerHeight="10" markerWidth="10" orient="auto" refX="1" refY="7" viewBox="0 0 20 14">
<polygon class="bg_fill" points="2,2 2,12 18,7 2,2"/>
</marker>
<marker id="circle" markerHeight="5" markerWidth="5" orient="auto" refX="10" refY="10" viewBox="0 0 20 20">
<circle class="fg_fill" cx="10" cy="10" r="8"/>
</marker>
<marker id="square" markerHeight="5" markerWidth="5" orient="auto" refX="10" refY="10" viewBox="0 0 20 20">
<rect class="fg_fill" height="20" width="20" x="0" y="0"/>
</marker>
<marker id="open_circle" markerHeight="10" markerWidth="10" orient="auto" refX="10" refY="10" viewBox="0 0 20 20">
<circle class="bg_fill" cx="10" cy="10" r="4"/>
</marker>
<marker id="big_open_circle" markerHeight="20" markerWidth="20" orient="auto" refX="20" refY="20" viewBox="0 0 40 40">
<circle class="bg_fill" cx="20" cy="20" r="6"/>
</marker>
</defs>
<style type="text/css">

rect.backdrop {
    fill: white;
}
text{
    fill: black;
}

circle {
    fill: none;
    stroke: black;
    stroke-width: 2;
}

line {
    stroke: black;
    stroke-width: 2;
    stroke-opacity: 1;
    fill-opacity: 1;
    stroke-linecap: round;
    stroke-linejoin: miter;
}

path {
    fill: none;
    stroke: black;
    stroke-width: 2;
    stroke-opacity: 1;
    fill-opacity: 1;
    stroke-linecap: round;
    stroke-linejoin: miter;
}

line.dashed {
    stroke-dasharray: 5;
}

.fg_fill {
    fill: black;
}


.bg_fill {
    fill: white;
    stroke: black;
    stroke-width: 2;
}

tspan.head{
    fill: none;
    stroke: none;
}
    
</style>
<rect class="backdrop" height="80" width="464" x="0" y="0"/>
<g>
<line marker-end="url(#triangle)" x1="8" x2="4" y1="8" y2="8"/>
<line x1="8" x2="28" y1="8" y2="8"/>
<line x1="28" x2="28" y1="8" y2="32"/>
<line x1="28" x2="68" y1="8" y2="8"/>
<line x1="68" x2="68" y1="8" y2="32"/>
<line x1="68" x2="108" y1="8" y2="8"/>
<line x1="108" x2="108" y1="8" y2="32"/>
<line x1="108" x2="148" y1="8" y2="8"/>
<line x1="148" x2="148" y1="8" y2="32"/>
<line x1="148" x2="188" y1="8" y2="8"/>
<line x1="188" x2="188" y1="8" y2="32"/>
<line x1="188" x2="228" y1="8" y2="8"/>
<line x1="228" x2="228" y1="8" y2="32"/>
<line x1="228" x2="268" y1="8" y2="8"/>
<line x1="268" x2="268" y1="8" y2="32"/>
<line x1="268" x2="308" y1="8" y2="8"/>
<line x1="308" x2="308" y1="8" y2="32"/>
<line x1="308" x2="348" y1="8" y2="8"/>
<line x1="348" x2="348" y1="8" y2="32"/>
<line x1="348" x2="388" y1="8" y2="8"/>
<line x1="388" x2="388" y1="8" y2="32"/>
<line x1="388" x2="428" y1="8" y2="8"/>
<line x1="428" x2="428" y1="8" y2="40"/>
<line marker-end="url(#triangle)" x1="428" x2="460" y1="8" y2="8"/>
<line x1="428" x2="436" y1="40" y2="40"/>
<line x1="436" x2="448" y1="40" y2="64"/>
</g>
<g>
<line x1="420" x2="408" y1="40" y2="64"/>
<line x1="420" x2="428" y1="40" y2="40"/>
</g>
<g>
<text x="25" y="76">
0
</text>
</g>
<g>
<text x="57" y="76">
1/4
</text>
</g>
<g>
<text x="97" y="76">
2/4
</text>
</g>
<g>
<text x="137" y="76">
3/4
</text>
</g>
<g>
<text x="177" y="76">
4/4
</text>
</g>
<g>
<text x="225" y="76">
1
</text>
</g>
<g>
<text x="257" y="76">
5/4
</text>
</g>
<g>
<text x="297" y="76">
6/4
</text>
</g>
<g>
<text x="337" y="76">
7/4
</text>
</g>
<g>
<text x="385" y="76">
2
</text>
</g>
<g>
<text x="417" y="76">
9/4
</text>
</g>
</svg>
