<svg class="bob" font-family="arial" font-size="14" height="256" width="416" xmlns="http://www.w3.org/2000/svg">
<defs>
<marker id="triangle" markerHeight="8" markerWidth="8" orient="auto" refX="4" refY="2" viewBox="0 0 8 4">
<polygon class="fg_fill" points="0,0 0,4 8,2 0,0"/>
</marker>
<marker id="clear_triangle" markerHeight="10" markerWidth="10" orient="auto" refX="1" refY="7" viewBox="0 0 20 14">
<polygon class="bg_fill" points="2,2 2,12 18,7 2,2"/>
</marker>
<marker id="circle" markerHeight="5" markerWidth="5" orient="auto" refX="10" refY="10" viewBox="0 0 20 20">
<circle class="fg_fill" cx="10" cy="10" r="8"/>
</marker>
<marker id="square" markerHeight="5" markerWidth="5" orient="auto" refX="10" refY="10" viewBox="0 0 20 20">
<rect class="fg_fill" height="20" width="20" x="0" y="0"/>
</marker>
<marker id="open_circle" markerHeight="10" markerWidth="10" orient="auto" refX="10" refY="10" viewBox="0 0 20 20">
<circle class="bg_fill" cx="10" cy="10" r="4"/>
</marker>
<marker id="big_open_circle" markerHeight="20" markerWidth="20" orient="auto" refX="20" refY="20" viewBox="0 0 40 40">
<circle class="bg_fill" cx="20" cy="20" r="6"/>
</marker>
</defs>
<style type="text/css">

rect.backdrop {
    fill: white;
}
text{
    fill: black;
}

circle {
    fill: none;
    stroke: black;
    stroke-width: 2;
}

line {
    stroke: black;
    stroke-width: 2;
    stroke-opacity: 1;
    fill-opacity: 1;
    stroke-linecap: round;
    stroke-linejoin: miter;
}

path {
    fill: none;
    stroke: black;
    stroke-width: 2;
    stroke-opacity: 1;
    fill-opacity: 1;
    stroke-linecap: round;
    stroke-linejoin: miter;
}

line.dashed {
    stroke-dasharray: 5;
}

.fg_fill {
    fill: black;
}


.bg_fill {
    fill: white;
    stroke: black;
    stroke-width: 2;
}

tspan.head{
    fill: none;
    stroke: none;
}
    
</style>
<rect class="backdrop" height="256" width="416" x="0" y="0"/>
<g>
<line marker-end="url(#triangle)" x1="28" x2="28" y1="200" y2="236"/>
<line x1="28" x2="44" y1="200" y2="200"/>
</g>
<g>
<line x1="44" x2="44" y1="184" y2="216"/>
<line x1="44" x2="68" y1="184" y2="184"/>
<line x1="44" x2="68" y1="216" y2="216"/>
<line x1="68" x2="68" y1="184" y2="216"/>
</g>
<g>
<line marker-end="url(#triangle)" x1="60" x2="60" y1="72" y2="124"/>
<line x1="60" x2="220" y1="72" y2="72"/>
<line x1="220" x2="220" y1="56" y2="72"/>
<line x1="220" x2="284" y1="56" y2="56"/>
<line x1="220" x2="220" y1="72" y2="88"/>
<line x1="220" x2="252" y1="88" y2="88"/>
<line marker-end="url(#triangle)" x1="252" x2="252" y1="88" y2="124"/>
<line x1="252" x2="284" y1="88" y2="88"/>
<line x1="284" x2="284" y1="56" y2="72"/>
<line x1="284" x2="284" y1="72" y2="88"/>
<line x1="284" x2="412" y1="72" y2="72"/>
<line marker-end="url(#triangle)" x1="412" x2="412" y1="72" y2="124"/>
</g>
<g>
<line marker-end="url(#triangle)" x1="60" x2="60" y1="144" y2="172"/>
</g>
<g>
<line x1="68" x2="84" y1="200" y2="200"/>
<line marker-end="url(#triangle)" x1="84" x2="84" y1="200" y2="236"/>
</g>
<g>
<line marker-end="url(#triangle)" x1="252" x2="252" y1="16" y2="44"/>
</g>
<g>
<text x="17" y="252">
200
</text>
</g>
<g>
<text x="49" y="140">
700
</text>
</g>
<g>
<text x="49" y="204">
TE
</text>
</g>
<g>
<text x="73" y="252">
R100
</text>
</g>
<g>
<text x="233" y="76">
BREAK
</text>
</g>
<g>
<text x="241" y="12">
752
</text>
</g>
<g>
<text x="241" y="140">
50
</text>
</g>
<g>
<text x="409" y="140">
2
</text>
</g>
</svg>
