<svg class="bob" font-family="arial" font-size="14" height="96" width="640" xmlns="http://www.w3.org/2000/svg">
<defs>
<marker id="triangle" markerHeight="8" markerWidth="8" orient="auto" refX="4" refY="2" viewBox="0 0 8 4">
<polygon class="fg_fill" points="0,0 0,4 8,2 0,0"/>
</marker>
<marker id="clear_triangle" markerHeight="10" markerWidth="10" orient="auto" refX="1" refY="7" viewBox="0 0 20 14">
<polygon class="bg_fill" points="2,2 2,12 18,7 2,2"/>
</marker>
<marker id="circle" markerHeight="5" markerWidth="5" orient="auto" refX="10" refY="10" viewBox="0 0 20 20">
<circle class="fg_fill" cx="10" cy="10" r="8"/>
</marker>
<marker id="square" markerHeight="5" markerWidth="5" orient="auto" refX="10" refY="10" viewBox="0 0 20 20">
<rect class="fg_fill" height="20" width="20" x="0" y="0"/>
</marker>
<marker id="open_circle" markerHeight="10" markerWidth="10" orient="auto" refX="10" refY="10" viewBox="0 0 20 20">
<circle class="bg_fill" cx="10" cy="10" r="4"/>
</marker>
<marker id="big_open_circle" markerHeight="20" markerWidth="20" orient="auto" refX="20" refY="20" viewBox="0 0 40 40">
<circle class="bg_fill" cx="20" cy="20" r="6"/>
</marker>
</defs>
<style type="text/css">

rect.backdrop {
    fill: white;
}
text{
    fill: black;
}

circle {
    fill: none;
    stroke: black;
    stroke-width: 2;
}

line {
    stroke: black;
    stroke-width: 2;
    stroke-opacity: 1;
    fill-opacity: 1;
    stroke-linecap: round;
    stroke-linejoin: miter;
}

path {
    fill: none;
    stroke: black;
    stroke-width: 2;
    stroke-opacity: 1;
    fill-opacity: 1;
    stroke-linecap: round;
    stroke-linejoin: miter;
}

line.dashed {
    stroke-dasharray: 5;
}

.fg_fill {
    fill: black;
}


.bg_fill {
    fill: white;
    stroke: black;
    stroke-width: 2;
}

tspan.head{
    fill: none;
    stroke: none;
}
    
</style>
<rect class="backdrop" height="96" width="640" x="0" y="0"/>
<g>
<line marker-end="url(#triangle)" x1="8" x2="4" y1="8" y2="8"/>
<line x1="8" x2="80" y1="8" y2="8"/>
</g>
<g>
<line marker-end="url(#triangle)" x1="8" x2="4" y1="40" y2="40"/>
<line x1="8" x2="36" y1="40" y2="40"/>
<line x1="36" x2="92" y1="40" y2="40"/>
<line x1="92" x2="148" y1="40" y2="40"/>
<line x1="148" x2="204" y1="40" y2="40"/>
<line x1="204" x2="260" y1="40" y2="40"/>
<line x1="260" x2="316" y1="40" y2="40"/>
<line x1="316" x2="372" y1="40" y2="40"/>
<line x1="372" x2="428" y1="40" y2="40"/>
<line x1="428" x2="484" y1="40" y2="40"/>
<line x1="484" x2="540" y1="40" y2="40"/>
<line x1="540" x2="596" y1="40" y2="40"/>
<line marker-end="url(#triangle)" x1="596" x2="628" y1="40" y2="40"/>
</g>
<g>
<line x1="36" x2="36" y1="32" y2="48"/>
</g>
<g>
<line x1="92" x2="92" y1="32" y2="48"/>
</g>
<g>
<line x1="148" x2="148" y1="32" y2="48"/>
</g>
<g>
<line x1="204" x2="204" y1="32" y2="48"/>
</g>
<g>
<line x1="260" x2="260" y1="32" y2="48"/>
</g>
<g>
<line x1="316" x2="316" y1="32" y2="48"/>
</g>
<g>
<line x1="372" x2="372" y1="32" y2="48"/>
</g>
<g>
<line x1="428" x2="428" y1="32" y2="48"/>
</g>
<g>
<line x1="484" x2="484" y1="32" y2="48"/>
</g>
<g>
<line x1="540" x2="540" y1="32" y2="48"/>
</g>
<g>
<line x1="596" x2="596" y1="32" y2="48"/>
</g>
<g>
<text x="1" y="76">
-11/100
</text>
</g>
<g>
<text x="17" y="60">
-0.11
</text>
</g>
<g>
<text x="65" y="92">
-10/100
</text>
</g>
<g>
<text x="73" y="60">
-0.1
</text>
</g>
<g>
<text x="73" y="76">
-1/10
</text>
</g>
<g>
<text x="89" y="12">
further to the left means less than
</text>
</g>
<g>
<text x="121" y="76">
-9/100
</text>
</g>
<g>
<text x="129" y="60">
-0.09
</text>
</g>
<g>
<text x="177" y="76">
-8/100
</text>
</g>
<g>
<text x="185" y="60">
-0.08
</text>
</g>
<g>
<text x="233" y="76">
-7/100
</text>
</g>
<g>
<text x="241" y="60">
-0.07
</text>
</g>
<g>
<text x="289" y="76">
-6/100
</text>
</g>
<g>
<text x="297" y="60">
-0.06
</text>
</g>
<g>
<text x="345" y="76">
-5/100
</text>
</g>
<g>
<text x="353" y="60">
-0.05
</text>
</g>
<g>
<text x="401" y="76">
-4/100
</text>
</g>
<g>
<text x="409" y="60">
-0.04
</text>
</g>
<g>
<text x="457" y="76">
-3/100
</text>
</g>
<g>
<text x="465" y="60">
-0.03
</text>
</g>
<g>
<text x="513" y="76">
-2/100
</text>
</g>
<g>
<text x="521" y="60">
-0.02
</text>
</g>
<g>
<text x="569" y="76">
-1/100
</text>
</g>
<g>
<text x="577" y="60">
-0.01
</text>
</g>
</svg>
