<svg class="bob" font-family="arial" font-size="14" height="1072" width="464" xmlns="http://www.w3.org/2000/svg">
<defs>
<marker id="triangle" markerHeight="8" markerWidth="8" orient="auto" refX="4" refY="2" viewBox="0 0 8 4">
<polygon class="fg_fill" points="0,0 0,4 8,2 0,0"/>
</marker>
<marker id="clear_triangle" markerHeight="10" markerWidth="10" orient="auto" refX="1" refY="7" viewBox="0 0 20 14">
<polygon class="bg_fill" points="2,2 2,12 18,7 2,2"/>
</marker>
<marker id="circle" markerHeight="5" markerWidth="5" orient="auto" refX="10" refY="10" viewBox="0 0 20 20">
<circle class="fg_fill" cx="10" cy="10" r="8"/>
</marker>
<marker id="square" markerHeight="5" markerWidth="5" orient="auto" refX="10" refY="10" viewBox="0 0 20 20">
<rect class="fg_fill" height="20" width="20" x="0" y="0"/>
</marker>
<marker id="open_circle" markerHeight="10" markerWidth="10" orient="auto" refX="10" refY="10" viewBox="0 0 20 20">
<circle class="bg_fill" cx="10" cy="10" r="4"/>
</marker>
<marker id="big_open_circle" markerHeight="20" markerWidth="20" orient="auto" refX="20" refY="20" viewBox="0 0 40 40">
<circle class="bg_fill" cx="20" cy="20" r="6"/>
</marker>
</defs>
<style type="text/css">

rect.backdrop {
    fill: white;
}
text{
    fill: black;
}

circle {
    fill: none;
    stroke: black;
    stroke-width: 2;
}

line {
    stroke: black;
    stroke-width: 2;
    stroke-opacity: 1;
    fill-opacity: 1;
    stroke-linecap: round;
    stroke-linejoin: miter;
}

path {
    fill: none;
    stroke: black;
    stroke-width: 2;
    stroke-opacity: 1;
    fill-opacity: 1;
    stroke-linecap: round;
    stroke-linejoin: miter;
}

line.dashed {
    stroke-dasharray: 5;
}

.fg_fill {
    fill: black;
}


.bg_fill {
    fill: white;
    stroke: black;
    stroke-width: 2;
}

tspan.head{
    fill: none;
    stroke: none;
}
    
</style>
<rect class="backdrop" height="1072" width="464" x="0" y="0"/>
<g>
<line x1="20" x2="20" y1="88" y2="552"/>
<line x1="20" x2="108" y1="88" y2="88"/>
<line x1="20" x2="108" y1="552" y2="552"/>
<line x1="108" x2="108" y1="88" y2="552"/>
</g>
<g>
<line marker-end="url(#triangle)" x1="28" x2="28" y1="632" y2="668"/>
<line x1="28" x2="44" y1="632" y2="632"/>
</g>
<g>
<line x1="28" x2="28" y1="688" y2="920"/>
<line x1="28" x2="116" y1="920" y2="920"/>
<line marker-end="url(#triangle)" x1="116" x2="116" y1="920" y2="956"/>
<line x1="116" x2="204" y1="920" y2="920"/>
<line x1="204" x2="204" y1="896" y2="920"/>
</g>
<g>
<line x1="44" x2="44" y1="616" y2="648"/>
<line x1="44" x2="68" y1="616" y2="616"/>
<line x1="44" x2="68" y1="648" y2="648"/>
<line x1="68" x2="68" y1="616" y2="648"/>
</g>
<g>
<line marker-end="url(#triangle)" x1="60" x2="60" y1="576" y2="604"/>
</g>
<g>
<line marker-end="url(#triangle)" x1="68" x2="68" y1="40" y2="76"/>
<line x1="68" x2="252" y1="40" y2="40"/>
<line x1="252" x2="252" y1="16" y2="40"/>
<line marker-end="url(#triangle)" x1="252" x2="252" y1="40" y2="492"/>
<line x1="252" x2="396" y1="40" y2="40"/>
<line marker-end="url(#triangle)" x1="396" x2="396" y1="40" y2="540"/>
</g>
<g>
<line x1="68" x2="84" y1="632" y2="632"/>
<line marker-end="url(#triangle)" x1="84" x2="84" y1="632" y2="668"/>
</g>
<g>
<line x1="84" x2="84" y1="688" y2="712"/>
<line marker-end="url(#triangle)" x1="84" x2="212" y1="712" y2="712"/>
</g>
<g>
<line x1="100" x2="100" y1="968" y2="1000"/>
<line x1="100" x2="132" y1="968" y2="968"/>
<line x1="100" x2="132" y1="1000" y2="1000"/>
<line x1="132" x2="132" y1="968" y2="1000"/>
</g>
<g>
<line marker-end="url(#triangle)" x1="116" x2="116" y1="1008" y2="1036"/>
</g>
<g>
<line marker-end="url(#triangle)" x1="204" x2="204" y1="840" y2="876"/>
<line x1="204" x2="220" y1="840" y2="840"/>
</g>
<g>
<line x1="212" x2="212" y1="504" y2="552"/>
<line x1="212" x2="260" y1="504" y2="504"/>
<line x1="212" x2="260" y1="552" y2="552"/>
<line x1="260" x2="260" y1="504" y2="552"/>
</g>
<g>
<line x1="220" x2="220" y1="696" y2="728"/>
<line x1="220" x2="252" y1="696" y2="696"/>
<line x1="220" x2="252" y1="728" y2="728"/>
<line x1="252" x2="252" y1="696" y2="728"/>
</g>
<g>
<line x1="220" x2="220" y1="824" y2="856"/>
<line x1="220" x2="244" y1="824" y2="824"/>
<line x1="220" x2="244" y1="856" y2="856"/>
<line x1="244" x2="244" y1="824" y2="856"/>
</g>
<g>
<line marker-end="url(#triangle)" x1="236" x2="236" y1="576" y2="684"/>
</g>
<g>
<line marker-end="url(#triangle)" x1="236" x2="236" y1="736" y2="764"/>
</g>
<g>
<line marker-end="url(#triangle)" x1="236" x2="236" y1="784" y2="812"/>
</g>
<g>
<line x1="244" x2="260" y1="840" y2="840"/>
<line marker-end="url(#triangle)" x1="260" x2="260" y1="840" y2="876"/>
</g>
<g>
<line x1="260" x2="260" y1="896" y2="920"/>
<line marker-end="url(#triangle)" x1="260" x2="372" y1="920" y2="920"/>
</g>
<g>
<line x1="380" x2="380" y1="904" y2="936"/>
<line x1="380" x2="412" y1="904" y2="904"/>
<line x1="380" x2="412" y1="936" y2="936"/>
<line x1="412" x2="412" y1="904" y2="936"/>
</g>
<g>
<line marker-end="url(#triangle)" x1="396" x2="396" y1="576" y2="892"/>
</g>
<g>
<line marker-end="url(#triangle)" x1="396" x2="396" y1="944" y2="972"/>
</g>
<g>
<text x="17" y="684">
200
</text>
</g>
<g>
<text x="49" y="572">
700
</text>
</g>
<g>
<text x="49" y="636">
TE
</text>
</g>
<g>
<text x="65" y="1068">
(final
</text>
</g>
<g>
<text x="73" y="684">
R100
</text>
</g>
<g>
<text x="105" y="988">
ADD
</text>
</g>
<g>
<text x="105" y="1052">
250
</text>
</g>
<g>
<text x="121" y="1068">
quotient)
</text>
</g>
<g>
<text x="193" y="892">
50
</text>
</g>
<g>
<text x="225" y="572">
50
</text>
</g>
<g>
<text x="225" y="716">
ADD
</text>
</g>
<g>
<text x="225" y="780">
150
</text>
</g>
<g>
<text x="225" y="844">
TE
</text>
</g>
<g>
<text x="241" y="12">
753
</text>
</g>
<g>
<text x="249" y="892">
R00
</text>
</g>
<g>
<text x="329" y="1004">
(final
</text>
</g>
<g>
<text x="385" y="556">
.
</text>
</g>
<g>
<text x="385" y="924">
ADD
</text>
</g>
<g>
<text x="385" y="1004">
remainder)
</text>
</g>
<g>
<text x="393" y="572">
2
</text>
</g>
<g>
<text x="393" y="988">
2
</text>
</g>
<g>
<text x="401" y="556">
.
</text>
</g>
</svg>
