<svg class="bob" font-family="arial" font-size="14" height="752" width="664" xmlns="http://www.w3.org/2000/svg">
<defs>
<marker id="triangle" markerHeight="8" markerWidth="8" orient="auto" refX="4" refY="2" viewBox="0 0 8 4">
<polygon class="fg_fill" points="0,0 0,4 8,2 0,0"/>
</marker>
<marker id="clear_triangle" markerHeight="10" markerWidth="10" orient="auto" refX="1" refY="7" viewBox="0 0 20 14">
<polygon class="bg_fill" points="2,2 2,12 18,7 2,2"/>
</marker>
<marker id="circle" markerHeight="5" markerWidth="5" orient="auto" refX="10" refY="10" viewBox="0 0 20 20">
<circle class="fg_fill" cx="10" cy="10" r="8"/>
</marker>
<marker id="square" markerHeight="5" markerWidth="5" orient="auto" refX="10" refY="10" viewBox="0 0 20 20">
<rect class="fg_fill" height="20" width="20" x="0" y="0"/>
</marker>
<marker id="open_circle" markerHeight="10" markerWidth="10" orient="auto" refX="10" refY="10" viewBox="0 0 20 20">
<circle class="bg_fill" cx="10" cy="10" r="4"/>
</marker>
<marker id="big_open_circle" markerHeight="20" markerWidth="20" orient="auto" refX="20" refY="20" viewBox="0 0 40 40">
<circle class="bg_fill" cx="20" cy="20" r="6"/>
</marker>
</defs>
<style type="text/css">

rect.backdrop {
    fill: white;
}
text{
    fill: black;
}

circle {
    fill: none;
    stroke: black;
    stroke-width: 2;
}

line {
    stroke: black;
    stroke-width: 2;
    stroke-opacity: 1;
    fill-opacity: 1;
    stroke-linecap: round;
    stroke-linejoin: miter;
}

path {
    fill: none;
    stroke: black;
    stroke-width: 2;
    stroke-opacity: 1;
    fill-opacity: 1;
    stroke-linecap: round;
    stroke-linejoin: miter;
}

line.dashed {
    stroke-dasharray: 5;
}

.fg_fill {
    fill: black;
}


.bg_fill {
    fill: white;
    stroke: black;
    stroke-width: 2;
}

tspan.head{
    fill: none;
    stroke: none;
}
    
</style>
<rect class="backdrop" height="752" width="664" x="0" y="0"/>
<g>
<line x1="20" x2="20" y1="504" y2="600"/>
<line x1="20" x2="300" y1="504" y2="504"/>
<line x1="20" x2="64" y1="600" y2="600"/>
<line marker-end="url(#triangle)" x1="300" x2="300" y1="504" y2="524"/>
</g>
<g>
<line x1="36" x2="36" y1="280" y2="392"/>
<line x1="36" x2="252" y1="280" y2="280"/>
<line x1="36" x2="64" y1="392" y2="392"/>
<line marker-end="url(#triangle)" x1="252" x2="252" y1="280" y2="300"/>
</g>
<g>
<line x1="52" x2="52" y1="120" y2="216"/>
<line x1="52" x2="204" y1="120" y2="120"/>
<line x1="52" x2="64" y1="216" y2="216"/>
<line marker-end="url(#triangle)" x1="204" x2="204" y1="120" y2="140"/>
</g>
<g>
<line marker-end="url(#triangle)" x1="128" x2="124" y1="72" y2="72"/>
<line x1="128" x2="172" y1="72" y2="72"/>
<line x1="172" x2="172" y1="32" y2="72"/>
</g>
<g>
<line marker-end="url(#triangle)" x1="128" x2="124" y1="232" y2="232"/>
<line x1="128" x2="184" y1="232" y2="232"/>
</g>
<g>
<line marker-end="url(#triangle)" x1="136" x2="132" y1="456" y2="456"/>
<line x1="136" x2="208" y1="456" y2="456"/>
</g>
<g>
<line marker-end="url(#triangle)" x1="136" x2="132" y1="744" y2="744"/>
<line x1="136" x2="248" y1="744" y2="744"/>
</g>
<g>
<line x1="172" x2="172" y1="176" y2="200"/>
<line x1="172" x2="188" y1="200" y2="200"/>
<line marker-end="url(#triangle)" x1="188" x2="188" y1="200" y2="220"/>
<line x1="188" x2="204" y1="200" y2="200"/>
<line x1="204" x2="204" y1="176" y2="200"/>
</g>
<g>
<line x1="172" x2="172" y1="336" y2="360"/>
<line x1="172" x2="188" y1="360" y2="360"/>
<line marker-end="url(#triangle)" x1="188" x2="188" y1="360" y2="380"/>
<line x1="188" x2="204" y1="360" y2="360"/>
<line x1="204" x2="204" y1="336" y2="360"/>
</g>
<g>
<line x1="172" x2="172" y1="560" y2="584"/>
<line x1="172" x2="188" y1="584" y2="584"/>
<line marker-end="url(#triangle)" x1="188" x2="188" y1="584" y2="604"/>
<line x1="188" x2="204" y1="584" y2="584"/>
<line x1="204" x2="204" y1="560" y2="584"/>
</g>
<g>
<line x1="188" x2="188" y1="400" y2="424"/>
<line x1="188" x2="220" y1="424" y2="424"/>
<line marker-end="url(#triangle)" x1="220" x2="220" y1="424" y2="444"/>
<line x1="220" x2="252" y1="424" y2="424"/>
<line x1="252" x2="252" y1="400" y2="424"/>
</g>
<g>
<line x1="188" x2="188" y1="624" y2="648"/>
<line x1="188" x2="220" y1="648" y2="648"/>
<line marker-end="url(#triangle)" x1="220" x2="220" y1="648" y2="668"/>
<line x1="220" x2="252" y1="648" y2="648"/>
<line x1="252" x2="252" y1="624" y2="648"/>
</g>
<g>
<line x1="200" x2="208" y1="152" y2="152"/>
</g>
<g>
<line x1="220" x2="220" y1="688" y2="712"/>
<line x1="220" x2="260" y1="712" y2="712"/>
<line marker-end="url(#triangle)" x1="260" x2="260" y1="712" y2="732"/>
<line x1="260" x2="300" y1="712" y2="712"/>
<line x1="300" x2="300" y1="688" y2="712"/>
</g>
<g>
<line x1="232" x2="272" y1="312" y2="312"/>
</g>
<g>
<line x1="232" x2="272" y1="344" y2="344"/>
</g>
<g>
<line x1="232" x2="272" y1="536" y2="536"/>
</g>
<g>
<line x1="232" x2="272" y1="568" y2="568"/>
</g>
<g>
<line marker-end="url(#triangle)" x1="252" x2="252" y1="352" y2="380"/>
</g>
<g>
<line marker-end="url(#triangle)" x1="252" x2="252" y1="576" y2="604"/>
</g>
<g>
<line x1="296" x2="304" y1="536" y2="536"/>
</g>
<g>
<line x1="296" x2="304" y1="568" y2="568"/>
</g>
<g>
<line marker-end="url(#triangle)" x1="300" x2="300" y1="576" y2="668"/>
</g>
<g>
<text x="1" y="12">
PRIME CACHE WITH BASE VALUE: 2
</text>
</g>
<g>
<text x="1" y="108">
ITERATION 1: 2^4 remaining, but the largest already calculated cached item is 2^1
</text>
</g>
<g>
<text x="1" y="268">
ITERATION 2: 2^3 remaining, but the largest already calculated cached item is 2^2
</text>
</g>
<g>
<text x="1" y="492">
ITERATION 3: 2^1 remaining, pull in cached item for 2^1
</text>
</g>
<g>
<text x="73" y="60">
cache
</text>
</g>
<g>
<text x="73" y="76">
2^1=2
</text>
</g>
<g>
<text x="73" y="204">
cache
</text>
</g>
<g>
<text x="73" y="220">
2^1=2
</text>
</g>
<g>
<text x="73" y="236">
2^2=4
</text>
</g>
<g>
<text x="73" y="364">
cache
</text>
</g>
<g>
<text x="73" y="380">
2^1=2
</text>
</g>
<g>
<text x="73" y="396">
2^2=4
</text>
</g>
<g>
<text x="73" y="460">
2^4=16
</text>
</g>
<g>
<text x="73" y="588">
cache
</text>
</g>
<g>
<text x="73" y="604">
2^1=2
</text>
</g>
<g>
<text x="73" y="620">
2^2=4
</text>
</g>
<g>
<text x="73" y="684">
2^4=16
</text>
</g>
<g>
<text x="73" y="748">
2^5=32
</text>
</g>
<g>
<text x="169" y="28">
2
</text>
</g>
<g>
<text x="169" y="172">
2
</text>
</g>
<g>
<text x="169" y="332">
2
</text>
</g>
<g>
<text x="169" y="556">
2
</text>
</g>
<g>
<text x="185" y="28">
*
</text>
</g>
<g>
<text x="185" y="172">
*
</text>
</g>
<g>
<text x="185" y="236">
4
</text>
</g>
<g>
<text x="185" y="332">
*
</text>
</g>
<g>
<text x="185" y="396">
4
</text>
</g>
<g>
<text x="185" y="556">
*
</text>
</g>
<g>
<text x="185" y="620">
4
</text>
</g>
<g>
<text x="201" y="28">
2
</text>
</g>
<g>
<text x="201" y="172">
2
</text>
</g>
<g>
<text x="201" y="332">
2
</text>
</g>
<g>
<text x="201" y="556">
2
</text>
</g>
<g>
<text x="209" y="460">
16
</text>
</g>
<g>
<text x="209" y="684">
16
</text>
</g>
<g>
<text x="217" y="28">
*
</text>
</g>
<g>
<text x="217" y="172">
*
</text>
</g>
<g>
<text x="217" y="332">
*
</text>
</g>
<g>
<text x="217" y="556">
*
</text>
</g>
<g>
<text x="233" y="28">
2
</text>
</g>
<g>
<text x="233" y="172">
2
</text>
</g>
<g>
<text x="233" y="332">
2
</text>
</g>
<g>
<text x="233" y="556">
2
</text>
</g>
<g>
<text x="249" y="28">
*
</text>
</g>
<g>
<text x="249" y="172">
*
</text>
</g>
<g>
<text x="249" y="332">
*
</text>
</g>
<g>
<text x="249" y="396">
4
</text>
</g>
<g>
<text x="249" y="556">
*
</text>
</g>
<g>
<text x="249" y="620">
4
</text>
</g>
<g>
<text x="249" y="748">
32
</text>
</g>
<g>
<text x="265" y="28">
2
</text>
</g>
<g>
<text x="265" y="172">
2
</text>
</g>
<g>
<text x="265" y="332">
2
</text>
</g>
<g>
<text x="265" y="556">
2
</text>
</g>
<g>
<text x="281" y="28">
*
</text>
</g>
<g>
<text x="281" y="172">
*
</text>
</g>
<g>
<text x="281" y="332">
*
</text>
</g>
<g>
<text x="281" y="556">
*
</text>
</g>
<g>
<text x="297" y="28">
2
</text>
</g>
<g>
<text x="297" y="172">
2
</text>
</g>
<g>
<text x="297" y="332">
2
</text>
</g>
<g>
<text x="297" y="556">
2
</text>
</g>
<g>
<text x="297" y="684">
2
</text>
</g>
</svg>
