<svg class="bob" font-family="arial" font-size="14" height="1072" width="936" xmlns="http://www.w3.org/2000/svg">
<defs>
<marker id="triangle" markerHeight="8" markerWidth="8" orient="auto" refX="4" refY="2" viewBox="0 0 8 4">
<polygon class="fg_fill" points="0,0 0,4 8,2 0,0"/>
</marker>
<marker id="clear_triangle" markerHeight="10" markerWidth="10" orient="auto" refX="1" refY="7" viewBox="0 0 20 14">
<polygon class="bg_fill" points="2,2 2,12 18,7 2,2"/>
</marker>
<marker id="circle" markerHeight="5" markerWidth="5" orient="auto" refX="10" refY="10" viewBox="0 0 20 20">
<circle class="fg_fill" cx="10" cy="10" r="8"/>
</marker>
<marker id="square" markerHeight="5" markerWidth="5" orient="auto" refX="10" refY="10" viewBox="0 0 20 20">
<rect class="fg_fill" height="20" width="20" x="0" y="0"/>
</marker>
<marker id="open_circle" markerHeight="10" markerWidth="10" orient="auto" refX="10" refY="10" viewBox="0 0 20 20">
<circle class="bg_fill" cx="10" cy="10" r="4"/>
</marker>
<marker id="big_open_circle" markerHeight="20" markerWidth="20" orient="auto" refX="20" refY="20" viewBox="0 0 40 40">
<circle class="bg_fill" cx="20" cy="20" r="6"/>
</marker>
</defs>
<style type="text/css">

rect.backdrop {
    fill: white;
}
text{
    fill: black;
}

circle {
    fill: none;
    stroke: black;
    stroke-width: 2;
}

line {
    stroke: black;
    stroke-width: 2;
    stroke-opacity: 1;
    fill-opacity: 1;
    stroke-linecap: round;
    stroke-linejoin: miter;
}

path {
    fill: none;
    stroke: black;
    stroke-width: 2;
    stroke-opacity: 1;
    fill-opacity: 1;
    stroke-linecap: round;
    stroke-linejoin: miter;
}

line.dashed {
    stroke-dasharray: 5;
}

.fg_fill {
    fill: black;
}


.bg_fill {
    fill: white;
    stroke: black;
    stroke-width: 2;
}

tspan.head{
    fill: none;
    stroke: none;
}
    
</style>
<rect class="backdrop" height="1072" width="936" x="0" y="0"/>
<g>
<line x1="4" x2="68" y1="520" y2="520"/>
<line x1="68" x2="68" y1="520" y2="568"/>
<line marker-end="url(#triangle)" x1="68" x2="244" y1="520" y2="520"/>
<line x1="68" x2="68" y1="568" y2="616"/>
<line marker-end="url(#triangle)" x1="68" x2="244" y1="568" y2="568"/>
<line x1="68" x2="68" y1="616" y2="664"/>
<line marker-end="url(#triangle)" x1="68" x2="244" y1="616" y2="616"/>
<line x1="68" x2="68" y1="664" y2="712"/>
<line marker-end="url(#triangle)" x1="68" x2="244" y1="664" y2="664"/>
<line x1="68" x2="68" y1="712" y2="760"/>
<line marker-end="url(#triangle)" x1="68" x2="244" y1="712" y2="712"/>
<line x1="68" x2="68" y1="760" y2="808"/>
<line marker-end="url(#triangle)" x1="68" x2="244" y1="760" y2="760"/>
<line x1="68" x2="68" y1="808" y2="856"/>
<line marker-end="url(#triangle)" x1="68" x2="244" y1="808" y2="808"/>
<line x1="68" x2="68" y1="856" y2="904"/>
<line marker-end="url(#triangle)" x1="68" x2="244" y1="856" y2="856"/>
<line x1="68" x2="68" y1="904" y2="952"/>
<line marker-end="url(#triangle)" x1="68" x2="244" y1="904" y2="904"/>
<line marker-end="url(#triangle)" x1="68" x2="244" y1="952" y2="952"/>
</g>
<g>
<line marker-end="url(#triangle)" x1="176" x2="172" y1="8" y2="8"/>
<line x1="176" x2="316" y1="8" y2="8"/>
<line x1="316" x2="316" y1="8" y2="56"/>
<line x1="316" x2="932" y1="8" y2="8"/>
<line x1="316" x2="316" y1="56" y2="104"/>
<line x1="316" x2="316" y1="104" y2="152"/>
<line x1="316" x2="316" y1="152" y2="200"/>
<line x1="316" x2="316" y1="200" y2="248"/>
<line x1="316" x2="316" y1="248" y2="296"/>
<line x1="316" x2="316" y1="296" y2="344"/>
<line x1="316" x2="316" y1="344" y2="392"/>
<line x1="316" x2="316" y1="392" y2="440"/>
<line x1="932" x2="932" y1="8" y2="40"/>
<line x1="932" x2="932" y1="40" y2="88"/>
<line x1="932" x2="932" y1="88" y2="136"/>
<line x1="932" x2="932" y1="136" y2="184"/>
<line x1="932" x2="932" y1="184" y2="232"/>
<line x1="932" x2="932" y1="232" y2="280"/>
<line x1="932" x2="932" y1="280" y2="328"/>
<line x1="932" x2="932" y1="328" y2="376"/>
<line x1="932" x2="932" y1="376" y2="424"/>
</g>
<g>
<line marker-end="url(#triangle)" x1="176" x2="172" y1="56" y2="56"/>
<line x1="176" x2="316" y1="56" y2="56"/>
</g>
<g>
<line marker-end="url(#triangle)" x1="176" x2="172" y1="104" y2="104"/>
<line x1="176" x2="316" y1="104" y2="104"/>
</g>
<g>
<line marker-end="url(#triangle)" x1="176" x2="172" y1="152" y2="152"/>
<line x1="176" x2="316" y1="152" y2="152"/>
</g>
<g>
<line marker-end="url(#triangle)" x1="176" x2="172" y1="200" y2="200"/>
<line x1="176" x2="316" y1="200" y2="200"/>
</g>
<g>
<line marker-end="url(#triangle)" x1="176" x2="172" y1="248" y2="248"/>
<line x1="176" x2="316" y1="248" y2="248"/>
</g>
<g>
<line marker-end="url(#triangle)" x1="176" x2="172" y1="296" y2="296"/>
<line x1="176" x2="316" y1="296" y2="296"/>
</g>
<g>
<line marker-end="url(#triangle)" x1="176" x2="172" y1="344" y2="344"/>
<line x1="176" x2="316" y1="344" y2="344"/>
</g>
<g>
<line marker-end="url(#triangle)" x1="176" x2="172" y1="392" y2="392"/>
<line x1="176" x2="316" y1="392" y2="392"/>
</g>
<g>
<line marker-end="url(#triangle)" x1="176" x2="172" y1="440" y2="440"/>
<line x1="176" x2="316" y1="440" y2="440"/>
</g>
<g>
<line x1="256" x2="396" y1="520" y2="520"/>
<line x1="396" x2="396" y1="520" y2="568"/>
<line x1="396" x2="460" y1="520" y2="520"/>
<line x1="396" x2="396" y1="568" y2="616"/>
<line x1="396" x2="396" y1="616" y2="664"/>
<line x1="396" x2="396" y1="664" y2="712"/>
<line x1="396" x2="396" y1="712" y2="760"/>
<line x1="396" x2="396" y1="760" y2="808"/>
<line x1="396" x2="396" y1="808" y2="856"/>
<line x1="396" x2="396" y1="856" y2="904"/>
<line x1="396" x2="396" y1="904" y2="952"/>
<line x1="460" x2="460" y1="488" y2="520"/>
<line x1="460" x2="612" y1="488" y2="488"/>
<line x1="460" x2="460" y1="520" y2="552"/>
<line x1="460" x2="604" y1="552" y2="552"/>
<line x1="604" x2="604" y1="552" y2="584"/>
<line x1="604" x2="644" y1="584" y2="584"/>
<line x1="612" x2="612" y1="456" y2="488"/>
<line x1="612" x2="652" y1="456" y2="456"/>
<line x1="644" x2="644" y1="584" y2="616"/>
<line x1="644" x2="644" y1="616" y2="664"/>
<line marker-end="url(#triangle)" x1="644" x2="820" y1="616" y2="616"/>
<line x1="644" x2="644" y1="664" y2="712"/>
<line marker-end="url(#triangle)" x1="644" x2="820" y1="664" y2="664"/>
<line x1="644" x2="644" y1="712" y2="760"/>
<line marker-end="url(#triangle)" x1="644" x2="820" y1="712" y2="712"/>
<line x1="644" x2="644" y1="760" y2="808"/>
<line marker-end="url(#triangle)" x1="644" x2="820" y1="760" y2="760"/>
<line x1="644" x2="644" y1="808" y2="856"/>
<line marker-end="url(#triangle)" x1="644" x2="820" y1="808" y2="808"/>
<line x1="644" x2="644" y1="856" y2="904"/>
<line marker-end="url(#triangle)" x1="644" x2="820" y1="856" y2="856"/>
<line x1="644" x2="644" y1="904" y2="952"/>
<line marker-end="url(#triangle)" x1="644" x2="820" y1="904" y2="904"/>
<line x1="644" x2="644" y1="952" y2="1000"/>
<line marker-end="url(#triangle)" x1="644" x2="820" y1="952" y2="952"/>
<line x1="644" x2="644" y1="1000" y2="1048"/>
<line marker-end="url(#triangle)" x1="644" x2="820" y1="1000" y2="1000"/>
<line marker-end="url(#triangle)" x1="644" x2="820" y1="1048" y2="1048"/>
<line x1="652" x2="652" y1="424" y2="456"/>
<line marker-end="url(#triangle)" x1="652" x2="828" y1="424" y2="424"/>
</g>
<g>
<line x1="368" x2="396" y1="568" y2="568"/>
</g>
<g>
<line x1="368" x2="396" y1="616" y2="616"/>
</g>
<g>
<line x1="368" x2="396" y1="808" y2="808"/>
</g>
<g>
<line x1="376" x2="396" y1="712" y2="712"/>
</g>
<g>
<line x1="376" x2="396" y1="760" y2="760"/>
</g>
<g>
<line x1="376" x2="396" y1="952" y2="952"/>
</g>
<g>
<line x1="384" x2="396" y1="664" y2="664"/>
</g>
<g>
<line x1="384" x2="396" y1="856" y2="856"/>
</g>
<g>
<line x1="384" x2="396" y1="904" y2="904"/>
</g>
<g>
<line x1="652" x2="652" y1="40" y2="88"/>
<line marker-end="url(#triangle)" x1="652" x2="828" y1="40" y2="40"/>
<line x1="652" x2="652" y1="88" y2="136"/>
<line marker-end="url(#triangle)" x1="652" x2="828" y1="88" y2="88"/>
<line x1="652" x2="652" y1="136" y2="184"/>
<line marker-end="url(#triangle)" x1="652" x2="828" y1="136" y2="136"/>
<line x1="652" x2="652" y1="184" y2="232"/>
<line marker-end="url(#triangle)" x1="652" x2="828" y1="184" y2="184"/>
<line x1="652" x2="652" y1="232" y2="280"/>
<line marker-end="url(#triangle)" x1="652" x2="828" y1="232" y2="232"/>
<line x1="652" x2="652" y1="280" y2="328"/>
<line marker-end="url(#triangle)" x1="652" x2="828" y1="280" y2="280"/>
<line x1="652" x2="652" y1="328" y2="376"/>
<line marker-end="url(#triangle)" x1="652" x2="828" y1="328" y2="328"/>
<line x1="652" x2="652" y1="376" y2="424"/>
<line marker-end="url(#triangle)" x1="652" x2="828" y1="376" y2="376"/>
</g>
<g>
<line x1="840" x2="932" y1="40" y2="40"/>
</g>
<g>
<line x1="904" x2="932" y1="184" y2="184"/>
</g>
<g>
<line x1="904" x2="932" y1="232" y2="232"/>
</g>
<g>
<line x1="904" x2="932" y1="280" y2="280"/>
</g>
<g>
<line x1="912" x2="932" y1="88" y2="88"/>
</g>
<g>
<line x1="912" x2="932" y1="136" y2="136"/>
</g>
<g>
<line x1="912" x2="932" y1="376" y2="376"/>
</g>
<g>
<line x1="912" x2="932" y1="424" y2="424"/>
</g>
<g>
<line x1="920" x2="932" y1="328" y2="328"/>
</g>
<g>
<text x="25" y="540">
if
</text>
</g>
<g>
<text x="81" y="540">
digits[0] == 0
</text>
</g>
<g>
<text x="81" y="588">
digits[0] == 1
</text>
</g>
<g>
<text x="81" y="636">
digits[0] == 2
</text>
</g>
<g>
<text x="81" y="684">
digits[0] == 3
</text>
</g>
<g>
<text x="81" y="732">
digits[0] == 4
</text>
</g>
<g>
<text x="81" y="780">
digits[0] == 5
</text>
</g>
<g>
<text x="81" y="828">
digits[0] == 6
</text>
</g>
<g>
<text x="81" y="876">
digits[0] == 7
</text>
</g>
<g>
<text x="81" y="924">
digits[0] == 8
</text>
</g>
<g>
<text x="81" y="972">
digits[0] == 9
</text>
</g>
<g>
<text x="105" y="60">
one
</text>
</g>
<g>
<text x="105" y="108">
two
</text>
</g>
<g>
<text x="105" y="156">
three
</text>
</g>
<g>
<text x="105" y="204">
four
</text>
</g>
<g>
<text x="105" y="252">
five
</text>
</g>
<g>
<text x="105" y="300">
six
</text>
</g>
<g>
<text x="105" y="348">
seven
</text>
</g>
<g>
<text x="105" y="396">
eight
</text>
</g>
<g>
<text x="105" y="444">
nine
</text>
</g>
<g>
<text x="185" y="28">
digits[2] == 0
</text>
</g>
<g>
<text x="185" y="76">
digits[2] == 1
</text>
</g>
<g>
<text x="185" y="124">
digits[2] == 2
</text>
</g>
<g>
<text x="185" y="172">
digits[2] == 3
</text>
</g>
<g>
<text x="185" y="220">
digits[2] == 4
</text>
</g>
<g>
<text x="185" y="268">
digits[2] == 5
</text>
</g>
<g>
<text x="185" y="316">
digits[2] == 6
</text>
</g>
<g>
<text x="185" y="364">
digits[2] == 7
</text>
</g>
<g>
<text x="185" y="412">
digits[2] == 8
</text>
</g>
<g>
<text x="185" y="460">
digits[2] == 9
</text>
</g>
<g>
<text x="257" y="572">
one hundred
</text>
</g>
<g>
<text x="257" y="620">
two hundred
</text>
</g>
<g>
<text x="257" y="668">
three hundred
</text>
</g>
<g>
<text x="257" y="716">
four hundred
</text>
</g>
<g>
<text x="257" y="764">
five hundred
</text>
</g>
<g>
<text x="257" y="812">
six hundred
</text>
</g>
<g>
<text x="257" y="860">
seven hundred
</text>
</g>
<g>
<text x="257" y="908">
eight hundred
</text>
</g>
<g>
<text x="257" y="956">
nine hundred
</text>
</g>
<g>
<text x="425" y="540">
if
</text>
</g>
<g>
<text x="465" y="572">
digits[1] == 1
</text>
</g>
<g>
<text x="473" y="508">
digits[1] != 1
</text>
</g>
<g>
<text x="617" y="604">
if
</text>
</g>
<g>
<text x="625" y="476">
if
</text>
</g>
<g>
<text x="657" y="636">
digits[1:2] == 10
</text>
</g>
<g>
<text x="657" y="684">
digits[1:2] == 11
</text>
</g>
<g>
<text x="657" y="732">
digits[1:2] == 12
</text>
</g>
<g>
<text x="657" y="780">
digits[1:2] == 13
</text>
</g>
<g>
<text x="657" y="828">
digits[1:2] == 14
</text>
</g>
<g>
<text x="657" y="876">
digits[1:2] == 15
</text>
</g>
<g>
<text x="657" y="924">
digits[1:2] == 16
</text>
</g>
<g>
<text x="657" y="972">
digits[1:2] == 17
</text>
</g>
<g>
<text x="657" y="1020">
digits[1:2] == 18
</text>
</g>
<g>
<text x="657" y="1068">
digits[1:2] == 19
</text>
</g>
<g>
<text x="665" y="60">
digits[1] == 0
</text>
</g>
<g>
<text x="665" y="108">
digits[1] == 2
</text>
</g>
<g>
<text x="665" y="156">
digits[1] == 3
</text>
</g>
<g>
<text x="665" y="204">
digits[1] == 4
</text>
</g>
<g>
<text x="665" y="252">
digits[1] == 5
</text>
</g>
<g>
<text x="665" y="300">
digits[1] == 6
</text>
</g>
<g>
<text x="665" y="348">
digits[1] == 7
</text>
</g>
<g>
<text x="665" y="396">
digits[1] == 8
</text>
</g>
<g>
<text x="665" y="444">
digits[1] == 9
</text>
</g>
<g>
<text x="833" y="620">
ten
</text>
</g>
<g>
<text x="833" y="668">
eleven
</text>
</g>
<g>
<text x="833" y="716">
twelve
</text>
</g>
<g>
<text x="833" y="764">
thirteen
</text>
</g>
<g>
<text x="833" y="812">
fourteen
</text>
</g>
<g>
<text x="833" y="860">
fifteen
</text>
</g>
<g>
<text x="833" y="908">
sixteen
</text>
</g>
<g>
<text x="833" y="956">
seventeen
</text>
</g>
<g>
<text x="833" y="1004">
eighteen
</text>
</g>
<g>
<text x="833" y="1052">
nineteen
</text>
</g>
<g>
<text x="841" y="92">
twenty
</text>
</g>
<g>
<text x="841" y="140">
thirty
</text>
</g>
<g>
<text x="841" y="188">
forty
</text>
</g>
<g>
<text x="841" y="236">
fifty
</text>
</g>
<g>
<text x="841" y="284">
sixty
</text>
</g>
<g>
<text x="841" y="332">
seventy
</text>
</g>
<g>
<text x="841" y="380">
eighty
</text>
</g>
<g>
<text x="841" y="428">
ninety
</text>
</g>
</svg>
