<svg class="bob" font-family="arial" font-size="14" height="1696" width="760" xmlns="http://www.w3.org/2000/svg">
<defs>
<marker id="triangle" markerHeight="8" markerWidth="8" orient="auto" refX="4" refY="2" viewBox="0 0 8 4">
<polygon class="fg_fill" points="0,0 0,4 8,2 0,0"/>
</marker>
<marker id="clear_triangle" markerHeight="10" markerWidth="10" orient="auto" refX="1" refY="7" viewBox="0 0 20 14">
<polygon class="bg_fill" points="2,2 2,12 18,7 2,2"/>
</marker>
<marker id="circle" markerHeight="5" markerWidth="5" orient="auto" refX="10" refY="10" viewBox="0 0 20 20">
<circle class="fg_fill" cx="10" cy="10" r="8"/>
</marker>
<marker id="square" markerHeight="5" markerWidth="5" orient="auto" refX="10" refY="10" viewBox="0 0 20 20">
<rect class="fg_fill" height="20" width="20" x="0" y="0"/>
</marker>
<marker id="open_circle" markerHeight="10" markerWidth="10" orient="auto" refX="10" refY="10" viewBox="0 0 20 20">
<circle class="bg_fill" cx="10" cy="10" r="4"/>
</marker>
<marker id="big_open_circle" markerHeight="20" markerWidth="20" orient="auto" refX="20" refY="20" viewBox="0 0 40 40">
<circle class="bg_fill" cx="20" cy="20" r="6"/>
</marker>
</defs>
<style type="text/css">

rect.backdrop {
    fill: white;
}
text{
    fill: black;
}

circle {
    fill: none;
    stroke: black;
    stroke-width: 2;
}

line {
    stroke: black;
    stroke-width: 2;
    stroke-opacity: 1;
    fill-opacity: 1;
    stroke-linecap: round;
    stroke-linejoin: miter;
}

path {
    fill: none;
    stroke: black;
    stroke-width: 2;
    stroke-opacity: 1;
    fill-opacity: 1;
    stroke-linecap: round;
    stroke-linejoin: miter;
}

line.dashed {
    stroke-dasharray: 5;
}

.fg_fill {
    fill: black;
}


.bg_fill {
    fill: white;
    stroke: black;
    stroke-width: 2;
}

tspan.head{
    fill: none;
    stroke: none;
}
    
</style>
<rect class="backdrop" height="1696" width="760" x="0" y="0"/>
<g>
<line x1="20" x2="20" y1="88" y2="552"/>
<line x1="20" x2="108" y1="88" y2="88"/>
<line x1="20" x2="108" y1="552" y2="552"/>
<line x1="108" x2="108" y1="88" y2="552"/>
</g>
<g>
<line x1="20" x2="20" y1="920" y2="968"/>
<line x1="20" x2="108" y1="920" y2="920"/>
<line x1="20" x2="108" y1="968" y2="968"/>
<line x1="108" x2="108" y1="920" y2="968"/>
</g>
<g>
<line marker-end="url(#triangle)" x1="28" x2="28" y1="632" y2="668"/>
<line x1="28" x2="44" y1="632" y2="632"/>
</g>
<g>
<line marker-end="url(#triangle)" x1="28" x2="28" y1="1048" y2="1084"/>
<line x1="28" x2="44" y1="1048" y2="1048"/>
</g>
<g>
<line x1="44" x2="44" y1="616" y2="648"/>
<line x1="44" x2="68" y1="616" y2="616"/>
<line x1="44" x2="68" y1="648" y2="648"/>
<line x1="68" x2="68" y1="616" y2="648"/>
</g>
<g>
<line x1="44" x2="44" y1="1032" y2="1064"/>
<line x1="44" x2="68" y1="1032" y2="1032"/>
<line x1="44" x2="68" y1="1064" y2="1064"/>
<line x1="68" x2="68" y1="1032" y2="1064"/>
</g>
<g>
<line marker-end="url(#triangle)" x1="60" x2="60" y1="576" y2="604"/>
</g>
<g>
<line marker-end="url(#triangle)" x1="60" x2="60" y1="992" y2="1020"/>
</g>
<g>
<line marker-end="url(#triangle)" x1="68" x2="68" y1="40" y2="76"/>
<line x1="68" x2="252" y1="40" y2="40"/>
<line x1="252" x2="252" y1="16" y2="40"/>
<line marker-end="url(#triangle)" x1="252" x2="252" y1="40" y2="492"/>
<line x1="252" x2="396" y1="40" y2="40"/>
<line marker-end="url(#triangle)" x1="396" x2="396" y1="40" y2="540"/>
</g>
<g>
<line x1="68" x2="84" y1="632" y2="632"/>
<line marker-end="url(#triangle)" x1="84" x2="84" y1="632" y2="668"/>
</g>
<g>
<line marker-end="url(#triangle)" x1="68" x2="68" y1="872" y2="908"/>
<line x1="68" x2="252" y1="872" y2="872"/>
<line x1="252" x2="252" y1="848" y2="872"/>
<line marker-end="url(#triangle)" x1="252" x2="252" y1="872" y2="924"/>
<line x1="252" x2="396" y1="872" y2="872"/>
<line marker-end="url(#triangle)" x1="396" x2="396" y1="872" y2="956"/>
</g>
<g>
<line x1="68" x2="84" y1="1048" y2="1048"/>
<line marker-end="url(#triangle)" x1="84" x2="84" y1="1048" y2="1084"/>
</g>
<g>
<line x1="84" x2="84" y1="688" y2="712"/>
<line x1="84" x2="252" y1="712" y2="712"/>
<line x1="252" x2="252" y1="688" y2="712"/>
<line marker-end="url(#triangle)" x1="252" x2="252" y1="712" y2="748"/>
<line x1="252" x2="420" y1="712" y2="712"/>
<line x1="420" x2="420" y1="688" y2="712"/>
</g>
<g>
<line x1="84" x2="84" y1="1104" y2="1128"/>
<line x1="84" x2="252" y1="1128" y2="1128"/>
<line x1="252" x2="252" y1="1104" y2="1128"/>
<line marker-end="url(#triangle)" x1="252" x2="252" y1="1128" y2="1164"/>
<line x1="252" x2="420" y1="1128" y2="1128"/>
<line x1="420" x2="420" y1="1104" y2="1128"/>
</g>
<g>
<line marker-end="url(#triangle)" x1="204" x2="204" y1="632" y2="668"/>
<line x1="204" x2="220" y1="632" y2="632"/>
</g>
<g>
<line marker-end="url(#triangle)" x1="204" x2="204" y1="1048" y2="1084"/>
<line x1="204" x2="220" y1="1048" y2="1048"/>
</g>
<g>
<line marker-end="url(#triangle)" x1="204" x2="204" y1="1464" y2="1500"/>
<line x1="204" x2="220" y1="1464" y2="1464"/>
</g>
<g>
<line x1="212" x2="212" y1="504" y2="552"/>
<line x1="212" x2="260" y1="504" y2="504"/>
<line x1="212" x2="260" y1="552" y2="552"/>
<line x1="260" x2="260" y1="504" y2="552"/>
</g>
<g>
<line x1="212" x2="212" y1="936" y2="968"/>
<line x1="212" x2="260" y1="936" y2="936"/>
<line x1="212" x2="260" y1="968" y2="968"/>
<line x1="260" x2="260" y1="936" y2="968"/>
</g>
<g>
<line x1="212" x2="212" y1="1368" y2="1384"/>
<line x1="212" x2="260" y1="1368" y2="1368"/>
<line x1="212" x2="260" y1="1384" y2="1384"/>
<line x1="260" x2="260" y1="1368" y2="1384"/>
</g>
<g>
<line x1="220" x2="220" y1="616" y2="648"/>
<line x1="220" x2="244" y1="616" y2="616"/>
<line x1="220" x2="244" y1="648" y2="648"/>
<line x1="244" x2="244" y1="616" y2="648"/>
</g>
<g>
<line x1="220" x2="220" y1="1032" y2="1064"/>
<line x1="220" x2="244" y1="1032" y2="1032"/>
<line x1="220" x2="244" y1="1064" y2="1064"/>
<line x1="244" x2="244" y1="1032" y2="1064"/>
</g>
<g>
<line x1="220" x2="220" y1="1448" y2="1480"/>
<line x1="220" x2="244" y1="1448" y2="1448"/>
<line x1="220" x2="244" y1="1480" y2="1480"/>
<line x1="244" x2="244" y1="1448" y2="1480"/>
</g>
<g>
<line marker-end="url(#triangle)" x1="236" x2="236" y1="576" y2="604"/>
</g>
<g>
<line x1="236" x2="236" y1="760" y2="792"/>
<line x1="236" x2="268" y1="760" y2="760"/>
<line x1="236" x2="252" y1="792" y2="792"/>
<line marker-end="url(#triangle)" x1="252" x2="252" y1="792" y2="828"/>
<line x1="252" x2="268" y1="792" y2="792"/>
<line x1="268" x2="268" y1="760" y2="792"/>
</g>
<g>
<line marker-end="url(#triangle)" x1="236" x2="236" y1="992" y2="1020"/>
</g>
<g>
<line x1="236" x2="236" y1="1176" y2="1208"/>
<line x1="236" x2="268" y1="1176" y2="1176"/>
<line x1="236" x2="252" y1="1208" y2="1208"/>
<line marker-end="url(#triangle)" x1="252" x2="252" y1="1208" y2="1244"/>
<line x1="252" x2="268" y1="1208" y2="1208"/>
<line x1="268" x2="268" y1="1176" y2="1208"/>
</g>
<g>
<line marker-end="url(#triangle)" x1="236" x2="236" y1="1408" y2="1436"/>
</g>
<g>
<line x1="236" x2="236" y1="1592" y2="1624"/>
<line x1="236" x2="268" y1="1592" y2="1592"/>
<line x1="236" x2="252" y1="1624" y2="1624"/>
<line marker-end="url(#triangle)" x1="252" x2="252" y1="1624" y2="1660"/>
<line x1="252" x2="268" y1="1624" y2="1624"/>
<line x1="268" x2="268" y1="1592" y2="1624"/>
</g>
<g>
<line x1="244" x2="260" y1="632" y2="632"/>
<line marker-end="url(#triangle)" x1="260" x2="260" y1="632" y2="668"/>
</g>
<g>
<line x1="244" x2="260" y1="1048" y2="1048"/>
<line marker-end="url(#triangle)" x1="260" x2="260" y1="1048" y2="1084"/>
</g>
<g>
<line x1="244" x2="260" y1="1464" y2="1464"/>
<line marker-end="url(#triangle)" x1="260" x2="260" y1="1464" y2="1500"/>
</g>
<g>
<line x1="252" x2="252" y1="1264" y2="1288"/>
<line marker-end="url(#triangle)" x1="252" x2="252" y1="1288" y2="1356"/>
<line x1="252" x2="396" y1="1288" y2="1288"/>
<line marker-end="url(#triangle)" x1="396" x2="396" y1="1288" y2="1372"/>
</g>
<g>
<line x1="252" x2="252" y1="1520" y2="1544"/>
<line marker-end="url(#triangle)" x1="252" x2="252" y1="1544" y2="1580"/>
<line x1="252" x2="420" y1="1544" y2="1544"/>
<line x1="420" x2="420" y1="1520" y2="1544"/>
</g>
<g>
<line marker-end="url(#triangle)" x1="364" x2="364" y1="632" y2="668"/>
<line x1="364" x2="380" y1="632" y2="632"/>
</g>
<g>
<line marker-end="url(#triangle)" x1="364" x2="364" y1="1048" y2="1084"/>
<line x1="364" x2="380" y1="1048" y2="1048"/>
</g>
<g>
<line marker-end="url(#triangle)" x1="364" x2="364" y1="1464" y2="1500"/>
<line x1="364" x2="380" y1="1464" y2="1464"/>
</g>
<g>
<line x1="380" x2="380" y1="616" y2="648"/>
<line x1="380" x2="404" y1="616" y2="616"/>
<line x1="380" x2="404" y1="648" y2="648"/>
<line x1="404" x2="404" y1="616" y2="648"/>
</g>
<g>
<line x1="380" x2="380" y1="1032" y2="1064"/>
<line x1="380" x2="404" y1="1032" y2="1032"/>
<line x1="380" x2="404" y1="1064" y2="1064"/>
<line x1="404" x2="404" y1="1032" y2="1064"/>
</g>
<g>
<line x1="380" x2="380" y1="1448" y2="1480"/>
<line x1="380" x2="404" y1="1448" y2="1448"/>
<line x1="380" x2="404" y1="1480" y2="1480"/>
<line x1="404" x2="404" y1="1448" y2="1480"/>
</g>
<g>
<line marker-end="url(#triangle)" x1="396" x2="396" y1="576" y2="604"/>
</g>
<g>
<line marker-end="url(#triangle)" x1="396" x2="396" y1="992" y2="1020"/>
</g>
<g>
<line marker-end="url(#triangle)" x1="396" x2="396" y1="1408" y2="1436"/>
</g>
<g>
<line x1="404" x2="420" y1="632" y2="632"/>
<line marker-end="url(#triangle)" x1="420" x2="420" y1="632" y2="668"/>
</g>
<g>
<line x1="404" x2="420" y1="1048" y2="1048"/>
<line marker-end="url(#triangle)" x1="420" x2="420" y1="1048" y2="1084"/>
</g>
<g>
<line x1="404" x2="420" y1="1464" y2="1464"/>
<line marker-end="url(#triangle)" x1="420" x2="420" y1="1464" y2="1500"/>
</g>
<g>
<line x1="624" x2="692" y1="1512" y2="1512"/>
<line x1="692" x2="692" y1="1096" y2="1512"/>
<line marker-end="url(#triangle)" x1="692" x2="692" y1="1512" y2="1580"/>
</g>
<g>
<line x1="656" x2="692" y1="1096" y2="1096"/>
<line x1="692" x2="692" y1="680" y2="1096"/>
</g>
<g>
<line x1="676" x2="676" y1="1592" y2="1624"/>
<line x1="676" x2="708" y1="1592" y2="1592"/>
<line x1="676" x2="692" y1="1624" y2="1624"/>
<line marker-end="url(#triangle)" x1="692" x2="692" y1="1624" y2="1660"/>
<line x1="692" x2="708" y1="1624" y2="1624"/>
<line x1="708" x2="708" y1="1592" y2="1624"/>
</g>
<g>
<line x1="680" x2="692" y1="680" y2="680"/>
</g>
<g>
<text x="17" y="684">
200
</text>
</g>
<g>
<text x="17" y="1100">
30
</text>
</g>
<g>
<text x="49" y="572">
700
</text>
</g>
<g>
<text x="49" y="636">
TE
</text>
</g>
<g>
<text x="49" y="988">
100
</text>
</g>
<g>
<text x="49" y="1052">
TE
</text>
</g>
<g>
<text x="73" y="684">
R100
</text>
</g>
<g>
<text x="73" y="1100">
R10
</text>
</g>
<g>
<text x="193" y="684">
10
</text>
</g>
<g>
<text x="193" y="1692">
(final
</text>
</g>
<g>
<text x="201" y="1100">
6
</text>
</g>
<g>
<text x="201" y="1516">
3
</text>
</g>
<g>
<text x="225" y="572">
50
</text>
</g>
<g>
<text x="225" y="636">
TE
</text>
</g>
<g>
<text x="225" y="988">
20
</text>
</g>
<g>
<text x="225" y="1052">
TE
</text>
</g>
<g>
<text x="225" y="1404">
10
</text>
</g>
<g>
<text x="225" y="1468">
TE
</text>
</g>
<g>
<text x="241" y="12">
753
</text>
</g>
<g>
<text x="241" y="780">
ADD
</text>
</g>
<g>
<text x="241" y="844">
122
</text>
</g>
<g>
<text x="241" y="1196">
ADD
</text>
</g>
<g>
<text x="241" y="1612">
ADD
</text>
</g>
<g>
<text x="249" y="684">
R20
</text>
</g>
<g>
<text x="249" y="1100">
R2
</text>
</g>
<g>
<text x="249" y="1260">
14
</text>
</g>
<g>
<text x="249" y="1516">
R1
</text>
</g>
<g>
<text x="249" y="1676">
2
</text>
</g>
<g>
<text x="249" y="1692">
remainder)
</text>
</g>
<g>
<text x="361" y="684">
0
</text>
</g>
<g>
<text x="361" y="1100">
0
</text>
</g>
<g>
<text x="361" y="1516">
1
</text>
</g>
<g>
<text x="369" y="1388">
.
</text>
</g>
<g>
<text x="385" y="556">
.
</text>
</g>
<g>
<text x="385" y="636">
TE
</text>
</g>
<g>
<text x="385" y="972">
.
</text>
</g>
<g>
<text x="385" y="1052">
TE
</text>
</g>
<g>
<text x="385" y="1388">
.
</text>
</g>
<g>
<text x="385" y="1468">
TE
</text>
</g>
<g>
<text x="393" y="572">
2
</text>
</g>
<g>
<text x="393" y="988">
2
</text>
</g>
<g>
<text x="393" y="1404">
4
</text>
</g>
<g>
<text x="401" y="556">
.
</text>
</g>
<g>
<text x="401" y="972">
.
</text>
</g>
<g>
<text x="401" y="1388">
.
</text>
</g>
<g>
<text x="417" y="684">
R2
</text>
</g>
<g>
<text x="417" y="1100">
R2
</text>
</g>
<g>
<text x="417" y="1388">
.
</text>
</g>
<g>
<text x="417" y="1516">
R1
</text>
</g>
<g>
<text x="449" y="684">
add
</text>
</g>
<g>
<text x="449" y="1100">
add
</text>
</g>
<g>
<text x="449" y="1516">
add
</text>
</g>
<g>
<text x="481" y="684">
quotients:
</text>
</g>
<g>
<text x="481" y="1100">
quotients:
</text>
</g>
<g>
<text x="481" y="1516">
quotients:
</text>
</g>
<g>
<text x="569" y="684">
200+10+0=210
</text>
</g>
<g>
<text x="569" y="1100">
30+6+0=36
</text>
</g>
<g>
<text x="569" y="1516">
3+1=4
</text>
</g>
<g>
<text x="633" y="1692">
(final
</text>
</g>
<g>
<text x="681" y="1612">
ADD
</text>
</g>
<g>
<text x="681" y="1676">
250
</text>
</g>
<g>
<text x="689" y="1692">
quotient)
</text>
</g>
</svg>
