<svg class="bob" font-family="arial" font-size="14" height="1040" width="920" xmlns="http://www.w3.org/2000/svg">
<defs>
<marker id="triangle" markerHeight="8" markerWidth="8" orient="auto" refX="4" refY="2" viewBox="0 0 8 4">
<polygon class="fg_fill" points="0,0 0,4 8,2 0,0"/>
</marker>
<marker id="clear_triangle" markerHeight="10" markerWidth="10" orient="auto" refX="1" refY="7" viewBox="0 0 20 14">
<polygon class="bg_fill" points="2,2 2,12 18,7 2,2"/>
</marker>
<marker id="circle" markerHeight="5" markerWidth="5" orient="auto" refX="10" refY="10" viewBox="0 0 20 20">
<circle class="fg_fill" cx="10" cy="10" r="8"/>
</marker>
<marker id="square" markerHeight="5" markerWidth="5" orient="auto" refX="10" refY="10" viewBox="0 0 20 20">
<rect class="fg_fill" height="20" width="20" x="0" y="0"/>
</marker>
<marker id="open_circle" markerHeight="10" markerWidth="10" orient="auto" refX="10" refY="10" viewBox="0 0 20 20">
<circle class="bg_fill" cx="10" cy="10" r="4"/>
</marker>
<marker id="big_open_circle" markerHeight="20" markerWidth="20" orient="auto" refX="20" refY="20" viewBox="0 0 40 40">
<circle class="bg_fill" cx="20" cy="20" r="6"/>
</marker>
</defs>
<style type="text/css">

rect.backdrop {
    fill: white;
}
text{
    fill: black;
}

circle {
    fill: none;
    stroke: black;
    stroke-width: 2;
}

line {
    stroke: black;
    stroke-width: 2;
    stroke-opacity: 1;
    fill-opacity: 1;
    stroke-linecap: round;
    stroke-linejoin: miter;
}

path {
    fill: none;
    stroke: black;
    stroke-width: 2;
    stroke-opacity: 1;
    fill-opacity: 1;
    stroke-linecap: round;
    stroke-linejoin: miter;
}

line.dashed {
    stroke-dasharray: 5;
}

.fg_fill {
    fill: black;
}


.bg_fill {
    fill: white;
    stroke: black;
    stroke-width: 2;
}

tspan.head{
    fill: none;
    stroke: none;
}
    
</style>
<rect class="backdrop" height="1040" width="920" x="0" y="0"/>
<g>
<line x1="4" x2="68" y1="488" y2="488"/>
<line x1="68" x2="68" y1="488" y2="536"/>
<line marker-end="url(#triangle)" x1="68" x2="244" y1="488" y2="488"/>
<line x1="68" x2="68" y1="536" y2="584"/>
<line marker-end="url(#triangle)" x1="68" x2="244" y1="536" y2="536"/>
<line x1="68" x2="68" y1="584" y2="632"/>
<line marker-end="url(#triangle)" x1="68" x2="244" y1="584" y2="584"/>
<line x1="68" x2="68" y1="632" y2="680"/>
<line marker-end="url(#triangle)" x1="68" x2="244" y1="632" y2="632"/>
<line x1="68" x2="68" y1="680" y2="728"/>
<line marker-end="url(#triangle)" x1="68" x2="244" y1="680" y2="680"/>
<line x1="68" x2="68" y1="728" y2="776"/>
<line marker-end="url(#triangle)" x1="68" x2="244" y1="728" y2="728"/>
<line x1="68" x2="68" y1="776" y2="824"/>
<line marker-end="url(#triangle)" x1="68" x2="244" y1="776" y2="776"/>
<line x1="68" x2="68" y1="824" y2="872"/>
<line marker-end="url(#triangle)" x1="68" x2="244" y1="824" y2="824"/>
<line x1="68" x2="68" y1="872" y2="920"/>
<line marker-end="url(#triangle)" x1="68" x2="244" y1="872" y2="872"/>
<line marker-end="url(#triangle)" x1="68" x2="244" y1="920" y2="920"/>
</g>
<g>
<line x1="256" x2="396" y1="488" y2="488"/>
<line x1="396" x2="396" y1="488" y2="536"/>
<line x1="396" x2="460" y1="488" y2="488"/>
<line x1="396" x2="396" y1="536" y2="584"/>
<line x1="396" x2="396" y1="584" y2="632"/>
<line x1="396" x2="396" y1="632" y2="680"/>
<line x1="396" x2="396" y1="680" y2="728"/>
<line x1="396" x2="396" y1="728" y2="776"/>
<line x1="396" x2="396" y1="776" y2="824"/>
<line x1="396" x2="396" y1="824" y2="872"/>
<line x1="396" x2="396" y1="872" y2="920"/>
<line x1="460" x2="460" y1="456" y2="488"/>
<line x1="460" x2="612" y1="456" y2="456"/>
<line x1="460" x2="460" y1="488" y2="520"/>
<line x1="460" x2="604" y1="520" y2="520"/>
<line x1="604" x2="604" y1="520" y2="552"/>
<line x1="604" x2="644" y1="552" y2="552"/>
<line x1="612" x2="612" y1="424" y2="456"/>
<line x1="612" x2="652" y1="424" y2="424"/>
<line x1="644" x2="644" y1="552" y2="584"/>
<line x1="644" x2="644" y1="584" y2="632"/>
<line marker-end="url(#triangle)" x1="644" x2="820" y1="584" y2="584"/>
<line x1="644" x2="644" y1="632" y2="680"/>
<line marker-end="url(#triangle)" x1="644" x2="820" y1="632" y2="632"/>
<line x1="644" x2="644" y1="680" y2="728"/>
<line marker-end="url(#triangle)" x1="644" x2="820" y1="680" y2="680"/>
<line x1="644" x2="644" y1="728" y2="776"/>
<line marker-end="url(#triangle)" x1="644" x2="820" y1="728" y2="728"/>
<line x1="644" x2="644" y1="776" y2="824"/>
<line marker-end="url(#triangle)" x1="644" x2="820" y1="776" y2="776"/>
<line x1="644" x2="644" y1="824" y2="872"/>
<line marker-end="url(#triangle)" x1="644" x2="820" y1="824" y2="824"/>
<line x1="644" x2="644" y1="872" y2="920"/>
<line marker-end="url(#triangle)" x1="644" x2="820" y1="872" y2="872"/>
<line x1="644" x2="644" y1="920" y2="968"/>
<line marker-end="url(#triangle)" x1="644" x2="820" y1="920" y2="920"/>
<line x1="644" x2="644" y1="968" y2="1016"/>
<line marker-end="url(#triangle)" x1="644" x2="820" y1="968" y2="968"/>
<line marker-end="url(#triangle)" x1="644" x2="820" y1="1016" y2="1016"/>
<line x1="652" x2="652" y1="392" y2="424"/>
<line marker-end="url(#triangle)" x1="652" x2="828" y1="392" y2="392"/>
</g>
<g>
<line x1="368" x2="396" y1="536" y2="536"/>
</g>
<g>
<line x1="368" x2="396" y1="584" y2="584"/>
</g>
<g>
<line x1="368" x2="396" y1="776" y2="776"/>
</g>
<g>
<line x1="376" x2="396" y1="680" y2="680"/>
</g>
<g>
<line x1="376" x2="396" y1="728" y2="728"/>
</g>
<g>
<line x1="376" x2="396" y1="920" y2="920"/>
</g>
<g>
<line x1="384" x2="396" y1="632" y2="632"/>
</g>
<g>
<line x1="384" x2="396" y1="824" y2="824"/>
</g>
<g>
<line x1="384" x2="396" y1="872" y2="872"/>
</g>
<g>
<line x1="652" x2="652" y1="8" y2="56"/>
<line marker-end="url(#triangle)" x1="652" x2="828" y1="8" y2="8"/>
<line x1="652" x2="652" y1="56" y2="104"/>
<line marker-end="url(#triangle)" x1="652" x2="828" y1="56" y2="56"/>
<line x1="652" x2="652" y1="104" y2="152"/>
<line marker-end="url(#triangle)" x1="652" x2="828" y1="104" y2="104"/>
<line x1="652" x2="652" y1="152" y2="200"/>
<line marker-end="url(#triangle)" x1="652" x2="828" y1="152" y2="152"/>
<line x1="652" x2="652" y1="200" y2="248"/>
<line marker-end="url(#triangle)" x1="652" x2="828" y1="200" y2="200"/>
<line x1="652" x2="652" y1="248" y2="296"/>
<line marker-end="url(#triangle)" x1="652" x2="828" y1="248" y2="248"/>
<line x1="652" x2="652" y1="296" y2="344"/>
<line marker-end="url(#triangle)" x1="652" x2="828" y1="296" y2="296"/>
<line x1="652" x2="652" y1="344" y2="392"/>
<line marker-end="url(#triangle)" x1="652" x2="828" y1="344" y2="344"/>
</g>
<g>
<text x="25" y="508">
if
</text>
</g>
<g>
<text x="81" y="508">
digits[0] == 0
</text>
</g>
<g>
<text x="81" y="556">
digits[0] == 1
</text>
</g>
<g>
<text x="81" y="604">
digits[0] == 2
</text>
</g>
<g>
<text x="81" y="652">
digits[0] == 3
</text>
</g>
<g>
<text x="81" y="700">
digits[0] == 4
</text>
</g>
<g>
<text x="81" y="748">
digits[0] == 5
</text>
</g>
<g>
<text x="81" y="796">
digits[0] == 6
</text>
</g>
<g>
<text x="81" y="844">
digits[0] == 7
</text>
</g>
<g>
<text x="81" y="892">
digits[0] == 8
</text>
</g>
<g>
<text x="81" y="940">
digits[0] == 9
</text>
</g>
<g>
<text x="257" y="540">
one hundred
</text>
</g>
<g>
<text x="257" y="588">
two hundred
</text>
</g>
<g>
<text x="257" y="636">
three hundred
</text>
</g>
<g>
<text x="257" y="684">
four hundred
</text>
</g>
<g>
<text x="257" y="732">
five hundred
</text>
</g>
<g>
<text x="257" y="780">
six hundred
</text>
</g>
<g>
<text x="257" y="828">
seven hundred
</text>
</g>
<g>
<text x="257" y="876">
eight hundred
</text>
</g>
<g>
<text x="257" y="924">
nine hundred
</text>
</g>
<g>
<text x="425" y="508">
if
</text>
</g>
<g>
<text x="465" y="540">
digits[1] == 1
</text>
</g>
<g>
<text x="473" y="476">
digits[1] != 1
</text>
</g>
<g>
<text x="617" y="572">
if
</text>
</g>
<g>
<text x="625" y="444">
if
</text>
</g>
<g>
<text x="657" y="604">
digits[1:2] == 10
</text>
</g>
<g>
<text x="657" y="652">
digits[1:2] == 11
</text>
</g>
<g>
<text x="657" y="700">
digits[1:2] == 12
</text>
</g>
<g>
<text x="657" y="748">
digits[1:2] == 13
</text>
</g>
<g>
<text x="657" y="796">
digits[1:2] == 14
</text>
</g>
<g>
<text x="657" y="844">
digits[1:2] == 15
</text>
</g>
<g>
<text x="657" y="892">
digits[1:2] == 16
</text>
</g>
<g>
<text x="657" y="940">
digits[1:2] == 17
</text>
</g>
<g>
<text x="657" y="988">
digits[1:2] == 18
</text>
</g>
<g>
<text x="657" y="1036">
digits[1:2] == 19
</text>
</g>
<g>
<text x="665" y="28">
digits[1] == 0
</text>
</g>
<g>
<text x="665" y="76">
digits[1] == 2
</text>
</g>
<g>
<text x="665" y="124">
digits[1] == 3
</text>
</g>
<g>
<text x="665" y="172">
digits[1] == 4
</text>
</g>
<g>
<text x="665" y="220">
digits[1] == 5
</text>
</g>
<g>
<text x="665" y="268">
digits[1] == 6
</text>
</g>
<g>
<text x="665" y="316">
digits[1] == 7
</text>
</g>
<g>
<text x="665" y="364">
digits[1] == 8
</text>
</g>
<g>
<text x="665" y="412">
digits[1] == 9
</text>
</g>
<g>
<text x="833" y="588">
ten
</text>
</g>
<g>
<text x="833" y="636">
eleven
</text>
</g>
<g>
<text x="833" y="684">
twelve
</text>
</g>
<g>
<text x="833" y="732">
thirteen
</text>
</g>
<g>
<text x="833" y="780">
fourteen
</text>
</g>
<g>
<text x="833" y="828">
fifteen
</text>
</g>
<g>
<text x="833" y="876">
sixteen
</text>
</g>
<g>
<text x="833" y="924">
seventeen
</text>
</g>
<g>
<text x="833" y="972">
eighteen
</text>
</g>
<g>
<text x="833" y="1020">
nineteen
</text>
</g>
<g>
<text x="841" y="60">
twenty
</text>
</g>
<g>
<text x="841" y="108">
thirty
</text>
</g>
<g>
<text x="841" y="156">
forty
</text>
</g>
<g>
<text x="841" y="204">
fifty
</text>
</g>
<g>
<text x="841" y="252">
sixty
</text>
</g>
<g>
<text x="841" y="300">
seventy
</text>
</g>
<g>
<text x="841" y="348">
eighty
</text>
</g>
<g>
<text x="841" y="396">
ninety
</text>
</g>
</svg>
