<svg class="bob" font-family="arial" font-size="14" height="1520" width="848" xmlns="http://www.w3.org/2000/svg">
<defs>
<marker id="triangle" markerHeight="8" markerWidth="8" orient="auto" refX="4" refY="2" viewBox="0 0 8 4">
<polygon class="fg_fill" points="0,0 0,4 8,2 0,0"/>
</marker>
<marker id="clear_triangle" markerHeight="10" markerWidth="10" orient="auto" refX="1" refY="7" viewBox="0 0 20 14">
<polygon class="bg_fill" points="2,2 2,12 18,7 2,2"/>
</marker>
<marker id="circle" markerHeight="5" markerWidth="5" orient="auto" refX="10" refY="10" viewBox="0 0 20 20">
<circle class="fg_fill" cx="10" cy="10" r="8"/>
</marker>
<marker id="square" markerHeight="5" markerWidth="5" orient="auto" refX="10" refY="10" viewBox="0 0 20 20">
<rect class="fg_fill" height="20" width="20" x="0" y="0"/>
</marker>
<marker id="open_circle" markerHeight="10" markerWidth="10" orient="auto" refX="10" refY="10" viewBox="0 0 20 20">
<circle class="bg_fill" cx="10" cy="10" r="4"/>
</marker>
<marker id="big_open_circle" markerHeight="20" markerWidth="20" orient="auto" refX="20" refY="20" viewBox="0 0 40 40">
<circle class="bg_fill" cx="20" cy="20" r="6"/>
</marker>
</defs>
<style type="text/css">

rect.backdrop {
    fill: white;
}
text{
    fill: black;
}

circle {
    fill: none;
    stroke: black;
    stroke-width: 2;
}

line {
    stroke: black;
    stroke-width: 2;
    stroke-opacity: 1;
    fill-opacity: 1;
    stroke-linecap: round;
    stroke-linejoin: miter;
}

path {
    fill: none;
    stroke: black;
    stroke-width: 2;
    stroke-opacity: 1;
    fill-opacity: 1;
    stroke-linecap: round;
    stroke-linejoin: miter;
}

line.dashed {
    stroke-dasharray: 5;
}

.fg_fill {
    fill: black;
}


.bg_fill {
    fill: white;
    stroke: black;
    stroke-width: 2;
}

tspan.head{
    fill: none;
    stroke: none;
}
    
</style>
<rect class="backdrop" height="1520" width="848" x="0" y="0"/>
<g>
<line x1="4" x2="4" y1="792" y2="1032"/>
<line x1="4" x2="540" y1="792" y2="792"/>
<line x1="4" x2="64" y1="1032" y2="1032"/>
<line marker-end="url(#triangle)" x1="540" x2="540" y1="792" y2="812"/>
</g>
<g>
<line x1="4" x2="4" y1="1144" y2="1320"/>
<line x1="4" x2="732" y1="1144" y2="1144"/>
<line x1="4" x2="64" y1="1320" y2="1320"/>
<line marker-end="url(#triangle)" x1="732" x2="732" y1="1144" y2="1164"/>
</g>
<g>
<line x1="20" x2="20" y1="504" y2="680"/>
<line x1="20" x2="348" y1="504" y2="504"/>
<line x1="20" x2="64" y1="680" y2="680"/>
<line marker-end="url(#triangle)" x1="348" x2="348" y1="504" y2="524"/>
</g>
<g>
<line x1="36" x2="36" y1="280" y2="392"/>
<line x1="36" x2="252" y1="280" y2="280"/>
<line x1="36" x2="64" y1="392" y2="392"/>
<line marker-end="url(#triangle)" x1="252" x2="252" y1="280" y2="300"/>
</g>
<g>
<line x1="52" x2="52" y1="120" y2="216"/>
<line x1="52" x2="204" y1="120" y2="120"/>
<line x1="52" x2="64" y1="216" y2="216"/>
<line marker-end="url(#triangle)" x1="204" x2="204" y1="120" y2="140"/>
</g>
<g>
<line marker-end="url(#triangle)" x1="128" x2="124" y1="72" y2="72"/>
<line x1="128" x2="172" y1="72" y2="72"/>
<line x1="172" x2="172" y1="32" y2="72"/>
</g>
<g>
<line marker-end="url(#triangle)" x1="128" x2="124" y1="232" y2="232"/>
<line x1="128" x2="184" y1="232" y2="232"/>
</g>
<g>
<line marker-end="url(#triangle)" x1="136" x2="132" y1="456" y2="456"/>
<line x1="136" x2="208" y1="456" y2="456"/>
</g>
<g>
<line marker-end="url(#triangle)" x1="144" x2="140" y1="744" y2="744"/>
<line x1="144" x2="280" y1="744" y2="744"/>
</g>
<g>
<line marker-end="url(#triangle)" x1="168" x2="164" y1="1096" y2="1096"/>
<line x1="168" x2="400" y1="1096" y2="1096"/>
</g>
<g>
<line x1="172" x2="172" y1="176" y2="200"/>
<line x1="172" x2="188" y1="200" y2="200"/>
<line marker-end="url(#triangle)" x1="188" x2="188" y1="200" y2="220"/>
<line x1="188" x2="204" y1="200" y2="200"/>
<line x1="204" x2="204" y1="176" y2="200"/>
</g>
<g>
<line x1="172" x2="172" y1="336" y2="360"/>
<line x1="172" x2="188" y1="360" y2="360"/>
<line marker-end="url(#triangle)" x1="188" x2="188" y1="360" y2="380"/>
<line x1="188" x2="204" y1="360" y2="360"/>
<line x1="204" x2="204" y1="336" y2="360"/>
</g>
<g>
<line x1="172" x2="172" y1="560" y2="584"/>
<line x1="172" x2="188" y1="584" y2="584"/>
<line marker-end="url(#triangle)" x1="188" x2="188" y1="584" y2="604"/>
<line x1="188" x2="204" y1="584" y2="584"/>
<line x1="204" x2="204" y1="560" y2="584"/>
</g>
<g>
<line x1="172" x2="172" y1="848" y2="872"/>
<line x1="172" x2="188" y1="872" y2="872"/>
<line marker-end="url(#triangle)" x1="188" x2="188" y1="872" y2="892"/>
<line x1="188" x2="204" y1="872" y2="872"/>
<line x1="204" x2="204" y1="848" y2="872"/>
</g>
<g>
<line x1="172" x2="172" y1="1200" y2="1224"/>
<line x1="172" x2="188" y1="1224" y2="1224"/>
<line marker-end="url(#triangle)" x1="188" x2="188" y1="1224" y2="1244"/>
<line x1="188" x2="204" y1="1224" y2="1224"/>
<line x1="204" x2="204" y1="1200" y2="1224"/>
</g>
<g>
<line marker-end="url(#triangle)" x1="184" x2="180" y1="1512" y2="1512"/>
<line x1="184" x2="552" y1="1512" y2="1512"/>
</g>
<g>
<line x1="188" x2="188" y1="400" y2="424"/>
<line x1="188" x2="220" y1="424" y2="424"/>
<line marker-end="url(#triangle)" x1="220" x2="220" y1="424" y2="444"/>
<line x1="220" x2="252" y1="424" y2="424"/>
<line x1="252" x2="252" y1="400" y2="424"/>
</g>
<g>
<line x1="188" x2="188" y1="624" y2="648"/>
<line x1="188" x2="220" y1="648" y2="648"/>
<line marker-end="url(#triangle)" x1="220" x2="220" y1="648" y2="668"/>
<line x1="220" x2="252" y1="648" y2="648"/>
<line x1="252" x2="252" y1="624" y2="648"/>
</g>
<g>
<line x1="188" x2="188" y1="912" y2="936"/>
<line x1="188" x2="220" y1="936" y2="936"/>
<line marker-end="url(#triangle)" x1="220" x2="220" y1="936" y2="956"/>
<line x1="220" x2="252" y1="936" y2="936"/>
<line x1="252" x2="252" y1="912" y2="936"/>
</g>
<g>
<line x1="188" x2="188" y1="1264" y2="1288"/>
<line x1="188" x2="220" y1="1288" y2="1288"/>
<line marker-end="url(#triangle)" x1="220" x2="220" y1="1288" y2="1308"/>
<line x1="220" x2="252" y1="1288" y2="1288"/>
<line x1="252" x2="252" y1="1264" y2="1288"/>
</g>
<g>
<line x1="200" x2="208" y1="152" y2="152"/>
</g>
<g>
<line x1="200" x2="208" y1="824" y2="824"/>
</g>
<g>
<line x1="200" x2="208" y1="1176" y2="1176"/>
</g>
<g>
<line x1="220" x2="220" y1="688" y2="712"/>
<line x1="220" x2="292" y1="712" y2="712"/>
<line marker-end="url(#triangle)" x1="292" x2="292" y1="712" y2="732"/>
<line x1="292" x2="348" y1="712" y2="712"/>
<line x1="348" x2="348" y1="688" y2="712"/>
</g>
<g>
<line x1="220" x2="220" y1="976" y2="1000"/>
<line x1="220" x2="292" y1="1000" y2="1000"/>
<line marker-end="url(#triangle)" x1="292" x2="292" y1="1000" y2="1020"/>
<line x1="292" x2="348" y1="1000" y2="1000"/>
<line x1="348" x2="348" y1="976" y2="1000"/>
</g>
<g>
<line x1="220" x2="220" y1="1328" y2="1352"/>
<line x1="220" x2="292" y1="1352" y2="1352"/>
<line marker-end="url(#triangle)" x1="292" x2="292" y1="1352" y2="1372"/>
<line x1="292" x2="348" y1="1352" y2="1352"/>
<line x1="348" x2="348" y1="1328" y2="1352"/>
</g>
<g>
<line x1="232" x2="272" y1="312" y2="312"/>
</g>
<g>
<line x1="232" x2="272" y1="344" y2="344"/>
</g>
<g>
<line x1="232" x2="272" y1="536" y2="536"/>
</g>
<g>
<line x1="232" x2="272" y1="568" y2="568"/>
</g>
<g>
<line x1="232" x2="272" y1="824" y2="824"/>
</g>
<g>
<line x1="232" x2="272" y1="856" y2="856"/>
</g>
<g>
<line x1="232" x2="272" y1="1176" y2="1176"/>
</g>
<g>
<line x1="232" x2="272" y1="1208" y2="1208"/>
</g>
<g>
<line marker-end="url(#triangle)" x1="252" x2="252" y1="352" y2="380"/>
</g>
<g>
<line marker-end="url(#triangle)" x1="252" x2="252" y1="576" y2="604"/>
</g>
<g>
<line marker-end="url(#triangle)" x1="252" x2="252" y1="864" y2="892"/>
</g>
<g>
<line marker-end="url(#triangle)" x1="252" x2="252" y1="1216" y2="1244"/>
</g>
<g>
<line x1="292" x2="292" y1="1040" y2="1064"/>
<line x1="292" x2="420" y1="1064" y2="1064"/>
<line marker-end="url(#triangle)" x1="420" x2="420" y1="1064" y2="1084"/>
<line x1="420" x2="540" y1="1064" y2="1064"/>
<line x1="540" x2="540" y1="1040" y2="1064"/>
</g>
<g>
<line x1="292" x2="292" y1="1392" y2="1416"/>
<line x1="292" x2="420" y1="1416" y2="1416"/>
<line marker-end="url(#triangle)" x1="420" x2="420" y1="1416" y2="1436"/>
<line x1="420" x2="540" y1="1416" y2="1416"/>
<line x1="540" x2="540" y1="1392" y2="1416"/>
</g>
<g>
<line x1="296" x2="400" y1="536" y2="536"/>
</g>
<g>
<line x1="296" x2="400" y1="568" y2="568"/>
</g>
<g>
<line x1="296" x2="400" y1="824" y2="824"/>
</g>
<g>
<line x1="296" x2="400" y1="856" y2="856"/>
</g>
<g>
<line x1="296" x2="400" y1="1176" y2="1176"/>
</g>
<g>
<line x1="296" x2="400" y1="1208" y2="1208"/>
</g>
<g>
<line marker-end="url(#triangle)" x1="348" x2="348" y1="576" y2="668"/>
</g>
<g>
<line marker-end="url(#triangle)" x1="348" x2="348" y1="864" y2="956"/>
</g>
<g>
<line marker-end="url(#triangle)" x1="348" x2="348" y1="1216" y2="1308"/>
</g>
<g>
<line x1="420" x2="420" y1="1456" y2="1480"/>
<line x1="420" x2="580" y1="1480" y2="1480"/>
<line marker-end="url(#triangle)" x1="580" x2="580" y1="1480" y2="1500"/>
<line x1="580" x2="732" y1="1480" y2="1480"/>
<line x1="732" x2="732" y1="1456" y2="1480"/>
</g>
<g>
<line x1="424" x2="656" y1="824" y2="824"/>
</g>
<g>
<line x1="424" x2="656" y1="856" y2="856"/>
</g>
<g>
<line x1="424" x2="656" y1="1176" y2="1176"/>
</g>
<g>
<line x1="424" x2="656" y1="1208" y2="1208"/>
</g>
<g>
<line marker-end="url(#triangle)" x1="540" x2="540" y1="864" y2="1020"/>
</g>
<g>
<line marker-end="url(#triangle)" x1="540" x2="540" y1="1216" y2="1372"/>
</g>
<g>
<line x1="680" x2="784" y1="1176" y2="1176"/>
</g>
<g>
<line x1="680" x2="784" y1="1208" y2="1208"/>
</g>
<g>
<line marker-end="url(#triangle)" x1="732" x2="732" y1="1216" y2="1436"/>
</g>
<g>
<text x="1" y="12">
PRIME CACHE WITH BASE VALUE: 2
</text>
</g>
<g>
<text x="1" y="108">
ITERATION 1: 2^19 remaining, but the largest already calculated cached item is 2^1
</text>
</g>
<g>
<text x="1" y="268">
ITERATION 2: 2^18 remaining, but the largest already calculated cached item is 2^2
</text>
</g>
<g>
<text x="1" y="492">
ITERATION 3: 2^16 remaining, but the largest already calculated cached item is 2^4
</text>
</g>
<g>
<text x="1" y="780">
ITERATION 4: 2^12 remaining, but the largest already calculated cached item is 2^8
</text>
</g>
<g>
<text x="1" y="1132">
ITERATION 5: 2^4 remaining, pull in cached item for 2^4
</text>
</g>
<g>
<text x="73" y="60">
cache
</text>
</g>
<g>
<text x="73" y="76">
2^1=2
</text>
</g>
<g>
<text x="73" y="204">
cache
</text>
</g>
<g>
<text x="73" y="220">
2^1=2
</text>
</g>
<g>
<text x="73" y="236">
2^2=4
</text>
</g>
<g>
<text x="73" y="364">
cache
</text>
</g>
<g>
<text x="73" y="380">
2^1=2
</text>
</g>
<g>
<text x="73" y="396">
2^2=4
</text>
</g>
<g>
<text x="73" y="460">
2^4=16
</text>
</g>
<g>
<text x="73" y="588">
cache
</text>
</g>
<g>
<text x="73" y="604">
2^1=2
</text>
</g>
<g>
<text x="73" y="620">
2^2=4
</text>
</g>
<g>
<text x="73" y="684">
2^4=16
</text>
</g>
<g>
<text x="73" y="748">
2^8=256
</text>
</g>
<g>
<text x="73" y="876">
cache
</text>
</g>
<g>
<text x="73" y="892">
2^1=2
</text>
</g>
<g>
<text x="73" y="908">
2^2=4
</text>
</g>
<g>
<text x="73" y="972">
2^4=16
</text>
</g>
<g>
<text x="73" y="1036">
2^8=256
</text>
</g>
<g>
<text x="73" y="1100">
2^16=65536
</text>
</g>
<g>
<text x="73" y="1228">
cache
</text>
</g>
<g>
<text x="73" y="1244">
2^1=2
</text>
</g>
<g>
<text x="73" y="1260">
2^2=4
</text>
</g>
<g>
<text x="73" y="1324">
2^4=16
</text>
</g>
<g>
<text x="73" y="1388">
2^8=256
</text>
</g>
<g>
<text x="73" y="1452">
2^16=65536
</text>
</g>
<g>
<text x="73" y="1516">
2^20=1048576
</text>
</g>
<g>
<text x="169" y="28">
2
</text>
</g>
<g>
<text x="169" y="172">
2
</text>
</g>
<g>
<text x="169" y="332">
2
</text>
</g>
<g>
<text x="169" y="556">
2
</text>
</g>
<g>
<text x="169" y="844">
2
</text>
</g>
<g>
<text x="169" y="1196">
2
</text>
</g>
<g>
<text x="185" y="28">
*
</text>
</g>
<g>
<text x="185" y="172">
*
</text>
</g>
<g>
<text x="185" y="236">
4
</text>
</g>
<g>
<text x="185" y="332">
*
</text>
</g>
<g>
<text x="185" y="396">
4
</text>
</g>
<g>
<text x="185" y="556">
*
</text>
</g>
<g>
<text x="185" y="620">
4
</text>
</g>
<g>
<text x="185" y="844">
*
</text>
</g>
<g>
<text x="185" y="908">
4
</text>
</g>
<g>
<text x="185" y="1196">
*
</text>
</g>
<g>
<text x="185" y="1260">
4
</text>
</g>
<g>
<text x="201" y="28">
2
</text>
</g>
<g>
<text x="201" y="172">
2
</text>
</g>
<g>
<text x="201" y="332">
2
</text>
</g>
<g>
<text x="201" y="556">
2
</text>
</g>
<g>
<text x="201" y="844">
2
</text>
</g>
<g>
<text x="201" y="1196">
2
</text>
</g>
<g>
<text x="209" y="460">
16
</text>
</g>
<g>
<text x="209" y="684">
16
</text>
</g>
<g>
<text x="209" y="972">
16
</text>
</g>
<g>
<text x="209" y="1324">
16
</text>
</g>
<g>
<text x="217" y="28">
*
</text>
</g>
<g>
<text x="217" y="172">
*
</text>
</g>
<g>
<text x="217" y="332">
*
</text>
</g>
<g>
<text x="217" y="556">
*
</text>
</g>
<g>
<text x="217" y="844">
*
</text>
</g>
<g>
<text x="217" y="1196">
*
</text>
</g>
<g>
<text x="233" y="28">
2
</text>
</g>
<g>
<text x="233" y="172">
2
</text>
</g>
<g>
<text x="233" y="332">
2
</text>
</g>
<g>
<text x="233" y="556">
2
</text>
</g>
<g>
<text x="233" y="844">
2
</text>
</g>
<g>
<text x="233" y="1196">
2
</text>
</g>
<g>
<text x="249" y="28">
*
</text>
</g>
<g>
<text x="249" y="172">
*
</text>
</g>
<g>
<text x="249" y="332">
*
</text>
</g>
<g>
<text x="249" y="396">
4
</text>
</g>
<g>
<text x="249" y="556">
*
</text>
</g>
<g>
<text x="249" y="620">
4
</text>
</g>
<g>
<text x="249" y="844">
*
</text>
</g>
<g>
<text x="249" y="908">
4
</text>
</g>
<g>
<text x="249" y="1196">
*
</text>
</g>
<g>
<text x="249" y="1260">
4
</text>
</g>
<g>
<text x="265" y="28">
2
</text>
</g>
<g>
<text x="265" y="172">
2
</text>
</g>
<g>
<text x="265" y="332">
2
</text>
</g>
<g>
<text x="265" y="556">
2
</text>
</g>
<g>
<text x="265" y="844">
2
</text>
</g>
<g>
<text x="265" y="1196">
2
</text>
</g>
<g>
<text x="281" y="28">
*
</text>
</g>
<g>
<text x="281" y="172">
*
</text>
</g>
<g>
<text x="281" y="332">
*
</text>
</g>
<g>
<text x="281" y="556">
*
</text>
</g>
<g>
<text x="281" y="748">
256
</text>
</g>
<g>
<text x="281" y="844">
*
</text>
</g>
<g>
<text x="281" y="1036">
256
</text>
</g>
<g>
<text x="281" y="1196">
*
</text>
</g>
<g>
<text x="281" y="1388">
256
</text>
</g>
<g>
<text x="297" y="28">
2
</text>
</g>
<g>
<text x="297" y="172">
2
</text>
</g>
<g>
<text x="297" y="332">
2
</text>
</g>
<g>
<text x="297" y="556">
2
</text>
</g>
<g>
<text x="297" y="844">
2
</text>
</g>
<g>
<text x="297" y="1196">
2
</text>
</g>
<g>
<text x="313" y="28">
*
</text>
</g>
<g>
<text x="313" y="172">
*
</text>
</g>
<g>
<text x="313" y="332">
*
</text>
</g>
<g>
<text x="313" y="556">
*
</text>
</g>
<g>
<text x="313" y="844">
*
</text>
</g>
<g>
<text x="313" y="1196">
*
</text>
</g>
<g>
<text x="329" y="28">
2
</text>
</g>
<g>
<text x="329" y="172">
2
</text>
</g>
<g>
<text x="329" y="332">
2
</text>
</g>
<g>
<text x="329" y="556">
2
</text>
</g>
<g>
<text x="329" y="844">
2
</text>
</g>
<g>
<text x="329" y="1196">
2
</text>
</g>
<g>
<text x="337" y="684">
16
</text>
</g>
<g>
<text x="337" y="972">
16
</text>
</g>
<g>
<text x="337" y="1324">
16
</text>
</g>
<g>
<text x="345" y="28">
*
</text>
</g>
<g>
<text x="345" y="172">
*
</text>
</g>
<g>
<text x="345" y="332">
*
</text>
</g>
<g>
<text x="345" y="556">
*
</text>
</g>
<g>
<text x="345" y="844">
*
</text>
</g>
<g>
<text x="345" y="1196">
*
</text>
</g>
<g>
<text x="361" y="28">
2
</text>
</g>
<g>
<text x="361" y="172">
2
</text>
</g>
<g>
<text x="361" y="332">
2
</text>
</g>
<g>
<text x="361" y="556">
2
</text>
</g>
<g>
<text x="361" y="844">
2
</text>
</g>
<g>
<text x="361" y="1196">
2
</text>
</g>
<g>
<text x="377" y="28">
*
</text>
</g>
<g>
<text x="377" y="172">
*
</text>
</g>
<g>
<text x="377" y="332">
*
</text>
</g>
<g>
<text x="377" y="556">
*
</text>
</g>
<g>
<text x="377" y="844">
*
</text>
</g>
<g>
<text x="377" y="1196">
*
</text>
</g>
<g>
<text x="393" y="28">
2
</text>
</g>
<g>
<text x="393" y="172">
2
</text>
</g>
<g>
<text x="393" y="332">
2
</text>
</g>
<g>
<text x="393" y="556">
2
</text>
</g>
<g>
<text x="393" y="844">
2
</text>
</g>
<g>
<text x="393" y="1196">
2
</text>
</g>
<g>
<text x="401" y="1100">
65536
</text>
</g>
<g>
<text x="401" y="1452">
65536
</text>
</g>
<g>
<text x="409" y="28">
*
</text>
</g>
<g>
<text x="409" y="172">
*
</text>
</g>
<g>
<text x="409" y="332">
*
</text>
</g>
<g>
<text x="409" y="556">
*
</text>
</g>
<g>
<text x="409" y="844">
*
</text>
</g>
<g>
<text x="409" y="1196">
*
</text>
</g>
<g>
<text x="425" y="28">
2
</text>
</g>
<g>
<text x="425" y="172">
2
</text>
</g>
<g>
<text x="425" y="332">
2
</text>
</g>
<g>
<text x="425" y="556">
2
</text>
</g>
<g>
<text x="425" y="844">
2
</text>
</g>
<g>
<text x="425" y="1196">
2
</text>
</g>
<g>
<text x="441" y="28">
*
</text>
</g>
<g>
<text x="441" y="172">
*
</text>
</g>
<g>
<text x="441" y="332">
*
</text>
</g>
<g>
<text x="441" y="556">
*
</text>
</g>
<g>
<text x="441" y="844">
*
</text>
</g>
<g>
<text x="441" y="1196">
*
</text>
</g>
<g>
<text x="457" y="28">
2
</text>
</g>
<g>
<text x="457" y="172">
2
</text>
</g>
<g>
<text x="457" y="332">
2
</text>
</g>
<g>
<text x="457" y="556">
2
</text>
</g>
<g>
<text x="457" y="844">
2
</text>
</g>
<g>
<text x="457" y="1196">
2
</text>
</g>
<g>
<text x="473" y="28">
*
</text>
</g>
<g>
<text x="473" y="172">
*
</text>
</g>
<g>
<text x="473" y="332">
*
</text>
</g>
<g>
<text x="473" y="556">
*
</text>
</g>
<g>
<text x="473" y="844">
*
</text>
</g>
<g>
<text x="473" y="1196">
*
</text>
</g>
<g>
<text x="489" y="28">
2
</text>
</g>
<g>
<text x="489" y="172">
2
</text>
</g>
<g>
<text x="489" y="332">
2
</text>
</g>
<g>
<text x="489" y="556">
2
</text>
</g>
<g>
<text x="489" y="844">
2
</text>
</g>
<g>
<text x="489" y="1196">
2
</text>
</g>
<g>
<text x="505" y="28">
*
</text>
</g>
<g>
<text x="505" y="172">
*
</text>
</g>
<g>
<text x="505" y="332">
*
</text>
</g>
<g>
<text x="505" y="556">
*
</text>
</g>
<g>
<text x="505" y="844">
*
</text>
</g>
<g>
<text x="505" y="1196">
*
</text>
</g>
<g>
<text x="521" y="28">
2
</text>
</g>
<g>
<text x="521" y="172">
2
</text>
</g>
<g>
<text x="521" y="332">
2
</text>
</g>
<g>
<text x="521" y="556">
2
</text>
</g>
<g>
<text x="521" y="844">
2
</text>
</g>
<g>
<text x="521" y="1196">
2
</text>
</g>
<g>
<text x="529" y="1036">
256
</text>
</g>
<g>
<text x="529" y="1388">
256
</text>
</g>
<g>
<text x="537" y="28">
*
</text>
</g>
<g>
<text x="537" y="172">
*
</text>
</g>
<g>
<text x="537" y="332">
*
</text>
</g>
<g>
<text x="537" y="556">
*
</text>
</g>
<g>
<text x="537" y="844">
*
</text>
</g>
<g>
<text x="537" y="1196">
*
</text>
</g>
<g>
<text x="553" y="28">
2
</text>
</g>
<g>
<text x="553" y="172">
2
</text>
</g>
<g>
<text x="553" y="332">
2
</text>
</g>
<g>
<text x="553" y="556">
2
</text>
</g>
<g>
<text x="553" y="844">
2
</text>
</g>
<g>
<text x="553" y="1196">
2
</text>
</g>
<g>
<text x="553" y="1516">
1048576
</text>
</g>
<g>
<text x="569" y="28">
*
</text>
</g>
<g>
<text x="569" y="172">
*
</text>
</g>
<g>
<text x="569" y="332">
*
</text>
</g>
<g>
<text x="569" y="556">
*
</text>
</g>
<g>
<text x="569" y="844">
*
</text>
</g>
<g>
<text x="569" y="1196">
*
</text>
</g>
<g>
<text x="585" y="28">
2
</text>
</g>
<g>
<text x="585" y="172">
2
</text>
</g>
<g>
<text x="585" y="332">
2
</text>
</g>
<g>
<text x="585" y="556">
2
</text>
</g>
<g>
<text x="585" y="844">
2
</text>
</g>
<g>
<text x="585" y="1196">
2
</text>
</g>
<g>
<text x="601" y="28">
*
</text>
</g>
<g>
<text x="601" y="172">
*
</text>
</g>
<g>
<text x="601" y="332">
*
</text>
</g>
<g>
<text x="601" y="556">
*
</text>
</g>
<g>
<text x="601" y="844">
*
</text>
</g>
<g>
<text x="601" y="1196">
*
</text>
</g>
<g>
<text x="617" y="28">
2
</text>
</g>
<g>
<text x="617" y="172">
2
</text>
</g>
<g>
<text x="617" y="332">
2
</text>
</g>
<g>
<text x="617" y="556">
2
</text>
</g>
<g>
<text x="617" y="844">
2
</text>
</g>
<g>
<text x="617" y="1196">
2
</text>
</g>
<g>
<text x="633" y="28">
*
</text>
</g>
<g>
<text x="633" y="172">
*
</text>
</g>
<g>
<text x="633" y="332">
*
</text>
</g>
<g>
<text x="633" y="556">
*
</text>
</g>
<g>
<text x="633" y="844">
*
</text>
</g>
<g>
<text x="633" y="1196">
*
</text>
</g>
<g>
<text x="649" y="28">
2
</text>
</g>
<g>
<text x="649" y="172">
2
</text>
</g>
<g>
<text x="649" y="332">
2
</text>
</g>
<g>
<text x="649" y="556">
2
</text>
</g>
<g>
<text x="649" y="844">
2
</text>
</g>
<g>
<text x="649" y="1196">
2
</text>
</g>
<g>
<text x="665" y="28">
*
</text>
</g>
<g>
<text x="665" y="172">
*
</text>
</g>
<g>
<text x="665" y="332">
*
</text>
</g>
<g>
<text x="665" y="556">
*
</text>
</g>
<g>
<text x="665" y="844">
*
</text>
</g>
<g>
<text x="665" y="1196">
*
</text>
</g>
<g>
<text x="681" y="28">
2
</text>
</g>
<g>
<text x="681" y="172">
2
</text>
</g>
<g>
<text x="681" y="332">
2
</text>
</g>
<g>
<text x="681" y="556">
2
</text>
</g>
<g>
<text x="681" y="844">
2
</text>
</g>
<g>
<text x="681" y="1196">
2
</text>
</g>
<g>
<text x="697" y="28">
*
</text>
</g>
<g>
<text x="697" y="172">
*
</text>
</g>
<g>
<text x="697" y="332">
*
</text>
</g>
<g>
<text x="697" y="556">
*
</text>
</g>
<g>
<text x="697" y="844">
*
</text>
</g>
<g>
<text x="697" y="1196">
*
</text>
</g>
<g>
<text x="713" y="28">
2
</text>
</g>
<g>
<text x="713" y="172">
2
</text>
</g>
<g>
<text x="713" y="332">
2
</text>
</g>
<g>
<text x="713" y="556">
2
</text>
</g>
<g>
<text x="713" y="844">
2
</text>
</g>
<g>
<text x="713" y="1196">
2
</text>
</g>
<g>
<text x="721" y="1452">
16
</text>
</g>
<g>
<text x="729" y="28">
*
</text>
</g>
<g>
<text x="729" y="172">
*
</text>
</g>
<g>
<text x="729" y="332">
*
</text>
</g>
<g>
<text x="729" y="556">
*
</text>
</g>
<g>
<text x="729" y="844">
*
</text>
</g>
<g>
<text x="729" y="1196">
*
</text>
</g>
<g>
<text x="745" y="28">
2
</text>
</g>
<g>
<text x="745" y="172">
2
</text>
</g>
<g>
<text x="745" y="332">
2
</text>
</g>
<g>
<text x="745" y="556">
2
</text>
</g>
<g>
<text x="745" y="844">
2
</text>
</g>
<g>
<text x="745" y="1196">
2
</text>
</g>
<g>
<text x="761" y="28">
*
</text>
</g>
<g>
<text x="761" y="172">
*
</text>
</g>
<g>
<text x="761" y="332">
*
</text>
</g>
<g>
<text x="761" y="556">
*
</text>
</g>
<g>
<text x="761" y="844">
*
</text>
</g>
<g>
<text x="761" y="1196">
*
</text>
</g>
<g>
<text x="777" y="28">
2
</text>
</g>
<g>
<text x="777" y="172">
2
</text>
</g>
<g>
<text x="777" y="332">
2
</text>
</g>
<g>
<text x="777" y="556">
2
</text>
</g>
<g>
<text x="777" y="844">
2
</text>
</g>
<g>
<text x="777" y="1196">
2
</text>
</g>
</svg>
