<svg class="bob" font-family="arial" font-size="14" height="176" width="296" xmlns="http://www.w3.org/2000/svg">
<defs>
<marker id="triangle" markerHeight="8" markerWidth="8" orient="auto" refX="4" refY="2" viewBox="0 0 8 4">
<polygon class="fg_fill" points="0,0 0,4 8,2 0,0"/>
</marker>
<marker id="clear_triangle" markerHeight="10" markerWidth="10" orient="auto" refX="1" refY="7" viewBox="0 0 20 14">
<polygon class="bg_fill" points="2,2 2,12 18,7 2,2"/>
</marker>
<marker id="circle" markerHeight="5" markerWidth="5" orient="auto" refX="10" refY="10" viewBox="0 0 20 20">
<circle class="fg_fill" cx="10" cy="10" r="8"/>
</marker>
<marker id="square" markerHeight="5" markerWidth="5" orient="auto" refX="10" refY="10" viewBox="0 0 20 20">
<rect class="fg_fill" height="20" width="20" x="0" y="0"/>
</marker>
<marker id="open_circle" markerHeight="10" markerWidth="10" orient="auto" refX="10" refY="10" viewBox="0 0 20 20">
<circle class="bg_fill" cx="10" cy="10" r="4"/>
</marker>
<marker id="big_open_circle" markerHeight="20" markerWidth="20" orient="auto" refX="20" refY="20" viewBox="0 0 40 40">
<circle class="bg_fill" cx="20" cy="20" r="6"/>
</marker>
</defs>
<style type="text/css">

rect.backdrop {
    fill: white;
}
text{
    fill: black;
}

circle {
    fill: none;
    stroke: black;
    stroke-width: 2;
}

line {
    stroke: black;
    stroke-width: 2;
    stroke-opacity: 1;
    fill-opacity: 1;
    stroke-linecap: round;
    stroke-linejoin: miter;
}

path {
    fill: none;
    stroke: black;
    stroke-width: 2;
    stroke-opacity: 1;
    fill-opacity: 1;
    stroke-linecap: round;
    stroke-linejoin: miter;
}

line.dashed {
    stroke-dasharray: 5;
}

.fg_fill {
    fill: black;
}


.bg_fill {
    fill: white;
    stroke: black;
    stroke-width: 2;
}

tspan.head{
    fill: none;
    stroke: none;
}
    
</style>
<rect class="backdrop" height="176" width="296" x="0" y="0"/>
<g>
<line x1="4" x2="4" y1="16" y2="32"/>
<line x1="4" x2="8" y1="32" y2="32"/>
<line x1="8" x2="4" y1="16" y2="16"/>
</g>
<g>
<line x1="4" x2="4" y1="96" y2="112"/>
</g>
<g>
<line x1="4" x2="36" y1="104" y2="104"/>
<line x1="36" x2="68" y1="104" y2="104"/>
<line x1="68" x2="100" y1="104" y2="104"/>
<line x1="100" x2="132" y1="104" y2="104"/>
<line x1="132" x2="164" y1="104" y2="104"/>
<line x1="164" x2="196" y1="104" y2="104"/>
<line x1="196" x2="228" y1="104" y2="104"/>
<line x1="228" x2="260" y1="104" y2="104"/>
<line x1="260" x2="292" y1="104" y2="104"/>
</g>
<g>
<line x1="36" x2="36" y1="96" y2="112"/>
</g>
<g>
<line x1="68" x2="68" y1="96" y2="112"/>
</g>
<g>
<line x1="72" x2="76" y1="16" y2="16"/>
<line x1="76" x2="76" y1="16" y2="32"/>
<line x1="76" x2="72" y1="32" y2="32"/>
</g>
<g>
<line x1="100" x2="100" y1="96" y2="112"/>
</g>
<g>
<line x1="116" x2="116" y1="16" y2="32"/>
<line x1="116" x2="120" y1="32" y2="32"/>
<line x1="120" x2="116" y1="16" y2="16"/>
</g>
<g>
<line x1="132" x2="132" y1="96" y2="112"/>
</g>
<g>
<line x1="160" x2="164" y1="16" y2="16"/>
<line x1="164" x2="164" y1="16" y2="32"/>
<line x1="164" x2="160" y1="32" y2="32"/>
</g>
<g>
<line x1="164" x2="164" y1="96" y2="112"/>
</g>
<g>
<line marker-end="url(#triangle)" x1="164" x2="164" y1="144" y2="132"/>
<line x1="164" x2="164" y1="144" y2="160"/>
</g>
<g>
<line x1="196" x2="196" y1="96" y2="112"/>
</g>
<g>
<line x1="228" x2="228" y1="96" y2="112"/>
</g>
<g>
<line marker-end="url(#triangle)" x1="260" x2="260" y1="64" y2="92"/>
</g>
<g>
<line x1="260" x2="260" y1="96" y2="112"/>
</g>
<g>
<line x1="292" x2="292" y1="96" y2="112"/>
</g>
<g>
<text x="1" y="12">
8
</text>
</g>
<g>
<text x="1" y="124">
0
</text>
</g>
<g>
<text x="9" y="28">
●●●●●●●●
</text>
</g>
<g>
<text x="33" y="124">
1
</text>
</g>
<g>
<text x="65" y="124">
2
</text>
</g>
<g>
<text x="89" y="12">
vs
</text>
</g>
<g>
<text x="89" y="28">
vs
</text>
</g>
<g>
<text x="97" y="124">
3
</text>
</g>
<g>
<text x="113" y="12">
5
</text>
</g>
<g>
<text x="121" y="28">
●●●●●
</text>
</g>
<g>
<text x="129" y="124">
4
</text>
</g>
<g>
<text x="161" y="124">
5
</text>
</g>
<g>
<text x="161" y="172">
5
</text>
</g>
<g>
<text x="193" y="124">
6
</text>
</g>
<g>
<text x="225" y="124">
7
</text>
</g>
<g>
<text x="257" y="60">
8
</text>
</g>
<g>
<text x="257" y="124">
8
</text>
</g>
<g>
<text x="289" y="124">
9
</text>
</g>
</svg>
