<svg class="bob" font-family="arial" font-size="14" height="512" width="352" xmlns="http://www.w3.org/2000/svg">
<defs>
<marker id="triangle" markerHeight="8" markerWidth="8" orient="auto" refX="4" refY="2" viewBox="0 0 8 4">
<polygon class="fg_fill" points="0,0 0,4 8,2 0,0"/>
</marker>
<marker id="clear_triangle" markerHeight="10" markerWidth="10" orient="auto" refX="1" refY="7" viewBox="0 0 20 14">
<polygon class="bg_fill" points="2,2 2,12 18,7 2,2"/>
</marker>
<marker id="circle" markerHeight="5" markerWidth="5" orient="auto" refX="10" refY="10" viewBox="0 0 20 20">
<circle class="fg_fill" cx="10" cy="10" r="8"/>
</marker>
<marker id="square" markerHeight="5" markerWidth="5" orient="auto" refX="10" refY="10" viewBox="0 0 20 20">
<rect class="fg_fill" height="20" width="20" x="0" y="0"/>
</marker>
<marker id="open_circle" markerHeight="10" markerWidth="10" orient="auto" refX="10" refY="10" viewBox="0 0 20 20">
<circle class="bg_fill" cx="10" cy="10" r="4"/>
</marker>
<marker id="big_open_circle" markerHeight="20" markerWidth="20" orient="auto" refX="20" refY="20" viewBox="0 0 40 40">
<circle class="bg_fill" cx="20" cy="20" r="6"/>
</marker>
</defs>
<style type="text/css">

rect.backdrop {
    fill: white;
}
text{
    fill: black;
}

circle {
    fill: none;
    stroke: black;
    stroke-width: 2;
}

line {
    stroke: black;
    stroke-width: 2;
    stroke-opacity: 1;
    fill-opacity: 1;
    stroke-linecap: round;
    stroke-linejoin: miter;
}

path {
    fill: none;
    stroke: black;
    stroke-width: 2;
    stroke-opacity: 1;
    fill-opacity: 1;
    stroke-linecap: round;
    stroke-linejoin: miter;
}

line.dashed {
    stroke-dasharray: 5;
}

.fg_fill {
    fill: black;
}


.bg_fill {
    fill: white;
    stroke: black;
    stroke-width: 2;
}

tspan.head{
    fill: none;
    stroke: none;
}
    
</style>
<rect class="backdrop" height="512" width="352" x="0" y="0"/>
<g>
<line x1="20" x2="20" y1="40" y2="72"/>
<line x1="20" x2="60" y1="40" y2="40"/>
<line x1="20" x2="20" y1="72" y2="104"/>
<line x1="20" x2="60" y1="72" y2="72"/>
<line x1="20" x2="20" y1="104" y2="136"/>
<line x1="20" x2="60" y1="104" y2="104"/>
<line x1="20" x2="20" y1="136" y2="168"/>
<line x1="20" x2="60" y1="136" y2="136"/>
<line x1="20" x2="20" y1="168" y2="200"/>
<line x1="20" x2="60" y1="168" y2="168"/>
<line x1="20" x2="60" y1="200" y2="200"/>
<line x1="60" x2="60" y1="40" y2="72"/>
<line x1="60" x2="60" y1="72" y2="104"/>
<line x1="60" x2="60" y1="104" y2="136"/>
<line x1="60" x2="60" y1="136" y2="168"/>
<line x1="60" x2="60" y1="168" y2="200"/>
</g>
<g>
<line x1="68" x2="68" y1="280" y2="440"/>
<line x1="68" x2="172" y1="280" y2="280"/>
<line marker-end="url(#triangle)" x1="68" x2="84" y1="440" y2="440"/>
<line x1="172" x2="172" y1="280" y2="312"/>
<line x1="172" x2="180" y1="312" y2="312"/>
<line x1="180" x2="180" y1="312" y2="344"/>
</g>
<g>
<line x1="92" x2="92" y1="312" y2="344"/>
<line x1="92" x2="116" y1="312" y2="312"/>
<line x1="92" x2="108" y1="344" y2="344"/>
<line x1="108" x2="108" y1="344" y2="376"/>
<line x1="108" x2="116" y1="344" y2="344"/>
<line x1="108" x2="228" y1="376" y2="376"/>
<line x1="116" x2="116" y1="312" y2="344"/>
<line marker-end="url(#triangle)" x1="228" x2="228" y1="376" y2="412"/>
</g>
<g>
<line x1="92" x2="92" y1="424" y2="456"/>
<line x1="92" x2="108" y1="424" y2="424"/>
<line x1="92" x2="108" y1="456" y2="456"/>
<line x1="108" x2="108" y1="424" y2="456"/>
</g>
<g>
<line x1="124" x2="124" y1="40" y2="72"/>
<line x1="124" x2="164" y1="40" y2="40"/>
<line x1="124" x2="164" y1="72" y2="72"/>
<line x1="164" x2="164" y1="40" y2="72"/>
<line x1="164" x2="204" y1="40" y2="40"/>
<line x1="164" x2="204" y1="72" y2="72"/>
<line x1="204" x2="204" y1="40" y2="72"/>
<line x1="204" x2="244" y1="40" y2="40"/>
<line x1="204" x2="244" y1="72" y2="72"/>
<line x1="244" x2="244" y1="40" y2="72"/>
<line x1="244" x2="284" y1="40" y2="40"/>
<line x1="244" x2="284" y1="72" y2="72"/>
<line x1="284" x2="284" y1="40" y2="72"/>
<line x1="284" x2="324" y1="40" y2="40"/>
<line x1="284" x2="324" y1="72" y2="72"/>
<line x1="324" x2="324" y1="40" y2="72"/>
</g>
<g>
<line x1="156" x2="156" y1="424" y2="456"/>
<line x1="156" x2="172" y1="424" y2="424"/>
<line x1="156" x2="164" y1="456" y2="456"/>
<line x1="164" x2="172" y1="456" y2="456"/>
<line x1="172" x2="172" y1="424" y2="456"/>
</g>
<g>
<line x1="164" x2="164" y1="312" y2="344"/>
<line x1="164" x2="172" y1="312" y2="312"/>
<line x1="164" x2="180" y1="344" y2="344"/>
</g>
<g>
<line marker-end="url(#triangle)" x1="164" x2="164" y1="480" y2="468"/>
<line x1="164" x2="164" y1="480" y2="504"/>
<line x1="164" x2="276" y1="504" y2="504"/>
<line x1="276" x2="276" y1="328" y2="504"/>
</g>
<g>
<line x1="220" x2="220" y1="424" y2="456"/>
<line x1="220" x2="244" y1="424" y2="424"/>
<line x1="220" x2="244" y1="456" y2="456"/>
<line x1="244" x2="244" y1="424" y2="456"/>
</g>
<g>
<line x1="228" x2="228" y1="312" y2="344"/>
<line x1="228" x2="244" y1="312" y2="312"/>
<line x1="228" x2="244" y1="344" y2="344"/>
<line x1="244" x2="244" y1="312" y2="344"/>
</g>
<g>
<line x1="244" x2="276" y1="328" y2="328"/>
</g>
<g>
<text x="1" y="12">
5 * 4 = 20
</text>
</g>
<g>
<text x="25" y="60">
●●●●
</text>
</g>
<g>
<text x="25" y="92">
●●●●
</text>
</g>
<g>
<text x="25" y="124">
●●●●
</text>
</g>
<g>
<text x="25" y="156">
●●●●
</text>
</g>
<g>
<text x="25" y="188">
●●●●
</text>
</g>
<g>
<text x="33" y="220">
20
</text>
</g>
<g>
<text x="73" y="60">
4
</text>
</g>
<g>
<text x="73" y="92">
4
</text>
</g>
<g>
<text x="73" y="124">
4
</text>
</g>
<g>
<text x="73" y="156">
4
</text>
</g>
<g>
<text x="73" y="188">
4
</text>
</g>
<g>
<text x="97" y="332">
20
</text>
</g>
<g>
<text x="97" y="444">
5
</text>
</g>
<g>
<text x="121" y="444">
*
</text>
</g>
<g>
<text x="129" y="60">
●●●●
</text>
</g>
<g>
<text x="129" y="332">
/
</text>
</g>
<g>
<text x="137" y="92">
4
</text>
</g>
<g>
<text x="161" y="444">
4
</text>
</g>
<g>
<text x="169" y="12">
20 / 5 = 4
</text>
</g>
<g>
<text x="169" y="60">
●●●●
</text>
</g>
<g>
<text x="169" y="332">
5
</text>
</g>
<g>
<text x="177" y="92">
4
</text>
</g>
<g>
<text x="185" y="444">
=
</text>
</g>
<g>
<text x="193" y="332">
=
</text>
</g>
<g>
<text x="209" y="60">
●●●●
</text>
</g>
<g>
<text x="217" y="92">
4
</text>
</g>
<g>
<text x="225" y="444">
20
</text>
</g>
<g>
<text x="233" y="332">
4
</text>
</g>
<g>
<text x="249" y="60">
●●●●
</text>
</g>
<g>
<text x="257" y="92">
4
</text>
</g>
<g>
<text x="289" y="60">
●●●●
</text>
</g>
<g>
<text x="297" y="92">
4
</text>
</g>
<g>
<text x="337" y="60">
20
</text>
</g>
</svg>
