<svg class="bob" font-family="arial" font-size="14" height="672" width="456" xmlns="http://www.w3.org/2000/svg">
<defs>
<marker id="triangle" markerHeight="8" markerWidth="8" orient="auto" refX="4" refY="2" viewBox="0 0 8 4">
<polygon class="fg_fill" points="0,0 0,4 8,2 0,0"/>
</marker>
<marker id="clear_triangle" markerHeight="10" markerWidth="10" orient="auto" refX="1" refY="7" viewBox="0 0 20 14">
<polygon class="bg_fill" points="2,2 2,12 18,7 2,2"/>
</marker>
<marker id="circle" markerHeight="5" markerWidth="5" orient="auto" refX="10" refY="10" viewBox="0 0 20 20">
<circle class="fg_fill" cx="10" cy="10" r="8"/>
</marker>
<marker id="square" markerHeight="5" markerWidth="5" orient="auto" refX="10" refY="10" viewBox="0 0 20 20">
<rect class="fg_fill" height="20" width="20" x="0" y="0"/>
</marker>
<marker id="open_circle" markerHeight="10" markerWidth="10" orient="auto" refX="10" refY="10" viewBox="0 0 20 20">
<circle class="bg_fill" cx="10" cy="10" r="4"/>
</marker>
<marker id="big_open_circle" markerHeight="20" markerWidth="20" orient="auto" refX="20" refY="20" viewBox="0 0 40 40">
<circle class="bg_fill" cx="20" cy="20" r="6"/>
</marker>
</defs>
<style type="text/css">

rect.backdrop {
    fill: white;
}
text{
    fill: black;
}

circle {
    fill: none;
    stroke: black;
    stroke-width: 2;
}

line {
    stroke: black;
    stroke-width: 2;
    stroke-opacity: 1;
    fill-opacity: 1;
    stroke-linecap: round;
    stroke-linejoin: miter;
}

path {
    fill: none;
    stroke: black;
    stroke-width: 2;
    stroke-opacity: 1;
    fill-opacity: 1;
    stroke-linecap: round;
    stroke-linejoin: miter;
}

line.dashed {
    stroke-dasharray: 5;
}

.fg_fill {
    fill: black;
}


.bg_fill {
    fill: white;
    stroke: black;
    stroke-width: 2;
}

tspan.head{
    fill: none;
    stroke: none;
}
    
</style>
<rect class="backdrop" height="672" width="456" x="0" y="0"/>
<g>
<line x1="20" x2="20" y1="88" y2="552"/>
<line x1="20" x2="108" y1="88" y2="88"/>
<line x1="20" x2="108" y1="552" y2="552"/>
<line x1="108" x2="108" y1="88" y2="552"/>
</g>
<g>
<line marker-end="url(#triangle)" x1="60" x2="60" y1="576" y2="620"/>
</g>
<g>
<line marker-end="url(#triangle)" x1="68" x2="68" y1="40" y2="76"/>
<line x1="68" x2="252" y1="40" y2="40"/>
<line x1="252" x2="252" y1="16" y2="40"/>
<line marker-end="url(#triangle)" x1="252" x2="252" y1="40" y2="492"/>
<line x1="252" x2="396" y1="40" y2="40"/>
<line marker-end="url(#triangle)" x1="396" x2="396" y1="40" y2="540"/>
</g>
<g>
<line x1="212" x2="212" y1="504" y2="552"/>
<line x1="212" x2="260" y1="504" y2="504"/>
<line x1="212" x2="260" y1="552" y2="552"/>
<line x1="260" x2="260" y1="504" y2="552"/>
</g>
<g>
<line marker-end="url(#triangle)" x1="236" x2="236" y1="576" y2="620"/>
</g>
<g>
<line marker-end="url(#triangle)" x1="396" x2="396" y1="576" y2="620"/>
</g>
<g>
<text x="9" y="636">
how
</text>
</g>
<g>
<text x="9" y="652">
of
</text>
</g>
<g>
<text x="9" y="668">
make?
</text>
</g>
<g>
<text x="33" y="652">
3
</text>
</g>
<g>
<text x="41" y="636">
many
</text>
</g>
<g>
<text x="49" y="572">
700
</text>
</g>
<g>
<text x="49" y="652">
does
</text>
</g>
<g>
<text x="57" y="668">
700 / 3
</text>
</g>
<g>
<text x="81" y="636">
groups
</text>
</g>
<g>
<text x="89" y="652">
700
</text>
</g>
<g>
<text x="177" y="636">
how
</text>
</g>
<g>
<text x="177" y="652">
of
</text>
</g>
<g>
<text x="177" y="668">
make?
</text>
</g>
<g>
<text x="201" y="652">
3
</text>
</g>
<g>
<text x="209" y="636">
many
</text>
</g>
<g>
<text x="217" y="652">
does
</text>
</g>
<g>
<text x="225" y="572">
50
</text>
</g>
<g>
<text x="225" y="668">
50 / 3
</text>
</g>
<g>
<text x="241" y="12">
753
</text>
</g>
<g>
<text x="249" y="636">
groups
</text>
</g>
<g>
<text x="257" y="652">
50
</text>
</g>
<g>
<text x="337" y="636">
how
</text>
</g>
<g>
<text x="337" y="652">
of
</text>
</g>
<g>
<text x="337" y="668">
make?
</text>
</g>
<g>
<text x="361" y="652">
2
</text>
</g>
<g>
<text x="369" y="636">
many
</text>
</g>
<g>
<text x="377" y="652">
does
</text>
</g>
<g>
<text x="385" y="556">
.
</text>
</g>
<g>
<text x="385" y="668">
2 / 3
</text>
</g>
<g>
<text x="393" y="572">
2
</text>
</g>
<g>
<text x="401" y="556">
.
</text>
</g>
<g>
<text x="409" y="636">
groups
</text>
</g>
<g>
<text x="417" y="652">
3
</text>
</g>
</svg>
