<svg class="bob" font-family="arial" font-size="14" height="80" width="584" xmlns="http://www.w3.org/2000/svg">
<defs>
<marker id="triangle" markerHeight="8" markerWidth="8" orient="auto" refX="4" refY="2" viewBox="0 0 8 4">
<polygon class="fg_fill" points="0,0 0,4 8,2 0,0"/>
</marker>
<marker id="clear_triangle" markerHeight="10" markerWidth="10" orient="auto" refX="1" refY="7" viewBox="0 0 20 14">
<polygon class="bg_fill" points="2,2 2,12 18,7 2,2"/>
</marker>
<marker id="circle" markerHeight="5" markerWidth="5" orient="auto" refX="10" refY="10" viewBox="0 0 20 20">
<circle class="fg_fill" cx="10" cy="10" r="8"/>
</marker>
<marker id="square" markerHeight="5" markerWidth="5" orient="auto" refX="10" refY="10" viewBox="0 0 20 20">
<rect class="fg_fill" height="20" width="20" x="0" y="0"/>
</marker>
<marker id="open_circle" markerHeight="10" markerWidth="10" orient="auto" refX="10" refY="10" viewBox="0 0 20 20">
<circle class="bg_fill" cx="10" cy="10" r="4"/>
</marker>
<marker id="big_open_circle" markerHeight="20" markerWidth="20" orient="auto" refX="20" refY="20" viewBox="0 0 40 40">
<circle class="bg_fill" cx="20" cy="20" r="6"/>
</marker>
</defs>
<style type="text/css">

rect.backdrop {
    fill: white;
}
text{
    fill: black;
}

circle {
    fill: none;
    stroke: black;
    stroke-width: 2;
}

line {
    stroke: black;
    stroke-width: 2;
    stroke-opacity: 1;
    fill-opacity: 1;
    stroke-linecap: round;
    stroke-linejoin: miter;
}

path {
    fill: none;
    stroke: black;
    stroke-width: 2;
    stroke-opacity: 1;
    fill-opacity: 1;
    stroke-linecap: round;
    stroke-linejoin: miter;
}

line.dashed {
    stroke-dasharray: 5;
}

.fg_fill {
    fill: black;
}


.bg_fill {
    fill: white;
    stroke: black;
    stroke-width: 2;
}

tspan.head{
    fill: none;
    stroke: none;
}
    
</style>
<rect class="backdrop" height="80" width="584" x="0" y="0"/>
<g>
<line marker-end="url(#triangle)" x1="8" x2="4" y1="8" y2="8"/>
<line x1="8" x2="20" y1="8" y2="8"/>
<line x1="20" x2="20" y1="8" y2="32"/>
<line x1="20" x2="52" y1="8" y2="8"/>
<line x1="52" x2="52" y1="8" y2="32"/>
<line x1="52" x2="84" y1="8" y2="8"/>
<line x1="84" x2="84" y1="8" y2="32"/>
<line x1="84" x2="116" y1="8" y2="8"/>
<line x1="116" x2="116" y1="8" y2="32"/>
<line x1="116" x2="148" y1="8" y2="8"/>
<line x1="148" x2="148" y1="8" y2="32"/>
<line x1="148" x2="180" y1="8" y2="8"/>
<line x1="180" x2="180" y1="8" y2="32"/>
<line x1="180" x2="212" y1="8" y2="8"/>
<line x1="212" x2="212" y1="8" y2="32"/>
<line x1="212" x2="244" y1="8" y2="8"/>
<line x1="244" x2="244" y1="8" y2="32"/>
<line x1="244" x2="276" y1="8" y2="8"/>
<line x1="276" x2="276" y1="8" y2="32"/>
<line x1="276" x2="308" y1="8" y2="8"/>
<line x1="308" x2="308" y1="8" y2="32"/>
<line x1="308" x2="340" y1="8" y2="8"/>
<line x1="340" x2="340" y1="8" y2="32"/>
<line x1="340" x2="372" y1="8" y2="8"/>
<line x1="372" x2="372" y1="8" y2="32"/>
<line x1="372" x2="404" y1="8" y2="8"/>
<line x1="404" x2="404" y1="8" y2="32"/>
<line x1="404" x2="436" y1="8" y2="8"/>
<line x1="436" x2="436" y1="8" y2="32"/>
<line x1="436" x2="468" y1="8" y2="8"/>
<line x1="468" x2="468" y1="8" y2="32"/>
<line x1="468" x2="500" y1="8" y2="8"/>
<line x1="500" x2="500" y1="8" y2="32"/>
<line x1="500" x2="532" y1="8" y2="8"/>
<line x1="532" x2="532" y1="8" y2="32"/>
<line x1="532" x2="564" y1="8" y2="8"/>
<line x1="564" x2="564" y1="8" y2="32"/>
<line marker-end="url(#triangle)" x1="564" x2="580" y1="8" y2="8"/>
</g>
<g>
<line marker-end="url(#triangle)" x1="472" x2="468" y1="72" y2="72"/>
<line x1="472" x2="568" y1="72" y2="72"/>
</g>
<g>
<text x="9" y="44">
-2
</text>
</g>
<g>
<text x="41" y="44">
-1
</text>
</g>
<g>
<text x="81" y="44">
0
</text>
</g>
<g>
<text x="105" y="44">
+1
</text>
</g>
<g>
<text x="137" y="44">
+2
</text>
</g>
<g>
<text x="169" y="44">
+3
</text>
</g>
<g>
<text x="201" y="44">
+4
</text>
</g>
<g>
<text x="233" y="44">
+5
</text>
</g>
<g>
<text x="265" y="44">
+6
</text>
</g>
<g>
<text x="297" y="44">
+7
</text>
</g>
<g>
<text x="329" y="44">
+8
</text>
</g>
<g>
<text x="361" y="44">
+9
</text>
</g>
<g>
<text x="385" y="44">
+10
</text>
</g>
<g>
<text x="417" y="44">
+11
</text>
</g>
<g>
<text x="449" y="44">
+12
</text>
</g>
<g>
<text x="481" y="44">
+13
</text>
</g>
<g>
<text x="513" y="44">
+14
</text>
</g>
<g>
<text x="545" y="44">
+15
</text>
</g>
</svg>
