<svg class="bob" font-family="arial" font-size="14" height="1488" width="624" xmlns="http://www.w3.org/2000/svg">
<defs>
<marker id="triangle" markerHeight="8" markerWidth="8" orient="auto" refX="4" refY="2" viewBox="0 0 8 4">
<polygon class="fg_fill" points="0,0 0,4 8,2 0,0"/>
</marker>
<marker id="clear_triangle" markerHeight="10" markerWidth="10" orient="auto" refX="1" refY="7" viewBox="0 0 20 14">
<polygon class="bg_fill" points="2,2 2,12 18,7 2,2"/>
</marker>
<marker id="circle" markerHeight="5" markerWidth="5" orient="auto" refX="10" refY="10" viewBox="0 0 20 20">
<circle class="fg_fill" cx="10" cy="10" r="8"/>
</marker>
<marker id="square" markerHeight="5" markerWidth="5" orient="auto" refX="10" refY="10" viewBox="0 0 20 20">
<rect class="fg_fill" height="20" width="20" x="0" y="0"/>
</marker>
<marker id="open_circle" markerHeight="10" markerWidth="10" orient="auto" refX="10" refY="10" viewBox="0 0 20 20">
<circle class="bg_fill" cx="10" cy="10" r="4"/>
</marker>
<marker id="big_open_circle" markerHeight="20" markerWidth="20" orient="auto" refX="20" refY="20" viewBox="0 0 40 40">
<circle class="bg_fill" cx="20" cy="20" r="6"/>
</marker>
</defs>
<style type="text/css">

rect.backdrop {
    fill: white;
}
text{
    fill: black;
}

circle {
    fill: none;
    stroke: black;
    stroke-width: 2;
}

line {
    stroke: black;
    stroke-width: 2;
    stroke-opacity: 1;
    fill-opacity: 1;
    stroke-linecap: round;
    stroke-linejoin: miter;
}

path {
    fill: none;
    stroke: black;
    stroke-width: 2;
    stroke-opacity: 1;
    fill-opacity: 1;
    stroke-linecap: round;
    stroke-linejoin: miter;
}

line.dashed {
    stroke-dasharray: 5;
}

.fg_fill {
    fill: black;
}


.bg_fill {
    fill: white;
    stroke: black;
    stroke-width: 2;
}

tspan.head{
    fill: none;
    stroke: none;
}
    
</style>
<rect class="backdrop" height="1488" width="624" x="0" y="0"/>
<g>
<line marker-end="url(#triangle)" x1="28" x2="28" y1="200" y2="236"/>
<line x1="28" x2="44" y1="200" y2="200"/>
</g>
<g>
<line x1="28" x2="28" y1="256" y2="312"/>
<line x1="28" x2="88" y1="312" y2="312"/>
</g>
<g>
<line marker-end="url(#triangle)" x1="28" x2="28" y1="696" y2="732"/>
<line x1="28" x2="44" y1="696" y2="696"/>
</g>
<g>
<line x1="28" x2="28" y1="752" y2="808"/>
<line x1="28" x2="88" y1="808" y2="808"/>
</g>
<g>
<line x1="44" x2="44" y1="184" y2="216"/>
<line x1="44" x2="68" y1="184" y2="184"/>
<line x1="44" x2="68" y1="216" y2="216"/>
<line x1="68" x2="68" y1="184" y2="216"/>
</g>
<g>
<line x1="44" x2="44" y1="680" y2="712"/>
<line x1="44" x2="68" y1="680" y2="680"/>
<line x1="44" x2="68" y1="712" y2="712"/>
<line x1="68" x2="68" y1="680" y2="712"/>
</g>
<g>
<line marker-end="url(#triangle)" x1="60" x2="60" y1="72" y2="124"/>
<line x1="60" x2="220" y1="72" y2="72"/>
<line x1="220" x2="220" y1="56" y2="72"/>
<line x1="220" x2="284" y1="56" y2="56"/>
<line x1="220" x2="220" y1="72" y2="88"/>
<line x1="220" x2="252" y1="88" y2="88"/>
<line marker-end="url(#triangle)" x1="252" x2="252" y1="88" y2="124"/>
<line x1="252" x2="284" y1="88" y2="88"/>
<line x1="284" x2="284" y1="56" y2="72"/>
<line x1="284" x2="284" y1="72" y2="88"/>
<line x1="284" x2="412" y1="72" y2="72"/>
<line marker-end="url(#triangle)" x1="412" x2="412" y1="72" y2="124"/>
</g>
<g>
<line marker-end="url(#triangle)" x1="60" x2="60" y1="144" y2="172"/>
</g>
<g>
<line marker-end="url(#triangle)" x1="60" x2="60" y1="568" y2="620"/>
<line x1="60" x2="220" y1="568" y2="568"/>
<line x1="220" x2="220" y1="552" y2="568"/>
<line x1="220" x2="284" y1="552" y2="552"/>
<line x1="220" x2="220" y1="568" y2="584"/>
<line x1="220" x2="252" y1="584" y2="584"/>
<line marker-end="url(#triangle)" x1="252" x2="252" y1="584" y2="620"/>
<line x1="252" x2="284" y1="584" y2="584"/>
<line x1="284" x2="284" y1="552" y2="568"/>
<line x1="284" x2="284" y1="568" y2="584"/>
<line x1="284" x2="412" y1="568" y2="568"/>
<line marker-end="url(#triangle)" x1="412" x2="412" y1="568" y2="620"/>
</g>
<g>
<line marker-end="url(#triangle)" x1="60" x2="60" y1="640" y2="668"/>
</g>
<g>
<line x1="68" x2="84" y1="200" y2="200"/>
<line marker-end="url(#triangle)" x1="84" x2="84" y1="200" y2="236"/>
</g>
<g>
<line x1="68" x2="84" y1="696" y2="696"/>
<line marker-end="url(#triangle)" x1="84" x2="84" y1="696" y2="732"/>
</g>
<g>
<line x1="84" x2="84" y1="256" y2="296"/>
<line x1="88" x2="84" y1="304" y2="296"/>
<line x1="88" x2="92" y1="304" y2="304"/>
<line x1="92" x2="92" y1="304" y2="320"/>
<line x1="92" x2="88" y1="320" y2="320"/>
</g>
<g>
<line x1="84" x2="84" y1="328" y2="360"/>
<line x1="84" x2="88" y1="328" y2="320"/>
<line x1="84" x2="252" y1="360" y2="360"/>
<line marker-end="url(#triangle)" x1="252" x2="252" y1="360" y2="396"/>
<line x1="252" x2="276" y1="360" y2="360"/>
<line x1="276" x2="276" y1="328" y2="360"/>
<line x1="276" x2="280" y1="328" y2="320"/>
<line x1="276" x2="444" y1="360" y2="360"/>
<line x1="284" x2="280" y1="320" y2="320"/>
<line x1="444" x2="444" y1="328" y2="360"/>
<line x1="444" x2="448" y1="328" y2="320"/>
<line x1="452" x2="448" y1="320" y2="320"/>
</g>
<g>
<line x1="84" x2="84" y1="752" y2="792"/>
<line x1="88" x2="84" y1="800" y2="792"/>
<line x1="88" x2="92" y1="800" y2="800"/>
<line x1="92" x2="92" y1="800" y2="816"/>
<line x1="92" x2="88" y1="816" y2="816"/>
</g>
<g>
<line x1="84" x2="84" y1="824" y2="856"/>
<line x1="84" x2="88" y1="824" y2="816"/>
<line x1="84" x2="252" y1="856" y2="856"/>
<line marker-end="url(#triangle)" x1="252" x2="252" y1="856" y2="892"/>
<line x1="252" x2="276" y1="856" y2="856"/>
<line x1="276" x2="276" y1="824" y2="856"/>
<line x1="276" x2="280" y1="824" y2="816"/>
<line x1="276" x2="444" y1="856" y2="856"/>
<line x1="284" x2="280" y1="816" y2="816"/>
<line x1="444" x2="444" y1="824" y2="856"/>
<line x1="444" x2="448" y1="824" y2="816"/>
<line x1="452" x2="448" y1="816" y2="816"/>
</g>
<g>
<line x1="96" x2="280" y1="312" y2="312"/>
</g>
<g>
<line x1="96" x2="280" y1="808" y2="808"/>
</g>
<g>
<line marker-end="url(#triangle)" x1="220" x2="220" y1="200" y2="236"/>
<line x1="220" x2="236" y1="200" y2="200"/>
</g>
<g>
<line x1="220" x2="220" y1="256" y2="296"/>
<line x1="220" x2="280" y1="296" y2="296"/>
</g>
<g>
<line marker-end="url(#triangle)" x1="220" x2="220" y1="696" y2="732"/>
<line x1="220" x2="236" y1="696" y2="696"/>
</g>
<g>
<line x1="220" x2="220" y1="752" y2="792"/>
<line x1="220" x2="280" y1="792" y2="792"/>
</g>
<g>
<line x1="220" x2="220" y1="1032" y2="1064"/>
<line x1="220" x2="284" y1="1032" y2="1032"/>
<line x1="220" x2="252" y1="1064" y2="1064"/>
<line marker-end="url(#triangle)" x1="252" x2="252" y1="1064" y2="1100"/>
<line x1="252" x2="284" y1="1064" y2="1064"/>
<line x1="284" x2="284" y1="1032" y2="1048"/>
<line x1="284" x2="284" y1="1048" y2="1064"/>
<line x1="284" x2="412" y1="1048" y2="1048"/>
<line marker-end="url(#triangle)" x1="412" x2="412" y1="1048" y2="1100"/>
</g>
<g>
<line marker-end="url(#triangle)" x1="220" x2="220" y1="1176" y2="1212"/>
<line x1="220" x2="236" y1="1176" y2="1176"/>
</g>
<g>
<line x1="220" x2="220" y1="1232" y2="1272"/>
<line x1="220" x2="272" y1="1272" y2="1272"/>
</g>
<g>
<line x1="236" x2="236" y1="184" y2="216"/>
<line x1="236" x2="260" y1="184" y2="184"/>
<line x1="236" x2="260" y1="216" y2="216"/>
<line x1="260" x2="260" y1="184" y2="216"/>
</g>
<g>
<line x1="236" x2="236" y1="408" y2="440"/>
<line x1="236" x2="268" y1="408" y2="408"/>
<line x1="236" x2="252" y1="440" y2="440"/>
<line marker-end="url(#triangle)" x1="252" x2="252" y1="440" y2="476"/>
<line x1="252" x2="268" y1="440" y2="440"/>
<line x1="268" x2="268" y1="408" y2="440"/>
</g>
<g>
<line x1="236" x2="236" y1="680" y2="712"/>
<line x1="236" x2="260" y1="680" y2="680"/>
<line x1="236" x2="260" y1="712" y2="712"/>
<line x1="260" x2="260" y1="680" y2="712"/>
</g>
<g>
<line x1="236" x2="236" y1="904" y2="936"/>
<line x1="236" x2="268" y1="904" y2="904"/>
<line x1="236" x2="252" y1="936" y2="936"/>
<line marker-end="url(#triangle)" x1="252" x2="252" y1="936" y2="972"/>
<line x1="252" x2="268" y1="936" y2="936"/>
<line x1="268" x2="268" y1="904" y2="936"/>
</g>
<g>
<line x1="236" x2="236" y1="1160" y2="1192"/>
<line x1="236" x2="260" y1="1160" y2="1160"/>
<line x1="236" x2="260" y1="1192" y2="1192"/>
<line x1="260" x2="260" y1="1160" y2="1192"/>
</g>
<g>
<line marker-end="url(#triangle)" x1="252" x2="252" y1="16" y2="44"/>
</g>
<g>
<line marker-end="url(#triangle)" x1="252" x2="252" y1="144" y2="172"/>
</g>
<g>
<line marker-end="url(#triangle)" x1="252" x2="252" y1="496" y2="540"/>
</g>
<g>
<line marker-end="url(#triangle)" x1="252" x2="252" y1="640" y2="668"/>
</g>
<g>
<line marker-end="url(#triangle)" x1="252" x2="252" y1="992" y2="1020"/>
</g>
<g>
<line marker-end="url(#triangle)" x1="252" x2="252" y1="1120" y2="1148"/>
</g>
<g>
<line x1="252" x2="252" y1="1384" y2="1416"/>
<line x1="252" x2="284" y1="1384" y2="1384"/>
<line x1="252" x2="268" y1="1416" y2="1416"/>
<line marker-end="url(#triangle)" x1="268" x2="268" y1="1416" y2="1452"/>
<line x1="268" x2="284" y1="1416" y2="1416"/>
<line x1="284" x2="284" y1="1384" y2="1416"/>
</g>
<g>
<line x1="260" x2="276" y1="200" y2="200"/>
<line marker-end="url(#triangle)" x1="276" x2="276" y1="200" y2="236"/>
</g>
<g>
<line x1="260" x2="276" y1="696" y2="696"/>
<line marker-end="url(#triangle)" x1="276" x2="276" y1="696" y2="732"/>
</g>
<g>
<line x1="260" x2="276" y1="1176" y2="1176"/>
<line marker-end="url(#triangle)" x1="276" x2="276" y1="1176" y2="1212"/>
</g>
<g>
<line x1="268" x2="268" y1="1232" y2="1256"/>
<line x1="272" x2="268" y1="1264" y2="1256"/>
<line x1="272" x2="276" y1="1264" y2="1264"/>
<line x1="276" x2="276" y1="1264" y2="1280"/>
<line x1="276" x2="272" y1="1280" y2="1280"/>
</g>
<g>
<line x1="268" x2="268" y1="1288" y2="1336"/>
<line x1="268" x2="272" y1="1288" y2="1280"/>
<line marker-end="url(#triangle)" x1="268" x2="268" y1="1336" y2="1372"/>
<line x1="268" x2="436" y1="1336" y2="1336"/>
<line x1="436" x2="436" y1="1288" y2="1336"/>
<line x1="436" x2="440" y1="1288" y2="1280"/>
<line x1="444" x2="440" y1="1280" y2="1280"/>
</g>
<g>
<line x1="276" x2="276" y1="256" y2="280"/>
<line x1="280" x2="276" y1="288" y2="280"/>
<line x1="280" x2="284" y1="288" y2="288"/>
<line x1="284" x2="284" y1="288" y2="320"/>
</g>
<g>
<line x1="276" x2="276" y1="752" y2="776"/>
<line x1="280" x2="276" y1="784" y2="776"/>
<line x1="280" x2="284" y1="784" y2="784"/>
<line x1="284" x2="284" y1="784" y2="816"/>
</g>
<g>
<line x1="280" x2="440" y1="1272" y2="1272"/>
</g>
<g>
<line x1="284" x2="284" y1="304" y2="304"/>
</g>
<g>
<line x1="284" x2="284" y1="800" y2="800"/>
</g>
<g>
<line x1="288" x2="448" y1="296" y2="296"/>
</g>
<g>
<line x1="288" x2="448" y1="312" y2="312"/>
</g>
<g>
<line x1="288" x2="448" y1="792" y2="792"/>
</g>
<g>
<line x1="288" x2="448" y1="808" y2="808"/>
</g>
<g>
<line marker-end="url(#triangle)" x1="380" x2="380" y1="200" y2="236"/>
<line x1="380" x2="396" y1="200" y2="200"/>
</g>
<g>
<line marker-end="url(#triangle)" x1="380" x2="380" y1="696" y2="732"/>
<line x1="380" x2="396" y1="696" y2="696"/>
</g>
<g>
<line x1="380" x2="380" y1="752" y2="776"/>
<line x1="380" x2="448" y1="776" y2="776"/>
</g>
<g>
<line marker-end="url(#triangle)" x1="380" x2="380" y1="1176" y2="1212"/>
<line x1="380" x2="396" y1="1176" y2="1176"/>
</g>
<g>
<line x1="380" x2="380" y1="1232" y2="1256"/>
<line x1="380" x2="440" y1="1256" y2="1256"/>
</g>
<g>
<line x1="388" x2="388" y1="256" y2="280"/>
<line x1="388" x2="448" y1="280" y2="280"/>
</g>
<g>
<line x1="396" x2="396" y1="184" y2="216"/>
<line x1="396" x2="420" y1="184" y2="184"/>
<line x1="396" x2="420" y1="216" y2="216"/>
<line x1="420" x2="420" y1="184" y2="216"/>
</g>
<g>
<line x1="396" x2="396" y1="680" y2="712"/>
<line x1="396" x2="420" y1="680" y2="680"/>
<line x1="396" x2="420" y1="712" y2="712"/>
<line x1="420" x2="420" y1="680" y2="712"/>
</g>
<g>
<line x1="396" x2="396" y1="1160" y2="1192"/>
<line x1="396" x2="420" y1="1160" y2="1160"/>
<line x1="396" x2="420" y1="1192" y2="1192"/>
<line x1="420" x2="420" y1="1160" y2="1192"/>
</g>
<g>
<line marker-end="url(#triangle)" x1="412" x2="412" y1="144" y2="172"/>
</g>
<g>
<line marker-end="url(#triangle)" x1="412" x2="412" y1="640" y2="668"/>
</g>
<g>
<line marker-end="url(#triangle)" x1="412" x2="412" y1="1120" y2="1148"/>
</g>
<g>
<line x1="420" x2="436" y1="200" y2="200"/>
<line marker-end="url(#triangle)" x1="436" x2="436" y1="200" y2="236"/>
</g>
<g>
<line x1="420" x2="436" y1="696" y2="696"/>
<line marker-end="url(#triangle)" x1="436" x2="436" y1="696" y2="732"/>
</g>
<g>
<line x1="420" x2="436" y1="1176" y2="1176"/>
<line marker-end="url(#triangle)" x1="436" x2="436" y1="1176" y2="1212"/>
</g>
<g>
<line x1="432" x2="440" y1="1232" y2="1248"/>
<line x1="440" x2="444" y1="1248" y2="1248"/>
<line x1="444" x2="444" y1="1248" y2="1280"/>
</g>
<g>
<line x1="440" x2="448" y1="256" y2="272"/>
<line x1="448" x2="452" y1="272" y2="272"/>
<line x1="452" x2="452" y1="272" y2="320"/>
</g>
<g>
<line x1="440" x2="448" y1="752" y2="768"/>
<line x1="448" x2="452" y1="768" y2="768"/>
<line x1="452" x2="452" y1="768" y2="816"/>
</g>
<g>
<line x1="444" x2="444" y1="1264" y2="1264"/>
</g>
<g>
<line marker-end="url(#triangle)" x1="448" x2="540" y1="1256" y2="1256"/>
</g>
<g>
<line marker-end="url(#triangle)" x1="448" x2="540" y1="1272" y2="1272"/>
</g>
<g>
<line x1="452" x2="452" y1="288" y2="288"/>
</g>
<g>
<line x1="452" x2="452" y1="304" y2="304"/>
</g>
<g>
<line x1="452" x2="452" y1="784" y2="784"/>
</g>
<g>
<line x1="452" x2="452" y1="800" y2="800"/>
</g>
<g>
<line marker-end="url(#triangle)" x1="456" x2="540" y1="280" y2="280"/>
</g>
<g>
<line marker-end="url(#triangle)" x1="456" x2="540" y1="296" y2="296"/>
</g>
<g>
<line marker-end="url(#triangle)" x1="456" x2="540" y1="312" y2="312"/>
</g>
<g>
<line marker-end="url(#triangle)" x1="456" x2="540" y1="776" y2="776"/>
</g>
<g>
<line marker-end="url(#triangle)" x1="456" x2="540" y1="792" y2="792"/>
</g>
<g>
<line marker-end="url(#triangle)" x1="456" x2="540" y1="808" y2="808"/>
</g>
<g>
<line x1="548" x2="548" y1="264" y2="328"/>
<line x1="548" x2="564" y1="264" y2="264"/>
<line x1="548" x2="556" y1="328" y2="328"/>
<line marker-end="url(#triangle)" x1="556" x2="556" y1="328" y2="364"/>
<line x1="556" x2="564" y1="328" y2="328"/>
<line x1="564" x2="564" y1="264" y2="328"/>
</g>
<g>
<line x1="548" x2="548" y1="760" y2="824"/>
<line x1="548" x2="564" y1="760" y2="760"/>
<line x1="548" x2="556" y1="824" y2="824"/>
<line marker-end="url(#triangle)" x1="556" x2="556" y1="824" y2="860"/>
<line x1="556" x2="564" y1="824" y2="824"/>
<line x1="564" x2="564" y1="760" y2="824"/>
</g>
<g>
<line x1="548" x2="548" y1="1240" y2="1304"/>
<line x1="548" x2="564" y1="1240" y2="1240"/>
<line x1="548" x2="556" y1="1304" y2="1304"/>
<line marker-end="url(#triangle)" x1="556" x2="556" y1="1304" y2="1452"/>
<line x1="556" x2="564" y1="1304" y2="1304"/>
<line x1="564" x2="564" y1="1240" y2="1304"/>
</g>
<g>
<line marker-end="url(#triangle)" x1="556" x2="556" y1="384" y2="748"/>
</g>
<g>
<line marker-end="url(#triangle)" x1="556" x2="556" y1="880" y2="1228"/>
</g>
<g>
<text x="17" y="252">
200
</text>
</g>
<g>
<text x="17" y="748">
30
</text>
</g>
<g>
<text x="49" y="140">
700
</text>
</g>
<g>
<text x="49" y="204">
TE
</text>
</g>
<g>
<text x="49" y="636">
100
</text>
</g>
<g>
<text x="49" y="700">
TE
</text>
</g>
<g>
<text x="73" y="252">
R100
</text>
</g>
<g>
<text x="73" y="748">
R10
</text>
</g>
<g>
<text x="209" y="252">
10
</text>
</g>
<g>
<text x="209" y="1484">
(final
</text>
</g>
<g>
<text x="217" y="748">
6
</text>
</g>
<g>
<text x="217" y="1228">
3
</text>
</g>
<g>
<text x="233" y="76">
BREAK
</text>
</g>
<g>
<text x="233" y="572">
BREAK
</text>
</g>
<g>
<text x="233" y="1052">
BREAK
</text>
</g>
<g>
<text x="241" y="12">
753
</text>
</g>
<g>
<text x="241" y="140">
50
</text>
</g>
<g>
<text x="241" y="204">
TE
</text>
</g>
<g>
<text x="241" y="428">
ADD
</text>
</g>
<g>
<text x="241" y="492">
122
</text>
</g>
<g>
<text x="241" y="636">
20
</text>
</g>
<g>
<text x="241" y="700">
TE
</text>
</g>
<g>
<text x="241" y="924">
ADD
</text>
</g>
<g>
<text x="241" y="1116">
10
</text>
</g>
<g>
<text x="241" y="1180">
TE
</text>
</g>
<g>
<text x="249" y="988">
14
</text>
</g>
<g>
<text x="257" y="1404">
ADD
</text>
</g>
<g>
<text x="265" y="252">
R20
</text>
</g>
<g>
<text x="265" y="1228">
R1
</text>
</g>
<g>
<text x="265" y="1468">
2
</text>
</g>
<g>
<text x="265" y="1484">
remainder)
</text>
</g>
<g>
<text x="273" y="12">
(ITERATION
</text>
</g>
<g>
<text x="273" y="492">
(ITERATION
</text>
</g>
<g>
<text x="273" y="748">
R2
</text>
</g>
<g>
<text x="273" y="988">
(ITERATION
</text>
</g>
<g>
<text x="361" y="12">
1)
</text>
</g>
<g>
<text x="361" y="492">
2)
</text>
</g>
<g>
<text x="361" y="988">
3)
</text>
</g>
<g>
<text x="377" y="252">
0
</text>
</g>
<g>
<text x="377" y="748">
0
</text>
</g>
<g>
<text x="377" y="1228">
1
</text>
</g>
<g>
<text x="401" y="204">
TE
</text>
</g>
<g>
<text x="401" y="700">
TE
</text>
</g>
<g>
<text x="401" y="1180">
TE
</text>
</g>
<g>
<text x="409" y="140">
2
</text>
</g>
<g>
<text x="409" y="636">
2
</text>
</g>
<g>
<text x="409" y="1116">
4
</text>
</g>
<g>
<text x="433" y="252">
R2
</text>
</g>
<g>
<text x="433" y="748">
R2
</text>
</g>
<g>
<text x="433" y="1228">
R1
</text>
</g>
<g>
<text x="497" y="1484">
(final
</text>
</g>
<g>
<text x="545" y="380">
210
</text>
</g>
<g>
<text x="545" y="876">
246
</text>
</g>
<g>
<text x="545" y="1468">
250
</text>
</g>
<g>
<text x="553" y="284">
A
</text>
</g>
<g>
<text x="553" y="300">
D
</text>
</g>
<g>
<text x="553" y="316">
D
</text>
</g>
<g>
<text x="553" y="780">
A
</text>
</g>
<g>
<text x="553" y="796">
D
</text>
</g>
<g>
<text x="553" y="812">
D
</text>
</g>
<g>
<text x="553" y="1260">
A
</text>
</g>
<g>
<text x="553" y="1276">
D
</text>
</g>
<g>
<text x="553" y="1292">
D
</text>
</g>
<g>
<text x="553" y="1484">
quotient)
</text>
</g>
</svg>
