<svg class="bob" font-family="arial" font-size="14" height="288" width="896" xmlns="http://www.w3.org/2000/svg">
<defs>
<marker id="triangle" markerHeight="8" markerWidth="8" orient="auto" refX="4" refY="2" viewBox="0 0 8 4">
<polygon class="fg_fill" points="0,0 0,4 8,2 0,0"/>
</marker>
<marker id="clear_triangle" markerHeight="10" markerWidth="10" orient="auto" refX="1" refY="7" viewBox="0 0 20 14">
<polygon class="bg_fill" points="2,2 2,12 18,7 2,2"/>
</marker>
<marker id="circle" markerHeight="5" markerWidth="5" orient="auto" refX="10" refY="10" viewBox="0 0 20 20">
<circle class="fg_fill" cx="10" cy="10" r="8"/>
</marker>
<marker id="square" markerHeight="5" markerWidth="5" orient="auto" refX="10" refY="10" viewBox="0 0 20 20">
<rect class="fg_fill" height="20" width="20" x="0" y="0"/>
</marker>
<marker id="open_circle" markerHeight="10" markerWidth="10" orient="auto" refX="10" refY="10" viewBox="0 0 20 20">
<circle class="bg_fill" cx="10" cy="10" r="4"/>
</marker>
<marker id="big_open_circle" markerHeight="20" markerWidth="20" orient="auto" refX="20" refY="20" viewBox="0 0 40 40">
<circle class="bg_fill" cx="20" cy="20" r="6"/>
</marker>
</defs>
<style type="text/css">

rect.backdrop {
    fill: white;
}
text{
    fill: black;
}

circle {
    fill: none;
    stroke: black;
    stroke-width: 2;
}

line {
    stroke: black;
    stroke-width: 2;
    stroke-opacity: 1;
    fill-opacity: 1;
    stroke-linecap: round;
    stroke-linejoin: miter;
}

path {
    fill: none;
    stroke: black;
    stroke-width: 2;
    stroke-opacity: 1;
    fill-opacity: 1;
    stroke-linecap: round;
    stroke-linejoin: miter;
}

line.dashed {
    stroke-dasharray: 5;
}

.fg_fill {
    fill: black;
}


.bg_fill {
    fill: white;
    stroke: black;
    stroke-width: 2;
}

tspan.head{
    fill: none;
    stroke: none;
}
    
</style>
<rect class="backdrop" height="288" width="896" x="0" y="0"/>
<g>
<line x1="4" x2="4" y1="32" y2="56"/>
<line x1="4" x2="20" y1="56" y2="56"/>
<line marker-end="url(#triangle)" x1="20" x2="20" y1="56" y2="76"/>
<line x1="20" x2="36" y1="56" y2="56"/>
<line x1="36" x2="36" y1="32" y2="56"/>
</g>
<g>
<line x1="20" x2="20" y1="96" y2="120"/>
<line x1="20" x2="44" y1="120" y2="120"/>
<line marker-end="url(#triangle)" x1="44" x2="44" y1="120" y2="140"/>
<line x1="44" x2="68" y1="120" y2="120"/>
<line x1="68" x2="68" y1="32" y2="120"/>
</g>
<g>
<line x1="44" x2="44" y1="160" y2="184"/>
<line x1="44" x2="68" y1="184" y2="184"/>
<line marker-end="url(#triangle)" x1="68" x2="68" y1="184" y2="204"/>
<line x1="68" x2="100" y1="184" y2="184"/>
<line x1="100" x2="100" y1="32" y2="184"/>
</g>
<g>
<line x1="68" x2="68" y1="224" y2="248"/>
<line x1="68" x2="100" y1="248" y2="248"/>
<line marker-end="url(#triangle)" x1="100" x2="100" y1="248" y2="268"/>
<line x1="100" x2="132" y1="248" y2="248"/>
<line x1="132" x2="132" y1="32" y2="248"/>
</g>
<g>
<line x1="196" x2="196" y1="32" y2="248"/>
<line x1="196" x2="244" y1="248" y2="248"/>
<line marker-end="url(#triangle)" x1="244" x2="244" y1="248" y2="268"/>
<line x1="244" x2="292" y1="248" y2="248"/>
<line x1="292" x2="292" y1="224" y2="248"/>
</g>
<g>
<line x1="228" x2="228" y1="32" y2="120"/>
<line x1="228" x2="252" y1="120" y2="120"/>
<line marker-end="url(#triangle)" x1="252" x2="252" y1="120" y2="140"/>
<line x1="252" x2="276" y1="120" y2="120"/>
<line x1="276" x2="276" y1="96" y2="120"/>
</g>
<g>
<line x1="252" x2="252" y1="160" y2="184"/>
<line x1="252" x2="292" y1="184" y2="184"/>
<line marker-end="url(#triangle)" x1="292" x2="292" y1="184" y2="204"/>
<line x1="292" x2="324" y1="184" y2="184"/>
<line x1="324" x2="324" y1="32" y2="184"/>
</g>
<g>
<line x1="260" x2="260" y1="32" y2="56"/>
<line x1="260" x2="276" y1="56" y2="56"/>
<line marker-end="url(#triangle)" x1="276" x2="276" y1="56" y2="76"/>
<line x1="276" x2="292" y1="56" y2="56"/>
<line x1="292" x2="292" y1="32" y2="56"/>
</g>
<g>
<line x1="380" x2="380" y1="32" y2="56"/>
<line x1="380" x2="396" y1="56" y2="56"/>
<line marker-end="url(#triangle)" x1="396" x2="396" y1="56" y2="76"/>
<line x1="396" x2="412" y1="56" y2="56"/>
<line x1="412" x2="412" y1="32" y2="56"/>
</g>
<g>
<line x1="396" x2="396" y1="96" y2="120"/>
<line x1="396" x2="428" y1="120" y2="120"/>
<line marker-end="url(#triangle)" x1="428" x2="428" y1="120" y2="140"/>
<line x1="428" x2="460" y1="120" y2="120"/>
<line x1="460" x2="460" y1="96" y2="120"/>
</g>
<g>
<line x1="428" x2="428" y1="160" y2="184"/>
<line x1="428" x2="468" y1="184" y2="184"/>
<line marker-end="url(#triangle)" x1="468" x2="468" y1="184" y2="204"/>
<line x1="468" x2="508" y1="184" y2="184"/>
<line x1="508" x2="508" y1="32" y2="184"/>
</g>
<g>
<line x1="444" x2="444" y1="32" y2="56"/>
<line x1="444" x2="460" y1="56" y2="56"/>
<line marker-end="url(#triangle)" x1="460" x2="460" y1="56" y2="76"/>
<line x1="460" x2="476" y1="56" y2="56"/>
<line x1="476" x2="476" y1="32" y2="56"/>
</g>
<g>
<line x1="572" x2="572" y1="32" y2="184"/>
<line x1="572" x2="612" y1="184" y2="184"/>
<line marker-end="url(#triangle)" x1="612" x2="612" y1="184" y2="204"/>
<line x1="612" x2="652" y1="184" y2="184"/>
<line x1="652" x2="652" y1="160" y2="184"/>
</g>
<g>
<line x1="604" x2="604" y1="32" y2="56"/>
<line x1="604" x2="620" y1="56" y2="56"/>
<line marker-end="url(#triangle)" x1="620" x2="620" y1="56" y2="76"/>
<line x1="620" x2="636" y1="56" y2="56"/>
<line x1="636" x2="636" y1="32" y2="56"/>
</g>
<g>
<line x1="620" x2="620" y1="96" y2="120"/>
<line x1="620" x2="652" y1="120" y2="120"/>
<line marker-end="url(#triangle)" x1="652" x2="652" y1="120" y2="140"/>
<line x1="652" x2="684" y1="120" y2="120"/>
<line x1="684" x2="684" y1="96" y2="120"/>
</g>
<g>
<line x1="668" x2="668" y1="32" y2="56"/>
<line x1="668" x2="684" y1="56" y2="56"/>
<line marker-end="url(#triangle)" x1="684" x2="684" y1="56" y2="76"/>
<line x1="684" x2="700" y1="56" y2="56"/>
<line x1="700" x2="700" y1="32" y2="56"/>
</g>
<g>
<line x1="764" x2="764" y1="32" y2="56"/>
<line x1="764" x2="780" y1="56" y2="56"/>
<line marker-end="url(#triangle)" x1="780" x2="780" y1="56" y2="76"/>
<line x1="780" x2="796" y1="56" y2="56"/>
<line x1="796" x2="796" y1="32" y2="56"/>
</g>
<g>
<line x1="780" x2="780" y1="96" y2="120"/>
<line x1="780" x2="804" y1="120" y2="120"/>
<line marker-end="url(#triangle)" x1="804" x2="804" y1="120" y2="140"/>
<line x1="804" x2="828" y1="120" y2="120"/>
<line x1="828" x2="828" y1="32" y2="120"/>
</g>
<g>
<line x1="804" x2="804" y1="160" y2="184"/>
<line x1="804" x2="844" y1="184" y2="184"/>
<line marker-end="url(#triangle)" x1="844" x2="844" y1="184" y2="204"/>
<line x1="844" x2="876" y1="184" y2="184"/>
<line x1="876" x2="876" y1="96" y2="184"/>
</g>
<g>
<line x1="860" x2="860" y1="32" y2="56"/>
<line x1="860" x2="876" y1="56" y2="56"/>
<line marker-end="url(#triangle)" x1="876" x2="876" y1="56" y2="76"/>
<line x1="876" x2="892" y1="56" y2="56"/>
<line x1="892" x2="892" y1="32" y2="56"/>
</g>
<g>
<text x="1" y="12">
chain
</text>
</g>
<g>
<text x="1" y="28">
2
</text>
</g>
<g>
<text x="17" y="28">
*
</text>
</g>
<g>
<text x="17" y="92">
4
</text>
</g>
<g>
<text x="33" y="28">
2
</text>
</g>
<g>
<text x="41" y="156">
8
</text>
</g>
<g>
<text x="49" y="12">
forward
</text>
</g>
<g>
<text x="49" y="28">
*
</text>
</g>
<g>
<text x="57" y="220">
16
</text>
</g>
<g>
<text x="65" y="28">
2
</text>
</g>
<g>
<text x="81" y="28">
*
</text>
</g>
<g>
<text x="89" y="284">
32
</text>
</g>
<g>
<text x="97" y="28">
2
</text>
</g>
<g>
<text x="113" y="28">
*
</text>
</g>
<g>
<text x="129" y="28">
2
</text>
</g>
<g>
<text x="193" y="12">
chain
</text>
</g>
<g>
<text x="193" y="28">
2
</text>
</g>
<g>
<text x="209" y="28">
*
</text>
</g>
<g>
<text x="225" y="28">
2
</text>
</g>
<g>
<text x="233" y="284">
32
</text>
</g>
<g>
<text x="241" y="12">
random
</text>
</g>
<g>
<text x="241" y="28">
*
</text>
</g>
<g>
<text x="249" y="156">
8
</text>
</g>
<g>
<text x="257" y="28">
2
</text>
</g>
<g>
<text x="273" y="28">
*
</text>
</g>
<g>
<text x="273" y="92">
4
</text>
</g>
<g>
<text x="281" y="220">
16
</text>
</g>
<g>
<text x="289" y="28">
2
</text>
</g>
<g>
<text x="305" y="28">
*
</text>
</g>
<g>
<text x="321" y="28">
2
</text>
</g>
<g>
<text x="377" y="12">
subgroup
</text>
</g>
<g>
<text x="377" y="28">
2
</text>
</g>
<g>
<text x="393" y="28">
*
</text>
</g>
<g>
<text x="393" y="92">
4
</text>
</g>
<g>
<text x="409" y="28">
2
</text>
</g>
<g>
<text x="417" y="156">
16
</text>
</g>
<g>
<text x="425" y="28">
*
</text>
</g>
<g>
<text x="441" y="28">
2
</text>
</g>
<g>
<text x="449" y="12">
forward
</text>
</g>
<g>
<text x="457" y="28">
*
</text>
</g>
<g>
<text x="457" y="92">
4
</text>
</g>
<g>
<text x="457" y="220">
32
</text>
</g>
<g>
<text x="473" y="28">
2
</text>
</g>
<g>
<text x="489" y="28">
*
</text>
</g>
<g>
<text x="505" y="28">
2
</text>
</g>
<g>
<text x="569" y="12">
subgroup
</text>
</g>
<g>
<text x="569" y="28">
2
</text>
</g>
<g>
<text x="585" y="28">
*
</text>
</g>
<g>
<text x="601" y="28">
2
</text>
</g>
<g>
<text x="601" y="220">
32
</text>
</g>
<g>
<text x="617" y="28">
*
</text>
</g>
<g>
<text x="617" y="92">
4
</text>
</g>
<g>
<text x="633" y="28">
2
</text>
</g>
<g>
<text x="641" y="12">
backward
</text>
</g>
<g>
<text x="641" y="156">
16
</text>
</g>
<g>
<text x="649" y="28">
*
</text>
</g>
<g>
<text x="665" y="28">
2
</text>
</g>
<g>
<text x="681" y="28">
*
</text>
</g>
<g>
<text x="681" y="92">
4
</text>
</g>
<g>
<text x="697" y="28">
2
</text>
</g>
<g>
<text x="761" y="12">
subgroup
</text>
</g>
<g>
<text x="761" y="28">
2
</text>
</g>
<g>
<text x="777" y="28">
*
</text>
</g>
<g>
<text x="777" y="92">
4
</text>
</g>
<g>
<text x="793" y="28">
2
</text>
</g>
<g>
<text x="801" y="156">
8
</text>
</g>
<g>
<text x="809" y="28">
*
</text>
</g>
<g>
<text x="825" y="28">
2
</text>
</g>
<g>
<text x="833" y="12">
random
</text>
</g>
<g>
<text x="833" y="220">
32
</text>
</g>
<g>
<text x="841" y="28">
*
</text>
</g>
<g>
<text x="857" y="28">
2
</text>
</g>
<g>
<text x="873" y="28">
*
</text>
</g>
<g>
<text x="873" y="92">
4
</text>
</g>
<g>
<text x="889" y="28">
2
</text>
</g>
</svg>
