<svg class="bob" font-family="arial" font-size="14" height="352" width="672" xmlns="http://www.w3.org/2000/svg">
<defs>
<marker id="triangle" markerHeight="8" markerWidth="8" orient="auto" refX="4" refY="2" viewBox="0 0 8 4">
<polygon class="fg_fill" points="0,0 0,4 8,2 0,0"/>
</marker>
<marker id="clear_triangle" markerHeight="10" markerWidth="10" orient="auto" refX="1" refY="7" viewBox="0 0 20 14">
<polygon class="bg_fill" points="2,2 2,12 18,7 2,2"/>
</marker>
<marker id="circle" markerHeight="5" markerWidth="5" orient="auto" refX="10" refY="10" viewBox="0 0 20 20">
<circle class="fg_fill" cx="10" cy="10" r="8"/>
</marker>
<marker id="square" markerHeight="5" markerWidth="5" orient="auto" refX="10" refY="10" viewBox="0 0 20 20">
<rect class="fg_fill" height="20" width="20" x="0" y="0"/>
</marker>
<marker id="open_circle" markerHeight="10" markerWidth="10" orient="auto" refX="10" refY="10" viewBox="0 0 20 20">
<circle class="bg_fill" cx="10" cy="10" r="4"/>
</marker>
<marker id="big_open_circle" markerHeight="20" markerWidth="20" orient="auto" refX="20" refY="20" viewBox="0 0 40 40">
<circle class="bg_fill" cx="20" cy="20" r="6"/>
</marker>
</defs>
<style type="text/css">

rect.backdrop {
    fill: white;
}
text{
    fill: black;
}

circle {
    fill: none;
    stroke: black;
    stroke-width: 2;
}

line {
    stroke: black;
    stroke-width: 2;
    stroke-opacity: 1;
    fill-opacity: 1;
    stroke-linecap: round;
    stroke-linejoin: miter;
}

path {
    fill: none;
    stroke: black;
    stroke-width: 2;
    stroke-opacity: 1;
    fill-opacity: 1;
    stroke-linecap: round;
    stroke-linejoin: miter;
}

line.dashed {
    stroke-dasharray: 5;
}

.fg_fill {
    fill: black;
}


.bg_fill {
    fill: white;
    stroke: black;
    stroke-width: 2;
}

tspan.head{
    fill: none;
    stroke: none;
}
    
</style>
<rect class="backdrop" height="352" width="672" x="0" y="0"/>
<g>
<line x1="4" x2="4" y1="8" y2="344"/>
<line x1="4" x2="668" y1="8" y2="8"/>
<line x1="4" x2="668" y1="344" y2="344"/>
<line x1="668" x2="668" y1="8" y2="344"/>
</g>
<g>
<line x1="36" x2="36" y1="72" y2="328"/>
<line x1="36" x2="52" y1="72" y2="72"/>
<line x1="36" x2="332" y1="328" y2="328"/>
<line x1="52" x2="52" y1="72" y2="264"/>
<line x1="52" x2="68" y1="72" y2="72"/>
<line x1="52" x2="332" y1="264" y2="264"/>
<line x1="68" x2="68" y1="72" y2="200"/>
<line x1="68" x2="84" y1="72" y2="72"/>
<line x1="68" x2="332" y1="200" y2="200"/>
<line x1="84" x2="84" y1="72" y2="136"/>
<line x1="84" x2="332" y1="72" y2="72"/>
<line x1="84" x2="332" y1="136" y2="136"/>
<line x1="332" x2="332" y1="72" y2="136"/>
<line x1="332" x2="332" y1="136" y2="200"/>
<line x1="332" x2="332" y1="200" y2="264"/>
<line x1="332" x2="332" y1="264" y2="328"/>
</g>
<g>
<line x1="364" x2="364" y1="72" y2="328"/>
<line x1="364" x2="636" y1="72" y2="72"/>
<line x1="364" x2="636" y1="328" y2="328"/>
<line x1="636" x2="636" y1="72" y2="328"/>
</g>
<g>
<text x="65" y="300">
Rational (e.g. -0.5, 1/3, 1.2)
</text>
</g>
<g>
<text x="81" y="236">
Integer (e.g. -7, -19, -471)
</text>
</g>
<g>
<text x="97" y="172">
Whole (0)
</text>
</g>
<g>
<text x="113" y="108">
Natural (e.g. 1, 7, 291)
</text>
</g>
<g>
<text x="313" y="44">
Real
</text>
</g>
<g>
<text x="377" y="204">
Irrational (e.g. pi, sqrt(2))
</text>
</g>
</svg>
