<svg class="bob" font-family="arial" font-size="14" height="1904" width="608" xmlns="http://www.w3.org/2000/svg">
<defs>
<marker id="triangle" markerHeight="8" markerWidth="8" orient="auto" refX="4" refY="2" viewBox="0 0 8 4">
<polygon class="fg_fill" points="0,0 0,4 8,2 0,0"/>
</marker>
<marker id="clear_triangle" markerHeight="10" markerWidth="10" orient="auto" refX="1" refY="7" viewBox="0 0 20 14">
<polygon class="bg_fill" points="2,2 2,12 18,7 2,2"/>
</marker>
<marker id="circle" markerHeight="5" markerWidth="5" orient="auto" refX="10" refY="10" viewBox="0 0 20 20">
<circle class="fg_fill" cx="10" cy="10" r="8"/>
</marker>
<marker id="square" markerHeight="5" markerWidth="5" orient="auto" refX="10" refY="10" viewBox="0 0 20 20">
<rect class="fg_fill" height="20" width="20" x="0" y="0"/>
</marker>
<marker id="open_circle" markerHeight="10" markerWidth="10" orient="auto" refX="10" refY="10" viewBox="0 0 20 20">
<circle class="bg_fill" cx="10" cy="10" r="4"/>
</marker>
<marker id="big_open_circle" markerHeight="20" markerWidth="20" orient="auto" refX="20" refY="20" viewBox="0 0 40 40">
<circle class="bg_fill" cx="20" cy="20" r="6"/>
</marker>
</defs>
<style type="text/css">

rect.backdrop {
    fill: white;
}
text{
    fill: black;
}

circle {
    fill: none;
    stroke: black;
    stroke-width: 2;
}

line {
    stroke: black;
    stroke-width: 2;
    stroke-opacity: 1;
    fill-opacity: 1;
    stroke-linecap: round;
    stroke-linejoin: miter;
}

path {
    fill: none;
    stroke: black;
    stroke-width: 2;
    stroke-opacity: 1;
    fill-opacity: 1;
    stroke-linecap: round;
    stroke-linejoin: miter;
}

line.dashed {
    stroke-dasharray: 5;
}

.fg_fill {
    fill: black;
}


.bg_fill {
    fill: white;
    stroke: black;
    stroke-width: 2;
}

tspan.head{
    fill: none;
    stroke: none;
}
    
</style>
<rect class="backdrop" height="1904" width="608" x="0" y="0"/>
<g>
<line x1="20" x2="20" y1="88" y2="552"/>
<line x1="20" x2="108" y1="88" y2="88"/>
<line x1="20" x2="108" y1="552" y2="552"/>
<line x1="108" x2="108" y1="88" y2="552"/>
</g>
<g>
<line x1="20" x2="20" y1="1000" y2="1048"/>
<line x1="20" x2="108" y1="1000" y2="1000"/>
<line x1="20" x2="108" y1="1048" y2="1048"/>
<line x1="108" x2="108" y1="1000" y2="1048"/>
</g>
<g>
<line marker-end="url(#triangle)" x1="28" x2="28" y1="632" y2="668"/>
<line x1="28" x2="44" y1="632" y2="632"/>
</g>
<g>
<line x1="28" x2="28" y1="688" y2="744"/>
<line x1="28" x2="88" y1="744" y2="744"/>
</g>
<g>
<line marker-end="url(#triangle)" x1="28" x2="28" y1="1128" y2="1164"/>
<line x1="28" x2="44" y1="1128" y2="1128"/>
</g>
<g>
<line x1="28" x2="28" y1="1184" y2="1240"/>
<line x1="28" x2="88" y1="1240" y2="1240"/>
</g>
<g>
<line x1="44" x2="44" y1="616" y2="648"/>
<line x1="44" x2="68" y1="616" y2="616"/>
<line x1="44" x2="68" y1="648" y2="648"/>
<line x1="68" x2="68" y1="616" y2="648"/>
</g>
<g>
<line x1="44" x2="44" y1="1112" y2="1144"/>
<line x1="44" x2="68" y1="1112" y2="1112"/>
<line x1="44" x2="68" y1="1144" y2="1144"/>
<line x1="68" x2="68" y1="1112" y2="1144"/>
</g>
<g>
<line marker-end="url(#triangle)" x1="60" x2="60" y1="576" y2="604"/>
</g>
<g>
<line marker-end="url(#triangle)" x1="60" x2="60" y1="1072" y2="1100"/>
</g>
<g>
<line marker-end="url(#triangle)" x1="68" x2="68" y1="40" y2="76"/>
<line x1="68" x2="252" y1="40" y2="40"/>
<line x1="252" x2="252" y1="16" y2="40"/>
<line marker-end="url(#triangle)" x1="252" x2="252" y1="40" y2="492"/>
<line x1="252" x2="396" y1="40" y2="40"/>
<line marker-end="url(#triangle)" x1="396" x2="396" y1="40" y2="540"/>
</g>
<g>
<line x1="68" x2="84" y1="632" y2="632"/>
<line marker-end="url(#triangle)" x1="84" x2="84" y1="632" y2="668"/>
</g>
<g>
<line marker-end="url(#triangle)" x1="68" x2="68" y1="952" y2="988"/>
<line x1="68" x2="252" y1="952" y2="952"/>
<line x1="252" x2="252" y1="928" y2="952"/>
<line marker-end="url(#triangle)" x1="252" x2="252" y1="952" y2="1004"/>
<line x1="252" x2="396" y1="952" y2="952"/>
<line marker-end="url(#triangle)" x1="396" x2="396" y1="952" y2="1036"/>
</g>
<g>
<line x1="68" x2="84" y1="1128" y2="1128"/>
<line marker-end="url(#triangle)" x1="84" x2="84" y1="1128" y2="1164"/>
</g>
<g>
<line x1="84" x2="84" y1="688" y2="728"/>
<line x1="88" x2="84" y1="736" y2="728"/>
<line x1="88" x2="92" y1="736" y2="736"/>
<line x1="92" x2="92" y1="736" y2="752"/>
<line x1="92" x2="88" y1="752" y2="752"/>
</g>
<g>
<line x1="84" x2="84" y1="760" y2="792"/>
<line x1="84" x2="88" y1="760" y2="752"/>
<line x1="84" x2="252" y1="792" y2="792"/>
<line x1="252" x2="252" y1="760" y2="792"/>
<line x1="252" x2="256" y1="760" y2="752"/>
<line marker-end="url(#triangle)" x1="252" x2="252" y1="792" y2="828"/>
<line x1="252" x2="420" y1="792" y2="792"/>
<line x1="260" x2="256" y1="752" y2="752"/>
<line x1="420" x2="420" y1="760" y2="792"/>
<line x1="420" x2="424" y1="760" y2="752"/>
<line x1="428" x2="424" y1="752" y2="752"/>
</g>
<g>
<line x1="84" x2="84" y1="1184" y2="1224"/>
<line x1="88" x2="84" y1="1232" y2="1224"/>
<line x1="88" x2="92" y1="1232" y2="1232"/>
<line x1="92" x2="92" y1="1232" y2="1248"/>
<line x1="92" x2="88" y1="1248" y2="1248"/>
</g>
<g>
<line x1="84" x2="84" y1="1256" y2="1288"/>
<line x1="84" x2="88" y1="1256" y2="1248"/>
<line x1="84" x2="252" y1="1288" y2="1288"/>
<line x1="252" x2="252" y1="1256" y2="1288"/>
<line x1="252" x2="256" y1="1256" y2="1248"/>
<line marker-end="url(#triangle)" x1="252" x2="252" y1="1288" y2="1324"/>
<line x1="252" x2="420" y1="1288" y2="1288"/>
<line x1="260" x2="256" y1="1248" y2="1248"/>
<line x1="420" x2="420" y1="1256" y2="1288"/>
<line x1="420" x2="424" y1="1256" y2="1248"/>
<line x1="428" x2="424" y1="1248" y2="1248"/>
</g>
<g>
<line x1="96" x2="256" y1="744" y2="744"/>
</g>
<g>
<line x1="96" x2="256" y1="1240" y2="1240"/>
</g>
<g>
<line marker-end="url(#triangle)" x1="204" x2="204" y1="632" y2="668"/>
<line x1="204" x2="220" y1="632" y2="632"/>
</g>
<g>
<line x1="204" x2="204" y1="688" y2="728"/>
<line x1="204" x2="256" y1="728" y2="728"/>
</g>
<g>
<line marker-end="url(#triangle)" x1="204" x2="204" y1="1128" y2="1164"/>
<line x1="204" x2="220" y1="1128" y2="1128"/>
</g>
<g>
<line x1="204" x2="204" y1="1184" y2="1224"/>
<line x1="204" x2="256" y1="1224" y2="1224"/>
</g>
<g>
<line marker-end="url(#triangle)" x1="204" x2="204" y1="1592" y2="1628"/>
<line x1="204" x2="220" y1="1592" y2="1592"/>
</g>
<g>
<line x1="204" x2="204" y1="1648" y2="1688"/>
<line x1="204" x2="256" y1="1688" y2="1688"/>
</g>
<g>
<line x1="212" x2="212" y1="504" y2="552"/>
<line x1="212" x2="260" y1="504" y2="504"/>
<line x1="212" x2="260" y1="552" y2="552"/>
<line x1="260" x2="260" y1="504" y2="552"/>
</g>
<g>
<line x1="212" x2="212" y1="1016" y2="1048"/>
<line x1="212" x2="260" y1="1016" y2="1016"/>
<line x1="212" x2="260" y1="1048" y2="1048"/>
<line x1="260" x2="260" y1="1016" y2="1048"/>
</g>
<g>
<line x1="212" x2="212" y1="1496" y2="1512"/>
<line x1="212" x2="260" y1="1496" y2="1496"/>
<line x1="212" x2="260" y1="1512" y2="1512"/>
<line x1="260" x2="260" y1="1496" y2="1512"/>
</g>
<g>
<line x1="220" x2="220" y1="616" y2="648"/>
<line x1="220" x2="244" y1="616" y2="616"/>
<line x1="220" x2="244" y1="648" y2="648"/>
<line x1="244" x2="244" y1="616" y2="648"/>
</g>
<g>
<line x1="220" x2="220" y1="1112" y2="1144"/>
<line x1="220" x2="244" y1="1112" y2="1112"/>
<line x1="220" x2="244" y1="1144" y2="1144"/>
<line x1="244" x2="244" y1="1112" y2="1144"/>
</g>
<g>
<line x1="220" x2="220" y1="1576" y2="1608"/>
<line x1="220" x2="244" y1="1576" y2="1576"/>
<line x1="220" x2="244" y1="1608" y2="1608"/>
<line x1="244" x2="244" y1="1576" y2="1608"/>
</g>
<g>
<line marker-end="url(#triangle)" x1="236" x2="236" y1="576" y2="604"/>
</g>
<g>
<line x1="236" x2="236" y1="840" y2="872"/>
<line x1="236" x2="268" y1="840" y2="840"/>
<line x1="236" x2="252" y1="872" y2="872"/>
<line marker-end="url(#triangle)" x1="252" x2="252" y1="872" y2="908"/>
<line x1="252" x2="268" y1="872" y2="872"/>
<line x1="268" x2="268" y1="840" y2="872"/>
</g>
<g>
<line marker-end="url(#triangle)" x1="236" x2="236" y1="1072" y2="1100"/>
</g>
<g>
<line x1="236" x2="236" y1="1336" y2="1368"/>
<line x1="236" x2="268" y1="1336" y2="1336"/>
<line x1="236" x2="252" y1="1368" y2="1368"/>
<line marker-end="url(#triangle)" x1="252" x2="252" y1="1368" y2="1404"/>
<line x1="252" x2="268" y1="1368" y2="1368"/>
<line x1="268" x2="268" y1="1336" y2="1368"/>
</g>
<g>
<line marker-end="url(#triangle)" x1="236" x2="236" y1="1536" y2="1564"/>
</g>
<g>
<line x1="236" x2="236" y1="1800" y2="1832"/>
<line x1="236" x2="268" y1="1800" y2="1800"/>
<line x1="236" x2="252" y1="1832" y2="1832"/>
<line marker-end="url(#triangle)" x1="252" x2="252" y1="1832" y2="1868"/>
<line x1="252" x2="268" y1="1832" y2="1832"/>
<line x1="268" x2="268" y1="1800" y2="1832"/>
</g>
<g>
<line x1="244" x2="260" y1="632" y2="632"/>
<line marker-end="url(#triangle)" x1="260" x2="260" y1="632" y2="668"/>
</g>
<g>
<line x1="244" x2="260" y1="1128" y2="1128"/>
<line marker-end="url(#triangle)" x1="260" x2="260" y1="1128" y2="1164"/>
</g>
<g>
<line x1="244" x2="260" y1="1592" y2="1592"/>
<line marker-end="url(#triangle)" x1="260" x2="260" y1="1592" y2="1628"/>
</g>
<g>
<line x1="252" x2="252" y1="688" y2="712"/>
<line x1="256" x2="252" y1="720" y2="712"/>
<line x1="256" x2="260" y1="720" y2="720"/>
<line x1="260" x2="260" y1="720" y2="752"/>
</g>
<g>
<line x1="252" x2="252" y1="1184" y2="1208"/>
<line x1="256" x2="252" y1="1216" y2="1208"/>
<line x1="256" x2="260" y1="1216" y2="1216"/>
<line x1="260" x2="260" y1="1216" y2="1248"/>
</g>
<g>
<line x1="252" x2="252" y1="1424" y2="1448"/>
<line marker-end="url(#triangle)" x1="252" x2="252" y1="1448" y2="1484"/>
<line x1="252" x2="396" y1="1448" y2="1448"/>
<line marker-end="url(#triangle)" x1="396" x2="396" y1="1448" y2="1500"/>
</g>
<g>
<line x1="252" x2="252" y1="1648" y2="1672"/>
<line x1="256" x2="252" y1="1680" y2="1672"/>
<line x1="256" x2="260" y1="1680" y2="1680"/>
<line x1="260" x2="260" y1="1680" y2="1696"/>
<line x1="260" x2="256" y1="1696" y2="1696"/>
</g>
<g>
<line x1="252" x2="252" y1="1704" y2="1752"/>
<line x1="252" x2="256" y1="1704" y2="1696"/>
<line marker-end="url(#triangle)" x1="252" x2="252" y1="1752" y2="1788"/>
<line x1="252" x2="420" y1="1752" y2="1752"/>
<line x1="420" x2="420" y1="1704" y2="1752"/>
<line x1="420" x2="424" y1="1704" y2="1696"/>
<line x1="428" x2="424" y1="1696" y2="1696"/>
</g>
<g>
<line x1="260" x2="260" y1="736" y2="736"/>
</g>
<g>
<line x1="260" x2="260" y1="1232" y2="1232"/>
</g>
<g>
<line x1="264" x2="424" y1="728" y2="728"/>
</g>
<g>
<line x1="264" x2="424" y1="744" y2="744"/>
</g>
<g>
<line x1="264" x2="424" y1="1224" y2="1224"/>
</g>
<g>
<line x1="264" x2="424" y1="1240" y2="1240"/>
</g>
<g>
<line x1="264" x2="424" y1="1688" y2="1688"/>
</g>
<g>
<line marker-end="url(#triangle)" x1="364" x2="364" y1="632" y2="668"/>
<line x1="364" x2="380" y1="632" y2="632"/>
</g>
<g>
<line x1="364" x2="364" y1="688" y2="712"/>
<line x1="364" x2="424" y1="712" y2="712"/>
</g>
<g>
<line marker-end="url(#triangle)" x1="364" x2="364" y1="1128" y2="1164"/>
<line x1="364" x2="380" y1="1128" y2="1128"/>
</g>
<g>
<line x1="364" x2="364" y1="1184" y2="1208"/>
<line x1="364" x2="424" y1="1208" y2="1208"/>
</g>
<g>
<line marker-end="url(#triangle)" x1="364" x2="364" y1="1592" y2="1628"/>
<line x1="364" x2="380" y1="1592" y2="1592"/>
</g>
<g>
<line x1="364" x2="364" y1="1648" y2="1672"/>
<line x1="364" x2="424" y1="1672" y2="1672"/>
</g>
<g>
<line x1="380" x2="380" y1="616" y2="648"/>
<line x1="380" x2="404" y1="616" y2="616"/>
<line x1="380" x2="404" y1="648" y2="648"/>
<line x1="404" x2="404" y1="616" y2="648"/>
</g>
<g>
<line x1="380" x2="380" y1="1112" y2="1144"/>
<line x1="380" x2="404" y1="1112" y2="1112"/>
<line x1="380" x2="404" y1="1144" y2="1144"/>
<line x1="404" x2="404" y1="1112" y2="1144"/>
</g>
<g>
<line x1="380" x2="380" y1="1576" y2="1608"/>
<line x1="380" x2="404" y1="1576" y2="1576"/>
<line x1="380" x2="404" y1="1608" y2="1608"/>
<line x1="404" x2="404" y1="1576" y2="1608"/>
</g>
<g>
<line marker-end="url(#triangle)" x1="396" x2="396" y1="576" y2="604"/>
</g>
<g>
<line marker-end="url(#triangle)" x1="396" x2="396" y1="1072" y2="1100"/>
</g>
<g>
<line marker-end="url(#triangle)" x1="396" x2="396" y1="1536" y2="1564"/>
</g>
<g>
<line x1="404" x2="420" y1="632" y2="632"/>
<line marker-end="url(#triangle)" x1="420" x2="420" y1="632" y2="668"/>
</g>
<g>
<line x1="404" x2="420" y1="1128" y2="1128"/>
<line marker-end="url(#triangle)" x1="420" x2="420" y1="1128" y2="1164"/>
</g>
<g>
<line x1="404" x2="420" y1="1592" y2="1592"/>
<line marker-end="url(#triangle)" x1="420" x2="420" y1="1592" y2="1628"/>
</g>
<g>
<line x1="416" x2="424" y1="688" y2="704"/>
<line x1="424" x2="428" y1="704" y2="704"/>
<line x1="428" x2="428" y1="704" y2="752"/>
</g>
<g>
<line x1="416" x2="424" y1="1184" y2="1200"/>
<line x1="424" x2="428" y1="1200" y2="1200"/>
<line x1="428" x2="428" y1="1200" y2="1248"/>
</g>
<g>
<line x1="416" x2="424" y1="1648" y2="1664"/>
<line x1="424" x2="428" y1="1664" y2="1664"/>
<line x1="428" x2="428" y1="1664" y2="1696"/>
</g>
<g>
<line x1="428" x2="428" y1="720" y2="720"/>
</g>
<g>
<line x1="428" x2="428" y1="736" y2="736"/>
</g>
<g>
<line x1="428" x2="428" y1="1216" y2="1216"/>
</g>
<g>
<line x1="428" x2="428" y1="1232" y2="1232"/>
</g>
<g>
<line x1="428" x2="428" y1="1680" y2="1680"/>
</g>
<g>
<line marker-end="url(#triangle)" x1="432" x2="524" y1="712" y2="712"/>
</g>
<g>
<line marker-end="url(#triangle)" x1="432" x2="524" y1="728" y2="728"/>
</g>
<g>
<line marker-end="url(#triangle)" x1="432" x2="524" y1="744" y2="744"/>
</g>
<g>
<line marker-end="url(#triangle)" x1="432" x2="524" y1="1208" y2="1208"/>
</g>
<g>
<line marker-end="url(#triangle)" x1="432" x2="524" y1="1224" y2="1224"/>
</g>
<g>
<line marker-end="url(#triangle)" x1="432" x2="524" y1="1240" y2="1240"/>
</g>
<g>
<line marker-end="url(#triangle)" x1="432" x2="524" y1="1672" y2="1672"/>
</g>
<g>
<line marker-end="url(#triangle)" x1="432" x2="524" y1="1688" y2="1688"/>
</g>
<g>
<line x1="532" x2="532" y1="696" y2="760"/>
<line x1="532" x2="548" y1="696" y2="696"/>
<line x1="532" x2="540" y1="760" y2="760"/>
<line marker-end="url(#triangle)" x1="540" x2="540" y1="760" y2="796"/>
<line x1="540" x2="548" y1="760" y2="760"/>
<line x1="548" x2="548" y1="696" y2="760"/>
</g>
<g>
<line x1="532" x2="532" y1="1192" y2="1256"/>
<line x1="532" x2="548" y1="1192" y2="1192"/>
<line x1="532" x2="540" y1="1256" y2="1256"/>
<line marker-end="url(#triangle)" x1="540" x2="540" y1="1256" y2="1292"/>
<line x1="540" x2="548" y1="1256" y2="1256"/>
<line x1="548" x2="548" y1="1192" y2="1256"/>
</g>
<g>
<line x1="532" x2="532" y1="1656" y2="1720"/>
<line x1="532" x2="548" y1="1656" y2="1656"/>
<line x1="532" x2="540" y1="1720" y2="1720"/>
<line marker-end="url(#triangle)" x1="540" x2="540" y1="1720" y2="1868"/>
<line x1="540" x2="548" y1="1720" y2="1720"/>
<line x1="548" x2="548" y1="1656" y2="1720"/>
</g>
<g>
<line marker-end="url(#triangle)" x1="540" x2="540" y1="816" y2="1180"/>
</g>
<g>
<line marker-end="url(#triangle)" x1="540" x2="540" y1="1312" y2="1644"/>
</g>
<g>
<text x="17" y="684">
200
</text>
</g>
<g>
<text x="17" y="1180">
30
</text>
</g>
<g>
<text x="49" y="572">
700
</text>
</g>
<g>
<text x="49" y="636">
TE
</text>
</g>
<g>
<text x="49" y="1068">
100
</text>
</g>
<g>
<text x="49" y="1132">
TE
</text>
</g>
<g>
<text x="73" y="684">
R100
</text>
</g>
<g>
<text x="73" y="1180">
R10
</text>
</g>
<g>
<text x="193" y="684">
10
</text>
</g>
<g>
<text x="193" y="1900">
(final
</text>
</g>
<g>
<text x="201" y="1180">
6
</text>
</g>
<g>
<text x="201" y="1644">
3
</text>
</g>
<g>
<text x="225" y="572">
50
</text>
</g>
<g>
<text x="225" y="636">
TE
</text>
</g>
<g>
<text x="225" y="1068">
20
</text>
</g>
<g>
<text x="225" y="1132">
TE
</text>
</g>
<g>
<text x="225" y="1532">
10
</text>
</g>
<g>
<text x="225" y="1596">
TE
</text>
</g>
<g>
<text x="241" y="12">
753
</text>
</g>
<g>
<text x="241" y="860">
ADD
</text>
</g>
<g>
<text x="241" y="924">
122
</text>
</g>
<g>
<text x="241" y="1356">
ADD
</text>
</g>
<g>
<text x="241" y="1820">
ADD
</text>
</g>
<g>
<text x="249" y="684">
R20
</text>
</g>
<g>
<text x="249" y="1180">
R2
</text>
</g>
<g>
<text x="249" y="1420">
14
</text>
</g>
<g>
<text x="249" y="1644">
R1
</text>
</g>
<g>
<text x="249" y="1884">
2
</text>
</g>
<g>
<text x="249" y="1900">
remainder)
</text>
</g>
<g>
<text x="273" y="12">
(ITERATION
</text>
</g>
<g>
<text x="273" y="924">
(ITERATION
</text>
</g>
<g>
<text x="273" y="1420">
(ITERATION
</text>
</g>
<g>
<text x="361" y="12">
1)
</text>
</g>
<g>
<text x="361" y="684">
0
</text>
</g>
<g>
<text x="361" y="924">
2)
</text>
</g>
<g>
<text x="361" y="1180">
0
</text>
</g>
<g>
<text x="361" y="1420">
3)
</text>
</g>
<g>
<text x="361" y="1644">
1
</text>
</g>
<g>
<text x="369" y="1516">
.
</text>
</g>
<g>
<text x="385" y="556">
.
</text>
</g>
<g>
<text x="385" y="636">
TE
</text>
</g>
<g>
<text x="385" y="1052">
.
</text>
</g>
<g>
<text x="385" y="1132">
TE
</text>
</g>
<g>
<text x="385" y="1516">
.
</text>
</g>
<g>
<text x="385" y="1596">
TE
</text>
</g>
<g>
<text x="393" y="572">
2
</text>
</g>
<g>
<text x="393" y="1068">
2
</text>
</g>
<g>
<text x="393" y="1532">
4
</text>
</g>
<g>
<text x="401" y="556">
.
</text>
</g>
<g>
<text x="401" y="1052">
.
</text>
</g>
<g>
<text x="401" y="1516">
.
</text>
</g>
<g>
<text x="417" y="684">
R2
</text>
</g>
<g>
<text x="417" y="1180">
R2
</text>
</g>
<g>
<text x="417" y="1516">
.
</text>
</g>
<g>
<text x="417" y="1644">
R1
</text>
</g>
<g>
<text x="481" y="1900">
(final
</text>
</g>
<g>
<text x="529" y="812">
210
</text>
</g>
<g>
<text x="529" y="1308">
246
</text>
</g>
<g>
<text x="529" y="1884">
250
</text>
</g>
<g>
<text x="537" y="716">
A
</text>
</g>
<g>
<text x="537" y="732">
D
</text>
</g>
<g>
<text x="537" y="748">
D
</text>
</g>
<g>
<text x="537" y="1212">
A
</text>
</g>
<g>
<text x="537" y="1228">
D
</text>
</g>
<g>
<text x="537" y="1244">
D
</text>
</g>
<g>
<text x="537" y="1676">
A
</text>
</g>
<g>
<text x="537" y="1692">
D
</text>
</g>
<g>
<text x="537" y="1708">
D
</text>
</g>
<g>
<text x="537" y="1900">
quotient)
</text>
</g>
</svg>
