<svg class="bob" font-family="arial" font-size="14" height="608" width="392" xmlns="http://www.w3.org/2000/svg">
<defs>
<marker id="triangle" markerHeight="8" markerWidth="8" orient="auto" refX="4" refY="2" viewBox="0 0 8 4">
<polygon class="fg_fill" points="0,0 0,4 8,2 0,0"/>
</marker>
<marker id="clear_triangle" markerHeight="10" markerWidth="10" orient="auto" refX="1" refY="7" viewBox="0 0 20 14">
<polygon class="bg_fill" points="2,2 2,12 18,7 2,2"/>
</marker>
<marker id="circle" markerHeight="5" markerWidth="5" orient="auto" refX="10" refY="10" viewBox="0 0 20 20">
<circle class="fg_fill" cx="10" cy="10" r="8"/>
</marker>
<marker id="square" markerHeight="5" markerWidth="5" orient="auto" refX="10" refY="10" viewBox="0 0 20 20">
<rect class="fg_fill" height="20" width="20" x="0" y="0"/>
</marker>
<marker id="open_circle" markerHeight="10" markerWidth="10" orient="auto" refX="10" refY="10" viewBox="0 0 20 20">
<circle class="bg_fill" cx="10" cy="10" r="4"/>
</marker>
<marker id="big_open_circle" markerHeight="20" markerWidth="20" orient="auto" refX="20" refY="20" viewBox="0 0 40 40">
<circle class="bg_fill" cx="20" cy="20" r="6"/>
</marker>
</defs>
<style type="text/css">

rect.backdrop {
    fill: white;
}
text{
    fill: black;
}

circle {
    fill: none;
    stroke: black;
    stroke-width: 2;
}

line {
    stroke: black;
    stroke-width: 2;
    stroke-opacity: 1;
    fill-opacity: 1;
    stroke-linecap: round;
    stroke-linejoin: miter;
}

path {
    fill: none;
    stroke: black;
    stroke-width: 2;
    stroke-opacity: 1;
    fill-opacity: 1;
    stroke-linecap: round;
    stroke-linejoin: miter;
}

line.dashed {
    stroke-dasharray: 5;
}

.fg_fill {
    fill: black;
}


.bg_fill {
    fill: white;
    stroke: black;
    stroke-width: 2;
}

tspan.head{
    fill: none;
    stroke: none;
}
    
</style>
<rect class="backdrop" height="608" width="392" x="0" y="0"/>
<g>
<line x1="4" x2="4" y1="72" y2="104"/>
<line x1="4" x2="28" y1="72" y2="72"/>
<line x1="4" x2="12" y1="104" y2="104"/>
<line marker-end="url(#triangle)" x1="12" x2="12" y1="104" y2="172"/>
<line x1="12" x2="28" y1="104" y2="104"/>
<line x1="28" x2="28" y1="72" y2="104"/>
<line x1="28" x2="44" y1="72" y2="72"/>
<line x1="28" x2="52" y1="104" y2="104"/>
<line x1="44" x2="44" y1="24" y2="72"/>
<line x1="44" x2="380" y1="24" y2="24"/>
<line x1="44" x2="52" y1="72" y2="72"/>
<line x1="52" x2="52" y1="72" y2="104"/>
<line marker-end="url(#triangle)" x1="380" x2="380" y1="24" y2="60"/>
</g>
<g>
<line x1="4" x2="4" y1="184" y2="216"/>
<line x1="4" x2="28" y1="184" y2="184"/>
<line x1="4" x2="20" y1="216" y2="216"/>
<line marker-end="url(#triangle)" x1="20" x2="20" y1="216" y2="252"/>
<line x1="20" x2="28" y1="216" y2="216"/>
<line x1="28" x2="28" y1="184" y2="216"/>
</g>
<g>
<line x1="4" x2="4" y1="264" y2="312"/>
<line x1="4" x2="148" y1="264" y2="264"/>
<line x1="4" x2="28" y1="312" y2="312"/>
<line marker-end="url(#triangle)" x1="28" x2="28" y1="312" y2="348"/>
<line x1="28" x2="60" y1="312" y2="312"/>
<line marker-end="url(#triangle)" x1="60" x2="60" y1="312" y2="348"/>
<line x1="60" x2="148" y1="312" y2="312"/>
<line x1="148" x2="148" y1="264" y2="312"/>
</g>
<g>
<line x1="4" x2="4" y1="472" y2="504"/>
<line x1="4" x2="20" y1="472" y2="472"/>
<line x1="4" x2="20" y1="504" y2="504"/>
<line x1="20" x2="20" y1="472" y2="504"/>
<line x1="20" x2="44" y1="472" y2="472"/>
<line x1="20" x2="44" y1="504" y2="504"/>
<line x1="44" x2="44" y1="472" y2="504"/>
</g>
<g>
<line marker-end="url(#triangle)" x1="12" x2="12" y1="424" y2="460"/>
<line x1="12" x2="28" y1="424" y2="424"/>
<line x1="28" x2="28" y1="392" y2="424"/>
<line x1="28" x2="36" y1="392" y2="392"/>
<line x1="36" x2="36" y1="360" y2="392"/>
</g>
<g>
<line x1="20" x2="20" y1="360" y2="392"/>
<line x1="20" x2="36" y1="360" y2="360"/>
<line x1="20" x2="28" y1="392" y2="392"/>
</g>
<g>
<line marker-end="url(#triangle)" x1="36" x2="36" y1="528" y2="516"/>
<line x1="36" x2="36" y1="528" y2="584"/>
<line x1="36" x2="380" y1="584" y2="584"/>
<line x1="380" x2="380" y1="552" y2="584"/>
</g>
<g>
<line x1="52" x2="52" y1="360" y2="392"/>
<line x1="52" x2="68" y1="360" y2="360"/>
<line x1="52" x2="60" y1="392" y2="392"/>
<line x1="60" x2="60" y1="392" y2="424"/>
<line x1="60" x2="68" y1="392" y2="392"/>
<line x1="60" x2="68" y1="424" y2="424"/>
<line x1="68" x2="68" y1="360" y2="392"/>
<line marker-end="url(#triangle)" x1="68" x2="68" y1="424" y2="460"/>
</g>
<g>
<line x1="60" x2="60" y1="472" y2="504"/>
<line x1="60" x2="76" y1="472" y2="472"/>
<line x1="60" x2="76" y1="504" y2="504"/>
<line x1="76" x2="76" y1="472" y2="504"/>
<line x1="76" x2="100" y1="472" y2="472"/>
<line x1="76" x2="100" y1="504" y2="504"/>
<line x1="100" x2="100" y1="472" y2="504"/>
</g>
<g>
<line x1="76" x2="76" y1="184" y2="216"/>
<line x1="76" x2="92" y1="184" y2="184"/>
<line x1="76" x2="84" y1="216" y2="216"/>
<line marker-end="url(#triangle)" x1="84" x2="84" y1="216" y2="252"/>
<line x1="84" x2="92" y1="216" y2="216"/>
<line x1="92" x2="92" y1="184" y2="216"/>
</g>
<g>
<line marker-end="url(#triangle)" x1="84" x2="84" y1="136" y2="172"/>
<line x1="84" x2="108" y1="136" y2="136"/>
<line x1="108" x2="108" y1="104" y2="136"/>
<line x1="108" x2="116" y1="104" y2="104"/>
<line x1="116" x2="116" y1="72" y2="104"/>
</g>
<g>
<line marker-end="url(#triangle)" x1="92" x2="92" y1="528" y2="516"/>
<line x1="92" x2="92" y1="528" y2="552"/>
<line x1="92" x2="380" y1="552" y2="552"/>
<line x1="380" x2="380" y1="104" y2="552"/>
<line x1="380" x2="388" y1="104" y2="104"/>
<line x1="388" x2="388" y1="72" y2="104"/>
</g>
<g>
<line x1="100" x2="100" y1="72" y2="104"/>
<line x1="100" x2="116" y1="72" y2="72"/>
<line x1="100" x2="108" y1="104" y2="104"/>
</g>
<g>
<line x1="364" x2="364" y1="72" y2="104"/>
<line x1="364" x2="388" y1="72" y2="72"/>
<line x1="364" x2="380" y1="104" y2="104"/>
</g>
<g>
<text x="9" y="92">
45
</text>
</g>
<g>
<text x="9" y="204">
45
</text>
</g>
<g>
<text x="9" y="492">
7
</text>
</g>
<g>
<text x="17" y="284">
trial
</text>
</g>
<g>
<text x="25" y="380">
7
</text>
</g>
<g>
<text x="25" y="492">
00
</text>
</g>
<g>
<text x="33" y="92">
00
</text>
</g>
<g>
<text x="41" y="204">
/
</text>
</g>
<g>
<text x="41" y="380">
R
</text>
</g>
<g>
<text x="49" y="300">
division
</text>
</g>
<g>
<text x="49" y="492">
R
</text>
</g>
<g>
<text x="57" y="380">
3
</text>
</g>
<g>
<text x="65" y="92">
/
</text>
</g>
<g>
<text x="65" y="284">
and
</text>
</g>
<g>
<text x="65" y="492">
3
</text>
</g>
<g>
<text x="73" y="12">
remove
</text>
</g>
<g>
<text x="73" y="604">
append
</text>
</g>
<g>
<text x="81" y="204">
6
</text>
</g>
<g>
<text x="81" y="492">
00
</text>
</g>
<g>
<text x="97" y="284">
error
</text>
</g>
<g>
<text x="105" y="92">
6
</text>
</g>
<g>
<text x="129" y="12">
trailing
</text>
</g>
<g>
<text x="129" y="604">
trailing
</text>
</g>
<g>
<text x="201" y="12">
0s
</text>
</g>
<g>
<text x="201" y="604">
0s
</text>
</g>
<g>
<text x="225" y="12">
from
</text>
</g>
<g>
<text x="225" y="604">
to
</text>
</g>
<g>
<text x="249" y="604">
answer
</text>
</g>
<g>
<text x="265" y="12">
dividend
</text>
</g>
<g>
<text x="369" y="92">
00
</text>
</g>
</svg>
