<svg class="bob" font-family="arial" font-size="14" height="640" width="480" xmlns="http://www.w3.org/2000/svg">
<defs>
<marker id="triangle" markerHeight="8" markerWidth="8" orient="auto" refX="4" refY="2" viewBox="0 0 8 4">
<polygon class="fg_fill" points="0,0 0,4 8,2 0,0"/>
</marker>
<marker id="clear_triangle" markerHeight="10" markerWidth="10" orient="auto" refX="1" refY="7" viewBox="0 0 20 14">
<polygon class="bg_fill" points="2,2 2,12 18,7 2,2"/>
</marker>
<marker id="circle" markerHeight="5" markerWidth="5" orient="auto" refX="10" refY="10" viewBox="0 0 20 20">
<circle class="fg_fill" cx="10" cy="10" r="8"/>
</marker>
<marker id="square" markerHeight="5" markerWidth="5" orient="auto" refX="10" refY="10" viewBox="0 0 20 20">
<rect class="fg_fill" height="20" width="20" x="0" y="0"/>
</marker>
<marker id="open_circle" markerHeight="10" markerWidth="10" orient="auto" refX="10" refY="10" viewBox="0 0 20 20">
<circle class="bg_fill" cx="10" cy="10" r="4"/>
</marker>
<marker id="big_open_circle" markerHeight="20" markerWidth="20" orient="auto" refX="20" refY="20" viewBox="0 0 40 40">
<circle class="bg_fill" cx="20" cy="20" r="6"/>
</marker>
</defs>
<style type="text/css">

rect.backdrop {
    fill: white;
}
text{
    fill: black;
}

circle {
    fill: none;
    stroke: black;
    stroke-width: 2;
}

line {
    stroke: black;
    stroke-width: 2;
    stroke-opacity: 1;
    fill-opacity: 1;
    stroke-linecap: round;
    stroke-linejoin: miter;
}

path {
    fill: none;
    stroke: black;
    stroke-width: 2;
    stroke-opacity: 1;
    fill-opacity: 1;
    stroke-linecap: round;
    stroke-linejoin: miter;
}

line.dashed {
    stroke-dasharray: 5;
}

.fg_fill {
    fill: black;
}


.bg_fill {
    fill: white;
    stroke: black;
    stroke-width: 2;
}

tspan.head{
    fill: none;
    stroke: none;
}
    
</style>
<rect class="backdrop" height="640" width="480" x="0" y="0"/>
<g>
<line marker-end="url(#triangle)" x1="28" x2="28" y1="200" y2="236"/>
<line x1="28" x2="44" y1="200" y2="200"/>
</g>
<g>
<line x1="28" x2="28" y1="256" y2="488"/>
<line x1="28" x2="116" y1="488" y2="488"/>
<line marker-end="url(#triangle)" x1="116" x2="116" y1="488" y2="524"/>
<line x1="116" x2="220" y1="488" y2="488"/>
<line x1="220" x2="220" y1="464" y2="488"/>
</g>
<g>
<line x1="44" x2="44" y1="184" y2="216"/>
<line x1="44" x2="68" y1="184" y2="184"/>
<line x1="44" x2="68" y1="216" y2="216"/>
<line x1="68" x2="68" y1="184" y2="216"/>
</g>
<g>
<line marker-end="url(#triangle)" x1="60" x2="60" y1="72" y2="124"/>
<line x1="60" x2="220" y1="72" y2="72"/>
<line x1="220" x2="220" y1="56" y2="72"/>
<line x1="220" x2="284" y1="56" y2="56"/>
<line x1="220" x2="220" y1="72" y2="88"/>
<line x1="220" x2="252" y1="88" y2="88"/>
<line marker-end="url(#triangle)" x1="252" x2="252" y1="88" y2="124"/>
<line x1="252" x2="284" y1="88" y2="88"/>
<line x1="284" x2="284" y1="56" y2="72"/>
<line x1="284" x2="284" y1="72" y2="88"/>
<line x1="284" x2="412" y1="72" y2="72"/>
<line marker-end="url(#triangle)" x1="412" x2="412" y1="72" y2="124"/>
</g>
<g>
<line marker-end="url(#triangle)" x1="60" x2="60" y1="144" y2="172"/>
</g>
<g>
<line x1="68" x2="84" y1="200" y2="200"/>
<line marker-end="url(#triangle)" x1="84" x2="84" y1="200" y2="236"/>
</g>
<g>
<line x1="84" x2="84" y1="256" y2="280"/>
<line marker-end="url(#triangle)" x1="84" x2="228" y1="280" y2="280"/>
</g>
<g>
<line x1="100" x2="100" y1="536" y2="568"/>
<line x1="100" x2="132" y1="536" y2="536"/>
<line x1="100" x2="132" y1="568" y2="568"/>
<line x1="132" x2="132" y1="536" y2="568"/>
</g>
<g>
<line marker-end="url(#triangle)" x1="116" x2="116" y1="576" y2="604"/>
</g>
<g>
<line marker-end="url(#triangle)" x1="220" x2="220" y1="408" y2="444"/>
<line x1="220" x2="236" y1="408" y2="408"/>
</g>
<g>
<line x1="236" x2="236" y1="264" y2="296"/>
<line x1="236" x2="268" y1="264" y2="264"/>
<line x1="236" x2="268" y1="296" y2="296"/>
<line x1="268" x2="268" y1="264" y2="296"/>
</g>
<g>
<line x1="236" x2="236" y1="392" y2="424"/>
<line x1="236" x2="260" y1="392" y2="392"/>
<line x1="236" x2="260" y1="424" y2="424"/>
<line x1="260" x2="260" y1="392" y2="424"/>
</g>
<g>
<line marker-end="url(#triangle)" x1="252" x2="252" y1="16" y2="44"/>
</g>
<g>
<line marker-end="url(#triangle)" x1="252" x2="252" y1="144" y2="252"/>
</g>
<g>
<line marker-end="url(#triangle)" x1="252" x2="252" y1="304" y2="332"/>
</g>
<g>
<line marker-end="url(#triangle)" x1="252" x2="252" y1="352" y2="380"/>
</g>
<g>
<line x1="260" x2="276" y1="408" y2="408"/>
<line marker-end="url(#triangle)" x1="276" x2="276" y1="408" y2="444"/>
</g>
<g>
<line x1="276" x2="276" y1="464" y2="488"/>
<line marker-end="url(#triangle)" x1="276" x2="388" y1="488" y2="488"/>
</g>
<g>
<line x1="396" x2="396" y1="472" y2="504"/>
<line x1="396" x2="428" y1="472" y2="472"/>
<line x1="396" x2="428" y1="504" y2="504"/>
<line x1="428" x2="428" y1="472" y2="504"/>
</g>
<g>
<line marker-end="url(#triangle)" x1="412" x2="412" y1="144" y2="460"/>
</g>
<g>
<line marker-end="url(#triangle)" x1="412" x2="412" y1="512" y2="540"/>
</g>
<g>
<text x="17" y="252">
200
</text>
</g>
<g>
<text x="49" y="140">
700
</text>
</g>
<g>
<text x="49" y="204">
TE
</text>
</g>
<g>
<text x="65" y="636">
(final
</text>
</g>
<g>
<text x="73" y="252">
R100
</text>
</g>
<g>
<text x="105" y="556">
ADD
</text>
</g>
<g>
<text x="105" y="620">
250
</text>
</g>
<g>
<text x="121" y="636">
quotient)
</text>
</g>
<g>
<text x="209" y="460">
50
</text>
</g>
<g>
<text x="233" y="76">
BREAK
</text>
</g>
<g>
<text x="241" y="12">
753
</text>
</g>
<g>
<text x="241" y="140">
50
</text>
</g>
<g>
<text x="241" y="284">
ADD
</text>
</g>
<g>
<text x="241" y="348">
150
</text>
</g>
<g>
<text x="241" y="412">
TE
</text>
</g>
<g>
<text x="265" y="460">
R00
</text>
</g>
<g>
<text x="345" y="572">
(final
</text>
</g>
<g>
<text x="401" y="492">
ADD
</text>
</g>
<g>
<text x="401" y="572">
remainder)
</text>
</g>
<g>
<text x="409" y="140">
2
</text>
</g>
<g>
<text x="409" y="556">
2
</text>
</g>
</svg>
