<svg class="bob" font-family="arial" font-size="14" height="736" width="960" xmlns="http://www.w3.org/2000/svg">
<defs>
<marker id="triangle" markerHeight="8" markerWidth="8" orient="auto" refX="4" refY="2" viewBox="0 0 8 4">
<polygon class="fg_fill" points="0,0 0,4 8,2 0,0"/>
</marker>
<marker id="clear_triangle" markerHeight="10" markerWidth="10" orient="auto" refX="1" refY="7" viewBox="0 0 20 14">
<polygon class="bg_fill" points="2,2 2,12 18,7 2,2"/>
</marker>
<marker id="circle" markerHeight="5" markerWidth="5" orient="auto" refX="10" refY="10" viewBox="0 0 20 20">
<circle class="fg_fill" cx="10" cy="10" r="8"/>
</marker>
<marker id="square" markerHeight="5" markerWidth="5" orient="auto" refX="10" refY="10" viewBox="0 0 20 20">
<rect class="fg_fill" height="20" width="20" x="0" y="0"/>
</marker>
<marker id="open_circle" markerHeight="10" markerWidth="10" orient="auto" refX="10" refY="10" viewBox="0 0 20 20">
<circle class="bg_fill" cx="10" cy="10" r="4"/>
</marker>
<marker id="big_open_circle" markerHeight="20" markerWidth="20" orient="auto" refX="20" refY="20" viewBox="0 0 40 40">
<circle class="bg_fill" cx="20" cy="20" r="6"/>
</marker>
</defs>
<style type="text/css">

rect.backdrop {
    fill: white;
}
text{
    fill: black;
}

circle {
    fill: none;
    stroke: black;
    stroke-width: 2;
}

line {
    stroke: black;
    stroke-width: 2;
    stroke-opacity: 1;
    fill-opacity: 1;
    stroke-linecap: round;
    stroke-linejoin: miter;
}

path {
    fill: none;
    stroke: black;
    stroke-width: 2;
    stroke-opacity: 1;
    fill-opacity: 1;
    stroke-linecap: round;
    stroke-linejoin: miter;
}

line.dashed {
    stroke-dasharray: 5;
}

.fg_fill {
    fill: black;
}


.bg_fill {
    fill: white;
    stroke: black;
    stroke-width: 2;
}

tspan.head{
    fill: none;
    stroke: none;
}
    
</style>
<rect class="backdrop" height="736" width="960" x="0" y="0"/>
<g>
<line x1="0" x2="68" y1="72" y2="72"/>
<line x1="68" x2="68" y1="40" y2="72"/>
<line marker-end="url(#triangle)" x1="68" x2="164" y1="40" y2="40"/>
<line x1="68" x2="68" y1="72" y2="104"/>
<line x1="68" x2="68" y1="104" y2="152"/>
<line marker-end="url(#triangle)" x1="68" x2="164" y1="104" y2="104"/>
<line marker-end="url(#triangle)" x1="68" x2="164" y1="152" y2="152"/>
</g>
<g>
<line x1="4" x2="4" y1="216" y2="280"/>
<line x1="4" x2="956" y1="216" y2="216"/>
<line x1="4" x2="68" y1="280" y2="280"/>
<line x1="68" x2="68" y1="280" y2="328"/>
<line marker-end="url(#triangle)" x1="68" x2="316" y1="280" y2="280"/>
<line x1="68" x2="68" y1="328" y2="376"/>
<line marker-end="url(#triangle)" x1="68" x2="316" y1="328" y2="328"/>
<line x1="68" x2="68" y1="376" y2="424"/>
<line marker-end="url(#triangle)" x1="68" x2="316" y1="376" y2="376"/>
<line x1="68" x2="68" y1="424" y2="472"/>
<line marker-end="url(#triangle)" x1="68" x2="316" y1="424" y2="424"/>
<line x1="68" x2="68" y1="472" y2="520"/>
<line marker-end="url(#triangle)" x1="68" x2="316" y1="472" y2="472"/>
<line x1="68" x2="68" y1="520" y2="568"/>
<line marker-end="url(#triangle)" x1="68" x2="316" y1="520" y2="520"/>
<line x1="68" x2="68" y1="568" y2="616"/>
<line marker-end="url(#triangle)" x1="68" x2="316" y1="568" y2="568"/>
<line x1="68" x2="68" y1="616" y2="664"/>
<line marker-end="url(#triangle)" x1="68" x2="316" y1="616" y2="616"/>
<line x1="68" x2="68" y1="664" y2="712"/>
<line marker-end="url(#triangle)" x1="68" x2="316" y1="664" y2="664"/>
<line marker-end="url(#triangle)" x1="68" x2="316" y1="712" y2="712"/>
<line x1="956" x2="956" y1="8" y2="216"/>
</g>
<g>
<line x1="176" x2="316" y1="104" y2="104"/>
<line x1="316" x2="316" y1="40" y2="104"/>
<line marker-end="url(#triangle)" x1="316" x2="372" y1="40" y2="40"/>
</g>
<g>
<line x1="264" x2="316" y1="40" y2="40"/>
</g>
<g>
<line x1="376" x2="524" y1="712" y2="712"/>
<line x1="524" x2="524" y1="664" y2="712"/>
</g>
<g>
<line x1="400" x2="524" y1="328" y2="328"/>
<line x1="524" x2="524" y1="328" y2="376"/>
<line x1="524" x2="580" y1="328" y2="328"/>
<line x1="524" x2="524" y1="376" y2="424"/>
<line x1="524" x2="524" y1="424" y2="472"/>
<line x1="524" x2="524" y1="472" y2="520"/>
<line x1="524" x2="524" y1="520" y2="568"/>
<line x1="524" x2="524" y1="568" y2="616"/>
<line x1="524" x2="524" y1="616" y2="664"/>
<line x1="580" x2="580" y1="296" y2="328"/>
<line marker-end="url(#triangle)" x1="580" x2="676" y1="296" y2="296"/>
<line x1="580" x2="580" y1="328" y2="360"/>
<line marker-end="url(#triangle)" x1="580" x2="676" y1="360" y2="360"/>
</g>
<g>
<line x1="432" x2="524" y1="376" y2="376"/>
</g>
<g>
<line x1="432" x2="524" y1="568" y2="568"/>
</g>
<g>
<line x1="440" x2="524" y1="424" y2="424"/>
</g>
<g>
<line x1="464" x2="524" y1="616" y2="616"/>
</g>
<g>
<line x1="472" x2="524" y1="472" y2="472"/>
</g>
<g>
<line x1="496" x2="524" y1="664" y2="664"/>
</g>
<g>
<line x1="504" x2="524" y1="520" y2="520"/>
</g>
<g>
<line x1="520" x2="580" y1="40" y2="40"/>
<line x1="580" x2="580" y1="8" y2="40"/>
<line marker-end="url(#triangle)" x1="580" x2="652" y1="8" y2="8"/>
<line x1="580" x2="580" y1="40" y2="72"/>
<line marker-end="url(#triangle)" x1="580" x2="652" y1="72" y2="72"/>
</g>
<g>
<line marker-end="url(#triangle)" x1="696" x2="772" y1="8" y2="8"/>
</g>
<g>
<line x1="928" x2="956" y1="8" y2="8"/>
</g>
<g>
<text x="25" y="92">
if
</text>
</g>
<g>
<text x="25" y="300">
if
</text>
</g>
<g>
<text x="81" y="60">
number.sign == Negative
</text>
</g>
<g>
<text x="81" y="124">
number.sign == Positive
</text>
</g>
<g>
<text x="81" y="172">
number == 0.0
</text>
</g>
<g>
<text x="81" y="300">
number.partial == 0
</text>
</g>
<g>
<text x="81" y="348">
len(number.partial) == 1
</text>
</g>
<g>
<text x="81" y="396">
len(number.partial) == 2
</text>
</g>
<g>
<text x="81" y="444">
len(number.partial) == 3
</text>
</g>
<g>
<text x="81" y="492">
len(number.partial) == 4
</text>
</g>
<g>
<text x="81" y="540">
len(number.partial) == 5
</text>
</g>
<g>
<text x="81" y="588">
len(number.partial) == 6
</text>
</g>
<g>
<text x="81" y="636">
len(number.partial) == 7
</text>
</g>
<g>
<text x="81" y="684">
len(number.partial) == 8
</text>
</g>
<g>
<text x="81" y="732">
...
</text>
</g>
<g>
<text x="177" y="44">
negative
</text>
</g>
<g>
<text x="177" y="156">
zero
</text>
</g>
<g>
<text x="329" y="332">
tenths
</text>
</g>
<g>
<text x="329" y="380">
hundredths
</text>
</g>
<g>
<text x="329" y="428">
thousandths
</text>
</g>
<g>
<text x="329" y="476">
ten-thousandths
</text>
</g>
<g>
<text x="329" y="524">
hundred-thousandths
</text>
</g>
<g>
<text x="329" y="572">
millionths
</text>
</g>
<g>
<text x="329" y="620">
ten-millionths
</text>
</g>
<g>
<text x="329" y="668">
hundred-millionths
</text>
</g>
<g>
<text x="329" y="716">
...
</text>
</g>
<g>
<text x="385" y="44">
[write wholes]
</text>
</g>
<g>
<text x="545" y="60">
if
</text>
</g>
<g>
<text x="545" y="348">
if
</text>
</g>
<g>
<text x="593" y="28">
number.partial != 0
</text>
</g>
<g>
<text x="593" y="92">
number.partial == 0
</text>
</g>
<g>
<text x="593" y="316">
number.partial &gt; 1
</text>
</g>
<g>
<text x="593" y="380">
number.partial &lt;= 1
</text>
</g>
<g>
<text x="665" y="12">
and
</text>
</g>
<g>
<text x="689" y="300">
s
</text>
</g>
<g>
<text x="785" y="12">
[write partial]
</text>
</g>
</svg>
