<svg class="bob" font-family="arial" font-size="14" height="160" width="296" xmlns="http://www.w3.org/2000/svg">
<defs>
<marker id="triangle" markerHeight="8" markerWidth="8" orient="auto" refX="4" refY="2" viewBox="0 0 8 4">
<polygon class="fg_fill" points="0,0 0,4 8,2 0,0"/>
</marker>
<marker id="clear_triangle" markerHeight="10" markerWidth="10" orient="auto" refX="1" refY="7" viewBox="0 0 20 14">
<polygon class="bg_fill" points="2,2 2,12 18,7 2,2"/>
</marker>
<marker id="circle" markerHeight="5" markerWidth="5" orient="auto" refX="10" refY="10" viewBox="0 0 20 20">
<circle class="fg_fill" cx="10" cy="10" r="8"/>
</marker>
<marker id="square" markerHeight="5" markerWidth="5" orient="auto" refX="10" refY="10" viewBox="0 0 20 20">
<rect class="fg_fill" height="20" width="20" x="0" y="0"/>
</marker>
<marker id="open_circle" markerHeight="10" markerWidth="10" orient="auto" refX="10" refY="10" viewBox="0 0 20 20">
<circle class="bg_fill" cx="10" cy="10" r="4"/>
</marker>
<marker id="big_open_circle" markerHeight="20" markerWidth="20" orient="auto" refX="20" refY="20" viewBox="0 0 40 40">
<circle class="bg_fill" cx="20" cy="20" r="6"/>
</marker>
</defs>
<style type="text/css">

rect.backdrop {
    fill: white;
}
text{
    fill: black;
}

circle {
    fill: none;
    stroke: black;
    stroke-width: 2;
}

line {
    stroke: black;
    stroke-width: 2;
    stroke-opacity: 1;
    fill-opacity: 1;
    stroke-linecap: round;
    stroke-linejoin: miter;
}

path {
    fill: none;
    stroke: black;
    stroke-width: 2;
    stroke-opacity: 1;
    fill-opacity: 1;
    stroke-linecap: round;
    stroke-linejoin: miter;
}

line.dashed {
    stroke-dasharray: 5;
}

.fg_fill {
    fill: black;
}


.bg_fill {
    fill: white;
    stroke: black;
    stroke-width: 2;
}

tspan.head{
    fill: none;
    stroke: none;
}
    
</style>
<rect class="backdrop" height="160" width="296" x="0" y="0"/>
<g>
<line x1="4" x2="4" y1="16" y2="32"/>
<line x1="4" x2="8" y1="32" y2="32"/>
<line x1="8" x2="4" y1="16" y2="16"/>
</g>
<g>
<line x1="4" x2="4" y1="80" y2="96"/>
</g>
<g>
<line x1="4" x2="36" y1="88" y2="88"/>
<line x1="36" x2="68" y1="88" y2="88"/>
<line x1="68" x2="100" y1="88" y2="88"/>
<line x1="100" x2="132" y1="88" y2="88"/>
<line x1="132" x2="164" y1="88" y2="88"/>
<line x1="164" x2="196" y1="88" y2="88"/>
<line x1="196" x2="228" y1="88" y2="88"/>
<line x1="228" x2="260" y1="88" y2="88"/>
<line x1="260" x2="292" y1="88" y2="88"/>
</g>
<g>
<line x1="36" x2="36" y1="80" y2="96"/>
</g>
<g>
<line x1="48" x2="52" y1="16" y2="16"/>
<line x1="52" x2="52" y1="16" y2="32"/>
<line x1="52" x2="48" y1="32" y2="32"/>
</g>
<g>
<line x1="68" x2="68" y1="80" y2="96"/>
</g>
<g>
<line x1="92" x2="92" y1="16" y2="32"/>
<line x1="92" x2="96" y1="32" y2="32"/>
<line x1="96" x2="92" y1="16" y2="16"/>
</g>
<g>
<line x1="100" x2="100" y1="80" y2="96"/>
</g>
<g>
<line x1="132" x2="132" y1="80" y2="96"/>
</g>
<g>
<line x1="136" x2="140" y1="16" y2="16"/>
<line x1="140" x2="140" y1="16" y2="32"/>
<line x1="140" x2="136" y1="32" y2="32"/>
</g>
<g>
<line marker-end="url(#triangle)" x1="164" x2="164" y1="48" y2="76"/>
</g>
<g>
<line x1="164" x2="164" y1="80" y2="96"/>
</g>
<g>
<line marker-end="url(#triangle)" x1="164" x2="164" y1="128" y2="116"/>
<line x1="164" x2="164" y1="128" y2="144"/>
</g>
<g>
<line x1="196" x2="196" y1="80" y2="96"/>
</g>
<g>
<line x1="228" x2="228" y1="80" y2="96"/>
</g>
<g>
<line x1="260" x2="260" y1="80" y2="96"/>
</g>
<g>
<line x1="292" x2="292" y1="80" y2="96"/>
</g>
<g>
<text x="1" y="12">
5
</text>
</g>
<g>
<text x="1" y="108">
0
</text>
</g>
<g>
<text x="9" y="28">
●●●●●
</text>
</g>
<g>
<text x="33" y="108">
1
</text>
</g>
<g>
<text x="65" y="12">
vs
</text>
</g>
<g>
<text x="65" y="28">
vs
</text>
</g>
<g>
<text x="65" y="108">
2
</text>
</g>
<g>
<text x="89" y="12">
5
</text>
</g>
<g>
<text x="97" y="28">
●●●●●
</text>
</g>
<g>
<text x="97" y="108">
3
</text>
</g>
<g>
<text x="129" y="108">
4
</text>
</g>
<g>
<text x="161" y="44">
5
</text>
</g>
<g>
<text x="161" y="108">
5
</text>
</g>
<g>
<text x="161" y="156">
5
</text>
</g>
<g>
<text x="193" y="108">
6
</text>
</g>
<g>
<text x="225" y="108">
7
</text>
</g>
<g>
<text x="257" y="108">
8
</text>
</g>
<g>
<text x="289" y="108">
9
</text>
</g>
</svg>
