<svg class="bob" font-family="arial" font-size="14" height="192" width="256" xmlns="http://www.w3.org/2000/svg">
<defs>
<marker id="triangle" markerHeight="8" markerWidth="8" orient="auto" refX="4" refY="2" viewBox="0 0 8 4">
<polygon class="fg_fill" points="0,0 0,4 8,2 0,0"/>
</marker>
<marker id="clear_triangle" markerHeight="10" markerWidth="10" orient="auto" refX="1" refY="7" viewBox="0 0 20 14">
<polygon class="bg_fill" points="2,2 2,12 18,7 2,2"/>
</marker>
<marker id="circle" markerHeight="5" markerWidth="5" orient="auto" refX="10" refY="10" viewBox="0 0 20 20">
<circle class="fg_fill" cx="10" cy="10" r="8"/>
</marker>
<marker id="square" markerHeight="5" markerWidth="5" orient="auto" refX="10" refY="10" viewBox="0 0 20 20">
<rect class="fg_fill" height="20" width="20" x="0" y="0"/>
</marker>
<marker id="open_circle" markerHeight="10" markerWidth="10" orient="auto" refX="10" refY="10" viewBox="0 0 20 20">
<circle class="bg_fill" cx="10" cy="10" r="4"/>
</marker>
<marker id="big_open_circle" markerHeight="20" markerWidth="20" orient="auto" refX="20" refY="20" viewBox="0 0 40 40">
<circle class="bg_fill" cx="20" cy="20" r="6"/>
</marker>
</defs>
<style type="text/css">

rect.backdrop {
    fill: white;
}
text{
    fill: black;
}

circle {
    fill: none;
    stroke: black;
    stroke-width: 2;
}

line {
    stroke: black;
    stroke-width: 2;
    stroke-opacity: 1;
    fill-opacity: 1;
    stroke-linecap: round;
    stroke-linejoin: miter;
}

path {
    fill: none;
    stroke: black;
    stroke-width: 2;
    stroke-opacity: 1;
    fill-opacity: 1;
    stroke-linecap: round;
    stroke-linejoin: miter;
}

line.dashed {
    stroke-dasharray: 5;
}

.fg_fill {
    fill: black;
}


.bg_fill {
    fill: white;
    stroke: black;
    stroke-width: 2;
}

tspan.head{
    fill: none;
    stroke: none;
}
    
</style>
<rect class="backdrop" height="192" width="256" x="0" y="0"/>
<g>
<line x1="68" x2="68" y1="8" y2="40"/>
<line x1="68" x2="92" y1="8" y2="8"/>
<line x1="68" x2="76" y1="40" y2="40"/>
<line x1="76" x2="76" y1="40" y2="72"/>
<line x1="76" x2="92" y1="40" y2="40"/>
<line x1="76" x2="92" y1="72" y2="72"/>
<line x1="92" x2="92" y1="8" y2="40"/>
<line x1="92" x2="92" y1="72" y2="104"/>
</g>
<g>
<line x1="68" x2="68" y1="72" y2="104"/>
<line x1="68" x2="76" y1="72" y2="72"/>
<line x1="68" x2="76" y1="104" y2="104"/>
<line marker-end="url(#triangle)" x1="76" x2="76" y1="104" y2="140"/>
<line x1="76" x2="92" y1="104" y2="104"/>
</g>
<g>
<line x1="68" x2="68" y1="152" y2="184"/>
<line x1="68" x2="92" y1="152" y2="152"/>
<line x1="68" x2="92" y1="184" y2="184"/>
<line x1="92" x2="92" y1="152" y2="184"/>
</g>
<g>
<line x1="124" x2="124" y1="72" y2="104"/>
<line x1="124" x2="148" y1="72" y2="72"/>
<line x1="124" x2="148" y1="104" y2="104"/>
<line x1="148" x2="148" y1="72" y2="104"/>
</g>
<g>
<line x1="180" x2="180" y1="72" y2="104"/>
<line x1="180" x2="204" y1="72" y2="72"/>
<line x1="180" x2="204" y1="104" y2="104"/>
<line x1="204" x2="204" y1="72" y2="104"/>
</g>
<g>
<line x1="228" x2="228" y1="8" y2="40"/>
<line x1="228" x2="252" y1="8" y2="8"/>
<line x1="228" x2="252" y1="40" y2="40"/>
<line x1="252" x2="252" y1="8" y2="40"/>
</g>
<g>
<text x="1" y="28">
22
</text>
</g>
<g>
<text x="1" y="92">
8
</text>
</g>
<g>
<text x="1" y="172">
GCD
</text>
</g>
<g>
<text x="25" y="28">
=
</text>
</g>
<g>
<text x="25" y="92">
=
</text>
</g>
<g>
<text x="33" y="172">
=
</text>
</g>
<g>
<text x="73" y="28">
2
</text>
</g>
<g>
<text x="73" y="92">
2
</text>
</g>
<g>
<text x="73" y="172">
2
</text>
</g>
<g>
<text x="129" y="92">
2
</text>
</g>
<g>
<text x="185" y="92">
2
</text>
</g>
<g>
<text x="233" y="28">
11
</text>
</g>
</svg>
