<svg class="bob" font-family="arial" font-size="14" height="64" width="472" xmlns="http://www.w3.org/2000/svg">
<defs>
<marker id="triangle" markerHeight="8" markerWidth="8" orient="auto" refX="4" refY="2" viewBox="0 0 8 4">
<polygon class="fg_fill" points="0,0 0,4 8,2 0,0"/>
</marker>
<marker id="clear_triangle" markerHeight="10" markerWidth="10" orient="auto" refX="1" refY="7" viewBox="0 0 20 14">
<polygon class="bg_fill" points="2,2 2,12 18,7 2,2"/>
</marker>
<marker id="circle" markerHeight="5" markerWidth="5" orient="auto" refX="10" refY="10" viewBox="0 0 20 20">
<circle class="fg_fill" cx="10" cy="10" r="8"/>
</marker>
<marker id="square" markerHeight="5" markerWidth="5" orient="auto" refX="10" refY="10" viewBox="0 0 20 20">
<rect class="fg_fill" height="20" width="20" x="0" y="0"/>
</marker>
<marker id="open_circle" markerHeight="10" markerWidth="10" orient="auto" refX="10" refY="10" viewBox="0 0 20 20">
<circle class="bg_fill" cx="10" cy="10" r="4"/>
</marker>
<marker id="big_open_circle" markerHeight="20" markerWidth="20" orient="auto" refX="20" refY="20" viewBox="0 0 40 40">
<circle class="bg_fill" cx="20" cy="20" r="6"/>
</marker>
</defs>
<style type="text/css">

rect.backdrop {
    fill: white;
}
text{
    fill: black;
}

circle {
    fill: none;
    stroke: black;
    stroke-width: 2;
}

line {
    stroke: black;
    stroke-width: 2;
    stroke-opacity: 1;
    fill-opacity: 1;
    stroke-linecap: round;
    stroke-linejoin: miter;
}

path {
    fill: none;
    stroke: black;
    stroke-width: 2;
    stroke-opacity: 1;
    fill-opacity: 1;
    stroke-linecap: round;
    stroke-linejoin: miter;
}

line.dashed {
    stroke-dasharray: 5;
}

.fg_fill {
    fill: black;
}


.bg_fill {
    fill: white;
    stroke: black;
    stroke-width: 2;
}

tspan.head{
    fill: none;
    stroke: none;
}
    
</style>
<rect class="backdrop" height="64" width="472" x="0" y="0"/>
<g>
<line marker-end="url(#triangle)" x1="8" x2="4" y1="8" y2="8"/>
<line x1="8" x2="80" y1="8" y2="8"/>
</g>
<g>
<line marker-end="url(#triangle)" x1="8" x2="4" y1="40" y2="40"/>
<line x1="8" x2="36" y1="40" y2="40"/>
<line x1="36" x2="76" y1="40" y2="40"/>
<line x1="76" x2="116" y1="40" y2="40"/>
<line x1="116" x2="156" y1="40" y2="40"/>
<line x1="156" x2="196" y1="40" y2="40"/>
<line x1="196" x2="236" y1="40" y2="40"/>
<line x1="236" x2="276" y1="40" y2="40"/>
<line x1="276" x2="316" y1="40" y2="40"/>
<line x1="316" x2="356" y1="40" y2="40"/>
<line x1="356" x2="396" y1="40" y2="40"/>
<line x1="396" x2="436" y1="40" y2="40"/>
<line marker-end="url(#triangle)" x1="436" x2="468" y1="40" y2="40"/>
</g>
<g>
<line x1="36" x2="36" y1="32" y2="48"/>
</g>
<g>
<line x1="76" x2="76" y1="32" y2="48"/>
</g>
<g>
<line x1="116" x2="116" y1="32" y2="48"/>
</g>
<g>
<line x1="156" x2="156" y1="32" y2="48"/>
</g>
<g>
<line x1="196" x2="196" y1="32" y2="48"/>
</g>
<g>
<line x1="236" x2="236" y1="32" y2="48"/>
</g>
<g>
<line x1="276" x2="276" y1="32" y2="48"/>
</g>
<g>
<line x1="316" x2="316" y1="32" y2="48"/>
</g>
<g>
<line x1="356" x2="356" y1="32" y2="48"/>
</g>
<g>
<line x1="396" x2="396" y1="32" y2="48"/>
</g>
<g>
<line x1="436" x2="436" y1="32" y2="48"/>
</g>
<g>
<text x="25" y="60">
5.0
</text>
</g>
<g>
<text x="65" y="60">
5.1
</text>
</g>
<g>
<text x="89" y="12">
further to the left means less than
</text>
</g>
<g>
<text x="105" y="60">
5.2
</text>
</g>
<g>
<text x="145" y="60">
5.3
</text>
</g>
<g>
<text x="185" y="60">
5.4
</text>
</g>
<g>
<text x="225" y="60">
5.5
</text>
</g>
<g>
<text x="265" y="60">
5.6
</text>
</g>
<g>
<text x="305" y="60">
5.7
</text>
</g>
<g>
<text x="345" y="60">
5.8
</text>
</g>
<g>
<text x="385" y="60">
5.9
</text>
</g>
<g>
<text x="425" y="60">
6.0
</text>
</g>
</svg>
