<svg class="bob" font-family="arial" font-size="14" height="112" width="440" xmlns="http://www.w3.org/2000/svg">
<defs>
<marker id="triangle" markerHeight="8" markerWidth="8" orient="auto" refX="4" refY="2" viewBox="0 0 8 4">
<polygon class="fg_fill" points="0,0 0,4 8,2 0,0"/>
</marker>
<marker id="clear_triangle" markerHeight="10" markerWidth="10" orient="auto" refX="1" refY="7" viewBox="0 0 20 14">
<polygon class="bg_fill" points="2,2 2,12 18,7 2,2"/>
</marker>
<marker id="circle" markerHeight="5" markerWidth="5" orient="auto" refX="10" refY="10" viewBox="0 0 20 20">
<circle class="fg_fill" cx="10" cy="10" r="8"/>
</marker>
<marker id="square" markerHeight="5" markerWidth="5" orient="auto" refX="10" refY="10" viewBox="0 0 20 20">
<rect class="fg_fill" height="20" width="20" x="0" y="0"/>
</marker>
<marker id="open_circle" markerHeight="10" markerWidth="10" orient="auto" refX="10" refY="10" viewBox="0 0 20 20">
<circle class="bg_fill" cx="10" cy="10" r="4"/>
</marker>
<marker id="big_open_circle" markerHeight="20" markerWidth="20" orient="auto" refX="20" refY="20" viewBox="0 0 40 40">
<circle class="bg_fill" cx="20" cy="20" r="6"/>
</marker>
</defs>
<style type="text/css">

rect.backdrop {
    fill: white;
}
text{
    fill: black;
}

circle {
    fill: none;
    stroke: black;
    stroke-width: 2;
}

line {
    stroke: black;
    stroke-width: 2;
    stroke-opacity: 1;
    fill-opacity: 1;
    stroke-linecap: round;
    stroke-linejoin: miter;
}

path {
    fill: none;
    stroke: black;
    stroke-width: 2;
    stroke-opacity: 1;
    fill-opacity: 1;
    stroke-linecap: round;
    stroke-linejoin: miter;
}

line.dashed {
    stroke-dasharray: 5;
}

.fg_fill {
    fill: black;
}


.bg_fill {
    fill: white;
    stroke: black;
    stroke-width: 2;
}

tspan.head{
    fill: none;
    stroke: none;
}
    
</style>
<rect class="backdrop" height="112" width="440" x="0" y="0"/>
<g>
<line marker-end="url(#triangle)" x1="8" x2="4" y1="8" y2="8"/>
<line x1="8" x2="28" y1="8" y2="8"/>
<line x1="28" x2="28" y1="8" y2="32"/>
<line x1="28" x2="52" y1="8" y2="8"/>
<line x1="52" x2="52" y1="8" y2="32"/>
<line x1="52" x2="76" y1="8" y2="8"/>
<line x1="76" x2="76" y1="8" y2="32"/>
<line x1="76" x2="100" y1="8" y2="8"/>
<line x1="100" x2="100" y1="8" y2="32"/>
<line x1="100" x2="124" y1="8" y2="8"/>
<line x1="124" x2="124" y1="8" y2="32"/>
<line x1="124" x2="148" y1="8" y2="8"/>
<line x1="148" x2="148" y1="8" y2="32"/>
<line x1="148" x2="172" y1="8" y2="8"/>
<line x1="172" x2="172" y1="8" y2="32"/>
<line x1="172" x2="196" y1="8" y2="8"/>
<line x1="196" x2="196" y1="8" y2="32"/>
<line x1="196" x2="220" y1="8" y2="8"/>
<line x1="220" x2="220" y1="8" y2="32"/>
<line x1="220" x2="244" y1="8" y2="8"/>
<line x1="244" x2="244" y1="8" y2="32"/>
<line x1="244" x2="268" y1="8" y2="8"/>
<line x1="268" x2="268" y1="8" y2="32"/>
<line x1="268" x2="292" y1="8" y2="8"/>
<line x1="292" x2="292" y1="8" y2="32"/>
<line x1="292" x2="316" y1="8" y2="8"/>
<line x1="316" x2="316" y1="8" y2="32"/>
<line x1="316" x2="340" y1="8" y2="8"/>
<line x1="340" x2="340" y1="8" y2="32"/>
<line x1="340" x2="364" y1="8" y2="8"/>
<line x1="364" x2="364" y1="8" y2="32"/>
<line x1="364" x2="388" y1="8" y2="8"/>
<line x1="388" x2="388" y1="8" y2="32"/>
<line x1="388" x2="412" y1="8" y2="8"/>
<line x1="412" x2="412" y1="8" y2="32"/>
<line marker-end="url(#triangle)" x1="412" x2="436" y1="8" y2="8"/>
</g>
<g>
<line x1="292" x2="292" y1="48" y2="88"/>
<line x1="292" x2="388" y1="88" y2="88"/>
<line x1="388" x2="388" y1="64" y2="88"/>
</g>
<g>
<line marker-end="url(#triangle)" x1="388" x2="388" y1="64" y2="52"/>
</g>
<g>
<text x="17" y="44">
-8
</text>
</g>
<g>
<text x="41" y="44">
-7
</text>
</g>
<g>
<text x="65" y="44">
-6
</text>
</g>
<g>
<text x="89" y="44">
-5
</text>
</g>
<g>
<text x="113" y="44">
-4
</text>
</g>
<g>
<text x="137" y="44">
-3
</text>
</g>
<g>
<text x="161" y="44">
-2
</text>
</g>
<g>
<text x="185" y="44">
-1
</text>
</g>
<g>
<text x="217" y="44">
0
</text>
</g>
<g>
<text x="241" y="44">
1
</text>
</g>
<g>
<text x="265" y="44">
2
</text>
</g>
<g>
<text x="289" y="44">
3
</text>
</g>
<g>
<text x="313" y="44">
4
</text>
</g>
<g>
<text x="337" y="44">
5
</text>
</g>
<g>
<text x="337" y="108">
+4
</text>
</g>
<g>
<text x="361" y="44">
6
</text>
</g>
<g>
<text x="385" y="44">
7
</text>
</g>
<g>
<text x="409" y="44">
8
</text>
</g>
</svg>
