<?xml version="1.0" encoding="UTF-8" standalone="no"?><svg xmlns="http://www.w3.org/2000/svg" xmlns:xlink="http://www.w3.org/1999/xlink" contentScriptType="application/ecmascript" contentStyleType="text/css" height="350px" preserveAspectRatio="none" style="width:475px;height:350px;" version="1.1" viewBox="0 0 475 350" width="475px" zoomAndPan="magnify"><defs><filter height="300%" id="fanozy56gd1w1" width="300%" x="-1" y="-1"><feGaussianBlur result="blurOut" stdDeviation="2.0"/><feColorMatrix in="blurOut" result="blurOut2" type="matrix" values="0 0 0 0 0 0 0 0 0 0 0 0 0 0 0 0 0 0 .4 0"/><feOffset dx="4.0" dy="4.0" in="blurOut2" result="blurOut3"/><feBlend in="SourceGraphic" in2="blurOut3" mode="normal"/></filter></defs><g><ellipse cx="219.5" cy="18" fill="#000000" filter="url(#fanozy56gd1w1)" rx="10" ry="10" style="stroke: none; stroke-width: 1.0;"/><rect fill="#FEFECE" filter="url(#fanozy56gd1w1)" height="33.9688" rx="12.5" ry="12.5" style="stroke: #A80036; stroke-width: 1.5;" width="189" x="6" y="89"/><text fill="#000000" font-family="sans-serif" font-size="12" lengthAdjust="spacingAndGlyphs" textLength="169" x="16" y="110.1387">Balance chemical equation</text><rect fill="#000000" filter="url(#fanozy56gd1w1)" height="8" style="stroke: none; stroke-width: 1.0;" width="80" x="179.5" y="184"/><rect fill="#FEFECE" filter="url(#fanozy56gd1w1)" height="75.875" rx="12.5" ry="12.5" style="stroke: #A80036; stroke-width: 1.5;" width="249" x="215" y="68"/><text fill="#000000" font-family="sans-serif" font-size="12" lengthAdjust="spacingAndGlyphs" textLength="203" x="238" y="89.1387">Convert known reactant/product</text><text fill="#000000" font-family="sans-serif" font-size="12" lengthAdjust="spacingAndGlyphs" textLength="229" x="225" y="103.1074">quantities to moles (particle counts)</text><text fill="#000000" font-family="sans-serif" font-size="12" lengthAdjust="spacingAndGlyphs" textLength="0" x="341.5" y="117.0762"/><text fill="#000000" font-family="sans-serif" font-size="12" lengthAdjust="spacingAndGlyphs" textLength="197" x="241" y="131.0449">(e.g. 6g of carbon = 0.5 moles)</text><rect fill="#FEFECE" filter="url(#fanozy56gd1w1)" height="33.9688" rx="12.5" ry="12.5" style="stroke: #A80036; stroke-width: 1.5;" width="338" x="50.5" y="232"/><text fill="#000000" font-family="sans-serif" font-size="12" lengthAdjust="spacingAndGlyphs" textLength="318" x="60.5" y="253.1387">Determine moles for remaining reactants/products</text><rect fill="#FEFECE" filter="url(#fanozy56gd1w1)" height="33.9688" rx="12.5" ry="12.5" style="stroke: #A80036; stroke-width: 1.5;" width="322" x="58.5" y="306"/><text fill="#000000" font-family="sans-serif" font-size="12" lengthAdjust="spacingAndGlyphs" textLength="302" x="68.5" y="327.1387">Convert counts (moles) back to original quantity</text><!--link start to Balance chemical equation--><path d="M211.3206,24.0486 C194.3736,36.5808 154.7591,65.8756 127.7871,85.8213 " fill="none" id="start-Balance chemical equation" style="stroke: #A80036; stroke-width: 1.0;"/><polygon fill="#A80036" points="123.5723,88.9382,133.1869,86.8029,127.5924,85.9652,128.4301,80.3707,123.5723,88.9382" style="stroke: #A80036; stroke-width: 1.0;"/><!--link Balance chemical equation to SOLVE--><path d="M125.4463,123.1899 C151.3319,141.027 190.5701,168.0651 209.1057,180.8375 " fill="none" id="Balance chemical equation-SOLVE" style="stroke: #A80036; stroke-width: 1.0;"/><polygon fill="#A80036" points="213.3513,183.7631,208.21,175.3627,209.2341,180.9261,203.6707,181.9502,213.3513,183.7631" style="stroke: #A80036; stroke-width: 1.0;"/><!--link start to Convert known reactant/product\nquantities to moles (particle counts)\n\n(e.g. 6g of carbon = 0.5 moles)--><path d="M227.7481,24.0486 C239.3644,32.5672 261.5422,48.8309 283.0983,64.6388 " fill="none" id="start-Convert known reactant/product\nquantities to moles (particle counts)\n\n(e.g. 6g of carbon = 0.5 moles)" style="stroke: #A80036; stroke-width: 1.0;"/><polygon fill="#A80036" points="287.398,67.7918,282.5059,59.2439,283.366,64.8349,277.7749,65.6951,287.398,67.7918" style="stroke: #A80036; stroke-width: 1.0;"/><!--link Convert known reactant/product\nquantities to moles (particle counts)\n\n(e.g. 6g of carbon = 0.5 moles) to SOLVE--><path d="M283.7157,144.1193 C263.1831,158.1499 241.9889,172.6326 229.8148,180.9515 " fill="none" id="Convert known reactant/product\nquantities to moles (particle counts)\n\n(e.g. 6g of carbon = 0.5 moles)-SOLVE" style="stroke: #A80036; stroke-width: 1.0;"/><polygon fill="#A80036" points="225.4662,183.9231,235.1538,182.148,229.5944,181.1021,230.6402,175.5428,225.4662,183.9231" style="stroke: #A80036; stroke-width: 1.0;"/><!--link SOLVE to Determine moles for remaining reactants/products--><path d="M219.5,192.0024 C219.5,198.9601 219.5,213.7656 219.5,226.543 " fill="none" id="SOLVE-Determine moles for remaining reactants/products" style="stroke: #A80036; stroke-width: 1.0;"/><polygon fill="#A80036" points="219.5,231.8661,223.5,222.8661,219.5,226.8661,215.5,222.8661,219.5,231.8661" style="stroke: #A80036; stroke-width: 1.0;"/><!--link Determine moles for remaining reactants/products to Convert counts (moles) back to original quantity--><path d="M219.5,266.1631 C219.5,276.4368 219.5,289.6075 219.5,300.6831 " fill="none" id="Determine moles for remaining reactants/products-Convert counts (moles) back to original quantity" style="stroke: #A80036; stroke-width: 1.0;"/><polygon fill="#A80036" points="219.5,305.93,223.5,296.93,219.5,300.93,215.5,296.93,219.5,305.93" style="stroke: #A80036; stroke-width: 1.0;"/><!--
@startuml
(*) - -> "Balance chemical equation"
- -> ===SOLVE===
(*) - -> "Convert known reactant/product\nquantities to moles (particle counts)\n\n(e.g. 6g of carbon = 0.5 moles)"
- -> ===SOLVE===
- -> "Determine moles for remaining reactants/products"
- -> "Convert counts (moles) back to original quantity"
@enduml

PlantUML version 1.2019.08(Sat Jul 13 19:25:14 GMT 2019)
(GPL source distribution)
Java Runtime: OpenJDK Runtime Environment
JVM: OpenJDK 64-Bit Server VM
Java Version: 11.0.4+4-alpine-r1
Operating System: Linux
OS Version: 5.3.0-24-generic
Default Encoding: UTF-8
Language: en
Country: US
--></g></svg>