<?xml version="1.0" encoding="UTF-8" standalone="no"?><svg xmlns="http://www.w3.org/2000/svg" xmlns:xlink="http://www.w3.org/1999/xlink" contentScriptType="application/ecmascript" contentStyleType="text/css" height="824px" preserveAspectRatio="none" style="width:427px;height:824px;" version="1.1" viewBox="0 0 427 824" width="427px" zoomAndPan="magnify"><defs><filter height="300%" id="fsm9g3qsm6pi6" width="300%" x="-1" y="-1"><feGaussianBlur result="blurOut" stdDeviation="2.0"/><feColorMatrix in="blurOut" result="blurOut2" type="matrix" values="0 0 0 0 0 0 0 0 0 0 0 0 0 0 0 0 0 0 .4 0"/><feOffset dx="4.0" dy="4.0" in="blurOut2" result="blurOut3"/><feBlend in="SourceGraphic" in2="blurOut3" mode="normal"/></filter></defs><g><ellipse cx="165" cy="18" fill="#000000" filter="url(#fsm9g3qsm6pi6)" rx="10" ry="10" style="stroke: none; stroke-width: 1.0;"/><rect fill="#00FF00" filter="url(#fsm9g3qsm6pi6)" height="75.875" rx="12.5" ry="12.5" style="stroke: #A80036; stroke-width: 1.5;" width="195" x="67.5" y="69"/><text fill="#000000" font-family="sans-serif" font-size="12" lengthAdjust="spacingAndGlyphs" textLength="175" x="77.5" y="90.1387">Determine cation and anion</text><text fill="#000000" font-family="sans-serif" font-size="12" lengthAdjust="spacingAndGlyphs" textLength="0" x="167" y="104.1074"/><text fill="#000000" font-family="sans-serif" font-size="12" lengthAdjust="spacingAndGlyphs" textLength="147" x="91.5" y="118.0762">Cation=Na, charge=1+</text><text fill="#000000" font-family="sans-serif" font-size="12" lengthAdjust="spacingAndGlyphs" textLength="130" x="100" y="132.0449">Anion=Cl, charge=1-</text><polygon fill="#FEFECE" filter="url(#fsm9g3qsm6pi6)" points="165,205,177,217,165,229,153,217,165,205" style="stroke: #A80036; stroke-width: 1.5;"/><rect fill="#FEFECE" filter="url(#fsm9g3qsm6pi6)" height="33.9688" rx="12.5" ry="12.5" style="stroke: #A80036; stroke-width: 1.5;" width="91" x="119.5" y="268"/><text fill="#000000" font-family="sans-serif" font-size="12" lengthAdjust="spacingAndGlyphs" textLength="71" x="129.5" y="289.1387">Write name​</text><rect fill="#000000" filter="url(#fsm9g3qsm6pi6)" height="8" style="stroke: none; stroke-width: 1.0;" width="80" x="223" y="563"/><rect fill="#00FF00" filter="url(#fsm9g3qsm6pi6)" height="61.9063" rx="12.5" ry="12.5" style="stroke: #A80036; stroke-width: 1.5;" width="91" x="231.5" y="186"/><text fill="#000000" font-family="sans-serif" font-size="12" lengthAdjust="spacingAndGlyphs" textLength="71" x="241.5" y="207.1387">Write name</text><text fill="#000000" font-family="sans-serif" font-size="12" lengthAdjust="spacingAndGlyphs" textLength="0" x="279" y="221.1074"/><text fill="#000000" font-family="sans-serif" font-size="12" lengthAdjust="spacingAndGlyphs" textLength="46" x="254" y="235.0762">Sodium</text><polygon fill="#FEFECE" filter="url(#fsm9g3qsm6pi6)" points="277,322,289,334,277,346,265,334,277,322" style="stroke: #A80036; stroke-width: 1.5;"/><rect fill="#FEFECE" filter="url(#fsm9g3qsm6pi6)" height="33.9688" rx="12.5" ry="12.5" style="stroke: #A80036; stroke-width: 1.5;" width="133" x="196.5" y="400"/><text fill="#000000" font-family="sans-serif" font-size="12" lengthAdjust="spacingAndGlyphs" textLength="113" x="206.5" y="421.1387">Determine charge</text><rect fill="#FEFECE" filter="url(#fsm9g3qsm6pi6)" height="33.9688" rx="12.5" ry="12.5" style="stroke: #A80036; stroke-width: 1.5;" width="100" x="213" y="488"/><text fill="#000000" font-family="sans-serif" font-size="12" lengthAdjust="spacingAndGlyphs" textLength="80" x="223" y="509.1387">Write charge</text><polygon fill="#FEFECE" filter="url(#fsm9g3qsm6pi6)" points="263,612,275,624,263,636,251,624,263,612" style="stroke: #A80036; stroke-width: 1.5;"/><rect fill="#00FF00" filter="url(#fsm9g3qsm6pi6)" height="61.9063" rx="12.5" ry="12.5" style="stroke: #A80036; stroke-width: 1.5;" width="300" x="6" y="690"/><text fill="#000000" font-family="sans-serif" font-size="12" lengthAdjust="spacingAndGlyphs" textLength="280" x="16" y="711.1387">Write name but replace last syllable with -ide</text><text fill="#000000" font-family="sans-serif" font-size="12" lengthAdjust="spacingAndGlyphs" textLength="0" x="158" y="725.1074"/><text fill="#000000" font-family="sans-serif" font-size="12" lengthAdjust="spacingAndGlyphs" textLength="101" x="105.5" y="739.0762">Sodium Chloride</text><ellipse cx="263" cy="803" fill="none" filter="url(#fsm9g3qsm6pi6)" rx="10" ry="10" style="stroke: #000000; stroke-width: 1.0;"/><ellipse cx="263.5" cy="803.5" fill="#000000" rx="6" ry="6" style="stroke: none; stroke-width: 1.0;"/><rect fill="#FEFECE" filter="url(#fsm9g3qsm6pi6)" height="33.9688" rx="12.5" ry="12.5" style="stroke: #A80036; stroke-width: 1.5;" width="91" x="325.5" y="704"/><text fill="#000000" font-family="sans-serif" font-size="12" lengthAdjust="spacingAndGlyphs" textLength="71" x="335.5" y="725.1387">Write name​​​</text><!--link start to Determine cation and anion\n\nCation=Na, charge=1+\nAnion=Cl, charge=1- --><path d="M165,28.2094 C165,36.9967 165,50.3102 165,63.5057 " fill="none" id="start-Determine cation and anion\n\nCation=Na, charge=1+\nAnion=Cl, charge=1-" style="stroke: #007F00; stroke-width: 1.0;"/><polygon fill="#007F00" points="165,68.7435,169,59.7435,165,63.7435,161,59.7435,165,68.7435" style="stroke: #007F00; stroke-width: 1.0;"/><!--link Determine cation and anion\n\nCation=Na, charge=1+\nAnion=Cl, charge=1- to #5--><path d="M165,145.164 C165,163.733 165,185.1356 165,199.7162 " fill="none" id="Determine cation and anion\n\nCation=Na, charge=1+\nAnion=Cl, charge=1--#5" style="stroke: #007F00; stroke-width: 1.0;"/><polygon fill="#007F00" points="165,204.7615,169,195.7615,165,199.7615,161,195.7615,165,204.7615" style="stroke: #007F00; stroke-width: 1.0;"/><text fill="#007F00" font-family="sans-serif" font-size="11" lengthAdjust="spacingAndGlyphs" textLength="68" x="79.45" y="194.2768">cation type?</text><!--link #5 to Write name&#8203;--><path d="M165,229.157 C165,238.415 165,251.4198 165,262.5504 " fill="none" id="#5-Write name&amp;#8203;" style="stroke: #A80036; stroke-width: 1.0;"/><polygon fill="#A80036" points="165,267.8394,169,258.8394,165,262.8394,161,258.8394,165,267.8394" style="stroke: #A80036; stroke-width: 1.0;"/><text fill="#000000" font-family="sans-serif" font-size="11" lengthAdjust="spacingAndGlyphs" textLength="51" x="113" y="245.6443">molecule</text><!--link Write name&#8203; to CAT_WRITE--><path d="M165,302.1995 C165,319.9382 165,348.4028 165,373 C165,373 165,373 165,505 C165,538.3058 205.9235,554.4569 234.8802,561.7163 " fill="none" id="Write name&amp;#8203;-CAT_WRITE" style="stroke: #A80036; stroke-width: 1.0;"/><polygon fill="#A80036" points="239.7754,562.8886,231.9544,556.9026,234.9129,561.7242,230.0913,564.6827,239.7754,562.8886" style="stroke: #A80036; stroke-width: 1.0;"/><!--link #5 to Write name\n\nSodium--><path d="M177.4139,217 C189.3356,217 208.1543,217 226.2381,217 " fill="none" id="#5-Write name\n\nSodium" style="stroke: #007F00; stroke-width: 1.0;"/><polygon fill="#007F00" points="231.3128,217,222.3128,213,226.3128,217,222.3128,221,231.3128,217" style="stroke: #007F00; stroke-width: 1.0;"/><text fill="#007F00" font-family="sans-serif" font-size="11" lengthAdjust="spacingAndGlyphs" textLength="29" x="191.75" y="211.2104">atom</text><!--link Write name\n\nSodium to #14--><path d="M277,248.0467 C277,270.0107 277,298.6522 277,316.6892 " fill="none" id="Write name\n\nSodium-#14" style="stroke: #007F00; stroke-width: 1.0;"/><polygon fill="#007F00" points="277,321.9273,281,312.9273,277,316.9273,273,312.9273,277,321.9273" style="stroke: #007F00; stroke-width: 1.0;"/><text fill="#007F00" font-family="sans-serif" font-size="11" lengthAdjust="spacingAndGlyphs" textLength="63" x="206.5471" y="298.466">predictable</text><text fill="#007F00" font-family="sans-serif" font-size="11" lengthAdjust="spacingAndGlyphs" textLength="45" x="215.5471" y="311.2707">charge?</text><!--link #14 to CAT_WRITE--><path d="M284.2847,338.7189 C298.2843,348.2802 328.5708,371.4738 340,400 C345.6201,414.0271 341.4396,418.9576 340,434 C336.205,473.653 344.1278,488.2304 323,522 C311.8056,539.8926 290.7324,553.168 276.7785,560.4998 " fill="none" id="#14-CAT_WRITE" style="stroke: #007F00; stroke-width: 1.0;"/><polygon fill="#007F00" points="271.9912,562.9296,281.827,562.4232,276.4498,560.6667,278.2063,555.2894,271.9912,562.9296" style="stroke: #007F00; stroke-width: 1.0;"/><text fill="#007F00" font-family="sans-serif" font-size="11" lengthAdjust="spacingAndGlyphs" textLength="48" x="339" y="465.2104">yes (1+)</text><!--link #14 to Determine charge--><path d="M275.2269,344.512 C273.1115,357.0531 269.5166,378.3661 266.7707,394.6454 " fill="none" id="#14-Determine charge" style="stroke: #A80036; stroke-width: 1.0;"/><polygon fill="#A80036" points="265.8754,399.9532,271.3167,391.7439,266.7071,395.0229,263.4282,390.4132,265.8754,399.9532" style="stroke: #A80036; stroke-width: 1.0;"/><text fill="#000000" font-family="sans-serif" font-size="11" lengthAdjust="spacingAndGlyphs" textLength="14" x="272" y="377.2104">no</text><!--link Determine charge to Write charge--><path d="M263,434.386 C263,448.2154 263,467.6635 263,482.6491 " fill="none" id="Determine charge-Write charge" style="stroke: #A80036; stroke-width: 1.0;"/><polygon fill="#A80036" points="263,487.9496,267,478.9496,263,482.9496,259,478.9496,263,487.9496" style="stroke: #A80036; stroke-width: 1.0;"/><!--link Write charge to CAT_WRITE--><path d="M263,522.2705 C263,533.6646 263,548.1598 263,557.5087 " fill="none" id="Write charge-CAT_WRITE" style="stroke: #A80036; stroke-width: 1.0;"/><polygon fill="#A80036" points="263,562.5908,267,553.5908,263,557.5908,259,553.5908,263,562.5908" style="stroke: #A80036; stroke-width: 1.0;"/><!--link CAT_WRITE to #23--><path d="M263,571.0993 C263,578.4254 263,594.1603 263,606.5751 " fill="none" id="CAT_WRITE-#23" style="stroke: #007F00; stroke-width: 1.0;"/><polygon fill="#007F00" points="263,611.6582,267,602.6582,263,606.6582,259,602.6582,263,611.6582" style="stroke: #007F00; stroke-width: 1.0;"/><text fill="#007F00" font-family="sans-serif" font-size="11" lengthAdjust="spacingAndGlyphs" textLength="65" x="182.9688" y="601.5717">anion type?</text><!--link #23 to Write name but replace last syllable with -ide\n\nSodium Chloride--><path d="M256.6271,629.7773 C244.506,640.7656 217.279,665.4481 194.1996,686.3705 " fill="none" id="#23-Write name but replace last syllable with -ide\n\nSodium Chloride" style="stroke: #007F00; stroke-width: 1.0;"/><polygon fill="#007F00" points="190.2394,689.9605,199.5939,686.8794,193.9438,686.6024,194.2209,680.9523,190.2394,689.9605" style="stroke: #007F00; stroke-width: 1.0;"/><text fill="#007F00" font-family="sans-serif" font-size="11" lengthAdjust="spacingAndGlyphs" textLength="29" x="227" y="667.2104">atom</text><!--link Write name but replace last syllable with -ide\n\nSodium Chloride to end--><path d="M196.4521,752.0007 C215.8061,766.8327 237.5862,783.524 250.7971,793.6483 " fill="none" id="Write name but replace last syllable with -ide\n\nSodium Chloride-end" style="stroke: #007F00; stroke-width: 1.0;"/><polygon fill="#007F00" points="254.933,796.8178,250.2225,788.1684,250.9644,793.7764,245.3564,794.5182,254.933,796.8178" style="stroke: #007F00; stroke-width: 1.0;"/><!--link #23 to Write name&#8203;&#8203;&#8203;--><path d="M269.4325,629.7773 C284.5192,643.3274 322.7915,677.7016 347.8079,700.17 " fill="none" id="#23-Write name&amp;#8203;&amp;#8203;&amp;#8203;" style="stroke: #A80036; stroke-width: 1.0;"/><polygon fill="#A80036" points="351.7034,703.6688,347.6803,694.6791,347.9835,700.3278,342.3347,700.631,351.7034,703.6688" style="stroke: #A80036; stroke-width: 1.0;"/><text fill="#000000" font-family="sans-serif" font-size="11" lengthAdjust="spacingAndGlyphs" textLength="51" x="314" y="667.2104">molecule</text><!--link Write name&#8203;&#8203;&#8203; to end--><path d="M348.3597,738.1899 C326.2354,754.9879 293.3634,779.9463 275.5585,793.4649 " fill="none" id="Write name&amp;#8203;&amp;#8203;&amp;#8203;-end" style="stroke: #A80036; stroke-width: 1.0;"/><polygon fill="#A80036" points="271.3721,796.6434,280.959,794.3868,275.3543,793.6199,276.1213,788.0152,271.3721,796.6434" style="stroke: #A80036; stroke-width: 1.0;"/><!--
@startuml
(*) -[#007F00]-> "Determine cation and anion\n\nCation=Na, charge=1+\nAnion=Cl, charge=1-" #00FF00

-[#007F00]-> if "<color:#007F00> cation type?" then
    -> [molecule] "Write name&#8203;"
    - -> ===CAT_WRITE===
else
    -[#007F00]> [<color:#007F00> atom] "Write name\n\nSodium" #00FF00
    -[#007F00]-> if "<color:#007F00>predictable\n<color:#007F00>charge?" then
        -[#007F00]-> [<color:#007F00>yes (1+)] ===CAT_WRITE===
    else
        - -> [no] "Determine charge"
        - -> "Write charge"
        - -> ===CAT_WRITE===
    endif
endif

-[#007F00]-> if "<color:#007F00>anion type?" then
    -[#007F00]-> [<color:#007F00>atom] "Write name but replace last syllable with -ide\n\nSodium Chloride" #00FF00
    -[#007F00]-> (*)
else
    - -> [molecule] "Write name&#8203;&#8203;&#8203;"
    - -> (*)
endif

@enduml

PlantUML version 1.2019.08(Sat Jul 13 19:25:14 GMT 2019)
(GPL source distribution)
Java Runtime: OpenJDK Runtime Environment
JVM: OpenJDK 64-Bit Server VM
Java Version: 11.0.4+4-alpine-r1
Operating System: Linux
OS Version: 5.3.0-23-generic
Default Encoding: UTF-8
Language: en
Country: US
--></g></svg>