<?xml version="1.0" encoding="UTF-8" standalone="no"?><svg xmlns="http://www.w3.org/2000/svg" xmlns:xlink="http://www.w3.org/1999/xlink" contentScriptType="application/ecmascript" contentStyleType="text/css" height="1186px" preserveAspectRatio="none" style="width:247px;height:1186px;" version="1.1" viewBox="0 0 247 1186" width="247px" zoomAndPan="magnify"><defs><filter height="300%" id="fq04fqyaiyp5" width="300%" x="-1" y="-1"><feGaussianBlur result="blurOut" stdDeviation="2.0"/><feColorMatrix in="blurOut" result="blurOut2" type="matrix" values="0 0 0 0 0 0 0 0 0 0 0 0 0 0 0 0 0 0 .4 0"/><feOffset dx="4.0" dy="4.0" in="blurOut2" result="blurOut3"/><feBlend in="SourceGraphic" in2="blurOut3" mode="normal"/></filter></defs><g><ellipse cx="124" cy="18" fill="#000000" filter="url(#fq04fqyaiyp5)" rx="10" ry="10" style="stroke: none; stroke-width: 1.0;"/><rect fill="#00FF00" filter="url(#fq04fqyaiyp5)" height="78.875" rx="12.5" ry="12.5" style="stroke: #A80036; stroke-width: 1.5;" width="195" x="26.5" y="69"/><text fill="#000000" font-family="sans-serif" font-size="12" lengthAdjust="spacingAndGlyphs" textLength="175" x="36.5" y="90.1387">Determine cation and anion</text><text fill="#000000" font-family="sans-serif" font-size="12" lengthAdjust="spacingAndGlyphs" textLength="0" x="126" y="104.1074"/><text fill="#000000" font-family="sans-serif" font-size="12" lengthAdjust="spacingAndGlyphs" textLength="147" x="50.5" y="118.0762">Cation=Na, charge=1+</text><text fill="#000000" font-family="sans-serif" font-size="12" lengthAdjust="spacingAndGlyphs" textLength="62" x="53" y="132.0449">Anion=CO</text><text fill="#000000" font-family="sans-serif" font-size="9" lengthAdjust="spacingAndGlyphs" textLength="6" x="115" y="135.7524">3</text><text fill="#000000" font-family="sans-serif" font-size="12" lengthAdjust="spacingAndGlyphs" textLength="74" x="121" y="132.0449">, charge=2-</text><rect fill="#00FF00" filter="url(#fq04fqyaiyp5)" height="61.9063" rx="12.5" ry="12.5" style="stroke: #A80036; stroke-width: 1.5;" width="125" x="61.5" y="189"/><text fill="#000000" font-family="sans-serif" font-size="12" lengthAdjust="spacingAndGlyphs" textLength="105" x="71.5" y="210.1387">Determine ratios</text><text fill="#000000" font-family="sans-serif" font-size="12" lengthAdjust="spacingAndGlyphs" textLength="0" x="126" y="224.1074"/><text fill="#000000" font-family="sans-serif" font-size="12" lengthAdjust="spacingAndGlyphs" textLength="20" x="114" y="238.0762">2:1</text><polygon fill="#FEFECE" filter="url(#fq04fqyaiyp5)" points="124,292,136,304,124,316,112,304,124,292" style="stroke: #A80036; stroke-width: 1.5;"/><rect fill="#FEFECE" filter="url(#fq04fqyaiyp5)" height="47.9375" rx="12.5" ry="12.5" style="stroke: #A80036; stroke-width: 1.5;" width="110" x="7" y="377"/><text fill="#000000" font-family="sans-serif" font-size="12" lengthAdjust="spacingAndGlyphs" textLength="83" x="20.5" y="398.1387">Write formula</text><text fill="#000000" font-family="sans-serif" font-size="12" lengthAdjust="spacingAndGlyphs" textLength="90" x="17" y="412.1074">in parenthesis</text><rect fill="#000000" filter="url(#fq04fqyaiyp5)" height="8" style="stroke: none; stroke-width: 1.0;" width="80" x="84" y="473"/><rect fill="#00FF00" filter="url(#fq04fqyaiyp5)" height="61.9063" rx="12.5" ry="12.5" style="stroke: #A80036; stroke-width: 1.5;" width="99" x="137.5" y="370"/><text fill="#000000" font-family="sans-serif" font-size="12" lengthAdjust="spacingAndGlyphs" textLength="79" x="147.5" y="391.1387">Write symbol</text><text fill="#000000" font-family="sans-serif" font-size="12" lengthAdjust="spacingAndGlyphs" textLength="0" x="189" y="405.1074"/><text fill="#000000" font-family="sans-serif" font-size="12" lengthAdjust="spacingAndGlyphs" textLength="17" x="178.5" y="419.0762">Na</text><polygon fill="#FEFECE" filter="url(#fq04fqyaiyp5)" points="124,522,136,534,124,546,112,534,124,522" style="stroke: #A80036; stroke-width: 1.5;"/><rect fill="#00FF00" filter="url(#fq04fqyaiyp5)" height="64.9063" rx="12.5" ry="12.5" style="stroke: #A80036; stroke-width: 1.5;" width="85" x="39.5" y="600"/><text fill="#000000" font-family="sans-serif" font-size="12" lengthAdjust="spacingAndGlyphs" textLength="65" x="49.5" y="621.1387">Write ratio</text><text fill="#000000" font-family="sans-serif" font-size="12" lengthAdjust="spacingAndGlyphs" textLength="0" x="84" y="635.1074"/><text fill="#000000" font-family="sans-serif" font-size="12" lengthAdjust="spacingAndGlyphs" textLength="17" x="70.5" y="649.0762">Na</text><text fill="#000000" font-family="sans-serif" font-size="9" lengthAdjust="spacingAndGlyphs" textLength="6" x="87.5" y="652.7837">2</text><rect fill="#000000" filter="url(#fq04fqyaiyp5)" height="8" style="stroke: none; stroke-width: 1.0;" width="80" x="83" y="706"/><polygon fill="#FEFECE" filter="url(#fq04fqyaiyp5)" points="123,755,135,767,123,779,111,767,123,755" style="stroke: #A80036; stroke-width: 1.5;"/><rect fill="#00FF00" filter="url(#fq04fqyaiyp5)" height="78.875" rx="12.5" ry="12.5" style="stroke: #A80036; stroke-width: 1.5;" width="110" x="6" y="833"/><text fill="#000000" font-family="sans-serif" font-size="12" lengthAdjust="spacingAndGlyphs" textLength="83" x="19.5" y="854.1387">Write formula</text><text fill="#000000" font-family="sans-serif" font-size="12" lengthAdjust="spacingAndGlyphs" textLength="90" x="16" y="868.1074">in parenthesis​</text><text fill="#000000" font-family="sans-serif" font-size="12" lengthAdjust="spacingAndGlyphs" textLength="0" x="63" y="882.0762"/><text fill="#000000" font-family="sans-serif" font-size="12" lengthAdjust="spacingAndGlyphs" textLength="17" x="33" y="896.0449">Na</text><text fill="#000000" font-family="sans-serif" font-size="9" lengthAdjust="spacingAndGlyphs" textLength="6" x="50" y="899.7524">2</text><text fill="#000000" font-family="sans-serif" font-size="12" lengthAdjust="spacingAndGlyphs" textLength="22" x="56" y="896.0449">(CO</text><text fill="#000000" font-family="sans-serif" font-size="9" lengthAdjust="spacingAndGlyphs" textLength="6" x="78" y="899.7524">3</text><text fill="#000000" font-family="sans-serif" font-size="12" lengthAdjust="spacingAndGlyphs" textLength="5" x="84" y="896.0449">)</text><rect fill="#000000" filter="url(#fq04fqyaiyp5)" height="8" style="stroke: none; stroke-width: 1.0;" width="80" x="83" y="953"/><rect fill="#FEFECE" filter="url(#fq04fqyaiyp5)" height="33.9688" rx="12.5" ry="12.5" style="stroke: #A80036; stroke-width: 1.5;" width="99" x="136.5" y="855.5"/><text fill="#000000" font-family="sans-serif" font-size="12" lengthAdjust="spacingAndGlyphs" textLength="79" x="146.5" y="876.6387">Write symbol​</text><polygon fill="#FEFECE" filter="url(#fq04fqyaiyp5)" points="123,1002,135,1014,123,1026,111,1014,123,1002" style="stroke: #A80036; stroke-width: 1.5;"/><rect fill="#FEFECE" filter="url(#fq04fqyaiyp5)" height="33.9688" rx="12.5" ry="12.5" style="stroke: #A80036; stroke-width: 1.5;" width="85" x="38.5" y="1080"/><text fill="#000000" font-family="sans-serif" font-size="12" lengthAdjust="spacingAndGlyphs" textLength="65" x="48.5" y="1101.1387">Write ratio​</text><ellipse cx="122" cy="1165" fill="none" filter="url(#fq04fqyaiyp5)" rx="10" ry="10" style="stroke: #000000; stroke-width: 1.0;"/><ellipse cx="122.5" cy="1165.5" fill="#000000" rx="6" ry="6" style="stroke: none; stroke-width: 1.0;"/><!--link start to Determine cation and anion\n\nCation=Na, charge=1+\nAnion=CO<sub>3</sub>, charge=2- --><path d="M124,28.0309 C124,36.8065 124,50.2072 124,63.5706 " fill="none" id="start-Determine cation and anion\n\nCation=Na, charge=1+\nAnion=CO&lt;sub&gt;3&lt;/sub&gt;, charge=2-" style="stroke: #007F00; stroke-width: 1.0;"/><polygon fill="#007F00" points="124,68.8794,128,59.8794,124,63.8794,120,59.8794,124,68.8794" style="stroke: #007F00; stroke-width: 1.0;"/><!--link Determine cation and anion\n\nCation=Na, charge=1+\nAnion=CO<sub>3</sub>, charge=2- to Determine ratios\n\n2:1--><path d="M124,148.1247 C124,159.7408 124,172.3789 124,183.772 " fill="none" id="Determine cation and anion\n\nCation=Na, charge=1+\nAnion=CO&lt;sub&gt;3&lt;/sub&gt;, charge=2--Determine ratios\n\n2:1" style="stroke: #007F00; stroke-width: 1.0;"/><polygon fill="#007F00" points="124,188.9109,128,179.9109,124,183.9109,120,179.9109,124,188.9109" style="stroke: #007F00; stroke-width: 1.0;"/><!--link Determine ratios\n\n2:1 to #7--><path d="M124,251.2785 C124,263.3538 124,276.6963 124,286.9375 " fill="none" id="Determine ratios\n\n2:1-#7" style="stroke: #007F00; stroke-width: 1.0;"/><polygon fill="#007F00" points="124,291.9872,128,282.9872,124,286.9872,120,282.9872,124,291.9872" style="stroke: #007F00; stroke-width: 1.0;"/><text fill="#007F00" font-family="sans-serif" font-size="11" lengthAdjust="spacingAndGlyphs" textLength="68" x="39.425" y="281.6126">cation type?</text><!--link #7 to Write formula\nin parenthesis--><path d="M117.7788,310.542 C112.0092,316.7926 103.3784,326.6245 97,336 C89.2354,347.4132 81.8091,360.728 75.8108,372.3243 " fill="none" id="#7-Write formula\nin parenthesis" style="stroke: #A80036; stroke-width: 1.0;"/><polygon fill="#A80036" points="73.5001,376.843,81.1591,370.651,75.7765,372.3913,74.0363,367.0087,73.5001,376.843" style="stroke: #A80036; stroke-width: 1.0;"/><text fill="#000000" font-family="sans-serif" font-size="11" lengthAdjust="spacingAndGlyphs" textLength="51" x="98" y="347.2104">molecule</text><!--link Write formula\nin parenthesis to CAT_WRITE--><path d="M81.6172,425.0469 C93.9099,440.1153 108.9756,458.583 117.4309,468.9476 " fill="none" id="Write formula\nin parenthesis-CAT_WRITE" style="stroke: #A80036; stroke-width: 1.0;"/><polygon fill="#A80036" points="120.6226,472.8599,118.033,463.3576,117.462,468.9856,111.834,468.4146,120.6226,472.8599" style="stroke: #A80036; stroke-width: 1.0;"/><!--link #7 to Write symbol\n\nNa--><path d="M130.1958,310.5593 C135.9475,316.8222 144.5662,326.6625 151,336 C157.3471,345.2117 163.525,355.6412 168.9201,365.4064 " fill="none" id="#7-Write symbol\n\nNa" style="stroke: #007F00; stroke-width: 1.0;"/><polygon fill="#007F00" points="171.3416,369.8396,170.5374,360.0236,168.9446,365.4516,163.5166,363.8588,171.3416,369.8396" style="stroke: #007F00; stroke-width: 1.0;"/><text fill="#007F00" font-family="sans-serif" font-size="11" lengthAdjust="spacingAndGlyphs" textLength="29" x="160" y="347.2104">atom</text><!--link Write symbol\n\nNa to CAT_WRITE--><path d="M161.0118,432.3509 C150.0299,445.5989 138.1255,459.9597 130.8639,468.7197 " fill="none" id="Write symbol\n\nNa-CAT_WRITE" style="stroke: #007F00; stroke-width: 1.0;"/><polygon fill="#007F00" points="127.3427,472.9676,136.166,468.5916,130.5337,469.1183,130.0071,463.486,127.3427,472.9676" style="stroke: #007F00; stroke-width: 1.0;"/><!--link CAT_WRITE to #17--><path d="M124,481.0993 C124,488.4254 124,504.1603 124,516.5751 " fill="none" id="CAT_WRITE-#17" style="stroke: #007F00; stroke-width: 1.0;"/><polygon fill="#007F00" points="124,521.6582,128,512.6582,124,516.6582,120,512.6582,124,521.6582" style="stroke: #007F00; stroke-width: 1.0;"/><text fill="#007F00" font-family="sans-serif" font-size="11" lengthAdjust="spacingAndGlyphs" textLength="56" x="55.05" y="511.5717">ratio &gt; 1?</text><!--link #17 to Write ratio\n\nNa<sub>2</sub>--><path d="M120.2728,542.7412 C115.2757,554.4605 106.092,575.9986 97.9732,595.039 " fill="none" id="#17-Write ratio\n\nNa&lt;sub&gt;2&lt;/sub&gt;" style="stroke: #007F00; stroke-width: 1.0;"/><polygon fill="#007F00" points="95.9353,599.8185,103.145,593.1088,97.8966,595.2192,95.7862,589.9708,95.9353,599.8185" style="stroke: #007F00; stroke-width: 1.0;"/><text fill="#007F00" font-family="sans-serif" font-size="11" lengthAdjust="spacingAndGlyphs" textLength="20" x="111" y="577.2104">yes</text><!--link Write ratio\n\nNa<sub>2</sub> to CAT_WRITE_RATIO--><path d="M99.3877,665.367 C106.3281,678.4861 113.7559,692.5263 118.3883,701.2827 " fill="none" id="Write ratio\n\nNa&lt;sub&gt;2&lt;/sub&gt;-CAT_WRITE_RATIO" style="stroke: #007F00; stroke-width: 1.0;"/><polygon fill="#007F00" points="120.882,705.9965,120.2091,696.1707,118.5439,701.5769,113.1377,699.9116,120.882,705.9965" style="stroke: #007F00; stroke-width: 1.0;"/><!--link #17 to CAT_WRITE_RATIO--><path d="M128.2081,541.8879 C131.329,548.2077 135.3213,557.4076 137,566 C140.3037,582.9096 152.2504,544.3907 135,665 C133.1798,677.7264 128.9915,692.0033 126.0789,700.9954 " fill="none" id="#17-CAT_WRITE_RATIO" style="stroke: #A80036; stroke-width: 1.0;"/><polygon fill="#A80036" points="124.4629,705.8502,131.1008,698.5743,126.0422,701.1062,123.5103,696.0475,124.4629,705.8502" style="stroke: #A80036; stroke-width: 1.0;"/><text fill="#000000" font-family="sans-serif" font-size="11" lengthAdjust="spacingAndGlyphs" textLength="14" x="144" y="636.7104">no</text><!--link CAT_WRITE_RATIO to #25--><path d="M123,714.0993 C123,721.4254 123,737.1603 123,749.5751 " fill="none" id="CAT_WRITE_RATIO-#25" style="stroke: #007F00; stroke-width: 1.0;"/><polygon fill="#007F00" points="123,754.6582,127,745.6582,123,749.6582,119,745.6582,123,754.6582" style="stroke: #007F00; stroke-width: 1.0;"/><text fill="#007F00" font-family="sans-serif" font-size="11" lengthAdjust="spacingAndGlyphs" textLength="65" x="42.9688" y="744.5717">anion type?</text><!--link #25 to Write formula\nin parenthesis&#8203;\n\nNa<sub>2</sub>(CO<sub>3</sub>)--><path d="M116.6717,773.471 C110.8264,779.6714 102.1443,789.4695 96,799 C90.0895,808.1679 84.5616,818.4885 79.7228,828.4334 " fill="none" id="#25-Write formula\nin parenthesis&amp;#8203;\n\nNa&lt;sub&gt;2&lt;/sub&gt;(CO&lt;sub&gt;3&lt;/sub&gt;)" style="stroke: #007F00; stroke-width: 1.0;"/><polygon fill="#007F00" points="77.5492,832.9707,85.0449,826.5821,79.7093,828.4614,77.83,823.1258,77.5492,832.9707" style="stroke: #007F00; stroke-width: 1.0;"/><text fill="#007F00" font-family="sans-serif" font-size="11" lengthAdjust="spacingAndGlyphs" textLength="51" x="97" y="810.2104">molecule</text><!--link Write formula\nin parenthesis&#8203;\n\nNa<sub>2</sub>(CO<sub>3</sub>) to AN_WRITE--><path d="M90.1845,912.2757 C100.2547,926.0004 110.5812,940.0744 116.894,948.6781 " fill="none" id="Write formula\nin parenthesis&amp;#8203;\n\nNa&lt;sub&gt;2&lt;/sub&gt;(CO&lt;sub&gt;3&lt;/sub&gt;)-AN_WRITE" style="stroke: #007F00; stroke-width: 1.0;"/><polygon fill="#007F00" points="119.9611,952.8582,117.862,943.2356,117.0033,948.8269,111.412,947.9682,119.9611,952.8582" style="stroke: #007F00; stroke-width: 1.0;"/><!--link #25 to Write symbol&#8203;--><path d="M129.3043,773.4866 C135.1326,779.698 143.8032,789.5035 150,799 C160.6736,815.3572 170.2643,835.3399 176.8576,850.3385 " fill="none" id="#25-Write symbol&amp;#8203;" style="stroke: #A80036; stroke-width: 1.0;"/><polygon fill="#A80036" points="178.9759,855.2214,179.0635,845.3729,176.9859,850.6345,171.7244,848.5569,178.9759,855.2214" style="stroke: #A80036; stroke-width: 1.0;"/><text fill="#000000" font-family="sans-serif" font-size="11" lengthAdjust="spacingAndGlyphs" textLength="29" x="159" y="810.2104">atom</text><!--link Write symbol&#8203; to AN_WRITE--><path d="M173.251,889.5998 C159.813,907.6239 139.2166,935.2492 129.0735,948.8537 " fill="none" id="Write symbol&amp;#8203;-AN_WRITE" style="stroke: #A80036; stroke-width: 1.0;"/><polygon fill="#A80036" points="126.0599,952.8958,134.6462,948.0714,129.0485,948.8873,128.2326,943.2896,126.0599,952.8958" style="stroke: #A80036; stroke-width: 1.0;"/><!--link AN_WRITE to #35--><path d="M123,961.0993 C123,968.4254 123,984.1603 123,996.5751 " fill="none" id="AN_WRITE-#35" style="stroke: #007F00; stroke-width: 1.0;"/><polygon fill="#007F00" points="123,1001.6582,127,992.6582,123,996.6582,119,992.6582,123,1001.6582" style="stroke: #007F00; stroke-width: 1.0;"/><text fill="#007F00" font-family="sans-serif" font-size="11" lengthAdjust="spacingAndGlyphs" textLength="56" x="54.05" y="991.5717">ratio &gt; 1?</text><!--link #35 to Write ratio&#8203;--><path d="M118.8193,1022.2618 C112.6365,1034.4803 100.8401,1057.7921 92.0587,1075.1459 " fill="none" id="#35-Write ratio&amp;#8203;" style="stroke: #A80036; stroke-width: 1.0;"/><polygon fill="#A80036" points="89.669,1079.8684,97.3016,1073.644,91.9265,1075.4071,90.1635,1070.032,89.669,1079.8684" style="stroke: #A80036; stroke-width: 1.0;"/><text fill="#007F00" font-family="sans-serif" font-size="11" lengthAdjust="spacingAndGlyphs" textLength="20" x="107" y="1057.2104">yes</text><!--link Write ratio&#8203; to end--><path d="M91.346,1114.1593 C98.4035,1125.8643 107.6089,1141.1319 114.0834,1151.87 " fill="none" id="Write ratio&amp;#8203;-end" style="stroke: #A80036; stroke-width: 1.0;"/><polygon fill="#A80036" points="116.6768,1156.1712,115.4552,1146.3984,114.0951,1151.8893,108.6042,1150.5292,116.6768,1156.1712" style="stroke: #A80036; stroke-width: 1.0;"/><!--link #35 to end--><path d="M126.4688,1022.8064 C128.788,1029.1466 131.6524,1037.9635 133,1046 C137.9987,1075.8093 137.4846,1083.9761 134,1114 C132.5533,1126.4645 129.1811,1140.3052 126.3788,1150.4193 " fill="none" id="#35-end" style="stroke: #007F00; stroke-width: 1.0;"/><polygon fill="#007F00" points="124.9785,1155.3417,131.2885,1147.7797,126.3466,1150.5325,123.5938,1145.5907,124.9785,1155.3417" style="stroke: #007F00; stroke-width: 1.0;"/><text fill="#000000" font-family="sans-serif" font-size="11" lengthAdjust="spacingAndGlyphs" textLength="14" x="137" y="1101.2104">no</text><!--
@startuml
(*) -[#007F00]-> "Determine cation and anion\n\nCation=Na, charge=1+\nAnion=CO<sub>3</sub>, charge=2-" #00FF00
-[#007F00]-> "Determine ratios\n\n2:1" #00FF00

-[#007F00]-> if "<color:#007F00>cation type?" then
    - -> [molecule] "Write formula\nin parenthesis"
    - -> ===CAT_WRITE===
else
    -[#007F00]-> [<color:#007F00>atom] "Write symbol\n\nNa" #00FF00
    -[#007F00]-> ===CAT_WRITE===
endif

-[#007F00]-> if "<color:#007F00>ratio > 1?" then
    -[#007F00]-> [<color:#007F00>yes] "Write ratio\n\nNa<sub>2</sub>" #00FF00
    -[#007F00]-> ===CAT_WRITE_RATIO===
else
    - -> [no] ===CAT_WRITE_RATIO===
endif

-[#007F00]-> if "<color:#007F00>anion type?" then
    -[#007F00]-> [<color:#007F00>molecule] "Write formula\nin parenthesis&#8203;\n\nNa<sub>2</sub>(CO<sub>3</sub>)" #00FF00
    -[#007F00]-> ===AN_WRITE===
else
    - -> [atom] "Write symbol&#8203;"
    - -> ===AN_WRITE===
endif

-[#007F00]-> if "<color:#007F00>ratio > 1?" then
    - -> [<color:#007F00>yes] "Write ratio&#8203;"
    - -> (*)
else
    -[#007F00]-> [no] (*)
endif

@enduml

PlantUML version 1.2019.08(Sat Jul 13 19:25:14 GMT 2019)
(GPL source distribution)
Java Runtime: OpenJDK Runtime Environment
JVM: OpenJDK 64-Bit Server VM
Java Version: 11.0.4+4-alpine-r1
Operating System: Linux
OS Version: 5.3.0-23-generic
Default Encoding: UTF-8
Language: en
Country: US
--></g></svg>