<?xml version="1.0" encoding="UTF-8" standalone="no"?><svg xmlns="http://www.w3.org/2000/svg" xmlns:xlink="http://www.w3.org/1999/xlink" contentScriptType="application/ecmascript" contentStyleType="text/css" height="1166px" preserveAspectRatio="none" style="width:247px;height:1166px;" version="1.1" viewBox="0 0 247 1166" width="247px" zoomAndPan="magnify"><defs><filter height="300%" id="f3qnq0s61lhoz" width="300%" x="-1" y="-1"><feGaussianBlur result="blurOut" stdDeviation="2.0"/><feColorMatrix in="blurOut" result="blurOut2" type="matrix" values="0 0 0 0 0 0 0 0 0 0 0 0 0 0 0 0 0 0 .4 0"/><feOffset dx="4.0" dy="4.0" in="blurOut2" result="blurOut3"/><feBlend in="SourceGraphic" in2="blurOut3" mode="normal"/></filter></defs><g><ellipse cx="124" cy="18" fill="#000000" filter="url(#f3qnq0s61lhoz)" rx="10" ry="10" style="stroke: none; stroke-width: 1.0;"/><rect fill="#00FF00" filter="url(#f3qnq0s61lhoz)" height="75.875" rx="12.5" ry="12.5" style="stroke: #A80036; stroke-width: 1.5;" width="195" x="26.5" y="69"/><text fill="#000000" font-family="sans-serif" font-size="12" lengthAdjust="spacingAndGlyphs" textLength="175" x="36.5" y="90.1387">Determine cation and anion</text><text fill="#000000" font-family="sans-serif" font-size="12" lengthAdjust="spacingAndGlyphs" textLength="0" x="126" y="104.1074"/><text fill="#000000" font-family="sans-serif" font-size="12" lengthAdjust="spacingAndGlyphs" textLength="145" x="51.5" y="118.0762">Cation=Fe, charge=3+</text><text fill="#000000" font-family="sans-serif" font-size="12" lengthAdjust="spacingAndGlyphs" textLength="130" x="59" y="132.0449">Anion=Cl, charge=1-</text><rect fill="#00FF00" filter="url(#f3qnq0s61lhoz)" height="61.9063" rx="12.5" ry="12.5" style="stroke: #A80036; stroke-width: 1.5;" width="125" x="61.5" y="186"/><text fill="#000000" font-family="sans-serif" font-size="12" lengthAdjust="spacingAndGlyphs" textLength="105" x="71.5" y="207.1387">Determine ratios</text><text fill="#000000" font-family="sans-serif" font-size="12" lengthAdjust="spacingAndGlyphs" textLength="0" x="126" y="221.1074"/><text fill="#000000" font-family="sans-serif" font-size="12" lengthAdjust="spacingAndGlyphs" textLength="20" x="114" y="235.0762">1:3</text><polygon fill="#FEFECE" filter="url(#f3qnq0s61lhoz)" points="124,289,136,301,124,313,112,301,124,289" style="stroke: #A80036; stroke-width: 1.5;"/><rect fill="#FEFECE" filter="url(#f3qnq0s61lhoz)" height="47.9375" rx="12.5" ry="12.5" style="stroke: #A80036; stroke-width: 1.5;" width="110" x="7" y="374"/><text fill="#000000" font-family="sans-serif" font-size="12" lengthAdjust="spacingAndGlyphs" textLength="83" x="20.5" y="395.1387">Write formula</text><text fill="#000000" font-family="sans-serif" font-size="12" lengthAdjust="spacingAndGlyphs" textLength="90" x="17" y="409.1074">in parenthesis</text><rect fill="#000000" filter="url(#f3qnq0s61lhoz)" height="8" style="stroke: none; stroke-width: 1.0;" width="80" x="84" y="470"/><rect fill="#00FF00" filter="url(#f3qnq0s61lhoz)" height="61.9063" rx="12.5" ry="12.5" style="stroke: #A80036; stroke-width: 1.5;" width="99" x="137.5" y="367"/><text fill="#000000" font-family="sans-serif" font-size="12" lengthAdjust="spacingAndGlyphs" textLength="79" x="147.5" y="388.1387">Write symbol</text><text fill="#000000" font-family="sans-serif" font-size="12" lengthAdjust="spacingAndGlyphs" textLength="0" x="189" y="402.1074"/><text fill="#000000" font-family="sans-serif" font-size="12" lengthAdjust="spacingAndGlyphs" textLength="15" x="179.5" y="416.0762">Fe</text><polygon fill="#FEFECE" filter="url(#f3qnq0s61lhoz)" points="124,519,136,531,124,543,112,531,124,519" style="stroke: #A80036; stroke-width: 1.5;"/><rect fill="#FEFECE" filter="url(#f3qnq0s61lhoz)" height="33.9688" rx="12.5" ry="12.5" style="stroke: #A80036; stroke-width: 1.5;" width="85" x="39.5" y="597"/><text fill="#000000" font-family="sans-serif" font-size="12" lengthAdjust="spacingAndGlyphs" textLength="65" x="49.5" y="618.1387">Write ratio</text><rect fill="#000000" filter="url(#f3qnq0s61lhoz)" height="8" style="stroke: none; stroke-width: 1.0;" width="80" x="83" y="672"/><polygon fill="#FEFECE" filter="url(#f3qnq0s61lhoz)" points="123,721,135,733,123,745,111,733,123,721" style="stroke: #A80036; stroke-width: 1.5;"/><rect fill="#FEFECE" filter="url(#f3qnq0s61lhoz)" height="47.9375" rx="12.5" ry="12.5" style="stroke: #A80036; stroke-width: 1.5;" width="110" x="6" y="806"/><text fill="#000000" font-family="sans-serif" font-size="12" lengthAdjust="spacingAndGlyphs" textLength="83" x="19.5" y="827.1387">Write formula</text><text fill="#000000" font-family="sans-serif" font-size="12" lengthAdjust="spacingAndGlyphs" textLength="90" x="16" y="841.1074">in parenthesis​</text><rect fill="#000000" filter="url(#f3qnq0s61lhoz)" height="8" style="stroke: none; stroke-width: 1.0;" width="80" x="83" y="902"/><rect fill="#00FF00" filter="url(#f3qnq0s61lhoz)" height="61.9063" rx="12.5" ry="12.5" style="stroke: #A80036; stroke-width: 1.5;" width="99" x="136.5" y="799"/><text fill="#000000" font-family="sans-serif" font-size="12" lengthAdjust="spacingAndGlyphs" textLength="79" x="146.5" y="820.1387">Write symbol​</text><text fill="#000000" font-family="sans-serif" font-size="12" lengthAdjust="spacingAndGlyphs" textLength="0" x="188" y="834.1074"/><text fill="#000000" font-family="sans-serif" font-size="12" lengthAdjust="spacingAndGlyphs" textLength="26" x="173" y="848.0762">FeCl</text><polygon fill="#FEFECE" filter="url(#f3qnq0s61lhoz)" points="123,951,135,963,123,975,111,963,123,951" style="stroke: #A80036; stroke-width: 1.5;"/><rect fill="#00FF00" filter="url(#f3qnq0s61lhoz)" height="64.9063" rx="12.5" ry="12.5" style="stroke: #A80036; stroke-width: 1.5;" width="85" x="38.5" y="1029"/><text fill="#000000" font-family="sans-serif" font-size="12" lengthAdjust="spacingAndGlyphs" textLength="65" x="48.5" y="1050.1387">Write ratio​</text><text fill="#000000" font-family="sans-serif" font-size="12" lengthAdjust="spacingAndGlyphs" textLength="0" x="83" y="1064.1074"/><text fill="#000000" font-family="sans-serif" font-size="12" lengthAdjust="spacingAndGlyphs" textLength="26" x="65" y="1078.0762">FeCl</text><text fill="#000000" font-family="sans-serif" font-size="9" lengthAdjust="spacingAndGlyphs" textLength="6" x="91" y="1081.7837">3</text><ellipse cx="122" cy="1145" fill="none" filter="url(#f3qnq0s61lhoz)" rx="10" ry="10" style="stroke: #000000; stroke-width: 1.0;"/><ellipse cx="122.5" cy="1145.5" fill="#000000" rx="6" ry="6" style="stroke: none; stroke-width: 1.0;"/><!--link start to Determine cation and anion\n\nCation=Fe, charge=3+\nAnion=Cl, charge=1- --><path d="M124,28.2094 C124,36.9967 124,50.3102 124,63.5057 " fill="none" id="start-Determine cation and anion\n\nCation=Fe, charge=3+\nAnion=Cl, charge=1-" style="stroke: #007F00; stroke-width: 1.0;"/><polygon fill="#007F00" points="124,68.7435,128,59.7435,124,63.7435,120,59.7435,124,68.7435" style="stroke: #007F00; stroke-width: 1.0;"/><!--link Determine cation and anion\n\nCation=Fe, charge=3+\nAnion=Cl, charge=1- to Determine ratios\n\n1:3--><path d="M124,145.164 C124,156.6794 124,169.2847 124,180.6768 " fill="none" id="Determine cation and anion\n\nCation=Fe, charge=3+\nAnion=Cl, charge=1--Determine ratios\n\n1:3" style="stroke: #007F00; stroke-width: 1.0;"/><polygon fill="#007F00" points="124,185.8174,128,176.8174,124,180.8174,120,176.8174,124,185.8174" style="stroke: #007F00; stroke-width: 1.0;"/><!--link Determine ratios\n\n1:3 to #7--><path d="M124,248.2785 C124,260.3538 124,273.6963 124,283.9375 " fill="none" id="Determine ratios\n\n1:3-#7" style="stroke: #007F00; stroke-width: 1.0;"/><polygon fill="#007F00" points="124,288.9872,128,279.9872,124,283.9872,120,279.9872,124,288.9872" style="stroke: #007F00; stroke-width: 1.0;"/><text fill="#007F00" font-family="sans-serif" font-size="11" lengthAdjust="spacingAndGlyphs" textLength="68" x="39.425" y="278.6126">cation type?</text><!--link #7 to Write formula\nin parenthesis--><path d="M117.7788,307.542 C112.0092,313.7926 103.3784,323.6245 97,333 C89.2354,344.4132 81.8091,357.728 75.8108,369.3243 " fill="none" id="#7-Write formula\nin parenthesis" style="stroke: #A80036; stroke-width: 1.0;"/><polygon fill="#A80036" points="73.5001,373.843,81.1591,367.651,75.7765,369.3913,74.0363,364.0087,73.5001,373.843" style="stroke: #A80036; stroke-width: 1.0;"/><text fill="#000000" font-family="sans-serif" font-size="11" lengthAdjust="spacingAndGlyphs" textLength="51" x="98" y="344.2104">molecule</text><!--link Write formula\nin parenthesis to CAT_WRITE--><path d="M81.6172,422.0469 C93.9099,437.1153 108.9756,455.583 117.4309,465.9476 " fill="none" id="Write formula\nin parenthesis-CAT_WRITE" style="stroke: #A80036; stroke-width: 1.0;"/><polygon fill="#A80036" points="120.6226,469.8599,118.033,460.3576,117.462,465.9856,111.834,465.4146,120.6226,469.8599" style="stroke: #A80036; stroke-width: 1.0;"/><!--link #7 to Write symbol\n\nFe--><path d="M130.1958,307.5593 C135.9475,313.8222 144.5662,323.6625 151,333 C157.3471,342.2117 163.525,352.6412 168.9201,362.4064 " fill="none" id="#7-Write symbol\n\nFe" style="stroke: #007F00; stroke-width: 1.0;"/><polygon fill="#007F00" points="171.3416,366.8396,170.5374,357.0236,168.9446,362.4516,163.5166,360.8588,171.3416,366.8396" style="stroke: #007F00; stroke-width: 1.0;"/><text fill="#007F00" font-family="sans-serif" font-size="11" lengthAdjust="spacingAndGlyphs" textLength="29" x="160" y="344.2104">atom</text><!--link Write symbol\n\nFe to CAT_WRITE--><path d="M161.0118,429.3509 C150.0299,442.5989 138.1255,456.9597 130.8639,465.7197 " fill="none" id="Write symbol\n\nFe-CAT_WRITE" style="stroke: #007F00; stroke-width: 1.0;"/><polygon fill="#007F00" points="127.3427,469.9676,136.166,465.5916,130.5337,466.1183,130.0071,460.486,127.3427,469.9676" style="stroke: #007F00; stroke-width: 1.0;"/><!--link CAT_WRITE to #17--><path d="M124,478.0993 C124,485.4254 124,501.1603 124,513.5751 " fill="none" id="CAT_WRITE-#17" style="stroke: #007F00; stroke-width: 1.0;"/><polygon fill="#007F00" points="124,518.6582,128,509.6582,124,513.6582,120,509.6582,124,518.6582" style="stroke: #007F00; stroke-width: 1.0;"/><text fill="#007F00" font-family="sans-serif" font-size="11" lengthAdjust="spacingAndGlyphs" textLength="56" x="55.05" y="508.5717">ratio &gt; 1?</text><!--link #17 to Write ratio--><path d="M119.8193,539.2618 C113.6365,551.4803 101.8401,574.7921 93.0587,592.1459 " fill="none" id="#17-Write ratio" style="stroke: #A80036; stroke-width: 1.0;"/><polygon fill="#A80036" points="90.669,596.8684,98.3016,590.644,92.9265,592.4071,91.1635,587.032,90.669,596.8684" style="stroke: #A80036; stroke-width: 1.0;"/><text fill="#000000" font-family="sans-serif" font-size="11" lengthAdjust="spacingAndGlyphs" textLength="20" x="108" y="574.2104">yes</text><!--link Write ratio to CAT_WRITE_RATIO--><path d="M93.4208,631.2705 C101.1689,642.9871 111.0854,657.9828 117.2401,667.2899 " fill="none" id="Write ratio-CAT_WRITE_RATIO" style="stroke: #A80036; stroke-width: 1.0;"/><polygon fill="#A80036" points="120.0842,671.5908,118.4564,661.8774,117.3263,667.4202,111.7835,666.2901,120.0842,671.5908" style="stroke: #A80036; stroke-width: 1.0;"/><!--link #17 to CAT_WRITE_RATIO--><path d="M127.4688,539.8064 C129.788,546.1466 132.6524,554.9635 134,563 C138.9987,592.8093 138.9273,601.0307 135,631 C133.3296,643.747 129.1051,658.0189 126.1435,667.0043 " fill="none" id="#17-CAT_WRITE_RATIO" style="stroke: #007F00; stroke-width: 1.0;"/><polygon fill="#007F00" points="124.4968,671.8549,131.1776,664.6184,126.1041,667.1203,123.6022,662.0468,124.4968,671.8549" style="stroke: #007F00; stroke-width: 1.0;"/><text fill="#007F00" font-family="sans-serif" font-size="11" lengthAdjust="spacingAndGlyphs" textLength="14" x="138" y="618.2104">no</text><!--link CAT_WRITE_RATIO to #25--><path d="M123,680.0993 C123,687.4254 123,703.1603 123,715.5751 " fill="none" id="CAT_WRITE_RATIO-#25" style="stroke: #007F00; stroke-width: 1.0;"/><polygon fill="#007F00" points="123,720.6582,127,711.6582,123,715.6582,119,711.6582,123,720.6582" style="stroke: #007F00; stroke-width: 1.0;"/><text fill="#007F00" font-family="sans-serif" font-size="11" lengthAdjust="spacingAndGlyphs" textLength="65" x="42.9688" y="710.5717">anion type?</text><!--link #25 to Write formula\nin parenthesis&#8203;--><path d="M116.7788,739.542 C111.0092,745.7926 102.3784,755.6245 96,765 C88.2354,776.4132 80.8091,789.728 74.8108,801.3243 " fill="none" id="#25-Write formula\nin parenthesis&amp;#8203;" style="stroke: #A80036; stroke-width: 1.0;"/><polygon fill="#A80036" points="72.5001,805.843,80.1591,799.651,74.7765,801.3913,73.0363,796.0087,72.5001,805.843" style="stroke: #A80036; stroke-width: 1.0;"/><text fill="#000000" font-family="sans-serif" font-size="11" lengthAdjust="spacingAndGlyphs" textLength="51" x="97" y="776.2104">molecule</text><!--link Write formula\nin parenthesis&#8203; to AN_WRITE--><path d="M80.6172,854.0469 C92.9099,869.1153 107.9756,887.583 116.4309,897.9476 " fill="none" id="Write formula\nin parenthesis&amp;#8203;-AN_WRITE" style="stroke: #A80036; stroke-width: 1.0;"/><polygon fill="#A80036" points="119.6226,901.8599,117.033,892.3576,116.462,897.9856,110.834,897.4146,119.6226,901.8599" style="stroke: #A80036; stroke-width: 1.0;"/><!--link #25 to Write symbol&#8203;\n\nFeCl--><path d="M129.1958,739.5593 C134.9475,745.8222 143.5662,755.6625 150,765 C156.3471,774.2117 162.525,784.6412 167.9201,794.4064 " fill="none" id="#25-Write symbol&amp;#8203;\n\nFeCl" style="stroke: #007F00; stroke-width: 1.0;"/><polygon fill="#007F00" points="170.3416,798.8396,169.5374,789.0236,167.9446,794.4516,162.5166,792.8588,170.3416,798.8396" style="stroke: #007F00; stroke-width: 1.0;"/><text fill="#007F00" font-family="sans-serif" font-size="11" lengthAdjust="spacingAndGlyphs" textLength="29" x="159" y="776.2104">atom</text><!--link Write symbol&#8203;\n\nFeCl to AN_WRITE--><path d="M160.0118,861.3509 C149.0299,874.5989 137.1255,888.9597 129.8639,897.7197 " fill="none" id="Write symbol&amp;#8203;\n\nFeCl-AN_WRITE" style="stroke: #007F00; stroke-width: 1.0;"/><polygon fill="#007F00" points="126.3427,901.9676,135.166,897.5916,129.5337,898.1183,129.0071,892.486,126.3427,901.9676" style="stroke: #007F00; stroke-width: 1.0;"/><!--link AN_WRITE to #35--><path d="M123,910.0993 C123,917.4254 123,933.1603 123,945.5751 " fill="none" id="AN_WRITE-#35" style="stroke: #007F00; stroke-width: 1.0;"/><polygon fill="#007F00" points="123,950.6582,127,941.6582,123,945.6582,119,941.6582,123,950.6582" style="stroke: #007F00; stroke-width: 1.0;"/><text fill="#007F00" font-family="sans-serif" font-size="11" lengthAdjust="spacingAndGlyphs" textLength="56" x="54.05" y="940.5717">ratio &gt; 1?</text><!--link #35 to Write ratio&#8203;\n\nFeCl<sub>3</sub>--><path d="M119.2728,971.7412 C114.2757,983.4605 105.092,1004.9986 96.9732,1024.039 " fill="none" id="#35-Write ratio&amp;#8203;\n\nFeCl&lt;sub&gt;3&lt;/sub&gt;" style="stroke: #007F00; stroke-width: 1.0;"/><polygon fill="#007F00" points="94.9353,1028.8185,102.145,1022.1088,96.8966,1024.2192,94.7862,1018.9708,94.9353,1028.8185" style="stroke: #007F00; stroke-width: 1.0;"/><text fill="#007F00" font-family="sans-serif" font-size="11" lengthAdjust="spacingAndGlyphs" textLength="20" x="110" y="1006.2104">yes</text><!--link Write ratio&#8203;\n\nFeCl<sub>3</sub> to end--><path d="M96.9691,1094.0224 C103.3069,1106.9299 110.253,1121.0762 115.2166,1131.1851 " fill="none" id="Write ratio&amp;#8203;\n\nFeCl&lt;sub&gt;3&lt;/sub&gt;-end" style="stroke: #007F00; stroke-width: 1.0;"/><polygon fill="#007F00" points="117.4827,1135.8002,117.1067,1125.9585,115.279,1131.312,109.9255,1129.4844,117.4827,1135.8002" style="stroke: #007F00; stroke-width: 1.0;"/><!--link #35 to end--><path d="M127.2081,970.8879 C130.329,977.2077 134.3213,986.4076 136,995 C139.1233,1010.9867 150.1554,967.786 134,1094 C132.4068,1106.4466 129.046,1120.2887 126.2853,1130.4079 " fill="none" id="#35-end" style="stroke: #A80036; stroke-width: 1.0;"/><polygon fill="#A80036" points="124.9089,1135.3332,131.1838,1127.7421,126.2548,1130.5177,123.4791,1125.5887,124.9089,1135.3332" style="stroke: #A80036; stroke-width: 1.0;"/><text fill="#000000" font-family="sans-serif" font-size="11" lengthAdjust="spacingAndGlyphs" textLength="14" x="142" y="1065.7104">no</text><!--
@startuml
(*) -[#007F00]-> "Determine cation and anion\n\nCation=Fe, charge=3+\nAnion=Cl, charge=1-" #00FF00
-[#007F00]-> "Determine ratios\n\n1:3" #00FF00

-[#007F00]-> if "<color:#007F00>cation type?" then
    - -> [molecule] "Write formula\nin parenthesis"
    - -> ===CAT_WRITE===
else
    -[#007F00]-> [<color:#007F00>atom] "Write symbol\n\nFe" #00FF00
    -[#007F00]-> ===CAT_WRITE===
endif

-[#007F00]-> if "<color:#007F00>ratio > 1?" then
    - -> [yes] "Write ratio"
    - -> ===CAT_WRITE_RATIO===
else
    -[#007F00]-> [<color:#007F00>no] ===CAT_WRITE_RATIO===
endif

-[#007F00]-> if "<color:#007F00>anion type?" then
    - -> [molecule] "Write formula\nin parenthesis&#8203;"
    - -> ===AN_WRITE===
else
    -[#007F00]-> [<color:#007F00>atom] "Write symbol&#8203;\n\nFeCl" #00FF00
    -[#007F00]-> ===AN_WRITE===
endif

-[#007F00]-> if "<color:#007F00>ratio > 1?" then
    -[#007F00]-> [<color:#007F00>yes] "Write ratio&#8203;\n\nFeCl<sub>3</sub>" #00FF00
    -[#007F00]-> (*)
else
    - -> [no] (*)
endif

@enduml

PlantUML version 1.2019.08(Sat Jul 13 19:25:14 GMT 2019)
(GPL source distribution)
Java Runtime: OpenJDK Runtime Environment
JVM: OpenJDK 64-Bit Server VM
Java Version: 11.0.4+4-alpine-r1
Operating System: Linux
OS Version: 5.3.0-24-generic
Default Encoding: UTF-8
Language: en
Country: US
--></g></svg>