<?xml version="1.0" encoding="UTF-8" standalone="no"?>
<!DOCTYPE svg PUBLIC "-//W3C//DTD SVG 1.1//EN"
 "http://www.w3.org/Graphics/SVG/1.1/DTD/svg11.dtd">
<!-- Generated by graphviz version 2.40.1 (0)
 -->
<!-- Title: G Pages: 1 -->
<svg width="700pt" height="207pt"
 viewBox="0.00 0.00 700.00 207.00" xmlns="http://www.w3.org/2000/svg" xmlns:xlink="http://www.w3.org/1999/xlink">
<g id="graph0" class="graph" transform="scale(1 1) rotate(0) translate(4 203)">
<title>G</title>
<polygon fill="#ffffff" stroke="transparent" points="-4,4 -4,-203 696,-203 696,4 -4,4"/>
<g id="clust1" class="cluster">
<title>clusterparent1</title>
<polygon fill="none" stroke="#000000" points="8,-116 8,-191 242,-191 242,-116 8,-116"/>
<text text-anchor="middle" x="125" y="-175.8" font-family="Times,serif" font-size="14.00" fill="#000000">Male parent eye color alleles</text>
</g>
<g id="clust2" class="cluster">
<title>clusterparent2</title>
<polygon fill="none" stroke="#000000" points="370,-116 370,-191 619,-191 619,-116 370,-116"/>
<text text-anchor="middle" x="494.5" y="-175.8" font-family="Times,serif" font-size="14.00" fill="#000000">Female parent eye color alleles</text>
</g>
<g id="clust3" class="cluster">
<title>clusterchild1</title>
<polygon fill="none" stroke="#000000" points="225,-8 225,-83 414,-83 414,-8 225,-8"/>
<text text-anchor="middle" x="319.5" y="-67.8" font-family="Times,serif" font-size="14.00" fill="#000000">Child eye color alleles</text>
</g>
<!-- blue1 -->
<g id="node1" class="node">
<title>blue1</title>
<ellipse fill="none" stroke="#000000" cx="186" cy="-142" rx="30.5947" ry="18"/>
<text text-anchor="middle" x="186" y="-138.3" font-family="Times,serif" font-size="14.00" fill="#000000">Blue</text>
</g>
<!-- blue2 -->
<g id="node5" class="node">
<title>blue2</title>
<ellipse fill="none" stroke="#000000" cx="264" cy="-34" rx="30.5947" ry="18"/>
<text text-anchor="middle" x="264" y="-30.3" font-family="Times,serif" font-size="14.00" fill="#000000">Blue</text>
</g>
<!-- blue1&#45;&gt;blue2 -->
<g id="edge1" class="edge">
<title>blue1&#45;&gt;blue2</title>
<path fill="none" stroke="#000000" d="M182.5999,-124.0543C181.5499,-113.8224 181.7999,-101.0724 187,-91 196.3348,-72.9189 214.3336,-59.1015 230.5832,-49.6021"/>
<polygon fill="#000000" stroke="#000000" points="232.2914,-52.6571 239.3647,-44.7692 228.9163,-46.5245 232.2914,-52.6571"/>
<text text-anchor="middle" x="307.5" y="-94.8" font-family="Times,serif" font-size="14.00" fill="#000000">randomly chosen from male parent</text>
</g>
<!-- brown1 -->
<g id="node2" class="node">
<title>brown1</title>
<ellipse fill="none" stroke="#000000" cx="85" cy="-142" rx="35.194" ry="18"/>
<text text-anchor="middle" x="85" y="-138.3" font-family="Times,serif" font-size="14.00" fill="#000000">Brown</text>
</g>
<!-- brown2 -->
<g id="node3" class="node">
<title>brown2</title>
<ellipse fill="none" stroke="#000000" cx="557" cy="-142" rx="35.194" ry="18"/>
<text text-anchor="middle" x="557" y="-138.3" font-family="Times,serif" font-size="14.00" fill="#000000">Brown</text>
</g>
<!-- brown3 -->
<g id="node4" class="node">
<title>brown3</title>
<ellipse fill="none" stroke="#000000" cx="450" cy="-142" rx="35.194" ry="18"/>
<text text-anchor="middle" x="450" y="-138.3" font-family="Times,serif" font-size="14.00" fill="#000000">Brown</text>
</g>
<!-- brown4 -->
<g id="node6" class="node">
<title>brown4</title>
<ellipse fill="none" stroke="#000000" cx="371" cy="-34" rx="35.194" ry="18"/>
<text text-anchor="middle" x="371" y="-30.3" font-family="Times,serif" font-size="14.00" fill="#000000">Brown</text>
</g>
<!-- brown3&#45;&gt;brown4 -->
<g id="edge2" class="edge">
<title>brown3&#45;&gt;brown4</title>
<path fill="none" stroke="#000000" d="M444.1989,-124.1594C440.4318,-113.9625 434.9318,-101.2125 428,-91 419.3987,-78.3278 407.7347,-66.0735 397.1984,-56.1955"/>
<polygon fill="#000000" stroke="#000000" points="399.5376,-53.592 389.7856,-49.4509 394.8267,-58.7696 399.5376,-53.592"/>
<text text-anchor="middle" x="564" y="-94.8" font-family="Times,serif" font-size="14.00" fill="#000000">randomly chosen from female parent</text>
</g>
</g>
</svg>
